<?xml version="1.0" encoding="UTF-8" standalone="no"?>
<!DOCTYPE svg PUBLIC "-//W3C//DTD SVG 1.1//EN"
 "http://www.w3.org/Graphics/SVG/1.1/DTD/svg11.dtd">
<!-- Generated by graphviz version 12.1.2 (20240928.0832)
 -->
<!-- Title: G Pages: 1 -->
<svg width="1018pt" height="509pt"
 viewBox="0.00 0.00 1018.00 509.00" xmlns="http://www.w3.org/2000/svg" xmlns:xlink="http://www.w3.org/1999/xlink">
<g id="graph0" class="graph" transform="scale(1 1) rotate(0) translate(4 505)">
<title>G</title>
<polygon fill="white" stroke="none" points="-4,4 -4,-505 1014,-505 1014,4 -4,4"/>
<!-- node0000 -->
<g id="node1" class="node">
<title>node0000</title>
<ellipse fill="none" stroke="black" cx="396" cy="-465" rx="36" ry="36"/>
<text text-anchor="middle" x="396" y="-461.12" font-family="Times New Roman,serif" font-size="10.00">Thing</text>
</g>
<!-- node0001 -->
<g id="node2" class="node">
<title>node0001</title>
<ellipse fill="none" stroke="black" cx="36" cy="-340.5" rx="36" ry="36"/>
<text text-anchor="middle" x="36" y="-342.25" font-family="Times New Roman,serif" font-size="10.00">ScenarioResilien</text>
<text text-anchor="middle" x="36" y="-331" font-family="Times New Roman,serif" font-size="10.00">ce</text>
</g>
<!-- node0001&#45;&gt;node0000 -->
<g id="edge1" class="edge">
<title>node0001&#45;&gt;node0000</title>
<path fill="none" stroke="black" d="M63.08,-364.89C68.77,-369.12 74.9,-373.22 81,-376.5 169.01,-423.81 284.94,-447.43 348.77,-457.57"/>
<polygon fill="black" stroke="black" points="348.15,-461.02 358.56,-459.08 349.21,-454.1 348.15,-461.02"/>
<text text-anchor="middle" x="163.79" y="-397.7" font-family="Times New Roman,serif" font-size="14.00">is a</text>
</g>
<!-- node0002 -->
<g id="node3" class="node">
<title>node0002</title>
<ellipse fill="none" stroke="black" cx="126" cy="-340.5" rx="36" ry="36"/>
<text text-anchor="middle" x="126" y="-336.62" font-family="Times New Roman,serif" font-size="10.00">Emergency</text>
</g>
<!-- node0002&#45;&gt;node0000 -->
<g id="edge2" class="edge">
<title>node0002&#45;&gt;node0000</title>
<path fill="none" stroke="black" d="M153.2,-364.67C158.88,-368.92 164.97,-373.08 171,-376.5 229.77,-409.84 303.75,-435.88 350.47,-450.61"/>
<polygon fill="black" stroke="black" points="349.42,-453.94 360,-453.56 351.49,-447.26 349.42,-453.94"/>
<text text-anchor="middle" x="245.73" y="-397.7" font-family="Times New Roman,serif" font-size="14.00">is a</text>
</g>
<!-- node0003 -->
<g id="node4" class="node">
<title>node0003</title>
<ellipse fill="none" stroke="black" cx="216" cy="-340.5" rx="36" ry="36"/>
<text text-anchor="middle" x="216" y="-336.62" font-family="Times New Roman,serif" font-size="10.00">InvolvedScenario</text>
</g>
<!-- node0003&#45;&gt;node0000 -->
<g id="edge3" class="edge">
<title>node0003&#45;&gt;node0000</title>
<path fill="none" stroke="black" d="M243.8,-363.72C249.43,-368.05 255.35,-372.49 261,-376.5 292.22,-398.7 328.74,-422.23 355.92,-439.29"/>
<polygon fill="black" stroke="black" points="353.86,-442.13 364.2,-444.46 357.57,-436.2 353.86,-442.13"/>
<text text-anchor="middle" x="317.9" y="-397.7" font-family="Times New Roman,serif" font-size="14.00">is a</text>
</g>
<!-- node0004 -->
<g id="node5" class="node">
<title>node0004</title>
<ellipse fill="none" stroke="black" cx="306" cy="-340.5" rx="36" ry="36"/>
<text text-anchor="middle" x="306" y="-342.25" font-family="Times New Roman,serif" font-size="10.00">ResilienceInflue</text>
<text text-anchor="middle" x="306" y="-331" font-family="Times New Roman,serif" font-size="10.00">ntialFactors</text>
</g>
<!-- node0004&#45;&gt;node0000 -->
<g id="edge4" class="edge">
<title>node0004&#45;&gt;node0000</title>
<path fill="none" stroke="black" d="M327.1,-370.22C339.4,-386.96 355.06,-408.27 368.33,-426.34"/>
<polygon fill="black" stroke="black" points="365.39,-428.25 374.14,-434.24 371.03,-424.11 365.39,-428.25"/>
<text text-anchor="middle" x="365.76" y="-397.7" font-family="Times New Roman,serif" font-size="14.00">is a</text>
</g>
<!-- node0005 -->
<g id="node6" class="node">
<title>node0005</title>
<ellipse fill="none" stroke="black" cx="396" cy="-340.5" rx="36" ry="36"/>
<text text-anchor="middle" x="396" y="-342.25" font-family="Times New Roman,serif" font-size="10.00">InvolvedScenario</text>
<text text-anchor="middle" x="396" y="-331" font-family="Times New Roman,serif" font-size="10.00">Element</text>
</g>
<!-- node0005&#45;&gt;node0000 -->
<g id="edge5" class="edge">
<title>node0005&#45;&gt;node0000</title>
<path fill="none" stroke="black" d="M396,-376.93C396,-389.5 396,-403.85 396,-417.22"/>
<polygon fill="black" stroke="black" points="392.5,-417.13 396,-427.13 399.5,-417.13 392.5,-417.13"/>
<text text-anchor="middle" x="405.38" y="-397.7" font-family="Times New Roman,serif" font-size="14.00">is a</text>
</g>
<!-- node0006 -->
<g id="node7" class="node">
<title>node0006</title>
<ellipse fill="none" stroke="black" cx="486" cy="-340.5" rx="36" ry="36"/>
<text text-anchor="middle" x="486" y="-336.62" font-family="Times New Roman,serif" font-size="10.00">Scenario</text>
</g>
<!-- node0006&#45;&gt;node0000 -->
<g id="edge6" class="edge">
<title>node0006&#45;&gt;node0000</title>
<path fill="none" stroke="black" d="M464.9,-370.22C452.6,-386.96 436.94,-408.27 423.67,-426.34"/>
<polygon fill="black" stroke="black" points="420.97,-424.11 417.86,-434.24 426.61,-428.25 420.97,-424.11"/>
<text text-anchor="middle" x="455.76" y="-397.7" font-family="Times New Roman,serif" font-size="14.00">is a</text>
</g>
<!-- node0007 -->
<g id="node8" class="node">
<title>node0007</title>
<ellipse fill="none" stroke="black" cx="725" cy="-340.5" rx="36" ry="36"/>
<text text-anchor="middle" x="725" y="-336.62" font-family="Times New Roman,serif" font-size="10.00">ScenarioElement</text>
</g>
<!-- node0007&#45;&gt;node0000 -->
<g id="edge7" class="edge">
<title>node0007&#45;&gt;node0000</title>
<path fill="none" stroke="black" d="M698.62,-365.41C680.53,-380.59 655.29,-399.49 630,-411 568.88,-438.82 491.95,-452.62 443.35,-459.02"/>
<polygon fill="black" stroke="black" points="442.92,-455.55 433.44,-460.27 443.79,-462.5 442.92,-455.55"/>
<text text-anchor="middle" x="667.54" y="-397.7" font-family="Times New Roman,serif" font-size="14.00">is a</text>
</g>
<!-- node0008 -->
<g id="node9" class="node">
<title>node0008</title>
<ellipse fill="none" stroke="black" cx="638" cy="-250.5" rx="36" ry="36"/>
<text text-anchor="middle" x="638" y="-246.62" font-family="Times New Roman,serif" font-size="10.00">Item</text>
</g>
<!-- node0008&#45;&gt;node0000 -->
<g id="edge8" class="edge">
<title>node0008&#45;&gt;node0000</title>
<path fill="none" stroke="black" d="M617.13,-280.38C596.93,-307.15 564.53,-347.15 531,-376.5 502.08,-401.81 465.25,-425.19 437.36,-441.41"/>
<polygon fill="black" stroke="black" points="435.77,-438.28 428.84,-446.29 439.25,-444.36 435.77,-438.28"/>
<text text-anchor="middle" x="607.44" y="-335.45" font-family="Times New Roman,serif" font-size="14.00">is a</text>
</g>
<!-- node0009 -->
<g id="node10" class="node">
<title>node0009</title>
<ellipse fill="none" stroke="black" cx="815" cy="-340.5" rx="36" ry="36"/>
<text text-anchor="middle" x="815" y="-336.62" font-family="Times New Roman,serif" font-size="10.00">EmergencyPhase</text>
</g>
<!-- node0009&#45;&gt;node0000 -->
<g id="edge9" class="edge">
<title>node0009&#45;&gt;node0000</title>
<path fill="none" stroke="black" d="M787.8,-364.67C782.12,-368.92 776.03,-373.09 770,-376.5 733.09,-397.41 721.81,-399.41 681,-411 598.8,-434.36 500.26,-450.05 443.22,-457.96"/>
<polygon fill="black" stroke="black" points="442.97,-454.46 433.54,-459.29 443.92,-461.4 442.97,-454.46"/>
<text text-anchor="middle" x="742.34" y="-397.7" font-family="Times New Roman,serif" font-size="14.00">is a</text>
</g>
<!-- node0010 -->
<g id="node11" class="node">
<title>node0010</title>
<ellipse fill="none" stroke="black" cx="36" cy="-160.5" rx="36" ry="36"/>
<text text-anchor="middle" x="36" y="-156.62" font-family="Times New Roman,serif" font-size="10.00">TimeFactors</text>
</g>
<!-- node0010&#45;&gt;node0004 -->
<g id="edge10" class="edge">
<title>node0010&#45;&gt;node0004</title>
<path fill="none" stroke="black" d="M52.29,-192.84C69.32,-222.18 98.9,-264.68 137.25,-286.5 185.56,-313.98 209.87,-282.72 261,-304.5 264.18,-305.85 267.32,-307.49 270.39,-309.3"/>
<polygon fill="black" stroke="black" points="268.31,-312.12 278.58,-314.74 272.18,-306.29 268.31,-312.12"/>
<text text-anchor="middle" x="146.62" y="-245.45" font-family="Times New Roman,serif" font-size="14.00">is a</text>
</g>
<!-- node0011 -->
<g id="node12" class="node">
<title>node0011</title>
<ellipse fill="none" stroke="black" cx="126" cy="-160.5" rx="36" ry="36"/>
<text text-anchor="middle" x="126" y="-156.62" font-family="Times New Roman,serif" font-size="10.00">EconomicFactors</text>
</g>
<!-- node0011&#45;&gt;node0004 -->
<g id="edge11" class="edge">
<title>node0011&#45;&gt;node0004</title>
<path fill="none" stroke="black" d="M143.64,-192.13C160.81,-219.75 189.1,-259.98 222.25,-286.5 237.08,-298.36 244.79,-294.61 261,-304.5 263.77,-306.19 266.57,-308.02 269.35,-309.94"/>
<polygon fill="black" stroke="black" points="267.24,-312.73 277.39,-315.75 271.34,-307.05 267.24,-312.73"/>
<text text-anchor="middle" x="231.62" y="-245.45" font-family="Times New Roman,serif" font-size="14.00">is a</text>
</g>
<!-- node0012 -->
<g id="node13" class="node">
<title>node0012</title>
<ellipse fill="none" stroke="black" cx="216" cy="-160.5" rx="36" ry="36"/>
<text text-anchor="middle" x="216" y="-156.62" font-family="Times New Roman,serif" font-size="10.00">SafetyFactors</text>
</g>
<!-- node0012&#45;&gt;node0004 -->
<g id="edge12" class="edge">
<title>node0012&#45;&gt;node0004</title>
<path fill="none" stroke="black" d="M231.88,-192.91C246.64,-222.09 268.71,-265.74 284.93,-297.83"/>
<polygon fill="black" stroke="black" points="281.65,-299.11 289.29,-306.45 287.9,-295.95 281.65,-299.11"/>
<text text-anchor="middle" x="286.26" y="-245.45" font-family="Times New Roman,serif" font-size="14.00">is a</text>
</g>
<!-- node0013 -->
<g id="node14" class="node">
<title>node0013</title>
<ellipse fill="none" stroke="black" cx="306" cy="-160.5" rx="36" ry="36"/>
<text text-anchor="middle" x="306" y="-156.62" font-family="Times New Roman,serif" font-size="10.00">FunctionFactors</text>
</g>
<!-- node0013&#45;&gt;node0004 -->
<g id="edge13" class="edge">
<title>node0013&#45;&gt;node0004</title>
<path fill="none" stroke="black" d="M306,-196.67C306,-224.13 306,-262.54 306,-292.61"/>
<polygon fill="black" stroke="black" points="302.5,-292.59 306,-302.59 309.5,-292.59 302.5,-292.59"/>
<text text-anchor="middle" x="315.38" y="-245.45" font-family="Times New Roman,serif" font-size="14.00">is a</text>
</g>
<!-- node0014 -->
<g id="node15" class="node">
<title>node0014</title>
<ellipse fill="none" stroke="black" cx="396" cy="-160.5" rx="36" ry="36"/>
<text text-anchor="middle" x="396" y="-156.62" font-family="Times New Roman,serif" font-size="10.00">RecoveryScenario</text>
</g>
<!-- node0014&#45;&gt;node0006 -->
<g id="edge14" class="edge">
<title>node0014&#45;&gt;node0006</title>
<path fill="none" stroke="black" d="M411.88,-192.91C426.64,-222.09 448.71,-265.74 464.93,-297.83"/>
<polygon fill="black" stroke="black" points="461.65,-299.11 469.29,-306.45 467.9,-295.95 461.65,-299.11"/>
<text text-anchor="middle" x="466.26" y="-245.45" font-family="Times New Roman,serif" font-size="14.00">is a</text>
</g>
<!-- node0015 -->
<g id="node16" class="node">
<title>node0015</title>
<ellipse fill="none" stroke="black" cx="486" cy="-160.5" rx="36" ry="36"/>
<text text-anchor="middle" x="486" y="-162.25" font-family="Times New Roman,serif" font-size="10.00">AbsorptionScenar</text>
<text text-anchor="middle" x="486" y="-151" font-family="Times New Roman,serif" font-size="10.00">io</text>
</g>
<!-- node0015&#45;&gt;node0006 -->
<g id="edge15" class="edge">
<title>node0015&#45;&gt;node0006</title>
<path fill="none" stroke="black" d="M486,-196.67C486,-224.13 486,-262.54 486,-292.61"/>
<polygon fill="black" stroke="black" points="482.5,-292.59 486,-302.59 489.5,-292.59 482.5,-292.59"/>
<text text-anchor="middle" x="495.38" y="-245.45" font-family="Times New Roman,serif" font-size="14.00">is a</text>
</g>
<!-- node0016 -->
<g id="node17" class="node">
<title>node0016</title>
<ellipse fill="none" stroke="black" cx="576" cy="-160.5" rx="36" ry="36"/>
<text text-anchor="middle" x="576" y="-156.62" font-family="Times New Roman,serif" font-size="10.00">AdaptionScenario</text>
</g>
<!-- node0016&#45;&gt;node0006 -->
<g id="edge16" class="edge">
<title>node0016&#45;&gt;node0006</title>
<path fill="none" stroke="black" d="M560.12,-192.91C545.36,-222.09 523.29,-265.74 507.07,-297.83"/>
<polygon fill="black" stroke="black" points="504.1,-295.95 502.71,-306.45 510.35,-299.11 504.1,-295.95"/>
<text text-anchor="middle" x="556.26" y="-245.45" font-family="Times New Roman,serif" font-size="14.00">is a</text>
</g>
<!-- node0017 -->
<g id="node18" class="node">
<title>node0017</title>
<ellipse fill="none" stroke="black" cx="704" cy="-160.5" rx="36" ry="36"/>
<text text-anchor="middle" x="704" y="-162.25" font-family="Times New Roman,serif" font-size="10.00">ResponsePlanElem</text>
<text text-anchor="middle" x="704" y="-151" font-family="Times New Roman,serif" font-size="10.00">ent</text>
</g>
<!-- node0017&#45;&gt;node0007 -->
<g id="edge17" class="edge">
<title>node0017&#45;&gt;node0007</title>
<path fill="none" stroke="black" d="M708.15,-196.67C711.41,-224.34 715.99,-263.13 719.55,-293.3"/>
<polygon fill="black" stroke="black" points="716.03,-293.38 720.68,-302.9 722.99,-292.56 716.03,-293.38"/>
<text text-anchor="middle" x="727.58" y="-245.45" font-family="Times New Roman,serif" font-size="14.00">is a</text>
</g>
<!-- node0018 -->
<g id="node19" class="node">
<title>node0018</title>
<ellipse fill="none" stroke="black" cx="794" cy="-160.5" rx="36" ry="36"/>
<text text-anchor="middle" x="794" y="-156.62" font-family="Times New Roman,serif" font-size="10.00">AffectedElement</text>
</g>
<!-- node0018&#45;&gt;node0007 -->
<g id="edge18" class="edge">
<title>node0018&#45;&gt;node0007</title>
<path fill="none" stroke="black" d="M781.18,-194.56C770.1,-223.16 753.99,-264.72 741.86,-296.01"/>
<polygon fill="black" stroke="black" points="738.65,-294.61 738.3,-305.2 745.17,-297.14 738.65,-294.61"/>
<text text-anchor="middle" x="781.06" y="-245.45" font-family="Times New Roman,serif" font-size="14.00">is a</text>
</g>
<!-- node0019 -->
<g id="node20" class="node">
<title>node0019</title>
<ellipse fill="none" stroke="black" cx="884" cy="-160.5" rx="36" ry="36"/>
<text text-anchor="middle" x="884" y="-162.25" font-family="Times New Roman,serif" font-size="10.00">EnvironmentEleme</text>
<text text-anchor="middle" x="884" y="-151" font-family="Times New Roman,serif" font-size="10.00">nt</text>
</g>
<!-- node0019&#45;&gt;node0007 -->
<g id="edge19" class="edge">
<title>node0019&#45;&gt;node0007</title>
<path fill="none" stroke="black" d="M865.76,-192C849.03,-218.6 822.55,-257.38 794,-286.5 784.66,-296.02 780.6,-296.41 770,-304.5 767.42,-306.47 764.76,-308.51 762.09,-310.57"/>
<polygon fill="black" stroke="black" points="759.99,-307.77 754.22,-316.65 764.28,-313.3 759.99,-307.77"/>
<text text-anchor="middle" x="860.16" y="-245.45" font-family="Times New Roman,serif" font-size="14.00">is a</text>
</g>
<!-- node0020 -->
<g id="node21" class="node">
<title>node0020</title>
<ellipse fill="none" stroke="black" cx="974" cy="-160.5" rx="36" ry="36"/>
<text text-anchor="middle" x="974" y="-156.62" font-family="Times New Roman,serif" font-size="10.00">HazardElement</text>
</g>
<!-- node0020&#45;&gt;node0007 -->
<g id="edge20" class="edge">
<title>node0020&#45;&gt;node0007</title>
<path fill="none" stroke="black" d="M957.72,-192.89C940.85,-222.05 911.68,-264.23 874,-286.5 833.61,-310.36 812.9,-285.53 770,-304.5 766.84,-305.9 763.71,-307.56 760.66,-309.4"/>
<polygon fill="black" stroke="black" points="758.84,-306.4 752.48,-314.87 762.74,-312.21 758.84,-306.4"/>
<text text-anchor="middle" x="952.04" y="-245.45" font-family="Times New Roman,serif" font-size="14.00">is a</text>
</g>
<!-- node0021 -->
<g id="node22" class="node">
<title>node0021</title>
<ellipse fill="none" stroke="black" cx="672" cy="-36" rx="36" ry="36"/>
<text text-anchor="middle" x="672" y="-32.12" font-family="Times New Roman,serif" font-size="10.00">Class_4</text>
</g>
<!-- node0021&#45;&gt;node0008 -->
<g id="edge21" class="edge">
<title>node0021&#45;&gt;node0008</title>
<path fill="none" stroke="black" d="M666.46,-71.61C660.72,-107.47 651.73,-163.71 645.39,-203.33"/>
<polygon fill="black" stroke="black" points="641.96,-202.62 643.83,-213.05 648.87,-203.73 641.96,-202.62"/>
<text text-anchor="middle" x="672.78" y="-93.2" font-family="Times New Roman,serif" font-size="14.00">is a</text>
</g>
<!-- node0021&#45;&gt;node0018 -->
<g id="edge22" class="edge">
<title>node0021&#45;&gt;node0018</title>
<path fill="none" stroke="black" d="M696.98,-62.09C715.49,-80.66 740.88,-106.16 761.04,-126.41"/>
<polygon fill="black" stroke="black" points="758.45,-128.76 767.98,-133.38 763.41,-123.82 758.45,-128.76"/>
<text text-anchor="middle" x="749.68" y="-93.2" font-family="Times New Roman,serif" font-size="14.00">is a</text>
</g>
<!-- node0022 -->
<g id="node23" class="node">
<title>node0022</title>
<ellipse fill="none" stroke="black" cx="884" cy="-36" rx="36" ry="36"/>
<text text-anchor="middle" x="884" y="-32.12" font-family="Times New Roman,serif" font-size="10.00">Class_1</text>
</g>
<!-- node0022&#45;&gt;node0019 -->
<g id="edge23" class="edge">
<title>node0022&#45;&gt;node0019</title>
<path fill="none" stroke="black" d="M884,-72.43C884,-85 884,-99.35 884,-112.72"/>
<polygon fill="black" stroke="black" points="880.5,-112.63 884,-122.63 887.5,-112.63 880.5,-112.63"/>
<text text-anchor="middle" x="893.38" y="-93.2" font-family="Times New Roman,serif" font-size="14.00">is a</text>
</g>
<!-- node0023 -->
<g id="node24" class="node">
<title>node0023</title>
<ellipse fill="none" stroke="black" cx="794" cy="-36" rx="36" ry="36"/>
<text text-anchor="middle" x="794" y="-32.12" font-family="Times New Roman,serif" font-size="10.00">Class_2</text>
</g>
<!-- node0023&#45;&gt;node0019 -->
<g id="edge24" class="edge">
<title>node0023&#45;&gt;node0019</title>
<path fill="none" stroke="black" d="M815.1,-65.72C827.4,-82.46 843.06,-103.77 856.33,-121.84"/>
<polygon fill="black" stroke="black" points="853.39,-123.75 862.14,-129.74 859.03,-119.61 853.39,-123.75"/>
<text text-anchor="middle" x="853.76" y="-93.2" font-family="Times New Roman,serif" font-size="14.00">is a</text>
</g>
<!-- node0024 -->
<g id="node25" class="node">
<title>node0024</title>
<ellipse fill="none" stroke="black" cx="974" cy="-36" rx="36" ry="36"/>
<text text-anchor="middle" x="974" y="-32.12" font-family="Times New Roman,serif" font-size="10.00">Class_3</text>
</g>
<!-- node0024&#45;&gt;node0020 -->
<g id="edge25" class="edge">
<title>node0024&#45;&gt;node0020</title>
<path fill="none" stroke="black" d="M974,-72.43C974,-85 974,-99.35 974,-112.72"/>
<polygon fill="black" stroke="black" points="970.5,-112.63 974,-122.63 977.5,-112.63 970.5,-112.63"/>
<text text-anchor="middle" x="983.38" y="-93.2" font-family="Times New Roman,serif" font-size="14.00">is a</text>
</g>
</g>
</svg>
