<?xml version="1.0" encoding="UTF-8" standalone="no"?>
<!DOCTYPE svg PUBLIC "-//W3C//DTD SVG 1.1//EN"
 "http://www.w3.org/Graphics/SVG/1.1/DTD/svg11.dtd">
<!-- Generated by graphviz version 12.1.2 (20240928.0832)
 -->
<!-- Title: G Pages: 1 -->
<svg width="400pt" height="509pt"
 viewBox="0.00 0.00 400.00 509.00" xmlns="http://www.w3.org/2000/svg" xmlns:xlink="http://www.w3.org/1999/xlink">
<g id="graph0" class="graph" transform="scale(1 1) rotate(0) translate(4 505)">
<title>G</title>
<polygon fill="white" stroke="none" points="-4,4 -4,-505 396,-505 396,4 -4,4"/>
<!-- node0000 -->
<g id="node1" class="node">
<title>node0000</title>
<ellipse fill="none" stroke="black" cx="104" cy="-465" rx="36" ry="36"/>
<text text-anchor="middle" x="104" y="-461.12" font-family="Times New Roman,serif" font-size="10.00">Thing</text>
</g>
<!-- node0001 -->
<g id="node2" class="node">
<title>node0001</title>
<ellipse fill="none" stroke="black" cx="176" cy="-340.5" rx="36" ry="36"/>
<text text-anchor="middle" x="176" y="-336.62" font-family="Times New Roman,serif" font-size="10.00">ScenarioElement</text>
</g>
<!-- node0001&#45;&gt;node0000 -->
<g id="edge1" class="edge">
<title>node0001&#45;&gt;node0000</title>
<path fill="none" stroke="black" d="M158.02,-372.1C148.82,-387.74 137.52,-406.97 127.63,-423.79"/>
<polygon fill="black" stroke="black" points="124.82,-421.67 122.77,-432.06 130.85,-425.22 124.82,-421.67"/>
<text text-anchor="middle" x="153.69" y="-397.7" font-family="Times New Roman,serif" font-size="14.00">is a</text>
</g>
<!-- node0002 -->
<g id="node3" class="node">
<title>node0002</title>
<ellipse fill="none" stroke="black" cx="36" cy="-250.5" rx="36" ry="36"/>
<text text-anchor="middle" x="36" y="-246.62" font-family="Times New Roman,serif" font-size="10.00">Item</text>
</g>
<!-- node0002&#45;&gt;node0000 -->
<g id="edge2" class="edge">
<title>node0002&#45;&gt;node0000</title>
<path fill="none" stroke="black" d="M46.77,-285.17C58.41,-321.54 77.01,-379.65 89.82,-419.7"/>
<polygon fill="black" stroke="black" points="86.43,-420.59 92.81,-429.04 93.1,-418.45 86.43,-420.59"/>
<text text-anchor="middle" x="85.18" y="-335.45" font-family="Times New Roman,serif" font-size="14.00">is a</text>
</g>
<!-- node0003 -->
<g id="node4" class="node">
<title>node0003</title>
<ellipse fill="none" stroke="black" cx="86" cy="-160.5" rx="36" ry="36"/>
<text text-anchor="middle" x="86" y="-156.62" font-family="Times New Roman,serif" font-size="10.00">AffectedElement</text>
</g>
<!-- node0003&#45;&gt;node0001 -->
<g id="edge3" class="edge">
<title>node0003&#45;&gt;node0001</title>
<path fill="none" stroke="black" d="M101.88,-192.91C116.64,-222.09 138.71,-265.74 154.93,-297.83"/>
<polygon fill="black" stroke="black" points="151.65,-299.11 159.29,-306.45 157.9,-295.95 151.65,-299.11"/>
<text text-anchor="middle" x="156.26" y="-245.45" font-family="Times New Roman,serif" font-size="14.00">is a</text>
</g>
<!-- node0004 -->
<g id="node5" class="node">
<title>node0004</title>
<ellipse fill="none" stroke="black" cx="176" cy="-160.5" rx="36" ry="36"/>
<text text-anchor="middle" x="176" y="-156.62" font-family="Times New Roman,serif" font-size="10.00">HazardElement</text>
</g>
<!-- node0004&#45;&gt;node0001 -->
<g id="edge4" class="edge">
<title>node0004&#45;&gt;node0001</title>
<path fill="none" stroke="black" d="M176,-196.67C176,-224.13 176,-262.54 176,-292.61"/>
<polygon fill="black" stroke="black" points="172.5,-292.59 176,-302.59 179.5,-292.59 172.5,-292.59"/>
<text text-anchor="middle" x="185.38" y="-245.45" font-family="Times New Roman,serif" font-size="14.00">is a</text>
</g>
<!-- node0005 -->
<g id="node6" class="node">
<title>node0005</title>
<ellipse fill="none" stroke="black" cx="266" cy="-160.5" rx="36" ry="36"/>
<text text-anchor="middle" x="266" y="-162.25" font-family="Times New Roman,serif" font-size="10.00">EnvironmentEleme</text>
<text text-anchor="middle" x="266" y="-151" font-family="Times New Roman,serif" font-size="10.00">nt</text>
</g>
<!-- node0005&#45;&gt;node0001 -->
<g id="edge5" class="edge">
<title>node0005&#45;&gt;node0001</title>
<path fill="none" stroke="black" d="M250.12,-192.91C235.36,-222.09 213.29,-265.74 197.07,-297.83"/>
<polygon fill="black" stroke="black" points="194.1,-295.95 192.71,-306.45 200.35,-299.11 194.1,-295.95"/>
<text text-anchor="middle" x="246.26" y="-245.45" font-family="Times New Roman,serif" font-size="14.00">is a</text>
</g>
<!-- node0006 -->
<g id="node7" class="node">
<title>node0006</title>
<ellipse fill="none" stroke="black" cx="356" cy="-160.5" rx="36" ry="36"/>
<text text-anchor="middle" x="356" y="-162.25" font-family="Times New Roman,serif" font-size="10.00">ResponsePlanElem</text>
<text text-anchor="middle" x="356" y="-151" font-family="Times New Roman,serif" font-size="10.00">ent</text>
</g>
<!-- node0006&#45;&gt;node0001 -->
<g id="edge6" class="edge">
<title>node0006&#45;&gt;node0001</title>
<path fill="none" stroke="black" d="M337.25,-191.7C319.55,-218.64 291.14,-258.11 260,-286.5 247.27,-298.11 231.67,-308.73 217.39,-317.37"/>
<polygon fill="black" stroke="black" points="215.93,-314.17 209.08,-322.25 219.47,-320.21 215.93,-314.17"/>
<text text-anchor="middle" x="330.2" y="-245.45" font-family="Times New Roman,serif" font-size="14.00">is a</text>
</g>
<!-- node0007 -->
<g id="node8" class="node">
<title>node0007</title>
<ellipse fill="none" stroke="black" cx="49" cy="-36" rx="36" ry="36"/>
<text text-anchor="middle" x="49" y="-32.12" font-family="Times New Roman,serif" font-size="10.00">Class_4</text>
</g>
<!-- node0007&#45;&gt;node0002 -->
<g id="edge7" class="edge">
<title>node0007&#45;&gt;node0002</title>
<path fill="none" stroke="black" d="M44.1,-72.02C43.39,-78.01 42.73,-84.18 42.25,-90 39.09,-128 37.52,-171.23 36.75,-203.09"/>
<polygon fill="black" stroke="black" points="33.26,-202.7 36.53,-212.77 40.25,-202.85 33.26,-202.7"/>
<text text-anchor="middle" x="51.62" y="-93.2" font-family="Times New Roman,serif" font-size="14.00">is a</text>
</g>
<!-- node0007&#45;&gt;node0003 -->
<g id="edge8" class="edge">
<title>node0007&#45;&gt;node0003</title>
<path fill="none" stroke="black" d="M59.21,-70.8C63.33,-84.45 68.15,-100.41 72.56,-114.99"/>
<polygon fill="black" stroke="black" points="69.15,-115.8 75.39,-124.36 75.85,-113.78 69.15,-115.8"/>
<text text-anchor="middle" x="79.09" y="-93.2" font-family="Times New Roman,serif" font-size="14.00">is a</text>
</g>
<!-- node0008 -->
<g id="node9" class="node">
<title>node0008</title>
<ellipse fill="none" stroke="black" cx="176" cy="-36" rx="36" ry="36"/>
<text text-anchor="middle" x="176" y="-32.12" font-family="Times New Roman,serif" font-size="10.00">Class_3</text>
</g>
<!-- node0008&#45;&gt;node0004 -->
<g id="edge9" class="edge">
<title>node0008&#45;&gt;node0004</title>
<path fill="none" stroke="black" d="M176,-72.43C176,-85 176,-99.35 176,-112.72"/>
<polygon fill="black" stroke="black" points="172.5,-112.63 176,-122.63 179.5,-112.63 172.5,-112.63"/>
<text text-anchor="middle" x="185.38" y="-93.2" font-family="Times New Roman,serif" font-size="14.00">is a</text>
</g>
<!-- node0009 -->
<g id="node10" class="node">
<title>node0009</title>
<ellipse fill="none" stroke="black" cx="266" cy="-36" rx="36" ry="36"/>
<text text-anchor="middle" x="266" y="-32.12" font-family="Times New Roman,serif" font-size="10.00">Class_1</text>
</g>
<!-- node0009&#45;&gt;node0005 -->
<g id="edge10" class="edge">
<title>node0009&#45;&gt;node0005</title>
<path fill="none" stroke="black" d="M266,-72.43C266,-85 266,-99.35 266,-112.72"/>
<polygon fill="black" stroke="black" points="262.5,-112.63 266,-122.63 269.5,-112.63 262.5,-112.63"/>
<text text-anchor="middle" x="275.38" y="-93.2" font-family="Times New Roman,serif" font-size="14.00">is a</text>
</g>
<!-- node0010 -->
<g id="node11" class="node">
<title>node0010</title>
<ellipse fill="none" stroke="black" cx="356" cy="-36" rx="36" ry="36"/>
<text text-anchor="middle" x="356" y="-32.12" font-family="Times New Roman,serif" font-size="10.00">Class_2</text>
</g>
<!-- node0010&#45;&gt;node0005 -->
<g id="edge11" class="edge">
<title>node0010&#45;&gt;node0005</title>
<path fill="none" stroke="black" d="M334.9,-65.72C322.6,-82.46 306.94,-103.77 293.67,-121.84"/>
<polygon fill="black" stroke="black" points="290.97,-119.61 287.86,-129.74 296.61,-123.75 290.97,-119.61"/>
<text text-anchor="middle" x="325.76" y="-93.2" font-family="Times New Roman,serif" font-size="14.00">is a</text>
</g>
</g>
</svg>
