<?xml version="1.0" encoding="UTF-8" standalone="no"?>
<!DOCTYPE svg PUBLIC "-//W3C//DTD SVG 1.1//EN"
 "http://www.w3.org/Graphics/SVG/1.1/DTD/svg11.dtd">
<!-- Generated by graphviz version 12.1.2 (20240928.0832)
 -->
<!-- Title: G Pages: 1 -->
<svg width="3230pt" height="454pt"
 viewBox="0.00 0.00 3230.00 453.50" xmlns="http://www.w3.org/2000/svg" xmlns:xlink="http://www.w3.org/1999/xlink">
<g id="graph0" class="graph" transform="scale(1 1) rotate(0) translate(4 449.5)">
<title>G</title>
<polygon fill="white" stroke="none" points="-4,4 -4,-449.5 3226,-449.5 3226,4 -4,4"/>
<!-- node0000 -->
<g id="node1" class="node">
<title>node0000</title>
<ellipse fill="none" stroke="black" cx="1791" cy="-409.5" rx="36" ry="36"/>
<text text-anchor="middle" x="1791" y="-405.62" font-family="Times New Roman,serif" font-size="10.00">Thing</text>
</g>
<!-- node0001 -->
<g id="node2" class="node">
<title>node0001</title>
<ellipse fill="none" stroke="black" cx="981" cy="-285" rx="36" ry="36"/>
<text text-anchor="middle" x="981" y="-281.12" font-family="Times New Roman,serif" font-size="10.00">Scenario</text>
</g>
<!-- node0001&#45;&gt;node0000 -->
<g id="edge1" class="edge">
<title>node0001&#45;&gt;node0000</title>
<path fill="none" stroke="black" d="M1016.85,-291.42C1147.27,-311.15 1596.52,-379.09 1743.82,-401.36"/>
<polygon fill="black" stroke="black" points="1743.2,-404.81 1753.61,-402.85 1744.25,-397.89 1743.2,-404.81"/>
<text text-anchor="middle" x="1443.87" y="-342.2" font-family="Times New Roman,serif" font-size="14.00">is a</text>
</g>
<!-- node0002 -->
<g id="node3" class="node">
<title>node0002</title>
<ellipse fill="none" stroke="black" cx="1296" cy="-285" rx="36" ry="36"/>
<text text-anchor="middle" x="1296" y="-286.75" font-family="Times New Roman,serif" font-size="10.00">ResilienceInflue</text>
<text text-anchor="middle" x="1296" y="-275.5" font-family="Times New Roman,serif" font-size="10.00">ntialFactors</text>
</g>
<!-- node0002&#45;&gt;node0000 -->
<g id="edge2" class="edge">
<title>node0002&#45;&gt;node0000</title>
<path fill="none" stroke="black" d="M1330.81,-294.61C1418.13,-316.22 1646.49,-372.74 1744.85,-397.08"/>
<polygon fill="black" stroke="black" points="1743.88,-400.45 1754.43,-399.45 1745.56,-393.65 1743.88,-400.45"/>
<text text-anchor="middle" x="1582.51" y="-342.2" font-family="Times New Roman,serif" font-size="14.00">is a</text>
</g>
<!-- node0003 -->
<g id="node4" class="node">
<title>node0003</title>
<ellipse fill="none" stroke="black" cx="1611" cy="-285" rx="36" ry="36"/>
<text text-anchor="middle" x="1611" y="-286.75" font-family="Times New Roman,serif" font-size="10.00">ScenarioResilien</text>
<text text-anchor="middle" x="1611" y="-275.5" font-family="Times New Roman,serif" font-size="10.00">ce</text>
</g>
<!-- node0003&#45;&gt;node0000 -->
<g id="edge3" class="edge">
<title>node0003&#45;&gt;node0000</title>
<path fill="none" stroke="black" d="M1638.8,-308.22C1644.43,-312.55 1650.35,-316.99 1656,-321 1687.22,-343.2 1723.74,-366.73 1750.92,-383.79"/>
<polygon fill="black" stroke="black" points="1748.86,-386.63 1759.2,-388.96 1752.57,-380.7 1748.86,-386.63"/>
<text text-anchor="middle" x="1712.9" y="-342.2" font-family="Times New Roman,serif" font-size="14.00">is a</text>
</g>
<!-- node0004 -->
<g id="node5" class="node">
<title>node0004</title>
<ellipse fill="none" stroke="black" cx="1701" cy="-285" rx="36" ry="36"/>
<text text-anchor="middle" x="1701" y="-286.75" font-family="Times New Roman,serif" font-size="10.00">InvolvedScenario</text>
<text text-anchor="middle" x="1701" y="-275.5" font-family="Times New Roman,serif" font-size="10.00">Element</text>
</g>
<!-- node0004&#45;&gt;node0000 -->
<g id="edge4" class="edge">
<title>node0004&#45;&gt;node0000</title>
<path fill="none" stroke="black" d="M1722.1,-314.72C1734.4,-331.46 1750.06,-352.77 1763.33,-370.84"/>
<polygon fill="black" stroke="black" points="1760.39,-372.75 1769.14,-378.74 1766.03,-368.61 1760.39,-372.75"/>
<text text-anchor="middle" x="1760.76" y="-342.2" font-family="Times New Roman,serif" font-size="14.00">is a</text>
</g>
<!-- node0005 -->
<g id="node6" class="node">
<title>node0005</title>
<ellipse fill="none" stroke="black" cx="1791" cy="-285" rx="36" ry="36"/>
<text text-anchor="middle" x="1791" y="-281.12" font-family="Times New Roman,serif" font-size="10.00">Emergency</text>
</g>
<!-- node0005&#45;&gt;node0000 -->
<g id="edge5" class="edge">
<title>node0005&#45;&gt;node0000</title>
<path fill="none" stroke="black" d="M1791,-321.43C1791,-334 1791,-348.35 1791,-361.72"/>
<polygon fill="black" stroke="black" points="1787.5,-361.63 1791,-371.63 1794.5,-361.63 1787.5,-361.63"/>
<text text-anchor="middle" x="1800.38" y="-342.2" font-family="Times New Roman,serif" font-size="14.00">is a</text>
</g>
<!-- node0006 -->
<g id="node7" class="node">
<title>node0006</title>
<ellipse fill="none" stroke="black" cx="1881" cy="-285" rx="36" ry="36"/>
<text text-anchor="middle" x="1881" y="-281.12" font-family="Times New Roman,serif" font-size="10.00">EmergencyPhase</text>
</g>
<!-- node0006&#45;&gt;node0000 -->
<g id="edge6" class="edge">
<title>node0006&#45;&gt;node0000</title>
<path fill="none" stroke="black" d="M1859.9,-314.72C1847.6,-331.46 1831.94,-352.77 1818.67,-370.84"/>
<polygon fill="black" stroke="black" points="1815.97,-368.61 1812.86,-378.74 1821.61,-372.75 1815.97,-368.61"/>
<text text-anchor="middle" x="1850.76" y="-342.2" font-family="Times New Roman,serif" font-size="14.00">is a</text>
</g>
<!-- node0007 -->
<g id="node8" class="node">
<title>node0007</title>
<ellipse fill="none" stroke="black" cx="1971" cy="-285" rx="36" ry="36"/>
<text text-anchor="middle" x="1971" y="-281.12" font-family="Times New Roman,serif" font-size="10.00">InvolvedScenario</text>
</g>
<!-- node0007&#45;&gt;node0000 -->
<g id="edge7" class="edge">
<title>node0007&#45;&gt;node0000</title>
<path fill="none" stroke="black" d="M1943.2,-308.22C1937.57,-312.55 1931.65,-316.99 1926,-321 1894.78,-343.2 1858.26,-366.73 1831.08,-383.79"/>
<polygon fill="black" stroke="black" points="1829.43,-380.7 1822.8,-388.96 1833.14,-386.63 1829.43,-380.7"/>
<text text-anchor="middle" x="1906.38" y="-342.2" font-family="Times New Roman,serif" font-size="14.00">is a</text>
</g>
<!-- node0008 -->
<g id="node9" class="node">
<title>node0008</title>
<ellipse fill="none" stroke="black" cx="2173" cy="-285" rx="36" ry="36"/>
<text text-anchor="middle" x="2173" y="-281.12" font-family="Times New Roman,serif" font-size="10.00">ScenarioElement</text>
</g>
<!-- node0008&#45;&gt;node0000 -->
<g id="edge8" class="edge">
<title>node0008&#45;&gt;node0000</title>
<path fill="none" stroke="black" d="M2138.76,-296.98C2069.64,-319.14 1913.44,-369.23 1836.11,-394.03"/>
<polygon fill="black" stroke="black" points="1835.19,-390.65 1826.74,-397.04 1837.33,-397.32 1835.19,-390.65"/>
<text text-anchor="middle" x="2014.25" y="-342.2" font-family="Times New Roman,serif" font-size="14.00">is a</text>
</g>
<!-- node0009 -->
<g id="node10" class="node">
<title>node0009</title>
<ellipse fill="none" stroke="black" cx="2263" cy="-285" rx="36" ry="36"/>
<text text-anchor="middle" x="2263" y="-281.12" font-family="Times New Roman,serif" font-size="10.00">Item</text>
</g>
<!-- node0009&#45;&gt;node0000 -->
<g id="edge9" class="edge">
<title>node0009&#45;&gt;node0000</title>
<path fill="none" stroke="black" d="M2236.71,-309.63C2230.86,-313.95 2224.47,-318.02 2218,-321 2089.11,-380.36 1919.92,-399.71 1838.64,-405.81"/>
<polygon fill="black" stroke="black" points="1838.54,-402.31 1828.81,-406.51 1839.03,-409.29 1838.54,-402.31"/>
<text text-anchor="middle" x="2183.87" y="-342.2" font-family="Times New Roman,serif" font-size="14.00">is a</text>
</g>
<!-- node0010 -->
<g id="node11" class="node">
<title>node0010</title>
<ellipse fill="none" stroke="black" cx="846" cy="-160.5" rx="36" ry="36"/>
<text text-anchor="middle" x="846" y="-156.62" font-family="Times New Roman,serif" font-size="10.00">AdaptionScenario</text>
</g>
<!-- node0010&#45;&gt;node0001 -->
<g id="edge10" class="edge">
<title>node0010&#45;&gt;node0001</title>
<path fill="none" stroke="black" d="M872.35,-185.41C893.44,-204.55 923.2,-231.56 946.25,-252.46"/>
<polygon fill="black" stroke="black" points="943.84,-255.01 953.6,-259.13 948.54,-249.82 943.84,-255.01"/>
<text text-anchor="middle" x="930.96" y="-217.7" font-family="Times New Roman,serif" font-size="14.00">is a</text>
</g>
<!-- node0011 -->
<g id="node12" class="node">
<title>node0011</title>
<ellipse fill="none" stroke="black" cx="936" cy="-160.5" rx="36" ry="36"/>
<text text-anchor="middle" x="936" y="-156.62" font-family="Times New Roman,serif" font-size="10.00">RecoveryScenario</text>
</g>
<!-- node0011&#45;&gt;node0001 -->
<g id="edge11" class="edge">
<title>node0011&#45;&gt;node0001</title>
<path fill="none" stroke="black" d="M948.18,-194.65C953.33,-208.68 959.4,-225.21 964.92,-240.22"/>
<polygon fill="black" stroke="black" points="961.56,-241.22 968.29,-249.4 968.13,-238.81 961.56,-241.22"/>
<text text-anchor="middle" x="970.57" y="-217.7" font-family="Times New Roman,serif" font-size="14.00">is a</text>
</g>
<!-- node0012 -->
<g id="node13" class="node">
<title>node0012</title>
<ellipse fill="none" stroke="black" cx="1026" cy="-160.5" rx="36" ry="36"/>
<text text-anchor="middle" x="1026" y="-162.25" font-family="Times New Roman,serif" font-size="10.00">AbsorptionScenar</text>
<text text-anchor="middle" x="1026" y="-151" font-family="Times New Roman,serif" font-size="10.00">io</text>
</g>
<!-- node0012&#45;&gt;node0001 -->
<g id="edge12" class="edge">
<title>node0012&#45;&gt;node0001</title>
<path fill="none" stroke="black" d="M1013.82,-194.65C1008.67,-208.68 1002.6,-225.21 997.08,-240.22"/>
<polygon fill="black" stroke="black" points="993.87,-238.81 993.71,-249.4 1000.44,-241.22 993.87,-238.81"/>
<text text-anchor="middle" x="1015.57" y="-217.7" font-family="Times New Roman,serif" font-size="14.00">is a</text>
</g>
<!-- node0013 -->
<g id="node14" class="node">
<title>node0013</title>
<ellipse fill="none" stroke="black" cx="1116" cy="-160.5" rx="36" ry="36"/>
<text text-anchor="middle" x="1116" y="-156.62" font-family="Times New Roman,serif" font-size="10.00">EconomicFactors</text>
</g>
<!-- node0013&#45;&gt;node0002 -->
<g id="edge13" class="edge">
<title>node0013&#45;&gt;node0002</title>
<path fill="none" stroke="black" d="M1143.8,-183.72C1149.43,-188.05 1155.35,-192.49 1161,-196.5 1192.22,-218.7 1228.74,-242.23 1255.92,-259.29"/>
<polygon fill="black" stroke="black" points="1253.86,-262.13 1264.2,-264.46 1257.57,-256.2 1253.86,-262.13"/>
<text text-anchor="middle" x="1217.9" y="-217.7" font-family="Times New Roman,serif" font-size="14.00">is a</text>
</g>
<!-- node0014 -->
<g id="node15" class="node">
<title>node0014</title>
<ellipse fill="none" stroke="black" cx="1206" cy="-160.5" rx="36" ry="36"/>
<text text-anchor="middle" x="1206" y="-156.62" font-family="Times New Roman,serif" font-size="10.00">SafetyFactors</text>
</g>
<!-- node0014&#45;&gt;node0002 -->
<g id="edge14" class="edge">
<title>node0014&#45;&gt;node0002</title>
<path fill="none" stroke="black" d="M1227.1,-190.22C1239.4,-206.96 1255.06,-228.27 1268.33,-246.34"/>
<polygon fill="black" stroke="black" points="1265.39,-248.25 1274.14,-254.24 1271.03,-244.11 1265.39,-248.25"/>
<text text-anchor="middle" x="1265.76" y="-217.7" font-family="Times New Roman,serif" font-size="14.00">is a</text>
</g>
<!-- node0015 -->
<g id="node16" class="node">
<title>node0015</title>
<ellipse fill="none" stroke="black" cx="1296" cy="-160.5" rx="36" ry="36"/>
<text text-anchor="middle" x="1296" y="-156.62" font-family="Times New Roman,serif" font-size="10.00">TimeFactors</text>
</g>
<!-- node0015&#45;&gt;node0002 -->
<g id="edge15" class="edge">
<title>node0015&#45;&gt;node0002</title>
<path fill="none" stroke="black" d="M1296,-196.93C1296,-209.5 1296,-223.85 1296,-237.22"/>
<polygon fill="black" stroke="black" points="1292.5,-237.13 1296,-247.13 1299.5,-237.13 1292.5,-237.13"/>
<text text-anchor="middle" x="1305.38" y="-217.7" font-family="Times New Roman,serif" font-size="14.00">is a</text>
</g>
<!-- node0016 -->
<g id="node17" class="node">
<title>node0016</title>
<ellipse fill="none" stroke="black" cx="1386" cy="-160.5" rx="36" ry="36"/>
<text text-anchor="middle" x="1386" y="-156.62" font-family="Times New Roman,serif" font-size="10.00">FunctionFactors</text>
</g>
<!-- node0016&#45;&gt;node0002 -->
<g id="edge16" class="edge">
<title>node0016&#45;&gt;node0002</title>
<path fill="none" stroke="black" d="M1364.9,-190.22C1352.6,-206.96 1336.94,-228.27 1323.67,-246.34"/>
<polygon fill="black" stroke="black" points="1320.97,-244.11 1317.86,-254.24 1326.61,-248.25 1320.97,-244.11"/>
<text text-anchor="middle" x="1355.76" y="-217.7" font-family="Times New Roman,serif" font-size="14.00">is a</text>
</g>
<!-- node0017 -->
<g id="node18" class="node">
<title>node0017</title>
<ellipse fill="none" stroke="black" cx="1476" cy="-160.5" rx="36" ry="36"/>
<text text-anchor="middle" x="1476" y="-162.25" font-family="Times New Roman,serif" font-size="10.00">ResponsePlanElem</text>
<text text-anchor="middle" x="1476" y="-151" font-family="Times New Roman,serif" font-size="10.00">ent</text>
</g>
<!-- node0017&#45;&gt;node0008 -->
<g id="edge17" class="edge">
<title>node0017&#45;&gt;node0008</title>
<path fill="none" stroke="black" d="M1511.83,-166.56C1598.62,-178.99 1826.91,-212.64 2016,-249 2053.49,-256.21 2095.71,-265.7 2126.92,-272.98"/>
<polygon fill="black" stroke="black" points="2125.88,-276.33 2136.42,-275.21 2127.48,-269.52 2125.88,-276.33"/>
<text text-anchor="middle" x="1922.42" y="-217.7" font-family="Times New Roman,serif" font-size="14.00">is a</text>
</g>
<!-- node0018 -->
<g id="node19" class="node">
<title>node0018</title>
<ellipse fill="none" stroke="black" cx="2736" cy="-160.5" rx="36" ry="36"/>
<text text-anchor="middle" x="2736" y="-162.25" font-family="Times New Roman,serif" font-size="10.00">EnvironmentEleme</text>
<text text-anchor="middle" x="2736" y="-151" font-family="Times New Roman,serif" font-size="10.00">nt</text>
</g>
<!-- node0018&#45;&gt;node0008 -->
<g id="edge18" class="edge">
<title>node0018&#45;&gt;node0008</title>
<path fill="none" stroke="black" d="M2699.74,-161.63C2612.78,-163.18 2387.07,-174.67 2218,-249 2214.84,-250.39 2211.71,-252.05 2208.65,-253.88"/>
<polygon fill="black" stroke="black" points="2206.84,-250.88 2200.47,-259.35 2210.73,-256.7 2206.84,-250.88"/>
<text text-anchor="middle" x="2321.39" y="-217.7" font-family="Times New Roman,serif" font-size="14.00">is a</text>
</g>
<!-- node0019 -->
<g id="node20" class="node">
<title>node0019</title>
<ellipse fill="none" stroke="black" cx="2916" cy="-160.5" rx="36" ry="36"/>
<text text-anchor="middle" x="2916" y="-156.62" font-family="Times New Roman,serif" font-size="10.00">AffectedElement</text>
</g>
<!-- node0019&#45;&gt;node0008 -->
<g id="edge19" class="edge">
<title>node0019&#45;&gt;node0008</title>
<path fill="none" stroke="black" d="M2881.65,-172.04C2854.57,-179.95 2815.7,-190.42 2781,-196.5 2719.11,-207.34 2276.41,-225.87 2218,-249 2214.79,-250.27 2211.62,-251.84 2208.54,-253.62"/>
<polygon fill="black" stroke="black" points="2206.78,-250.59 2200.32,-258.99 2210.61,-256.44 2206.78,-250.59"/>
<text text-anchor="middle" x="2552.68" y="-217.7" font-family="Times New Roman,serif" font-size="14.00">is a</text>
</g>
<!-- node0020 -->
<g id="node21" class="node">
<title>node0020</title>
<ellipse fill="none" stroke="black" cx="3096" cy="-160.5" rx="36" ry="36"/>
<text text-anchor="middle" x="3096" y="-156.62" font-family="Times New Roman,serif" font-size="10.00">HazardElement</text>
</g>
<!-- node0020&#45;&gt;node0008 -->
<g id="edge20" class="edge">
<title>node0020&#45;&gt;node0008</title>
<path fill="none" stroke="black" d="M3061.66,-172.09C3034.58,-180.04 2995.72,-190.53 2961,-196.5 2787.33,-226.38 2741.8,-218.78 2566,-231 2488.75,-236.37 2290.57,-221.98 2218,-249 2214.77,-250.2 2211.58,-251.73 2208.48,-253.47"/>
<polygon fill="black" stroke="black" points="2206.75,-250.42 2200.25,-258.78 2210.55,-256.3 2206.75,-250.42"/>
<text text-anchor="middle" x="2841.69" y="-217.7" font-family="Times New Roman,serif" font-size="14.00">is a</text>
</g>
<!-- node0021 -->
<g id="node22" class="node">
<title>node0021</title>
<ellipse fill="none" stroke="black" cx="36" cy="-36" rx="36" ry="36"/>
<text text-anchor="middle" x="36" y="-32.5" font-family="Times New Roman,serif" font-size="10.00">plan1&#45;救助</text>
</g>
<!-- node0021&#45;&gt;node0017 -->
<g id="edge21" class="edge">
<title>node0021&#45;&gt;node0017</title>
<path fill="none" stroke="black" d="M63.05,-60.44C68.74,-64.67 74.88,-68.75 81,-72 124.87,-95.26 138.27,-98.38 187.25,-106.5 255.42,-117.8 1365.8,-101.6 1431,-124.5 1434.26,-125.64 1437.46,-127.13 1440.57,-128.83"/>
<polygon fill="black" stroke="black" points="1438.51,-131.67 1448.82,-134.09 1442.27,-125.77 1438.51,-131.67"/>
<text text-anchor="middle" x="196.62" y="-93.2" font-family="Times New Roman,serif" font-size="14.00">is a</text>
</g>
<!-- node0022 -->
<g id="node23" class="node">
<title>node0022</title>
<ellipse fill="none" stroke="black" cx="126" cy="-36" rx="36" ry="36"/>
<text text-anchor="middle" x="126" y="-32.5" font-family="Times New Roman,serif" font-size="10.00">Class_666&#45;车辆</text>
</g>
<!-- node0022&#45;&gt;node0017 -->
<g id="edge22" class="edge">
<title>node0022&#45;&gt;node0017</title>
<path fill="none" stroke="black" d="M153.05,-60.44C158.74,-64.67 164.88,-68.75 171,-72 214.87,-95.26 228.27,-98.36 277.25,-106.5 340.49,-117.02 1370.53,-103.22 1431,-124.5 1434.26,-125.65 1437.46,-127.13 1440.57,-128.84"/>
<polygon fill="black" stroke="black" points="1438.51,-131.67 1448.82,-134.1 1442.27,-125.77 1438.51,-131.67"/>
<text text-anchor="middle" x="286.62" y="-93.2" font-family="Times New Roman,serif" font-size="14.00">is a</text>
</g>
<!-- node0023 -->
<g id="node24" class="node">
<title>node0023</title>
<ellipse fill="none" stroke="black" cx="216" cy="-36" rx="36" ry="36"/>
<text text-anchor="middle" x="216" y="-32.5" font-family="Times New Roman,serif" font-size="10.00">Class_436&#45;救助</text>
</g>
<!-- node0023&#45;&gt;node0017 -->
<g id="edge23" class="edge">
<title>node0023&#45;&gt;node0017</title>
<path fill="none" stroke="black" d="M243.05,-60.44C248.74,-64.67 254.88,-68.75 261,-72 304.87,-95.26 318.28,-98.32 367.25,-106.5 483.85,-125.97 1319.52,-85.19 1431,-124.5 1434.26,-125.65 1437.46,-127.13 1440.56,-128.84"/>
<polygon fill="black" stroke="black" points="1438.5,-131.68 1448.82,-134.11 1442.27,-125.78 1438.5,-131.68"/>
<text text-anchor="middle" x="376.62" y="-93.2" font-family="Times New Roman,serif" font-size="14.00">is a</text>
</g>
<!-- node0024 -->
<g id="node25" class="node">
<title>node0024</title>
<ellipse fill="none" stroke="black" cx="306" cy="-36" rx="36" ry="36"/>
<text text-anchor="middle" x="306" y="-32.5" font-family="Times New Roman,serif" font-size="10.00">Class_436&#45;人员</text>
</g>
<!-- node0024&#45;&gt;node0017 -->
<g id="edge24" class="edge">
<title>node0024&#45;&gt;node0017</title>
<path fill="none" stroke="black" d="M333.05,-60.44C338.74,-64.67 344.88,-68.75 351,-72 394.87,-95.26 408.29,-98.29 457.25,-106.5 563.97,-124.4 1328.97,-88.44 1431,-124.5 1434.25,-125.65 1437.46,-127.14 1440.56,-128.85"/>
<polygon fill="black" stroke="black" points="1438.5,-131.68 1448.81,-134.11 1442.27,-125.78 1438.5,-131.68"/>
<text text-anchor="middle" x="466.62" y="-93.2" font-family="Times New Roman,serif" font-size="14.00">is a</text>
</g>
<!-- node0025 -->
<g id="node26" class="node">
<title>node0025</title>
<ellipse fill="none" stroke="black" cx="396" cy="-36" rx="36" ry="36"/>
<text text-anchor="middle" x="396" y="-32.12" font-family="Times New Roman,serif" font-size="10.00">Class_555</text>
</g>
<!-- node0025&#45;&gt;node0017 -->
<g id="edge25" class="edge">
<title>node0025&#45;&gt;node0017</title>
<path fill="none" stroke="black" d="M423.05,-60.44C428.74,-64.67 434.88,-68.75 441,-72 484.87,-95.26 498.29,-98.24 547.25,-106.5 644.1,-122.84 1338.43,-91.68 1431,-124.5 1434.25,-125.65 1437.46,-127.14 1440.56,-128.85"/>
<polygon fill="black" stroke="black" points="1438.5,-131.69 1448.81,-134.12 1442.27,-125.79 1438.5,-131.69"/>
<text text-anchor="middle" x="556.62" y="-93.2" font-family="Times New Roman,serif" font-size="14.00">is a</text>
</g>
<!-- node0026 -->
<g id="node27" class="node">
<title>node0026</title>
<ellipse fill="none" stroke="black" cx="486" cy="-36" rx="36" ry="36"/>
<text text-anchor="middle" x="486" y="-32.5" font-family="Times New Roman,serif" font-size="10.00">Class_53636&#45;牵引</text>
</g>
<!-- node0026&#45;&gt;node0017 -->
<g id="edge26" class="edge">
<title>node0026&#45;&gt;node0017</title>
<path fill="none" stroke="black" d="M513.05,-60.44C518.74,-64.67 524.88,-68.75 531,-72 574.87,-95.26 588.3,-98.18 637.25,-106.5 724.22,-121.28 1347.89,-94.93 1431,-124.5 1434.25,-125.66 1437.45,-127.15 1440.56,-128.86"/>
<polygon fill="black" stroke="black" points="1438.5,-131.7 1448.81,-134.14 1442.27,-125.8 1438.5,-131.7"/>
<text text-anchor="middle" x="646.62" y="-93.2" font-family="Times New Roman,serif" font-size="14.00">is a</text>
</g>
<!-- node0027 -->
<g id="node28" class="node">
<title>node0027</title>
<ellipse fill="none" stroke="black" cx="576" cy="-36" rx="36" ry="36"/>
<text text-anchor="middle" x="576" y="-32.5" font-family="Times New Roman,serif" font-size="10.00">Class_2424&#45;物资</text>
</g>
<!-- node0027&#45;&gt;node0017 -->
<g id="edge27" class="edge">
<title>node0027&#45;&gt;node0017</title>
<path fill="none" stroke="black" d="M603.05,-60.44C608.74,-64.67 614.88,-68.75 621,-72 664.87,-95.26 678.31,-98.11 727.25,-106.5 804.35,-119.72 1357.34,-98.17 1431,-124.5 1434.25,-125.66 1437.45,-127.16 1440.55,-128.87"/>
<polygon fill="black" stroke="black" points="1438.49,-131.71 1448.8,-134.15 1442.26,-125.81 1438.49,-131.71"/>
<text text-anchor="middle" x="736.62" y="-93.2" font-family="Times New Roman,serif" font-size="14.00">is a</text>
</g>
<!-- node0028 -->
<g id="node29" class="node">
<title>node0028</title>
<ellipse fill="none" stroke="black" cx="666" cy="-36" rx="36" ry="36"/>
<text text-anchor="middle" x="666" y="-32.5" font-family="Times New Roman,serif" font-size="10.00">Class_53636&#45;救助</text>
</g>
<!-- node0028&#45;&gt;node0017 -->
<g id="edge28" class="edge">
<title>node0028&#45;&gt;node0017</title>
<path fill="none" stroke="black" d="M693.05,-60.44C698.74,-64.67 704.88,-68.75 711,-72 754.87,-95.26 768.33,-98.02 817.25,-106.5 884.47,-118.15 1366.8,-101.42 1431,-124.5 1434.25,-125.67 1437.45,-127.17 1440.55,-128.89"/>
<polygon fill="black" stroke="black" points="1438.49,-131.72 1448.79,-134.17 1442.26,-125.83 1438.49,-131.72"/>
<text text-anchor="middle" x="826.62" y="-93.2" font-family="Times New Roman,serif" font-size="14.00">is a</text>
</g>
<!-- node0029 -->
<g id="node30" class="node">
<title>node0029</title>
<ellipse fill="none" stroke="black" cx="756" cy="-36" rx="36" ry="36"/>
<text text-anchor="middle" x="756" y="-32.5" font-family="Times New Roman,serif" font-size="10.00">Class_36&#45;抢修</text>
</g>
<!-- node0029&#45;&gt;node0017 -->
<g id="edge29" class="edge">
<title>node0029&#45;&gt;node0017</title>
<path fill="none" stroke="black" d="M783.05,-60.44C788.74,-64.67 794.88,-68.75 801,-72 844.87,-95.26 858.35,-97.9 907.25,-106.5 1021.95,-126.68 1321.51,-84.82 1431,-124.5 1434.25,-125.68 1437.44,-127.18 1440.54,-128.9"/>
<polygon fill="black" stroke="black" points="1438.48,-131.74 1448.79,-134.19 1442.26,-125.85 1438.48,-131.74"/>
<text text-anchor="middle" x="916.62" y="-93.2" font-family="Times New Roman,serif" font-size="14.00">is a</text>
</g>
<!-- node0030 -->
<g id="node31" class="node">
<title>node0030</title>
<ellipse fill="none" stroke="black" cx="846" cy="-36" rx="36" ry="36"/>
<text text-anchor="middle" x="846" y="-32.12" font-family="Times New Roman,serif" font-size="10.00">Class_32235235</text>
</g>
<!-- node0030&#45;&gt;node0017 -->
<g id="edge30" class="edge">
<title>node0030&#45;&gt;node0017</title>
<path fill="none" stroke="black" d="M873.05,-60.44C878.74,-64.67 884.88,-68.75 891,-72 934.87,-95.26 948.38,-97.72 997.25,-106.5 1092.2,-123.55 1340.42,-91.31 1431,-124.5 1434.24,-125.69 1437.43,-127.2 1440.53,-128.93"/>
<polygon fill="black" stroke="black" points="1438.47,-131.76 1448.77,-134.23 1442.26,-125.88 1438.47,-131.76"/>
<text text-anchor="middle" x="1006.62" y="-93.2" font-family="Times New Roman,serif" font-size="14.00">is a</text>
</g>
<!-- node0031 -->
<g id="node32" class="node">
<title>node0031</title>
<ellipse fill="none" stroke="black" cx="936" cy="-36" rx="36" ry="36"/>
<text text-anchor="middle" x="936" y="-38.12" font-family="Times New Roman,serif" font-size="10.00">Class_32235235&#45;救</text>
<text text-anchor="middle" x="936" y="-26.12" font-family="Times New Roman,serif" font-size="10.00">助</text>
</g>
<!-- node0031&#45;&gt;node0017 -->
<g id="edge31" class="edge">
<title>node0031&#45;&gt;node0017</title>
<path fill="none" stroke="black" d="M963.05,-60.44C968.74,-64.67 974.88,-68.75 981,-72 1024.87,-95.26 1038.43,-97.46 1087.25,-106.5 1162.46,-120.43 1359.32,-97.79 1431,-124.5 1434.23,-125.71 1437.42,-127.23 1440.52,-128.97"/>
<polygon fill="black" stroke="black" points="1438.45,-131.8 1448.75,-134.28 1442.25,-125.92 1438.45,-131.8"/>
<text text-anchor="middle" x="1096.62" y="-93.2" font-family="Times New Roman,serif" font-size="14.00">is a</text>
</g>
<!-- node0032 -->
<g id="node33" class="node">
<title>node0032</title>
<ellipse fill="none" stroke="black" cx="1026" cy="-36" rx="36" ry="36"/>
<text text-anchor="middle" x="1026" y="-32.5" font-family="Times New Roman,serif" font-size="10.00">Class_53636&#45;人员</text>
</g>
<!-- node0032&#45;&gt;node0017 -->
<g id="edge32" class="edge">
<title>node0032&#45;&gt;node0017</title>
<path fill="none" stroke="black" d="M1053.04,-60.47C1058.73,-64.69 1064.87,-68.77 1071,-72 1115.68,-95.53 1129.66,-96.97 1179.25,-106.5 1289.41,-127.68 1326.26,-84.33 1431,-124.5 1434.22,-125.74 1437.4,-127.28 1440.49,-129.04"/>
<polygon fill="black" stroke="black" points="1438.43,-131.87 1448.72,-134.38 1442.24,-126 1438.43,-131.87"/>
<text text-anchor="middle" x="1188.62" y="-93.2" font-family="Times New Roman,serif" font-size="14.00">is a</text>
</g>
<!-- node0033 -->
<g id="node34" class="node">
<title>node0033</title>
<ellipse fill="none" stroke="black" cx="1116" cy="-36" rx="36" ry="36"/>
<text text-anchor="middle" x="1116" y="-32.5" font-family="Times New Roman,serif" font-size="10.00">Class_2424&#45;人员</text>
</g>
<!-- node0033&#45;&gt;node0017 -->
<g id="edge33" class="edge">
<title>node0033&#45;&gt;node0017</title>
<path fill="none" stroke="black" d="M1143.05,-60.44C1148.74,-64.67 1154.88,-68.75 1161,-72 1204.87,-95.26 1218.71,-96.07 1267.25,-106.5 1338.83,-121.89 1363.15,-96.99 1431,-124.5 1434.2,-125.8 1437.36,-127.39 1440.44,-129.18"/>
<polygon fill="black" stroke="black" points="1438.37,-132 1448.65,-134.57 1442.21,-126.15 1438.37,-132"/>
<text text-anchor="middle" x="1276.62" y="-93.2" font-family="Times New Roman,serif" font-size="14.00">is a</text>
</g>
<!-- node0034 -->
<g id="node35" class="node">
<title>node0034</title>
<ellipse fill="none" stroke="black" cx="1206" cy="-36" rx="36" ry="36"/>
<text text-anchor="middle" x="1206" y="-32.5" font-family="Times New Roman,serif" font-size="10.00">Class_2424&#45;救助</text>
</g>
<!-- node0034&#45;&gt;node0017 -->
<g id="edge34" class="edge">
<title>node0034&#45;&gt;node0017</title>
<path fill="none" stroke="black" d="M1233.11,-60.33C1238.8,-64.56 1244.92,-68.68 1251,-72 1291.63,-94.16 1304.74,-93.83 1349.25,-106.5 1385.03,-116.68 1397.32,-108.69 1431,-124.5 1434.12,-125.97 1437.23,-127.68 1440.27,-129.55"/>
<polygon fill="black" stroke="black" points="1438.18,-132.37 1448.42,-135.09 1442.12,-126.58 1438.18,-132.37"/>
<text text-anchor="middle" x="1358.62" y="-93.2" font-family="Times New Roman,serif" font-size="14.00">is a</text>
</g>
<!-- node0035 -->
<g id="node36" class="node">
<title>node0035</title>
<ellipse fill="none" stroke="black" cx="1296" cy="-36" rx="36" ry="36"/>
<text text-anchor="middle" x="1296" y="-38.12" font-family="Times New Roman,serif" font-size="10.00">Class_32235235&#45;人</text>
<text text-anchor="middle" x="1296" y="-26.12" font-family="Times New Roman,serif" font-size="10.00">员</text>
</g>
<!-- node0035&#45;&gt;node0017 -->
<g id="edge35" class="edge">
<title>node0035&#45;&gt;node0017</title>
<path fill="none" stroke="black" d="M1323.66,-59.43C1329.3,-63.74 1335.26,-68.12 1341,-72 1379.36,-97.94 1392.64,-98.56 1431,-124.5 1433.69,-126.32 1436.43,-128.25 1439.16,-130.23"/>
<polygon fill="black" stroke="black" points="1437.02,-132.99 1447.13,-136.16 1441.2,-127.38 1437.02,-132.99"/>
<text text-anchor="middle" x="1409.61" y="-93.2" font-family="Times New Roman,serif" font-size="14.00">is a</text>
</g>
<!-- node0036 -->
<g id="node37" class="node">
<title>node0036</title>
<ellipse fill="none" stroke="black" cx="1386" cy="-36" rx="36" ry="36"/>
<text text-anchor="middle" x="1386" y="-32.12" font-family="Times New Roman,serif" font-size="10.00">Class_666</text>
</g>
<!-- node0036&#45;&gt;node0017 -->
<g id="edge36" class="edge">
<title>node0036&#45;&gt;node0017</title>
<path fill="none" stroke="black" d="M1407.1,-65.72C1419.4,-82.46 1435.06,-103.77 1448.33,-121.84"/>
<polygon fill="black" stroke="black" points="1445.39,-123.75 1454.14,-129.74 1451.03,-119.61 1445.39,-123.75"/>
<text text-anchor="middle" x="1445.76" y="-93.2" font-family="Times New Roman,serif" font-size="14.00">is a</text>
</g>
<!-- node0037 -->
<g id="node38" class="node">
<title>node0037</title>
<ellipse fill="none" stroke="black" cx="1476" cy="-36" rx="36" ry="36"/>
<text text-anchor="middle" x="1476" y="-32.12" font-family="Times New Roman,serif" font-size="10.00">Class_36</text>
</g>
<!-- node0037&#45;&gt;node0017 -->
<g id="edge37" class="edge">
<title>node0037&#45;&gt;node0017</title>
<path fill="none" stroke="black" d="M1476,-72.43C1476,-85 1476,-99.35 1476,-112.72"/>
<polygon fill="black" stroke="black" points="1472.5,-112.63 1476,-122.63 1479.5,-112.63 1472.5,-112.63"/>
<text text-anchor="middle" x="1485.38" y="-93.2" font-family="Times New Roman,serif" font-size="14.00">is a</text>
</g>
<!-- node0038 -->
<g id="node39" class="node">
<title>node0038</title>
<ellipse fill="none" stroke="black" cx="1566" cy="-36" rx="36" ry="36"/>
<text text-anchor="middle" x="1566" y="-32.5" font-family="Times New Roman,serif" font-size="10.00">plan1&#45;人员</text>
</g>
<!-- node0038&#45;&gt;node0017 -->
<g id="edge38" class="edge">
<title>node0038&#45;&gt;node0017</title>
<path fill="none" stroke="black" d="M1544.9,-65.72C1532.6,-82.46 1516.94,-103.77 1503.67,-121.84"/>
<polygon fill="black" stroke="black" points="1500.97,-119.61 1497.86,-129.74 1506.61,-123.75 1500.97,-119.61"/>
<text text-anchor="middle" x="1535.76" y="-93.2" font-family="Times New Roman,serif" font-size="14.00">is a</text>
</g>
<!-- node0039 -->
<g id="node40" class="node">
<title>node0039</title>
<ellipse fill="none" stroke="black" cx="1656" cy="-36" rx="36" ry="36"/>
<text text-anchor="middle" x="1656" y="-32.5" font-family="Times New Roman,serif" font-size="10.00">Class_36&#45;救助</text>
</g>
<!-- node0039&#45;&gt;node0017 -->
<g id="edge39" class="edge">
<title>node0039&#45;&gt;node0017</title>
<path fill="none" stroke="black" d="M1628.2,-59.22C1622.57,-63.55 1616.65,-67.99 1611,-72 1579.78,-94.2 1543.26,-117.73 1516.08,-134.79"/>
<polygon fill="black" stroke="black" points="1514.43,-131.7 1507.8,-139.96 1518.14,-137.63 1514.43,-131.7"/>
<text text-anchor="middle" x="1591.38" y="-93.2" font-family="Times New Roman,serif" font-size="14.00">is a</text>
</g>
<!-- node0040 -->
<g id="node41" class="node">
<title>node0040</title>
<ellipse fill="none" stroke="black" cx="1746" cy="-36" rx="36" ry="36"/>
<text text-anchor="middle" x="1746" y="-32.12" font-family="Times New Roman,serif" font-size="10.00">Class_2424</text>
</g>
<!-- node0040&#45;&gt;node0017 -->
<g id="edge40" class="edge">
<title>node0040&#45;&gt;node0017</title>
<path fill="none" stroke="black" d="M1718.8,-60.17C1713.12,-64.42 1707.03,-68.58 1701,-72 1642.23,-105.34 1568.25,-131.38 1521.53,-146.11"/>
<polygon fill="black" stroke="black" points="1520.51,-142.76 1512,-149.06 1522.58,-149.44 1520.51,-142.76"/>
<text text-anchor="middle" x="1675.41" y="-93.2" font-family="Times New Roman,serif" font-size="14.00">is a</text>
</g>
<!-- node0041 -->
<g id="node42" class="node">
<title>node0041</title>
<ellipse fill="none" stroke="black" cx="1836" cy="-36" rx="36" ry="36"/>
<text text-anchor="middle" x="1836" y="-32.5" font-family="Times New Roman,serif" font-size="10.00">plan2&#45;牵引人员</text>
</g>
<!-- node0041&#45;&gt;node0017 -->
<g id="edge41" class="edge">
<title>node0041&#45;&gt;node0017</title>
<path fill="none" stroke="black" d="M1808.92,-60.38C1803.23,-64.61 1797.1,-68.72 1791,-72 1703.01,-119.34 1587.08,-142.95 1523.24,-153.08"/>
<polygon fill="black" stroke="black" points="1522.79,-149.61 1513.44,-154.59 1523.86,-156.53 1522.79,-149.61"/>
<text text-anchor="middle" x="1760.46" y="-93.2" font-family="Times New Roman,serif" font-size="14.00">is a</text>
</g>
<!-- node0042 -->
<g id="node43" class="node">
<title>node0042</title>
<ellipse fill="none" stroke="black" cx="1926" cy="-36" rx="36" ry="36"/>
<text text-anchor="middle" x="1926" y="-32.12" font-family="Times New Roman,serif" font-size="10.00">Class_436</text>
</g>
<!-- node0042&#45;&gt;node0017 -->
<g id="edge42" class="edge">
<title>node0042&#45;&gt;node0017</title>
<path fill="none" stroke="black" d="M1898.95,-60.45C1893.26,-64.68 1887.12,-68.76 1881,-72 1762.75,-134.54 1602.6,-152.39 1523.81,-157.48"/>
<polygon fill="black" stroke="black" points="1523.62,-153.98 1513.85,-158.07 1524.04,-160.97 1523.62,-153.98"/>
<text text-anchor="middle" x="1849.95" y="-93.2" font-family="Times New Roman,serif" font-size="14.00">is a</text>
</g>
<!-- node0043 -->
<g id="node44" class="node">
<title>node0043</title>
<ellipse fill="none" stroke="black" cx="2016" cy="-36" rx="36" ry="36"/>
<text text-anchor="middle" x="2016" y="-32.5" font-family="Times New Roman,serif" font-size="10.00">Class_36&#45;车辆</text>
</g>
<!-- node0043&#45;&gt;node0017 -->
<g id="edge43" class="edge">
<title>node0043&#45;&gt;node0017</title>
<path fill="none" stroke="black" d="M1988.96,-60.46C1983.27,-64.69 1977.13,-68.77 1971,-72 1926.42,-95.5 1912.15,-95.37 1863,-106.5 1742.14,-133.86 1596.65,-149.17 1523.26,-155.68"/>
<polygon fill="black" stroke="black" points="1523.29,-152.17 1513.63,-156.52 1523.89,-159.14 1523.29,-152.17"/>
<text text-anchor="middle" x="1939.11" y="-93.2" font-family="Times New Roman,serif" font-size="14.00">is a</text>
</g>
<!-- node0044 -->
<g id="node45" class="node">
<title>node0044</title>
<ellipse fill="none" stroke="black" cx="2106" cy="-36" rx="36" ry="36"/>
<text text-anchor="middle" x="2106" y="-32.12" font-family="Times New Roman,serif" font-size="10.00">Class_53636</text>
</g>
<!-- node0044&#45;&gt;node0017 -->
<g id="edge44" class="edge">
<title>node0044&#45;&gt;node0017</title>
<path fill="none" stroke="black" d="M2078.97,-60.48C2073.28,-64.7 2067.13,-68.78 2061,-72 2016.02,-95.64 2001.71,-95.97 1952,-106.5 1797.4,-139.24 1609.99,-152.58 1523.7,-157.28"/>
<polygon fill="black" stroke="black" points="1523.52,-153.78 1513.72,-157.81 1523.89,-160.77 1523.52,-153.78"/>
<text text-anchor="middle" x="2030.64" y="-93.2" font-family="Times New Roman,serif" font-size="14.00">is a</text>
</g>
<!-- node0045 -->
<g id="node46" class="node">
<title>node0045</title>
<ellipse fill="none" stroke="black" cx="2196" cy="-36" rx="36" ry="36"/>
<text text-anchor="middle" x="2196" y="-32.5" font-family="Times New Roman,serif" font-size="10.00">Class_666&#45;救助</text>
</g>
<!-- node0045&#45;&gt;node0017 -->
<g id="edge45" class="edge">
<title>node0045&#45;&gt;node0017</title>
<path fill="none" stroke="black" d="M2168.95,-60.45C2163.26,-64.68 2157.12,-68.76 2151,-72 2106.83,-95.36 2092.95,-96.45 2044,-106.5 1853.82,-145.54 1621.84,-155.87 1523.59,-158.56"/>
<polygon fill="black" stroke="black" points="1523.71,-155.06 1513.8,-158.82 1523.89,-162.06 1523.71,-155.06"/>
<text text-anchor="middle" x="2121.4" y="-93.2" font-family="Times New Roman,serif" font-size="14.00">is a</text>
</g>
<!-- node0046 -->
<g id="node47" class="node">
<title>node0046</title>
<ellipse fill="none" stroke="black" cx="2286" cy="-36" rx="36" ry="36"/>
<text text-anchor="middle" x="2286" y="-32.5" font-family="Times New Roman,serif" font-size="10.00">plan2&#45;救助</text>
</g>
<!-- node0046&#45;&gt;node0017 -->
<g id="edge46" class="edge">
<title>node0046&#45;&gt;node0017</title>
<path fill="none" stroke="black" d="M2258.95,-60.44C2253.26,-64.66 2247.12,-68.75 2241,-72 2197.24,-95.22 2183.58,-96.78 2135,-106.5 1909.4,-151.63 1633.07,-158.58 1523.76,-159.47"/>
<polygon fill="black" stroke="black" points="1523.98,-155.97 1514,-159.54 1524.02,-162.97 1523.98,-155.97"/>
<text text-anchor="middle" x="2211.78" y="-93.2" font-family="Times New Roman,serif" font-size="14.00">is a</text>
</g>
<!-- node0047 -->
<g id="node48" class="node">
<title>node0047</title>
<ellipse fill="none" stroke="black" cx="2376" cy="-36" rx="36" ry="36"/>
<text text-anchor="middle" x="2376" y="-32.12" font-family="Times New Roman,serif" font-size="10.00">plan1</text>
</g>
<!-- node0047&#45;&gt;node0017 -->
<g id="edge47" class="edge">
<title>node0047&#45;&gt;node0017</title>
<path fill="none" stroke="black" d="M2348.95,-60.44C2343.26,-64.66 2337.12,-68.75 2331,-72 2287.24,-95.22 2273.63,-97.01 2225,-106.5 1963.73,-157.47 1642.71,-160.85 1523.5,-160.13"/>
<polygon fill="black" stroke="black" points="1523.81,-156.63 1513.78,-160.06 1523.76,-163.63 1523.81,-156.63"/>
<text text-anchor="middle" x="2301.79" y="-93.2" font-family="Times New Roman,serif" font-size="14.00">is a</text>
</g>
<!-- node0048 -->
<g id="node49" class="node">
<title>node0048</title>
<ellipse fill="none" stroke="black" cx="2466" cy="-36" rx="36" ry="36"/>
<text text-anchor="middle" x="2466" y="-32.12" font-family="Times New Roman,serif" font-size="10.00">plan2</text>
</g>
<!-- node0048&#45;&gt;node0017 -->
<g id="edge48" class="edge">
<title>node0048&#45;&gt;node0017</title>
<path fill="none" stroke="black" d="M2438.95,-60.44C2433.26,-64.66 2427.12,-68.75 2421,-72 2377.24,-95.22 2363.66,-97.2 2315,-106.5 2161.49,-135.84 1677.61,-153.18 1523.58,-158.07"/>
<polygon fill="black" stroke="black" points="1523.63,-154.56 1513.74,-158.38 1523.85,-161.56 1523.63,-154.56"/>
<text text-anchor="middle" x="2391.8" y="-93.2" font-family="Times New Roman,serif" font-size="14.00">is a</text>
</g>
<!-- node0049 -->
<g id="node50" class="node">
<title>node0049</title>
<ellipse fill="none" stroke="black" cx="2556" cy="-36" rx="36" ry="36"/>
<text text-anchor="middle" x="2556" y="-32.5" font-family="Times New Roman,serif" font-size="10.00">Class_36&#45;人员</text>
</g>
<!-- node0049&#45;&gt;node0017 -->
<g id="edge49" class="edge">
<title>node0049&#45;&gt;node0017</title>
<path fill="none" stroke="black" d="M2528.95,-60.44C2523.26,-64.66 2517.12,-68.75 2511,-72 2467.24,-95.22 2453.69,-97.35 2405,-106.5 2233.19,-138.8 1687.88,-154.37 1523.41,-158.41"/>
<polygon fill="black" stroke="black" points="1523.66,-154.9 1513.75,-158.64 1523.83,-161.9 1523.66,-154.9"/>
<text text-anchor="middle" x="2481.81" y="-93.2" font-family="Times New Roman,serif" font-size="14.00">is a</text>
</g>
<!-- node0050 -->
<g id="node51" class="node">
<title>node0050</title>
<ellipse fill="none" stroke="black" cx="2646" cy="-36" rx="36" ry="36"/>
<text text-anchor="middle" x="2646" y="-32.5" font-family="Times New Roman,serif" font-size="10.00">Class_666&#45;物资</text>
</g>
<!-- node0050&#45;&gt;node0017 -->
<g id="edge50" class="edge">
<title>node0050&#45;&gt;node0017</title>
<path fill="none" stroke="black" d="M2618.95,-60.44C2613.26,-64.66 2607.12,-68.75 2601,-72 2557.24,-95.22 2543.71,-97.47 2495,-106.5 2304.94,-141.74 1698.39,-155.41 1523.57,-158.68"/>
<polygon fill="black" stroke="black" points="1523.67,-155.18 1513.73,-158.86 1523.79,-162.18 1523.67,-155.18"/>
<text text-anchor="middle" x="2571.81" y="-93.2" font-family="Times New Roman,serif" font-size="14.00">is a</text>
</g>
<!-- node0051 -->
<g id="node52" class="node">
<title>node0051</title>
<ellipse fill="none" stroke="black" cx="2736" cy="-36" rx="36" ry="36"/>
<text text-anchor="middle" x="2736" y="-32.12" font-family="Times New Roman,serif" font-size="10.00">Class_1</text>
</g>
<!-- node0051&#45;&gt;node0018 -->
<g id="edge51" class="edge">
<title>node0051&#45;&gt;node0018</title>
<path fill="none" stroke="black" d="M2736,-72.43C2736,-85 2736,-99.35 2736,-112.72"/>
<polygon fill="black" stroke="black" points="2732.5,-112.63 2736,-122.63 2739.5,-112.63 2732.5,-112.63"/>
<text text-anchor="middle" x="2745.38" y="-93.2" font-family="Times New Roman,serif" font-size="14.00">is a</text>
</g>
<!-- node0052 -->
<g id="node53" class="node">
<title>node0052</title>
<ellipse fill="none" stroke="black" cx="2826" cy="-36" rx="36" ry="36"/>
<text text-anchor="middle" x="2826" y="-32.12" font-family="Times New Roman,serif" font-size="10.00">Meteorology</text>
</g>
<!-- node0052&#45;&gt;node0018 -->
<g id="edge52" class="edge">
<title>node0052&#45;&gt;node0018</title>
<path fill="none" stroke="black" d="M2804.9,-65.72C2792.6,-82.46 2776.94,-103.77 2763.67,-121.84"/>
<polygon fill="black" stroke="black" points="2760.97,-119.61 2757.86,-129.74 2766.61,-123.75 2760.97,-119.61"/>
<text text-anchor="middle" x="2795.76" y="-93.2" font-family="Times New Roman,serif" font-size="14.00">is a</text>
</g>
<!-- node0053 -->
<g id="node54" class="node">
<title>node0053</title>
<ellipse fill="none" stroke="black" cx="2916" cy="-36" rx="36" ry="36"/>
<text text-anchor="middle" x="2916" y="-32.12" font-family="Times New Roman,serif" font-size="10.00">Road</text>
</g>
<!-- node0053&#45;&gt;node0019 -->
<g id="edge53" class="edge">
<title>node0053&#45;&gt;node0019</title>
<path fill="none" stroke="black" d="M2916,-72.43C2916,-85 2916,-99.35 2916,-112.72"/>
<polygon fill="black" stroke="black" points="2912.5,-112.63 2916,-122.63 2919.5,-112.63 2912.5,-112.63"/>
<text text-anchor="middle" x="2925.38" y="-93.2" font-family="Times New Roman,serif" font-size="14.00">is a</text>
</g>
<!-- node0054 -->
<g id="node55" class="node">
<title>node0054</title>
<ellipse fill="none" stroke="black" cx="3006" cy="-36" rx="36" ry="36"/>
<text text-anchor="middle" x="3006" y="-32.12" font-family="Times New Roman,serif" font-size="10.00">Class_34</text>
</g>
<!-- node0054&#45;&gt;node0019 -->
<g id="edge54" class="edge">
<title>node0054&#45;&gt;node0019</title>
<path fill="none" stroke="black" d="M2984.9,-65.72C2972.6,-82.46 2956.94,-103.77 2943.67,-121.84"/>
<polygon fill="black" stroke="black" points="2940.97,-119.61 2937.86,-129.74 2946.61,-123.75 2940.97,-119.61"/>
<text text-anchor="middle" x="2975.76" y="-93.2" font-family="Times New Roman,serif" font-size="14.00">is a</text>
</g>
<!-- node0055 -->
<g id="node56" class="node">
<title>node0055</title>
<ellipse fill="none" stroke="black" cx="3096" cy="-36" rx="36" ry="36"/>
<text text-anchor="middle" x="3096" y="-32.12" font-family="Times New Roman,serif" font-size="10.00">Class_2</text>
</g>
<!-- node0055&#45;&gt;node0020 -->
<g id="edge55" class="edge">
<title>node0055&#45;&gt;node0020</title>
<path fill="none" stroke="black" d="M3096,-72.43C3096,-85 3096,-99.35 3096,-112.72"/>
<polygon fill="black" stroke="black" points="3092.5,-112.63 3096,-122.63 3099.5,-112.63 3092.5,-112.63"/>
<text text-anchor="middle" x="3105.38" y="-93.2" font-family="Times New Roman,serif" font-size="14.00">is a</text>
</g>
<!-- node0056 -->
<g id="node57" class="node">
<title>node0056</title>
<ellipse fill="none" stroke="black" cx="3186" cy="-36" rx="36" ry="36"/>
<text text-anchor="middle" x="3186" y="-32.12" font-family="Times New Roman,serif" font-size="10.00">Class_3</text>
</g>
<!-- node0056&#45;&gt;node0020 -->
<g id="edge56" class="edge">
<title>node0056&#45;&gt;node0020</title>
<path fill="none" stroke="black" d="M3164.9,-65.72C3152.6,-82.46 3136.94,-103.77 3123.67,-121.84"/>
<polygon fill="black" stroke="black" points="3120.97,-119.61 3117.86,-129.74 3126.61,-123.75 3120.97,-119.61"/>
<text text-anchor="middle" x="3155.76" y="-93.2" font-family="Times New Roman,serif" font-size="14.00">is a</text>
</g>
</g>
</svg>
