<?xml version="1.0" encoding="UTF-8" standalone="no"?>
<!DOCTYPE svg PUBLIC "-//W3C//DTD SVG 1.1//EN"
 "http://www.w3.org/Graphics/SVG/1.1/DTD/svg11.dtd">
<!-- Generated by graphviz version 12.1.2 (20240928.0832)
 -->
<!-- Title: G Pages: 1 -->
<svg width="3230pt" height="454pt"
 viewBox="0.00 0.00 3230.00 453.50" xmlns="http://www.w3.org/2000/svg" xmlns:xlink="http://www.w3.org/1999/xlink">
<g id="graph0" class="graph" transform="scale(1 1) rotate(0) translate(4 449.5)">
<title>G</title>
<polygon fill="white" stroke="none" points="-4,4 -4,-449.5 3226,-449.5 3226,4 -4,4"/>
<!-- node0000 -->
<g id="node1" class="node">
<title>node0000</title>
<ellipse fill="none" stroke="black" cx="396" cy="-409.5" rx="36" ry="36"/>
<text text-anchor="middle" x="396" y="-405.62" font-family="Times New Roman,serif" font-size="10.00">Thing</text>
</g>
<!-- node0001 -->
<g id="node2" class="node">
<title>node0001</title>
<ellipse fill="none" stroke="black" cx="351" cy="-285" rx="36" ry="36"/>
<text text-anchor="middle" x="351" y="-281.12" font-family="Times New Roman,serif" font-size="10.00">ScenarioElement</text>
</g>
<!-- node0001&#45;&gt;node0000 -->
<g id="edge1" class="edge">
<title>node0001&#45;&gt;node0000</title>
<path fill="none" stroke="black" d="M363.18,-319.15C368.33,-333.18 374.4,-349.71 379.92,-364.72"/>
<polygon fill="black" stroke="black" points="376.56,-365.72 383.29,-373.9 383.13,-363.31 376.56,-365.72"/>
<text text-anchor="middle" x="385.57" y="-342.2" font-family="Times New Roman,serif" font-size="14.00">is a</text>
</g>
<!-- node0002 -->
<g id="node3" class="node">
<title>node0002</title>
<ellipse fill="none" stroke="black" cx="441" cy="-285" rx="36" ry="36"/>
<text text-anchor="middle" x="441" y="-281.12" font-family="Times New Roman,serif" font-size="10.00">Item</text>
</g>
<!-- node0002&#45;&gt;node0000 -->
<g id="edge2" class="edge">
<title>node0002&#45;&gt;node0000</title>
<path fill="none" stroke="black" d="M428.82,-319.15C423.67,-333.18 417.6,-349.71 412.08,-364.72"/>
<polygon fill="black" stroke="black" points="408.87,-363.31 408.71,-373.9 415.44,-365.72 408.87,-363.31"/>
<text text-anchor="middle" x="430.57" y="-342.2" font-family="Times New Roman,serif" font-size="14.00">is a</text>
</g>
<!-- node0003 -->
<g id="node4" class="node">
<title>node0003</title>
<ellipse fill="none" stroke="black" cx="126" cy="-160.5" rx="36" ry="36"/>
<text text-anchor="middle" x="126" y="-156.62" font-family="Times New Roman,serif" font-size="10.00">AffectedElement</text>
</g>
<!-- node0003&#45;&gt;node0001 -->
<g id="edge3" class="edge">
<title>node0003&#45;&gt;node0001</title>
<path fill="none" stroke="black" d="M157.29,-178.53C196.97,-200.14 265.52,-237.46 309.53,-261.42"/>
<polygon fill="black" stroke="black" points="307.83,-264.48 318.29,-266.19 311.18,-258.34 307.83,-264.48"/>
<text text-anchor="middle" x="261.35" y="-217.7" font-family="Times New Roman,serif" font-size="14.00">is a</text>
</g>
<!-- node0004 -->
<g id="node5" class="node">
<title>node0004</title>
<ellipse fill="none" stroke="black" cx="306" cy="-160.5" rx="36" ry="36"/>
<text text-anchor="middle" x="306" y="-156.62" font-family="Times New Roman,serif" font-size="10.00">HazardElement</text>
</g>
<!-- node0004&#45;&gt;node0001 -->
<g id="edge4" class="edge">
<title>node0004&#45;&gt;node0001</title>
<path fill="none" stroke="black" d="M318.18,-194.65C323.33,-208.68 329.4,-225.21 334.92,-240.22"/>
<polygon fill="black" stroke="black" points="331.56,-241.22 338.29,-249.4 338.13,-238.81 331.56,-241.22"/>
<text text-anchor="middle" x="340.57" y="-217.7" font-family="Times New Roman,serif" font-size="14.00">is a</text>
</g>
<!-- node0005 -->
<g id="node6" class="node">
<title>node0005</title>
<ellipse fill="none" stroke="black" cx="396" cy="-160.5" rx="36" ry="36"/>
<text text-anchor="middle" x="396" y="-162.25" font-family="Times New Roman,serif" font-size="10.00">EnvironmentEleme</text>
<text text-anchor="middle" x="396" y="-151" font-family="Times New Roman,serif" font-size="10.00">nt</text>
</g>
<!-- node0005&#45;&gt;node0001 -->
<g id="edge5" class="edge">
<title>node0005&#45;&gt;node0001</title>
<path fill="none" stroke="black" d="M383.82,-194.65C378.67,-208.68 372.6,-225.21 367.08,-240.22"/>
<polygon fill="black" stroke="black" points="363.87,-238.81 363.71,-249.4 370.44,-241.22 363.87,-238.81"/>
<text text-anchor="middle" x="385.57" y="-217.7" font-family="Times New Roman,serif" font-size="14.00">is a</text>
</g>
<!-- node0006 -->
<g id="node7" class="node">
<title>node0006</title>
<ellipse fill="none" stroke="black" cx="1836" cy="-160.5" rx="36" ry="36"/>
<text text-anchor="middle" x="1836" y="-162.25" font-family="Times New Roman,serif" font-size="10.00">ResponsePlanElem</text>
<text text-anchor="middle" x="1836" y="-151" font-family="Times New Roman,serif" font-size="10.00">ent</text>
</g>
<!-- node0006&#45;&gt;node0001 -->
<g id="edge6" class="edge">
<title>node0006&#45;&gt;node0001</title>
<path fill="none" stroke="black" d="M1799.66,-162.42C1589.17,-167.94 530.96,-198.07 396,-249 392.77,-250.22 389.59,-251.75 386.49,-253.5"/>
<polygon fill="black" stroke="black" points="384.76,-250.45 378.26,-258.83 388.56,-256.33 384.76,-250.45"/>
<text text-anchor="middle" x="644.02" y="-217.7" font-family="Times New Roman,serif" font-size="14.00">is a</text>
</g>
<!-- node0007 -->
<g id="node8" class="node">
<title>node0007</title>
<ellipse fill="none" stroke="black" cx="36" cy="-36" rx="36" ry="36"/>
<text text-anchor="middle" x="36" y="-32.12" font-family="Times New Roman,serif" font-size="10.00">Road</text>
</g>
<!-- node0007&#45;&gt;node0003 -->
<g id="edge7" class="edge">
<title>node0007&#45;&gt;node0003</title>
<path fill="none" stroke="black" d="M57.1,-65.72C69.4,-82.46 85.06,-103.77 98.33,-121.84"/>
<polygon fill="black" stroke="black" points="95.39,-123.75 104.14,-129.74 101.03,-119.61 95.39,-123.75"/>
<text text-anchor="middle" x="95.76" y="-93.2" font-family="Times New Roman,serif" font-size="14.00">is a</text>
</g>
<!-- node0008 -->
<g id="node9" class="node">
<title>node0008</title>
<ellipse fill="none" stroke="black" cx="126" cy="-36" rx="36" ry="36"/>
<text text-anchor="middle" x="126" y="-32.12" font-family="Times New Roman,serif" font-size="10.00">Class_34</text>
</g>
<!-- node0008&#45;&gt;node0003 -->
<g id="edge8" class="edge">
<title>node0008&#45;&gt;node0003</title>
<path fill="none" stroke="black" d="M126,-72.43C126,-85 126,-99.35 126,-112.72"/>
<polygon fill="black" stroke="black" points="122.5,-112.63 126,-122.63 129.5,-112.63 122.5,-112.63"/>
<text text-anchor="middle" x="135.38" y="-93.2" font-family="Times New Roman,serif" font-size="14.00">is a</text>
</g>
<!-- node0009 -->
<g id="node10" class="node">
<title>node0009</title>
<ellipse fill="none" stroke="black" cx="216" cy="-36" rx="36" ry="36"/>
<text text-anchor="middle" x="216" y="-32.12" font-family="Times New Roman,serif" font-size="10.00">Class_2</text>
</g>
<!-- node0009&#45;&gt;node0004 -->
<g id="edge9" class="edge">
<title>node0009&#45;&gt;node0004</title>
<path fill="none" stroke="black" d="M237.1,-65.72C249.4,-82.46 265.06,-103.77 278.33,-121.84"/>
<polygon fill="black" stroke="black" points="275.39,-123.75 284.14,-129.74 281.03,-119.61 275.39,-123.75"/>
<text text-anchor="middle" x="275.76" y="-93.2" font-family="Times New Roman,serif" font-size="14.00">is a</text>
</g>
<!-- node0010 -->
<g id="node11" class="node">
<title>node0010</title>
<ellipse fill="none" stroke="black" cx="306" cy="-36" rx="36" ry="36"/>
<text text-anchor="middle" x="306" y="-32.12" font-family="Times New Roman,serif" font-size="10.00">Class_3</text>
</g>
<!-- node0010&#45;&gt;node0004 -->
<g id="edge10" class="edge">
<title>node0010&#45;&gt;node0004</title>
<path fill="none" stroke="black" d="M306,-72.43C306,-85 306,-99.35 306,-112.72"/>
<polygon fill="black" stroke="black" points="302.5,-112.63 306,-122.63 309.5,-112.63 302.5,-112.63"/>
<text text-anchor="middle" x="315.38" y="-93.2" font-family="Times New Roman,serif" font-size="14.00">is a</text>
</g>
<!-- node0011 -->
<g id="node12" class="node">
<title>node0011</title>
<ellipse fill="none" stroke="black" cx="396" cy="-36" rx="36" ry="36"/>
<text text-anchor="middle" x="396" y="-32.12" font-family="Times New Roman,serif" font-size="10.00">Class_1</text>
</g>
<!-- node0011&#45;&gt;node0005 -->
<g id="edge11" class="edge">
<title>node0011&#45;&gt;node0005</title>
<path fill="none" stroke="black" d="M396,-72.43C396,-85 396,-99.35 396,-112.72"/>
<polygon fill="black" stroke="black" points="392.5,-112.63 396,-122.63 399.5,-112.63 392.5,-112.63"/>
<text text-anchor="middle" x="405.38" y="-93.2" font-family="Times New Roman,serif" font-size="14.00">is a</text>
</g>
<!-- node0012 -->
<g id="node13" class="node">
<title>node0012</title>
<ellipse fill="none" stroke="black" cx="486" cy="-36" rx="36" ry="36"/>
<text text-anchor="middle" x="486" y="-32.12" font-family="Times New Roman,serif" font-size="10.00">Meteorology</text>
</g>
<!-- node0012&#45;&gt;node0005 -->
<g id="edge12" class="edge">
<title>node0012&#45;&gt;node0005</title>
<path fill="none" stroke="black" d="M464.9,-65.72C452.6,-82.46 436.94,-103.77 423.67,-121.84"/>
<polygon fill="black" stroke="black" points="420.97,-119.61 417.86,-129.74 426.61,-123.75 420.97,-119.61"/>
<text text-anchor="middle" x="455.76" y="-93.2" font-family="Times New Roman,serif" font-size="14.00">is a</text>
</g>
<!-- node0013 -->
<g id="node14" class="node">
<title>node0013</title>
<ellipse fill="none" stroke="black" cx="576" cy="-36" rx="36" ry="36"/>
<text text-anchor="middle" x="576" y="-32.12" font-family="Times New Roman,serif" font-size="10.00">plan1</text>
</g>
<!-- node0013&#45;&gt;node0006 -->
<g id="edge13" class="edge">
<title>node0013&#45;&gt;node0006</title>
<path fill="none" stroke="black" d="M603.05,-60.44C608.74,-64.67 614.88,-68.75 621,-72 664.87,-95.26 678.41,-97.57 727.25,-106.5 935.58,-144.6 1603.52,-156.34 1788.25,-158.91"/>
<polygon fill="black" stroke="black" points="1788.15,-162.4 1798.2,-159.04 1788.25,-155.41 1788.15,-162.4"/>
<text text-anchor="middle" x="736.62" y="-93.2" font-family="Times New Roman,serif" font-size="14.00">is a</text>
</g>
<!-- node0014 -->
<g id="node15" class="node">
<title>node0014</title>
<ellipse fill="none" stroke="black" cx="666" cy="-36" rx="36" ry="36"/>
<text text-anchor="middle" x="666" y="-32.5" font-family="Times New Roman,serif" font-size="10.00">plan1&#45;人员</text>
</g>
<!-- node0014&#45;&gt;node0006 -->
<g id="edge14" class="edge">
<title>node0014&#45;&gt;node0006</title>
<path fill="none" stroke="black" d="M693.05,-60.44C698.74,-64.67 704.88,-68.75 711,-72 754.87,-95.26 768.43,-97.47 817.25,-106.5 1007.28,-141.66 1613.67,-155.39 1788.44,-158.68"/>
<polygon fill="black" stroke="black" points="1788.22,-162.17 1798.28,-158.86 1788.34,-155.17 1788.22,-162.17"/>
<text text-anchor="middle" x="826.62" y="-93.2" font-family="Times New Roman,serif" font-size="14.00">is a</text>
</g>
<!-- node0015 -->
<g id="node16" class="node">
<title>node0015</title>
<ellipse fill="none" stroke="black" cx="756" cy="-36" rx="36" ry="36"/>
<text text-anchor="middle" x="756" y="-32.5" font-family="Times New Roman,serif" font-size="10.00">plan1&#45;救助</text>
</g>
<!-- node0015&#45;&gt;node0006 -->
<g id="edge15" class="edge">
<title>node0015&#45;&gt;node0006</title>
<path fill="none" stroke="black" d="M783.05,-60.44C788.74,-64.67 794.88,-68.75 801,-72 844.87,-95.26 858.45,-97.34 907.25,-106.5 1079.02,-138.73 1624.18,-154.35 1788.6,-158.4"/>
<polygon fill="black" stroke="black" points="1788.18,-161.89 1798.26,-158.64 1788.35,-154.9 1788.18,-161.89"/>
<text text-anchor="middle" x="916.62" y="-93.2" font-family="Times New Roman,serif" font-size="14.00">is a</text>
</g>
<!-- node0016 -->
<g id="node17" class="node">
<title>node0016</title>
<ellipse fill="none" stroke="black" cx="846" cy="-36" rx="36" ry="36"/>
<text text-anchor="middle" x="846" y="-32.12" font-family="Times New Roman,serif" font-size="10.00">Class_436</text>
</g>
<!-- node0016&#45;&gt;node0006 -->
<g id="edge16" class="edge">
<title>node0016&#45;&gt;node0006</title>
<path fill="none" stroke="black" d="M873.05,-60.44C878.74,-64.67 884.88,-68.75 891,-72 934.87,-95.26 948.48,-97.19 997.25,-106.5 1150.73,-135.78 1634.45,-153.16 1788.43,-158.06"/>
<polygon fill="black" stroke="black" points="1788.16,-161.56 1798.27,-158.37 1788.38,-154.56 1788.16,-161.56"/>
<text text-anchor="middle" x="1006.62" y="-93.2" font-family="Times New Roman,serif" font-size="14.00">is a</text>
</g>
<!-- node0017 -->
<g id="node18" class="node">
<title>node0017</title>
<ellipse fill="none" stroke="black" cx="936" cy="-36" rx="36" ry="36"/>
<text text-anchor="middle" x="936" y="-32.5" font-family="Times New Roman,serif" font-size="10.00">Class_436&#45;人员</text>
</g>
<!-- node0017&#45;&gt;node0006 -->
<g id="edge17" class="edge">
<title>node0017&#45;&gt;node0006</title>
<path fill="none" stroke="black" d="M963.05,-60.44C968.74,-64.67 974.88,-68.75 981,-72 1024.87,-95.26 1038.52,-97.01 1087.25,-106.5 1348.45,-157.36 1669.35,-160.8 1788.52,-160.12"/>
<polygon fill="black" stroke="black" points="1788.26,-163.62 1798.23,-160.05 1788.21,-156.62 1788.26,-163.62"/>
<text text-anchor="middle" x="1096.62" y="-93.2" font-family="Times New Roman,serif" font-size="14.00">is a</text>
</g>
<!-- node0018 -->
<g id="node19" class="node">
<title>node0018</title>
<ellipse fill="none" stroke="black" cx="1026" cy="-36" rx="36" ry="36"/>
<text text-anchor="middle" x="1026" y="-32.5" font-family="Times New Roman,serif" font-size="10.00">Class_436&#45;救助</text>
</g>
<!-- node0018&#45;&gt;node0006 -->
<g id="edge18" class="edge">
<title>node0018&#45;&gt;node0006</title>
<path fill="none" stroke="black" d="M1053.05,-60.44C1058.74,-64.67 1064.88,-68.75 1071,-72 1114.87,-95.26 1128.56,-96.78 1177.25,-106.5 1402.78,-151.54 1679,-158.54 1788.26,-159.46"/>
<polygon fill="black" stroke="black" points="1787.99,-162.96 1798.01,-159.53 1788.04,-155.96 1787.99,-162.96"/>
<text text-anchor="middle" x="1186.62" y="-93.2" font-family="Times New Roman,serif" font-size="14.00">is a</text>
</g>
<!-- node0019 -->
<g id="node20" class="node">
<title>node0019</title>
<ellipse fill="none" stroke="black" cx="1116" cy="-36" rx="36" ry="36"/>
<text text-anchor="middle" x="1116" y="-32.12" font-family="Times New Roman,serif" font-size="10.00">plan2</text>
</g>
<!-- node0019&#45;&gt;node0006 -->
<g id="edge19" class="edge">
<title>node0019&#45;&gt;node0006</title>
<path fill="none" stroke="black" d="M1143.04,-60.47C1148.73,-64.69 1154.87,-68.77 1161,-72 1205.68,-95.53 1219.77,-96.42 1269.25,-106.5 1459.08,-145.16 1690.51,-155.69 1788.52,-158.5"/>
<polygon fill="black" stroke="black" points="1788.2,-161.99 1798.29,-158.77 1788.39,-155 1788.2,-161.99"/>
<text text-anchor="middle" x="1278.62" y="-93.2" font-family="Times New Roman,serif" font-size="14.00">is a</text>
</g>
<!-- node0020 -->
<g id="node21" class="node">
<title>node0020</title>
<ellipse fill="none" stroke="black" cx="1206" cy="-36" rx="36" ry="36"/>
<text text-anchor="middle" x="1206" y="-32.5" font-family="Times New Roman,serif" font-size="10.00">plan2&#45;牵引人员</text>
</g>
<!-- node0020&#45;&gt;node0006 -->
<g id="edge20" class="edge">
<title>node0020&#45;&gt;node0006</title>
<path fill="none" stroke="black" d="M1233.04,-60.47C1238.73,-64.69 1244.87,-68.77 1251,-72 1295.68,-95.53 1309.86,-95.99 1359.25,-106.5 1514.22,-139.47 1702.17,-152.71 1788.48,-157.33"/>
<polygon fill="black" stroke="black" points="1788.05,-160.81 1798.22,-157.84 1788.41,-153.82 1788.05,-160.81"/>
<text text-anchor="middle" x="1368.62" y="-93.2" font-family="Times New Roman,serif" font-size="14.00">is a</text>
</g>
<!-- node0021 -->
<g id="node22" class="node">
<title>node0021</title>
<ellipse fill="none" stroke="black" cx="1296" cy="-36" rx="36" ry="36"/>
<text text-anchor="middle" x="1296" y="-32.5" font-family="Times New Roman,serif" font-size="10.00">plan2&#45;救助</text>
</g>
<!-- node0021&#45;&gt;node0006 -->
<g id="edge21" class="edge">
<title>node0021&#45;&gt;node0006</title>
<path fill="none" stroke="black" d="M1323.05,-60.45C1328.73,-64.68 1334.87,-68.76 1341,-72 1385.27,-95.39 1399.42,-95.4 1448.25,-106.5 1569.31,-134.02 1715.1,-149.26 1788.64,-155.72"/>
<polygon fill="black" stroke="black" points="1788.03,-159.18 1798.3,-156.56 1788.63,-152.21 1788.03,-159.18"/>
<text text-anchor="middle" x="1457.62" y="-93.2" font-family="Times New Roman,serif" font-size="14.00">is a</text>
</g>
<!-- node0022 -->
<g id="node23" class="node">
<title>node0022</title>
<ellipse fill="none" stroke="black" cx="1386" cy="-36" rx="36" ry="36"/>
<text text-anchor="middle" x="1386" y="-32.12" font-family="Times New Roman,serif" font-size="10.00">Class_2424</text>
</g>
<!-- node0022&#45;&gt;node0006 -->
<g id="edge22" class="edge">
<title>node0022&#45;&gt;node0006</title>
<path fill="none" stroke="black" d="M1413.05,-60.45C1418.73,-64.68 1424.87,-68.76 1431,-72 1549.27,-134.5 1709.41,-152.37 1788.19,-157.47"/>
<polygon fill="black" stroke="black" points="1787.96,-160.96 1798.16,-158.07 1788.38,-153.97 1787.96,-160.96"/>
<text text-anchor="middle" x="1512.54" y="-93.2" font-family="Times New Roman,serif" font-size="14.00">is a</text>
</g>
<!-- node0023 -->
<g id="node24" class="node">
<title>node0023</title>
<ellipse fill="none" stroke="black" cx="1476" cy="-36" rx="36" ry="36"/>
<text text-anchor="middle" x="1476" y="-32.5" font-family="Times New Roman,serif" font-size="10.00">Class_2424&#45;救助</text>
</g>
<!-- node0023&#45;&gt;node0006 -->
<g id="edge23" class="edge">
<title>node0023&#45;&gt;node0006</title>
<path fill="none" stroke="black" d="M1503.08,-60.39C1508.77,-64.62 1514.9,-68.72 1521,-72 1609.01,-119.31 1724.94,-142.93 1788.77,-153.07"/>
<polygon fill="black" stroke="black" points="1788.15,-156.52 1798.56,-154.58 1789.21,-149.6 1788.15,-156.52"/>
<text text-anchor="middle" x="1603.79" y="-93.2" font-family="Times New Roman,serif" font-size="14.00">is a</text>
</g>
<!-- node0024 -->
<g id="node25" class="node">
<title>node0024</title>
<ellipse fill="none" stroke="black" cx="1566" cy="-36" rx="36" ry="36"/>
<text text-anchor="middle" x="1566" y="-32.5" font-family="Times New Roman,serif" font-size="10.00">Class_2424&#45;物资</text>
</g>
<!-- node0024&#45;&gt;node0006 -->
<g id="edge24" class="edge">
<title>node0024&#45;&gt;node0006</title>
<path fill="none" stroke="black" d="M1593.2,-60.17C1598.88,-64.42 1604.97,-68.58 1611,-72 1669.77,-105.34 1743.75,-131.38 1790.47,-146.11"/>
<polygon fill="black" stroke="black" points="1789.42,-149.44 1800,-149.06 1791.49,-142.76 1789.42,-149.44"/>
<text text-anchor="middle" x="1685.73" y="-93.2" font-family="Times New Roman,serif" font-size="14.00">is a</text>
</g>
<!-- node0025 -->
<g id="node26" class="node">
<title>node0025</title>
<ellipse fill="none" stroke="black" cx="1656" cy="-36" rx="36" ry="36"/>
<text text-anchor="middle" x="1656" y="-32.5" font-family="Times New Roman,serif" font-size="10.00">Class_2424&#45;人员</text>
</g>
<!-- node0025&#45;&gt;node0006 -->
<g id="edge25" class="edge">
<title>node0025&#45;&gt;node0006</title>
<path fill="none" stroke="black" d="M1683.8,-59.22C1689.43,-63.55 1695.35,-67.99 1701,-72 1732.22,-94.2 1768.74,-117.73 1795.92,-134.79"/>
<polygon fill="black" stroke="black" points="1793.86,-137.63 1804.2,-139.96 1797.57,-131.7 1793.86,-137.63"/>
<text text-anchor="middle" x="1757.9" y="-93.2" font-family="Times New Roman,serif" font-size="14.00">is a</text>
</g>
<!-- node0026 -->
<g id="node27" class="node">
<title>node0026</title>
<ellipse fill="none" stroke="black" cx="1746" cy="-36" rx="36" ry="36"/>
<text text-anchor="middle" x="1746" y="-32.12" font-family="Times New Roman,serif" font-size="10.00">Class_666</text>
</g>
<!-- node0026&#45;&gt;node0006 -->
<g id="edge26" class="edge">
<title>node0026&#45;&gt;node0006</title>
<path fill="none" stroke="black" d="M1767.1,-65.72C1779.4,-82.46 1795.06,-103.77 1808.33,-121.84"/>
<polygon fill="black" stroke="black" points="1805.39,-123.75 1814.14,-129.74 1811.03,-119.61 1805.39,-123.75"/>
<text text-anchor="middle" x="1805.76" y="-93.2" font-family="Times New Roman,serif" font-size="14.00">is a</text>
</g>
<!-- node0027 -->
<g id="node28" class="node">
<title>node0027</title>
<ellipse fill="none" stroke="black" cx="1836" cy="-36" rx="36" ry="36"/>
<text text-anchor="middle" x="1836" y="-32.5" font-family="Times New Roman,serif" font-size="10.00">Class_666&#45;救助</text>
</g>
<!-- node0027&#45;&gt;node0006 -->
<g id="edge27" class="edge">
<title>node0027&#45;&gt;node0006</title>
<path fill="none" stroke="black" d="M1836,-72.43C1836,-85 1836,-99.35 1836,-112.72"/>
<polygon fill="black" stroke="black" points="1832.5,-112.63 1836,-122.63 1839.5,-112.63 1832.5,-112.63"/>
<text text-anchor="middle" x="1845.38" y="-93.2" font-family="Times New Roman,serif" font-size="14.00">is a</text>
</g>
<!-- node0028 -->
<g id="node29" class="node">
<title>node0028</title>
<ellipse fill="none" stroke="black" cx="1926" cy="-36" rx="36" ry="36"/>
<text text-anchor="middle" x="1926" y="-32.5" font-family="Times New Roman,serif" font-size="10.00">Class_666&#45;物资</text>
</g>
<!-- node0028&#45;&gt;node0006 -->
<g id="edge28" class="edge">
<title>node0028&#45;&gt;node0006</title>
<path fill="none" stroke="black" d="M1904.9,-65.72C1892.6,-82.46 1876.94,-103.77 1863.67,-121.84"/>
<polygon fill="black" stroke="black" points="1860.97,-119.61 1857.86,-129.74 1866.61,-123.75 1860.97,-119.61"/>
<text text-anchor="middle" x="1895.76" y="-93.2" font-family="Times New Roman,serif" font-size="14.00">is a</text>
</g>
<!-- node0029 -->
<g id="node30" class="node">
<title>node0029</title>
<ellipse fill="none" stroke="black" cx="2016" cy="-36" rx="36" ry="36"/>
<text text-anchor="middle" x="2016" y="-32.5" font-family="Times New Roman,serif" font-size="10.00">Class_666&#45;车辆</text>
</g>
<!-- node0029&#45;&gt;node0006 -->
<g id="edge29" class="edge">
<title>node0029&#45;&gt;node0006</title>
<path fill="none" stroke="black" d="M1988.2,-59.22C1982.57,-63.55 1976.65,-67.99 1971,-72 1939.78,-94.2 1903.26,-117.73 1876.08,-134.79"/>
<polygon fill="black" stroke="black" points="1874.43,-131.7 1867.8,-139.96 1878.14,-137.63 1874.43,-131.7"/>
<text text-anchor="middle" x="1951.38" y="-93.2" font-family="Times New Roman,serif" font-size="14.00">is a</text>
</g>
<!-- node0030 -->
<g id="node31" class="node">
<title>node0030</title>
<ellipse fill="none" stroke="black" cx="2106" cy="-36" rx="36" ry="36"/>
<text text-anchor="middle" x="2106" y="-32.12" font-family="Times New Roman,serif" font-size="10.00">Class_36</text>
</g>
<!-- node0030&#45;&gt;node0006 -->
<g id="edge30" class="edge">
<title>node0030&#45;&gt;node0006</title>
<path fill="none" stroke="black" d="M2078.8,-60.17C2073.12,-64.42 2067.03,-68.58 2061,-72 2002.23,-105.34 1928.25,-131.38 1881.53,-146.11"/>
<polygon fill="black" stroke="black" points="1880.51,-142.76 1872,-149.06 1882.58,-149.44 1880.51,-142.76"/>
<text text-anchor="middle" x="2035.41" y="-93.2" font-family="Times New Roman,serif" font-size="14.00">is a</text>
</g>
<!-- node0031 -->
<g id="node32" class="node">
<title>node0031</title>
<ellipse fill="none" stroke="black" cx="2196" cy="-36" rx="36" ry="36"/>
<text text-anchor="middle" x="2196" y="-32.5" font-family="Times New Roman,serif" font-size="10.00">Class_36&#45;车辆</text>
</g>
<!-- node0031&#45;&gt;node0006 -->
<g id="edge31" class="edge">
<title>node0031&#45;&gt;node0006</title>
<path fill="none" stroke="black" d="M2168.92,-60.38C2163.23,-64.61 2157.1,-68.72 2151,-72 2063.01,-119.34 1947.08,-142.95 1883.24,-153.08"/>
<polygon fill="black" stroke="black" points="1882.79,-149.61 1873.44,-154.59 1883.86,-156.53 1882.79,-149.61"/>
<text text-anchor="middle" x="2120.46" y="-93.2" font-family="Times New Roman,serif" font-size="14.00">is a</text>
</g>
<!-- node0032 -->
<g id="node33" class="node">
<title>node0032</title>
<ellipse fill="none" stroke="black" cx="2286" cy="-36" rx="36" ry="36"/>
<text text-anchor="middle" x="2286" y="-32.5" font-family="Times New Roman,serif" font-size="10.00">Class_36&#45;救助</text>
</g>
<!-- node0032&#45;&gt;node0006 -->
<g id="edge32" class="edge">
<title>node0032&#45;&gt;node0006</title>
<path fill="none" stroke="black" d="M2258.95,-60.45C2253.26,-64.68 2247.12,-68.76 2241,-72 2122.75,-134.54 1962.6,-152.39 1883.81,-157.48"/>
<polygon fill="black" stroke="black" points="1883.62,-153.98 1873.85,-158.07 1884.04,-160.97 1883.62,-153.98"/>
<text text-anchor="middle" x="2209.95" y="-93.2" font-family="Times New Roman,serif" font-size="14.00">is a</text>
</g>
<!-- node0033 -->
<g id="node34" class="node">
<title>node0033</title>
<ellipse fill="none" stroke="black" cx="2376" cy="-36" rx="36" ry="36"/>
<text text-anchor="middle" x="2376" y="-32.5" font-family="Times New Roman,serif" font-size="10.00">Class_36&#45;人员</text>
</g>
<!-- node0033&#45;&gt;node0006 -->
<g id="edge33" class="edge">
<title>node0033&#45;&gt;node0006</title>
<path fill="none" stroke="black" d="M2348.96,-60.46C2343.27,-64.69 2337.13,-68.77 2331,-72 2286.42,-95.5 2272.15,-95.37 2223,-106.5 2102.14,-133.86 1956.65,-149.17 1883.26,-155.68"/>
<polygon fill="black" stroke="black" points="1883.29,-152.17 1873.63,-156.52 1883.89,-159.14 1883.29,-152.17"/>
<text text-anchor="middle" x="2299.11" y="-93.2" font-family="Times New Roman,serif" font-size="14.00">is a</text>
</g>
<!-- node0034 -->
<g id="node35" class="node">
<title>node0034</title>
<ellipse fill="none" stroke="black" cx="2466" cy="-36" rx="36" ry="36"/>
<text text-anchor="middle" x="2466" y="-32.5" font-family="Times New Roman,serif" font-size="10.00">Class_36&#45;抢修</text>
</g>
<!-- node0034&#45;&gt;node0006 -->
<g id="edge34" class="edge">
<title>node0034&#45;&gt;node0006</title>
<path fill="none" stroke="black" d="M2438.97,-60.48C2433.28,-64.7 2427.13,-68.78 2421,-72 2376.02,-95.64 2361.71,-95.97 2312,-106.5 2157.4,-139.24 1969.99,-152.58 1883.7,-157.28"/>
<polygon fill="black" stroke="black" points="1883.52,-153.78 1873.72,-157.81 1883.89,-160.77 1883.52,-153.78"/>
<text text-anchor="middle" x="2390.64" y="-93.2" font-family="Times New Roman,serif" font-size="14.00">is a</text>
</g>
<!-- node0035 -->
<g id="node36" class="node">
<title>node0035</title>
<ellipse fill="none" stroke="black" cx="2556" cy="-36" rx="36" ry="36"/>
<text text-anchor="middle" x="2556" y="-32.12" font-family="Times New Roman,serif" font-size="10.00">Class_555</text>
</g>
<!-- node0035&#45;&gt;node0006 -->
<g id="edge35" class="edge">
<title>node0035&#45;&gt;node0006</title>
<path fill="none" stroke="black" d="M2528.95,-60.45C2523.26,-64.68 2517.12,-68.76 2511,-72 2466.83,-95.36 2452.95,-96.45 2404,-106.5 2213.82,-145.54 1981.84,-155.87 1883.59,-158.56"/>
<polygon fill="black" stroke="black" points="1883.71,-155.06 1873.8,-158.82 1883.89,-162.06 1883.71,-155.06"/>
<text text-anchor="middle" x="2481.4" y="-93.2" font-family="Times New Roman,serif" font-size="14.00">is a</text>
</g>
<!-- node0036 -->
<g id="node37" class="node">
<title>node0036</title>
<ellipse fill="none" stroke="black" cx="2646" cy="-36" rx="36" ry="36"/>
<text text-anchor="middle" x="2646" y="-32.12" font-family="Times New Roman,serif" font-size="10.00">Class_53636</text>
</g>
<!-- node0036&#45;&gt;node0006 -->
<g id="edge36" class="edge">
<title>node0036&#45;&gt;node0006</title>
<path fill="none" stroke="black" d="M2618.95,-60.44C2613.26,-64.66 2607.12,-68.75 2601,-72 2557.24,-95.22 2543.58,-96.78 2495,-106.5 2269.4,-151.63 1993.07,-158.58 1883.76,-159.47"/>
<polygon fill="black" stroke="black" points="1883.98,-155.97 1874,-159.54 1884.02,-162.97 1883.98,-155.97"/>
<text text-anchor="middle" x="2571.78" y="-93.2" font-family="Times New Roman,serif" font-size="14.00">is a</text>
</g>
<!-- node0037 -->
<g id="node38" class="node">
<title>node0037</title>
<ellipse fill="none" stroke="black" cx="2736" cy="-36" rx="36" ry="36"/>
<text text-anchor="middle" x="2736" y="-32.5" font-family="Times New Roman,serif" font-size="10.00">Class_53636&#45;人员</text>
</g>
<!-- node0037&#45;&gt;node0006 -->
<g id="edge37" class="edge">
<title>node0037&#45;&gt;node0006</title>
<path fill="none" stroke="black" d="M2708.95,-60.44C2703.26,-64.66 2697.12,-68.75 2691,-72 2647.24,-95.22 2633.63,-97.01 2585,-106.5 2323.73,-157.47 2002.71,-160.85 1883.5,-160.13"/>
<polygon fill="black" stroke="black" points="1883.81,-156.63 1873.78,-160.06 1883.76,-163.63 1883.81,-156.63"/>
<text text-anchor="middle" x="2661.79" y="-93.2" font-family="Times New Roman,serif" font-size="14.00">is a</text>
</g>
<!-- node0038 -->
<g id="node39" class="node">
<title>node0038</title>
<ellipse fill="none" stroke="black" cx="2826" cy="-36" rx="36" ry="36"/>
<text text-anchor="middle" x="2826" y="-32.5" font-family="Times New Roman,serif" font-size="10.00">Class_53636&#45;救助</text>
</g>
<!-- node0038&#45;&gt;node0006 -->
<g id="edge38" class="edge">
<title>node0038&#45;&gt;node0006</title>
<path fill="none" stroke="black" d="M2798.95,-60.44C2793.26,-64.66 2787.12,-68.75 2781,-72 2737.24,-95.22 2723.66,-97.2 2675,-106.5 2521.49,-135.84 2037.61,-153.18 1883.58,-158.07"/>
<polygon fill="black" stroke="black" points="1883.63,-154.56 1873.74,-158.38 1883.85,-161.56 1883.63,-154.56"/>
<text text-anchor="middle" x="2751.8" y="-93.2" font-family="Times New Roman,serif" font-size="14.00">is a</text>
</g>
<!-- node0039 -->
<g id="node40" class="node">
<title>node0039</title>
<ellipse fill="none" stroke="black" cx="2916" cy="-36" rx="36" ry="36"/>
<text text-anchor="middle" x="2916" y="-32.5" font-family="Times New Roman,serif" font-size="10.00">Class_53636&#45;牵引</text>
</g>
<!-- node0039&#45;&gt;node0006 -->
<g id="edge39" class="edge">
<title>node0039&#45;&gt;node0006</title>
<path fill="none" stroke="black" d="M2888.95,-60.44C2883.26,-64.66 2877.12,-68.75 2871,-72 2827.24,-95.22 2813.69,-97.35 2765,-106.5 2593.19,-138.8 2047.88,-154.37 1883.41,-158.41"/>
<polygon fill="black" stroke="black" points="1883.66,-154.9 1873.75,-158.64 1883.83,-161.9 1883.66,-154.9"/>
<text text-anchor="middle" x="2841.81" y="-93.2" font-family="Times New Roman,serif" font-size="14.00">is a</text>
</g>
<!-- node0040 -->
<g id="node41" class="node">
<title>node0040</title>
<ellipse fill="none" stroke="black" cx="3006" cy="-36" rx="36" ry="36"/>
<text text-anchor="middle" x="3006" y="-32.12" font-family="Times New Roman,serif" font-size="10.00">Class_32235235</text>
</g>
<!-- node0040&#45;&gt;node0006 -->
<g id="edge40" class="edge">
<title>node0040&#45;&gt;node0006</title>
<path fill="none" stroke="black" d="M2978.95,-60.44C2973.26,-64.66 2967.12,-68.75 2961,-72 2917.24,-95.22 2903.71,-97.47 2855,-106.5 2664.94,-141.74 2058.39,-155.41 1883.57,-158.68"/>
<polygon fill="black" stroke="black" points="1883.67,-155.18 1873.73,-158.86 1883.79,-162.18 1883.67,-155.18"/>
<text text-anchor="middle" x="2931.81" y="-93.2" font-family="Times New Roman,serif" font-size="14.00">is a</text>
</g>
<!-- node0041 -->
<g id="node42" class="node">
<title>node0041</title>
<ellipse fill="none" stroke="black" cx="3096" cy="-36" rx="36" ry="36"/>
<text text-anchor="middle" x="3096" y="-38.12" font-family="Times New Roman,serif" font-size="10.00">Class_32235235&#45;人</text>
<text text-anchor="middle" x="3096" y="-26.12" font-family="Times New Roman,serif" font-size="10.00">员</text>
</g>
<!-- node0041&#45;&gt;node0006 -->
<g id="edge41" class="edge">
<title>node0041&#45;&gt;node0006</title>
<path fill="none" stroke="black" d="M3068.95,-60.44C3063.26,-64.66 3057.12,-68.75 3051,-72 3007.24,-95.22 2993.73,-97.57 2945,-106.5 2736.63,-144.68 2068.54,-156.37 1883.76,-158.91"/>
<polygon fill="black" stroke="black" points="1883.76,-155.41 1873.81,-159.04 1883.85,-162.41 1883.76,-155.41"/>
<text text-anchor="middle" x="3021.82" y="-93.2" font-family="Times New Roman,serif" font-size="14.00">is a</text>
</g>
<!-- node0042 -->
<g id="node43" class="node">
<title>node0042</title>
<ellipse fill="none" stroke="black" cx="3186" cy="-36" rx="36" ry="36"/>
<text text-anchor="middle" x="3186" y="-38.12" font-family="Times New Roman,serif" font-size="10.00">Class_32235235&#45;救</text>
<text text-anchor="middle" x="3186" y="-26.12" font-family="Times New Roman,serif" font-size="10.00">助</text>
</g>
<!-- node0042&#45;&gt;node0006 -->
<g id="edge42" class="edge">
<title>node0042&#45;&gt;node0006</title>
<path fill="none" stroke="black" d="M3158.95,-60.44C3153.26,-64.66 3147.12,-68.75 3141,-72 3097.24,-95.22 3083.75,-97.66 3035,-106.5 2808.21,-147.63 2077.89,-157.25 1883.76,-159.11"/>
<polygon fill="black" stroke="black" points="1883.76,-155.61 1873.8,-159.2 1883.83,-162.61 1883.76,-155.61"/>
<text text-anchor="middle" x="3111.82" y="-93.2" font-family="Times New Roman,serif" font-size="14.00">is a</text>
</g>
</g>
</svg>
