<?xml version="1.0" encoding="UTF-8" standalone="no"?>
<!DOCTYPE svg PUBLIC "-//W3C//DTD SVG 1.1//EN"
 "http://www.w3.org/Graphics/SVG/1.1/DTD/svg11.dtd">
<!-- Generated by graphviz version 12.1.2 (20240928.0832)
 -->
<!-- Pages: 1 -->
<svg width="695pt" height="939pt"
 viewBox="0.00 0.00 695.20 939.20" xmlns="http://www.w3.org/2000/svg" xmlns:xlink="http://www.w3.org/1999/xlink">
<g id="graph0" class="graph" transform="scale(1 1) rotate(0) translate(3.6 935.6)">
<polygon fill="white" stroke="none" points="-3.6,3.6 -3.6,-935.6 691.6,-935.6 691.6,3.6 -3.6,3.6"/>
<!-- casualties -->
<g id="node1" class="node">
<title>casualties</title>
<polygon fill="none" stroke="#3b82f6" points="38,-558 38,-580 242,-580 242,-558 38,-558"/>
<text text-anchor="start" x="117.88" y="-565.5" font-family="Arial" font-size="10.00">casualties</text>
<polygon fill="none" stroke="#3b82f6" points="38,-538 38,-558 106,-558 106,-538 38,-538"/>
<text text-anchor="start" x="41.62" y="-544.7" font-family="Arial" font-size="9.00">No_Casualties</text>
<polygon fill="white" stroke="none" points="106,-538 106,-558 198,-558 198,-538 106,-538"/>
<polygon fill="none" stroke="#3b82f6" points="106,-538 106,-558 198,-558 198,-538 106,-538"/>
<polygon fill="#f3f4f6" stroke="none" points="110,-542 110,-554 194,-554 194,-542 110,-542"/>
<polygon fill="#f3f4f6" stroke="none" points="112,-544 112,-552 192,-552 192,-544 112,-544"/>
<polygon fill="none" stroke="#3b82f6" points="198,-538 198,-558 242,-558 242,-538 198,-538"/>
<text text-anchor="start" x="211.75" y="-544.7" font-family="Arial" font-size="9.00">0.00%</text>
<polygon fill="none" stroke="#3b82f6" points="38,-518 38,-538 106,-538 106,-518 38,-518"/>
<text text-anchor="start" x="58.5" y="-524.7" font-family="Arial" font-size="9.00">Casualties</text>
<polygon fill="white" stroke="none" points="106,-518 106,-538 198,-538 198,-518 106,-518"/>
<polygon fill="none" stroke="#3b82f6" points="106,-518 106,-538 198,-538 198,-518 106,-518"/>
<polygon fill="#f3f4f6" stroke="none" points="110,-522 110,-534 194,-534 194,-522 110,-522"/>
<polygon fill="#4ade80" stroke="none" points="112,-524 112,-532 192,-532 192,-524 112,-524"/>
<polygon fill="none" stroke="#3b82f6" points="198,-518 198,-538 242,-538 242,-518 198,-518"/>
<text text-anchor="start" x="201.62" y="-524.7" font-family="Arial" font-size="9.00">100.00%</text>
</g>
<!-- RecoveryCapacity -->
<g id="node14" class="node">
<title>RecoveryCapacity</title>
<polygon fill="none" stroke="black" points="294,-376 294,-398 484,-398 484,-376 294,-376"/>
<text text-anchor="start" x="348.5" y="-383.5" font-family="Arial" font-size="10.00">RecoveryCapacity</text>
<polygon fill="none" stroke="black" points="294,-356 294,-376 354,-376 354,-356 294,-356"/>
<text text-anchor="start" x="327.5" y="-362.7" font-family="Arial" font-size="9.00">Good</text>
<polygon fill="white" stroke="none" points="354,-356 354,-376 445,-376 445,-356 354,-356"/>
<polygon fill="none" stroke="black" points="354,-356 354,-376 445,-376 445,-356 354,-356"/>
<polygon fill="#f3f4f6" stroke="none" points="358,-360 358,-372 441,-372 441,-360 358,-360"/>
<polygon fill="#4ade80" stroke="none" points="360,-362 360,-370 409,-370 409,-362 360,-362"/>
<polygon fill="#f3f4f6" stroke="none" points="409,-362 409,-370 439,-370 439,-362 409,-362"/>
<polygon fill="none" stroke="black" points="445,-356 445,-376 484,-376 484,-356 445,-356"/>
<text text-anchor="start" x="448.75" y="-362.7" font-family="Arial" font-size="9.00">62.03%</text>
<polygon fill="none" stroke="black" points="294,-336 294,-356 354,-356 354,-336 294,-336"/>
<text text-anchor="start" x="333.5" y="-342.7" font-family="Arial" font-size="9.00">Bad</text>
<polygon fill="white" stroke="none" points="354,-336 354,-356 445,-356 445,-336 354,-336"/>
<polygon fill="none" stroke="black" points="354,-336 354,-356 445,-356 445,-336 354,-336"/>
<polygon fill="#f3f4f6" stroke="none" points="358,-340 358,-352 441,-352 441,-340 358,-340"/>
<polygon fill="#4ade80" stroke="none" points="360,-342 360,-350 390,-350 390,-342 360,-342"/>
<polygon fill="#f3f4f6" stroke="none" points="390,-342 390,-350 439,-350 439,-342 390,-342"/>
<polygon fill="none" stroke="black" points="445,-336 445,-356 484,-356 484,-336 445,-336"/>
<text text-anchor="start" x="448.75" y="-342.7" font-family="Arial" font-size="9.00">37.97%</text>
</g>
<!-- casualties&#45;&gt;RecoveryCapacity -->
<g id="edge3" class="edge">
<title>casualties&#45;&gt;RecoveryCapacity</title>
<path fill="none" stroke="#64748b" stroke-width="0.8" d="M241.72,-549C322.05,-549 420.67,-549 420.67,-549 420.67,-549 420.67,-409.08 420.67,-409.08"/>
<polygon fill="#64748b" stroke="#64748b" stroke-width="0.8" points="424.17,-409.08 420.67,-399.08 417.17,-409.08 424.17,-409.08"/>
</g>
<!-- emergencyType -->
<g id="node2" class="node">
<title>emergencyType</title>
<polygon fill="none" stroke="black" points="0,-764 0,-786 280,-786 280,-764 0,-764"/>
<text text-anchor="start" x="105.5" y="-771.5" font-family="Arial" font-size="10.00">emergencyType</text>
<polygon fill="none" stroke="black" points="0,-744 0,-764 150,-764 150,-744 0,-744"/>
<text text-anchor="start" x="54.5" y="-750.7" font-family="Arial" font-size="9.00">Vehicle_Self_Accident</text>
<polygon fill="white" stroke="none" points="150,-744 150,-764 241,-764 241,-744 150,-744"/>
<polygon fill="none" stroke="black" points="150,-744 150,-764 241,-764 241,-744 150,-744"/>
<polygon fill="#f3f4f6" stroke="none" points="154,-748 154,-760 237,-760 237,-748 154,-748"/>
<polygon fill="#4ade80" stroke="none" points="156,-750 156,-758 185,-758 185,-750 156,-750"/>
<polygon fill="#f3f4f6" stroke="none" points="185,-750 185,-758 235,-758 235,-750 185,-750"/>
<polygon fill="none" stroke="black" points="241,-744 241,-764 280,-764 280,-744 241,-744"/>
<text text-anchor="start" x="244.75" y="-750.7" font-family="Arial" font-size="9.00">36.42%</text>
<polygon fill="none" stroke="black" points="0,-724 0,-744 150,-744 150,-724 0,-724"/>
<text text-anchor="start" x="3.75" y="-730.7" font-family="Arial" font-size="9.00">Vehicle_to_Fixed_Object_Accident</text>
<polygon fill="white" stroke="none" points="150,-724 150,-744 241,-744 241,-724 150,-724"/>
<polygon fill="none" stroke="black" points="150,-724 150,-744 241,-744 241,-724 150,-724"/>
<polygon fill="#f3f4f6" stroke="none" points="154,-728 154,-740 237,-740 237,-728 154,-728"/>
<polygon fill="#4ade80" stroke="none" points="156,-730 156,-738 181,-738 181,-730 156,-730"/>
<polygon fill="#f3f4f6" stroke="none" points="181,-730 181,-738 235,-738 235,-730 181,-730"/>
<polygon fill="none" stroke="black" points="241,-724 241,-744 280,-744 280,-724 241,-724"/>
<text text-anchor="start" x="244.75" y="-730.7" font-family="Arial" font-size="9.00">32.39%</text>
<polygon fill="none" stroke="black" points="0,-704 0,-724 150,-724 150,-704 0,-704"/>
<text text-anchor="start" x="69.5" y="-710.7" font-family="Arial" font-size="9.00">Collision_Accident</text>
<polygon fill="white" stroke="none" points="150,-704 150,-724 241,-724 241,-704 150,-704"/>
<polygon fill="none" stroke="black" points="150,-704 150,-724 241,-724 241,-704 150,-704"/>
<polygon fill="#f3f4f6" stroke="none" points="154,-708 154,-720 237,-720 237,-708 154,-708"/>
<polygon fill="#4ade80" stroke="none" points="156,-710 156,-718 180,-718 180,-710 156,-710"/>
<polygon fill="#f3f4f6" stroke="none" points="180,-710 180,-718 235,-718 235,-710 180,-710"/>
<polygon fill="none" stroke="black" points="241,-704 241,-724 280,-724 280,-704 241,-704"/>
<text text-anchor="start" x="244.75" y="-710.7" font-family="Arial" font-size="9.00">31.19%</text>
</g>
<!-- AdaptionCapacity -->
<g id="node13" class="node">
<title>AdaptionCapacity</title>
<polygon fill="none" stroke="black" points="294,-703 294,-725 484,-725 484,-703 294,-703"/>
<text text-anchor="start" x="350.38" y="-710.5" font-family="Arial" font-size="10.00">AdaptionCapacity</text>
<polygon fill="none" stroke="black" points="294,-683 294,-703 354,-703 354,-683 294,-683"/>
<text text-anchor="start" x="327.5" y="-689.7" font-family="Arial" font-size="9.00">Good</text>
<polygon fill="white" stroke="none" points="354,-683 354,-703 445,-703 445,-683 354,-683"/>
<polygon fill="none" stroke="black" points="354,-683 354,-703 445,-703 445,-683 354,-683"/>
<polygon fill="#f3f4f6" stroke="none" points="358,-687 358,-699 441,-699 441,-687 358,-687"/>
<polygon fill="#4ade80" stroke="none" points="360,-689 360,-697 408,-697 408,-689 360,-689"/>
<polygon fill="#f3f4f6" stroke="none" points="408,-689 408,-697 439,-697 439,-689 408,-689"/>
<polygon fill="none" stroke="black" points="445,-683 445,-703 484,-703 484,-683 445,-683"/>
<text text-anchor="start" x="448.75" y="-689.7" font-family="Arial" font-size="9.00">60.04%</text>
<polygon fill="none" stroke="black" points="294,-663 294,-683 354,-683 354,-663 294,-663"/>
<text text-anchor="start" x="333.5" y="-669.7" font-family="Arial" font-size="9.00">Bad</text>
<polygon fill="white" stroke="none" points="354,-663 354,-683 445,-683 445,-663 354,-663"/>
<polygon fill="none" stroke="black" points="354,-663 354,-683 445,-683 445,-663 354,-663"/>
<polygon fill="#f3f4f6" stroke="none" points="358,-667 358,-679 441,-679 441,-667 358,-667"/>
<polygon fill="#4ade80" stroke="none" points="360,-669 360,-677 391,-677 391,-669 360,-669"/>
<polygon fill="#f3f4f6" stroke="none" points="391,-669 391,-677 439,-677 439,-669 391,-669"/>
<polygon fill="none" stroke="black" points="445,-663 445,-683 484,-683 484,-663 445,-663"/>
<text text-anchor="start" x="448.75" y="-669.7" font-family="Arial" font-size="9.00">39.96%</text>
</g>
<!-- emergencyType&#45;&gt;AdaptionCapacity -->
<g id="edge14" class="edge">
<title>emergencyType&#45;&gt;AdaptionCapacity</title>
<path fill="none" stroke="#64748b" stroke-width="0.8" d="M279.78,-714.5C279.78,-714.5 283.08,-714.5 283.08,-714.5"/>
<polygon fill="#64748b" stroke="#64748b" stroke-width="0.8" points="283.08,-718 293.08,-714.5 283.08,-711 283.08,-718"/>
</g>
<!-- roadPassibility -->
<g id="node3" class="node">
<title>roadPassibility</title>
<polygon fill="none" stroke="#3b82f6" points="42,-910 42,-932 238,-932 238,-910 42,-910"/>
<text text-anchor="start" x="108.12" y="-917.5" font-family="Arial" font-size="10.00">roadPassibility</text>
<polygon fill="none" stroke="#3b82f6" points="42,-890 42,-910 102,-910 102,-890 42,-890"/>
<text text-anchor="start" x="50.75" y="-896.7" font-family="Arial" font-size="9.00">Impassable</text>
<polygon fill="white" stroke="none" points="102,-890 102,-910 194,-910 194,-890 102,-890"/>
<polygon fill="none" stroke="#3b82f6" points="102,-890 102,-910 194,-910 194,-890 102,-890"/>
<polygon fill="#f3f4f6" stroke="none" points="106,-894 106,-906 190,-906 190,-894 106,-894"/>
<polygon fill="#4ade80" stroke="none" points="108,-896 108,-904 188,-904 188,-896 108,-896"/>
<polygon fill="none" stroke="#3b82f6" points="194,-890 194,-910 238,-910 238,-890 194,-890"/>
<text text-anchor="start" x="197.62" y="-896.7" font-family="Arial" font-size="9.00">100.00%</text>
<polygon fill="none" stroke="#3b82f6" points="42,-870 42,-890 102,-890 102,-870 42,-870"/>
<text text-anchor="start" x="59.75" y="-876.7" font-family="Arial" font-size="9.00">Passable</text>
<polygon fill="white" stroke="none" points="102,-870 102,-890 194,-890 194,-870 102,-870"/>
<polygon fill="none" stroke="#3b82f6" points="102,-870 102,-890 194,-890 194,-870 102,-870"/>
<polygon fill="#f3f4f6" stroke="none" points="106,-874 106,-886 190,-886 190,-874 106,-874"/>
<polygon fill="#f3f4f6" stroke="none" points="108,-876 108,-884 188,-884 188,-876 108,-876"/>
<polygon fill="none" stroke="#3b82f6" points="194,-870 194,-890 238,-890 238,-870 194,-870"/>
<text text-anchor="start" x="207.75" y="-876.7" font-family="Arial" font-size="9.00">0.00%</text>
</g>
<!-- AbsorptionCapacity -->
<g id="node12" class="node">
<title>AbsorptionCapacity</title>
<polygon fill="none" stroke="black" points="294,-837 294,-859 484,-859 484,-837 294,-837"/>
<text text-anchor="start" x="346.25" y="-844.5" font-family="Arial" font-size="10.00">AbsorptionCapacity</text>
<polygon fill="none" stroke="black" points="294,-817 294,-837 354,-837 354,-817 294,-817"/>
<text text-anchor="start" x="327.5" y="-823.7" font-family="Arial" font-size="9.00">Good</text>
<polygon fill="white" stroke="none" points="354,-817 354,-837 445,-837 445,-817 354,-817"/>
<polygon fill="none" stroke="black" points="354,-817 354,-837 445,-837 445,-817 354,-817"/>
<polygon fill="#f3f4f6" stroke="none" points="358,-821 358,-833 441,-833 441,-821 358,-821"/>
<polygon fill="#4ade80" stroke="none" points="360,-823 360,-831 412,-831 412,-823 360,-823"/>
<polygon fill="#f3f4f6" stroke="none" points="412,-823 412,-831 439,-831 439,-823 412,-823"/>
<polygon fill="none" stroke="black" points="445,-817 445,-837 484,-837 484,-817 445,-817"/>
<text text-anchor="start" x="448.75" y="-823.7" font-family="Arial" font-size="9.00">65.55%</text>
<polygon fill="none" stroke="black" points="294,-797 294,-817 354,-817 354,-797 294,-797"/>
<text text-anchor="start" x="333.5" y="-803.7" font-family="Arial" font-size="9.00">Bad</text>
<polygon fill="white" stroke="none" points="354,-797 354,-817 445,-817 445,-797 354,-797"/>
<polygon fill="none" stroke="black" points="354,-797 354,-817 445,-817 445,-797 354,-797"/>
<polygon fill="#f3f4f6" stroke="none" points="358,-801 358,-813 441,-813 441,-801 358,-801"/>
<polygon fill="#4ade80" stroke="none" points="360,-803 360,-811 387,-811 387,-803 360,-803"/>
<polygon fill="#f3f4f6" stroke="none" points="387,-803 387,-811 439,-811 439,-803 387,-803"/>
<polygon fill="none" stroke="black" points="445,-797 445,-817 484,-817 484,-797 445,-797"/>
<text text-anchor="start" x="448.75" y="-803.7" font-family="Arial" font-size="9.00">34.45%</text>
</g>
<!-- roadPassibility&#45;&gt;AbsorptionCapacity -->
<g id="edge4" class="edge">
<title>roadPassibility&#45;&gt;AbsorptionCapacity</title>
<path fill="none" stroke="#64748b" stroke-width="0.8" d="M237.7,-901C307.46,-901 389,-901 389,-901 389,-901 389,-870.17 389,-870.17"/>
<polygon fill="#64748b" stroke="#64748b" stroke-width="0.8" points="392.5,-870.17 389,-860.17 385.5,-870.17 392.5,-870.17"/>
</g>
<!-- roadLoss -->
<g id="node4" class="node">
<title>roadLoss</title>
<polygon fill="none" stroke="#3b82f6" points="42,-837 42,-859 238,-859 238,-837 42,-837"/>
<text text-anchor="start" x="120.12" y="-844.5" font-family="Arial" font-size="10.00">roadLoss</text>
<polygon fill="none" stroke="#3b82f6" points="42,-817 42,-837 102,-837 102,-817 42,-817"/>
<text text-anchor="start" x="59" y="-823.7" font-family="Arial" font-size="9.00">Not_Loss</text>
<polygon fill="white" stroke="none" points="102,-817 102,-837 194,-837 194,-817 102,-817"/>
<polygon fill="none" stroke="#3b82f6" points="102,-817 102,-837 194,-837 194,-817 102,-817"/>
<polygon fill="#f3f4f6" stroke="none" points="106,-821 106,-833 190,-833 190,-821 106,-821"/>
<polygon fill="#4ade80" stroke="none" points="108,-823 108,-831 188,-831 188,-823 108,-823"/>
<polygon fill="none" stroke="#3b82f6" points="194,-817 194,-837 238,-837 238,-817 194,-817"/>
<text text-anchor="start" x="197.62" y="-823.7" font-family="Arial" font-size="9.00">100.00%</text>
<polygon fill="none" stroke="#3b82f6" points="42,-797 42,-817 102,-817 102,-797 42,-797"/>
<text text-anchor="start" x="78.5" y="-803.7" font-family="Arial" font-size="9.00">Loss</text>
<polygon fill="white" stroke="none" points="102,-797 102,-817 194,-817 194,-797 102,-797"/>
<polygon fill="none" stroke="#3b82f6" points="102,-797 102,-817 194,-817 194,-797 102,-797"/>
<polygon fill="#f3f4f6" stroke="none" points="106,-801 106,-813 190,-813 190,-801 106,-801"/>
<polygon fill="#f3f4f6" stroke="none" points="108,-803 108,-811 188,-811 188,-803 108,-803"/>
<polygon fill="none" stroke="#3b82f6" points="194,-797 194,-817 238,-817 238,-797 194,-797"/>
<text text-anchor="start" x="207.75" y="-803.7" font-family="Arial" font-size="9.00">0.00%</text>
</g>
<!-- roadLoss&#45;&gt;AbsorptionCapacity -->
<g id="edge1" class="edge">
<title>roadLoss&#45;&gt;AbsorptionCapacity</title>
<path fill="none" stroke="#64748b" stroke-width="0.8" d="M237.7,-828C237.7,-828 282.82,-828 282.82,-828"/>
<polygon fill="#64748b" stroke="#64748b" stroke-width="0.8" points="282.82,-831.5 292.82,-828 282.82,-824.5 282.82,-831.5"/>
</g>
<!-- AidResource -->
<g id="node5" class="node">
<title>AidResource</title>
<polygon fill="none" stroke="black" points="45,-485 45,-507 235,-507 235,-485 45,-485"/>
<text text-anchor="start" x="111.88" y="-492.5" font-family="Arial" font-size="10.00">AidResource</text>
<polygon fill="none" stroke="black" points="45,-465 45,-485 105,-485 105,-465 45,-465"/>
<text text-anchor="start" x="59.75" y="-471.7" font-family="Arial" font-size="9.00">Not_Used</text>
<polygon fill="white" stroke="none" points="105,-465 105,-485 196,-485 196,-465 105,-465"/>
<polygon fill="none" stroke="black" points="105,-465 105,-485 196,-485 196,-465 105,-465"/>
<polygon fill="#f3f4f6" stroke="none" points="109,-469 109,-481 192,-481 192,-469 109,-469"/>
<polygon fill="#4ade80" stroke="none" points="111,-471 111,-479 154,-479 154,-471 111,-471"/>
<polygon fill="#f3f4f6" stroke="none" points="154,-471 154,-479 190,-479 190,-471 154,-471"/>
<polygon fill="none" stroke="black" points="196,-465 196,-485 235,-485 235,-465 196,-465"/>
<text text-anchor="start" x="199.75" y="-471.7" font-family="Arial" font-size="9.00">54.53%</text>
<polygon fill="none" stroke="black" points="45,-445 45,-465 105,-465 105,-445 45,-445"/>
<text text-anchor="start" x="79.25" y="-451.7" font-family="Arial" font-size="9.00">Used</text>
<polygon fill="white" stroke="none" points="105,-445 105,-465 196,-465 196,-445 105,-445"/>
<polygon fill="none" stroke="black" points="105,-445 105,-465 196,-465 196,-445 105,-445"/>
<polygon fill="#f3f4f6" stroke="none" points="109,-449 109,-461 192,-461 192,-449 109,-449"/>
<polygon fill="#4ade80" stroke="none" points="111,-451 111,-459 147,-459 147,-451 111,-451"/>
<polygon fill="#f3f4f6" stroke="none" points="147,-451 147,-459 190,-459 190,-451 147,-451"/>
<polygon fill="none" stroke="black" points="196,-445 196,-465 235,-465 235,-445 196,-445"/>
<text text-anchor="start" x="199.75" y="-451.7" font-family="Arial" font-size="9.00">45.47%</text>
</g>
<!-- AidResource&#45;&gt;RecoveryCapacity -->
<g id="edge10" class="edge">
<title>AidResource&#45;&gt;RecoveryCapacity</title>
<path fill="none" stroke="#64748b" stroke-width="0.8" d="M234.69,-476C293.26,-476 357.33,-476 357.33,-476 357.33,-476 357.33,-409.15 357.33,-409.15"/>
<polygon fill="#64748b" stroke="#64748b" stroke-width="0.8" points="360.83,-409.15 357.33,-399.15 353.83,-409.15 360.83,-409.15"/>
</g>
<!-- TowResource -->
<g id="node6" class="node">
<title>TowResource</title>
<polygon fill="none" stroke="black" points="45,-412 45,-434 235,-434 235,-412 45,-412"/>
<text text-anchor="start" x="110" y="-419.5" font-family="Arial" font-size="10.00">TowResource</text>
<polygon fill="none" stroke="black" points="45,-392 45,-412 105,-412 105,-392 45,-392"/>
<text text-anchor="start" x="59.75" y="-398.7" font-family="Arial" font-size="9.00">Not_Used</text>
<polygon fill="white" stroke="none" points="105,-392 105,-412 196,-412 196,-392 105,-392"/>
<polygon fill="none" stroke="black" points="105,-392 105,-412 196,-412 196,-392 105,-392"/>
<polygon fill="#f3f4f6" stroke="none" points="109,-396 109,-408 192,-408 192,-396 109,-396"/>
<polygon fill="#4ade80" stroke="none" points="111,-398 111,-406 152,-406 152,-398 111,-398"/>
<polygon fill="#f3f4f6" stroke="none" points="152,-398 152,-406 190,-406 190,-398 152,-398"/>
<polygon fill="none" stroke="black" points="196,-392 196,-412 235,-412 235,-392 196,-392"/>
<text text-anchor="start" x="199.75" y="-398.7" font-family="Arial" font-size="9.00">51.71%</text>
<polygon fill="none" stroke="black" points="45,-372 45,-392 105,-392 105,-372 45,-372"/>
<text text-anchor="start" x="79.25" y="-378.7" font-family="Arial" font-size="9.00">Used</text>
<polygon fill="white" stroke="none" points="105,-372 105,-392 196,-392 196,-372 105,-372"/>
<polygon fill="none" stroke="black" points="105,-372 105,-392 196,-392 196,-372 105,-372"/>
<polygon fill="#f3f4f6" stroke="none" points="109,-376 109,-388 192,-388 192,-376 109,-376"/>
<polygon fill="#4ade80" stroke="none" points="111,-378 111,-386 149,-386 149,-378 111,-378"/>
<polygon fill="#f3f4f6" stroke="none" points="149,-378 149,-386 190,-386 190,-378 149,-378"/>
<polygon fill="none" stroke="black" points="196,-372 196,-392 235,-392 235,-372 196,-372"/>
<text text-anchor="start" x="199.75" y="-378.7" font-family="Arial" font-size="9.00">48.29%</text>
</g>
<!-- TowResource&#45;&gt;RecoveryCapacity -->
<g id="edge2" class="edge">
<title>TowResource&#45;&gt;RecoveryCapacity</title>
<path fill="none" stroke="#64748b" stroke-width="0.8" d="M234.85,-385C234.85,-385 282.79,-385 282.79,-385"/>
<polygon fill="#64748b" stroke="#64748b" stroke-width="0.8" points="282.79,-388.5 292.79,-385 282.79,-381.5 282.79,-388.5"/>
</g>
<!-- FirefightingResource -->
<g id="node7" class="node">
<title>FirefightingResource</title>
<polygon fill="none" stroke="black" points="45,-339 45,-361 235,-361 235,-339 45,-339"/>
<text text-anchor="start" x="95" y="-346.5" font-family="Arial" font-size="10.00">FirefightingResource</text>
<polygon fill="none" stroke="black" points="45,-319 45,-339 105,-339 105,-319 45,-319"/>
<text text-anchor="start" x="59.75" y="-325.7" font-family="Arial" font-size="9.00">Not_Used</text>
<polygon fill="white" stroke="none" points="105,-319 105,-339 196,-339 196,-319 105,-319"/>
<polygon fill="none" stroke="black" points="105,-319 105,-339 196,-339 196,-319 105,-319"/>
<polygon fill="#f3f4f6" stroke="none" points="109,-323 109,-335 192,-335 192,-323 109,-323"/>
<polygon fill="#4ade80" stroke="none" points="111,-325 111,-333 151,-333 151,-325 111,-325"/>
<polygon fill="#f3f4f6" stroke="none" points="151,-325 151,-333 190,-333 190,-325 151,-325"/>
<polygon fill="none" stroke="black" points="196,-319 196,-339 235,-339 235,-319 196,-319"/>
<text text-anchor="start" x="199.75" y="-325.7" font-family="Arial" font-size="9.00">50.10%</text>
<polygon fill="none" stroke="black" points="45,-299 45,-319 105,-319 105,-299 45,-299"/>
<text text-anchor="start" x="79.25" y="-305.7" font-family="Arial" font-size="9.00">Used</text>
<polygon fill="white" stroke="none" points="105,-299 105,-319 196,-319 196,-299 105,-299"/>
<polygon fill="none" stroke="black" points="105,-299 105,-319 196,-319 196,-299 105,-299"/>
<polygon fill="#f3f4f6" stroke="none" points="109,-303 109,-315 192,-315 192,-303 109,-303"/>
<polygon fill="#4ade80" stroke="none" points="111,-305 111,-313 150,-313 150,-305 111,-305"/>
<polygon fill="#f3f4f6" stroke="none" points="150,-305 150,-313 190,-313 190,-305 150,-305"/>
<polygon fill="none" stroke="black" points="196,-299 196,-319 235,-319 235,-299 196,-299"/>
<text text-anchor="start" x="199.75" y="-305.7" font-family="Arial" font-size="9.00">49.90%</text>
</g>
<!-- FirefightingResource&#45;&gt;RecoveryCapacity -->
<g id="edge12" class="edge">
<title>FirefightingResource&#45;&gt;RecoveryCapacity</title>
<path fill="none" stroke="#64748b" stroke-width="0.8" d="M234.85,-348.5C234.85,-348.5 282.79,-348.5 282.79,-348.5"/>
<polygon fill="#64748b" stroke="#64748b" stroke-width="0.8" points="282.79,-352 292.79,-348.5 282.79,-345 282.79,-352"/>
</g>
<!-- RescueResource -->
<g id="node8" class="node">
<title>RescueResource</title>
<polygon fill="none" stroke="black" points="45,-266 45,-288 235,-288 235,-266 45,-266"/>
<text text-anchor="start" x="102.12" y="-273.5" font-family="Arial" font-size="10.00">RescueResource</text>
<polygon fill="none" stroke="black" points="45,-246 45,-266 105,-266 105,-246 45,-246"/>
<text text-anchor="start" x="59.75" y="-252.7" font-family="Arial" font-size="9.00">Not_Used</text>
<polygon fill="white" stroke="none" points="105,-246 105,-266 196,-266 196,-246 105,-246"/>
<polygon fill="none" stroke="black" points="105,-246 105,-266 196,-266 196,-246 105,-246"/>
<polygon fill="#f3f4f6" stroke="none" points="109,-250 109,-262 192,-262 192,-250 109,-250"/>
<polygon fill="#4ade80" stroke="none" points="111,-252 111,-260 151,-260 151,-252 111,-252"/>
<polygon fill="#f3f4f6" stroke="none" points="151,-252 151,-260 190,-260 190,-252 151,-252"/>
<polygon fill="none" stroke="black" points="196,-246 196,-266 235,-266 235,-246 196,-246"/>
<text text-anchor="start" x="199.75" y="-252.7" font-family="Arial" font-size="9.00">50.30%</text>
<polygon fill="none" stroke="black" points="45,-226 45,-246 105,-246 105,-226 45,-226"/>
<text text-anchor="start" x="79.25" y="-232.7" font-family="Arial" font-size="9.00">Used</text>
<polygon fill="white" stroke="none" points="105,-226 105,-246 196,-246 196,-226 105,-226"/>
<polygon fill="none" stroke="black" points="105,-226 105,-246 196,-246 196,-226 105,-226"/>
<polygon fill="#f3f4f6" stroke="none" points="109,-230 109,-242 192,-242 192,-230 109,-230"/>
<polygon fill="#4ade80" stroke="none" points="111,-232 111,-240 150,-240 150,-232 111,-232"/>
<polygon fill="#f3f4f6" stroke="none" points="150,-232 150,-240 190,-240 190,-232 150,-232"/>
<polygon fill="none" stroke="black" points="196,-226 196,-246 235,-246 235,-226 196,-226"/>
<text text-anchor="start" x="199.75" y="-232.7" font-family="Arial" font-size="9.00">49.70%</text>
</g>
<!-- RescueResource&#45;&gt;RecoveryCapacity -->
<g id="edge5" class="edge">
<title>RescueResource&#45;&gt;RecoveryCapacity</title>
<path fill="none" stroke="#64748b" stroke-width="0.8" d="M234.85,-257C287.11,-257 341.5,-257 341.5,-257 341.5,-257 341.5,-324.86 341.5,-324.86"/>
<polygon fill="#64748b" stroke="#64748b" stroke-width="0.8" points="338,-324.86 341.5,-334.86 345,-324.86 338,-324.86"/>
</g>
<!-- disposalDuration -->
<g id="node9" class="node">
<title>disposalDuration</title>
<polygon fill="none" stroke="#3b82f6" points="42,-193 42,-215 238,-215 238,-193 42,-193"/>
<text text-anchor="start" x="103.62" y="-200.5" font-family="Arial" font-size="10.00">disposalDuration</text>
<polygon fill="none" stroke="#3b82f6" points="42,-173 42,-193 102,-193 102,-173 42,-173"/>
<text text-anchor="start" x="64.25" y="-179.7" font-family="Arial" font-size="9.00">0&#45;15min</text>
<polygon fill="white" stroke="none" points="102,-173 102,-193 194,-193 194,-173 102,-173"/>
<polygon fill="none" stroke="#3b82f6" points="102,-173 102,-193 194,-193 194,-173 102,-173"/>
<polygon fill="#f3f4f6" stroke="none" points="106,-177 106,-189 190,-189 190,-177 106,-177"/>
<polygon fill="#4ade80" stroke="none" points="108,-179 108,-187 188,-187 188,-179 108,-179"/>
<polygon fill="none" stroke="#3b82f6" points="194,-173 194,-193 238,-193 238,-173 194,-173"/>
<text text-anchor="start" x="197.62" y="-179.7" font-family="Arial" font-size="9.00">100.00%</text>
<polygon fill="none" stroke="#3b82f6" points="42,-153 42,-173 102,-173 102,-153 42,-153"/>
<text text-anchor="start" x="59" y="-159.7" font-family="Arial" font-size="9.00">15&#45;30min</text>
<polygon fill="white" stroke="none" points="102,-153 102,-173 194,-173 194,-153 102,-153"/>
<polygon fill="none" stroke="#3b82f6" points="102,-153 102,-173 194,-173 194,-153 102,-153"/>
<polygon fill="#f3f4f6" stroke="none" points="106,-157 106,-169 190,-169 190,-157 106,-157"/>
<polygon fill="#f3f4f6" stroke="none" points="108,-159 108,-167 188,-167 188,-159 108,-159"/>
<polygon fill="none" stroke="#3b82f6" points="194,-153 194,-173 238,-173 238,-153 194,-153"/>
<text text-anchor="start" x="207.75" y="-159.7" font-family="Arial" font-size="9.00">0.00%</text>
<polygon fill="none" stroke="#3b82f6" points="42,-133 42,-153 102,-153 102,-133 42,-133"/>
<text text-anchor="start" x="59" y="-139.7" font-family="Arial" font-size="9.00">30&#45;60min</text>
<polygon fill="white" stroke="none" points="102,-133 102,-153 194,-153 194,-133 102,-133"/>
<polygon fill="none" stroke="#3b82f6" points="102,-133 102,-153 194,-153 194,-133 102,-133"/>
<polygon fill="#f3f4f6" stroke="none" points="106,-137 106,-149 190,-149 190,-137 106,-137"/>
<polygon fill="#f3f4f6" stroke="none" points="108,-139 108,-147 188,-147 188,-139 108,-139"/>
<polygon fill="none" stroke="#3b82f6" points="194,-133 194,-153 238,-153 238,-133 194,-133"/>
<text text-anchor="start" x="207.75" y="-139.7" font-family="Arial" font-size="9.00">0.00%</text>
<polygon fill="none" stroke="#3b82f6" points="42,-113 42,-133 102,-133 102,-113 42,-113"/>
<text text-anchor="start" x="67.25" y="-119.7" font-family="Arial" font-size="9.00">60min+</text>
<polygon fill="white" stroke="none" points="102,-113 102,-133 194,-133 194,-113 102,-113"/>
<polygon fill="none" stroke="#3b82f6" points="102,-113 102,-133 194,-133 194,-113 102,-113"/>
<polygon fill="#f3f4f6" stroke="none" points="106,-117 106,-129 190,-129 190,-117 106,-117"/>
<polygon fill="#f3f4f6" stroke="none" points="108,-119 108,-127 188,-127 188,-119 108,-119"/>
<polygon fill="none" stroke="#3b82f6" points="194,-113 194,-133 238,-133 238,-113 194,-113"/>
<text text-anchor="start" x="207.75" y="-119.7" font-family="Arial" font-size="9.00">0.00%</text>
</g>
<!-- disposalDuration&#45;&gt;RecoveryCapacity -->
<g id="edge7" class="edge">
<title>disposalDuration&#45;&gt;RecoveryCapacity</title>
<path fill="none" stroke="#64748b" stroke-width="0.8" d="M237.7,-164C307.46,-164 389,-164 389,-164 389,-164 389,-324.96 389,-324.96"/>
<polygon fill="#64748b" stroke="#64748b" stroke-width="0.8" points="385.5,-324.96 389,-334.96 392.5,-324.96 385.5,-324.96"/>
</g>
<!-- emergencyPeriod -->
<g id="node10" class="node">
<title>emergencyPeriod</title>
<polygon fill="none" stroke="black" points="41,-671 41,-693 239,-693 239,-671 41,-671"/>
<text text-anchor="start" x="102.12" y="-678.5" font-family="Arial" font-size="10.00">emergencyPeriod</text>
<polygon fill="none" stroke="black" points="41,-651 41,-671 109,-671 109,-651 41,-651"/>
<text text-anchor="start" x="45" y="-657.7" font-family="Arial" font-size="9.00">Early_Morning</text>
<polygon fill="white" stroke="none" points="109,-651 109,-671 200,-671 200,-651 109,-651"/>
<polygon fill="none" stroke="black" points="109,-651 109,-671 200,-671 200,-651 109,-651"/>
<polygon fill="#f3f4f6" stroke="none" points="113,-655 113,-667 196,-667 196,-655 113,-655"/>
<polygon fill="#4ade80" stroke="none" points="115,-657 115,-665 136,-665 136,-657 115,-657"/>
<polygon fill="#f3f4f6" stroke="none" points="136,-657 136,-665 194,-665 194,-657 136,-657"/>
<polygon fill="none" stroke="black" points="200,-651 200,-671 239,-671 239,-651 200,-651"/>
<text text-anchor="start" x="203.75" y="-657.7" font-family="Arial" font-size="9.00">27.36%</text>
<polygon fill="none" stroke="black" points="41,-631 41,-651 109,-651 109,-631 41,-631"/>
<text text-anchor="start" x="71.25" y="-637.7" font-family="Arial" font-size="9.00">Morning</text>
<polygon fill="white" stroke="none" points="109,-631 109,-651 200,-651 200,-631 109,-631"/>
<polygon fill="none" stroke="black" points="109,-631 109,-651 200,-651 200,-631 109,-631"/>
<polygon fill="#f3f4f6" stroke="none" points="113,-635 113,-647 196,-647 196,-635 113,-635"/>
<polygon fill="#4ade80" stroke="none" points="115,-637 115,-645 134,-645 134,-637 115,-637"/>
<polygon fill="#f3f4f6" stroke="none" points="134,-637 134,-645 194,-645 194,-637 134,-637"/>
<polygon fill="none" stroke="black" points="200,-631 200,-651 239,-651 239,-631 200,-631"/>
<text text-anchor="start" x="203.75" y="-637.7" font-family="Arial" font-size="9.00">24.95%</text>
<polygon fill="none" stroke="black" points="41,-611 41,-631 109,-631 109,-611 41,-611"/>
<text text-anchor="start" x="65.25" y="-617.7" font-family="Arial" font-size="9.00">Afternoon</text>
<polygon fill="white" stroke="none" points="109,-611 109,-631 200,-631 200,-611 109,-611"/>
<polygon fill="none" stroke="black" points="109,-611 109,-631 200,-631 200,-611 109,-611"/>
<polygon fill="#f3f4f6" stroke="none" points="113,-615 113,-627 196,-627 196,-615 113,-615"/>
<polygon fill="#4ade80" stroke="none" points="115,-617 115,-625 134,-625 134,-617 115,-617"/>
<polygon fill="#f3f4f6" stroke="none" points="134,-617 134,-625 194,-625 194,-617 134,-617"/>
<polygon fill="none" stroke="black" points="200,-611 200,-631 239,-631 239,-611 200,-611"/>
<text text-anchor="start" x="203.75" y="-617.7" font-family="Arial" font-size="9.00">24.14%</text>
<polygon fill="none" stroke="black" points="41,-591 41,-611 109,-611 109,-591 41,-591"/>
<text text-anchor="start" x="71.25" y="-597.7" font-family="Arial" font-size="9.00">Evening</text>
<polygon fill="white" stroke="none" points="109,-591 109,-611 200,-611 200,-591 109,-591"/>
<polygon fill="none" stroke="black" points="109,-591 109,-611 200,-611 200,-591 109,-591"/>
<polygon fill="#f3f4f6" stroke="none" points="113,-595 113,-607 196,-607 196,-595 113,-595"/>
<polygon fill="#4ade80" stroke="none" points="115,-597 115,-605 133,-605 133,-597 115,-597"/>
<polygon fill="#f3f4f6" stroke="none" points="133,-597 133,-605 194,-605 194,-597 133,-597"/>
<polygon fill="none" stroke="black" points="200,-591 200,-611 239,-611 239,-591 200,-591"/>
<text text-anchor="start" x="203.75" y="-597.7" font-family="Arial" font-size="9.00">23.54%</text>
</g>
<!-- emergencyPeriod&#45;&gt;AdaptionCapacity -->
<g id="edge9" class="edge">
<title>emergencyPeriod&#45;&gt;AdaptionCapacity</title>
<path fill="none" stroke="#64748b" stroke-width="0.8" d="M238.77,-678C238.77,-678 282.79,-678 282.79,-678"/>
<polygon fill="#64748b" stroke="#64748b" stroke-width="0.8" points="282.79,-681.5 292.79,-678 282.79,-674.5 282.79,-681.5"/>
</g>
<!-- responseDuration -->
<g id="node11" class="node">
<title>responseDuration</title>
<polygon fill="none" stroke="black" points="44.5,-80 44.5,-102 235.5,-102 235.5,-80 44.5,-80"/>
<text text-anchor="start" x="101.75" y="-87.5" font-family="Arial" font-size="10.00">responseDuration</text>
<polygon fill="none" stroke="black" points="44.5,-60 44.5,-80 104.5,-80 104.5,-60 44.5,-60"/>
<text text-anchor="start" x="66.75" y="-66.7" font-family="Arial" font-size="9.00">0&#45;15min</text>
<polygon fill="white" stroke="none" points="104.5,-60 104.5,-80 196.5,-80 196.5,-60 104.5,-60"/>
<polygon fill="none" stroke="black" points="104.5,-60 104.5,-80 196.5,-80 196.5,-60 104.5,-60"/>
<polygon fill="#f3f4f6" stroke="none" points="108.5,-64 108.5,-76 192.5,-76 192.5,-64 108.5,-64"/>
<polygon fill="#4ade80" stroke="none" points="110.5,-66 110.5,-74 174,-74 174,-66 110.5,-66"/>
<polygon fill="#f3f4f6" stroke="none" points="174,-66 174,-74 190.5,-74 190.5,-66 174,-66"/>
<polygon fill="none" stroke="black" points="196.5,-60 196.5,-80 235.5,-80 235.5,-60 196.5,-60"/>
<text text-anchor="start" x="200.25" y="-66.7" font-family="Arial" font-size="9.00">79.68%</text>
<polygon fill="none" stroke="black" points="44.5,-40 44.5,-60 104.5,-60 104.5,-40 44.5,-40"/>
<text text-anchor="start" x="61.5" y="-46.7" font-family="Arial" font-size="9.00">15&#45;30min</text>
<polygon fill="white" stroke="none" points="104.5,-40 104.5,-60 196.5,-60 196.5,-40 104.5,-40"/>
<polygon fill="none" stroke="black" points="104.5,-40 104.5,-60 196.5,-60 196.5,-40 104.5,-40"/>
<polygon fill="#f3f4f6" stroke="none" points="108.5,-44 108.5,-56 192.5,-56 192.5,-44 108.5,-44"/>
<polygon fill="#4ade80" stroke="none" points="110.5,-46 110.5,-54 127,-54 127,-46 110.5,-46"/>
<polygon fill="#f3f4f6" stroke="none" points="127,-46 127,-54 190.5,-54 190.5,-46 127,-46"/>
<polygon fill="none" stroke="black" points="196.5,-40 196.5,-60 235.5,-60 235.5,-40 196.5,-40"/>
<text text-anchor="start" x="200.25" y="-46.7" font-family="Arial" font-size="9.00">20.32%</text>
<polygon fill="none" stroke="black" points="44.5,-20 44.5,-40 104.5,-40 104.5,-20 44.5,-20"/>
<text text-anchor="start" x="61.5" y="-26.7" font-family="Arial" font-size="9.00">30&#45;60min</text>
<polygon fill="white" stroke="none" points="104.5,-20 104.5,-40 196.5,-40 196.5,-20 104.5,-20"/>
<polygon fill="none" stroke="black" points="104.5,-20 104.5,-40 196.5,-40 196.5,-20 104.5,-20"/>
<polygon fill="#f3f4f6" stroke="none" points="108.5,-24 108.5,-36 192.5,-36 192.5,-24 108.5,-24"/>
<polygon fill="#f3f4f6" stroke="none" points="110.5,-26 110.5,-34 190.5,-34 190.5,-26 110.5,-26"/>
<polygon fill="none" stroke="black" points="196.5,-20 196.5,-40 235.5,-40 235.5,-20 196.5,-20"/>
<text text-anchor="start" x="205.25" y="-26.7" font-family="Arial" font-size="9.00">0.00%</text>
<polygon fill="none" stroke="black" points="44.5,0 44.5,-20 104.5,-20 104.5,0 44.5,0"/>
<text text-anchor="start" x="69.75" y="-6.7" font-family="Arial" font-size="9.00">60min+</text>
<polygon fill="white" stroke="none" points="104.5,0 104.5,-20 196.5,-20 196.5,0 104.5,0"/>
<polygon fill="none" stroke="black" points="104.5,0 104.5,-20 196.5,-20 196.5,0 104.5,0"/>
<polygon fill="#f3f4f6" stroke="none" points="108.5,-4 108.5,-16 192.5,-16 192.5,-4 108.5,-4"/>
<polygon fill="#f3f4f6" stroke="none" points="110.5,-6 110.5,-14 190.5,-14 190.5,-6 110.5,-6"/>
<polygon fill="none" stroke="black" points="196.5,0 196.5,-20 235.5,-20 235.5,0 196.5,0"/>
<text text-anchor="start" x="205.25" y="-6.7" font-family="Arial" font-size="9.00">0.00%</text>
</g>
<!-- responseDuration&#45;&gt;RecoveryCapacity -->
<g id="edge11" class="edge">
<title>responseDuration&#45;&gt;RecoveryCapacity</title>
<path fill="none" stroke="#64748b" stroke-width="0.8" d="M235.45,-51C322.12,-51 436.5,-51 436.5,-51 436.5,-51 436.5,-324.91 436.5,-324.91"/>
<polygon fill="#64748b" stroke="#64748b" stroke-width="0.8" points="433,-324.91 436.5,-334.91 440,-324.91 433,-324.91"/>
</g>
<!-- ScenarioResilience -->
<g id="node15" class="node">
<title>ScenarioResilience</title>
<polygon fill="none" stroke="black" points="498,-703 498,-725 688,-725 688,-703 498,-703"/>
<text text-anchor="start" x="551" y="-710.5" font-family="Arial" font-size="10.00">ScenarioResilience</text>
<polygon fill="none" stroke="black" points="498,-683 498,-703 558,-703 558,-683 498,-683"/>
<text text-anchor="start" x="531.5" y="-689.7" font-family="Arial" font-size="9.00">Good</text>
<polygon fill="white" stroke="none" points="558,-683 558,-703 649,-703 649,-683 558,-683"/>
<polygon fill="none" stroke="black" points="558,-683 558,-703 649,-703 649,-683 558,-683"/>
<polygon fill="#f3f4f6" stroke="none" points="562,-687 562,-699 645,-699 645,-687 562,-687"/>
<polygon fill="#4ade80" stroke="none" points="564,-689 564,-697 613,-697 613,-689 564,-689"/>
<polygon fill="#f3f4f6" stroke="none" points="613,-689 613,-697 643,-697 643,-689 613,-689"/>
<polygon fill="none" stroke="black" points="649,-683 649,-703 688,-703 688,-683 649,-683"/>
<text text-anchor="start" x="652.75" y="-689.7" font-family="Arial" font-size="9.00">61.92%</text>
<polygon fill="none" stroke="black" points="498,-663 498,-683 558,-683 558,-663 498,-663"/>
<text text-anchor="start" x="537.5" y="-669.7" font-family="Arial" font-size="9.00">Bad</text>
<polygon fill="white" stroke="none" points="558,-663 558,-683 649,-683 649,-663 558,-663"/>
<polygon fill="none" stroke="black" points="558,-663 558,-683 649,-683 649,-663 558,-663"/>
<polygon fill="#f3f4f6" stroke="none" points="562,-667 562,-679 645,-679 645,-667 562,-667"/>
<polygon fill="#4ade80" stroke="none" points="564,-669 564,-677 594,-677 594,-669 564,-669"/>
<polygon fill="#f3f4f6" stroke="none" points="594,-669 594,-677 643,-677 643,-669 594,-669"/>
<polygon fill="none" stroke="black" points="649,-663 649,-683 688,-683 688,-663 649,-663"/>
<text text-anchor="start" x="652.75" y="-669.7" font-family="Arial" font-size="9.00">38.08%</text>
</g>
<!-- AbsorptionCapacity&#45;&gt;ScenarioResilience -->
<g id="edge13" class="edge">
<title>AbsorptionCapacity&#45;&gt;ScenarioResilience</title>
<path fill="none" stroke="#64748b" stroke-width="0.8" d="M483.83,-828C537.11,-828 593,-828 593,-828 593,-828 593,-735.95 593,-735.95"/>
<polygon fill="#64748b" stroke="#64748b" stroke-width="0.8" points="596.5,-735.95 593,-725.95 589.5,-735.95 596.5,-735.95"/>
</g>
<!-- AdaptionCapacity&#45;&gt;ScenarioResilience -->
<g id="edge6" class="edge">
<title>AdaptionCapacity&#45;&gt;ScenarioResilience</title>
<path fill="none" stroke="#64748b" stroke-width="0.8" d="M483.83,-694C483.83,-694 487,-694 487,-694"/>
<polygon fill="#64748b" stroke="#64748b" stroke-width="0.8" points="487,-697.5 497,-694 487,-690.5 487,-697.5"/>
</g>
<!-- RecoveryCapacity&#45;&gt;ScenarioResilience -->
<g id="edge8" class="edge">
<title>RecoveryCapacity&#45;&gt;ScenarioResilience</title>
<path fill="none" stroke="#64748b" stroke-width="0.8" d="M483.83,-367C537.11,-367 593,-367 593,-367 593,-367 593,-652.03 593,-652.03"/>
<polygon fill="#64748b" stroke="#64748b" stroke-width="0.8" points="589.5,-652.03 593,-662.03 596.5,-652.03 589.5,-652.03"/>
</g>
</g>
</svg>
