<?xml version="1.0" encoding="UTF-8" standalone="no"?>
<!DOCTYPE svg PUBLIC "-//W3C//DTD SVG 1.1//EN"
 "http://www.w3.org/Graphics/SVG/1.1/DTD/svg11.dtd">
<!-- Generated by graphviz version 12.1.2 (20240928.0832)
 -->
<!-- Title: G Pages: 1 -->
<svg width="2060pt" height="454pt"
 viewBox="0.00 0.00 2060.00 453.50" xmlns="http://www.w3.org/2000/svg" xmlns:xlink="http://www.w3.org/1999/xlink">
<g id="graph0" class="graph" transform="scale(1 1) rotate(0) translate(4 449.5)">
<title>G</title>
<polygon fill="white" stroke="none" points="-4,4 -4,-449.5 2056,-449.5 2056,4 -4,4"/>
<!-- node0000 -->
<g id="node1" class="node">
<title>node0000</title>
<ellipse fill="none" stroke="black" cx="1008" cy="-409.5" rx="36" ry="36"/>
<text text-anchor="middle" x="1008" y="-405.62" font-family="Times New Roman,serif" font-size="10.00">Thing</text>
</g>
<!-- node0001 -->
<g id="node2" class="node">
<title>node0001</title>
<ellipse fill="none" stroke="black" cx="171" cy="-285" rx="36" ry="36"/>
<text text-anchor="middle" x="171" y="-281.12" font-family="Times New Roman,serif" font-size="10.00">Scenario</text>
</g>
<!-- node0001&#45;&gt;node0000 -->
<g id="edge1" class="edge">
<title>node0001&#45;&gt;node0000</title>
<path fill="none" stroke="black" d="M206.7,-291.22C340.2,-310.76 810.14,-379.54 961,-401.62"/>
<polygon fill="black" stroke="black" points="960.23,-405.05 970.63,-403.03 961.25,-398.12 960.23,-405.05"/>
<text text-anchor="middle" x="648.99" y="-342.2" font-family="Times New Roman,serif" font-size="14.00">is a</text>
</g>
<!-- node0002 -->
<g id="node3" class="node">
<title>node0002</title>
<ellipse fill="none" stroke="black" cx="486" cy="-285" rx="36" ry="36"/>
<text text-anchor="middle" x="486" y="-281.12" font-family="Times New Roman,serif" font-size="10.00">ResilienceInfluentialFactors</text>
</g>
<!-- node0002&#45;&gt;node0000 -->
<g id="edge2" class="edge">
<title>node0002&#45;&gt;node0000</title>
<path fill="none" stroke="black" d="M521.06,-294.23C612.61,-315.71 858.87,-373.5 961.79,-397.66"/>
<polygon fill="black" stroke="black" points="960.74,-401 971.28,-399.88 962.34,-394.19 960.74,-401"/>
<text text-anchor="middle" x="787.63" y="-342.2" font-family="Times New Roman,serif" font-size="14.00">is a</text>
</g>
<!-- node0003 -->
<g id="node4" class="node">
<title>node0003</title>
<ellipse fill="none" stroke="black" cx="844" cy="-285" rx="36" ry="36"/>
<text text-anchor="middle" x="844" y="-281.12" font-family="Times New Roman,serif" font-size="10.00">ScenarioResilience</text>
</g>
<!-- node0003&#45;&gt;node0000 -->
<g id="edge3" class="edge">
<title>node0003&#45;&gt;node0000</title>
<path fill="none" stroke="black" d="M872,-307.96C877.61,-312.31 883.47,-316.82 889,-321 915.78,-341.26 946.31,-363.69 969.73,-380.76"/>
<polygon fill="black" stroke="black" points="967.61,-383.55 977.76,-386.61 971.73,-377.89 967.61,-383.55"/>
<text text-anchor="middle" x="943.94" y="-342.2" font-family="Times New Roman,serif" font-size="14.00">is a</text>
</g>
<!-- node0004 -->
<g id="node5" class="node">
<title>node0004</title>
<ellipse fill="none" stroke="black" cx="1791" cy="-160.5" rx="36" ry="36"/>
<text text-anchor="middle" x="1791" y="-156.62" font-family="Times New Roman,serif" font-size="10.00">Item</text>
</g>
<!-- node0004&#45;&gt;node0000 -->
<g id="edge4" class="edge">
<title>node0004&#45;&gt;node0000</title>
<path fill="none" stroke="black" d="M1755.06,-165.49C1602.82,-182.38 1018.87,-247.29 1017.25,-249 1002.33,-264.75 1002.19,-320.81 1004.34,-362.03"/>
<polygon fill="black" stroke="black" points="1000.84,-362.2 1004.92,-371.97 1007.83,-361.79 1000.84,-362.2"/>
<text text-anchor="middle" x="1026.62" y="-279.95" font-family="Times New Roman,serif" font-size="14.00">is a</text>
</g>
<!-- node0005 -->
<g id="node6" class="node">
<title>node0005</title>
<ellipse fill="none" stroke="black" cx="1081" cy="-285" rx="36" ry="36"/>
<text text-anchor="middle" x="1081" y="-281.12" font-family="Times New Roman,serif" font-size="10.00">Emergency</text>
</g>
<!-- node0005&#45;&gt;node0000 -->
<g id="edge5" class="edge">
<title>node0005&#45;&gt;node0000</title>
<path fill="none" stroke="black" d="M1062.77,-316.6C1053.38,-332.35 1041.81,-351.76 1031.73,-368.67"/>
<polygon fill="black" stroke="black" points="1028.89,-366.61 1026.78,-376.99 1034.9,-370.2 1028.89,-366.61"/>
<text text-anchor="middle" x="1058.25" y="-342.2" font-family="Times New Roman,serif" font-size="14.00">is a</text>
</g>
<!-- node0006 -->
<g id="node7" class="node">
<title>node0006</title>
<ellipse fill="none" stroke="black" cx="1171" cy="-285" rx="36" ry="36"/>
<text text-anchor="middle" x="1171" y="-281.12" font-family="Times New Roman,serif" font-size="10.00">InvolvedScenario</text>
</g>
<!-- node0006&#45;&gt;node0000 -->
<g id="edge6" class="edge">
<title>node0006&#45;&gt;node0000</title>
<path fill="none" stroke="black" d="M1142.99,-307.94C1137.38,-312.29 1131.52,-316.81 1126,-321 1099.4,-341.2 1069.14,-363.63 1045.92,-380.72"/>
<polygon fill="black" stroke="black" points="1043.95,-377.83 1037.97,-386.57 1048.1,-383.46 1043.95,-377.83"/>
<text text-anchor="middle" x="1109.67" y="-342.2" font-family="Times New Roman,serif" font-size="14.00">is a</text>
</g>
<!-- node0007 -->
<g id="node8" class="node">
<title>node0007</title>
<ellipse fill="none" stroke="black" cx="1261" cy="-285" rx="36" ry="36"/>
<text text-anchor="middle" x="1261" y="-281.12" font-family="Times New Roman,serif" font-size="10.00">EmergencyPhase</text>
</g>
<!-- node0007&#45;&gt;node0000 -->
<g id="edge7" class="edge">
<title>node0007&#45;&gt;node0000</title>
<path fill="none" stroke="black" d="M1233.72,-309.04C1228.05,-313.3 1221.98,-317.5 1216,-321 1162.66,-352.23 1096.07,-378.2 1052.81,-393.53"/>
<polygon fill="black" stroke="black" points="1051.78,-390.18 1043.5,-396.79 1054.1,-396.79 1051.78,-390.18"/>
<text text-anchor="middle" x="1187.4" y="-342.2" font-family="Times New Roman,serif" font-size="14.00">is a</text>
</g>
<!-- node0008 -->
<g id="node9" class="node">
<title>node0008</title>
<ellipse fill="none" stroke="black" cx="934" cy="-285" rx="36" ry="36"/>
<text text-anchor="middle" x="934" y="-281.12" font-family="Times New Roman,serif" font-size="10.00">ScenarioElement</text>
</g>
<!-- node0008&#45;&gt;node0000 -->
<g id="edge8" class="edge">
<title>node0008&#45;&gt;node0000</title>
<path fill="none" stroke="black" d="M951.95,-316.52C959.15,-328.68 967.55,-342.78 975.25,-355.5 977.84,-359.78 980.57,-364.24 983.29,-368.68"/>
<polygon fill="black" stroke="black" points="980.19,-370.32 988.41,-377 986.15,-366.65 980.19,-370.32"/>
<text text-anchor="middle" x="984.62" y="-342.2" font-family="Times New Roman,serif" font-size="14.00">is a</text>
</g>
<!-- node0009 -->
<g id="node10" class="node">
<title>node0009</title>
<ellipse fill="none" stroke="black" cx="1351" cy="-285" rx="36" ry="36"/>
<text text-anchor="middle" x="1351" y="-281.12" font-family="Times New Roman,serif" font-size="10.00">InvolvedScenarioElement</text>
</g>
<!-- node0009&#45;&gt;node0000 -->
<g id="edge9" class="edge">
<title>node0009&#45;&gt;node0000</title>
<path fill="none" stroke="black" d="M1323.94,-309.42C1318.25,-313.65 1312.12,-317.74 1306,-321 1223.28,-365.04 1115.53,-389.61 1054.86,-400.85"/>
<polygon fill="black" stroke="black" points="1054.44,-397.37 1045.22,-402.59 1055.69,-404.26 1054.44,-397.37"/>
<text text-anchor="middle" x="1277.42" y="-342.2" font-family="Times New Roman,serif" font-size="14.00">is a</text>
</g>
<!-- node0010 -->
<g id="node11" class="node">
<title>node0010</title>
<ellipse fill="none" stroke="black" cx="36" cy="-160.5" rx="36" ry="36"/>
<text text-anchor="middle" x="36" y="-156.62" font-family="Times New Roman,serif" font-size="10.00">AbsorptionScenario</text>
</g>
<!-- node0010&#45;&gt;node0001 -->
<g id="edge10" class="edge">
<title>node0010&#45;&gt;node0001</title>
<path fill="none" stroke="black" d="M62.35,-185.41C83.44,-204.55 113.2,-231.56 136.25,-252.46"/>
<polygon fill="black" stroke="black" points="133.84,-255.01 143.6,-259.13 138.54,-249.82 133.84,-255.01"/>
<text text-anchor="middle" x="120.96" y="-217.7" font-family="Times New Roman,serif" font-size="14.00">is a</text>
</g>
<!-- node0011 -->
<g id="node12" class="node">
<title>node0011</title>
<ellipse fill="none" stroke="black" cx="126" cy="-160.5" rx="36" ry="36"/>
<text text-anchor="middle" x="126" y="-156.62" font-family="Times New Roman,serif" font-size="10.00">RecoveryScenario</text>
</g>
<!-- node0011&#45;&gt;node0001 -->
<g id="edge11" class="edge">
<title>node0011&#45;&gt;node0001</title>
<path fill="none" stroke="black" d="M138.18,-194.65C143.33,-208.68 149.4,-225.21 154.92,-240.22"/>
<polygon fill="black" stroke="black" points="151.56,-241.22 158.29,-249.4 158.13,-238.81 151.56,-241.22"/>
<text text-anchor="middle" x="160.57" y="-217.7" font-family="Times New Roman,serif" font-size="14.00">is a</text>
</g>
<!-- node0012 -->
<g id="node13" class="node">
<title>node0012</title>
<ellipse fill="none" stroke="black" cx="216" cy="-160.5" rx="36" ry="36"/>
<text text-anchor="middle" x="216" y="-156.62" font-family="Times New Roman,serif" font-size="10.00">AdaptionScenario</text>
</g>
<!-- node0012&#45;&gt;node0001 -->
<g id="edge12" class="edge">
<title>node0012&#45;&gt;node0001</title>
<path fill="none" stroke="black" d="M203.82,-194.65C198.67,-208.68 192.6,-225.21 187.08,-240.22"/>
<polygon fill="black" stroke="black" points="183.87,-238.81 183.71,-249.4 190.44,-241.22 183.87,-238.81"/>
<text text-anchor="middle" x="205.57" y="-217.7" font-family="Times New Roman,serif" font-size="14.00">is a</text>
</g>
<!-- node0013 -->
<g id="node14" class="node">
<title>node0013</title>
<ellipse fill="none" stroke="black" cx="306" cy="-160.5" rx="36" ry="36"/>
<text text-anchor="middle" x="306" y="-156.62" font-family="Times New Roman,serif" font-size="10.00">FunctionFactors</text>
</g>
<!-- node0013&#45;&gt;node0002 -->
<g id="edge13" class="edge">
<title>node0013&#45;&gt;node0002</title>
<path fill="none" stroke="black" d="M333.8,-183.72C339.43,-188.05 345.35,-192.49 351,-196.5 382.22,-218.7 418.74,-242.23 445.92,-259.29"/>
<polygon fill="black" stroke="black" points="443.86,-262.13 454.2,-264.46 447.57,-256.2 443.86,-262.13"/>
<text text-anchor="middle" x="407.9" y="-217.7" font-family="Times New Roman,serif" font-size="14.00">is a</text>
</g>
<!-- node0014 -->
<g id="node15" class="node">
<title>node0014</title>
<ellipse fill="none" stroke="black" cx="396" cy="-160.5" rx="36" ry="36"/>
<text text-anchor="middle" x="396" y="-156.62" font-family="Times New Roman,serif" font-size="10.00">EconomicFactors</text>
</g>
<!-- node0014&#45;&gt;node0002 -->
<g id="edge14" class="edge">
<title>node0014&#45;&gt;node0002</title>
<path fill="none" stroke="black" d="M417.1,-190.22C429.4,-206.96 445.06,-228.27 458.33,-246.34"/>
<polygon fill="black" stroke="black" points="455.39,-248.25 464.14,-254.24 461.03,-244.11 455.39,-248.25"/>
<text text-anchor="middle" x="455.76" y="-217.7" font-family="Times New Roman,serif" font-size="14.00">is a</text>
</g>
<!-- node0015 -->
<g id="node16" class="node">
<title>node0015</title>
<ellipse fill="none" stroke="black" cx="486" cy="-160.5" rx="36" ry="36"/>
<text text-anchor="middle" x="486" y="-156.62" font-family="Times New Roman,serif" font-size="10.00">TimeFactors</text>
</g>
<!-- node0015&#45;&gt;node0002 -->
<g id="edge15" class="edge">
<title>node0015&#45;&gt;node0002</title>
<path fill="none" stroke="black" d="M486,-196.93C486,-209.5 486,-223.85 486,-237.22"/>
<polygon fill="black" stroke="black" points="482.5,-237.13 486,-247.13 489.5,-237.13 482.5,-237.13"/>
<text text-anchor="middle" x="495.38" y="-217.7" font-family="Times New Roman,serif" font-size="14.00">is a</text>
</g>
<!-- node0016 -->
<g id="node17" class="node">
<title>node0016</title>
<ellipse fill="none" stroke="black" cx="576" cy="-160.5" rx="36" ry="36"/>
<text text-anchor="middle" x="576" y="-156.62" font-family="Times New Roman,serif" font-size="10.00">SafetyFactors</text>
</g>
<!-- node0016&#45;&gt;node0002 -->
<g id="edge16" class="edge">
<title>node0016&#45;&gt;node0002</title>
<path fill="none" stroke="black" d="M554.9,-190.22C542.6,-206.96 526.94,-228.27 513.67,-246.34"/>
<polygon fill="black" stroke="black" points="510.97,-244.11 507.86,-254.24 516.61,-248.25 510.97,-244.11"/>
<text text-anchor="middle" x="545.76" y="-217.7" font-family="Times New Roman,serif" font-size="14.00">is a</text>
</g>
<!-- node0017 -->
<g id="node18" class="node">
<title>node0017</title>
<ellipse fill="none" stroke="black" cx="1746" cy="-36" rx="36" ry="36"/>
<text text-anchor="middle" x="1746" y="-32.12" font-family="Times New Roman,serif" font-size="10.00">lane1</text>
</g>
<!-- node0017&#45;&gt;node0004 -->
<g id="edge17" class="edge">
<title>node0017&#45;&gt;node0004</title>
<path fill="none" stroke="black" d="M1758.18,-70.15C1763.33,-84.18 1769.4,-100.71 1774.92,-115.72"/>
<polygon fill="black" stroke="black" points="1771.56,-116.72 1778.29,-124.9 1778.13,-114.31 1771.56,-116.72"/>
<text text-anchor="middle" x="1780.57" y="-93.2" font-family="Times New Roman,serif" font-size="14.00">is a</text>
</g>
<!-- node0018 -->
<g id="node19" class="node">
<title>node0018</title>
<ellipse fill="none" stroke="black" cx="1656" cy="-36" rx="36" ry="36"/>
<text text-anchor="middle" x="1656" y="-32.12" font-family="Times New Roman,serif" font-size="10.00">human1</text>
</g>
<!-- node0018&#45;&gt;node0004 -->
<g id="edge18" class="edge">
<title>node0018&#45;&gt;node0004</title>
<path fill="none" stroke="black" d="M1682.35,-60.91C1703.44,-80.05 1733.2,-107.06 1756.25,-127.96"/>
<polygon fill="black" stroke="black" points="1753.84,-130.51 1763.6,-134.63 1758.54,-125.32 1753.84,-130.51"/>
<text text-anchor="middle" x="1740.96" y="-93.2" font-family="Times New Roman,serif" font-size="14.00">is a</text>
</g>
<!-- node0024 -->
<g id="node25" class="node">
<title>node0024</title>
<ellipse fill="none" stroke="black" cx="1431" cy="-160.5" rx="36" ry="36"/>
<text text-anchor="middle" x="1431" y="-156.62" font-family="Times New Roman,serif" font-size="10.00">AffectedElement</text>
</g>
<!-- node0018&#45;&gt;node0024 -->
<g id="edge19" class="edge">
<title>node0018&#45;&gt;node0024</title>
<path fill="none" stroke="black" d="M1628.57,-59.78C1622.91,-64.06 1616.88,-68.34 1611,-72 1566.57,-99.66 1512.1,-125.06 1474.8,-141.29"/>
<polygon fill="black" stroke="black" points="1473.47,-138.05 1465.67,-145.22 1476.24,-144.48 1473.47,-138.05"/>
<text text-anchor="middle" x="1587.32" y="-93.2" font-family="Times New Roman,serif" font-size="14.00">is a</text>
</g>
<!-- node0019 -->
<g id="node20" class="node">
<title>node0019</title>
<ellipse fill="none" stroke="black" cx="1836" cy="-36" rx="36" ry="36"/>
<text text-anchor="middle" x="1836" y="-32.12" font-family="Times New Roman,serif" font-size="10.00">passenger</text>
</g>
<!-- node0019&#45;&gt;node0004 -->
<g id="edge20" class="edge">
<title>node0019&#45;&gt;node0004</title>
<path fill="none" stroke="black" d="M1823.82,-70.15C1818.67,-84.18 1812.6,-100.71 1807.08,-115.72"/>
<polygon fill="black" stroke="black" points="1803.87,-114.31 1803.71,-124.9 1810.44,-116.72 1803.87,-114.31"/>
<text text-anchor="middle" x="1825.57" y="-93.2" font-family="Times New Roman,serif" font-size="14.00">is a</text>
</g>
<!-- node0020 -->
<g id="node21" class="node">
<title>node0020</title>
<ellipse fill="none" stroke="black" cx="1926" cy="-36" rx="36" ry="36"/>
<text text-anchor="middle" x="1926" y="-32.12" font-family="Times New Roman,serif" font-size="10.00">Class_1</text>
</g>
<!-- node0020&#45;&gt;node0004 -->
<g id="edge21" class="edge">
<title>node0020&#45;&gt;node0004</title>
<path fill="none" stroke="black" d="M1899.65,-60.91C1878.56,-80.05 1848.8,-107.06 1825.75,-127.96"/>
<polygon fill="black" stroke="black" points="1823.46,-125.32 1818.4,-134.63 1828.16,-130.51 1823.46,-125.32"/>
<text text-anchor="middle" x="1875.96" y="-93.2" font-family="Times New Roman,serif" font-size="14.00">is a</text>
</g>
<!-- node0021 -->
<g id="node22" class="node">
<title>node0021</title>
<ellipse fill="none" stroke="black" cx="2016" cy="-36" rx="36" ry="36"/>
<text text-anchor="middle" x="2016" y="-32.12" font-family="Times New Roman,serif" font-size="10.00">Class_2</text>
</g>
<!-- node0021&#45;&gt;node0004 -->
<g id="edge22" class="edge">
<title>node0021&#45;&gt;node0004</title>
<path fill="none" stroke="black" d="M1988.57,-59.78C1982.91,-64.06 1976.88,-68.34 1971,-72 1926.57,-99.66 1872.1,-125.06 1834.8,-141.29"/>
<polygon fill="black" stroke="black" points="1833.47,-138.05 1825.67,-145.22 1836.24,-144.48 1833.47,-138.05"/>
<text text-anchor="middle" x="1947.32" y="-93.2" font-family="Times New Roman,serif" font-size="14.00">is a</text>
</g>
<!-- node0022 -->
<g id="node23" class="node">
<title>node0022</title>
<ellipse fill="none" stroke="black" cx="666" cy="-160.5" rx="36" ry="36"/>
<text text-anchor="middle" x="666" y="-156.62" font-family="Times New Roman,serif" font-size="10.00">EnvironmentElement</text>
</g>
<!-- node0022&#45;&gt;node0008 -->
<g id="edge23" class="edge">
<title>node0022&#45;&gt;node0008</title>
<path fill="none" stroke="black" d="M700.62,-171.66C745.69,-185.64 826.11,-213.2 889,-249 891.82,-250.61 894.66,-252.38 897.46,-254.24"/>
<polygon fill="black" stroke="black" points="895.37,-257.05 905.55,-259.97 899.42,-251.34 895.37,-257.05"/>
<text text-anchor="middle" x="863.72" y="-217.7" font-family="Times New Roman,serif" font-size="14.00">is a</text>
</g>
<!-- node0023 -->
<g id="node24" class="node">
<title>node0023</title>
<ellipse fill="none" stroke="black" cx="891" cy="-160.5" rx="36" ry="36"/>
<text text-anchor="middle" x="891" y="-156.62" font-family="Times New Roman,serif" font-size="10.00">ResponsePlanElement</text>
</g>
<!-- node0023&#45;&gt;node0008 -->
<g id="edge24" class="edge">
<title>node0023&#45;&gt;node0008</title>
<path fill="none" stroke="black" d="M887.29,-196.58C887.23,-207.85 888.4,-220.2 892.25,-231 894.6,-237.59 898.13,-243.99 902.15,-249.93"/>
<polygon fill="black" stroke="black" points="899.11,-251.7 907.88,-257.63 904.72,-247.52 899.11,-251.7"/>
<text text-anchor="middle" x="901.62" y="-217.7" font-family="Times New Roman,serif" font-size="14.00">is a</text>
</g>
<!-- node0024&#45;&gt;node0008 -->
<g id="edge25" class="edge">
<title>node0024&#45;&gt;node0008</title>
<path fill="none" stroke="black" d="M1394.96,-165.49C1288.18,-177.34 980.67,-211.66 976.25,-214.5 966.16,-220.97 958.12,-230.79 951.87,-241.03"/>
<polygon fill="black" stroke="black" points="948.94,-239.1 947.16,-249.55 955.06,-242.49 948.94,-239.1"/>
<text text-anchor="middle" x="985.62" y="-217.7" font-family="Times New Roman,serif" font-size="14.00">is a</text>
</g>
<!-- node0025 -->
<g id="node26" class="node">
<title>node0025</title>
<ellipse fill="none" stroke="black" cx="1071" cy="-160.5" rx="36" ry="36"/>
<text text-anchor="middle" x="1071" y="-156.62" font-family="Times New Roman,serif" font-size="10.00">HazardElement</text>
</g>
<!-- node0025&#45;&gt;node0008 -->
<g id="edge26" class="edge">
<title>node0025&#45;&gt;node0008</title>
<path fill="none" stroke="black" d="M1035,-164.46C1002.61,-169.25 956.75,-181.77 934.25,-214.5 929.5,-221.4 927.31,-229.68 926.64,-238.07"/>
<polygon fill="black" stroke="black" points="923.14,-237.93 926.58,-247.95 930.14,-237.97 923.14,-237.93"/>
<text text-anchor="middle" x="943.62" y="-217.7" font-family="Times New Roman,serif" font-size="14.00">is a</text>
</g>
<!-- node0026 -->
<g id="node27" class="node">
<title>node0026</title>
<ellipse fill="none" stroke="black" cx="486" cy="-36" rx="36" ry="36"/>
<text text-anchor="middle" x="486" y="-32.12" font-family="Times New Roman,serif" font-size="10.00">Road</text>
</g>
<!-- node0026&#45;&gt;node0022 -->
<g id="edge27" class="edge">
<title>node0026&#45;&gt;node0022</title>
<path fill="none" stroke="black" d="M513.66,-59.43C519.3,-63.74 525.26,-68.12 531,-72 550.18,-84.97 601.82,-111.53 621,-124.5 623.69,-126.32 626.43,-128.25 629.16,-130.23"/>
<polygon fill="black" stroke="black" points="627.02,-132.99 637.13,-136.16 631.2,-127.38 627.02,-132.99"/>
<text text-anchor="middle" x="600.07" y="-93.2" font-family="Times New Roman,serif" font-size="14.00">is a</text>
</g>
<!-- node0027 -->
<g id="node28" class="node">
<title>node0027</title>
<ellipse fill="none" stroke="black" cx="576" cy="-36" rx="36" ry="36"/>
<text text-anchor="middle" x="576" y="-32.12" font-family="Times New Roman,serif" font-size="10.00">Meteorology</text>
</g>
<!-- node0027&#45;&gt;node0022 -->
<g id="edge28" class="edge">
<title>node0027&#45;&gt;node0022</title>
<path fill="none" stroke="black" d="M596.36,-66.26C605.14,-78.74 615.59,-93.41 625.25,-106.5 629.14,-111.76 633.29,-117.28 637.4,-122.68"/>
<polygon fill="black" stroke="black" points="634.45,-124.58 643.3,-130.4 640,-120.33 634.45,-124.58"/>
<text text-anchor="middle" x="634.62" y="-93.2" font-family="Times New Roman,serif" font-size="14.00">is a</text>
</g>
<!-- node0028 -->
<g id="node29" class="node">
<title>node0028</title>
<ellipse fill="none" stroke="black" cx="396" cy="-36" rx="36" ry="36"/>
<text text-anchor="middle" x="396" y="-32.12" font-family="Times New Roman,serif" font-size="10.00">hoa</text>
</g>
<!-- node0028&#45;&gt;node0022 -->
<g id="edge29" class="edge">
<title>node0028&#45;&gt;node0022</title>
<path fill="none" stroke="black" d="M423.12,-60.31C428.81,-64.55 434.92,-68.67 441,-72 481.23,-94.03 494.14,-93.93 538.25,-106.5 574.45,-116.81 586.91,-108.55 621,-124.5 624.13,-125.96 627.24,-127.68 630.28,-129.55"/>
<polygon fill="black" stroke="black" points="628.19,-132.36 638.43,-135.08 632.12,-126.57 628.19,-132.36"/>
<text text-anchor="middle" x="547.62" y="-93.2" font-family="Times New Roman,serif" font-size="14.00">is a</text>
</g>
<!-- node0029 -->
<g id="node30" class="node">
<title>node0029</title>
<ellipse fill="none" stroke="black" cx="756" cy="-36" rx="36" ry="36"/>
<text text-anchor="middle" x="756" y="-32.5" font-family="Times New Roman,serif" font-size="10.00">Class_14&#45;医生</text>
</g>
<!-- node0029&#45;&gt;node0023 -->
<g id="edge30" class="edge">
<title>node0029&#45;&gt;node0023</title>
<path fill="none" stroke="black" d="M782.35,-60.91C803.44,-80.05 833.2,-107.06 856.25,-127.96"/>
<polygon fill="black" stroke="black" points="853.84,-130.51 863.6,-134.63 858.54,-125.32 853.84,-130.51"/>
<text text-anchor="middle" x="840.96" y="-93.2" font-family="Times New Roman,serif" font-size="14.00">is a</text>
</g>
<!-- node0030 -->
<g id="node31" class="node">
<title>node0030</title>
<ellipse fill="none" stroke="black" cx="846" cy="-36" rx="36" ry="36"/>
<text text-anchor="middle" x="846" y="-32.5" font-family="Times New Roman,serif" font-size="10.00">Class_14&#45;救助</text>
</g>
<!-- node0030&#45;&gt;node0023 -->
<g id="edge31" class="edge">
<title>node0030&#45;&gt;node0023</title>
<path fill="none" stroke="black" d="M858.18,-70.15C863.33,-84.18 869.4,-100.71 874.92,-115.72"/>
<polygon fill="black" stroke="black" points="871.56,-116.72 878.29,-124.9 878.13,-114.31 871.56,-116.72"/>
<text text-anchor="middle" x="880.57" y="-93.2" font-family="Times New Roman,serif" font-size="14.00">is a</text>
</g>
<!-- node0031 -->
<g id="node32" class="node">
<title>node0031</title>
<ellipse fill="none" stroke="black" cx="936" cy="-36" rx="36" ry="36"/>
<text text-anchor="middle" x="936" y="-32.12" font-family="Times New Roman,serif" font-size="10.00">plan1</text>
</g>
<!-- node0031&#45;&gt;node0023 -->
<g id="edge32" class="edge">
<title>node0031&#45;&gt;node0023</title>
<path fill="none" stroke="black" d="M923.82,-70.15C918.67,-84.18 912.6,-100.71 907.08,-115.72"/>
<polygon fill="black" stroke="black" points="903.87,-114.31 903.71,-124.9 910.44,-116.72 903.87,-114.31"/>
<text text-anchor="middle" x="925.57" y="-93.2" font-family="Times New Roman,serif" font-size="14.00">is a</text>
</g>
<!-- node0032 -->
<g id="node33" class="node">
<title>node0032</title>
<ellipse fill="none" stroke="black" cx="1026" cy="-36" rx="36" ry="36"/>
<text text-anchor="middle" x="1026" y="-32.5" font-family="Times New Roman,serif" font-size="10.00">plan1&#45;救助</text>
</g>
<!-- node0032&#45;&gt;node0023 -->
<g id="edge33" class="edge">
<title>node0032&#45;&gt;node0023</title>
<path fill="none" stroke="black" d="M999.65,-60.91C978.56,-80.05 948.8,-107.06 925.75,-127.96"/>
<polygon fill="black" stroke="black" points="923.46,-125.32 918.4,-134.63 928.16,-130.51 923.46,-125.32"/>
<text text-anchor="middle" x="975.96" y="-93.2" font-family="Times New Roman,serif" font-size="14.00">is a</text>
</g>
<!-- node0033 -->
<g id="node34" class="node">
<title>node0033</title>
<ellipse fill="none" stroke="black" cx="1116" cy="-36" rx="36" ry="36"/>
<text text-anchor="middle" x="1116" y="-32.5" font-family="Times New Roman,serif" font-size="10.00">plan1&#45;人员</text>
</g>
<!-- node0033&#45;&gt;node0023 -->
<g id="edge34" class="edge">
<title>node0033&#45;&gt;node0023</title>
<path fill="none" stroke="black" d="M1088.57,-59.78C1082.91,-64.06 1076.88,-68.34 1071,-72 1026.57,-99.66 972.1,-125.06 934.8,-141.29"/>
<polygon fill="black" stroke="black" points="933.47,-138.05 925.67,-145.22 936.24,-144.48 933.47,-138.05"/>
<text text-anchor="middle" x="1047.32" y="-93.2" font-family="Times New Roman,serif" font-size="14.00">is a</text>
</g>
<!-- node0034 -->
<g id="node35" class="node">
<title>node0034</title>
<ellipse fill="none" stroke="black" cx="666" cy="-36" rx="36" ry="36"/>
<text text-anchor="middle" x="666" y="-32.12" font-family="Times New Roman,serif" font-size="10.00">Class_14</text>
</g>
<!-- node0034&#45;&gt;node0023 -->
<g id="edge35" class="edge">
<title>node0034&#45;&gt;node0023</title>
<path fill="none" stroke="black" d="M693.43,-59.78C699.09,-64.06 705.12,-68.34 711,-72 755.43,-99.66 809.9,-125.06 847.2,-141.29"/>
<polygon fill="black" stroke="black" points="845.76,-144.48 856.33,-145.22 848.53,-138.05 845.76,-144.48"/>
<text text-anchor="middle" x="777.91" y="-93.2" font-family="Times New Roman,serif" font-size="14.00">is a</text>
</g>
<!-- node0035 -->
<g id="node36" class="node">
<title>node0035</title>
<ellipse fill="none" stroke="black" cx="1476" cy="-36" rx="36" ry="36"/>
<text text-anchor="middle" x="1476" y="-32.12" font-family="Times New Roman,serif" font-size="10.00">AffectedVehicle</text>
</g>
<!-- node0035&#45;&gt;node0024 -->
<g id="edge36" class="edge">
<title>node0035&#45;&gt;node0024</title>
<path fill="none" stroke="black" d="M1463.82,-70.15C1458.67,-84.18 1452.6,-100.71 1447.08,-115.72"/>
<polygon fill="black" stroke="black" points="1443.87,-114.31 1443.71,-124.9 1450.44,-116.72 1443.87,-114.31"/>
<text text-anchor="middle" x="1465.57" y="-93.2" font-family="Times New Roman,serif" font-size="14.00">is a</text>
</g>
<!-- node0036 -->
<g id="node37" class="node">
<title>node0036</title>
<ellipse fill="none" stroke="black" cx="1566" cy="-36" rx="36" ry="36"/>
<text text-anchor="middle" x="1566" y="-32.12" font-family="Times New Roman,serif" font-size="10.00">hello</text>
</g>
<!-- node0036&#45;&gt;node0024 -->
<g id="edge37" class="edge">
<title>node0036&#45;&gt;node0024</title>
<path fill="none" stroke="black" d="M1539.65,-60.91C1518.56,-80.05 1488.8,-107.06 1465.75,-127.96"/>
<polygon fill="black" stroke="black" points="1463.46,-125.32 1458.4,-134.63 1468.16,-130.51 1463.46,-125.32"/>
<text text-anchor="middle" x="1515.96" y="-93.2" font-family="Times New Roman,serif" font-size="14.00">is a</text>
</g>
<!-- node0037 -->
<g id="node38" class="node">
<title>node0037</title>
<ellipse fill="none" stroke="black" cx="1296" cy="-36" rx="36" ry="36"/>
<text text-anchor="middle" x="1296" y="-32.12" font-family="Times New Roman,serif" font-size="10.00">hob</text>
</g>
<!-- node0037&#45;&gt;node0024 -->
<g id="edge38" class="edge">
<title>node0037&#45;&gt;node0024</title>
<path fill="none" stroke="black" d="M1322.35,-60.91C1343.44,-80.05 1373.2,-107.06 1396.25,-127.96"/>
<polygon fill="black" stroke="black" points="1393.84,-130.51 1403.6,-134.63 1398.54,-125.32 1393.84,-130.51"/>
<text text-anchor="middle" x="1380.96" y="-93.2" font-family="Times New Roman,serif" font-size="14.00">is a</text>
</g>
<!-- node0038 -->
<g id="node39" class="node">
<title>node0038</title>
<ellipse fill="none" stroke="black" cx="1386" cy="-36" rx="36" ry="36"/>
<text text-anchor="middle" x="1386" y="-32.12" font-family="Times New Roman,serif" font-size="10.00">Class_23</text>
</g>
<!-- node0038&#45;&gt;node0024 -->
<g id="edge39" class="edge">
<title>node0038&#45;&gt;node0024</title>
<path fill="none" stroke="black" d="M1398.18,-70.15C1403.33,-84.18 1409.4,-100.71 1414.92,-115.72"/>
<polygon fill="black" stroke="black" points="1411.56,-116.72 1418.29,-124.9 1418.13,-114.31 1411.56,-116.72"/>
<text text-anchor="middle" x="1420.57" y="-93.2" font-family="Times New Roman,serif" font-size="14.00">is a</text>
</g>
<!-- node0039 -->
<g id="node40" class="node">
<title>node0039</title>
<ellipse fill="none" stroke="black" cx="1206" cy="-36" rx="36" ry="36"/>
<text text-anchor="middle" x="1206" y="-32.12" font-family="Times New Roman,serif" font-size="10.00">HazardVehicle</text>
</g>
<!-- node0039&#45;&gt;node0025 -->
<g id="edge40" class="edge">
<title>node0039&#45;&gt;node0025</title>
<path fill="none" stroke="black" d="M1182.33,-63.28C1169.86,-76.66 1154.07,-92.93 1139,-106.5 1129.55,-115.01 1118.87,-123.71 1108.84,-131.54"/>
<polygon fill="black" stroke="black" points="1106.84,-128.66 1101.05,-137.53 1111.11,-134.21 1106.84,-128.66"/>
<text text-anchor="middle" x="1165.68" y="-93.2" font-family="Times New Roman,serif" font-size="14.00">is a</text>
</g>
</g>
</svg>
