<?xml version="1.0" encoding="UTF-8" standalone="no"?>
<!DOCTYPE svg PUBLIC "-//W3C//DTD SVG 1.1//EN"
 "http://www.w3.org/Graphics/SVG/1.1/DTD/svg11.dtd">
<!-- Generated by graphviz version 12.1.2 (20240928.0832)
 -->
<!-- Title: G Pages: 1 -->
<svg width="1700pt" height="454pt"
 viewBox="0.00 0.00 1700.00 453.50" xmlns="http://www.w3.org/2000/svg" xmlns:xlink="http://www.w3.org/1999/xlink">
<g id="graph0" class="graph" transform="scale(1 1) rotate(0) translate(4 449.5)">
<title>G</title>
<polygon fill="white" stroke="none" points="-4,4 -4,-449.5 1696,-449.5 1696,4 -4,4"/>
<!-- node0000 -->
<g id="node1" class="node">
<title>node0000</title>
<ellipse fill="none" stroke="black" cx="1128" cy="-409.5" rx="36" ry="36"/>
<text text-anchor="middle" x="1128" y="-405.62" font-family="Times New Roman,serif" font-size="10.00">Thing</text>
</g>
<!-- node0001 -->
<g id="node2" class="node">
<title>node0001</title>
<ellipse fill="none" stroke="black" cx="621" cy="-285" rx="36" ry="36"/>
<text text-anchor="middle" x="621" y="-281.12" font-family="Times New Roman,serif" font-size="10.00">ScenarioElement</text>
</g>
<!-- node0001&#45;&gt;node0000 -->
<g id="edge1" class="edge">
<title>node0001&#45;&gt;node0000</title>
<path fill="none" stroke="black" d="M655.85,-294.42C745.03,-315.97 981.56,-373.12 1081.93,-397.37"/>
<polygon fill="black" stroke="black" points="1080.89,-400.72 1091.44,-399.67 1082.54,-393.91 1080.89,-400.72"/>
<text text-anchor="middle" x="914.23" y="-342.2" font-family="Times New Roman,serif" font-size="14.00">is a</text>
</g>
<!-- node0002 -->
<g id="node3" class="node">
<title>node0002</title>
<ellipse fill="none" stroke="black" cx="1431" cy="-160.5" rx="36" ry="36"/>
<text text-anchor="middle" x="1431" y="-156.62" font-family="Times New Roman,serif" font-size="10.00">Item</text>
</g>
<!-- node0002&#45;&gt;node0000 -->
<g id="edge2" class="edge">
<title>node0002&#45;&gt;node0000</title>
<path fill="none" stroke="black" d="M1403.31,-184.07C1348.31,-228.91 1225.33,-329.15 1164.09,-379.08"/>
<polygon fill="black" stroke="black" points="1162.23,-376.08 1156.69,-385.11 1166.65,-381.51 1162.23,-376.08"/>
<text text-anchor="middle" x="1328.85" y="-279.95" font-family="Times New Roman,serif" font-size="14.00">is a</text>
</g>
<!-- node0003 -->
<g id="node4" class="node">
<title>node0003</title>
<ellipse fill="none" stroke="black" cx="1071" cy="-160.5" rx="36" ry="36"/>
<text text-anchor="middle" x="1071" y="-156.62" font-family="Times New Roman,serif" font-size="10.00">AffectedElement</text>
</g>
<!-- node0003&#45;&gt;node0001 -->
<g id="edge3" class="edge">
<title>node0003&#45;&gt;node0001</title>
<path fill="none" stroke="black" d="M1036.06,-171.01C955.56,-192.92 757.03,-246.97 666.87,-271.51"/>
<polygon fill="black" stroke="black" points="666.1,-268.09 657.37,-274.1 667.94,-274.85 666.1,-268.09"/>
<text text-anchor="middle" x="882.32" y="-217.7" font-family="Times New Roman,serif" font-size="14.00">is a</text>
</g>
<!-- node0004 -->
<g id="node5" class="node">
<title>node0004</title>
<ellipse fill="none" stroke="black" cx="81" cy="-160.5" rx="36" ry="36"/>
<text text-anchor="middle" x="81" y="-156.62" font-family="Times New Roman,serif" font-size="10.00">HazardElement</text>
</g>
<!-- node0004&#45;&gt;node0001 -->
<g id="edge4" class="edge">
<title>node0004&#45;&gt;node0001</title>
<path fill="none" stroke="black" d="M115.87,-170.96C143.07,-178.24 181.84,-188.39 216,-196.5 345.48,-227.26 499.33,-259.26 574.7,-274.64"/>
<polygon fill="black" stroke="black" points="573.7,-278.01 584.19,-276.57 575.09,-271.15 573.7,-278.01"/>
<text text-anchor="middle" x="369.8" y="-217.7" font-family="Times New Roman,serif" font-size="14.00">is a</text>
</g>
<!-- node0005 -->
<g id="node6" class="node">
<title>node0005</title>
<ellipse fill="none" stroke="black" cx="261" cy="-160.5" rx="36" ry="36"/>
<text text-anchor="middle" x="261" y="-156.62" font-family="Times New Roman,serif" font-size="10.00">EnvironmentElement</text>
</g>
<!-- node0005&#45;&gt;node0001 -->
<g id="edge5" class="edge">
<title>node0005&#45;&gt;node0001</title>
<path fill="none" stroke="black" d="M295.19,-173.13C360.55,-195.37 503.18,-243.91 576.11,-268.73"/>
<polygon fill="black" stroke="black" points="574.75,-271.96 585.34,-271.87 577,-265.33 574.75,-271.96"/>
<text text-anchor="middle" x="471.93" y="-217.7" font-family="Times New Roman,serif" font-size="14.00">is a</text>
</g>
<!-- node0006 -->
<g id="node7" class="node">
<title>node0006</title>
<ellipse fill="none" stroke="black" cx="621" cy="-160.5" rx="36" ry="36"/>
<text text-anchor="middle" x="621" y="-156.62" font-family="Times New Roman,serif" font-size="10.00">ResponsePlanElement</text>
</g>
<!-- node0006&#45;&gt;node0001 -->
<g id="edge6" class="edge">
<title>node0006&#45;&gt;node0001</title>
<path fill="none" stroke="black" d="M621,-196.93C621,-209.5 621,-223.85 621,-237.22"/>
<polygon fill="black" stroke="black" points="617.5,-237.13 621,-247.13 624.5,-237.13 617.5,-237.13"/>
<text text-anchor="middle" x="630.38" y="-217.7" font-family="Times New Roman,serif" font-size="14.00">is a</text>
</g>
<!-- node0007 -->
<g id="node8" class="node">
<title>node0007</title>
<ellipse fill="none" stroke="black" cx="1386" cy="-36" rx="36" ry="36"/>
<text text-anchor="middle" x="1386" y="-32.12" font-family="Times New Roman,serif" font-size="10.00">passenger</text>
</g>
<!-- node0007&#45;&gt;node0002 -->
<g id="edge7" class="edge">
<title>node0007&#45;&gt;node0002</title>
<path fill="none" stroke="black" d="M1398.18,-70.15C1403.33,-84.18 1409.4,-100.71 1414.92,-115.72"/>
<polygon fill="black" stroke="black" points="1411.56,-116.72 1418.29,-124.9 1418.13,-114.31 1411.56,-116.72"/>
<text text-anchor="middle" x="1420.57" y="-93.2" font-family="Times New Roman,serif" font-size="14.00">is a</text>
</g>
<!-- node0008 -->
<g id="node9" class="node">
<title>node0008</title>
<ellipse fill="none" stroke="black" cx="1476" cy="-36" rx="36" ry="36"/>
<text text-anchor="middle" x="1476" y="-32.12" font-family="Times New Roman,serif" font-size="10.00">Class_1</text>
</g>
<!-- node0008&#45;&gt;node0002 -->
<g id="edge8" class="edge">
<title>node0008&#45;&gt;node0002</title>
<path fill="none" stroke="black" d="M1463.82,-70.15C1458.67,-84.18 1452.6,-100.71 1447.08,-115.72"/>
<polygon fill="black" stroke="black" points="1443.87,-114.31 1443.71,-124.9 1450.44,-116.72 1443.87,-114.31"/>
<text text-anchor="middle" x="1465.57" y="-93.2" font-family="Times New Roman,serif" font-size="14.00">is a</text>
</g>
<!-- node0009 -->
<g id="node10" class="node">
<title>node0009</title>
<ellipse fill="none" stroke="black" cx="1566" cy="-36" rx="36" ry="36"/>
<text text-anchor="middle" x="1566" y="-32.12" font-family="Times New Roman,serif" font-size="10.00">Class_2</text>
</g>
<!-- node0009&#45;&gt;node0002 -->
<g id="edge9" class="edge">
<title>node0009&#45;&gt;node0002</title>
<path fill="none" stroke="black" d="M1539.65,-60.91C1518.56,-80.05 1488.8,-107.06 1465.75,-127.96"/>
<polygon fill="black" stroke="black" points="1463.46,-125.32 1458.4,-134.63 1468.16,-130.51 1463.46,-125.32"/>
<text text-anchor="middle" x="1515.96" y="-93.2" font-family="Times New Roman,serif" font-size="14.00">is a</text>
</g>
<!-- node0010 -->
<g id="node11" class="node">
<title>node0010</title>
<ellipse fill="none" stroke="black" cx="1656" cy="-36" rx="36" ry="36"/>
<text text-anchor="middle" x="1656" y="-32.12" font-family="Times New Roman,serif" font-size="10.00">lane1</text>
</g>
<!-- node0010&#45;&gt;node0002 -->
<g id="edge10" class="edge">
<title>node0010&#45;&gt;node0002</title>
<path fill="none" stroke="black" d="M1628.57,-59.78C1622.91,-64.06 1616.88,-68.34 1611,-72 1566.57,-99.66 1512.1,-125.06 1474.8,-141.29"/>
<polygon fill="black" stroke="black" points="1473.47,-138.05 1465.67,-145.22 1476.24,-144.48 1473.47,-138.05"/>
<text text-anchor="middle" x="1587.32" y="-93.2" font-family="Times New Roman,serif" font-size="14.00">is a</text>
</g>
<!-- node0011 -->
<g id="node12" class="node">
<title>node0011</title>
<ellipse fill="none" stroke="black" cx="1296" cy="-36" rx="36" ry="36"/>
<text text-anchor="middle" x="1296" y="-32.12" font-family="Times New Roman,serif" font-size="10.00">human1</text>
</g>
<!-- node0011&#45;&gt;node0002 -->
<g id="edge11" class="edge">
<title>node0011&#45;&gt;node0002</title>
<path fill="none" stroke="black" d="M1322.35,-60.91C1343.44,-80.05 1373.2,-107.06 1396.25,-127.96"/>
<polygon fill="black" stroke="black" points="1393.84,-130.51 1403.6,-134.63 1398.54,-125.32 1393.84,-130.51"/>
<text text-anchor="middle" x="1380.96" y="-93.2" font-family="Times New Roman,serif" font-size="14.00">is a</text>
</g>
<!-- node0011&#45;&gt;node0003 -->
<g id="edge12" class="edge">
<title>node0011&#45;&gt;node0003</title>
<path fill="none" stroke="black" d="M1268.57,-59.78C1262.91,-64.06 1256.88,-68.34 1251,-72 1206.57,-99.66 1152.1,-125.06 1114.8,-141.29"/>
<polygon fill="black" stroke="black" points="1113.47,-138.05 1105.67,-145.22 1116.24,-144.48 1113.47,-138.05"/>
<text text-anchor="middle" x="1227.32" y="-93.2" font-family="Times New Roman,serif" font-size="14.00">is a</text>
</g>
<!-- node0012 -->
<g id="node13" class="node">
<title>node0012</title>
<ellipse fill="none" stroke="black" cx="1026" cy="-36" rx="36" ry="36"/>
<text text-anchor="middle" x="1026" y="-32.12" font-family="Times New Roman,serif" font-size="10.00">hello</text>
</g>
<!-- node0012&#45;&gt;node0003 -->
<g id="edge13" class="edge">
<title>node0012&#45;&gt;node0003</title>
<path fill="none" stroke="black" d="M1038.18,-70.15C1043.33,-84.18 1049.4,-100.71 1054.92,-115.72"/>
<polygon fill="black" stroke="black" points="1051.56,-116.72 1058.29,-124.9 1058.13,-114.31 1051.56,-116.72"/>
<text text-anchor="middle" x="1060.57" y="-93.2" font-family="Times New Roman,serif" font-size="14.00">is a</text>
</g>
<!-- node0013 -->
<g id="node14" class="node">
<title>node0013</title>
<ellipse fill="none" stroke="black" cx="1116" cy="-36" rx="36" ry="36"/>
<text text-anchor="middle" x="1116" y="-32.12" font-family="Times New Roman,serif" font-size="10.00">AffectedVehicle</text>
</g>
<!-- node0013&#45;&gt;node0003 -->
<g id="edge14" class="edge">
<title>node0013&#45;&gt;node0003</title>
<path fill="none" stroke="black" d="M1103.82,-70.15C1098.67,-84.18 1092.6,-100.71 1087.08,-115.72"/>
<polygon fill="black" stroke="black" points="1083.87,-114.31 1083.71,-124.9 1090.44,-116.72 1083.87,-114.31"/>
<text text-anchor="middle" x="1105.57" y="-93.2" font-family="Times New Roman,serif" font-size="14.00">is a</text>
</g>
<!-- node0014 -->
<g id="node15" class="node">
<title>node0014</title>
<ellipse fill="none" stroke="black" cx="1206" cy="-36" rx="36" ry="36"/>
<text text-anchor="middle" x="1206" y="-32.12" font-family="Times New Roman,serif" font-size="10.00">Class_23</text>
</g>
<!-- node0014&#45;&gt;node0003 -->
<g id="edge15" class="edge">
<title>node0014&#45;&gt;node0003</title>
<path fill="none" stroke="black" d="M1179.65,-60.91C1158.56,-80.05 1128.8,-107.06 1105.75,-127.96"/>
<polygon fill="black" stroke="black" points="1103.46,-125.32 1098.4,-134.63 1108.16,-130.51 1103.46,-125.32"/>
<text text-anchor="middle" x="1155.96" y="-93.2" font-family="Times New Roman,serif" font-size="14.00">is a</text>
</g>
<!-- node0015 -->
<g id="node16" class="node">
<title>node0015</title>
<ellipse fill="none" stroke="black" cx="936" cy="-36" rx="36" ry="36"/>
<text text-anchor="middle" x="936" y="-32.12" font-family="Times New Roman,serif" font-size="10.00">hob</text>
</g>
<!-- node0015&#45;&gt;node0003 -->
<g id="edge16" class="edge">
<title>node0015&#45;&gt;node0003</title>
<path fill="none" stroke="black" d="M962.35,-60.91C983.44,-80.05 1013.2,-107.06 1036.25,-127.96"/>
<polygon fill="black" stroke="black" points="1033.84,-130.51 1043.6,-134.63 1038.54,-125.32 1033.84,-130.51"/>
<text text-anchor="middle" x="1020.96" y="-93.2" font-family="Times New Roman,serif" font-size="14.00">is a</text>
</g>
<!-- node0016 -->
<g id="node17" class="node">
<title>node0016</title>
<ellipse fill="none" stroke="black" cx="36" cy="-36" rx="36" ry="36"/>
<text text-anchor="middle" x="36" y="-32.12" font-family="Times New Roman,serif" font-size="10.00">HazardVehicle</text>
</g>
<!-- node0016&#45;&gt;node0004 -->
<g id="edge17" class="edge">
<title>node0016&#45;&gt;node0004</title>
<path fill="none" stroke="black" d="M48.18,-70.15C53.33,-84.18 59.4,-100.71 64.92,-115.72"/>
<polygon fill="black" stroke="black" points="61.56,-116.72 68.29,-124.9 68.13,-114.31 61.56,-116.72"/>
<text text-anchor="middle" x="70.57" y="-93.2" font-family="Times New Roman,serif" font-size="14.00">is a</text>
</g>
<!-- node0017 -->
<g id="node18" class="node">
<title>node0017</title>
<ellipse fill="none" stroke="black" cx="216" cy="-36" rx="36" ry="36"/>
<text text-anchor="middle" x="216" y="-32.12" font-family="Times New Roman,serif" font-size="10.00">Road</text>
</g>
<!-- node0017&#45;&gt;node0005 -->
<g id="edge18" class="edge">
<title>node0017&#45;&gt;node0005</title>
<path fill="none" stroke="black" d="M228.18,-70.15C233.33,-84.18 239.4,-100.71 244.92,-115.72"/>
<polygon fill="black" stroke="black" points="241.56,-116.72 248.29,-124.9 248.13,-114.31 241.56,-116.72"/>
<text text-anchor="middle" x="250.57" y="-93.2" font-family="Times New Roman,serif" font-size="14.00">is a</text>
</g>
<!-- node0018 -->
<g id="node19" class="node">
<title>node0018</title>
<ellipse fill="none" stroke="black" cx="306" cy="-36" rx="36" ry="36"/>
<text text-anchor="middle" x="306" y="-32.12" font-family="Times New Roman,serif" font-size="10.00">Meteorology</text>
</g>
<!-- node0018&#45;&gt;node0005 -->
<g id="edge19" class="edge">
<title>node0018&#45;&gt;node0005</title>
<path fill="none" stroke="black" d="M293.82,-70.15C288.67,-84.18 282.6,-100.71 277.08,-115.72"/>
<polygon fill="black" stroke="black" points="273.87,-114.31 273.71,-124.9 280.44,-116.72 273.87,-114.31"/>
<text text-anchor="middle" x="295.57" y="-93.2" font-family="Times New Roman,serif" font-size="14.00">is a</text>
</g>
<!-- node0019 -->
<g id="node20" class="node">
<title>node0019</title>
<ellipse fill="none" stroke="black" cx="126" cy="-36" rx="36" ry="36"/>
<text text-anchor="middle" x="126" y="-32.12" font-family="Times New Roman,serif" font-size="10.00">hoa</text>
</g>
<!-- node0019&#45;&gt;node0005 -->
<g id="edge20" class="edge">
<title>node0019&#45;&gt;node0005</title>
<path fill="none" stroke="black" d="M152.35,-60.91C173.44,-80.05 203.2,-107.06 226.25,-127.96"/>
<polygon fill="black" stroke="black" points="223.84,-130.51 233.6,-134.63 228.54,-125.32 223.84,-130.51"/>
<text text-anchor="middle" x="210.96" y="-93.2" font-family="Times New Roman,serif" font-size="14.00">is a</text>
</g>
<!-- node0020 -->
<g id="node21" class="node">
<title>node0020</title>
<ellipse fill="none" stroke="black" cx="756" cy="-36" rx="36" ry="36"/>
<text text-anchor="middle" x="756" y="-32.12" font-family="Times New Roman,serif" font-size="10.00">plan1</text>
</g>
<!-- node0020&#45;&gt;node0006 -->
<g id="edge21" class="edge">
<title>node0020&#45;&gt;node0006</title>
<path fill="none" stroke="black" d="M729.65,-60.91C708.56,-80.05 678.8,-107.06 655.75,-127.96"/>
<polygon fill="black" stroke="black" points="653.46,-125.32 648.4,-134.63 658.16,-130.51 653.46,-125.32"/>
<text text-anchor="middle" x="705.96" y="-93.2" font-family="Times New Roman,serif" font-size="14.00">is a</text>
</g>
<!-- node0021 -->
<g id="node22" class="node">
<title>node0021</title>
<ellipse fill="none" stroke="black" cx="846" cy="-36" rx="36" ry="36"/>
<text text-anchor="middle" x="846" y="-32.5" font-family="Times New Roman,serif" font-size="10.00">plan1&#45;人员</text>
</g>
<!-- node0021&#45;&gt;node0006 -->
<g id="edge22" class="edge">
<title>node0021&#45;&gt;node0006</title>
<path fill="none" stroke="black" d="M818.57,-59.78C812.91,-64.06 806.88,-68.34 801,-72 756.57,-99.66 702.1,-125.06 664.8,-141.29"/>
<polygon fill="black" stroke="black" points="663.47,-138.05 655.67,-145.22 666.24,-144.48 663.47,-138.05"/>
<text text-anchor="middle" x="777.32" y="-93.2" font-family="Times New Roman,serif" font-size="14.00">is a</text>
</g>
<!-- node0022 -->
<g id="node23" class="node">
<title>node0022</title>
<ellipse fill="none" stroke="black" cx="396" cy="-36" rx="36" ry="36"/>
<text text-anchor="middle" x="396" y="-32.5" font-family="Times New Roman,serif" font-size="10.00">plan1&#45;救助</text>
</g>
<!-- node0022&#45;&gt;node0006 -->
<g id="edge23" class="edge">
<title>node0022&#45;&gt;node0006</title>
<path fill="none" stroke="black" d="M423.43,-59.78C429.09,-64.06 435.12,-68.34 441,-72 485.43,-99.66 539.9,-125.06 577.2,-141.29"/>
<polygon fill="black" stroke="black" points="575.76,-144.48 586.33,-145.22 578.53,-138.05 575.76,-144.48"/>
<text text-anchor="middle" x="507.91" y="-93.2" font-family="Times New Roman,serif" font-size="14.00">is a</text>
</g>
<!-- node0023 -->
<g id="node24" class="node">
<title>node0023</title>
<ellipse fill="none" stroke="black" cx="486" cy="-36" rx="36" ry="36"/>
<text text-anchor="middle" x="486" y="-32.12" font-family="Times New Roman,serif" font-size="10.00">Class_14</text>
</g>
<!-- node0023&#45;&gt;node0006 -->
<g id="edge24" class="edge">
<title>node0023&#45;&gt;node0006</title>
<path fill="none" stroke="black" d="M512.35,-60.91C533.44,-80.05 563.2,-107.06 586.25,-127.96"/>
<polygon fill="black" stroke="black" points="583.84,-130.51 593.6,-134.63 588.54,-125.32 583.84,-130.51"/>
<text text-anchor="middle" x="570.96" y="-93.2" font-family="Times New Roman,serif" font-size="14.00">is a</text>
</g>
<!-- node0024 -->
<g id="node25" class="node">
<title>node0024</title>
<ellipse fill="none" stroke="black" cx="576" cy="-36" rx="36" ry="36"/>
<text text-anchor="middle" x="576" y="-32.5" font-family="Times New Roman,serif" font-size="10.00">Class_14&#45;医生</text>
</g>
<!-- node0024&#45;&gt;node0006 -->
<g id="edge25" class="edge">
<title>node0024&#45;&gt;node0006</title>
<path fill="none" stroke="black" d="M588.18,-70.15C593.33,-84.18 599.4,-100.71 604.92,-115.72"/>
<polygon fill="black" stroke="black" points="601.56,-116.72 608.29,-124.9 608.13,-114.31 601.56,-116.72"/>
<text text-anchor="middle" x="610.57" y="-93.2" font-family="Times New Roman,serif" font-size="14.00">is a</text>
</g>
<!-- node0025 -->
<g id="node26" class="node">
<title>node0025</title>
<ellipse fill="none" stroke="black" cx="666" cy="-36" rx="36" ry="36"/>
<text text-anchor="middle" x="666" y="-32.5" font-family="Times New Roman,serif" font-size="10.00">Class_14&#45;救助</text>
</g>
<!-- node0025&#45;&gt;node0006 -->
<g id="edge26" class="edge">
<title>node0025&#45;&gt;node0006</title>
<path fill="none" stroke="black" d="M653.82,-70.15C648.67,-84.18 642.6,-100.71 637.08,-115.72"/>
<polygon fill="black" stroke="black" points="633.87,-114.31 633.71,-124.9 640.44,-116.72 633.87,-114.31"/>
<text text-anchor="middle" x="655.57" y="-93.2" font-family="Times New Roman,serif" font-size="14.00">is a</text>
</g>
</g>
</svg>
