<?xml version="1.0" encoding="UTF-8" standalone="no"?>
<!DOCTYPE svg PUBLIC "-//W3C//DTD SVG 1.1//EN"
 "http://www.w3.org/Graphics/SVG/1.1/DTD/svg11.dtd">
<!-- Generated by graphviz version 12.1.2 (20240928.0832)
 -->
<!-- Title: G Pages: 1 -->
<svg width="3050pt" height="454pt"
 viewBox="0.00 0.00 3050.00 453.50" xmlns="http://www.w3.org/2000/svg" xmlns:xlink="http://www.w3.org/1999/xlink">
<g id="graph0" class="graph" transform="scale(1 1) rotate(0) translate(4 449.5)">
<title>G</title>
<polygon fill="white" stroke="none" points="-4,4 -4,-449.5 3046,-449.5 3046,4 -4,4"/>
<!-- node0000 -->
<g id="node1" class="node">
<title>node0000</title>
<ellipse fill="none" stroke="black" cx="2736" cy="-409.5" rx="36" ry="36"/>
<text text-anchor="middle" x="2736" y="-405.62" font-family="Times New Roman,serif" font-size="10.00">Thing</text>
</g>
<!-- node0001 -->
<g id="node2" class="node">
<title>node0001</title>
<ellipse fill="none" stroke="black" cx="396" cy="-285" rx="36" ry="36"/>
<text text-anchor="middle" x="396" y="-281.12" font-family="Times New Roman,serif" font-size="10.00">ScenarioElement</text>
</g>
<!-- node0001&#45;&gt;node0000 -->
<g id="edge1" class="edge">
<title>node0001&#45;&gt;node0000</title>
<path fill="none" stroke="black" d="M432.29,-287.9C701.32,-301.98 2383.76,-390.06 2688.65,-406.02"/>
<polygon fill="black" stroke="black" points="2688.04,-409.49 2698.21,-406.52 2688.41,-402.5 2688.04,-409.49"/>
<text text-anchor="middle" x="1715.48" y="-342.2" font-family="Times New Roman,serif" font-size="14.00">is a</text>
</g>
<!-- node0002 -->
<g id="node3" class="node">
<title>node0002</title>
<ellipse fill="none" stroke="black" cx="2331" cy="-285" rx="36" ry="36"/>
<text text-anchor="middle" x="2331" y="-281.12" font-family="Times New Roman,serif" font-size="10.00">ElementCompositions</text>
</g>
<!-- node0002&#45;&gt;node0000 -->
<g id="edge2" class="edge">
<title>node0002&#45;&gt;node0000</title>
<path fill="none" stroke="black" d="M2365.53,-296.44C2438.61,-318.55 2608.89,-370.05 2690.63,-394.78"/>
<polygon fill="black" stroke="black" points="2689.52,-398.1 2700.11,-397.64 2691.55,-391.4 2689.52,-398.1"/>
<text text-anchor="middle" x="2567.12" y="-342.2" font-family="Times New Roman,serif" font-size="14.00">is a</text>
</g>
<!-- node0003 -->
<g id="node4" class="node">
<title>node0003</title>
<ellipse fill="none" stroke="black" cx="2646" cy="-285" rx="36" ry="36"/>
<text text-anchor="middle" x="2646" y="-281.12" font-family="Times New Roman,serif" font-size="10.00">ElementState</text>
</g>
<!-- node0003&#45;&gt;node0000 -->
<g id="edge3" class="edge">
<title>node0003&#45;&gt;node0000</title>
<path fill="none" stroke="black" d="M2667.1,-314.72C2679.4,-331.46 2695.06,-352.77 2708.33,-370.84"/>
<polygon fill="black" stroke="black" points="2705.39,-372.75 2714.14,-378.74 2711.03,-368.61 2705.39,-372.75"/>
<text text-anchor="middle" x="2705.76" y="-342.2" font-family="Times New Roman,serif" font-size="14.00">is a</text>
</g>
<!-- node0004 -->
<g id="node5" class="node">
<title>node0004</title>
<ellipse fill="none" stroke="black" cx="2736" cy="-285" rx="36" ry="36"/>
<text text-anchor="middle" x="2736" y="-281.12" font-family="Times New Roman,serif" font-size="10.00">aidStates</text>
</g>
<!-- node0004&#45;&gt;node0000 -->
<g id="edge4" class="edge">
<title>node0004&#45;&gt;node0000</title>
<path fill="none" stroke="black" d="M2736,-321.43C2736,-334 2736,-348.35 2736,-361.72"/>
<polygon fill="black" stroke="black" points="2732.5,-361.63 2736,-371.63 2739.5,-361.63 2732.5,-361.63"/>
<text text-anchor="middle" x="2745.38" y="-342.2" font-family="Times New Roman,serif" font-size="14.00">is a</text>
</g>
<!-- node0005 -->
<g id="node6" class="node">
<title>node0005</title>
<ellipse fill="none" stroke="black" cx="2826" cy="-285" rx="36" ry="36"/>
<text text-anchor="middle" x="2826" y="-281.12" font-family="Times New Roman,serif" font-size="10.00">firefightingStates</text>
</g>
<!-- node0005&#45;&gt;node0000 -->
<g id="edge5" class="edge">
<title>node0005&#45;&gt;node0000</title>
<path fill="none" stroke="black" d="M2804.9,-314.72C2792.6,-331.46 2776.94,-352.77 2763.67,-370.84"/>
<polygon fill="black" stroke="black" points="2760.97,-368.61 2757.86,-378.74 2766.61,-372.75 2760.97,-368.61"/>
<text text-anchor="middle" x="2795.76" y="-342.2" font-family="Times New Roman,serif" font-size="14.00">is a</text>
</g>
<!-- node0006 -->
<g id="node7" class="node">
<title>node0006</title>
<ellipse fill="none" stroke="black" cx="2916" cy="-285" rx="36" ry="36"/>
<text text-anchor="middle" x="2916" y="-281.12" font-family="Times New Roman,serif" font-size="10.00">rescueStates</text>
</g>
<!-- node0006&#45;&gt;node0000 -->
<g id="edge6" class="edge">
<title>node0006&#45;&gt;node0000</title>
<path fill="none" stroke="black" d="M2888.2,-308.22C2882.57,-312.55 2876.65,-316.99 2871,-321 2839.78,-343.2 2803.26,-366.73 2776.08,-383.79"/>
<polygon fill="black" stroke="black" points="2774.43,-380.7 2767.8,-388.96 2778.14,-386.63 2774.43,-380.7"/>
<text text-anchor="middle" x="2851.38" y="-342.2" font-family="Times New Roman,serif" font-size="14.00">is a</text>
</g>
<!-- node0007 -->
<g id="node8" class="node">
<title>node0007</title>
<ellipse fill="none" stroke="black" cx="3006" cy="-285" rx="36" ry="36"/>
<text text-anchor="middle" x="3006" y="-281.12" font-family="Times New Roman,serif" font-size="10.00">towStates</text>
</g>
<!-- node0007&#45;&gt;node0000 -->
<g id="edge7" class="edge">
<title>node0007&#45;&gt;node0000</title>
<path fill="none" stroke="black" d="M2978.8,-309.17C2973.12,-313.42 2967.03,-317.58 2961,-321 2902.23,-354.34 2828.25,-380.38 2781.53,-395.11"/>
<polygon fill="black" stroke="black" points="2780.51,-391.76 2772,-398.06 2782.58,-398.44 2780.51,-391.76"/>
<text text-anchor="middle" x="2935.41" y="-342.2" font-family="Times New Roman,serif" font-size="14.00">is a</text>
</g>
<!-- node0008 -->
<g id="node9" class="node">
<title>node0008</title>
<ellipse fill="none" stroke="black" cx="171" cy="-160.5" rx="36" ry="36"/>
<text text-anchor="middle" x="171" y="-156.62" font-family="Times New Roman,serif" font-size="10.00">AffectedElement</text>
</g>
<!-- node0008&#45;&gt;node0001 -->
<g id="edge8" class="edge">
<title>node0008&#45;&gt;node0001</title>
<path fill="none" stroke="black" d="M202.29,-178.53C241.97,-200.14 310.52,-237.46 354.53,-261.42"/>
<polygon fill="black" stroke="black" points="352.83,-264.48 363.29,-266.19 356.18,-258.34 352.83,-264.48"/>
<text text-anchor="middle" x="306.35" y="-217.7" font-family="Times New Roman,serif" font-size="14.00">is a</text>
</g>
<!-- node0009 -->
<g id="node10" class="node">
<title>node0009</title>
<ellipse fill="none" stroke="black" cx="306" cy="-160.5" rx="36" ry="36"/>
<text text-anchor="middle" x="306" y="-156.62" font-family="Times New Roman,serif" font-size="10.00">HazardElement</text>
</g>
<!-- node0009&#45;&gt;node0001 -->
<g id="edge9" class="edge">
<title>node0009&#45;&gt;node0001</title>
<path fill="none" stroke="black" d="M327.1,-190.22C339.4,-206.96 355.06,-228.27 368.33,-246.34"/>
<polygon fill="black" stroke="black" points="365.39,-248.25 374.14,-254.24 371.03,-244.11 365.39,-248.25"/>
<text text-anchor="middle" x="365.76" y="-217.7" font-family="Times New Roman,serif" font-size="14.00">is a</text>
</g>
<!-- node0010 -->
<g id="node11" class="node">
<title>node0010</title>
<ellipse fill="none" stroke="black" cx="396" cy="-160.5" rx="36" ry="36"/>
<text text-anchor="middle" x="396" y="-156.62" font-family="Times New Roman,serif" font-size="10.00">EnvironmentElement</text>
</g>
<!-- node0010&#45;&gt;node0001 -->
<g id="edge10" class="edge">
<title>node0010&#45;&gt;node0001</title>
<path fill="none" stroke="black" d="M396,-196.93C396,-209.5 396,-223.85 396,-237.22"/>
<polygon fill="black" stroke="black" points="392.5,-237.13 396,-247.13 399.5,-237.13 392.5,-237.13"/>
<text text-anchor="middle" x="405.38" y="-217.7" font-family="Times New Roman,serif" font-size="14.00">is a</text>
</g>
<!-- node0011 -->
<g id="node12" class="node">
<title>node0011</title>
<ellipse fill="none" stroke="black" cx="1341" cy="-160.5" rx="36" ry="36"/>
<text text-anchor="middle" x="1341" y="-156.62" font-family="Times New Roman,serif" font-size="10.00">ResponsePlanElement</text>
</g>
<!-- node0011&#45;&gt;node0001 -->
<g id="edge11" class="edge">
<title>node0011&#45;&gt;node0001</title>
<path fill="none" stroke="black" d="M1305.11,-166.15C1158.93,-185.1 608.35,-256.47 443.14,-277.89"/>
<polygon fill="black" stroke="black" points="442.9,-274.39 433.43,-279.15 443.79,-281.33 442.9,-274.39"/>
<text text-anchor="middle" x="934.45" y="-217.7" font-family="Times New Roman,serif" font-size="14.00">is a</text>
</g>
<!-- node0012 -->
<g id="node13" class="node">
<title>node0012</title>
<ellipse fill="none" stroke="black" cx="2106" cy="-160.5" rx="36" ry="36"/>
<text text-anchor="middle" x="2106" y="-156.62" font-family="Times New Roman,serif" font-size="10.00">IncludedLanes</text>
</g>
<!-- node0012&#45;&gt;node0002 -->
<g id="edge12" class="edge">
<title>node0012&#45;&gt;node0002</title>
<path fill="none" stroke="black" d="M2133.43,-184.28C2139.09,-188.56 2145.12,-192.84 2151,-196.5 2195.43,-224.16 2249.9,-249.56 2287.2,-265.79"/>
<polygon fill="black" stroke="black" points="2285.76,-268.98 2296.33,-269.72 2288.53,-262.55 2285.76,-268.98"/>
<text text-anchor="middle" x="2217.91" y="-217.7" font-family="Times New Roman,serif" font-size="14.00">is a</text>
</g>
<!-- node0013 -->
<g id="node14" class="node">
<title>node0013</title>
<ellipse fill="none" stroke="black" cx="2196" cy="-160.5" rx="36" ry="36"/>
<text text-anchor="middle" x="2196" y="-156.62" font-family="Times New Roman,serif" font-size="10.00">IncludedFacilities</text>
</g>
<!-- node0013&#45;&gt;node0002 -->
<g id="edge13" class="edge">
<title>node0013&#45;&gt;node0002</title>
<path fill="none" stroke="black" d="M2222.35,-185.41C2243.44,-204.55 2273.2,-231.56 2296.25,-252.46"/>
<polygon fill="black" stroke="black" points="2293.84,-255.01 2303.6,-259.13 2298.54,-249.82 2293.84,-255.01"/>
<text text-anchor="middle" x="2280.96" y="-217.7" font-family="Times New Roman,serif" font-size="14.00">is a</text>
</g>
<!-- node0014 -->
<g id="node15" class="node">
<title>node0014</title>
<ellipse fill="none" stroke="black" cx="2286" cy="-160.5" rx="36" ry="36"/>
<text text-anchor="middle" x="2286" y="-156.62" font-family="Times New Roman,serif" font-size="10.00">VehicleCargo</text>
</g>
<!-- node0014&#45;&gt;node0002 -->
<g id="edge14" class="edge">
<title>node0014&#45;&gt;node0002</title>
<path fill="none" stroke="black" d="M2298.18,-194.65C2303.33,-208.68 2309.4,-225.21 2314.92,-240.22"/>
<polygon fill="black" stroke="black" points="2311.56,-241.22 2318.29,-249.4 2318.13,-238.81 2311.56,-241.22"/>
<text text-anchor="middle" x="2320.57" y="-217.7" font-family="Times New Roman,serif" font-size="14.00">is a</text>
</g>
<!-- node0015 -->
<g id="node16" class="node">
<title>node0015</title>
<ellipse fill="none" stroke="black" cx="2376" cy="-160.5" rx="36" ry="36"/>
<text text-anchor="middle" x="2376" y="-156.62" font-family="Times New Roman,serif" font-size="10.00">VehiclePassengers</text>
</g>
<!-- node0015&#45;&gt;node0002 -->
<g id="edge15" class="edge">
<title>node0015&#45;&gt;node0002</title>
<path fill="none" stroke="black" d="M2363.82,-194.65C2358.67,-208.68 2352.6,-225.21 2347.08,-240.22"/>
<polygon fill="black" stroke="black" points="2343.87,-238.81 2343.71,-249.4 2350.44,-241.22 2343.87,-238.81"/>
<text text-anchor="middle" x="2365.57" y="-217.7" font-family="Times New Roman,serif" font-size="14.00">is a</text>
</g>
<!-- node0016 -->
<g id="node17" class="node">
<title>node0016</title>
<ellipse fill="none" stroke="black" cx="2466" cy="-160.5" rx="36" ry="36"/>
<text text-anchor="middle" x="2466" y="-156.62" font-family="Times New Roman,serif" font-size="10.00">VehicleComponents</text>
</g>
<!-- node0016&#45;&gt;node0002 -->
<g id="edge16" class="edge">
<title>node0016&#45;&gt;node0002</title>
<path fill="none" stroke="black" d="M2439.65,-185.41C2418.56,-204.55 2388.8,-231.56 2365.75,-252.46"/>
<polygon fill="black" stroke="black" points="2363.46,-249.82 2358.4,-259.13 2368.16,-255.01 2363.46,-249.82"/>
<text text-anchor="middle" x="2415.96" y="-217.7" font-family="Times New Roman,serif" font-size="14.00">is a</text>
</g>
<!-- node0017 -->
<g id="node18" class="node">
<title>node0017</title>
<ellipse fill="none" stroke="black" cx="2556" cy="-160.5" rx="36" ry="36"/>
<text text-anchor="middle" x="2556" y="-156.62" font-family="Times New Roman,serif" font-size="10.00">AffectedStates</text>
</g>
<!-- node0017&#45;&gt;node0003 -->
<g id="edge17" class="edge">
<title>node0017&#45;&gt;node0003</title>
<path fill="none" stroke="black" d="M2577.1,-190.22C2589.4,-206.96 2605.06,-228.27 2618.33,-246.34"/>
<polygon fill="black" stroke="black" points="2615.39,-248.25 2624.14,-254.24 2621.03,-244.11 2615.39,-248.25"/>
<text text-anchor="middle" x="2615.76" y="-217.7" font-family="Times New Roman,serif" font-size="14.00">is a</text>
</g>
<!-- node0018 -->
<g id="node19" class="node">
<title>node0018</title>
<ellipse fill="none" stroke="black" cx="2646" cy="-160.5" rx="36" ry="36"/>
<text text-anchor="middle" x="2646" y="-156.62" font-family="Times New Roman,serif" font-size="10.00">HazardStates</text>
</g>
<!-- node0018&#45;&gt;node0003 -->
<g id="edge18" class="edge">
<title>node0018&#45;&gt;node0003</title>
<path fill="none" stroke="black" d="M2646,-196.93C2646,-209.5 2646,-223.85 2646,-237.22"/>
<polygon fill="black" stroke="black" points="2642.5,-237.13 2646,-247.13 2649.5,-237.13 2642.5,-237.13"/>
<text text-anchor="middle" x="2655.38" y="-217.7" font-family="Times New Roman,serif" font-size="14.00">is a</text>
</g>
<!-- node0019 -->
<g id="node20" class="node">
<title>node0019</title>
<ellipse fill="none" stroke="black" cx="2736" cy="-160.5" rx="36" ry="36"/>
<text text-anchor="middle" x="2736" y="-156.62" font-family="Times New Roman,serif" font-size="10.00">ResponseStates</text>
</g>
<!-- node0019&#45;&gt;node0003 -->
<g id="edge19" class="edge">
<title>node0019&#45;&gt;node0003</title>
<path fill="none" stroke="black" d="M2714.9,-190.22C2702.6,-206.96 2686.94,-228.27 2673.67,-246.34"/>
<polygon fill="black" stroke="black" points="2670.97,-244.11 2667.86,-254.24 2676.61,-248.25 2670.97,-244.11"/>
<text text-anchor="middle" x="2705.76" y="-217.7" font-family="Times New Roman,serif" font-size="14.00">is a</text>
</g>
<!-- node0020 -->
<g id="node21" class="node">
<title>node0020</title>
<ellipse fill="none" stroke="black" cx="2826" cy="-160.5" rx="36" ry="36"/>
<text text-anchor="middle" x="2826" y="-156.62" font-family="Times New Roman,serif" font-size="10.00">idleState</text>
</g>
<!-- node0020&#45;&gt;node0004 -->
<g id="edge20" class="edge">
<title>node0020&#45;&gt;node0004</title>
<path fill="none" stroke="black" d="M2804.9,-190.22C2792.6,-206.96 2776.94,-228.27 2763.67,-246.34"/>
<polygon fill="black" stroke="black" points="2760.97,-244.11 2757.86,-254.24 2766.61,-248.25 2760.97,-244.11"/>
<text text-anchor="middle" x="2795.76" y="-217.7" font-family="Times New Roman,serif" font-size="14.00">is a</text>
</g>
<!-- node0021 -->
<g id="node22" class="node">
<title>node0021</title>
<ellipse fill="none" stroke="black" cx="2916" cy="-160.5" rx="36" ry="36"/>
<text text-anchor="middle" x="2916" y="-156.62" font-family="Times New Roman,serif" font-size="10.00">implementState</text>
</g>
<!-- node0021&#45;&gt;node0004 -->
<g id="edge21" class="edge">
<title>node0021&#45;&gt;node0004</title>
<path fill="none" stroke="black" d="M2888.34,-183.93C2882.7,-188.24 2876.74,-192.62 2871,-196.5 2832.64,-222.44 2819.36,-223.06 2781,-249 2778.31,-250.82 2775.57,-252.75 2772.84,-254.73"/>
<polygon fill="black" stroke="black" points="2770.8,-251.88 2764.87,-260.66 2774.98,-257.49 2770.8,-251.88"/>
<text text-anchor="middle" x="2849.61" y="-217.7" font-family="Times New Roman,serif" font-size="14.00">is a</text>
</g>
<!-- node0022 -->
<g id="node23" class="node">
<title>node0022</title>
<ellipse fill="none" stroke="black" cx="36" cy="-36" rx="36" ry="36"/>
<text text-anchor="middle" x="36" y="-32.12" font-family="Times New Roman,serif" font-size="10.00">4</text>
</g>
<!-- node0022&#45;&gt;node0008 -->
<g id="edge22" class="edge">
<title>node0022&#45;&gt;node0008</title>
<path fill="none" stroke="black" d="M62.35,-60.91C83.44,-80.05 113.2,-107.06 136.25,-127.96"/>
<polygon fill="black" stroke="black" points="133.84,-130.51 143.6,-134.63 138.54,-125.32 133.84,-130.51"/>
<text text-anchor="middle" x="120.96" y="-93.2" font-family="Times New Roman,serif" font-size="14.00">is a</text>
</g>
<!-- node0023 -->
<g id="node24" class="node">
<title>node0023</title>
<ellipse fill="none" stroke="black" cx="126" cy="-36" rx="36" ry="36"/>
<text text-anchor="middle" x="126" y="-32.12" font-family="Times New Roman,serif" font-size="10.00">5</text>
</g>
<!-- node0023&#45;&gt;node0008 -->
<g id="edge23" class="edge">
<title>node0023&#45;&gt;node0008</title>
<path fill="none" stroke="black" d="M138.18,-70.15C143.33,-84.18 149.4,-100.71 154.92,-115.72"/>
<polygon fill="black" stroke="black" points="151.56,-116.72 158.29,-124.9 158.13,-114.31 151.56,-116.72"/>
<text text-anchor="middle" x="160.57" y="-93.2" font-family="Times New Roman,serif" font-size="14.00">is a</text>
</g>
<!-- node0024 -->
<g id="node25" class="node">
<title>node0024</title>
<ellipse fill="none" stroke="black" cx="216" cy="-36" rx="36" ry="36"/>
<text text-anchor="middle" x="216" y="-32.12" font-family="Times New Roman,serif" font-size="10.00">1</text>
</g>
<!-- node0024&#45;&gt;node0008 -->
<g id="edge24" class="edge">
<title>node0024&#45;&gt;node0008</title>
<path fill="none" stroke="black" d="M203.82,-70.15C198.67,-84.18 192.6,-100.71 187.08,-115.72"/>
<polygon fill="black" stroke="black" points="183.87,-114.31 183.71,-124.9 190.44,-116.72 183.87,-114.31"/>
<text text-anchor="middle" x="205.57" y="-93.2" font-family="Times New Roman,serif" font-size="14.00">is a</text>
</g>
<!-- node0025 -->
<g id="node26" class="node">
<title>node0025</title>
<ellipse fill="none" stroke="black" cx="306" cy="-36" rx="36" ry="36"/>
<text text-anchor="middle" x="306" y="-32.12" font-family="Times New Roman,serif" font-size="10.00">3</text>
</g>
<!-- node0025&#45;&gt;node0009 -->
<g id="edge25" class="edge">
<title>node0025&#45;&gt;node0009</title>
<path fill="none" stroke="black" d="M306,-72.43C306,-85 306,-99.35 306,-112.72"/>
<polygon fill="black" stroke="black" points="302.5,-112.63 306,-122.63 309.5,-112.63 302.5,-112.63"/>
<text text-anchor="middle" x="315.38" y="-93.2" font-family="Times New Roman,serif" font-size="14.00">is a</text>
</g>
<!-- node0026 -->
<g id="node27" class="node">
<title>node0026</title>
<ellipse fill="none" stroke="black" cx="396" cy="-36" rx="36" ry="36"/>
<text text-anchor="middle" x="396" y="-32.12" font-family="Times New Roman,serif" font-size="10.00">2</text>
</g>
<!-- node0026&#45;&gt;node0010 -->
<g id="edge26" class="edge">
<title>node0026&#45;&gt;node0010</title>
<path fill="none" stroke="black" d="M396,-72.43C396,-85 396,-99.35 396,-112.72"/>
<polygon fill="black" stroke="black" points="392.5,-112.63 396,-122.63 399.5,-112.63 392.5,-112.63"/>
<text text-anchor="middle" x="405.38" y="-93.2" font-family="Times New Roman,serif" font-size="14.00">is a</text>
</g>
<!-- node0027 -->
<g id="node28" class="node">
<title>node0027</title>
<ellipse fill="none" stroke="black" cx="486" cy="-36" rx="36" ry="36"/>
<text text-anchor="middle" x="486" y="-32.12" font-family="Times New Roman,serif" font-size="10.00">人员</text>
</g>
<!-- node0027&#45;&gt;node0011 -->
<g id="edge27" class="edge">
<title>node0027&#45;&gt;node0011</title>
<path fill="none" stroke="black" d="M513.05,-60.44C518.74,-64.67 524.88,-68.75 531,-72 574.87,-95.26 588.54,-96.9 637.25,-106.5 880.49,-154.43 1178.86,-159.7 1293.26,-159.81"/>
<polygon fill="black" stroke="black" points="1293.19,-163.31 1303.19,-159.8 1293.19,-156.31 1293.19,-163.31"/>
<text text-anchor="middle" x="646.62" y="-93.2" font-family="Times New Roman,serif" font-size="14.00">is a</text>
</g>
<!-- node0028 -->
<g id="node29" class="node">
<title>node0028</title>
<ellipse fill="none" stroke="black" cx="576" cy="-36" rx="36" ry="36"/>
<text text-anchor="middle" x="576" y="-32.12" font-family="Times New Roman,serif" font-size="10.00">抢修</text>
</g>
<!-- node0028&#45;&gt;node0011 -->
<g id="edge28" class="edge">
<title>node0028&#45;&gt;node0011</title>
<path fill="none" stroke="black" d="M603.04,-60.47C608.73,-64.69 614.87,-68.77 621,-72 665.68,-95.53 679.74,-96.59 729.25,-106.5 936.6,-147.99 1189.9,-157 1293.45,-158.96"/>
<polygon fill="black" stroke="black" points="1293.18,-162.45 1303.24,-159.13 1293.3,-155.46 1293.18,-162.45"/>
<text text-anchor="middle" x="738.62" y="-93.2" font-family="Times New Roman,serif" font-size="14.00">is a</text>
</g>
<!-- node0029 -->
<g id="node30" class="node">
<title>node0029</title>
<ellipse fill="none" stroke="black" cx="666" cy="-36" rx="36" ry="36"/>
<text text-anchor="middle" x="666" y="-32.12" font-family="Times New Roman,serif" font-size="10.00">救助</text>
</g>
<!-- node0029&#45;&gt;node0011 -->
<g id="edge29" class="edge">
<title>node0029&#45;&gt;node0011</title>
<path fill="none" stroke="black" d="M693.05,-60.45C698.73,-64.68 704.87,-68.76 711,-72 755.27,-95.39 769.24,-96.25 818.25,-106.5 990.83,-142.59 1200.79,-154.39 1293.32,-158.01"/>
<polygon fill="black" stroke="black" points="1293.16,-161.51 1303.28,-158.39 1293.42,-154.51 1293.16,-161.51"/>
<text text-anchor="middle" x="827.62" y="-93.2" font-family="Times New Roman,serif" font-size="14.00">is a</text>
</g>
<!-- node0030 -->
<g id="node31" class="node">
<title>node0030</title>
<ellipse fill="none" stroke="black" cx="756" cy="-36" rx="36" ry="36"/>
<text text-anchor="middle" x="756" y="-32.12" font-family="Times New Roman,serif" font-size="10.00">消防</text>
</g>
<!-- node0030&#45;&gt;node0011 -->
<g id="edge30" class="edge">
<title>node0030&#45;&gt;node0011</title>
<path fill="none" stroke="black" d="M783.03,-60.49C788.72,-64.71 794.86,-68.79 801,-72 846.49,-95.81 861.07,-95.65 911.25,-106.5 1048.34,-136.15 1213.87,-150.73 1293.57,-156.46"/>
<polygon fill="black" stroke="black" points="1292.96,-159.93 1303.18,-157.14 1293.45,-152.94 1292.96,-159.93"/>
<text text-anchor="middle" x="920.62" y="-93.2" font-family="Times New Roman,serif" font-size="14.00">is a</text>
</g>
<!-- node0031 -->
<g id="node32" class="node">
<title>node0031</title>
<ellipse fill="none" stroke="black" cx="846" cy="-36" rx="36" ry="36"/>
<text text-anchor="middle" x="846" y="-32.12" font-family="Times New Roman,serif" font-size="10.00">牵引</text>
</g>
<!-- node0031&#45;&gt;node0011 -->
<g id="edge31" class="edge">
<title>node0031&#45;&gt;node0011</title>
<path fill="none" stroke="black" d="M873.01,-60.53C878.7,-64.75 884.85,-68.81 891,-72 937.71,-96.22 952.97,-94.71 1004.25,-106.5 1106.55,-130.01 1228.73,-146.38 1294.14,-154.22"/>
<polygon fill="black" stroke="black" points="1293.45,-157.67 1303.79,-155.37 1294.27,-150.71 1293.45,-157.67"/>
<text text-anchor="middle" x="1013.62" y="-93.2" font-family="Times New Roman,serif" font-size="14.00">is a</text>
</g>
<!-- node0032 -->
<g id="node33" class="node">
<title>node0032</title>
<ellipse fill="none" stroke="black" cx="936" cy="-36" rx="36" ry="36"/>
<text text-anchor="middle" x="936" y="-32.12" font-family="Times New Roman,serif" font-size="10.00">32635536</text>
</g>
<!-- node0032&#45;&gt;node0011 -->
<g id="edge32" class="edge">
<title>node0032&#45;&gt;node0011</title>
<path fill="none" stroke="black" d="M963.03,-60.48C968.72,-64.7 974.87,-68.78 981,-72 1084.3,-126.24 1221.97,-147.54 1293.42,-155.36"/>
<polygon fill="black" stroke="black" points="1292.91,-158.82 1303.22,-156.38 1293.64,-151.86 1292.91,-158.82"/>
<text text-anchor="middle" x="1064.45" y="-93.2" font-family="Times New Roman,serif" font-size="14.00">is a</text>
</g>
<!-- node0033 -->
<g id="node34" class="node">
<title>node0033</title>
<ellipse fill="none" stroke="black" cx="1026" cy="-36" rx="36" ry="36"/>
<text text-anchor="middle" x="1026" y="-32.12" font-family="Times New Roman,serif" font-size="10.00">7</text>
</g>
<!-- node0033&#45;&gt;node0011 -->
<g id="edge33" class="edge">
<title>node0033&#45;&gt;node0011</title>
<path fill="none" stroke="black" d="M1053.1,-60.36C1058.78,-64.59 1064.91,-68.7 1071,-72 1144.42,-111.75 1238.94,-137.22 1294.46,-149.89"/>
<polygon fill="black" stroke="black" points="1293.69,-153.3 1304.21,-152.07 1295.22,-146.47 1293.69,-153.3"/>
<text text-anchor="middle" x="1151.05" y="-93.2" font-family="Times New Roman,serif" font-size="14.00">is a</text>
</g>
<!-- node0034 -->
<g id="node35" class="node">
<title>node0034</title>
<ellipse fill="none" stroke="black" cx="1116" cy="-36" rx="36" ry="36"/>
<text text-anchor="middle" x="1116" y="-32.12" font-family="Times New Roman,serif" font-size="10.00">8</text>
</g>
<!-- node0034&#45;&gt;node0011 -->
<g id="edge34" class="edge">
<title>node0034&#45;&gt;node0011</title>
<path fill="none" stroke="black" d="M1143.43,-59.78C1149.09,-64.06 1155.12,-68.34 1161,-72 1205.43,-99.66 1259.9,-125.06 1297.2,-141.29"/>
<polygon fill="black" stroke="black" points="1295.76,-144.48 1306.33,-145.22 1298.53,-138.05 1295.76,-144.48"/>
<text text-anchor="middle" x="1227.91" y="-93.2" font-family="Times New Roman,serif" font-size="14.00">is a</text>
</g>
<!-- node0035 -->
<g id="node36" class="node">
<title>node0035</title>
<ellipse fill="none" stroke="black" cx="1206" cy="-36" rx="36" ry="36"/>
<text text-anchor="middle" x="1206" y="-32.12" font-family="Times New Roman,serif" font-size="10.00">ResponseResource</text>
</g>
<!-- node0035&#45;&gt;node0011 -->
<g id="edge35" class="edge">
<title>node0035&#45;&gt;node0011</title>
<path fill="none" stroke="black" d="M1232.35,-60.91C1253.44,-80.05 1283.2,-107.06 1306.25,-127.96"/>
<polygon fill="black" stroke="black" points="1303.84,-130.51 1313.6,-134.63 1308.54,-125.32 1303.84,-130.51"/>
<text text-anchor="middle" x="1290.96" y="-93.2" font-family="Times New Roman,serif" font-size="14.00">is a</text>
</g>
<!-- node0036 -->
<g id="node37" class="node">
<title>node0036</title>
<ellipse fill="none" stroke="black" cx="1296" cy="-36" rx="36" ry="36"/>
<text text-anchor="middle" x="1296" y="-32.12" font-family="Times New Roman,serif" font-size="10.00">ResponseAction</text>
</g>
<!-- node0036&#45;&gt;node0011 -->
<g id="edge36" class="edge">
<title>node0036&#45;&gt;node0011</title>
<path fill="none" stroke="black" d="M1308.18,-70.15C1313.33,-84.18 1319.4,-100.71 1324.92,-115.72"/>
<polygon fill="black" stroke="black" points="1321.56,-116.72 1328.29,-124.9 1328.13,-114.31 1321.56,-116.72"/>
<text text-anchor="middle" x="1330.57" y="-93.2" font-family="Times New Roman,serif" font-size="14.00">is a</text>
</g>
<!-- node0037 -->
<g id="node38" class="node">
<title>node0037</title>
<ellipse fill="none" stroke="black" cx="1386" cy="-36" rx="36" ry="36"/>
<text text-anchor="middle" x="1386" y="-32.12" font-family="Times New Roman,serif" font-size="10.00">32wqrw</text>
</g>
<!-- node0037&#45;&gt;node0011 -->
<g id="edge37" class="edge">
<title>node0037&#45;&gt;node0011</title>
<path fill="none" stroke="black" d="M1373.82,-70.15C1368.67,-84.18 1362.6,-100.71 1357.08,-115.72"/>
<polygon fill="black" stroke="black" points="1353.87,-114.31 1353.71,-124.9 1360.44,-116.72 1353.87,-114.31"/>
<text text-anchor="middle" x="1375.57" y="-93.2" font-family="Times New Roman,serif" font-size="14.00">is a</text>
</g>
<!-- node0038 -->
<g id="node39" class="node">
<title>node0038</title>
<ellipse fill="none" stroke="black" cx="1476" cy="-36" rx="36" ry="36"/>
<text text-anchor="middle" x="1476" y="-32.12" font-family="Times New Roman,serif" font-size="10.00">44234</text>
</g>
<!-- node0038&#45;&gt;node0011 -->
<g id="edge38" class="edge">
<title>node0038&#45;&gt;node0011</title>
<path fill="none" stroke="black" d="M1449.65,-60.91C1428.56,-80.05 1398.8,-107.06 1375.75,-127.96"/>
<polygon fill="black" stroke="black" points="1373.46,-125.32 1368.4,-134.63 1378.16,-130.51 1373.46,-125.32"/>
<text text-anchor="middle" x="1425.96" y="-93.2" font-family="Times New Roman,serif" font-size="14.00">is a</text>
</g>
<!-- node0039 -->
<g id="node40" class="node">
<title>node0039</title>
<ellipse fill="none" stroke="black" cx="1566" cy="-36" rx="36" ry="36"/>
<text text-anchor="middle" x="1566" y="-32.12" font-family="Times New Roman,serif" font-size="10.00">ewa2</text>
</g>
<!-- node0039&#45;&gt;node0011 -->
<g id="edge39" class="edge">
<title>node0039&#45;&gt;node0011</title>
<path fill="none" stroke="black" d="M1538.57,-59.78C1532.91,-64.06 1526.88,-68.34 1521,-72 1476.57,-99.66 1422.1,-125.06 1384.8,-141.29"/>
<polygon fill="black" stroke="black" points="1383.47,-138.05 1375.67,-145.22 1386.24,-144.48 1383.47,-138.05"/>
<text text-anchor="middle" x="1497.32" y="-93.2" font-family="Times New Roman,serif" font-size="14.00">is a</text>
</g>
<!-- node0040 -->
<g id="node41" class="node">
<title>node0040</title>
<ellipse fill="none" stroke="black" cx="1656" cy="-36" rx="36" ry="36"/>
<text text-anchor="middle" x="1656" y="-32.12" font-family="Times New Roman,serif" font-size="10.00">你好</text>
</g>
<!-- node0040&#45;&gt;node0011 -->
<g id="edge40" class="edge">
<title>node0040&#45;&gt;node0011</title>
<path fill="none" stroke="black" d="M1628.9,-60.35C1623.22,-64.59 1617.09,-68.7 1611,-72 1537.59,-111.78 1443.07,-137.24 1387.55,-149.9"/>
<polygon fill="black" stroke="black" points="1386.79,-146.48 1377.79,-152.08 1388.31,-153.31 1386.79,-146.48"/>
<text text-anchor="middle" x="1578.73" y="-93.2" font-family="Times New Roman,serif" font-size="14.00">is a</text>
</g>
<!-- node0041 -->
<g id="node42" class="node">
<title>node0041</title>
<ellipse fill="none" stroke="black" cx="1746" cy="-36" rx="36" ry="36"/>
<text text-anchor="middle" x="1746" y="-32.12" font-family="Times New Roman,serif" font-size="10.00">那个</text>
</g>
<!-- node0041&#45;&gt;node0011 -->
<g id="edge41" class="edge">
<title>node0041&#45;&gt;node0011</title>
<path fill="none" stroke="black" d="M1718.97,-60.48C1713.28,-64.7 1707.13,-68.78 1701,-72 1597.71,-126.27 1460.04,-147.56 1388.58,-155.37"/>
<polygon fill="black" stroke="black" points="1388.37,-151.87 1378.78,-156.39 1389.09,-158.83 1388.37,-151.87"/>
<text text-anchor="middle" x="1664.87" y="-93.2" font-family="Times New Roman,serif" font-size="14.00">is a</text>
</g>
<!-- node0042 -->
<g id="node43" class="node">
<title>node0042</title>
<ellipse fill="none" stroke="black" cx="1836" cy="-36" rx="36" ry="36"/>
<text text-anchor="middle" x="1836" y="-32.5" font-family="Times New Roman,serif" font-size="10.00">预案1</text>
</g>
<!-- node0042&#45;&gt;node0011 -->
<g id="edge42" class="edge">
<title>node0042&#45;&gt;node0011</title>
<path fill="none" stroke="black" d="M1808.99,-60.53C1803.3,-64.75 1797.15,-68.81 1791,-72 1744.39,-96.19 1729.17,-94.73 1678,-106.5 1575.64,-130.05 1453.36,-146.41 1387.89,-154.24"/>
<polygon fill="black" stroke="black" points="1387.76,-150.73 1378.24,-155.38 1388.58,-157.68 1387.76,-150.73"/>
<text text-anchor="middle" x="1757.14" y="-93.2" font-family="Times New Roman,serif" font-size="14.00">is a</text>
</g>
<!-- node0043 -->
<g id="node44" class="node">
<title>node0043</title>
<ellipse fill="none" stroke="black" cx="1926" cy="-36" rx="36" ry="36"/>
<text text-anchor="middle" x="1926" y="-32.5" font-family="Times New Roman,serif" font-size="10.00">预案2</text>
</g>
<!-- node0043&#45;&gt;node0011 -->
<g id="edge43" class="edge">
<title>node0043&#45;&gt;node0011</title>
<path fill="none" stroke="black" d="M1898.97,-60.49C1893.28,-64.71 1887.14,-68.79 1881,-72 1835.61,-95.77 1821.08,-95.65 1771,-106.5 1633.84,-136.2 1468.21,-150.76 1388.46,-156.47"/>
<polygon fill="black" stroke="black" points="1388.57,-152.96 1378.84,-157.15 1389.06,-159.94 1388.57,-152.96"/>
<text text-anchor="middle" x="1850.25" y="-93.2" font-family="Times New Roman,serif" font-size="14.00">is a</text>
</g>
<!-- node0044 -->
<g id="node45" class="node">
<title>node0044</title>
<ellipse fill="none" stroke="black" cx="2016" cy="-36" rx="36" ry="36"/>
<text text-anchor="middle" x="2016" y="-32.5" font-family="Times New Roman,serif" font-size="10.00">预案3</text>
</g>
<!-- node0044&#45;&gt;node0011 -->
<g id="edge44" class="edge">
<title>node0044&#45;&gt;node0011</title>
<path fill="none" stroke="black" d="M1988.95,-60.45C1983.26,-64.68 1977.12,-68.76 1971,-72 1926.83,-95.36 1912.91,-96.26 1864,-106.5 1691.35,-142.66 1481.28,-154.43 1388.71,-158.03"/>
<polygon fill="black" stroke="black" points="1388.6,-154.53 1378.74,-158.4 1388.86,-161.52 1388.6,-154.53"/>
<text text-anchor="middle" x="1939.54" y="-93.2" font-family="Times New Roman,serif" font-size="14.00">is a</text>
</g>
<!-- node0045 -->
<g id="node46" class="node">
<title>node0045</title>
<ellipse fill="none" stroke="black" cx="2106" cy="-36" rx="36" ry="36"/>
<text text-anchor="middle" x="2106" y="-32.5" font-family="Times New Roman,serif" font-size="10.00">预案4</text>
</g>
<!-- node0045&#45;&gt;node0011 -->
<g id="edge45" class="edge">
<title>node0045&#45;&gt;node0011</title>
<path fill="none" stroke="black" d="M2078.96,-60.46C2073.27,-64.69 2067.13,-68.77 2061,-72 2016.42,-95.5 2002.41,-96.6 1953,-106.5 1745.58,-148.07 1492.17,-157.04 1388.57,-158.97"/>
<polygon fill="black" stroke="black" points="1388.72,-155.47 1378.78,-159.14 1388.84,-162.47 1388.72,-155.47"/>
<text text-anchor="middle" x="2031.04" y="-93.2" font-family="Times New Roman,serif" font-size="14.00">is a</text>
</g>
<!-- node0046 -->
<g id="node47" class="node">
<title>node0046</title>
<ellipse fill="none" stroke="black" cx="2196" cy="-36" rx="36" ry="36"/>
<text text-anchor="middle" x="2196" y="-32.5" font-family="Times New Roman,serif" font-size="10.00">预案5</text>
</g>
<!-- node0046&#45;&gt;node0011 -->
<g id="edge46" class="edge">
<title>node0046&#45;&gt;node0011</title>
<path fill="none" stroke="black" d="M2168.95,-60.45C2163.26,-64.68 2157.12,-68.76 2151,-72 2106.83,-95.36 2093.03,-96.89 2044,-106.5 1800.97,-154.14 1502.94,-159.58 1388.68,-159.77"/>
<polygon fill="black" stroke="black" points="1388.76,-156.27 1378.76,-159.77 1388.76,-163.27 1388.76,-156.27"/>
<text text-anchor="middle" x="2121.42" y="-93.2" font-family="Times New Roman,serif" font-size="14.00">is a</text>
</g>
<!-- node0047 -->
<g id="node48" class="node">
<title>node0047</title>
<ellipse fill="none" stroke="black" cx="2286" cy="-36" rx="36" ry="36"/>
<text text-anchor="middle" x="2286" y="-32.5" font-family="Times New Roman,serif" font-size="10.00">预案6</text>
</g>
<!-- node0047&#45;&gt;node0011 -->
<g id="edge47" class="edge">
<title>node0047&#45;&gt;node0011</title>
<path fill="none" stroke="black" d="M2258.95,-60.44C2253.26,-64.66 2247.12,-68.75 2241,-72 2197.24,-95.22 2183.65,-97.11 2135,-106.5 1990.54,-134.38 1536.88,-152.55 1388.49,-157.88"/>
<polygon fill="black" stroke="black" points="1388.5,-154.37 1378.63,-158.23 1388.75,-161.37 1388.5,-154.37"/>
<text text-anchor="middle" x="2211.8" y="-93.2" font-family="Times New Roman,serif" font-size="14.00">is a</text>
</g>
<!-- node0048 -->
<g id="node49" class="node">
<title>node0048</title>
<ellipse fill="none" stroke="black" cx="2376" cy="-36" rx="36" ry="36"/>
<text text-anchor="middle" x="2376" y="-32.12" font-family="Times New Roman,serif" font-size="10.00">CollidedState</text>
</g>
<!-- node0048&#45;&gt;node0017 -->
<g id="edge48" class="edge">
<title>node0048&#45;&gt;node0017</title>
<path fill="none" stroke="black" d="M2403.66,-59.43C2409.3,-63.74 2415.26,-68.12 2421,-72 2459.36,-97.94 2472.64,-98.56 2511,-124.5 2513.69,-126.32 2516.43,-128.25 2519.16,-130.23"/>
<polygon fill="black" stroke="black" points="2517.02,-132.99 2527.13,-136.16 2521.2,-127.38 2517.02,-132.99"/>
<text text-anchor="middle" x="2489.61" y="-93.2" font-family="Times New Roman,serif" font-size="14.00">is a</text>
</g>
<!-- node0049 -->
<g id="node50" class="node">
<title>node0049</title>
<ellipse fill="none" stroke="black" cx="2466" cy="-36" rx="36" ry="36"/>
<text text-anchor="middle" x="2466" y="-32.12" font-family="Times New Roman,serif" font-size="10.00">ExplodeState</text>
</g>
<!-- node0049&#45;&gt;node0017 -->
<g id="edge49" class="edge">
<title>node0049&#45;&gt;node0017</title>
<path fill="none" stroke="black" d="M2487.1,-65.72C2499.4,-82.46 2515.06,-103.77 2528.33,-121.84"/>
<polygon fill="black" stroke="black" points="2525.39,-123.75 2534.14,-129.74 2531.03,-119.61 2525.39,-123.75"/>
<text text-anchor="middle" x="2525.76" y="-93.2" font-family="Times New Roman,serif" font-size="14.00">is a</text>
</g>
<!-- node0050 -->
<g id="node51" class="node">
<title>node0050</title>
<ellipse fill="none" stroke="black" cx="2556" cy="-36" rx="36" ry="36"/>
<text text-anchor="middle" x="2556" y="-32.12" font-family="Times New Roman,serif" font-size="10.00">DrivingState</text>
</g>
<!-- node0050&#45;&gt;node0017 -->
<g id="edge50" class="edge">
<title>node0050&#45;&gt;node0017</title>
<path fill="none" stroke="black" d="M2556,-72.43C2556,-85 2556,-99.35 2556,-112.72"/>
<polygon fill="black" stroke="black" points="2552.5,-112.63 2556,-122.63 2559.5,-112.63 2552.5,-112.63"/>
<text text-anchor="middle" x="2565.38" y="-93.2" font-family="Times New Roman,serif" font-size="14.00">is a</text>
</g>
<!-- node0051 -->
<g id="node52" class="node">
<title>node0051</title>
<ellipse fill="none" stroke="black" cx="2646" cy="-36" rx="36" ry="36"/>
<text text-anchor="middle" x="2646" y="-32.12" font-family="Times New Roman,serif" font-size="10.00">DriveState</text>
</g>
<!-- node0051&#45;&gt;node0018 -->
<g id="edge51" class="edge">
<title>node0051&#45;&gt;node0018</title>
<path fill="none" stroke="black" d="M2646,-72.43C2646,-85 2646,-99.35 2646,-112.72"/>
<polygon fill="black" stroke="black" points="2642.5,-112.63 2646,-122.63 2649.5,-112.63 2642.5,-112.63"/>
<text text-anchor="middle" x="2655.38" y="-93.2" font-family="Times New Roman,serif" font-size="14.00">is a</text>
</g>
<!-- node0052 -->
<g id="node53" class="node">
<title>node0052</title>
<ellipse fill="none" stroke="black" cx="2736" cy="-36" rx="36" ry="36"/>
<text text-anchor="middle" x="2736" y="-32.12" font-family="Times New Roman,serif" font-size="10.00">CollideState</text>
</g>
<!-- node0052&#45;&gt;node0018 -->
<g id="edge52" class="edge">
<title>node0052&#45;&gt;node0018</title>
<path fill="none" stroke="black" d="M2714.9,-65.72C2702.6,-82.46 2686.94,-103.77 2673.67,-121.84"/>
<polygon fill="black" stroke="black" points="2670.97,-119.61 2667.86,-129.74 2676.61,-123.75 2670.97,-119.61"/>
<text text-anchor="middle" x="2705.76" y="-93.2" font-family="Times New Roman,serif" font-size="14.00">is a</text>
</g>
<!-- node0053 -->
<g id="node54" class="node">
<title>node0053</title>
<ellipse fill="none" stroke="black" cx="2826" cy="-36" rx="36" ry="36"/>
<text text-anchor="middle" x="2826" y="-32.12" font-family="Times New Roman,serif" font-size="10.00">SpillState</text>
</g>
<!-- node0053&#45;&gt;node0018 -->
<g id="edge53" class="edge">
<title>node0053&#45;&gt;node0018</title>
<path fill="none" stroke="black" d="M2798.34,-59.43C2792.7,-63.74 2786.74,-68.12 2781,-72 2742.64,-97.94 2729.36,-98.56 2691,-124.5 2688.31,-126.32 2685.57,-128.25 2682.84,-130.23"/>
<polygon fill="black" stroke="black" points="2680.8,-127.38 2674.87,-136.16 2684.98,-132.99 2680.8,-127.38"/>
<text text-anchor="middle" x="2759.61" y="-93.2" font-family="Times New Roman,serif" font-size="14.00">is a</text>
</g>
</g>
</svg>
