<?xml version="1.0" encoding="UTF-8" standalone="no"?>
<!DOCTYPE svg PUBLIC "-//W3C//DTD SVG 1.1//EN"
 "http://www.w3.org/Graphics/SVG/1.1/DTD/svg11.dtd">
<!-- Generated by graphviz version 12.1.2 (20240928.0832)
 -->
<!-- Pages: 1 -->
<svg width="701pt" height="939pt"
 viewBox="0.00 0.00 701.20 939.20" xmlns="http://www.w3.org/2000/svg" xmlns:xlink="http://www.w3.org/1999/xlink">
<g id="graph0" class="graph" transform="scale(1 1) rotate(0) translate(3.6 935.6)">
<polygon fill="white" stroke="none" points="-3.6,3.6 -3.6,-935.6 697.6,-935.6 697.6,3.6 -3.6,3.6"/>
<!-- roadPassibility -->
<g id="node1" class="node">
<title>roadPassibility</title>
<polygon fill="none" stroke="#3b82f6" points="45,-910 45,-932 241,-932 241,-910 45,-910"/>
<text text-anchor="start" x="111.12" y="-917.5" font-family="Arial" font-size="10.00">roadPassibility</text>
<polygon fill="none" stroke="#3b82f6" points="45,-890 45,-910 105,-910 105,-890 45,-890"/>
<text text-anchor="start" x="53.75" y="-896.7" font-family="Arial" font-size="9.00">Impassable</text>
<polygon fill="white" stroke="none" points="105,-890 105,-910 197,-910 197,-890 105,-890"/>
<polygon fill="none" stroke="#3b82f6" points="105,-890 105,-910 197,-910 197,-890 105,-890"/>
<polygon fill="#f3f4f6" stroke="none" points="109,-894 109,-906 193,-906 193,-894 109,-894"/>
<polygon fill="#f3f4f6" stroke="none" points="111,-896 111,-904 191,-904 191,-896 111,-896"/>
<polygon fill="none" stroke="#3b82f6" points="197,-890 197,-910 241,-910 241,-890 197,-890"/>
<text text-anchor="start" x="210.75" y="-896.7" font-family="Arial" font-size="9.00">0.00%</text>
<polygon fill="none" stroke="#3b82f6" points="45,-870 45,-890 105,-890 105,-870 45,-870"/>
<text text-anchor="start" x="62.75" y="-876.7" font-family="Arial" font-size="9.00">Passable</text>
<polygon fill="white" stroke="none" points="105,-870 105,-890 197,-890 197,-870 105,-870"/>
<polygon fill="none" stroke="#3b82f6" points="105,-870 105,-890 197,-890 197,-870 105,-870"/>
<polygon fill="#f3f4f6" stroke="none" points="109,-874 109,-886 193,-886 193,-874 109,-874"/>
<polygon fill="#4ade80" stroke="none" points="111,-876 111,-884 191,-884 191,-876 111,-876"/>
<polygon fill="none" stroke="#3b82f6" points="197,-870 197,-890 241,-890 241,-870 197,-870"/>
<text text-anchor="start" x="200.62" y="-876.7" font-family="Arial" font-size="9.00">100.00%</text>
</g>
<!-- AbsorptionCapacity -->
<g id="node12" class="node">
<title>AbsorptionCapacity</title>
<polygon fill="none" stroke="black" points="300,-837 300,-859 490,-859 490,-837 300,-837"/>
<text text-anchor="start" x="352.25" y="-844.5" font-family="Arial" font-size="10.00">AbsorptionCapacity</text>
<polygon fill="none" stroke="black" points="300,-817 300,-837 360,-837 360,-817 300,-817"/>
<text text-anchor="start" x="333.5" y="-823.7" font-family="Arial" font-size="9.00">Good</text>
<polygon fill="white" stroke="none" points="360,-817 360,-837 451,-837 451,-817 360,-817"/>
<polygon fill="none" stroke="black" points="360,-817 360,-837 451,-837 451,-817 360,-817"/>
<polygon fill="#f3f4f6" stroke="none" points="364,-821 364,-833 447,-833 447,-821 364,-821"/>
<polygon fill="#4ade80" stroke="none" points="366,-823 366,-831 422,-831 422,-823 366,-823"/>
<polygon fill="#f3f4f6" stroke="none" points="422,-823 422,-831 445,-831 445,-823 422,-823"/>
<polygon fill="none" stroke="black" points="451,-817 451,-837 490,-837 490,-817 451,-817"/>
<text text-anchor="start" x="454.75" y="-823.7" font-family="Arial" font-size="9.00">70.08%</text>
<polygon fill="none" stroke="black" points="300,-797 300,-817 360,-817 360,-797 300,-797"/>
<text text-anchor="start" x="339.5" y="-803.7" font-family="Arial" font-size="9.00">Bad</text>
<polygon fill="white" stroke="none" points="360,-797 360,-817 451,-817 451,-797 360,-797"/>
<polygon fill="none" stroke="black" points="360,-797 360,-817 451,-817 451,-797 360,-797"/>
<polygon fill="#f3f4f6" stroke="none" points="364,-801 364,-813 447,-813 447,-801 364,-801"/>
<polygon fill="#4ade80" stroke="none" points="366,-803 366,-811 389,-811 389,-803 366,-803"/>
<polygon fill="#f3f4f6" stroke="none" points="389,-803 389,-811 445,-811 445,-803 389,-803"/>
<polygon fill="none" stroke="black" points="451,-797 451,-817 490,-817 490,-797 451,-797"/>
<text text-anchor="start" x="454.75" y="-803.7" font-family="Arial" font-size="9.00">29.92%</text>
</g>
<!-- roadPassibility&#45;&gt;AbsorptionCapacity -->
<g id="edge8" class="edge">
<title>roadPassibility&#45;&gt;AbsorptionCapacity</title>
<path fill="none" stroke="#64748b" stroke-width="0.8" d="M240.79,-901C311.63,-901 395,-901 395,-901 395,-901 395,-870.17 395,-870.17"/>
<polygon fill="#64748b" stroke="#64748b" stroke-width="0.8" points="398.5,-870.17 395,-860.17 391.5,-870.17 398.5,-870.17"/>
</g>
<!-- emergencyType -->
<g id="node2" class="node">
<title>emergencyType</title>
<polygon fill="none" stroke="#3b82f6" points="0,-764 0,-786 286,-786 286,-764 0,-764"/>
<text text-anchor="start" x="108.5" y="-771.5" font-family="Arial" font-size="10.00">emergencyType</text>
<polygon fill="none" stroke="#3b82f6" points="0,-744 0,-764 150,-764 150,-744 0,-744"/>
<text text-anchor="start" x="54.5" y="-750.7" font-family="Arial" font-size="9.00">Vehicle_Self_Accident</text>
<polygon fill="white" stroke="none" points="150,-744 150,-764 242,-764 242,-744 150,-744"/>
<polygon fill="none" stroke="#3b82f6" points="150,-744 150,-764 242,-764 242,-744 150,-744"/>
<polygon fill="#f3f4f6" stroke="none" points="154,-748 154,-760 238,-760 238,-748 154,-748"/>
<polygon fill="#f3f4f6" stroke="none" points="156,-750 156,-758 236,-758 236,-750 156,-750"/>
<polygon fill="none" stroke="#3b82f6" points="242,-744 242,-764 286,-764 286,-744 242,-744"/>
<text text-anchor="start" x="255.75" y="-750.7" font-family="Arial" font-size="9.00">0.00%</text>
<polygon fill="none" stroke="#3b82f6" points="0,-724 0,-744 150,-744 150,-724 0,-724"/>
<text text-anchor="start" x="3.75" y="-730.7" font-family="Arial" font-size="9.00">Vehicle_to_Fixed_Object_Accident</text>
<polygon fill="white" stroke="none" points="150,-724 150,-744 242,-744 242,-724 150,-724"/>
<polygon fill="none" stroke="#3b82f6" points="150,-724 150,-744 242,-744 242,-724 150,-724"/>
<polygon fill="#f3f4f6" stroke="none" points="154,-728 154,-740 238,-740 238,-728 154,-728"/>
<polygon fill="#f3f4f6" stroke="none" points="156,-730 156,-738 236,-738 236,-730 156,-730"/>
<polygon fill="none" stroke="#3b82f6" points="242,-724 242,-744 286,-744 286,-724 242,-724"/>
<text text-anchor="start" x="255.75" y="-730.7" font-family="Arial" font-size="9.00">0.00%</text>
<polygon fill="none" stroke="#3b82f6" points="0,-704 0,-724 150,-724 150,-704 0,-704"/>
<text text-anchor="start" x="69.5" y="-710.7" font-family="Arial" font-size="9.00">Collision_Accident</text>
<polygon fill="white" stroke="none" points="150,-704 150,-724 242,-724 242,-704 150,-704"/>
<polygon fill="none" stroke="#3b82f6" points="150,-704 150,-724 242,-724 242,-704 150,-704"/>
<polygon fill="#f3f4f6" stroke="none" points="154,-708 154,-720 238,-720 238,-708 154,-708"/>
<polygon fill="#4ade80" stroke="none" points="156,-710 156,-718 236,-718 236,-710 156,-710"/>
<polygon fill="none" stroke="#3b82f6" points="242,-704 242,-724 286,-724 286,-704 242,-704"/>
<text text-anchor="start" x="245.62" y="-710.7" font-family="Arial" font-size="9.00">100.00%</text>
</g>
<!-- AdaptionCapacity -->
<g id="node13" class="node">
<title>AdaptionCapacity</title>
<polygon fill="none" stroke="black" points="300,-671 300,-693 490,-693 490,-671 300,-671"/>
<text text-anchor="start" x="356.38" y="-678.5" font-family="Arial" font-size="10.00">AdaptionCapacity</text>
<polygon fill="none" stroke="black" points="300,-651 300,-671 360,-671 360,-651 300,-651"/>
<text text-anchor="start" x="333.5" y="-657.7" font-family="Arial" font-size="9.00">Good</text>
<polygon fill="white" stroke="none" points="360,-651 360,-671 451,-671 451,-651 360,-651"/>
<polygon fill="none" stroke="black" points="360,-651 360,-671 451,-671 451,-651 360,-651"/>
<polygon fill="#f3f4f6" stroke="none" points="364,-655 364,-667 447,-667 447,-655 364,-655"/>
<polygon fill="#4ade80" stroke="none" points="366,-657 366,-665 380,-665 380,-657 366,-657"/>
<polygon fill="#f3f4f6" stroke="none" points="380,-657 380,-665 445,-665 445,-657 380,-657"/>
<polygon fill="none" stroke="black" points="451,-651 451,-671 490,-671 490,-651 451,-651"/>
<text text-anchor="start" x="454.75" y="-657.7" font-family="Arial" font-size="9.00">17.74%</text>
<polygon fill="none" stroke="black" points="300,-631 300,-651 360,-651 360,-631 300,-631"/>
<text text-anchor="start" x="339.5" y="-637.7" font-family="Arial" font-size="9.00">Bad</text>
<polygon fill="white" stroke="none" points="360,-631 360,-651 451,-651 451,-631 360,-631"/>
<polygon fill="none" stroke="black" points="360,-631 360,-651 451,-651 451,-631 360,-631"/>
<polygon fill="#f3f4f6" stroke="none" points="364,-635 364,-647 447,-647 447,-635 364,-635"/>
<polygon fill="#4ade80" stroke="none" points="366,-637 366,-645 431,-645 431,-637 366,-637"/>
<polygon fill="#f3f4f6" stroke="none" points="431,-637 431,-645 445,-645 445,-637 431,-637"/>
<polygon fill="none" stroke="black" points="451,-631 451,-651 490,-651 490,-631 451,-631"/>
<text text-anchor="start" x="454.75" y="-637.7" font-family="Arial" font-size="9.00">82.26%</text>
</g>
<!-- emergencyType&#45;&gt;AdaptionCapacity -->
<g id="edge1" class="edge">
<title>emergencyType&#45;&gt;AdaptionCapacity</title>
<path fill="none" stroke="#64748b" stroke-width="0.8" d="M265.5,-704.42C265.5,-687.77 265.5,-672.33 265.5,-672.33 265.5,-672.33 288.99,-672.33 288.99,-672.33"/>
<polygon fill="#64748b" stroke="#64748b" stroke-width="0.8" points="288.99,-675.83 298.99,-672.33 288.99,-668.83 288.99,-675.83"/>
</g>
<!-- roadLoss -->
<g id="node3" class="node">
<title>roadLoss</title>
<polygon fill="none" stroke="#3b82f6" points="45,-837 45,-859 241,-859 241,-837 45,-837"/>
<text text-anchor="start" x="123.12" y="-844.5" font-family="Arial" font-size="10.00">roadLoss</text>
<polygon fill="none" stroke="#3b82f6" points="45,-817 45,-837 105,-837 105,-817 45,-817"/>
<text text-anchor="start" x="62" y="-823.7" font-family="Arial" font-size="9.00">Not_Loss</text>
<polygon fill="white" stroke="none" points="105,-817 105,-837 197,-837 197,-817 105,-817"/>
<polygon fill="none" stroke="#3b82f6" points="105,-817 105,-837 197,-837 197,-817 105,-817"/>
<polygon fill="#f3f4f6" stroke="none" points="109,-821 109,-833 193,-833 193,-821 109,-821"/>
<polygon fill="#f3f4f6" stroke="none" points="111,-823 111,-831 191,-831 191,-823 111,-823"/>
<polygon fill="none" stroke="#3b82f6" points="197,-817 197,-837 241,-837 241,-817 197,-817"/>
<text text-anchor="start" x="210.75" y="-823.7" font-family="Arial" font-size="9.00">0.00%</text>
<polygon fill="none" stroke="#3b82f6" points="45,-797 45,-817 105,-817 105,-797 45,-797"/>
<text text-anchor="start" x="81.5" y="-803.7" font-family="Arial" font-size="9.00">Loss</text>
<polygon fill="white" stroke="none" points="105,-797 105,-817 197,-817 197,-797 105,-797"/>
<polygon fill="none" stroke="#3b82f6" points="105,-797 105,-817 197,-817 197,-797 105,-797"/>
<polygon fill="#f3f4f6" stroke="none" points="109,-801 109,-813 193,-813 193,-801 109,-801"/>
<polygon fill="#4ade80" stroke="none" points="111,-803 111,-811 191,-811 191,-803 111,-803"/>
<polygon fill="none" stroke="#3b82f6" points="197,-797 197,-817 241,-817 241,-797 197,-797"/>
<text text-anchor="start" x="200.62" y="-803.7" font-family="Arial" font-size="9.00">100.00%</text>
</g>
<!-- roadLoss&#45;&gt;AbsorptionCapacity -->
<g id="edge13" class="edge">
<title>roadLoss&#45;&gt;AbsorptionCapacity</title>
<path fill="none" stroke="#64748b" stroke-width="0.8" d="M240.79,-828C240.79,-828 288.95,-828 288.95,-828"/>
<polygon fill="#64748b" stroke="#64748b" stroke-width="0.8" points="288.95,-831.5 298.95,-828 288.95,-824.5 288.95,-831.5"/>
</g>
<!-- casualties -->
<g id="node4" class="node">
<title>casualties</title>
<polygon fill="none" stroke="#3b82f6" points="41,-671 41,-693 245,-693 245,-671 41,-671"/>
<text text-anchor="start" x="120.88" y="-678.5" font-family="Arial" font-size="10.00">casualties</text>
<polygon fill="none" stroke="#3b82f6" points="41,-651 41,-671 109,-671 109,-651 41,-651"/>
<text text-anchor="start" x="44.62" y="-657.7" font-family="Arial" font-size="9.00">No_Casualties</text>
<polygon fill="white" stroke="none" points="109,-651 109,-671 201,-671 201,-651 109,-651"/>
<polygon fill="none" stroke="#3b82f6" points="109,-651 109,-671 201,-671 201,-651 109,-651"/>
<polygon fill="#f3f4f6" stroke="none" points="113,-655 113,-667 197,-667 197,-655 113,-655"/>
<polygon fill="#4ade80" stroke="none" points="115,-657 115,-665 195,-665 195,-657 115,-657"/>
<polygon fill="none" stroke="#3b82f6" points="201,-651 201,-671 245,-671 245,-651 201,-651"/>
<text text-anchor="start" x="204.62" y="-657.7" font-family="Arial" font-size="9.00">100.00%</text>
<polygon fill="none" stroke="#3b82f6" points="41,-631 41,-651 109,-651 109,-631 41,-631"/>
<text text-anchor="start" x="61.5" y="-637.7" font-family="Arial" font-size="9.00">Casualties</text>
<polygon fill="white" stroke="none" points="109,-631 109,-651 201,-651 201,-631 109,-631"/>
<polygon fill="none" stroke="#3b82f6" points="109,-631 109,-651 201,-651 201,-631 109,-631"/>
<polygon fill="#f3f4f6" stroke="none" points="113,-635 113,-647 197,-647 197,-635 113,-635"/>
<polygon fill="#f3f4f6" stroke="none" points="115,-637 115,-645 195,-645 195,-637 115,-637"/>
<polygon fill="none" stroke="#3b82f6" points="201,-631 201,-651 245,-651 245,-631 201,-631"/>
<text text-anchor="start" x="214.75" y="-637.7" font-family="Arial" font-size="9.00">0.00%</text>
</g>
<!-- casualties&#45;&gt;AdaptionCapacity -->
<g id="edge11" class="edge">
<title>casualties&#45;&gt;AdaptionCapacity</title>
<path fill="none" stroke="#64748b" stroke-width="0.8" d="M244.77,-651.67C244.77,-651.67 288.98,-651.67 288.98,-651.67"/>
<polygon fill="#64748b" stroke="#64748b" stroke-width="0.8" points="288.98,-655.17 298.98,-651.67 288.98,-648.17 288.98,-655.17"/>
</g>
<!-- AidResource -->
<g id="node5" class="node">
<title>AidResource</title>
<polygon fill="none" stroke="#3b82f6" points="45,-485 45,-507 241,-507 241,-485 45,-485"/>
<text text-anchor="start" x="114.88" y="-492.5" font-family="Arial" font-size="10.00">AidResource</text>
<polygon fill="none" stroke="#3b82f6" points="45,-465 45,-485 105,-485 105,-465 45,-465"/>
<text text-anchor="start" x="59.75" y="-471.7" font-family="Arial" font-size="9.00">Not_Used</text>
<polygon fill="white" stroke="none" points="105,-465 105,-485 197,-485 197,-465 105,-465"/>
<polygon fill="none" stroke="#3b82f6" points="105,-465 105,-485 197,-485 197,-465 105,-465"/>
<polygon fill="#f3f4f6" stroke="none" points="109,-469 109,-481 193,-481 193,-469 109,-469"/>
<polygon fill="#f3f4f6" stroke="none" points="111,-471 111,-479 191,-479 191,-471 111,-471"/>
<polygon fill="none" stroke="#3b82f6" points="197,-465 197,-485 241,-485 241,-465 197,-465"/>
<text text-anchor="start" x="210.75" y="-471.7" font-family="Arial" font-size="9.00">0.00%</text>
<polygon fill="none" stroke="#3b82f6" points="45,-445 45,-465 105,-465 105,-445 45,-445"/>
<text text-anchor="start" x="79.25" y="-451.7" font-family="Arial" font-size="9.00">Used</text>
<polygon fill="white" stroke="none" points="105,-445 105,-465 197,-465 197,-445 105,-445"/>
<polygon fill="none" stroke="#3b82f6" points="105,-445 105,-465 197,-465 197,-445 105,-445"/>
<polygon fill="#f3f4f6" stroke="none" points="109,-449 109,-461 193,-461 193,-449 109,-449"/>
<polygon fill="#4ade80" stroke="none" points="111,-451 111,-459 191,-459 191,-451 111,-451"/>
<polygon fill="none" stroke="#3b82f6" points="197,-445 197,-465 241,-465 241,-445 197,-445"/>
<text text-anchor="start" x="200.62" y="-451.7" font-family="Arial" font-size="9.00">100.00%</text>
</g>
<!-- RecoveryCapacity -->
<g id="node14" class="node">
<title>RecoveryCapacity</title>
<polygon fill="none" stroke="black" points="300,-339 300,-361 490,-361 490,-339 300,-339"/>
<text text-anchor="start" x="354.5" y="-346.5" font-family="Arial" font-size="10.00">RecoveryCapacity</text>
<polygon fill="none" stroke="black" points="300,-319 300,-339 360,-339 360,-319 300,-319"/>
<text text-anchor="start" x="333.5" y="-325.7" font-family="Arial" font-size="9.00">Good</text>
<polygon fill="white" stroke="none" points="360,-319 360,-339 451,-339 451,-319 360,-319"/>
<polygon fill="none" stroke="black" points="360,-319 360,-339 451,-339 451,-319 360,-319"/>
<polygon fill="#f3f4f6" stroke="none" points="364,-323 364,-335 447,-335 447,-323 364,-323"/>
<polygon fill="#4ade80" stroke="none" points="366,-325 366,-333 399,-333 399,-325 366,-325"/>
<polygon fill="#f3f4f6" stroke="none" points="399,-325 399,-333 445,-333 445,-325 399,-325"/>
<polygon fill="none" stroke="black" points="451,-319 451,-339 490,-339 490,-319 451,-319"/>
<text text-anchor="start" x="454.75" y="-325.7" font-family="Arial" font-size="9.00">42.26%</text>
<polygon fill="none" stroke="black" points="300,-299 300,-319 360,-319 360,-299 300,-299"/>
<text text-anchor="start" x="339.5" y="-305.7" font-family="Arial" font-size="9.00">Bad</text>
<polygon fill="white" stroke="none" points="360,-299 360,-319 451,-319 451,-299 360,-299"/>
<polygon fill="none" stroke="black" points="360,-299 360,-319 451,-319 451,-299 360,-299"/>
<polygon fill="#f3f4f6" stroke="none" points="364,-303 364,-315 447,-315 447,-303 364,-303"/>
<polygon fill="#4ade80" stroke="none" points="366,-305 366,-313 412,-313 412,-305 366,-305"/>
<polygon fill="#f3f4f6" stroke="none" points="412,-305 412,-313 445,-313 445,-305 412,-305"/>
<polygon fill="none" stroke="black" points="451,-299 451,-319 490,-319 490,-299 451,-299"/>
<text text-anchor="start" x="454.75" y="-305.7" font-family="Arial" font-size="9.00">57.74%</text>
</g>
<!-- AidResource&#45;&gt;RecoveryCapacity -->
<g id="edge4" class="edge">
<title>AidResource&#45;&gt;RecoveryCapacity</title>
<path fill="none" stroke="#64748b" stroke-width="0.8" d="M240.65,-476C328.05,-476 442.5,-476 442.5,-476 442.5,-476 442.5,-372.17 442.5,-372.17"/>
<polygon fill="#64748b" stroke="#64748b" stroke-width="0.8" points="446,-372.17 442.5,-362.17 439,-372.17 446,-372.17"/>
</g>
<!-- TowResource -->
<g id="node6" class="node">
<title>TowResource</title>
<polygon fill="none" stroke="#3b82f6" points="45,-412 45,-434 241,-434 241,-412 45,-412"/>
<text text-anchor="start" x="113" y="-419.5" font-family="Arial" font-size="10.00">TowResource</text>
<polygon fill="none" stroke="#3b82f6" points="45,-392 45,-412 105,-412 105,-392 45,-392"/>
<text text-anchor="start" x="59.75" y="-398.7" font-family="Arial" font-size="9.00">Not_Used</text>
<polygon fill="white" stroke="none" points="105,-392 105,-412 197,-412 197,-392 105,-392"/>
<polygon fill="none" stroke="#3b82f6" points="105,-392 105,-412 197,-412 197,-392 105,-392"/>
<polygon fill="#f3f4f6" stroke="none" points="109,-396 109,-408 193,-408 193,-396 109,-396"/>
<polygon fill="#4ade80" stroke="none" points="111,-398 111,-406 191,-406 191,-398 111,-398"/>
<polygon fill="none" stroke="#3b82f6" points="197,-392 197,-412 241,-412 241,-392 197,-392"/>
<text text-anchor="start" x="200.62" y="-398.7" font-family="Arial" font-size="9.00">100.00%</text>
<polygon fill="none" stroke="#3b82f6" points="45,-372 45,-392 105,-392 105,-372 45,-372"/>
<text text-anchor="start" x="79.25" y="-378.7" font-family="Arial" font-size="9.00">Used</text>
<polygon fill="white" stroke="none" points="105,-372 105,-392 197,-392 197,-372 105,-372"/>
<polygon fill="none" stroke="#3b82f6" points="105,-372 105,-392 197,-392 197,-372 105,-372"/>
<polygon fill="#f3f4f6" stroke="none" points="109,-376 109,-388 193,-388 193,-376 109,-376"/>
<polygon fill="#f3f4f6" stroke="none" points="111,-378 111,-386 191,-386 191,-378 111,-378"/>
<polygon fill="none" stroke="#3b82f6" points="197,-372 197,-392 241,-392 241,-372 197,-372"/>
<text text-anchor="start" x="210.75" y="-378.7" font-family="Arial" font-size="9.00">0.00%</text>
</g>
<!-- TowResource&#45;&gt;RecoveryCapacity -->
<g id="edge7" class="edge">
<title>TowResource&#45;&gt;RecoveryCapacity</title>
<path fill="none" stroke="#64748b" stroke-width="0.8" d="M240.79,-403C311.63,-403 395,-403 395,-403 395,-403 395,-372.17 395,-372.17"/>
<polygon fill="#64748b" stroke="#64748b" stroke-width="0.8" points="398.5,-372.17 395,-362.17 391.5,-372.17 398.5,-372.17"/>
</g>
<!-- FirefightingResource -->
<g id="node7" class="node">
<title>FirefightingResource</title>
<polygon fill="none" stroke="#3b82f6" points="45,-339 45,-361 241,-361 241,-339 45,-339"/>
<text text-anchor="start" x="98" y="-346.5" font-family="Arial" font-size="10.00">FirefightingResource</text>
<polygon fill="none" stroke="#3b82f6" points="45,-319 45,-339 105,-339 105,-319 45,-319"/>
<text text-anchor="start" x="59.75" y="-325.7" font-family="Arial" font-size="9.00">Not_Used</text>
<polygon fill="white" stroke="none" points="105,-319 105,-339 197,-339 197,-319 105,-319"/>
<polygon fill="none" stroke="#3b82f6" points="105,-319 105,-339 197,-339 197,-319 105,-319"/>
<polygon fill="#f3f4f6" stroke="none" points="109,-323 109,-335 193,-335 193,-323 109,-323"/>
<polygon fill="#4ade80" stroke="none" points="111,-325 111,-333 191,-333 191,-325 111,-325"/>
<polygon fill="none" stroke="#3b82f6" points="197,-319 197,-339 241,-339 241,-319 197,-319"/>
<text text-anchor="start" x="200.62" y="-325.7" font-family="Arial" font-size="9.00">100.00%</text>
<polygon fill="none" stroke="#3b82f6" points="45,-299 45,-319 105,-319 105,-299 45,-299"/>
<text text-anchor="start" x="79.25" y="-305.7" font-family="Arial" font-size="9.00">Used</text>
<polygon fill="white" stroke="none" points="105,-299 105,-319 197,-319 197,-299 105,-299"/>
<polygon fill="none" stroke="#3b82f6" points="105,-299 105,-319 197,-319 197,-299 105,-299"/>
<polygon fill="#f3f4f6" stroke="none" points="109,-303 109,-315 193,-315 193,-303 109,-303"/>
<polygon fill="#f3f4f6" stroke="none" points="111,-305 111,-313 191,-313 191,-305 111,-305"/>
<polygon fill="none" stroke="#3b82f6" points="197,-299 197,-319 241,-319 241,-299 197,-299"/>
<text text-anchor="start" x="210.75" y="-305.7" font-family="Arial" font-size="9.00">0.00%</text>
</g>
<!-- FirefightingResource&#45;&gt;RecoveryCapacity -->
<g id="edge9" class="edge">
<title>FirefightingResource&#45;&gt;RecoveryCapacity</title>
<path fill="none" stroke="#64748b" stroke-width="0.8" d="M240.79,-330C240.79,-330 288.95,-330 288.95,-330"/>
<polygon fill="#64748b" stroke="#64748b" stroke-width="0.8" points="288.95,-333.5 298.95,-330 288.95,-326.5 288.95,-333.5"/>
</g>
<!-- RescueResource -->
<g id="node8" class="node">
<title>RescueResource</title>
<polygon fill="none" stroke="#3b82f6" points="45,-266 45,-288 241,-288 241,-266 45,-266"/>
<text text-anchor="start" x="105.12" y="-273.5" font-family="Arial" font-size="10.00">RescueResource</text>
<polygon fill="none" stroke="#3b82f6" points="45,-246 45,-266 105,-266 105,-246 45,-246"/>
<text text-anchor="start" x="59.75" y="-252.7" font-family="Arial" font-size="9.00">Not_Used</text>
<polygon fill="white" stroke="none" points="105,-246 105,-266 197,-266 197,-246 105,-246"/>
<polygon fill="none" stroke="#3b82f6" points="105,-246 105,-266 197,-266 197,-246 105,-246"/>
<polygon fill="#f3f4f6" stroke="none" points="109,-250 109,-262 193,-262 193,-250 109,-250"/>
<polygon fill="#4ade80" stroke="none" points="111,-252 111,-260 191,-260 191,-252 111,-252"/>
<polygon fill="none" stroke="#3b82f6" points="197,-246 197,-266 241,-266 241,-246 197,-246"/>
<text text-anchor="start" x="200.62" y="-252.7" font-family="Arial" font-size="9.00">100.00%</text>
<polygon fill="none" stroke="#3b82f6" points="45,-226 45,-246 105,-246 105,-226 45,-226"/>
<text text-anchor="start" x="79.25" y="-232.7" font-family="Arial" font-size="9.00">Used</text>
<polygon fill="white" stroke="none" points="105,-226 105,-246 197,-246 197,-226 105,-226"/>
<polygon fill="none" stroke="#3b82f6" points="105,-226 105,-246 197,-246 197,-226 105,-226"/>
<polygon fill="#f3f4f6" stroke="none" points="109,-230 109,-242 193,-242 193,-230 109,-230"/>
<polygon fill="#f3f4f6" stroke="none" points="111,-232 111,-240 191,-240 191,-232 111,-232"/>
<polygon fill="none" stroke="#3b82f6" points="197,-226 197,-246 241,-246 241,-226 197,-226"/>
<text text-anchor="start" x="210.75" y="-232.7" font-family="Arial" font-size="9.00">0.00%</text>
</g>
<!-- RescueResource&#45;&gt;RecoveryCapacity -->
<g id="edge5" class="edge">
<title>RescueResource&#45;&gt;RecoveryCapacity</title>
<path fill="none" stroke="#64748b" stroke-width="0.8" d="M240.76,-257C293.34,-257 347.5,-257 347.5,-257 347.5,-257 347.5,-287.83 347.5,-287.83"/>
<polygon fill="#64748b" stroke="#64748b" stroke-width="0.8" points="344,-287.83 347.5,-297.83 351,-287.83 344,-287.83"/>
</g>
<!-- emergencyPeriod -->
<g id="node9" class="node">
<title>emergencyPeriod</title>
<polygon fill="none" stroke="#3b82f6" points="41,-598 41,-620 245,-620 245,-598 41,-598"/>
<text text-anchor="start" x="105.12" y="-605.5" font-family="Arial" font-size="10.00">emergencyPeriod</text>
<polygon fill="none" stroke="#3b82f6" points="41,-578 41,-598 109,-598 109,-578 41,-578"/>
<text text-anchor="start" x="45" y="-584.7" font-family="Arial" font-size="9.00">Early_Morning</text>
<polygon fill="white" stroke="none" points="109,-578 109,-598 201,-598 201,-578 109,-578"/>
<polygon fill="none" stroke="#3b82f6" points="109,-578 109,-598 201,-598 201,-578 109,-578"/>
<polygon fill="#f3f4f6" stroke="none" points="113,-582 113,-594 197,-594 197,-582 113,-582"/>
<polygon fill="#f3f4f6" stroke="none" points="115,-584 115,-592 195,-592 195,-584 115,-584"/>
<polygon fill="none" stroke="#3b82f6" points="201,-578 201,-598 245,-598 245,-578 201,-578"/>
<text text-anchor="start" x="214.75" y="-584.7" font-family="Arial" font-size="9.00">0.00%</text>
<polygon fill="none" stroke="#3b82f6" points="41,-558 41,-578 109,-578 109,-558 41,-558"/>
<text text-anchor="start" x="71.25" y="-564.7" font-family="Arial" font-size="9.00">Morning</text>
<polygon fill="white" stroke="none" points="109,-558 109,-578 201,-578 201,-558 109,-558"/>
<polygon fill="none" stroke="#3b82f6" points="109,-558 109,-578 201,-578 201,-558 109,-558"/>
<polygon fill="#f3f4f6" stroke="none" points="113,-562 113,-574 197,-574 197,-562 113,-562"/>
<polygon fill="#4ade80" stroke="none" points="115,-564 115,-572 195,-572 195,-564 115,-564"/>
<polygon fill="none" stroke="#3b82f6" points="201,-558 201,-578 245,-578 245,-558 201,-558"/>
<text text-anchor="start" x="204.62" y="-564.7" font-family="Arial" font-size="9.00">100.00%</text>
<polygon fill="none" stroke="#3b82f6" points="41,-538 41,-558 109,-558 109,-538 41,-538"/>
<text text-anchor="start" x="65.25" y="-544.7" font-family="Arial" font-size="9.00">Afternoon</text>
<polygon fill="white" stroke="none" points="109,-538 109,-558 201,-558 201,-538 109,-538"/>
<polygon fill="none" stroke="#3b82f6" points="109,-538 109,-558 201,-558 201,-538 109,-538"/>
<polygon fill="#f3f4f6" stroke="none" points="113,-542 113,-554 197,-554 197,-542 113,-542"/>
<polygon fill="#f3f4f6" stroke="none" points="115,-544 115,-552 195,-552 195,-544 115,-544"/>
<polygon fill="none" stroke="#3b82f6" points="201,-538 201,-558 245,-558 245,-538 201,-538"/>
<text text-anchor="start" x="214.75" y="-544.7" font-family="Arial" font-size="9.00">0.00%</text>
<polygon fill="none" stroke="#3b82f6" points="41,-518 41,-538 109,-538 109,-518 41,-518"/>
<text text-anchor="start" x="71.25" y="-524.7" font-family="Arial" font-size="9.00">Evening</text>
<polygon fill="white" stroke="none" points="109,-518 109,-538 201,-538 201,-518 109,-518"/>
<polygon fill="none" stroke="#3b82f6" points="109,-518 109,-538 201,-538 201,-518 109,-518"/>
<polygon fill="#f3f4f6" stroke="none" points="113,-522 113,-534 197,-534 197,-522 113,-522"/>
<polygon fill="#f3f4f6" stroke="none" points="115,-524 115,-532 195,-532 195,-524 115,-524"/>
<polygon fill="none" stroke="#3b82f6" points="201,-518 201,-538 245,-538 245,-518 201,-518"/>
<text text-anchor="start" x="214.75" y="-524.7" font-family="Arial" font-size="9.00">0.00%</text>
</g>
<!-- emergencyPeriod&#45;&gt;AdaptionCapacity -->
<g id="edge10" class="edge">
<title>emergencyPeriod&#45;&gt;AdaptionCapacity</title>
<path fill="none" stroke="#64748b" stroke-width="0.8" d="M244.95,-569C296.18,-569 347.5,-569 347.5,-569 347.5,-569 347.5,-619.82 347.5,-619.82"/>
<polygon fill="#64748b" stroke="#64748b" stroke-width="0.8" points="344,-619.82 347.5,-629.82 351,-619.82 344,-619.82"/>
</g>
<!-- responseDuration -->
<g id="node10" class="node">
<title>responseDuration</title>
<polygon fill="none" stroke="#3b82f6" points="45,-193 45,-215 241,-215 241,-193 45,-193"/>
<text text-anchor="start" x="104.75" y="-200.5" font-family="Arial" font-size="10.00">responseDuration</text>
<polygon fill="none" stroke="#3b82f6" points="45,-173 45,-193 105,-193 105,-173 45,-173"/>
<text text-anchor="start" x="67.25" y="-179.7" font-family="Arial" font-size="9.00">0&#45;15min</text>
<polygon fill="white" stroke="none" points="105,-173 105,-193 197,-193 197,-173 105,-173"/>
<polygon fill="none" stroke="#3b82f6" points="105,-173 105,-193 197,-193 197,-173 105,-173"/>
<polygon fill="#f3f4f6" stroke="none" points="109,-177 109,-189 193,-189 193,-177 109,-177"/>
<polygon fill="#f3f4f6" stroke="none" points="111,-179 111,-187 191,-187 191,-179 111,-179"/>
<polygon fill="none" stroke="#3b82f6" points="197,-173 197,-193 241,-193 241,-173 197,-173"/>
<text text-anchor="start" x="210.75" y="-179.7" font-family="Arial" font-size="9.00">0.00%</text>
<polygon fill="none" stroke="#3b82f6" points="45,-153 45,-173 105,-173 105,-153 45,-153"/>
<text text-anchor="start" x="62" y="-159.7" font-family="Arial" font-size="9.00">15&#45;30min</text>
<polygon fill="white" stroke="none" points="105,-153 105,-173 197,-173 197,-153 105,-153"/>
<polygon fill="none" stroke="#3b82f6" points="105,-153 105,-173 197,-173 197,-153 105,-153"/>
<polygon fill="#f3f4f6" stroke="none" points="109,-157 109,-169 193,-169 193,-157 109,-157"/>
<polygon fill="#f3f4f6" stroke="none" points="111,-159 111,-167 191,-167 191,-159 111,-159"/>
<polygon fill="none" stroke="#3b82f6" points="197,-153 197,-173 241,-173 241,-153 197,-153"/>
<text text-anchor="start" x="210.75" y="-159.7" font-family="Arial" font-size="9.00">0.00%</text>
<polygon fill="none" stroke="#3b82f6" points="45,-133 45,-153 105,-153 105,-133 45,-133"/>
<text text-anchor="start" x="62" y="-139.7" font-family="Arial" font-size="9.00">30&#45;60min</text>
<polygon fill="white" stroke="none" points="105,-133 105,-153 197,-153 197,-133 105,-133"/>
<polygon fill="none" stroke="#3b82f6" points="105,-133 105,-153 197,-153 197,-133 105,-133"/>
<polygon fill="#f3f4f6" stroke="none" points="109,-137 109,-149 193,-149 193,-137 109,-137"/>
<polygon fill="#4ade80" stroke="none" points="111,-139 111,-147 191,-147 191,-139 111,-139"/>
<polygon fill="none" stroke="#3b82f6" points="197,-133 197,-153 241,-153 241,-133 197,-133"/>
<text text-anchor="start" x="200.62" y="-139.7" font-family="Arial" font-size="9.00">100.00%</text>
<polygon fill="none" stroke="#3b82f6" points="45,-113 45,-133 105,-133 105,-113 45,-113"/>
<text text-anchor="start" x="70.25" y="-119.7" font-family="Arial" font-size="9.00">60min+</text>
<polygon fill="white" stroke="none" points="105,-113 105,-133 197,-133 197,-113 105,-113"/>
<polygon fill="none" stroke="#3b82f6" points="105,-113 105,-133 197,-133 197,-113 105,-113"/>
<polygon fill="#f3f4f6" stroke="none" points="109,-117 109,-129 193,-129 193,-117 109,-117"/>
<polygon fill="#f3f4f6" stroke="none" points="111,-119 111,-127 191,-127 191,-119 111,-119"/>
<polygon fill="none" stroke="#3b82f6" points="197,-113 197,-133 241,-133 241,-113 197,-113"/>
<text text-anchor="start" x="210.75" y="-119.7" font-family="Arial" font-size="9.00">0.00%</text>
</g>
<!-- responseDuration&#45;&gt;RecoveryCapacity -->
<g id="edge3" class="edge">
<title>responseDuration&#45;&gt;RecoveryCapacity</title>
<path fill="none" stroke="#64748b" stroke-width="0.8" d="M240.79,-164C311.63,-164 395,-164 395,-164 395,-164 395,-287.95 395,-287.95"/>
<polygon fill="#64748b" stroke="#64748b" stroke-width="0.8" points="391.5,-287.95 395,-297.95 398.5,-287.95 391.5,-287.95"/>
</g>
<!-- disposalDuration -->
<g id="node11" class="node">
<title>disposalDuration</title>
<polygon fill="none" stroke="#3b82f6" points="45,-80 45,-102 241,-102 241,-80 45,-80"/>
<text text-anchor="start" x="106.62" y="-87.5" font-family="Arial" font-size="10.00">disposalDuration</text>
<polygon fill="none" stroke="#3b82f6" points="45,-60 45,-80 105,-80 105,-60 45,-60"/>
<text text-anchor="start" x="67.25" y="-66.7" font-family="Arial" font-size="9.00">0&#45;15min</text>
<polygon fill="white" stroke="none" points="105,-60 105,-80 197,-80 197,-60 105,-60"/>
<polygon fill="none" stroke="#3b82f6" points="105,-60 105,-80 197,-80 197,-60 105,-60"/>
<polygon fill="#f3f4f6" stroke="none" points="109,-64 109,-76 193,-76 193,-64 109,-64"/>
<polygon fill="#4ade80" stroke="none" points="111,-66 111,-74 191,-74 191,-66 111,-66"/>
<polygon fill="none" stroke="#3b82f6" points="197,-60 197,-80 241,-80 241,-60 197,-60"/>
<text text-anchor="start" x="200.62" y="-66.7" font-family="Arial" font-size="9.00">100.00%</text>
<polygon fill="none" stroke="#3b82f6" points="45,-40 45,-60 105,-60 105,-40 45,-40"/>
<text text-anchor="start" x="62" y="-46.7" font-family="Arial" font-size="9.00">15&#45;30min</text>
<polygon fill="white" stroke="none" points="105,-40 105,-60 197,-60 197,-40 105,-40"/>
<polygon fill="none" stroke="#3b82f6" points="105,-40 105,-60 197,-60 197,-40 105,-40"/>
<polygon fill="#f3f4f6" stroke="none" points="109,-44 109,-56 193,-56 193,-44 109,-44"/>
<polygon fill="#f3f4f6" stroke="none" points="111,-46 111,-54 191,-54 191,-46 111,-46"/>
<polygon fill="none" stroke="#3b82f6" points="197,-40 197,-60 241,-60 241,-40 197,-40"/>
<text text-anchor="start" x="210.75" y="-46.7" font-family="Arial" font-size="9.00">0.00%</text>
<polygon fill="none" stroke="#3b82f6" points="45,-20 45,-40 105,-40 105,-20 45,-20"/>
<text text-anchor="start" x="62" y="-26.7" font-family="Arial" font-size="9.00">30&#45;60min</text>
<polygon fill="white" stroke="none" points="105,-20 105,-40 197,-40 197,-20 105,-20"/>
<polygon fill="none" stroke="#3b82f6" points="105,-20 105,-40 197,-40 197,-20 105,-20"/>
<polygon fill="#f3f4f6" stroke="none" points="109,-24 109,-36 193,-36 193,-24 109,-24"/>
<polygon fill="#f3f4f6" stroke="none" points="111,-26 111,-34 191,-34 191,-26 111,-26"/>
<polygon fill="none" stroke="#3b82f6" points="197,-20 197,-40 241,-40 241,-20 197,-20"/>
<text text-anchor="start" x="210.75" y="-26.7" font-family="Arial" font-size="9.00">0.00%</text>
<polygon fill="none" stroke="#3b82f6" points="45,0 45,-20 105,-20 105,0 45,0"/>
<text text-anchor="start" x="70.25" y="-6.7" font-family="Arial" font-size="9.00">60min+</text>
<polygon fill="white" stroke="none" points="105,0 105,-20 197,-20 197,0 105,0"/>
<polygon fill="none" stroke="#3b82f6" points="105,0 105,-20 197,-20 197,0 105,0"/>
<polygon fill="#f3f4f6" stroke="none" points="109,-4 109,-16 193,-16 193,-4 109,-4"/>
<polygon fill="#f3f4f6" stroke="none" points="111,-6 111,-14 191,-14 191,-6 111,-6"/>
<polygon fill="none" stroke="#3b82f6" points="197,0 197,-20 241,-20 241,0 197,0"/>
<text text-anchor="start" x="210.75" y="-6.7" font-family="Arial" font-size="9.00">0.00%</text>
</g>
<!-- disposalDuration&#45;&gt;RecoveryCapacity -->
<g id="edge6" class="edge">
<title>disposalDuration&#45;&gt;RecoveryCapacity</title>
<path fill="none" stroke="#64748b" stroke-width="0.8" d="M240.65,-51C328.05,-51 442.5,-51 442.5,-51 442.5,-51 442.5,-287.87 442.5,-287.87"/>
<polygon fill="#64748b" stroke="#64748b" stroke-width="0.8" points="439,-287.87 442.5,-297.87 446,-287.87 439,-287.87"/>
</g>
<!-- ScenarioResilience -->
<g id="node15" class="node">
<title>ScenarioResilience</title>
<polygon fill="none" stroke="black" points="504,-671 504,-693 694,-693 694,-671 504,-671"/>
<text text-anchor="start" x="557" y="-678.5" font-family="Arial" font-size="10.00">ScenarioResilience</text>
<polygon fill="none" stroke="black" points="504,-651 504,-671 564,-671 564,-651 504,-651"/>
<text text-anchor="start" x="537.5" y="-657.7" font-family="Arial" font-size="9.00">Good</text>
<polygon fill="white" stroke="none" points="564,-651 564,-671 655,-671 655,-651 564,-651"/>
<polygon fill="none" stroke="black" points="564,-651 564,-671 655,-671 655,-651 564,-651"/>
<polygon fill="#f3f4f6" stroke="none" points="568,-655 568,-667 651,-667 651,-655 568,-655"/>
<polygon fill="#4ade80" stroke="none" points="570,-657 570,-665 598,-665 598,-657 570,-657"/>
<polygon fill="#f3f4f6" stroke="none" points="598,-657 598,-665 649,-665 649,-657 598,-657"/>
<polygon fill="none" stroke="black" points="655,-651 655,-671 694,-671 694,-651 655,-651"/>
<text text-anchor="start" x="658.75" y="-657.7" font-family="Arial" font-size="9.00">35.55%</text>
<polygon fill="none" stroke="black" points="504,-631 504,-651 564,-651 564,-631 504,-631"/>
<text text-anchor="start" x="543.5" y="-637.7" font-family="Arial" font-size="9.00">Bad</text>
<polygon fill="white" stroke="none" points="564,-631 564,-651 655,-651 655,-631 564,-631"/>
<polygon fill="none" stroke="black" points="564,-631 564,-651 655,-651 655,-631 564,-631"/>
<polygon fill="#f3f4f6" stroke="none" points="568,-635 568,-647 651,-647 651,-635 568,-635"/>
<polygon fill="#4ade80" stroke="none" points="570,-637 570,-645 621,-645 621,-637 570,-637"/>
<polygon fill="#f3f4f6" stroke="none" points="621,-637 621,-645 649,-645 649,-637 621,-637"/>
<polygon fill="none" stroke="black" points="655,-631 655,-651 694,-651 694,-631 655,-631"/>
<text text-anchor="start" x="658.75" y="-637.7" font-family="Arial" font-size="9.00">64.45%</text>
</g>
<!-- AbsorptionCapacity&#45;&gt;ScenarioResilience -->
<g id="edge12" class="edge">
<title>AbsorptionCapacity&#45;&gt;ScenarioResilience</title>
<path fill="none" stroke="#64748b" stroke-width="0.8" d="M489.83,-828C543.11,-828 599,-828 599,-828 599,-828 599,-704.05 599,-704.05"/>
<polygon fill="#64748b" stroke="#64748b" stroke-width="0.8" points="602.5,-704.05 599,-694.05 595.5,-704.05 602.5,-704.05"/>
</g>
<!-- AdaptionCapacity&#45;&gt;ScenarioResilience -->
<g id="edge14" class="edge">
<title>AdaptionCapacity&#45;&gt;ScenarioResilience</title>
<path fill="none" stroke="#64748b" stroke-width="0.8" d="M489.83,-662C489.83,-662 493,-662 493,-662"/>
<polygon fill="#64748b" stroke="#64748b" stroke-width="0.8" points="493,-665.5 503,-662 493,-658.5 493,-665.5"/>
</g>
<!-- RecoveryCapacity&#45;&gt;ScenarioResilience -->
<g id="edge2" class="edge">
<title>RecoveryCapacity&#45;&gt;ScenarioResilience</title>
<path fill="none" stroke="#64748b" stroke-width="0.8" d="M489.83,-330C543.11,-330 599,-330 599,-330 599,-330 599,-619.85 599,-619.85"/>
<polygon fill="#64748b" stroke="#64748b" stroke-width="0.8" points="595.5,-619.85 599,-629.85 602.5,-619.85 595.5,-619.85"/>
</g>
</g>
</svg>
