<?xml version="1.0" encoding="UTF-8" standalone="no"?>
<!DOCTYPE svg PUBLIC "-//W3C//DTD SVG 1.1//EN"
 "http://www.w3.org/Graphics/SVG/1.1/DTD/svg11.dtd">
<!-- Generated by graphviz version 12.1.2 (20240928.0832)
 -->
<!-- Title: G Pages: 1 -->
<svg width="2442pt" height="454pt"
 viewBox="0.00 0.00 2442.00 453.50" xmlns="http://www.w3.org/2000/svg" xmlns:xlink="http://www.w3.org/1999/xlink">
<g id="graph0" class="graph" transform="scale(1 1) rotate(0) translate(4 449.5)">
<title>G</title>
<polygon fill="white" stroke="none" points="-4,4 -4,-449.5 2438,-449.5 2438,4 -4,4"/>
<!-- node0000 -->
<g id="node1" class="node">
<title>node0000</title>
<ellipse fill="none" stroke="black" cx="1790" cy="-409.5" rx="36" ry="36"/>
<text text-anchor="middle" x="1790" y="-405.62" font-family="Times New Roman,serif" font-size="10.00">Thing</text>
</g>
<!-- node0001 -->
<g id="node2" class="node">
<title>node0001</title>
<ellipse fill="none" stroke="black" cx="1363" cy="-285" rx="36" ry="36"/>
<text text-anchor="middle" x="1363" y="-281.12" font-family="Times New Roman,serif" font-size="10.00">ScenarioElement</text>
</g>
<!-- node0001&#45;&gt;node0000 -->
<g id="edge1" class="edge">
<title>node0001&#45;&gt;node0000</title>
<path fill="none" stroke="black" d="M1396.91,-297.81C1438.97,-312.27 1512.97,-337.09 1577.25,-355.5 1634.19,-371.81 1700.51,-387.87 1743.77,-397.96"/>
<polygon fill="black" stroke="black" points="1742.78,-401.33 1753.32,-400.18 1744.37,-394.51 1742.78,-401.33"/>
<text text-anchor="middle" x="1586.62" y="-342.2" font-family="Times New Roman,serif" font-size="14.00">is a</text>
</g>
<!-- node0002 -->
<g id="node3" class="node">
<title>node0002</title>
<ellipse fill="none" stroke="black" cx="1520" cy="-285" rx="36" ry="36"/>
<text text-anchor="middle" x="1520" y="-281.12" font-family="Times New Roman,serif" font-size="10.00">InvolvedScenario</text>
</g>
<!-- node0002&#45;&gt;node0000 -->
<g id="edge2" class="edge">
<title>node0002&#45;&gt;node0000</title>
<path fill="none" stroke="black" d="M1547.2,-309.17C1552.88,-313.42 1558.97,-317.58 1565,-321 1623.77,-354.34 1697.75,-380.38 1744.47,-395.11"/>
<polygon fill="black" stroke="black" points="1743.42,-398.44 1754,-398.06 1745.49,-391.76 1743.42,-398.44"/>
<text text-anchor="middle" x="1639.73" y="-342.2" font-family="Times New Roman,serif" font-size="14.00">is a</text>
</g>
<!-- node0003 -->
<g id="node4" class="node">
<title>node0003</title>
<ellipse fill="none" stroke="black" cx="1610" cy="-285" rx="36" ry="36"/>
<text text-anchor="middle" x="1610" y="-281.12" font-family="Times New Roman,serif" font-size="10.00">Scenario</text>
</g>
<!-- node0003&#45;&gt;node0000 -->
<g id="edge3" class="edge">
<title>node0003&#45;&gt;node0000</title>
<path fill="none" stroke="black" d="M1637.8,-308.22C1643.43,-312.55 1649.35,-316.99 1655,-321 1686.22,-343.2 1722.74,-366.73 1749.92,-383.79"/>
<polygon fill="black" stroke="black" points="1747.86,-386.63 1758.2,-388.96 1751.57,-380.7 1747.86,-386.63"/>
<text text-anchor="middle" x="1711.9" y="-342.2" font-family="Times New Roman,serif" font-size="14.00">is a</text>
</g>
<!-- node0004 -->
<g id="node5" class="node">
<title>node0004</title>
<ellipse fill="none" stroke="black" cx="1700" cy="-285" rx="36" ry="36"/>
<text text-anchor="middle" x="1700" y="-286.75" font-family="Times New Roman,serif" font-size="10.00">ScenarioResilien</text>
<text text-anchor="middle" x="1700" y="-275.5" font-family="Times New Roman,serif" font-size="10.00">ce</text>
</g>
<!-- node0004&#45;&gt;node0000 -->
<g id="edge4" class="edge">
<title>node0004&#45;&gt;node0000</title>
<path fill="none" stroke="black" d="M1721.1,-314.72C1733.4,-331.46 1749.06,-352.77 1762.33,-370.84"/>
<polygon fill="black" stroke="black" points="1759.39,-372.75 1768.14,-378.74 1765.03,-368.61 1759.39,-372.75"/>
<text text-anchor="middle" x="1759.76" y="-342.2" font-family="Times New Roman,serif" font-size="14.00">is a</text>
</g>
<!-- node0005 -->
<g id="node6" class="node">
<title>node0005</title>
<ellipse fill="none" stroke="black" cx="1790" cy="-285" rx="36" ry="36"/>
<text text-anchor="middle" x="1790" y="-281.12" font-family="Times New Roman,serif" font-size="10.00">Emergency</text>
</g>
<!-- node0005&#45;&gt;node0000 -->
<g id="edge5" class="edge">
<title>node0005&#45;&gt;node0000</title>
<path fill="none" stroke="black" d="M1790,-321.43C1790,-334 1790,-348.35 1790,-361.72"/>
<polygon fill="black" stroke="black" points="1786.5,-361.63 1790,-371.63 1793.5,-361.63 1786.5,-361.63"/>
<text text-anchor="middle" x="1799.38" y="-342.2" font-family="Times New Roman,serif" font-size="14.00">is a</text>
</g>
<!-- node0006 -->
<g id="node7" class="node">
<title>node0006</title>
<ellipse fill="none" stroke="black" cx="1880" cy="-285" rx="36" ry="36"/>
<text text-anchor="middle" x="1880" y="-281.12" font-family="Times New Roman,serif" font-size="10.00">EmergencyPhase</text>
</g>
<!-- node0006&#45;&gt;node0000 -->
<g id="edge6" class="edge">
<title>node0006&#45;&gt;node0000</title>
<path fill="none" stroke="black" d="M1858.9,-314.72C1846.6,-331.46 1830.94,-352.77 1817.67,-370.84"/>
<polygon fill="black" stroke="black" points="1814.97,-368.61 1811.86,-378.74 1820.61,-372.75 1814.97,-368.61"/>
<text text-anchor="middle" x="1849.76" y="-342.2" font-family="Times New Roman,serif" font-size="14.00">is a</text>
</g>
<!-- node0007 -->
<g id="node8" class="node">
<title>node0007</title>
<ellipse fill="none" stroke="black" cx="1970" cy="-285" rx="36" ry="36"/>
<text text-anchor="middle" x="1970" y="-281.12" font-family="Times New Roman,serif" font-size="10.00">Item</text>
</g>
<!-- node0007&#45;&gt;node0000 -->
<g id="edge7" class="edge">
<title>node0007&#45;&gt;node0000</title>
<path fill="none" stroke="black" d="M1942.2,-308.22C1936.57,-312.55 1930.65,-316.99 1925,-321 1893.78,-343.2 1857.26,-366.73 1830.08,-383.79"/>
<polygon fill="black" stroke="black" points="1828.43,-380.7 1821.8,-388.96 1832.14,-386.63 1828.43,-380.7"/>
<text text-anchor="middle" x="1905.38" y="-342.2" font-family="Times New Roman,serif" font-size="14.00">is a</text>
</g>
<!-- node0008 -->
<g id="node9" class="node">
<title>node0008</title>
<ellipse fill="none" stroke="black" cx="2060" cy="-285" rx="36" ry="36"/>
<text text-anchor="middle" x="2060" y="-286.75" font-family="Times New Roman,serif" font-size="10.00">InvolvedScenario</text>
<text text-anchor="middle" x="2060" y="-275.5" font-family="Times New Roman,serif" font-size="10.00">Element</text>
</g>
<!-- node0008&#45;&gt;node0000 -->
<g id="edge8" class="edge">
<title>node0008&#45;&gt;node0000</title>
<path fill="none" stroke="black" d="M2032.8,-309.17C2027.12,-313.42 2021.03,-317.58 2015,-321 1956.23,-354.34 1882.25,-380.38 1835.53,-395.11"/>
<polygon fill="black" stroke="black" points="1834.51,-391.76 1826,-398.06 1836.58,-398.44 1834.51,-391.76"/>
<text text-anchor="middle" x="1989.41" y="-342.2" font-family="Times New Roman,serif" font-size="14.00">is a</text>
</g>
<!-- node0009 -->
<g id="node10" class="node">
<title>node0009</title>
<ellipse fill="none" stroke="black" cx="2218" cy="-285" rx="36" ry="36"/>
<text text-anchor="middle" x="2218" y="-286.75" font-family="Times New Roman,serif" font-size="10.00">ResilienceInflue</text>
<text text-anchor="middle" x="2218" y="-275.5" font-family="Times New Roman,serif" font-size="10.00">ntialFactors</text>
</g>
<!-- node0009&#45;&gt;node0000 -->
<g id="edge9" class="edge">
<title>node0009&#45;&gt;node0000</title>
<path fill="none" stroke="black" d="M2183.96,-297.8C2141.76,-312.25 2067.5,-337.07 2003,-355.5 1945.99,-371.79 1879.59,-387.85 1836.28,-397.95"/>
<polygon fill="black" stroke="black" points="1835.67,-394.5 1826.72,-400.17 1837.26,-401.32 1835.67,-394.5"/>
<text text-anchor="middle" x="2065.83" y="-342.2" font-family="Times New Roman,serif" font-size="14.00">is a</text>
</g>
<!-- node0010 -->
<g id="node11" class="node">
<title>node0010</title>
<ellipse fill="none" stroke="black" cx="576" cy="-160.5" rx="36" ry="36"/>
<text text-anchor="middle" x="576" y="-162.25" font-family="Times New Roman,serif" font-size="10.00">ResponsePlanElem</text>
<text text-anchor="middle" x="576" y="-151" font-family="Times New Roman,serif" font-size="10.00">ent</text>
</g>
<!-- node0010&#45;&gt;node0001 -->
<g id="edge10" class="edge">
<title>node0010&#45;&gt;node0001</title>
<path fill="none" stroke="black" d="M611.86,-167.08C739.66,-186.97 1172.83,-254.4 1316.37,-276.74"/>
<polygon fill="black" stroke="black" points="1315.46,-280.14 1325.88,-278.22 1316.54,-273.23 1315.46,-280.14"/>
<text text-anchor="middle" x="1025.99" y="-217.7" font-family="Times New Roman,serif" font-size="14.00">is a</text>
</g>
<!-- node0011 -->
<g id="node12" class="node">
<title>node0011</title>
<ellipse fill="none" stroke="black" cx="1228" cy="-160.5" rx="36" ry="36"/>
<text text-anchor="middle" x="1228" y="-156.62" font-family="Times New Roman,serif" font-size="10.00">AffectedElement</text>
</g>
<!-- node0011&#45;&gt;node0001 -->
<g id="edge11" class="edge">
<title>node0011&#45;&gt;node0001</title>
<path fill="none" stroke="black" d="M1254.35,-185.41C1275.44,-204.55 1305.2,-231.56 1328.25,-252.46"/>
<polygon fill="black" stroke="black" points="1325.84,-255.01 1335.6,-259.13 1330.54,-249.82 1325.84,-255.01"/>
<text text-anchor="middle" x="1312.96" y="-217.7" font-family="Times New Roman,serif" font-size="14.00">is a</text>
</g>
<!-- node0012 -->
<g id="node13" class="node">
<title>node0012</title>
<ellipse fill="none" stroke="black" cx="1363" cy="-160.5" rx="36" ry="36"/>
<text text-anchor="middle" x="1363" y="-162.25" font-family="Times New Roman,serif" font-size="10.00">EnvironmentEleme</text>
<text text-anchor="middle" x="1363" y="-151" font-family="Times New Roman,serif" font-size="10.00">nt</text>
</g>
<!-- node0012&#45;&gt;node0001 -->
<g id="edge12" class="edge">
<title>node0012&#45;&gt;node0001</title>
<path fill="none" stroke="black" d="M1363,-196.93C1363,-209.5 1363,-223.85 1363,-237.22"/>
<polygon fill="black" stroke="black" points="1359.5,-237.13 1363,-247.13 1366.5,-237.13 1359.5,-237.13"/>
<text text-anchor="middle" x="1372.38" y="-217.7" font-family="Times New Roman,serif" font-size="14.00">is a</text>
</g>
<!-- node0013 -->
<g id="node14" class="node">
<title>node0013</title>
<ellipse fill="none" stroke="black" cx="1453" cy="-160.5" rx="36" ry="36"/>
<text text-anchor="middle" x="1453" y="-156.62" font-family="Times New Roman,serif" font-size="10.00">HazardElement</text>
</g>
<!-- node0013&#45;&gt;node0001 -->
<g id="edge13" class="edge">
<title>node0013&#45;&gt;node0001</title>
<path fill="none" stroke="black" d="M1431.9,-190.22C1419.6,-206.96 1403.94,-228.27 1390.67,-246.34"/>
<polygon fill="black" stroke="black" points="1387.97,-244.11 1384.86,-254.24 1393.61,-248.25 1387.97,-244.11"/>
<text text-anchor="middle" x="1422.76" y="-217.7" font-family="Times New Roman,serif" font-size="14.00">is a</text>
</g>
<!-- node0014 -->
<g id="node15" class="node">
<title>node0014</title>
<ellipse fill="none" stroke="black" cx="1543" cy="-160.5" rx="36" ry="36"/>
<text text-anchor="middle" x="1543" y="-162.25" font-family="Times New Roman,serif" font-size="10.00">AbsorptionScenar</text>
<text text-anchor="middle" x="1543" y="-151" font-family="Times New Roman,serif" font-size="10.00">io</text>
</g>
<!-- node0014&#45;&gt;node0003 -->
<g id="edge14" class="edge">
<title>node0014&#45;&gt;node0003</title>
<path fill="none" stroke="black" d="M1560.08,-192.73C1568.43,-207.99 1578.58,-226.56 1587.55,-242.95"/>
<polygon fill="black" stroke="black" points="1584.36,-244.41 1592.22,-251.5 1590.5,-241.05 1584.36,-244.41"/>
<text text-anchor="middle" x="1589.89" y="-217.7" font-family="Times New Roman,serif" font-size="14.00">is a</text>
</g>
<!-- node0015 -->
<g id="node16" class="node">
<title>node0015</title>
<ellipse fill="none" stroke="black" cx="1633" cy="-160.5" rx="36" ry="36"/>
<text text-anchor="middle" x="1633" y="-156.62" font-family="Times New Roman,serif" font-size="10.00">AdaptionScenario</text>
</g>
<!-- node0015&#45;&gt;node0003 -->
<g id="edge15" class="edge">
<title>node0015&#45;&gt;node0003</title>
<path fill="none" stroke="black" d="M1626.47,-196.28C1624.04,-209.21 1621.25,-224.09 1618.66,-237.88"/>
<polygon fill="black" stroke="black" points="1615.23,-237.18 1616.82,-247.65 1622.11,-238.47 1615.23,-237.18"/>
<text text-anchor="middle" x="1632.25" y="-217.7" font-family="Times New Roman,serif" font-size="14.00">is a</text>
</g>
<!-- node0016 -->
<g id="node17" class="node">
<title>node0016</title>
<ellipse fill="none" stroke="black" cx="1723" cy="-160.5" rx="36" ry="36"/>
<text text-anchor="middle" x="1723" y="-156.62" font-family="Times New Roman,serif" font-size="10.00">RecoveryScenario</text>
</g>
<!-- node0016&#45;&gt;node0003 -->
<g id="edge16" class="edge">
<title>node0016&#45;&gt;node0003</title>
<path fill="none" stroke="black" d="M1698.76,-187.78C1682.15,-205.78 1659.95,-229.85 1641.91,-249.41"/>
<polygon fill="black" stroke="black" points="1639.44,-246.93 1635.23,-256.65 1644.58,-251.67 1639.44,-246.93"/>
<text text-anchor="middle" x="1682.64" y="-217.7" font-family="Times New Roman,serif" font-size="14.00">is a</text>
</g>
<!-- node0017 -->
<g id="node18" class="node">
<title>node0017</title>
<ellipse fill="none" stroke="black" cx="1858" cy="-160.5" rx="36" ry="36"/>
<text text-anchor="middle" x="1858" y="-156.62" font-family="Times New Roman,serif" font-size="10.00">passenger</text>
</g>
<!-- node0017&#45;&gt;node0007 -->
<g id="edge17" class="edge">
<title>node0017&#45;&gt;node0007</title>
<path fill="none" stroke="black" d="M1882.03,-187.78C1898.49,-205.78 1920.49,-229.85 1938.38,-249.41"/>
<polygon fill="black" stroke="black" points="1935.66,-251.63 1944.99,-256.65 1940.83,-246.91 1935.66,-251.63"/>
<text text-anchor="middle" x="1930.08" y="-217.7" font-family="Times New Roman,serif" font-size="14.00">is a</text>
</g>
<!-- node0018 -->
<g id="node19" class="node">
<title>node0018</title>
<ellipse fill="none" stroke="black" cx="1948" cy="-160.5" rx="36" ry="36"/>
<text text-anchor="middle" x="1948" y="-156.62" font-family="Times New Roman,serif" font-size="10.00">lane</text>
</g>
<!-- node0018&#45;&gt;node0007 -->
<g id="edge18" class="edge">
<title>node0018&#45;&gt;node0007</title>
<path fill="none" stroke="black" d="M1954.25,-196.28C1956.57,-209.21 1959.24,-224.09 1961.72,-237.88"/>
<polygon fill="black" stroke="black" points="1958.26,-238.42 1963.47,-247.65 1965.15,-237.19 1958.26,-238.42"/>
<text text-anchor="middle" x="1969.69" y="-217.7" font-family="Times New Roman,serif" font-size="14.00">is a</text>
</g>
<!-- node0019 -->
<g id="node20" class="node">
<title>node0019</title>
<ellipse fill="none" stroke="black" cx="2038" cy="-160.5" rx="36" ry="36"/>
<text text-anchor="middle" x="2038" y="-156.62" font-family="Times New Roman,serif" font-size="10.00">facility</text>
</g>
<!-- node0019&#45;&gt;node0007 -->
<g id="edge19" class="edge">
<title>node0019&#45;&gt;node0007</title>
<path fill="none" stroke="black" d="M2020.84,-192.41C2012.3,-207.79 2001.87,-226.58 1992.69,-243.13"/>
<polygon fill="black" stroke="black" points="1989.68,-241.33 1987.89,-251.77 1995.8,-244.73 1989.68,-241.33"/>
<text text-anchor="middle" x="2017.45" y="-217.7" font-family="Times New Roman,serif" font-size="14.00">is a</text>
</g>
<!-- node0020 -->
<g id="node21" class="node">
<title>node0020</title>
<ellipse fill="none" stroke="black" cx="2128" cy="-160.5" rx="36" ry="36"/>
<text text-anchor="middle" x="2128" y="-156.62" font-family="Times New Roman,serif" font-size="10.00">EconomicFactors</text>
</g>
<!-- node0020&#45;&gt;node0009 -->
<g id="edge20" class="edge">
<title>node0020&#45;&gt;node0009</title>
<path fill="none" stroke="black" d="M2149.1,-190.22C2161.4,-206.96 2177.06,-228.27 2190.33,-246.34"/>
<polygon fill="black" stroke="black" points="2187.39,-248.25 2196.14,-254.24 2193.03,-244.11 2187.39,-248.25"/>
<text text-anchor="middle" x="2187.76" y="-217.7" font-family="Times New Roman,serif" font-size="14.00">is a</text>
</g>
<!-- node0021 -->
<g id="node22" class="node">
<title>node0021</title>
<ellipse fill="none" stroke="black" cx="2218" cy="-160.5" rx="36" ry="36"/>
<text text-anchor="middle" x="2218" y="-156.62" font-family="Times New Roman,serif" font-size="10.00">TimeFactors</text>
</g>
<!-- node0021&#45;&gt;node0009 -->
<g id="edge21" class="edge">
<title>node0021&#45;&gt;node0009</title>
<path fill="none" stroke="black" d="M2218,-196.93C2218,-209.5 2218,-223.85 2218,-237.22"/>
<polygon fill="black" stroke="black" points="2214.5,-237.13 2218,-247.13 2221.5,-237.13 2214.5,-237.13"/>
<text text-anchor="middle" x="2227.38" y="-217.7" font-family="Times New Roman,serif" font-size="14.00">is a</text>
</g>
<!-- node0022 -->
<g id="node23" class="node">
<title>node0022</title>
<ellipse fill="none" stroke="black" cx="2308" cy="-160.5" rx="36" ry="36"/>
<text text-anchor="middle" x="2308" y="-156.62" font-family="Times New Roman,serif" font-size="10.00">SafetyFactors</text>
</g>
<!-- node0022&#45;&gt;node0009 -->
<g id="edge22" class="edge">
<title>node0022&#45;&gt;node0009</title>
<path fill="none" stroke="black" d="M2286.9,-190.22C2274.6,-206.96 2258.94,-228.27 2245.67,-246.34"/>
<polygon fill="black" stroke="black" points="2242.97,-244.11 2239.86,-254.24 2248.61,-248.25 2242.97,-244.11"/>
<text text-anchor="middle" x="2277.76" y="-217.7" font-family="Times New Roman,serif" font-size="14.00">is a</text>
</g>
<!-- node0023 -->
<g id="node24" class="node">
<title>node0023</title>
<ellipse fill="none" stroke="black" cx="2398" cy="-160.5" rx="36" ry="36"/>
<text text-anchor="middle" x="2398" y="-156.62" font-family="Times New Roman,serif" font-size="10.00">FunctionFactors</text>
</g>
<!-- node0023&#45;&gt;node0009 -->
<g id="edge23" class="edge">
<title>node0023&#45;&gt;node0009</title>
<path fill="none" stroke="black" d="M2370.2,-183.72C2364.57,-188.05 2358.65,-192.49 2353,-196.5 2321.78,-218.7 2285.26,-242.23 2258.08,-259.29"/>
<polygon fill="black" stroke="black" points="2256.43,-256.2 2249.8,-264.46 2260.14,-262.13 2256.43,-256.2"/>
<text text-anchor="middle" x="2333.38" y="-217.7" font-family="Times New Roman,serif" font-size="14.00">is a</text>
</g>
<!-- node0024 -->
<g id="node25" class="node">
<title>node0024</title>
<ellipse fill="none" stroke="black" cx="36" cy="-36" rx="36" ry="36"/>
<text text-anchor="middle" x="36" y="-32.5" font-family="Times New Roman,serif" font-size="10.00">plan2&#45;牵引</text>
</g>
<!-- node0024&#45;&gt;node0010 -->
<g id="edge24" class="edge">
<title>node0024&#45;&gt;node0010</title>
<path fill="none" stroke="black" d="M63.05,-60.45C68.73,-64.68 74.87,-68.76 81,-72 125.27,-95.39 139.42,-95.4 188.25,-106.5 309.31,-134.02 455.1,-149.26 528.64,-155.72"/>
<polygon fill="black" stroke="black" points="528.03,-159.18 538.3,-156.56 528.63,-152.21 528.03,-159.18"/>
<text text-anchor="middle" x="197.62" y="-93.2" font-family="Times New Roman,serif" font-size="14.00">is a</text>
</g>
<!-- node0025 -->
<g id="node26" class="node">
<title>node0025</title>
<ellipse fill="none" stroke="black" cx="126" cy="-36" rx="36" ry="36"/>
<text text-anchor="middle" x="126" y="-32.5" font-family="Times New Roman,serif" font-size="10.00">plan3&#45;抢修</text>
</g>
<!-- node0025&#45;&gt;node0010 -->
<g id="edge25" class="edge">
<title>node0025&#45;&gt;node0010</title>
<path fill="none" stroke="black" d="M153.05,-60.45C158.73,-64.68 164.87,-68.76 171,-72 289.27,-134.5 449.41,-152.37 528.19,-157.47"/>
<polygon fill="black" stroke="black" points="527.96,-160.96 538.16,-158.07 528.38,-153.97 527.96,-160.96"/>
<text text-anchor="middle" x="252.54" y="-93.2" font-family="Times New Roman,serif" font-size="14.00">is a</text>
</g>
<!-- node0026 -->
<g id="node27" class="node">
<title>node0026</title>
<ellipse fill="none" stroke="black" cx="216" cy="-36" rx="36" ry="36"/>
<text text-anchor="middle" x="216" y="-32.12" font-family="Times New Roman,serif" font-size="10.00">plan3</text>
</g>
<!-- node0026&#45;&gt;node0010 -->
<g id="edge26" class="edge">
<title>node0026&#45;&gt;node0010</title>
<path fill="none" stroke="black" d="M243.08,-60.39C248.77,-64.62 254.9,-68.72 261,-72 349.01,-119.31 464.94,-142.93 528.77,-153.07"/>
<polygon fill="black" stroke="black" points="528.15,-156.52 538.56,-154.58 529.21,-149.6 528.15,-156.52"/>
<text text-anchor="middle" x="343.79" y="-93.2" font-family="Times New Roman,serif" font-size="14.00">is a</text>
</g>
<!-- node0027 -->
<g id="node28" class="node">
<title>node0027</title>
<ellipse fill="none" stroke="black" cx="306" cy="-36" rx="36" ry="36"/>
<text text-anchor="middle" x="306" y="-32.5" font-family="Times New Roman,serif" font-size="10.00">plan3&#45;牵引</text>
</g>
<!-- node0027&#45;&gt;node0010 -->
<g id="edge27" class="edge">
<title>node0027&#45;&gt;node0010</title>
<path fill="none" stroke="black" d="M333.2,-60.17C338.88,-64.42 344.97,-68.58 351,-72 409.77,-105.34 483.75,-131.38 530.47,-146.11"/>
<polygon fill="black" stroke="black" points="529.42,-149.44 540,-149.06 531.49,-142.76 529.42,-149.44"/>
<text text-anchor="middle" x="425.73" y="-93.2" font-family="Times New Roman,serif" font-size="14.00">is a</text>
</g>
<!-- node0028 -->
<g id="node29" class="node">
<title>node0028</title>
<ellipse fill="none" stroke="black" cx="396" cy="-36" rx="36" ry="36"/>
<text text-anchor="middle" x="396" y="-32.5" font-family="Times New Roman,serif" font-size="10.00">plan1&#45;人员</text>
</g>
<!-- node0028&#45;&gt;node0010 -->
<g id="edge28" class="edge">
<title>node0028&#45;&gt;node0010</title>
<path fill="none" stroke="black" d="M423.8,-59.22C429.43,-63.55 435.35,-67.99 441,-72 472.22,-94.2 508.74,-117.73 535.92,-134.79"/>
<polygon fill="black" stroke="black" points="533.86,-137.63 544.2,-139.96 537.57,-131.7 533.86,-137.63"/>
<text text-anchor="middle" x="497.9" y="-93.2" font-family="Times New Roman,serif" font-size="14.00">is a</text>
</g>
<!-- node0029 -->
<g id="node30" class="node">
<title>node0029</title>
<ellipse fill="none" stroke="black" cx="486" cy="-36" rx="36" ry="36"/>
<text text-anchor="middle" x="486" y="-32.5" font-family="Times New Roman,serif" font-size="10.00">plan3&#45;救助</text>
</g>
<!-- node0029&#45;&gt;node0010 -->
<g id="edge29" class="edge">
<title>node0029&#45;&gt;node0010</title>
<path fill="none" stroke="black" d="M507.1,-65.72C519.4,-82.46 535.06,-103.77 548.33,-121.84"/>
<polygon fill="black" stroke="black" points="545.39,-123.75 554.14,-129.74 551.03,-119.61 545.39,-123.75"/>
<text text-anchor="middle" x="545.76" y="-93.2" font-family="Times New Roman,serif" font-size="14.00">is a</text>
</g>
<!-- node0030 -->
<g id="node31" class="node">
<title>node0030</title>
<ellipse fill="none" stroke="black" cx="576" cy="-36" rx="36" ry="36"/>
<text text-anchor="middle" x="576" y="-32.5" font-family="Times New Roman,serif" font-size="10.00">plan2&#45;人员</text>
</g>
<!-- node0030&#45;&gt;node0010 -->
<g id="edge30" class="edge">
<title>node0030&#45;&gt;node0010</title>
<path fill="none" stroke="black" d="M576,-72.43C576,-85 576,-99.35 576,-112.72"/>
<polygon fill="black" stroke="black" points="572.5,-112.63 576,-122.63 579.5,-112.63 572.5,-112.63"/>
<text text-anchor="middle" x="585.38" y="-93.2" font-family="Times New Roman,serif" font-size="14.00">is a</text>
</g>
<!-- node0031 -->
<g id="node32" class="node">
<title>node0031</title>
<ellipse fill="none" stroke="black" cx="666" cy="-36" rx="36" ry="36"/>
<text text-anchor="middle" x="666" y="-32.12" font-family="Times New Roman,serif" font-size="10.00">plan1</text>
</g>
<!-- node0031&#45;&gt;node0010 -->
<g id="edge31" class="edge">
<title>node0031&#45;&gt;node0010</title>
<path fill="none" stroke="black" d="M644.9,-65.72C632.6,-82.46 616.94,-103.77 603.67,-121.84"/>
<polygon fill="black" stroke="black" points="600.97,-119.61 597.86,-129.74 606.61,-123.75 600.97,-119.61"/>
<text text-anchor="middle" x="635.76" y="-93.2" font-family="Times New Roman,serif" font-size="14.00">is a</text>
</g>
<!-- node0032 -->
<g id="node33" class="node">
<title>node0032</title>
<ellipse fill="none" stroke="black" cx="756" cy="-36" rx="36" ry="36"/>
<text text-anchor="middle" x="756" y="-32.5" font-family="Times New Roman,serif" font-size="10.00">plan1&#45;救助</text>
</g>
<!-- node0032&#45;&gt;node0010 -->
<g id="edge32" class="edge">
<title>node0032&#45;&gt;node0010</title>
<path fill="none" stroke="black" d="M728.2,-59.22C722.57,-63.55 716.65,-67.99 711,-72 679.78,-94.2 643.26,-117.73 616.08,-134.79"/>
<polygon fill="black" stroke="black" points="614.43,-131.7 607.8,-139.96 618.14,-137.63 614.43,-131.7"/>
<text text-anchor="middle" x="691.38" y="-93.2" font-family="Times New Roman,serif" font-size="14.00">is a</text>
</g>
<!-- node0033 -->
<g id="node34" class="node">
<title>node0033</title>
<ellipse fill="none" stroke="black" cx="846" cy="-36" rx="36" ry="36"/>
<text text-anchor="middle" x="846" y="-32.5" font-family="Times New Roman,serif" font-size="10.00">plan2&#45;救助</text>
</g>
<!-- node0033&#45;&gt;node0010 -->
<g id="edge33" class="edge">
<title>node0033&#45;&gt;node0010</title>
<path fill="none" stroke="black" d="M818.8,-60.17C813.12,-64.42 807.03,-68.58 801,-72 742.23,-105.34 668.25,-131.38 621.53,-146.11"/>
<polygon fill="black" stroke="black" points="620.51,-142.76 612,-149.06 622.58,-149.44 620.51,-142.76"/>
<text text-anchor="middle" x="775.41" y="-93.2" font-family="Times New Roman,serif" font-size="14.00">is a</text>
</g>
<!-- node0034 -->
<g id="node35" class="node">
<title>node0034</title>
<ellipse fill="none" stroke="black" cx="936" cy="-36" rx="36" ry="36"/>
<text text-anchor="middle" x="936" y="-32.12" font-family="Times New Roman,serif" font-size="10.00">plan2</text>
</g>
<!-- node0034&#45;&gt;node0010 -->
<g id="edge34" class="edge">
<title>node0034&#45;&gt;node0010</title>
<path fill="none" stroke="black" d="M908.92,-60.38C903.23,-64.61 897.1,-68.72 891,-72 803.01,-119.34 687.08,-142.95 623.24,-153.08"/>
<polygon fill="black" stroke="black" points="622.79,-149.61 613.44,-154.59 623.86,-156.53 622.79,-149.61"/>
<text text-anchor="middle" x="860.46" y="-93.2" font-family="Times New Roman,serif" font-size="14.00">is a</text>
</g>
<!-- node0035 -->
<g id="node36" class="node">
<title>node0035</title>
<ellipse fill="none" stroke="black" cx="1026" cy="-36" rx="36" ry="36"/>
<text text-anchor="middle" x="1026" y="-32.5" font-family="Times New Roman,serif" font-size="10.00">plan3&#45;人员</text>
</g>
<!-- node0035&#45;&gt;node0010 -->
<g id="edge35" class="edge">
<title>node0035&#45;&gt;node0010</title>
<path fill="none" stroke="black" d="M998.95,-60.45C993.26,-64.68 987.12,-68.76 981,-72 862.75,-134.54 702.6,-152.39 623.81,-157.48"/>
<polygon fill="black" stroke="black" points="623.62,-153.98 613.85,-158.07 624.04,-160.97 623.62,-153.98"/>
<text text-anchor="middle" x="949.95" y="-93.2" font-family="Times New Roman,serif" font-size="14.00">is a</text>
</g>
<!-- node0036 -->
<g id="node37" class="node">
<title>node0036</title>
<ellipse fill="none" stroke="black" cx="1116" cy="-36" rx="36" ry="36"/>
<text text-anchor="middle" x="1116" y="-32.12" font-family="Times New Roman,serif" font-size="10.00">Road</text>
</g>
<!-- node0036&#45;&gt;node0011 -->
<g id="edge36" class="edge">
<title>node0036&#45;&gt;node0011</title>
<path fill="none" stroke="black" d="M1140.03,-63.28C1156.49,-81.28 1178.49,-105.35 1196.38,-124.91"/>
<polygon fill="black" stroke="black" points="1193.66,-127.13 1202.99,-132.15 1198.83,-122.41 1193.66,-127.13"/>
<text text-anchor="middle" x="1188.08" y="-93.2" font-family="Times New Roman,serif" font-size="14.00">is a</text>
</g>
<!-- node0037 -->
<g id="node38" class="node">
<title>node0037</title>
<ellipse fill="none" stroke="black" cx="1206" cy="-36" rx="36" ry="36"/>
<text text-anchor="middle" x="1206" y="-32.12" font-family="Times New Roman,serif" font-size="10.00">AffectedVehicle</text>
</g>
<!-- node0037&#45;&gt;node0011 -->
<g id="edge37" class="edge">
<title>node0037&#45;&gt;node0011</title>
<path fill="none" stroke="black" d="M1212.25,-71.78C1214.57,-84.71 1217.24,-99.59 1219.72,-113.38"/>
<polygon fill="black" stroke="black" points="1216.26,-113.92 1221.47,-123.15 1223.15,-112.69 1216.26,-113.92"/>
<text text-anchor="middle" x="1227.69" y="-93.2" font-family="Times New Roman,serif" font-size="14.00">is a</text>
</g>
<!-- node0038 -->
<g id="node39" class="node">
<title>node0038</title>
<ellipse fill="none" stroke="black" cx="1296" cy="-36" rx="36" ry="36"/>
<text text-anchor="middle" x="1296" y="-32.12" font-family="Times New Roman,serif" font-size="10.00">AffectedRoad</text>
</g>
<!-- node0038&#45;&gt;node0011 -->
<g id="edge38" class="edge">
<title>node0038&#45;&gt;node0011</title>
<path fill="none" stroke="black" d="M1278.84,-67.91C1270.3,-83.29 1259.87,-102.08 1250.69,-118.63"/>
<polygon fill="black" stroke="black" points="1247.68,-116.83 1245.89,-127.27 1253.8,-120.23 1247.68,-116.83"/>
<text text-anchor="middle" x="1275.45" y="-93.2" font-family="Times New Roman,serif" font-size="14.00">is a</text>
</g>
<!-- node0039 -->
<g id="node40" class="node">
<title>node0039</title>
<ellipse fill="none" stroke="black" cx="1386" cy="-36" rx="36" ry="36"/>
<text text-anchor="middle" x="1386" y="-32.12" font-family="Times New Roman,serif" font-size="10.00">Meteorology</text>
</g>
<!-- node0039&#45;&gt;node0012 -->
<g id="edge39" class="edge">
<title>node0039&#45;&gt;node0012</title>
<path fill="none" stroke="black" d="M1379.47,-71.78C1377.04,-84.71 1374.25,-99.59 1371.66,-113.38"/>
<polygon fill="black" stroke="black" points="1368.23,-112.68 1369.82,-123.15 1375.11,-113.97 1368.23,-112.68"/>
<text text-anchor="middle" x="1385.25" y="-93.2" font-family="Times New Roman,serif" font-size="14.00">is a</text>
</g>
<!-- node0040 -->
<g id="node41" class="node">
<title>node0040</title>
<ellipse fill="none" stroke="black" cx="1476" cy="-36" rx="36" ry="36"/>
<text text-anchor="middle" x="1476" y="-32.12" font-family="Times New Roman,serif" font-size="10.00">HazardVehicle</text>
</g>
<!-- node0040&#45;&gt;node0013 -->
<g id="edge40" class="edge">
<title>node0040&#45;&gt;node0013</title>
<path fill="none" stroke="black" d="M1469.47,-71.78C1467.04,-84.71 1464.25,-99.59 1461.66,-113.38"/>
<polygon fill="black" stroke="black" points="1458.23,-112.68 1459.82,-123.15 1465.11,-113.97 1458.23,-112.68"/>
<text text-anchor="middle" x="1475.25" y="-93.2" font-family="Times New Roman,serif" font-size="14.00">is a</text>
</g>
</g>
</svg>
