<?xml version="1.0" encoding="UTF-8" standalone="no"?>
<!DOCTYPE svg PUBLIC "-//W3C//DTD SVG 1.1//EN"
 "http://www.w3.org/Graphics/SVG/1.1/DTD/svg11.dtd">
<!-- Generated by graphviz version 12.1.2 (20240928.0832)
 -->
<!-- Title: G Pages: 1 -->
<svg width="1520pt" height="454pt"
 viewBox="0.00 0.00 1520.00 453.50" xmlns="http://www.w3.org/2000/svg" xmlns:xlink="http://www.w3.org/1999/xlink">
<g id="graph0" class="graph" transform="scale(1 1) rotate(0) translate(4 449.5)">
<title>G</title>
<polygon fill="white" stroke="none" points="-4,4 -4,-449.5 1516,-449.5 1516,4 -4,4"/>
<!-- node0000 -->
<g id="node1" class="node">
<title>node0000</title>
<ellipse fill="none" stroke="black" cx="666" cy="-409.5" rx="36" ry="36"/>
<text text-anchor="middle" x="666" y="-405.62" font-family="Times New Roman,serif" font-size="10.00">Thing</text>
</g>
<!-- node0001 -->
<g id="node2" class="node">
<title>node0001</title>
<ellipse fill="none" stroke="black" cx="396" cy="-285" rx="36" ry="36"/>
<text text-anchor="middle" x="396" y="-281.12" font-family="Times New Roman,serif" font-size="10.00">ScenarioElement</text>
</g>
<!-- node0001&#45;&gt;node0000 -->
<g id="edge1" class="edge">
<title>node0001&#45;&gt;node0000</title>
<path fill="none" stroke="black" d="M428.84,-300.9C477.59,-323.02 569.14,-364.55 623.12,-389.04"/>
<polygon fill="black" stroke="black" points="621.46,-392.14 632.01,-393.08 624.35,-385.76 621.46,-392.14"/>
<text text-anchor="middle" x="556.54" y="-342.2" font-family="Times New Roman,serif" font-size="14.00">is a</text>
</g>
<!-- node0002 -->
<g id="node3" class="node">
<title>node0002</title>
<ellipse fill="none" stroke="black" cx="1026" cy="-285" rx="36" ry="36"/>
<text text-anchor="middle" x="1026" y="-281.12" font-family="Times New Roman,serif" font-size="10.00">Item</text>
</g>
<!-- node0002&#45;&gt;node0000 -->
<g id="edge2" class="edge">
<title>node0002&#45;&gt;node0000</title>
<path fill="none" stroke="black" d="M991.81,-297.63C926.45,-319.87 783.82,-368.41 710.89,-393.23"/>
<polygon fill="black" stroke="black" points="710,-389.83 701.66,-396.37 712.25,-396.46 710,-389.83"/>
<text text-anchor="middle" x="876.93" y="-342.2" font-family="Times New Roman,serif" font-size="14.00">is a</text>
</g>
<!-- node0003 -->
<g id="node4" class="node">
<title>node0003</title>
<ellipse fill="none" stroke="black" cx="171" cy="-160.5" rx="36" ry="36"/>
<text text-anchor="middle" x="171" y="-156.62" font-family="Times New Roman,serif" font-size="10.00">AffectedElement</text>
</g>
<!-- node0003&#45;&gt;node0001 -->
<g id="edge3" class="edge">
<title>node0003&#45;&gt;node0001</title>
<path fill="none" stroke="black" d="M202.29,-178.53C241.97,-200.14 310.52,-237.46 354.53,-261.42"/>
<polygon fill="black" stroke="black" points="352.83,-264.48 363.29,-266.19 356.18,-258.34 352.83,-264.48"/>
<text text-anchor="middle" x="306.35" y="-217.7" font-family="Times New Roman,serif" font-size="14.00">is a</text>
</g>
<!-- node0004 -->
<g id="node5" class="node">
<title>node0004</title>
<ellipse fill="none" stroke="black" cx="306" cy="-160.5" rx="36" ry="36"/>
<text text-anchor="middle" x="306" y="-156.62" font-family="Times New Roman,serif" font-size="10.00">HazardElement</text>
</g>
<!-- node0004&#45;&gt;node0001 -->
<g id="edge4" class="edge">
<title>node0004&#45;&gt;node0001</title>
<path fill="none" stroke="black" d="M327.1,-190.22C339.4,-206.96 355.06,-228.27 368.33,-246.34"/>
<polygon fill="black" stroke="black" points="365.39,-248.25 374.14,-254.24 371.03,-244.11 365.39,-248.25"/>
<text text-anchor="middle" x="365.76" y="-217.7" font-family="Times New Roman,serif" font-size="14.00">is a</text>
</g>
<!-- node0005 -->
<g id="node6" class="node">
<title>node0005</title>
<ellipse fill="none" stroke="black" cx="396" cy="-160.5" rx="36" ry="36"/>
<text text-anchor="middle" x="396" y="-162.25" font-family="Times New Roman,serif" font-size="10.00">EnvironmentEleme</text>
<text text-anchor="middle" x="396" y="-151" font-family="Times New Roman,serif" font-size="10.00">nt</text>
</g>
<!-- node0005&#45;&gt;node0001 -->
<g id="edge5" class="edge">
<title>node0005&#45;&gt;node0001</title>
<path fill="none" stroke="black" d="M396,-196.93C396,-209.5 396,-223.85 396,-237.22"/>
<polygon fill="black" stroke="black" points="392.5,-237.13 396,-247.13 399.5,-237.13 392.5,-237.13"/>
<text text-anchor="middle" x="405.38" y="-217.7" font-family="Times New Roman,serif" font-size="14.00">is a</text>
</g>
<!-- node0006 -->
<g id="node7" class="node">
<title>node0006</title>
<ellipse fill="none" stroke="black" cx="891" cy="-160.5" rx="36" ry="36"/>
<text text-anchor="middle" x="891" y="-162.25" font-family="Times New Roman,serif" font-size="10.00">ResponsePlanElem</text>
<text text-anchor="middle" x="891" y="-151" font-family="Times New Roman,serif" font-size="10.00">ent</text>
</g>
<!-- node0006&#45;&gt;node0001 -->
<g id="edge6" class="edge">
<title>node0006&#45;&gt;node0001</title>
<path fill="none" stroke="black" d="M856.19,-170.11C768.87,-191.72 540.51,-248.24 442.15,-272.58"/>
<polygon fill="black" stroke="black" points="441.44,-269.15 432.57,-274.95 443.12,-275.95 441.44,-269.15"/>
<text text-anchor="middle" x="682.51" y="-217.7" font-family="Times New Roman,serif" font-size="14.00">is a</text>
</g>
<!-- node0007 -->
<g id="node8" class="node">
<title>node0007</title>
<ellipse fill="none" stroke="black" cx="981" cy="-160.5" rx="36" ry="36"/>
<text text-anchor="middle" x="981" y="-156.62" font-family="Times New Roman,serif" font-size="10.00">passenger</text>
</g>
<!-- node0007&#45;&gt;node0002 -->
<g id="edge7" class="edge">
<title>node0007&#45;&gt;node0002</title>
<path fill="none" stroke="black" d="M993.18,-194.65C998.33,-208.68 1004.4,-225.21 1009.92,-240.22"/>
<polygon fill="black" stroke="black" points="1006.56,-241.22 1013.29,-249.4 1013.13,-238.81 1006.56,-241.22"/>
<text text-anchor="middle" x="1015.57" y="-217.7" font-family="Times New Roman,serif" font-size="14.00">is a</text>
</g>
<!-- node0008 -->
<g id="node9" class="node">
<title>node0008</title>
<ellipse fill="none" stroke="black" cx="1071" cy="-160.5" rx="36" ry="36"/>
<text text-anchor="middle" x="1071" y="-156.62" font-family="Times New Roman,serif" font-size="10.00">lane</text>
</g>
<!-- node0008&#45;&gt;node0002 -->
<g id="edge8" class="edge">
<title>node0008&#45;&gt;node0002</title>
<path fill="none" stroke="black" d="M1058.82,-194.65C1053.67,-208.68 1047.6,-225.21 1042.08,-240.22"/>
<polygon fill="black" stroke="black" points="1038.87,-238.81 1038.71,-249.4 1045.44,-241.22 1038.87,-238.81"/>
<text text-anchor="middle" x="1060.57" y="-217.7" font-family="Times New Roman,serif" font-size="14.00">is a</text>
</g>
<!-- node0009 -->
<g id="node10" class="node">
<title>node0009</title>
<ellipse fill="none" stroke="black" cx="1161" cy="-160.5" rx="36" ry="36"/>
<text text-anchor="middle" x="1161" y="-156.62" font-family="Times New Roman,serif" font-size="10.00">facility</text>
</g>
<!-- node0009&#45;&gt;node0002 -->
<g id="edge9" class="edge">
<title>node0009&#45;&gt;node0002</title>
<path fill="none" stroke="black" d="M1134.65,-185.41C1113.56,-204.55 1083.8,-231.56 1060.75,-252.46"/>
<polygon fill="black" stroke="black" points="1058.46,-249.82 1053.4,-259.13 1063.16,-255.01 1058.46,-249.82"/>
<text text-anchor="middle" x="1110.96" y="-217.7" font-family="Times New Roman,serif" font-size="14.00">is a</text>
</g>
<!-- node0010 -->
<g id="node11" class="node">
<title>node0010</title>
<ellipse fill="none" stroke="black" cx="36" cy="-36" rx="36" ry="36"/>
<text text-anchor="middle" x="36" y="-32.12" font-family="Times New Roman,serif" font-size="10.00">AffectedVehicle</text>
</g>
<!-- node0010&#45;&gt;node0003 -->
<g id="edge10" class="edge">
<title>node0010&#45;&gt;node0003</title>
<path fill="none" stroke="black" d="M62.35,-60.91C83.44,-80.05 113.2,-107.06 136.25,-127.96"/>
<polygon fill="black" stroke="black" points="133.84,-130.51 143.6,-134.63 138.54,-125.32 133.84,-130.51"/>
<text text-anchor="middle" x="120.96" y="-93.2" font-family="Times New Roman,serif" font-size="14.00">is a</text>
</g>
<!-- node0011 -->
<g id="node12" class="node">
<title>node0011</title>
<ellipse fill="none" stroke="black" cx="126" cy="-36" rx="36" ry="36"/>
<text text-anchor="middle" x="126" y="-32.12" font-family="Times New Roman,serif" font-size="10.00">AffectedRoad</text>
</g>
<!-- node0011&#45;&gt;node0003 -->
<g id="edge11" class="edge">
<title>node0011&#45;&gt;node0003</title>
<path fill="none" stroke="black" d="M138.18,-70.15C143.33,-84.18 149.4,-100.71 154.92,-115.72"/>
<polygon fill="black" stroke="black" points="151.56,-116.72 158.29,-124.9 158.13,-114.31 151.56,-116.72"/>
<text text-anchor="middle" x="160.57" y="-93.2" font-family="Times New Roman,serif" font-size="14.00">is a</text>
</g>
<!-- node0012 -->
<g id="node13" class="node">
<title>node0012</title>
<ellipse fill="none" stroke="black" cx="216" cy="-36" rx="36" ry="36"/>
<text text-anchor="middle" x="216" y="-32.12" font-family="Times New Roman,serif" font-size="10.00">Road</text>
</g>
<!-- node0012&#45;&gt;node0003 -->
<g id="edge12" class="edge">
<title>node0012&#45;&gt;node0003</title>
<path fill="none" stroke="black" d="M203.82,-70.15C198.67,-84.18 192.6,-100.71 187.08,-115.72"/>
<polygon fill="black" stroke="black" points="183.87,-114.31 183.71,-124.9 190.44,-116.72 183.87,-114.31"/>
<text text-anchor="middle" x="205.57" y="-93.2" font-family="Times New Roman,serif" font-size="14.00">is a</text>
</g>
<!-- node0013 -->
<g id="node14" class="node">
<title>node0013</title>
<ellipse fill="none" stroke="black" cx="306" cy="-36" rx="36" ry="36"/>
<text text-anchor="middle" x="306" y="-32.12" font-family="Times New Roman,serif" font-size="10.00">HazardVehicle</text>
</g>
<!-- node0013&#45;&gt;node0004 -->
<g id="edge13" class="edge">
<title>node0013&#45;&gt;node0004</title>
<path fill="none" stroke="black" d="M306,-72.43C306,-85 306,-99.35 306,-112.72"/>
<polygon fill="black" stroke="black" points="302.5,-112.63 306,-122.63 309.5,-112.63 302.5,-112.63"/>
<text text-anchor="middle" x="315.38" y="-93.2" font-family="Times New Roman,serif" font-size="14.00">is a</text>
</g>
<!-- node0014 -->
<g id="node15" class="node">
<title>node0014</title>
<ellipse fill="none" stroke="black" cx="396" cy="-36" rx="36" ry="36"/>
<text text-anchor="middle" x="396" y="-32.12" font-family="Times New Roman,serif" font-size="10.00">Meteorology</text>
</g>
<!-- node0014&#45;&gt;node0005 -->
<g id="edge14" class="edge">
<title>node0014&#45;&gt;node0005</title>
<path fill="none" stroke="black" d="M396,-72.43C396,-85 396,-99.35 396,-112.72"/>
<polygon fill="black" stroke="black" points="392.5,-112.63 396,-122.63 399.5,-112.63 392.5,-112.63"/>
<text text-anchor="middle" x="405.38" y="-93.2" font-family="Times New Roman,serif" font-size="14.00">is a</text>
</g>
<!-- node0015 -->
<g id="node16" class="node">
<title>node0015</title>
<ellipse fill="none" stroke="black" cx="486" cy="-36" rx="36" ry="36"/>
<text text-anchor="middle" x="486" y="-32.12" font-family="Times New Roman,serif" font-size="10.00">plan1</text>
</g>
<!-- node0015&#45;&gt;node0006 -->
<g id="edge15" class="edge">
<title>node0015&#45;&gt;node0006</title>
<path fill="none" stroke="black" d="M513.03,-60.48C518.72,-64.7 524.87,-68.78 531,-72 634.3,-126.24 771.97,-147.54 843.42,-155.36"/>
<polygon fill="black" stroke="black" points="842.91,-158.82 853.22,-156.38 843.64,-151.86 842.91,-158.82"/>
<text text-anchor="middle" x="614.45" y="-93.2" font-family="Times New Roman,serif" font-size="14.00">is a</text>
</g>
<!-- node0016 -->
<g id="node17" class="node">
<title>node0016</title>
<ellipse fill="none" stroke="black" cx="576" cy="-36" rx="36" ry="36"/>
<text text-anchor="middle" x="576" y="-32.5" font-family="Times New Roman,serif" font-size="10.00">plan1&#45;人员</text>
</g>
<!-- node0016&#45;&gt;node0006 -->
<g id="edge16" class="edge">
<title>node0016&#45;&gt;node0006</title>
<path fill="none" stroke="black" d="M603.1,-60.36C608.78,-64.59 614.91,-68.7 621,-72 694.42,-111.75 788.94,-137.22 844.46,-149.89"/>
<polygon fill="black" stroke="black" points="843.69,-153.3 854.21,-152.07 845.22,-146.47 843.69,-153.3"/>
<text text-anchor="middle" x="701.05" y="-93.2" font-family="Times New Roman,serif" font-size="14.00">is a</text>
</g>
<!-- node0017 -->
<g id="node18" class="node">
<title>node0017</title>
<ellipse fill="none" stroke="black" cx="666" cy="-36" rx="36" ry="36"/>
<text text-anchor="middle" x="666" y="-32.5" font-family="Times New Roman,serif" font-size="10.00">plan1&#45;救助</text>
</g>
<!-- node0017&#45;&gt;node0006 -->
<g id="edge17" class="edge">
<title>node0017&#45;&gt;node0006</title>
<path fill="none" stroke="black" d="M693.43,-59.78C699.09,-64.06 705.12,-68.34 711,-72 755.43,-99.66 809.9,-125.06 847.2,-141.29"/>
<polygon fill="black" stroke="black" points="845.76,-144.48 856.33,-145.22 848.53,-138.05 845.76,-144.48"/>
<text text-anchor="middle" x="777.91" y="-93.2" font-family="Times New Roman,serif" font-size="14.00">is a</text>
</g>
<!-- node0018 -->
<g id="node19" class="node">
<title>node0018</title>
<ellipse fill="none" stroke="black" cx="756" cy="-36" rx="36" ry="36"/>
<text text-anchor="middle" x="756" y="-32.12" font-family="Times New Roman,serif" font-size="10.00">plan2</text>
</g>
<!-- node0018&#45;&gt;node0006 -->
<g id="edge18" class="edge">
<title>node0018&#45;&gt;node0006</title>
<path fill="none" stroke="black" d="M782.35,-60.91C803.44,-80.05 833.2,-107.06 856.25,-127.96"/>
<polygon fill="black" stroke="black" points="853.84,-130.51 863.6,-134.63 858.54,-125.32 853.84,-130.51"/>
<text text-anchor="middle" x="840.96" y="-93.2" font-family="Times New Roman,serif" font-size="14.00">is a</text>
</g>
<!-- node0019 -->
<g id="node20" class="node">
<title>node0019</title>
<ellipse fill="none" stroke="black" cx="846" cy="-36" rx="36" ry="36"/>
<text text-anchor="middle" x="846" y="-32.5" font-family="Times New Roman,serif" font-size="10.00">plan2&#45;人员</text>
</g>
<!-- node0019&#45;&gt;node0006 -->
<g id="edge19" class="edge">
<title>node0019&#45;&gt;node0006</title>
<path fill="none" stroke="black" d="M858.18,-70.15C863.33,-84.18 869.4,-100.71 874.92,-115.72"/>
<polygon fill="black" stroke="black" points="871.56,-116.72 878.29,-124.9 878.13,-114.31 871.56,-116.72"/>
<text text-anchor="middle" x="880.57" y="-93.2" font-family="Times New Roman,serif" font-size="14.00">is a</text>
</g>
<!-- node0020 -->
<g id="node21" class="node">
<title>node0020</title>
<ellipse fill="none" stroke="black" cx="936" cy="-36" rx="36" ry="36"/>
<text text-anchor="middle" x="936" y="-32.5" font-family="Times New Roman,serif" font-size="10.00">plan2&#45;救助</text>
</g>
<!-- node0020&#45;&gt;node0006 -->
<g id="edge20" class="edge">
<title>node0020&#45;&gt;node0006</title>
<path fill="none" stroke="black" d="M923.82,-70.15C918.67,-84.18 912.6,-100.71 907.08,-115.72"/>
<polygon fill="black" stroke="black" points="903.87,-114.31 903.71,-124.9 910.44,-116.72 903.87,-114.31"/>
<text text-anchor="middle" x="925.57" y="-93.2" font-family="Times New Roman,serif" font-size="14.00">is a</text>
</g>
<!-- node0021 -->
<g id="node22" class="node">
<title>node0021</title>
<ellipse fill="none" stroke="black" cx="1026" cy="-36" rx="36" ry="36"/>
<text text-anchor="middle" x="1026" y="-32.5" font-family="Times New Roman,serif" font-size="10.00">plan2&#45;牵引</text>
</g>
<!-- node0021&#45;&gt;node0006 -->
<g id="edge21" class="edge">
<title>node0021&#45;&gt;node0006</title>
<path fill="none" stroke="black" d="M999.65,-60.91C978.56,-80.05 948.8,-107.06 925.75,-127.96"/>
<polygon fill="black" stroke="black" points="923.46,-125.32 918.4,-134.63 928.16,-130.51 923.46,-125.32"/>
<text text-anchor="middle" x="975.96" y="-93.2" font-family="Times New Roman,serif" font-size="14.00">is a</text>
</g>
<!-- node0022 -->
<g id="node23" class="node">
<title>node0022</title>
<ellipse fill="none" stroke="black" cx="1116" cy="-36" rx="36" ry="36"/>
<text text-anchor="middle" x="1116" y="-32.12" font-family="Times New Roman,serif" font-size="10.00">plan3</text>
</g>
<!-- node0022&#45;&gt;node0006 -->
<g id="edge22" class="edge">
<title>node0022&#45;&gt;node0006</title>
<path fill="none" stroke="black" d="M1088.72,-60.04C1083.05,-64.3 1076.98,-68.5 1071,-72 1036.88,-91.98 1025.96,-92.47 989,-106.5 965.74,-115.33 957.9,-112.7 936,-124.5 933.14,-126.04 930.28,-127.76 927.45,-129.59"/>
<polygon fill="black" stroke="black" points="925.53,-126.67 919.33,-135.26 929.53,-132.41 925.53,-126.67"/>
<text text-anchor="middle" x="1043.22" y="-93.2" font-family="Times New Roman,serif" font-size="14.00">is a</text>
</g>
<!-- node0023 -->
<g id="node24" class="node">
<title>node0023</title>
<ellipse fill="none" stroke="black" cx="1206" cy="-36" rx="36" ry="36"/>
<text text-anchor="middle" x="1206" y="-32.5" font-family="Times New Roman,serif" font-size="10.00">plan3&#45;人员</text>
</g>
<!-- node0023&#45;&gt;node0006 -->
<g id="edge23" class="edge">
<title>node0023&#45;&gt;node0006</title>
<path fill="none" stroke="black" d="M1178.93,-60.41C1173.24,-64.64 1167.11,-68.74 1161,-72 1118.05,-94.95 1104.37,-95.21 1057,-106.5 1004.11,-119.11 985.98,-103.11 936,-124.5 932.83,-125.86 929.68,-127.5 926.62,-129.31"/>
<polygon fill="black" stroke="black" points="924.82,-126.3 918.43,-134.76 928.7,-132.13 924.82,-126.3"/>
<text text-anchor="middle" x="1130.64" y="-93.2" font-family="Times New Roman,serif" font-size="14.00">is a</text>
</g>
<!-- node0024 -->
<g id="node25" class="node">
<title>node0024</title>
<ellipse fill="none" stroke="black" cx="1296" cy="-36" rx="36" ry="36"/>
<text text-anchor="middle" x="1296" y="-32.5" font-family="Times New Roman,serif" font-size="10.00">plan3&#45;救助</text>
</g>
<!-- node0024&#45;&gt;node0006 -->
<g id="edge24" class="edge">
<title>node0024&#45;&gt;node0006</title>
<path fill="none" stroke="black" d="M1268.95,-60.45C1263.26,-64.68 1257.12,-68.76 1251,-72 1206.83,-95.36 1192.98,-96.62 1144,-106.5 1053.04,-124.85 1022.39,-90.63 936,-124.5 932.79,-125.76 929.61,-127.33 926.53,-129.09"/>
<polygon fill="black" stroke="black" points="924.77,-126.06 918.31,-134.45 928.6,-131.92 924.77,-126.06"/>
<text text-anchor="middle" x="1221.41" y="-93.2" font-family="Times New Roman,serif" font-size="14.00">is a</text>
</g>
<!-- node0025 -->
<g id="node26" class="node">
<title>node0025</title>
<ellipse fill="none" stroke="black" cx="1386" cy="-36" rx="36" ry="36"/>
<text text-anchor="middle" x="1386" y="-32.5" font-family="Times New Roman,serif" font-size="10.00">plan3&#45;牵引</text>
</g>
<!-- node0025&#45;&gt;node0006 -->
<g id="edge25" class="edge">
<title>node0025&#45;&gt;node0006</title>
<path fill="none" stroke="black" d="M1358.95,-60.44C1353.26,-64.66 1347.12,-68.75 1341,-72 1297.24,-95.22 1283.68,-97.27 1235,-106.5 1169.6,-118.9 998.28,-101.01 936,-124.5 932.77,-125.72 929.59,-127.25 926.49,-129"/>
<polygon fill="black" stroke="black" points="924.76,-125.95 918.26,-134.32 928.56,-131.83 924.76,-125.95"/>
<text text-anchor="middle" x="1311.81" y="-93.2" font-family="Times New Roman,serif" font-size="14.00">is a</text>
</g>
<!-- node0026 -->
<g id="node27" class="node">
<title>node0026</title>
<ellipse fill="none" stroke="black" cx="1476" cy="-36" rx="36" ry="36"/>
<text text-anchor="middle" x="1476" y="-32.5" font-family="Times New Roman,serif" font-size="10.00">plan3&#45;抢修</text>
</g>
<!-- node0026&#45;&gt;node0006 -->
<g id="edge26" class="edge">
<title>node0026&#45;&gt;node0006</title>
<path fill="none" stroke="black" d="M1448.95,-60.44C1443.26,-64.66 1437.12,-68.75 1431,-72 1387.24,-95.22 1373.74,-97.61 1325,-106.5 1239.87,-122.03 1017.18,-94.53 936,-124.5 932.76,-125.7 929.57,-127.21 926.47,-128.95"/>
<polygon fill="black" stroke="black" points="924.75,-125.9 918.24,-134.25 928.54,-131.78 924.75,-125.9"/>
<text text-anchor="middle" x="1401.82" y="-93.2" font-family="Times New Roman,serif" font-size="14.00">is a</text>
</g>
</g>
</svg>
