<?xml version="1.0" encoding="UTF-8" standalone="no"?>
<!DOCTYPE svg PUBLIC "-//W3C//DTD SVG 1.1//EN"
 "http://www.w3.org/Graphics/SVG/1.1/DTD/svg11.dtd">
<!-- Generated by graphviz version 12.1.2 (20240928.0832)
 -->
<!-- Pages: 1 -->
<svg width="331pt" height="359pt"
 viewBox="0.00 0.00 330.70 359.20" xmlns="http://www.w3.org/2000/svg" xmlns:xlink="http://www.w3.org/1999/xlink">
<g id="graph0" class="graph" transform="scale(1 1) rotate(0) translate(3.6 355.6)">
<polygon fill="white" stroke="none" points="-3.6,3.6 -3.6,-355.6 327.1,-355.6 327.1,3.6 -3.6,3.6"/>
<!-- casualties -->
<g id="node1" class="node">
<title>casualties</title>
<polygon fill="none" stroke="black" points="22.88,-198 22.88,-220 79.12,-220 79.12,-198 22.88,-198"/>
<text text-anchor="start" x="28.88" y="-205.5" font-family="Arial" font-size="10.00">casualties</text>
</g>
<!-- RecoveryCapacity -->
<g id="node14" class="node">
<title>RecoveryCapacity</title>
<polygon fill="none" stroke="black" points="118.25,-116 118.25,-138 211.25,-138 211.25,-116 118.25,-116"/>
<text text-anchor="start" x="124.25" y="-123.5" font-family="Arial" font-size="10.00">RecoveryCapacity</text>
</g>
<!-- casualties&#45;&gt;RecoveryCapacity -->
<g id="edge3" class="edge">
<title>casualties&#45;&gt;RecoveryCapacity</title>
<path fill="none" stroke="#64748b" stroke-width="0.8" d="M78.91,-209C116.74,-209 179.62,-209 179.62,-209 179.62,-209 179.62,-148.93 179.62,-148.93"/>
<polygon fill="#64748b" stroke="#64748b" stroke-width="0.8" points="183.13,-148.93 179.63,-138.93 176.13,-148.93 183.13,-148.93"/>
</g>
<!-- emergencyType -->
<g id="node2" class="node">
<title>emergencyType</title>
<polygon fill="none" stroke="black" points="10.5,-264 10.5,-286 91.5,-286 91.5,-264 10.5,-264"/>
<text text-anchor="start" x="16.5" y="-271.5" font-family="Arial" font-size="10.00">emergencyType</text>
</g>
<!-- AdaptionCapacity -->
<g id="node13" class="node">
<title>AdaptionCapacity</title>
<polygon fill="none" stroke="black" points="120.12,-248 120.12,-270 209.38,-270 209.38,-248 120.12,-248"/>
<text text-anchor="start" x="126.12" y="-255.5" font-family="Arial" font-size="10.00">AdaptionCapacity</text>
</g>
<!-- emergencyType&#45;&gt;AdaptionCapacity -->
<g id="edge14" class="edge">
<title>emergencyType&#45;&gt;AdaptionCapacity</title>
<path fill="none" stroke="#64748b" stroke-width="0.8" d="M64.5,-264.03C64.5,-261.91 64.5,-260.33 64.5,-260.33 64.5,-260.33 108.98,-260.33 108.98,-260.33"/>
<polygon fill="#64748b" stroke="#64748b" stroke-width="0.8" points="108.98,-263.83 118.98,-260.33 108.98,-256.83 108.98,-263.83"/>
</g>
<!-- roadPassibility -->
<g id="node3" class="node">
<title>roadPassibility</title>
<polygon fill="none" stroke="black" points="13.12,-330 13.12,-352 88.88,-352 88.88,-330 13.12,-330"/>
<text text-anchor="start" x="19.12" y="-337.5" font-family="Arial" font-size="10.00">roadPassibility</text>
</g>
<!-- AbsorptionCapacity -->
<g id="node12" class="node">
<title>AbsorptionCapacity</title>
<polygon fill="none" stroke="black" points="116,-297 116,-319 213.5,-319 213.5,-297 116,-297"/>
<text text-anchor="start" x="122" y="-304.5" font-family="Arial" font-size="10.00">AbsorptionCapacity</text>
</g>
<!-- roadPassibility&#45;&gt;AbsorptionCapacity -->
<g id="edge4" class="edge">
<title>roadPassibility&#45;&gt;AbsorptionCapacity</title>
<path fill="none" stroke="#64748b" stroke-width="0.8" d="M82.88,-330.08C82.88,-321.74 82.88,-311.67 82.88,-311.67 82.88,-311.67 104.97,-311.67 104.97,-311.67"/>
<polygon fill="#64748b" stroke="#64748b" stroke-width="0.8" points="104.97,-315.17 114.97,-311.67 104.97,-308.17 104.97,-315.17"/>
</g>
<!-- roadLoss -->
<g id="node4" class="node">
<title>roadLoss</title>
<polygon fill="none" stroke="black" points="25.12,-297 25.12,-319 76.88,-319 76.88,-297 25.12,-297"/>
<text text-anchor="start" x="31.12" y="-304.5" font-family="Arial" font-size="10.00">roadLoss</text>
</g>
<!-- roadLoss&#45;&gt;AbsorptionCapacity -->
<g id="edge1" class="edge">
<title>roadLoss&#45;&gt;AbsorptionCapacity</title>
<path fill="none" stroke="#64748b" stroke-width="0.8" d="M76.81,-304.33C76.81,-304.33 104.99,-304.33 104.99,-304.33"/>
<polygon fill="#64748b" stroke="#64748b" stroke-width="0.8" points="104.99,-307.83 114.99,-304.33 104.99,-300.83 104.99,-307.83"/>
</g>
<!-- AidResource -->
<g id="node5" class="node">
<title>AidResource</title>
<polygon fill="none" stroke="black" points="16.88,-165 16.88,-187 85.12,-187 85.12,-165 16.88,-165"/>
<text text-anchor="start" x="22.88" y="-172.5" font-family="Arial" font-size="10.00">AidResource</text>
</g>
<!-- AidResource&#45;&gt;RecoveryCapacity -->
<g id="edge10" class="edge">
<title>AidResource&#45;&gt;RecoveryCapacity</title>
<path fill="none" stroke="#64748b" stroke-width="0.8" d="M85.03,-176C113.63,-176 149.88,-176 149.88,-176 149.88,-176 149.88,-149.09 149.88,-149.09"/>
<polygon fill="#64748b" stroke="#64748b" stroke-width="0.8" points="153.38,-149.09 149.88,-139.09 146.38,-149.09 153.38,-149.09"/>
</g>
<!-- TowResource -->
<g id="node6" class="node">
<title>TowResource</title>
<polygon fill="none" stroke="black" points="15,-132 15,-154 87,-154 87,-132 15,-132"/>
<text text-anchor="start" x="21" y="-139.5" font-family="Arial" font-size="10.00">TowResource</text>
</g>
<!-- TowResource&#45;&gt;RecoveryCapacity -->
<g id="edge2" class="edge">
<title>TowResource&#45;&gt;RecoveryCapacity</title>
<path fill="none" stroke="#64748b" stroke-width="0.8" d="M51,-132.03C51,-129.91 51,-128.33 51,-128.33 51,-128.33 107.27,-128.33 107.27,-128.33"/>
<polygon fill="#64748b" stroke="#64748b" stroke-width="0.8" points="107.27,-131.83 117.27,-128.33 107.27,-124.83 107.27,-131.83"/>
</g>
<!-- FirefightingResource -->
<g id="node7" class="node">
<title>FirefightingResource</title>
<polygon fill="none" stroke="black" points="0,-99 0,-121 102,-121 102,-99 0,-99"/>
<text text-anchor="start" x="6" y="-106.5" font-family="Arial" font-size="10.00">FirefightingResource</text>
</g>
<!-- FirefightingResource&#45;&gt;RecoveryCapacity -->
<g id="edge12" class="edge">
<title>FirefightingResource&#45;&gt;RecoveryCapacity</title>
<path fill="none" stroke="#64748b" stroke-width="0.8" d="M98.44,-120.97C98.44,-123.09 98.44,-124.67 98.44,-124.67 98.44,-124.67 107.12,-124.67 107.12,-124.67"/>
<polygon fill="#64748b" stroke="#64748b" stroke-width="0.8" points="107.12,-128.17 117.12,-124.67 107.12,-121.17 107.12,-128.17"/>
</g>
<!-- RescueResource -->
<g id="node8" class="node">
<title>RescueResource</title>
<polygon fill="none" stroke="black" points="7.12,-66 7.12,-88 94.88,-88 94.88,-66 7.12,-66"/>
<text text-anchor="start" x="13.12" y="-73.5" font-family="Arial" font-size="10.00">RescueResource</text>
</g>
<!-- RescueResource&#45;&gt;RecoveryCapacity -->
<g id="edge5" class="edge">
<title>RescueResource&#45;&gt;RecoveryCapacity</title>
<path fill="none" stroke="#64748b" stroke-width="0.8" d="M94.66,-77C117.8,-77 141.5,-77 141.5,-77 141.5,-77 141.5,-105.19 141.5,-105.19"/>
<polygon fill="#64748b" stroke="#64748b" stroke-width="0.8" points="138,-105.19 141.5,-115.19 145,-105.19 138,-105.19"/>
</g>
<!-- disposalDuration -->
<g id="node9" class="node">
<title>disposalDuration</title>
<polygon fill="none" stroke="black" points="8.62,-33 8.62,-55 93.38,-55 93.38,-33 8.62,-33"/>
<text text-anchor="start" x="14.62" y="-40.5" font-family="Arial" font-size="10.00">disposalDuration</text>
</g>
<!-- disposalDuration&#45;&gt;RecoveryCapacity -->
<g id="edge7" class="edge">
<title>disposalDuration&#45;&gt;RecoveryCapacity</title>
<path fill="none" stroke="#64748b" stroke-width="0.8" d="M93.36,-44C125.7,-44 164.75,-44 164.75,-44 164.75,-44 164.75,-104.94 164.75,-104.94"/>
<polygon fill="#64748b" stroke="#64748b" stroke-width="0.8" points="161.25,-104.94 164.75,-114.94 168.25,-104.94 161.25,-104.94"/>
</g>
<!-- emergencyPeriod -->
<g id="node10" class="node">
<title>emergencyPeriod</title>
<polygon fill="none" stroke="black" points="7.12,-231 7.12,-253 94.88,-253 94.88,-231 7.12,-231"/>
<text text-anchor="start" x="13.12" y="-238.5" font-family="Arial" font-size="10.00">emergencyPeriod</text>
</g>
<!-- emergencyPeriod&#45;&gt;AdaptionCapacity -->
<g id="edge9" class="edge">
<title>emergencyPeriod&#45;&gt;AdaptionCapacity</title>
<path fill="none" stroke="#64748b" stroke-width="0.8" d="M37.5,-252.97C37.5,-255.09 37.5,-256.67 37.5,-256.67 37.5,-256.67 109.03,-256.67 109.03,-256.67"/>
<polygon fill="#64748b" stroke="#64748b" stroke-width="0.8" points="109.03,-260.17 119.03,-256.67 109.03,-253.17 109.03,-260.17"/>
</g>
<!-- responseDuration -->
<g id="node11" class="node">
<title>responseDuration</title>
<polygon fill="none" stroke="black" points="6.75,0 6.75,-22 95.25,-22 95.25,0 6.75,0"/>
<text text-anchor="start" x="12.75" y="-7.5" font-family="Arial" font-size="10.00">responseDuration</text>
</g>
<!-- responseDuration&#45;&gt;RecoveryCapacity -->
<g id="edge11" class="edge">
<title>responseDuration&#45;&gt;RecoveryCapacity</title>
<path fill="none" stroke="#64748b" stroke-width="0.8" d="M95.1,-11C135.15,-11 188,-11 188,-11 188,-11 188,-105.08 188,-105.08"/>
<polygon fill="#64748b" stroke="#64748b" stroke-width="0.8" points="184.5,-105.08 188,-115.08 191.5,-105.08 184.5,-105.08"/>
</g>
<!-- ScenarioResilience -->
<g id="node15" class="node">
<title>ScenarioResilience</title>
<polygon fill="none" stroke="black" points="227.5,-248 227.5,-270 323.5,-270 323.5,-248 227.5,-248"/>
<text text-anchor="start" x="233.5" y="-255.5" font-family="Arial" font-size="10.00">ScenarioResilience</text>
</g>
<!-- AbsorptionCapacity&#45;&gt;ScenarioResilience -->
<g id="edge13" class="edge">
<title>AbsorptionCapacity&#45;&gt;ScenarioResilience</title>
<path fill="none" stroke="#64748b" stroke-width="0.8" d="M213.33,-308C243.08,-308 275.5,-308 275.5,-308 275.5,-308 275.5,-281.09 275.5,-281.09"/>
<polygon fill="#64748b" stroke="#64748b" stroke-width="0.8" points="279,-281.09 275.5,-271.09 272,-281.09 279,-281.09"/>
</g>
<!-- AdaptionCapacity&#45;&gt;ScenarioResilience -->
<g id="edge6" class="edge">
<title>AdaptionCapacity&#45;&gt;ScenarioResilience</title>
<path fill="none" stroke="#64748b" stroke-width="0.8" d="M209.16,-259C209.16,-259 216.61,-259 216.61,-259"/>
<polygon fill="#64748b" stroke="#64748b" stroke-width="0.8" points="216.61,-262.5 226.61,-259 216.61,-255.5 216.61,-262.5"/>
</g>
<!-- RecoveryCapacity&#45;&gt;ScenarioResilience -->
<g id="edge8" class="edge">
<title>RecoveryCapacity&#45;&gt;ScenarioResilience</title>
<path fill="none" stroke="#64748b" stroke-width="0.8" d="M211.08,-127C241.42,-127 275.5,-127 275.5,-127 275.5,-127 275.5,-236.99 275.5,-236.99"/>
<polygon fill="#64748b" stroke="#64748b" stroke-width="0.8" points="272,-236.99 275.5,-246.99 279,-236.99 272,-236.99"/>
</g>
</g>
</svg>
