<?xml version="1.0" encoding="UTF-8" standalone="no"?>
<!DOCTYPE svg PUBLIC "-//W3C//DTD SVG 1.1//EN"
 "http://www.w3.org/Graphics/SVG/1.1/DTD/svg11.dtd">
<!-- Generated by graphviz version 12.1.2 (20240928.0832)
 -->
<!-- Title: G Pages: 1 -->
<svg width="1758pt" height="509pt"
 viewBox="0.00 0.00 1758.00 509.00" xmlns="http://www.w3.org/2000/svg" xmlns:xlink="http://www.w3.org/1999/xlink">
<g id="graph0" class="graph" transform="scale(1 1) rotate(0) translate(4 505)">
<title>G</title>
<polygon fill="white" stroke="none" points="-4,4 -4,-505 1754,-505 1754,4 -4,4"/>
<!-- node0000 -->
<g id="node1" class="node">
<title>node0000</title>
<ellipse fill="none" stroke="black" cx="1174" cy="-465" rx="36" ry="36"/>
<text text-anchor="middle" x="1174" y="-461.12" font-family="Times New Roman,serif" font-size="10.00">Thing</text>
</g>
<!-- node0001 -->
<g id="node2" class="node">
<title>node0001</title>
<ellipse fill="none" stroke="black" cx="848" cy="-340.5" rx="36" ry="36"/>
<text text-anchor="middle" x="848" y="-336.62" font-family="Times New Roman,serif" font-size="10.00">Emergency</text>
</g>
<!-- node0001&#45;&gt;node0000 -->
<g id="edge1" class="edge">
<title>node0001&#45;&gt;node0000</title>
<path fill="none" stroke="black" d="M875.18,-364.71C880.86,-368.96 886.96,-373.11 893,-376.5 969.45,-419.39 1069.64,-444.09 1127.41,-455.72"/>
<polygon fill="black" stroke="black" points="1126.4,-459.09 1136.89,-457.58 1127.75,-452.22 1126.4,-459.09"/>
<text text-anchor="middle" x="975.4" y="-397.7" font-family="Times New Roman,serif" font-size="14.00">is a</text>
</g>
<!-- node0002 -->
<g id="node3" class="node">
<title>node0002</title>
<ellipse fill="none" stroke="black" cx="938" cy="-340.5" rx="36" ry="36"/>
<text text-anchor="middle" x="938" y="-336.62" font-family="Times New Roman,serif" font-size="10.00">InvolvedScenario</text>
</g>
<!-- node0002&#45;&gt;node0000 -->
<g id="edge2" class="edge">
<title>node0002&#45;&gt;node0000</title>
<path fill="none" stroke="black" d="M965.92,-363.56C971.54,-367.9 977.43,-372.38 983,-376.5 1004.5,-392.38 1008.6,-398.55 1032.25,-411 1063.14,-427.26 1100.15,-440.92 1128.6,-450.29"/>
<polygon fill="black" stroke="black" points="1127.42,-453.59 1138.01,-453.33 1129.57,-446.93 1127.42,-453.59"/>
<text text-anchor="middle" x="1041.62" y="-397.7" font-family="Times New Roman,serif" font-size="14.00">is a</text>
</g>
<!-- node0003 -->
<g id="node4" class="node">
<title>node0003</title>
<ellipse fill="none" stroke="black" cx="1028" cy="-340.5" rx="36" ry="36"/>
<text text-anchor="middle" x="1028" y="-336.62" font-family="Times New Roman,serif" font-size="10.00">ScenarioElement</text>
</g>
<!-- node0003&#45;&gt;node0000 -->
<g id="edge3" class="edge">
<title>node0003&#45;&gt;node0000</title>
<path fill="none" stroke="black" d="M1041.81,-373.98C1048.41,-386.7 1057.29,-400.68 1068.25,-411 1085.61,-427.35 1108.99,-439.77 1129.34,-448.46"/>
<polygon fill="black" stroke="black" points="1127.99,-451.69 1138.57,-452.22 1130.63,-445.21 1127.99,-451.69"/>
<text text-anchor="middle" x="1077.62" y="-397.7" font-family="Times New Roman,serif" font-size="14.00">is a</text>
</g>
<!-- node0004 -->
<g id="node5" class="node">
<title>node0004</title>
<ellipse fill="none" stroke="black" cx="1264" cy="-340.5" rx="36" ry="36"/>
<text text-anchor="middle" x="1264" y="-336.62" font-family="Times New Roman,serif" font-size="10.00">Scenario</text>
</g>
<!-- node0004&#45;&gt;node0000 -->
<g id="edge4" class="edge">
<title>node0004&#45;&gt;node0000</title>
<path fill="none" stroke="black" d="M1242.9,-370.22C1230.6,-386.96 1214.94,-408.27 1201.67,-426.34"/>
<polygon fill="black" stroke="black" points="1198.97,-424.11 1195.86,-434.24 1204.61,-428.25 1198.97,-424.11"/>
<text text-anchor="middle" x="1233.76" y="-397.7" font-family="Times New Roman,serif" font-size="14.00">is a</text>
</g>
<!-- node0005 -->
<g id="node6" class="node">
<title>node0005</title>
<ellipse fill="none" stroke="black" cx="1174" cy="-340.5" rx="36" ry="36"/>
<text text-anchor="middle" x="1174" y="-342.25" font-family="Times New Roman,serif" font-size="10.00">InvolvedScenario</text>
<text text-anchor="middle" x="1174" y="-331" font-family="Times New Roman,serif" font-size="10.00">Element</text>
</g>
<!-- node0005&#45;&gt;node0000 -->
<g id="edge5" class="edge">
<title>node0005&#45;&gt;node0000</title>
<path fill="none" stroke="black" d="M1174,-376.93C1174,-389.5 1174,-403.85 1174,-417.22"/>
<polygon fill="black" stroke="black" points="1170.5,-417.13 1174,-427.13 1177.5,-417.13 1170.5,-417.13"/>
<text text-anchor="middle" x="1183.38" y="-397.7" font-family="Times New Roman,serif" font-size="14.00">is a</text>
</g>
<!-- node0006 -->
<g id="node7" class="node">
<title>node0006</title>
<ellipse fill="none" stroke="black" cx="1489" cy="-340.5" rx="36" ry="36"/>
<text text-anchor="middle" x="1489" y="-342.25" font-family="Times New Roman,serif" font-size="10.00">ResilienceInflue</text>
<text text-anchor="middle" x="1489" y="-331" font-family="Times New Roman,serif" font-size="10.00">ntialFactors</text>
</g>
<!-- node0006&#45;&gt;node0000 -->
<g id="edge6" class="edge">
<title>node0006&#45;&gt;node0000</title>
<path fill="none" stroke="black" d="M1455.59,-354.49C1398.41,-376.73 1281.81,-422.07 1218.06,-446.87"/>
<polygon fill="black" stroke="black" points="1217.01,-443.52 1208.95,-450.41 1219.54,-450.04 1217.01,-443.52"/>
<text text-anchor="middle" x="1359.73" y="-397.7" font-family="Times New Roman,serif" font-size="14.00">is a</text>
</g>
<!-- node0007 -->
<g id="node8" class="node">
<title>node0007</title>
<ellipse fill="none" stroke="black" cx="1354" cy="-340.5" rx="36" ry="36"/>
<text text-anchor="middle" x="1354" y="-336.62" font-family="Times New Roman,serif" font-size="10.00">EmergencyPhase</text>
</g>
<!-- node0007&#45;&gt;node0000 -->
<g id="edge7" class="edge">
<title>node0007&#45;&gt;node0000</title>
<path fill="none" stroke="black" d="M1326.2,-363.72C1320.57,-368.05 1314.65,-372.49 1309,-376.5 1277.78,-398.7 1241.26,-422.23 1214.08,-439.29"/>
<polygon fill="black" stroke="black" points="1212.43,-436.2 1205.8,-444.46 1216.14,-442.13 1212.43,-436.2"/>
<text text-anchor="middle" x="1289.38" y="-397.7" font-family="Times New Roman,serif" font-size="14.00">is a</text>
</g>
<!-- node0008 -->
<g id="node9" class="node">
<title>node0008</title>
<ellipse fill="none" stroke="black" cx="1106" cy="-250.5" rx="36" ry="36"/>
<text text-anchor="middle" x="1106" y="-246.62" font-family="Times New Roman,serif" font-size="10.00">Item</text>
</g>
<!-- node0008&#45;&gt;node0000 -->
<g id="edge8" class="edge">
<title>node0008&#45;&gt;node0000</title>
<path fill="none" stroke="black" d="M1101.78,-286.72C1100,-312.33 1100.24,-347.45 1110.25,-376.5 1116.95,-395.96 1129.59,-414.78 1141.85,-429.95"/>
<polygon fill="black" stroke="black" points="1138.9,-431.87 1148.01,-437.28 1144.26,-427.37 1138.9,-431.87"/>
<text text-anchor="middle" x="1119.62" y="-335.45" font-family="Times New Roman,serif" font-size="14.00">is a</text>
</g>
<!-- node0009 -->
<g id="node10" class="node">
<title>node0009</title>
<ellipse fill="none" stroke="black" cx="1579" cy="-340.5" rx="36" ry="36"/>
<text text-anchor="middle" x="1579" y="-342.25" font-family="Times New Roman,serif" font-size="10.00">ScenarioResilien</text>
<text text-anchor="middle" x="1579" y="-331" font-family="Times New Roman,serif" font-size="10.00">ce</text>
</g>
<!-- node0009&#45;&gt;node0000 -->
<g id="edge9" class="edge">
<title>node0009&#45;&gt;node0000</title>
<path fill="none" stroke="black" d="M1552.62,-364.95C1546.78,-369.28 1540.42,-373.4 1534,-376.5 1429.06,-427.16 1292.36,-449.94 1221.4,-458.93"/>
<polygon fill="black" stroke="black" points="1221.18,-455.43 1211.68,-460.12 1222.03,-462.37 1221.18,-455.43"/>
<text text-anchor="middle" x="1497.26" y="-397.7" font-family="Times New Roman,serif" font-size="14.00">is a</text>
</g>
<!-- node0010 -->
<g id="node11" class="node">
<title>node0010</title>
<ellipse fill="none" stroke="black" cx="474" cy="-160.5" rx="36" ry="36"/>
<text text-anchor="middle" x="474" y="-156.62" font-family="Times New Roman,serif" font-size="10.00">HazardElement</text>
</g>
<!-- node0010&#45;&gt;node0003 -->
<g id="edge10" class="edge">
<title>node0010&#45;&gt;node0003</title>
<path fill="none" stroke="black" d="M505.91,-178.08C560.87,-205.8 677.71,-261.01 783.25,-286.5 869.9,-307.43 900.07,-271.81 983,-304.5 986.21,-305.77 989.38,-307.34 992.47,-309.1"/>
<polygon fill="black" stroke="black" points="990.4,-311.93 1000.68,-314.47 994.22,-306.07 990.4,-311.93"/>
<text text-anchor="middle" x="792.62" y="-245.45" font-family="Times New Roman,serif" font-size="14.00">is a</text>
</g>
<!-- node0011 -->
<g id="node12" class="node">
<title>node0011</title>
<ellipse fill="none" stroke="black" cx="666" cy="-160.5" rx="36" ry="36"/>
<text text-anchor="middle" x="666" y="-162.25" font-family="Times New Roman,serif" font-size="10.00">ResponsePlanElem</text>
<text text-anchor="middle" x="666" y="-151" font-family="Times New Roman,serif" font-size="10.00">ent</text>
</g>
<!-- node0011&#45;&gt;node0003 -->
<g id="edge11" class="edge">
<title>node0011&#45;&gt;node0003</title>
<path fill="none" stroke="black" d="M699.69,-173.65C759.06,-195.72 885.27,-245.6 983,-304.5 985.78,-306.18 988.59,-308 991.37,-309.9"/>
<polygon fill="black" stroke="black" points="989.26,-312.7 999.42,-315.7 993.35,-307.01 989.26,-312.7"/>
<text text-anchor="middle" x="959.72" y="-245.45" font-family="Times New Roman,serif" font-size="14.00">is a</text>
</g>
<!-- node0012 -->
<g id="node13" class="node">
<title>node0012</title>
<ellipse fill="none" stroke="black" cx="126" cy="-160.5" rx="36" ry="36"/>
<text text-anchor="middle" x="126" y="-162.25" font-family="Times New Roman,serif" font-size="10.00">EnvironmentEleme</text>
<text text-anchor="middle" x="126" y="-151" font-family="Times New Roman,serif" font-size="10.00">nt</text>
</g>
<!-- node0012&#45;&gt;node0003 -->
<g id="edge12" class="edge">
<title>node0012&#45;&gt;node0003</title>
<path fill="none" stroke="black" d="M159.64,-173.98C232.51,-200.37 410.94,-261.45 566.25,-286.5 657.76,-301.26 895.99,-272.53 983,-304.5 986.24,-305.69 989.43,-307.21 992.53,-308.94"/>
<polygon fill="black" stroke="black" points="990.47,-311.77 1000.77,-314.24 994.25,-305.88 990.47,-311.77"/>
<text text-anchor="middle" x="575.62" y="-245.45" font-family="Times New Roman,serif" font-size="14.00">is a</text>
</g>
<!-- node0013 -->
<g id="node14" class="node">
<title>node0013</title>
<ellipse fill="none" stroke="black" cx="1028" cy="-160.5" rx="36" ry="36"/>
<text text-anchor="middle" x="1028" y="-156.62" font-family="Times New Roman,serif" font-size="10.00">AffectedElement</text>
</g>
<!-- node0013&#45;&gt;node0003 -->
<g id="edge13" class="edge">
<title>node0013&#45;&gt;node0003</title>
<path fill="none" stroke="black" d="M1028,-196.67C1028,-224.13 1028,-262.54 1028,-292.61"/>
<polygon fill="black" stroke="black" points="1024.5,-292.59 1028,-302.59 1031.5,-292.59 1024.5,-292.59"/>
<text text-anchor="middle" x="1037.38" y="-245.45" font-family="Times New Roman,serif" font-size="14.00">is a</text>
</g>
<!-- node0014 -->
<g id="node15" class="node">
<title>node0014</title>
<ellipse fill="none" stroke="black" cx="1174" cy="-160.5" rx="36" ry="36"/>
<text text-anchor="middle" x="1174" y="-162.25" font-family="Times New Roman,serif" font-size="10.00">AbsorptionScenar</text>
<text text-anchor="middle" x="1174" y="-151" font-family="Times New Roman,serif" font-size="10.00">io</text>
</g>
<!-- node0014&#45;&gt;node0004 -->
<g id="edge14" class="edge">
<title>node0014&#45;&gt;node0004</title>
<path fill="none" stroke="black" d="M1189.88,-192.91C1204.64,-222.09 1226.71,-265.74 1242.93,-297.83"/>
<polygon fill="black" stroke="black" points="1239.65,-299.11 1247.29,-306.45 1245.9,-295.95 1239.65,-299.11"/>
<text text-anchor="middle" x="1244.26" y="-245.45" font-family="Times New Roman,serif" font-size="14.00">is a</text>
</g>
<!-- node0015 -->
<g id="node16" class="node">
<title>node0015</title>
<ellipse fill="none" stroke="black" cx="1264" cy="-160.5" rx="36" ry="36"/>
<text text-anchor="middle" x="1264" y="-156.62" font-family="Times New Roman,serif" font-size="10.00">AdaptionScenario</text>
</g>
<!-- node0015&#45;&gt;node0004 -->
<g id="edge15" class="edge">
<title>node0015&#45;&gt;node0004</title>
<path fill="none" stroke="black" d="M1264,-196.67C1264,-224.13 1264,-262.54 1264,-292.61"/>
<polygon fill="black" stroke="black" points="1260.5,-292.59 1264,-302.59 1267.5,-292.59 1260.5,-292.59"/>
<text text-anchor="middle" x="1273.38" y="-245.45" font-family="Times New Roman,serif" font-size="14.00">is a</text>
</g>
<!-- node0016 -->
<g id="node17" class="node">
<title>node0016</title>
<ellipse fill="none" stroke="black" cx="1354" cy="-160.5" rx="36" ry="36"/>
<text text-anchor="middle" x="1354" y="-156.62" font-family="Times New Roman,serif" font-size="10.00">RecoveryScenario</text>
</g>
<!-- node0016&#45;&gt;node0004 -->
<g id="edge16" class="edge">
<title>node0016&#45;&gt;node0004</title>
<path fill="none" stroke="black" d="M1338.12,-192.91C1323.36,-222.09 1301.29,-265.74 1285.07,-297.83"/>
<polygon fill="black" stroke="black" points="1282.1,-295.95 1280.71,-306.45 1288.35,-299.11 1282.1,-295.95"/>
<text text-anchor="middle" x="1334.26" y="-245.45" font-family="Times New Roman,serif" font-size="14.00">is a</text>
</g>
<!-- node0017 -->
<g id="node18" class="node">
<title>node0017</title>
<ellipse fill="none" stroke="black" cx="1444" cy="-160.5" rx="36" ry="36"/>
<text text-anchor="middle" x="1444" y="-156.62" font-family="Times New Roman,serif" font-size="10.00">EconomicFactors</text>
</g>
<!-- node0017&#45;&gt;node0006 -->
<g id="edge17" class="edge">
<title>node0017&#45;&gt;node0006</title>
<path fill="none" stroke="black" d="M1452.68,-195.82C1459.77,-223.89 1469.87,-263.81 1477.61,-294.46"/>
<polygon fill="black" stroke="black" points="1474.13,-294.98 1479.98,-303.82 1480.92,-293.26 1474.13,-294.98"/>
<text text-anchor="middle" x="1483.82" y="-245.45" font-family="Times New Roman,serif" font-size="14.00">is a</text>
</g>
<!-- node0018 -->
<g id="node19" class="node">
<title>node0018</title>
<ellipse fill="none" stroke="black" cx="1534" cy="-160.5" rx="36" ry="36"/>
<text text-anchor="middle" x="1534" y="-156.62" font-family="Times New Roman,serif" font-size="10.00">TimeFactors</text>
</g>
<!-- node0018&#45;&gt;node0006 -->
<g id="edge18" class="edge">
<title>node0018&#45;&gt;node0006</title>
<path fill="none" stroke="black" d="M1525.32,-195.82C1518.23,-223.89 1508.13,-263.81 1500.39,-294.46"/>
<polygon fill="black" stroke="black" points="1497.08,-293.26 1498.02,-303.82 1503.87,-294.98 1497.08,-293.26"/>
<text text-anchor="middle" x="1528.82" y="-245.45" font-family="Times New Roman,serif" font-size="14.00">is a</text>
</g>
<!-- node0019 -->
<g id="node20" class="node">
<title>node0019</title>
<ellipse fill="none" stroke="black" cx="1624" cy="-160.5" rx="36" ry="36"/>
<text text-anchor="middle" x="1624" y="-156.62" font-family="Times New Roman,serif" font-size="10.00">FunctionFactors</text>
</g>
<!-- node0019&#45;&gt;node0006 -->
<g id="edge19" class="edge">
<title>node0019&#45;&gt;node0006</title>
<path fill="none" stroke="black" d="M1606.26,-192.25C1590.66,-218.32 1566.65,-256.2 1542,-286.5 1536.28,-293.53 1529.76,-300.65 1523.28,-307.3"/>
<polygon fill="black" stroke="black" points="1520.83,-304.8 1516.25,-314.35 1525.79,-309.74 1520.83,-304.8"/>
<text text-anchor="middle" x="1600.39" y="-245.45" font-family="Times New Roman,serif" font-size="14.00">is a</text>
</g>
<!-- node0020 -->
<g id="node21" class="node">
<title>node0020</title>
<ellipse fill="none" stroke="black" cx="1714" cy="-160.5" rx="36" ry="36"/>
<text text-anchor="middle" x="1714" y="-156.62" font-family="Times New Roman,serif" font-size="10.00">SafetyFactors</text>
</g>
<!-- node0020&#45;&gt;node0006 -->
<g id="edge20" class="edge">
<title>node0020&#45;&gt;node0006</title>
<path fill="none" stroke="black" d="M1697.3,-192.75C1680.23,-221.6 1651,-263.37 1614,-286.5 1583.1,-305.82 1566.95,-288.94 1534,-304.5 1530.88,-305.97 1527.77,-307.7 1524.74,-309.57"/>
<polygon fill="black" stroke="black" points="1522.89,-306.59 1516.59,-315.11 1526.83,-312.38 1522.89,-306.59"/>
<text text-anchor="middle" x="1691.66" y="-245.45" font-family="Times New Roman,serif" font-size="14.00">is a</text>
</g>
<!-- node0021 -->
<g id="node22" class="node">
<title>node0021</title>
<ellipse fill="none" stroke="black" cx="1116" cy="-36" rx="36" ry="36"/>
<text text-anchor="middle" x="1116" y="-32.12" font-family="Times New Roman,serif" font-size="10.00">people</text>
</g>
<!-- node0021&#45;&gt;node0008 -->
<g id="edge21" class="edge">
<title>node0021&#45;&gt;node0008</title>
<path fill="none" stroke="black" d="M1114.35,-72.09C1112.67,-107.85 1110.05,-163.51 1108.19,-202.94"/>
<polygon fill="black" stroke="black" points="1104.7,-202.69 1107.72,-212.85 1111.69,-203.02 1104.7,-202.69"/>
<text text-anchor="middle" x="1122.85" y="-93.2" font-family="Times New Roman,serif" font-size="14.00">is a</text>
</g>
<!-- node0021&#45;&gt;node0013 -->
<g id="edge22" class="edge">
<title>node0021&#45;&gt;node0013</title>
<path fill="none" stroke="black" d="M1091.44,-62.88C1083.97,-71.26 1075.97,-80.77 1069.25,-90 1062.75,-98.92 1056.35,-108.93 1050.61,-118.5"/>
<polygon fill="black" stroke="black" points="1047.69,-116.56 1045.64,-126.96 1053.72,-120.11 1047.69,-116.56"/>
<text text-anchor="middle" x="1078.62" y="-93.2" font-family="Times New Roman,serif" font-size="14.00">is a</text>
</g>
<!-- node0022 -->
<g id="node23" class="node">
<title>node0022</title>
<ellipse fill="none" stroke="black" cx="216" cy="-36" rx="36" ry="36"/>
<text text-anchor="middle" x="216" y="-32.12" font-family="Times New Roman,serif" font-size="10.00">HazardVehicle</text>
</g>
<!-- node0022&#45;&gt;node0010 -->
<g id="edge23" class="edge">
<title>node0022&#45;&gt;node0010</title>
<path fill="none" stroke="black" d="M231.82,-68.62C240.06,-82.13 251.35,-96.96 265.25,-106.5 313.75,-139.78 381.46,-152.17 426.47,-156.78"/>
<polygon fill="black" stroke="black" points="425.89,-160.24 436.17,-157.68 426.53,-153.27 425.89,-160.24"/>
<text text-anchor="middle" x="274.62" y="-93.2" font-family="Times New Roman,serif" font-size="14.00">is a</text>
</g>
<!-- node0023 -->
<g id="node24" class="node">
<title>node0023</title>
<ellipse fill="none" stroke="black" cx="486" cy="-36" rx="36" ry="36"/>
<text text-anchor="middle" x="486" y="-32.5" font-family="Times New Roman,serif" font-size="10.00">plan2&#45;车辆</text>
</g>
<!-- node0023&#45;&gt;node0011 -->
<g id="edge24" class="edge">
<title>node0023&#45;&gt;node0011</title>
<path fill="none" stroke="black" d="M513.8,-59.22C519.43,-63.55 525.35,-67.99 531,-72 562.22,-94.2 598.74,-117.73 625.92,-134.79"/>
<polygon fill="black" stroke="black" points="623.86,-137.63 634.2,-139.96 627.57,-131.7 623.86,-137.63"/>
<text text-anchor="middle" x="587.9" y="-93.2" font-family="Times New Roman,serif" font-size="14.00">is a</text>
</g>
<!-- node0024 -->
<g id="node25" class="node">
<title>node0024</title>
<ellipse fill="none" stroke="black" cx="576" cy="-36" rx="36" ry="36"/>
<text text-anchor="middle" x="576" y="-32.5" font-family="Times New Roman,serif" font-size="10.00">plan2&#45;牵引</text>
</g>
<!-- node0024&#45;&gt;node0011 -->
<g id="edge25" class="edge">
<title>node0024&#45;&gt;node0011</title>
<path fill="none" stroke="black" d="M597.1,-65.72C609.4,-82.46 625.06,-103.77 638.33,-121.84"/>
<polygon fill="black" stroke="black" points="635.39,-123.75 644.14,-129.74 641.03,-119.61 635.39,-123.75"/>
<text text-anchor="middle" x="635.76" y="-93.2" font-family="Times New Roman,serif" font-size="14.00">is a</text>
</g>
<!-- node0025 -->
<g id="node26" class="node">
<title>node0025</title>
<ellipse fill="none" stroke="black" cx="666" cy="-36" rx="36" ry="36"/>
<text text-anchor="middle" x="666" y="-32.5" font-family="Times New Roman,serif" font-size="10.00">plan1&#45;救助</text>
</g>
<!-- node0025&#45;&gt;node0011 -->
<g id="edge26" class="edge">
<title>node0025&#45;&gt;node0011</title>
<path fill="none" stroke="black" d="M666,-72.43C666,-85 666,-99.35 666,-112.72"/>
<polygon fill="black" stroke="black" points="662.5,-112.63 666,-122.63 669.5,-112.63 662.5,-112.63"/>
<text text-anchor="middle" x="675.38" y="-93.2" font-family="Times New Roman,serif" font-size="14.00">is a</text>
</g>
<!-- node0026 -->
<g id="node27" class="node">
<title>node0026</title>
<ellipse fill="none" stroke="black" cx="756" cy="-36" rx="36" ry="36"/>
<text text-anchor="middle" x="756" y="-32.5" font-family="Times New Roman,serif" font-size="10.00">plan2&#45;救助</text>
</g>
<!-- node0026&#45;&gt;node0011 -->
<g id="edge27" class="edge">
<title>node0026&#45;&gt;node0011</title>
<path fill="none" stroke="black" d="M734.9,-65.72C722.6,-82.46 706.94,-103.77 693.67,-121.84"/>
<polygon fill="black" stroke="black" points="690.97,-119.61 687.86,-129.74 696.61,-123.75 690.97,-119.61"/>
<text text-anchor="middle" x="725.76" y="-93.2" font-family="Times New Roman,serif" font-size="14.00">is a</text>
</g>
<!-- node0027 -->
<g id="node28" class="node">
<title>node0027</title>
<ellipse fill="none" stroke="black" cx="846" cy="-36" rx="36" ry="36"/>
<text text-anchor="middle" x="846" y="-32.5" font-family="Times New Roman,serif" font-size="10.00">plan1&#45;人员</text>
</g>
<!-- node0027&#45;&gt;node0011 -->
<g id="edge28" class="edge">
<title>node0027&#45;&gt;node0011</title>
<path fill="none" stroke="black" d="M818.2,-59.22C812.57,-63.55 806.65,-67.99 801,-72 769.78,-94.2 733.26,-117.73 706.08,-134.79"/>
<polygon fill="black" stroke="black" points="704.43,-131.7 697.8,-139.96 708.14,-137.63 704.43,-131.7"/>
<text text-anchor="middle" x="781.38" y="-93.2" font-family="Times New Roman,serif" font-size="14.00">is a</text>
</g>
<!-- node0028 -->
<g id="node29" class="node">
<title>node0028</title>
<ellipse fill="none" stroke="black" cx="936" cy="-36" rx="36" ry="36"/>
<text text-anchor="middle" x="936" y="-32.5" font-family="Times New Roman,serif" font-size="10.00">plan2&#45;人员</text>
</g>
<!-- node0028&#45;&gt;node0011 -->
<g id="edge29" class="edge">
<title>node0028&#45;&gt;node0011</title>
<path fill="none" stroke="black" d="M908.8,-60.17C903.12,-64.42 897.03,-68.58 891,-72 832.23,-105.34 758.25,-131.38 711.53,-146.11"/>
<polygon fill="black" stroke="black" points="710.51,-142.76 702,-149.06 712.58,-149.44 710.51,-142.76"/>
<text text-anchor="middle" x="865.41" y="-93.2" font-family="Times New Roman,serif" font-size="14.00">is a</text>
</g>
<!-- node0029 -->
<g id="node30" class="node">
<title>node0029</title>
<ellipse fill="none" stroke="black" cx="306" cy="-36" rx="36" ry="36"/>
<text text-anchor="middle" x="306" y="-32.12" font-family="Times New Roman,serif" font-size="10.00">plan1</text>
</g>
<!-- node0029&#45;&gt;node0011 -->
<g id="edge30" class="edge">
<title>node0029&#45;&gt;node0011</title>
<path fill="none" stroke="black" d="M333.08,-60.39C338.77,-64.62 344.9,-68.72 351,-72 393.24,-94.71 407.22,-93.03 453.25,-106.5 484.14,-115.54 567.04,-135.76 619.77,-148.45"/>
<polygon fill="black" stroke="black" points="618.84,-151.83 629.38,-150.76 620.48,-145.02 618.84,-151.83"/>
<text text-anchor="middle" x="462.62" y="-93.2" font-family="Times New Roman,serif" font-size="14.00">is a</text>
</g>
<!-- node0030 -->
<g id="node31" class="node">
<title>node0030</title>
<ellipse fill="none" stroke="black" cx="396" cy="-36" rx="36" ry="36"/>
<text text-anchor="middle" x="396" y="-32.12" font-family="Times New Roman,serif" font-size="10.00">plan2</text>
</g>
<!-- node0030&#45;&gt;node0011 -->
<g id="edge31" class="edge">
<title>node0030&#45;&gt;node0011</title>
<path fill="none" stroke="black" d="M423.2,-60.17C428.88,-64.42 434.97,-68.58 441,-72 499.77,-105.34 573.75,-131.38 620.47,-146.11"/>
<polygon fill="black" stroke="black" points="619.42,-149.44 630,-149.06 621.49,-142.76 619.42,-149.44"/>
<text text-anchor="middle" x="515.73" y="-93.2" font-family="Times New Roman,serif" font-size="14.00">is a</text>
</g>
<!-- node0031 -->
<g id="node32" class="node">
<title>node0031</title>
<ellipse fill="none" stroke="black" cx="126" cy="-36" rx="36" ry="36"/>
<text text-anchor="middle" x="126" y="-32.12" font-family="Times New Roman,serif" font-size="10.00">Road</text>
</g>
<!-- node0031&#45;&gt;node0012 -->
<g id="edge32" class="edge">
<title>node0031&#45;&gt;node0012</title>
<path fill="none" stroke="black" d="M126,-72.43C126,-85 126,-99.35 126,-112.72"/>
<polygon fill="black" stroke="black" points="122.5,-112.63 126,-122.63 129.5,-112.63 122.5,-112.63"/>
<text text-anchor="middle" x="135.38" y="-93.2" font-family="Times New Roman,serif" font-size="14.00">is a</text>
</g>
<!-- node0032 -->
<g id="node33" class="node">
<title>node0032</title>
<ellipse fill="none" stroke="black" cx="36" cy="-36" rx="36" ry="36"/>
<text text-anchor="middle" x="36" y="-32.12" font-family="Times New Roman,serif" font-size="10.00">Meteorology</text>
</g>
<!-- node0032&#45;&gt;node0012 -->
<g id="edge33" class="edge">
<title>node0032&#45;&gt;node0012</title>
<path fill="none" stroke="black" d="M57.1,-65.72C69.4,-82.46 85.06,-103.77 98.33,-121.84"/>
<polygon fill="black" stroke="black" points="95.39,-123.75 104.14,-129.74 101.03,-119.61 95.39,-123.75"/>
<text text-anchor="middle" x="95.76" y="-93.2" font-family="Times New Roman,serif" font-size="14.00">is a</text>
</g>
<!-- node0033 -->
<g id="node34" class="node">
<title>node0033</title>
<ellipse fill="none" stroke="black" cx="1026" cy="-36" rx="36" ry="36"/>
<text text-anchor="middle" x="1026" y="-32.12" font-family="Times New Roman,serif" font-size="10.00">AffectedVehicle</text>
</g>
<!-- node0033&#45;&gt;node0013 -->
<g id="edge34" class="edge">
<title>node0033&#45;&gt;node0013</title>
<path fill="none" stroke="black" d="M1026.58,-72.43C1026.78,-85 1027.02,-99.35 1027.24,-112.72"/>
<polygon fill="black" stroke="black" points="1023.74,-112.69 1027.4,-122.63 1030.73,-112.58 1023.74,-112.69"/>
<text text-anchor="middle" x="1036.49" y="-93.2" font-family="Times New Roman,serif" font-size="14.00">is a</text>
</g>
</g>
</svg>
