<?xml version="1.0" encoding="UTF-8" standalone="no"?>
<!DOCTYPE svg PUBLIC "-//W3C//DTD SVG 1.1//EN"
 "http://www.w3.org/Graphics/SVG/1.1/DTD/svg11.dtd">
<!-- Generated by graphviz version 12.1.2 (20240928.0832)
 -->
<!-- Title: G Pages: 1 -->
<svg width="1160pt" height="509pt"
 viewBox="0.00 0.00 1160.00 509.00" xmlns="http://www.w3.org/2000/svg" xmlns:xlink="http://www.w3.org/1999/xlink">
<g id="graph0" class="graph" transform="scale(1 1) rotate(0) translate(4 505)">
<title>G</title>
<polygon fill="white" stroke="none" points="-4,4 -4,-505 1156,-505 1156,4 -4,4"/>
<!-- node0000 -->
<g id="node1" class="node">
<title>node0000</title>
<ellipse fill="none" stroke="black" cx="135" cy="-465" rx="36" ry="36"/>
<text text-anchor="middle" x="135" y="-461.12" font-family="Times New Roman,serif" font-size="10.00">Thing</text>
</g>
<!-- node0001 -->
<g id="node2" class="node">
<title>node0001</title>
<ellipse fill="none" stroke="black" cx="216" cy="-340.5" rx="36" ry="36"/>
<text text-anchor="middle" x="216" y="-336.62" font-family="Times New Roman,serif" font-size="10.00">ScenarioElement</text>
</g>
<!-- node0001&#45;&gt;node0000 -->
<g id="edge1" class="edge">
<title>node0001&#45;&gt;node0000</title>
<path fill="none" stroke="black" d="M196.39,-371.15C185.65,-387.4 172.2,-407.74 160.63,-425.24"/>
<polygon fill="black" stroke="black" points="157.86,-423.08 155.26,-433.36 163.7,-426.95 157.86,-423.08"/>
<text text-anchor="middle" x="189.72" y="-397.7" font-family="Times New Roman,serif" font-size="14.00">is a</text>
</g>
<!-- node0002 -->
<g id="node3" class="node">
<title>node0002</title>
<ellipse fill="none" stroke="black" cx="75" cy="-250.5" rx="36" ry="36"/>
<text text-anchor="middle" x="75" y="-246.62" font-family="Times New Roman,serif" font-size="10.00">Item</text>
</g>
<!-- node0002&#45;&gt;node0000 -->
<g id="edge2" class="edge">
<title>node0002&#45;&gt;node0000</title>
<path fill="none" stroke="black" d="M84.64,-285.64C94.85,-321.81 111.03,-379.09 122.28,-418.94"/>
<polygon fill="black" stroke="black" points="118.89,-419.81 124.97,-428.49 125.62,-417.91 118.89,-419.81"/>
<text text-anchor="middle" x="119.5" y="-335.45" font-family="Times New Roman,serif" font-size="14.00">is a</text>
</g>
<!-- node0003 -->
<g id="node4" class="node">
<title>node0003</title>
<ellipse fill="none" stroke="black" cx="126" cy="-160.5" rx="36" ry="36"/>
<text text-anchor="middle" x="126" y="-156.62" font-family="Times New Roman,serif" font-size="10.00">AffectedElement</text>
</g>
<!-- node0003&#45;&gt;node0001 -->
<g id="edge3" class="edge">
<title>node0003&#45;&gt;node0001</title>
<path fill="none" stroke="black" d="M141.88,-192.91C156.64,-222.09 178.71,-265.74 194.93,-297.83"/>
<polygon fill="black" stroke="black" points="191.65,-299.11 199.29,-306.45 197.9,-295.95 191.65,-299.11"/>
<text text-anchor="middle" x="196.26" y="-245.45" font-family="Times New Roman,serif" font-size="14.00">is a</text>
</g>
<!-- node0004 -->
<g id="node5" class="node">
<title>node0004</title>
<ellipse fill="none" stroke="black" cx="216" cy="-160.5" rx="36" ry="36"/>
<text text-anchor="middle" x="216" y="-156.62" font-family="Times New Roman,serif" font-size="10.00">HazardElement</text>
</g>
<!-- node0004&#45;&gt;node0001 -->
<g id="edge4" class="edge">
<title>node0004&#45;&gt;node0001</title>
<path fill="none" stroke="black" d="M216,-196.67C216,-224.13 216,-262.54 216,-292.61"/>
<polygon fill="black" stroke="black" points="212.5,-292.59 216,-302.59 219.5,-292.59 212.5,-292.59"/>
<text text-anchor="middle" x="225.38" y="-245.45" font-family="Times New Roman,serif" font-size="14.00">is a</text>
</g>
<!-- node0005 -->
<g id="node6" class="node">
<title>node0005</title>
<ellipse fill="none" stroke="black" cx="306" cy="-160.5" rx="36" ry="36"/>
<text text-anchor="middle" x="306" y="-162.25" font-family="Times New Roman,serif" font-size="10.00">EnvironmentEleme</text>
<text text-anchor="middle" x="306" y="-151" font-family="Times New Roman,serif" font-size="10.00">nt</text>
</g>
<!-- node0005&#45;&gt;node0001 -->
<g id="edge5" class="edge">
<title>node0005&#45;&gt;node0001</title>
<path fill="none" stroke="black" d="M290.12,-192.91C275.36,-222.09 253.29,-265.74 237.07,-297.83"/>
<polygon fill="black" stroke="black" points="234.1,-295.95 232.71,-306.45 240.35,-299.11 234.1,-295.95"/>
<text text-anchor="middle" x="286.26" y="-245.45" font-family="Times New Roman,serif" font-size="14.00">is a</text>
</g>
<!-- node0006 -->
<g id="node7" class="node">
<title>node0006</title>
<ellipse fill="none" stroke="black" cx="756" cy="-160.5" rx="36" ry="36"/>
<text text-anchor="middle" x="756" y="-162.25" font-family="Times New Roman,serif" font-size="10.00">ResponsePlanElem</text>
<text text-anchor="middle" x="756" y="-151" font-family="Times New Roman,serif" font-size="10.00">ent</text>
</g>
<!-- node0006&#45;&gt;node0001 -->
<g id="edge6" class="edge">
<title>node0006&#45;&gt;node0001</title>
<path fill="none" stroke="black" d="M721.81,-172.77C627.97,-203.7 366.4,-289.92 260.93,-324.69"/>
<polygon fill="black" stroke="black" points="259.88,-321.35 251.48,-327.81 262.07,-328 259.88,-321.35"/>
<text text-anchor="middle" x="590.71" y="-245.45" font-family="Times New Roman,serif" font-size="14.00">is a</text>
</g>
<!-- node0007 -->
<g id="node8" class="node">
<title>node0007</title>
<ellipse fill="none" stroke="black" cx="36" cy="-36" rx="36" ry="36"/>
<text text-anchor="middle" x="36" y="-32.12" font-family="Times New Roman,serif" font-size="10.00">people</text>
</g>
<!-- node0007&#45;&gt;node0002 -->
<g id="edge7" class="edge">
<title>node0007&#45;&gt;node0002</title>
<path fill="none" stroke="black" d="M42.35,-71.61C48.95,-107.58 59.32,-164.04 66.59,-203.69"/>
<polygon fill="black" stroke="black" points="63.13,-204.21 68.38,-213.41 70.01,-202.94 63.13,-204.21"/>
<text text-anchor="middle" x="57.52" y="-93.2" font-family="Times New Roman,serif" font-size="14.00">is a</text>
</g>
<!-- node0007&#45;&gt;node0003 -->
<g id="edge8" class="edge">
<title>node0007&#45;&gt;node0003</title>
<path fill="none" stroke="black" d="M57.1,-65.72C69.4,-82.46 85.06,-103.77 98.33,-121.84"/>
<polygon fill="black" stroke="black" points="95.39,-123.75 104.14,-129.74 101.03,-119.61 95.39,-123.75"/>
<text text-anchor="middle" x="95.76" y="-93.2" font-family="Times New Roman,serif" font-size="14.00">is a</text>
</g>
<!-- node0008 -->
<g id="node9" class="node">
<title>node0008</title>
<ellipse fill="none" stroke="black" cx="126" cy="-36" rx="36" ry="36"/>
<text text-anchor="middle" x="126" y="-32.12" font-family="Times New Roman,serif" font-size="10.00">AffectedVehicle</text>
</g>
<!-- node0008&#45;&gt;node0003 -->
<g id="edge9" class="edge">
<title>node0008&#45;&gt;node0003</title>
<path fill="none" stroke="black" d="M126,-72.43C126,-85 126,-99.35 126,-112.72"/>
<polygon fill="black" stroke="black" points="122.5,-112.63 126,-122.63 129.5,-112.63 122.5,-112.63"/>
<text text-anchor="middle" x="135.38" y="-93.2" font-family="Times New Roman,serif" font-size="14.00">is a</text>
</g>
<!-- node0009 -->
<g id="node10" class="node">
<title>node0009</title>
<ellipse fill="none" stroke="black" cx="216" cy="-36" rx="36" ry="36"/>
<text text-anchor="middle" x="216" y="-32.12" font-family="Times New Roman,serif" font-size="10.00">HazardVehicle</text>
</g>
<!-- node0009&#45;&gt;node0004 -->
<g id="edge10" class="edge">
<title>node0009&#45;&gt;node0004</title>
<path fill="none" stroke="black" d="M216,-72.43C216,-85 216,-99.35 216,-112.72"/>
<polygon fill="black" stroke="black" points="212.5,-112.63 216,-122.63 219.5,-112.63 212.5,-112.63"/>
<text text-anchor="middle" x="225.38" y="-93.2" font-family="Times New Roman,serif" font-size="14.00">is a</text>
</g>
<!-- node0010 -->
<g id="node11" class="node">
<title>node0010</title>
<ellipse fill="none" stroke="black" cx="306" cy="-36" rx="36" ry="36"/>
<text text-anchor="middle" x="306" y="-32.12" font-family="Times New Roman,serif" font-size="10.00">Road</text>
</g>
<!-- node0010&#45;&gt;node0005 -->
<g id="edge11" class="edge">
<title>node0010&#45;&gt;node0005</title>
<path fill="none" stroke="black" d="M306,-72.43C306,-85 306,-99.35 306,-112.72"/>
<polygon fill="black" stroke="black" points="302.5,-112.63 306,-122.63 309.5,-112.63 302.5,-112.63"/>
<text text-anchor="middle" x="315.38" y="-93.2" font-family="Times New Roman,serif" font-size="14.00">is a</text>
</g>
<!-- node0011 -->
<g id="node12" class="node">
<title>node0011</title>
<ellipse fill="none" stroke="black" cx="396" cy="-36" rx="36" ry="36"/>
<text text-anchor="middle" x="396" y="-32.12" font-family="Times New Roman,serif" font-size="10.00">Meteorology</text>
</g>
<!-- node0011&#45;&gt;node0005 -->
<g id="edge12" class="edge">
<title>node0011&#45;&gt;node0005</title>
<path fill="none" stroke="black" d="M374.9,-65.72C362.6,-82.46 346.94,-103.77 333.67,-121.84"/>
<polygon fill="black" stroke="black" points="330.97,-119.61 327.86,-129.74 336.61,-123.75 330.97,-119.61"/>
<text text-anchor="middle" x="365.76" y="-93.2" font-family="Times New Roman,serif" font-size="14.00">is a</text>
</g>
<!-- node0012 -->
<g id="node13" class="node">
<title>node0012</title>
<ellipse fill="none" stroke="black" cx="486" cy="-36" rx="36" ry="36"/>
<text text-anchor="middle" x="486" y="-32.12" font-family="Times New Roman,serif" font-size="10.00">plan1</text>
</g>
<!-- node0012&#45;&gt;node0006 -->
<g id="edge13" class="edge">
<title>node0012&#45;&gt;node0006</title>
<path fill="none" stroke="black" d="M513.2,-60.17C518.88,-64.42 524.97,-68.58 531,-72 589.77,-105.34 663.75,-131.38 710.47,-146.11"/>
<polygon fill="black" stroke="black" points="709.42,-149.44 720,-149.06 711.49,-142.76 709.42,-149.44"/>
<text text-anchor="middle" x="605.73" y="-93.2" font-family="Times New Roman,serif" font-size="14.00">is a</text>
</g>
<!-- node0013 -->
<g id="node14" class="node">
<title>node0013</title>
<ellipse fill="none" stroke="black" cx="576" cy="-36" rx="36" ry="36"/>
<text text-anchor="middle" x="576" y="-32.5" font-family="Times New Roman,serif" font-size="10.00">plan1&#45;人员</text>
</g>
<!-- node0013&#45;&gt;node0006 -->
<g id="edge14" class="edge">
<title>node0013&#45;&gt;node0006</title>
<path fill="none" stroke="black" d="M603.8,-59.22C609.43,-63.55 615.35,-67.99 621,-72 652.22,-94.2 688.74,-117.73 715.92,-134.79"/>
<polygon fill="black" stroke="black" points="713.86,-137.63 724.2,-139.96 717.57,-131.7 713.86,-137.63"/>
<text text-anchor="middle" x="677.9" y="-93.2" font-family="Times New Roman,serif" font-size="14.00">is a</text>
</g>
<!-- node0014 -->
<g id="node15" class="node">
<title>node0014</title>
<ellipse fill="none" stroke="black" cx="666" cy="-36" rx="36" ry="36"/>
<text text-anchor="middle" x="666" y="-32.5" font-family="Times New Roman,serif" font-size="10.00">plan1&#45;救助</text>
</g>
<!-- node0014&#45;&gt;node0006 -->
<g id="edge15" class="edge">
<title>node0014&#45;&gt;node0006</title>
<path fill="none" stroke="black" d="M687.1,-65.72C699.4,-82.46 715.06,-103.77 728.33,-121.84"/>
<polygon fill="black" stroke="black" points="725.39,-123.75 734.14,-129.74 731.03,-119.61 725.39,-123.75"/>
<text text-anchor="middle" x="725.76" y="-93.2" font-family="Times New Roman,serif" font-size="14.00">is a</text>
</g>
<!-- node0015 -->
<g id="node16" class="node">
<title>node0015</title>
<ellipse fill="none" stroke="black" cx="756" cy="-36" rx="36" ry="36"/>
<text text-anchor="middle" x="756" y="-32.12" font-family="Times New Roman,serif" font-size="10.00">plan2</text>
</g>
<!-- node0015&#45;&gt;node0006 -->
<g id="edge16" class="edge">
<title>node0015&#45;&gt;node0006</title>
<path fill="none" stroke="black" d="M756,-72.43C756,-85 756,-99.35 756,-112.72"/>
<polygon fill="black" stroke="black" points="752.5,-112.63 756,-122.63 759.5,-112.63 752.5,-112.63"/>
<text text-anchor="middle" x="765.38" y="-93.2" font-family="Times New Roman,serif" font-size="14.00">is a</text>
</g>
<!-- node0016 -->
<g id="node17" class="node">
<title>node0016</title>
<ellipse fill="none" stroke="black" cx="846" cy="-36" rx="36" ry="36"/>
<text text-anchor="middle" x="846" y="-32.5" font-family="Times New Roman,serif" font-size="10.00">plan2&#45;人员</text>
</g>
<!-- node0016&#45;&gt;node0006 -->
<g id="edge17" class="edge">
<title>node0016&#45;&gt;node0006</title>
<path fill="none" stroke="black" d="M824.9,-65.72C812.6,-82.46 796.94,-103.77 783.67,-121.84"/>
<polygon fill="black" stroke="black" points="780.97,-119.61 777.86,-129.74 786.61,-123.75 780.97,-119.61"/>
<text text-anchor="middle" x="815.76" y="-93.2" font-family="Times New Roman,serif" font-size="14.00">is a</text>
</g>
<!-- node0017 -->
<g id="node18" class="node">
<title>node0017</title>
<ellipse fill="none" stroke="black" cx="936" cy="-36" rx="36" ry="36"/>
<text text-anchor="middle" x="936" y="-32.5" font-family="Times New Roman,serif" font-size="10.00">plan2&#45;救助</text>
</g>
<!-- node0017&#45;&gt;node0006 -->
<g id="edge18" class="edge">
<title>node0017&#45;&gt;node0006</title>
<path fill="none" stroke="black" d="M908.2,-59.22C902.57,-63.55 896.65,-67.99 891,-72 859.78,-94.2 823.26,-117.73 796.08,-134.79"/>
<polygon fill="black" stroke="black" points="794.43,-131.7 787.8,-139.96 798.14,-137.63 794.43,-131.7"/>
<text text-anchor="middle" x="871.38" y="-93.2" font-family="Times New Roman,serif" font-size="14.00">is a</text>
</g>
<!-- node0018 -->
<g id="node19" class="node">
<title>node0018</title>
<ellipse fill="none" stroke="black" cx="1026" cy="-36" rx="36" ry="36"/>
<text text-anchor="middle" x="1026" y="-32.5" font-family="Times New Roman,serif" font-size="10.00">plan2&#45;车辆</text>
</g>
<!-- node0018&#45;&gt;node0006 -->
<g id="edge19" class="edge">
<title>node0018&#45;&gt;node0006</title>
<path fill="none" stroke="black" d="M998.8,-60.17C993.12,-64.42 987.03,-68.58 981,-72 922.23,-105.34 848.25,-131.38 801.53,-146.11"/>
<polygon fill="black" stroke="black" points="800.51,-142.76 792,-149.06 802.58,-149.44 800.51,-142.76"/>
<text text-anchor="middle" x="955.41" y="-93.2" font-family="Times New Roman,serif" font-size="14.00">is a</text>
</g>
<!-- node0019 -->
<g id="node20" class="node">
<title>node0019</title>
<ellipse fill="none" stroke="black" cx="1116" cy="-36" rx="36" ry="36"/>
<text text-anchor="middle" x="1116" y="-32.5" font-family="Times New Roman,serif" font-size="10.00">plan2&#45;牵引</text>
</g>
<!-- node0019&#45;&gt;node0006 -->
<g id="edge20" class="edge">
<title>node0019&#45;&gt;node0006</title>
<path fill="none" stroke="black" d="M1088.92,-60.38C1083.23,-64.61 1077.1,-68.72 1071,-72 983.01,-119.34 867.08,-142.95 803.24,-153.08"/>
<polygon fill="black" stroke="black" points="802.79,-149.61 793.44,-154.59 803.86,-156.53 802.79,-149.61"/>
<text text-anchor="middle" x="1040.46" y="-93.2" font-family="Times New Roman,serif" font-size="14.00">is a</text>
</g>
</g>
</svg>
