<?xml version="1.0" encoding="UTF-8" standalone="no"?>
<!DOCTYPE svg PUBLIC "-//W3C//DTD SVG 1.1//EN"
 "http://www.w3.org/Graphics/SVG/1.1/DTD/svg11.dtd">
<!-- Generated by graphviz version 12.1.2 (20240928.0832)
 -->
<!-- Pages: 1 -->
<svg width="331pt" height="359pt"
 viewBox="0.00 0.00 330.70 359.20" xmlns="http://www.w3.org/2000/svg" xmlns:xlink="http://www.w3.org/1999/xlink">
<g id="graph0" class="graph" transform="scale(1 1) rotate(0) translate(3.6 355.6)">
<polygon fill="white" stroke="none" points="-3.6,3.6 -3.6,-355.6 327.1,-355.6 327.1,3.6 -3.6,3.6"/>
<!-- roadPassibility -->
<g id="node1" class="node">
<title>roadPassibility</title>
<polygon fill="none" stroke="black" points="13.12,-330 13.12,-352 88.88,-352 88.88,-330 13.12,-330"/>
<text text-anchor="start" x="19.12" y="-337.5" font-family="Arial" font-size="10.00">roadPassibility</text>
</g>
<!-- AbsorptionCapacity -->
<g id="node12" class="node">
<title>AbsorptionCapacity</title>
<polygon fill="none" stroke="black" points="116,-297 116,-319 213.5,-319 213.5,-297 116,-297"/>
<text text-anchor="start" x="122" y="-304.5" font-family="Arial" font-size="10.00">AbsorptionCapacity</text>
</g>
<!-- roadPassibility&#45;&gt;AbsorptionCapacity -->
<g id="edge8" class="edge">
<title>roadPassibility&#45;&gt;AbsorptionCapacity</title>
<path fill="none" stroke="#64748b" stroke-width="0.8" d="M82.88,-330.08C82.88,-321.74 82.88,-311.67 82.88,-311.67 82.88,-311.67 104.97,-311.67 104.97,-311.67"/>
<polygon fill="#64748b" stroke="#64748b" stroke-width="0.8" points="104.97,-315.17 114.97,-311.67 104.97,-308.17 104.97,-315.17"/>
</g>
<!-- emergencyType -->
<g id="node2" class="node">
<title>emergencyType</title>
<polygon fill="none" stroke="black" points="10.5,-264 10.5,-286 91.5,-286 91.5,-264 10.5,-264"/>
<text text-anchor="start" x="16.5" y="-271.5" font-family="Arial" font-size="10.00">emergencyType</text>
</g>
<!-- AdaptionCapacity -->
<g id="node13" class="node">
<title>AdaptionCapacity</title>
<polygon fill="none" stroke="black" points="120.12,-231 120.12,-253 209.38,-253 209.38,-231 120.12,-231"/>
<text text-anchor="start" x="126.12" y="-238.5" font-family="Arial" font-size="10.00">AdaptionCapacity</text>
</g>
<!-- emergencyType&#45;&gt;AdaptionCapacity -->
<g id="edge1" class="edge">
<title>emergencyType&#45;&gt;AdaptionCapacity</title>
<path fill="none" stroke="#64748b" stroke-width="0.8" d="M87.38,-264.13C87.38,-256.44 87.38,-247.5 87.38,-247.5 87.38,-247.5 108.98,-247.5 108.98,-247.5"/>
<polygon fill="#64748b" stroke="#64748b" stroke-width="0.8" points="108.98,-251 118.98,-247.5 108.98,-244 108.98,-251"/>
</g>
<!-- roadLoss -->
<g id="node3" class="node">
<title>roadLoss</title>
<polygon fill="none" stroke="black" points="25.12,-297 25.12,-319 76.88,-319 76.88,-297 25.12,-297"/>
<text text-anchor="start" x="31.12" y="-304.5" font-family="Arial" font-size="10.00">roadLoss</text>
</g>
<!-- roadLoss&#45;&gt;AbsorptionCapacity -->
<g id="edge13" class="edge">
<title>roadLoss&#45;&gt;AbsorptionCapacity</title>
<path fill="none" stroke="#64748b" stroke-width="0.8" d="M76.81,-304.33C76.81,-304.33 104.99,-304.33 104.99,-304.33"/>
<polygon fill="#64748b" stroke="#64748b" stroke-width="0.8" points="104.99,-307.83 114.99,-304.33 104.99,-300.83 104.99,-307.83"/>
</g>
<!-- casualties -->
<g id="node4" class="node">
<title>casualties</title>
<polygon fill="none" stroke="black" points="22.88,-231 22.88,-253 79.12,-253 79.12,-231 22.88,-231"/>
<text text-anchor="start" x="28.88" y="-238.5" font-family="Arial" font-size="10.00">casualties</text>
</g>
<!-- casualties&#45;&gt;AdaptionCapacity -->
<g id="edge11" class="edge">
<title>casualties&#45;&gt;AdaptionCapacity</title>
<path fill="none" stroke="#64748b" stroke-width="0.8" d="M79.12,-242C79.12,-242 108.92,-242 108.92,-242"/>
<polygon fill="#64748b" stroke="#64748b" stroke-width="0.8" points="108.92,-245.5 118.92,-242 108.92,-238.5 108.92,-245.5"/>
</g>
<!-- AidResource -->
<g id="node5" class="node">
<title>AidResource</title>
<polygon fill="none" stroke="black" points="16.88,-165 16.88,-187 85.12,-187 85.12,-165 16.88,-165"/>
<text text-anchor="start" x="22.88" y="-172.5" font-family="Arial" font-size="10.00">AidResource</text>
</g>
<!-- RecoveryCapacity -->
<g id="node14" class="node">
<title>RecoveryCapacity</title>
<polygon fill="none" stroke="black" points="118.25,-99 118.25,-121 211.25,-121 211.25,-99 118.25,-99"/>
<text text-anchor="start" x="124.25" y="-106.5" font-family="Arial" font-size="10.00">RecoveryCapacity</text>
</g>
<!-- AidResource&#45;&gt;RecoveryCapacity -->
<g id="edge4" class="edge">
<title>AidResource&#45;&gt;RecoveryCapacity</title>
<path fill="none" stroke="#64748b" stroke-width="0.8" d="M84.79,-176C122.9,-176 179.62,-176 179.62,-176 179.62,-176 179.62,-132.11 179.62,-132.11"/>
<polygon fill="#64748b" stroke="#64748b" stroke-width="0.8" points="183.13,-132.11 179.63,-122.11 176.13,-132.11 183.13,-132.11"/>
</g>
<!-- TowResource -->
<g id="node6" class="node">
<title>TowResource</title>
<polygon fill="none" stroke="black" points="15,-132 15,-154 87,-154 87,-132 15,-132"/>
<text text-anchor="start" x="21" y="-139.5" font-family="Arial" font-size="10.00">TowResource</text>
</g>
<!-- TowResource&#45;&gt;RecoveryCapacity -->
<g id="edge7" class="edge">
<title>TowResource&#45;&gt;RecoveryCapacity</title>
<path fill="none" stroke="#64748b" stroke-width="0.8" d="M86.98,-143C115.25,-143 149.88,-143 149.88,-143 149.88,-143 149.88,-132.02 149.88,-132.02"/>
<polygon fill="#64748b" stroke="#64748b" stroke-width="0.8" points="153.38,-132.02 149.88,-122.02 146.38,-132.02 153.38,-132.02"/>
</g>
<!-- FirefightingResource -->
<g id="node7" class="node">
<title>FirefightingResource</title>
<polygon fill="none" stroke="black" points="0,-99 0,-121 102,-121 102,-99 0,-99"/>
<text text-anchor="start" x="6" y="-106.5" font-family="Arial" font-size="10.00">FirefightingResource</text>
</g>
<!-- FirefightingResource&#45;&gt;RecoveryCapacity -->
<g id="edge9" class="edge">
<title>FirefightingResource&#45;&gt;RecoveryCapacity</title>
<path fill="none" stroke="#64748b" stroke-width="0.8" d="M101.89,-110C101.89,-110 107.37,-110 107.37,-110"/>
<polygon fill="#64748b" stroke="#64748b" stroke-width="0.8" points="107.37,-113.5 117.37,-110 107.37,-106.5 107.37,-113.5"/>
</g>
<!-- RescueResource -->
<g id="node8" class="node">
<title>RescueResource</title>
<polygon fill="none" stroke="black" points="7.12,-66 7.12,-88 94.88,-88 94.88,-66 7.12,-66"/>
<text text-anchor="start" x="13.12" y="-73.5" font-family="Arial" font-size="10.00">RescueResource</text>
</g>
<!-- RescueResource&#45;&gt;RecoveryCapacity -->
<g id="edge5" class="edge">
<title>RescueResource&#45;&gt;RecoveryCapacity</title>
<path fill="none" stroke="#64748b" stroke-width="0.8" d="M94.66,-77C117.8,-77 141.5,-77 141.5,-77 141.5,-77 141.5,-87.98 141.5,-87.98"/>
<polygon fill="#64748b" stroke="#64748b" stroke-width="0.8" points="138,-87.98 141.5,-97.98 145,-87.98 138,-87.98"/>
</g>
<!-- emergencyPeriod -->
<g id="node9" class="node">
<title>emergencyPeriod</title>
<polygon fill="none" stroke="black" points="7.12,-198 7.12,-220 94.88,-220 94.88,-198 7.12,-198"/>
<text text-anchor="start" x="13.12" y="-205.5" font-family="Arial" font-size="10.00">emergencyPeriod</text>
</g>
<!-- emergencyPeriod&#45;&gt;AdaptionCapacity -->
<g id="edge10" class="edge">
<title>emergencyPeriod&#45;&gt;AdaptionCapacity</title>
<path fill="none" stroke="#64748b" stroke-width="0.8" d="M83.25,-219.87C83.25,-227.56 83.25,-236.5 83.25,-236.5 83.25,-236.5 108.97,-236.5 108.97,-236.5"/>
<polygon fill="#64748b" stroke="#64748b" stroke-width="0.8" points="108.97,-240 118.97,-236.5 108.97,-233 108.97,-240"/>
</g>
<!-- responseDuration -->
<g id="node10" class="node">
<title>responseDuration</title>
<polygon fill="none" stroke="black" points="6.75,-33 6.75,-55 95.25,-55 95.25,-33 6.75,-33"/>
<text text-anchor="start" x="12.75" y="-40.5" font-family="Arial" font-size="10.00">responseDuration</text>
</g>
<!-- responseDuration&#45;&gt;RecoveryCapacity -->
<g id="edge3" class="edge">
<title>responseDuration&#45;&gt;RecoveryCapacity</title>
<path fill="none" stroke="#64748b" stroke-width="0.8" d="M94.98,-44C126.99,-44 164.75,-44 164.75,-44 164.75,-44 164.75,-87.89 164.75,-87.89"/>
<polygon fill="#64748b" stroke="#64748b" stroke-width="0.8" points="161.25,-87.89 164.75,-97.89 168.25,-87.89 161.25,-87.89"/>
</g>
<!-- disposalDuration -->
<g id="node11" class="node">
<title>disposalDuration</title>
<polygon fill="none" stroke="black" points="8.62,0 8.62,-22 93.38,-22 93.38,0 8.62,0"/>
<text text-anchor="start" x="14.62" y="-7.5" font-family="Arial" font-size="10.00">disposalDuration</text>
</g>
<!-- disposalDuration&#45;&gt;RecoveryCapacity -->
<g id="edge6" class="edge">
<title>disposalDuration&#45;&gt;RecoveryCapacity</title>
<path fill="none" stroke="#64748b" stroke-width="0.8" d="M93.22,-11C133.48,-11 188,-11 188,-11 188,-11 188,-87.82 188,-87.82"/>
<polygon fill="#64748b" stroke="#64748b" stroke-width="0.8" points="184.5,-87.82 188,-97.82 191.5,-87.82 184.5,-87.82"/>
</g>
<!-- ScenarioResilience -->
<g id="node15" class="node">
<title>ScenarioResilience</title>
<polygon fill="none" stroke="black" points="227.5,-231 227.5,-253 323.5,-253 323.5,-231 227.5,-231"/>
<text text-anchor="start" x="233.5" y="-238.5" font-family="Arial" font-size="10.00">ScenarioResilience</text>
</g>
<!-- AbsorptionCapacity&#45;&gt;ScenarioResilience -->
<g id="edge12" class="edge">
<title>AbsorptionCapacity&#45;&gt;ScenarioResilience</title>
<path fill="none" stroke="#64748b" stroke-width="0.8" d="M213.33,-308C243.08,-308 275.5,-308 275.5,-308 275.5,-308 275.5,-264.11 275.5,-264.11"/>
<polygon fill="#64748b" stroke="#64748b" stroke-width="0.8" points="279,-264.11 275.5,-254.11 272,-264.11 279,-264.11"/>
</g>
<!-- AdaptionCapacity&#45;&gt;ScenarioResilience -->
<g id="edge14" class="edge">
<title>AdaptionCapacity&#45;&gt;ScenarioResilience</title>
<path fill="none" stroke="#64748b" stroke-width="0.8" d="M209.16,-242C209.16,-242 216.61,-242 216.61,-242"/>
<polygon fill="#64748b" stroke="#64748b" stroke-width="0.8" points="216.61,-245.5 226.61,-242 216.61,-238.5 216.61,-245.5"/>
</g>
<!-- RecoveryCapacity&#45;&gt;ScenarioResilience -->
<g id="edge2" class="edge">
<title>RecoveryCapacity&#45;&gt;ScenarioResilience</title>
<path fill="none" stroke="#64748b" stroke-width="0.8" d="M211.08,-110C241.42,-110 275.5,-110 275.5,-110 275.5,-110 275.5,-219.99 275.5,-219.99"/>
<polygon fill="#64748b" stroke="#64748b" stroke-width="0.8" points="272,-219.99 275.5,-229.99 279,-219.99 272,-219.99"/>
</g>
</g>
</svg>
