<?xml version="1.0" encoding="UTF-8" standalone="no"?>
<!DOCTYPE svg PUBLIC "-//W3C//DTD SVG 1.1//EN"
 "http://www.w3.org/Graphics/SVG/1.1/DTD/svg11.dtd">
<!-- Generated by graphviz version 12.1.2 (20240928.0832)
 -->
<!-- Title: G Pages: 1 -->
<svg width="1880pt" height="454pt"
 viewBox="0.00 0.00 1880.00 453.50" xmlns="http://www.w3.org/2000/svg" xmlns:xlink="http://www.w3.org/1999/xlink">
<g id="graph0" class="graph" transform="scale(1 1) rotate(0) translate(4 449.5)">
<title>G</title>
<polygon fill="white" stroke="none" points="-4,4 -4,-449.5 1876,-449.5 1876,4 -4,4"/>
<!-- node0000 -->
<g id="node1" class="node">
<title>node0000</title>
<ellipse fill="none" stroke="black" cx="780" cy="-409.5" rx="36" ry="36"/>
<text text-anchor="middle" x="780" y="-405.62" font-family="Times New Roman,serif" font-size="10.00">Thing</text>
</g>
<!-- node0001 -->
<g id="node2" class="node">
<title>node0001</title>
<ellipse fill="none" stroke="black" cx="126" cy="-285" rx="36" ry="36"/>
<text text-anchor="middle" x="126" y="-281.12" font-family="Times New Roman,serif" font-size="10.00">169</text>
</g>
<!-- node0001&#45;&gt;node0000 -->
<g id="edge1" class="edge">
<title>node0001&#45;&gt;node0000</title>
<path fill="none" stroke="black" d="M152.39,-309.42C158.23,-313.75 164.59,-317.88 171,-321 227.95,-348.71 246.93,-344.27 309.25,-355.5 462.7,-383.16 647.04,-398.92 732.37,-405.23"/>
<polygon fill="black" stroke="black" points="732,-408.72 742.23,-405.95 732.51,-401.73 732,-408.72"/>
<text text-anchor="middle" x="318.62" y="-342.2" font-family="Times New Roman,serif" font-size="14.00">is a</text>
</g>
<!-- node0002 -->
<g id="node3" class="node">
<title>node0002</title>
<ellipse fill="none" stroke="black" cx="216" cy="-285" rx="36" ry="36"/>
<text text-anchor="middle" x="216" y="-281.12" font-family="Times New Roman,serif" font-size="10.00">Scenario</text>
</g>
<!-- node0002&#45;&gt;node0000 -->
<g id="edge2" class="edge">
<title>node0002&#45;&gt;node0000</title>
<path fill="none" stroke="black" d="M247.46,-303.28C259.07,-309.3 272.45,-315.84 285,-321 331.31,-340.05 343.42,-344.4 392.25,-355.5 513.31,-383.02 659.1,-398.26 732.64,-404.72"/>
<polygon fill="black" stroke="black" points="732.03,-408.18 742.3,-405.56 732.63,-401.21 732.03,-408.18"/>
<text text-anchor="middle" x="401.62" y="-342.2" font-family="Times New Roman,serif" font-size="14.00">is a</text>
</g>
<!-- node0003 -->
<g id="node4" class="node">
<title>node0003</title>
<ellipse fill="none" stroke="black" cx="330" cy="-285" rx="36" ry="36"/>
<text text-anchor="middle" x="330" y="-281.12" font-family="Times New Roman,serif" font-size="10.00">ScenarioResilience</text>
</g>
<!-- node0003&#45;&gt;node0000 -->
<g id="edge3" class="edge">
<title>node0003&#45;&gt;node0000</title>
<path fill="none" stroke="black" d="M357.05,-309.45C362.73,-313.68 368.87,-317.76 375,-321 493.27,-383.5 653.41,-401.37 732.19,-406.47"/>
<polygon fill="black" stroke="black" points="731.96,-409.96 742.16,-407.07 732.38,-402.97 731.96,-409.96"/>
<text text-anchor="middle" x="456.54" y="-342.2" font-family="Times New Roman,serif" font-size="14.00">is a</text>
</g>
<!-- node0004 -->
<g id="node5" class="node">
<title>node0004</title>
<ellipse fill="none" stroke="black" cx="420" cy="-285" rx="36" ry="36"/>
<text text-anchor="middle" x="420" y="-281.12" font-family="Times New Roman,serif" font-size="10.00">InvolvedScenarioElement</text>
</g>
<!-- node0004&#45;&gt;node0000 -->
<g id="edge4" class="edge">
<title>node0004&#45;&gt;node0000</title>
<path fill="none" stroke="black" d="M447.08,-309.39C452.77,-313.62 458.9,-317.72 465,-321 553.01,-368.31 668.94,-391.93 732.77,-402.07"/>
<polygon fill="black" stroke="black" points="732.15,-405.52 742.56,-403.58 733.21,-398.6 732.15,-405.52"/>
<text text-anchor="middle" x="547.79" y="-342.2" font-family="Times New Roman,serif" font-size="14.00">is a</text>
</g>
<!-- node0005 -->
<g id="node6" class="node">
<title>node0005</title>
<ellipse fill="none" stroke="black" cx="510" cy="-285" rx="36" ry="36"/>
<text text-anchor="middle" x="510" y="-281.12" font-family="Times New Roman,serif" font-size="10.00">ResilienceInfluentialFactors</text>
</g>
<!-- node0005&#45;&gt;node0000 -->
<g id="edge5" class="edge">
<title>node0005&#45;&gt;node0000</title>
<path fill="none" stroke="black" d="M537.2,-309.17C542.88,-313.42 548.97,-317.58 555,-321 613.77,-354.34 687.75,-380.38 734.47,-395.11"/>
<polygon fill="black" stroke="black" points="733.42,-398.44 744,-398.06 735.49,-391.76 733.42,-398.44"/>
<text text-anchor="middle" x="629.73" y="-342.2" font-family="Times New Roman,serif" font-size="14.00">is a</text>
</g>
<!-- node0006 -->
<g id="node7" class="node">
<title>node0006</title>
<ellipse fill="none" stroke="black" cx="600" cy="-285" rx="36" ry="36"/>
<text text-anchor="middle" x="600" y="-281.12" font-family="Times New Roman,serif" font-size="10.00">Emergency</text>
</g>
<!-- node0006&#45;&gt;node0000 -->
<g id="edge6" class="edge">
<title>node0006&#45;&gt;node0000</title>
<path fill="none" stroke="black" d="M627.8,-308.22C633.43,-312.55 639.35,-316.99 645,-321 676.22,-343.2 712.74,-366.73 739.92,-383.79"/>
<polygon fill="black" stroke="black" points="737.86,-386.63 748.2,-388.96 741.57,-380.7 737.86,-386.63"/>
<text text-anchor="middle" x="701.9" y="-342.2" font-family="Times New Roman,serif" font-size="14.00">is a</text>
</g>
<!-- node0007 -->
<g id="node8" class="node">
<title>node0007</title>
<ellipse fill="none" stroke="black" cx="690" cy="-285" rx="36" ry="36"/>
<text text-anchor="middle" x="690" y="-281.12" font-family="Times New Roman,serif" font-size="10.00">EmergencyPhase</text>
</g>
<!-- node0007&#45;&gt;node0000 -->
<g id="edge7" class="edge">
<title>node0007&#45;&gt;node0000</title>
<path fill="none" stroke="black" d="M711.1,-314.72C723.4,-331.46 739.06,-352.77 752.33,-370.84"/>
<polygon fill="black" stroke="black" points="749.39,-372.75 758.14,-378.74 755.03,-368.61 749.39,-372.75"/>
<text text-anchor="middle" x="749.76" y="-342.2" font-family="Times New Roman,serif" font-size="14.00">is a</text>
</g>
<!-- node0008 -->
<g id="node9" class="node">
<title>node0008</title>
<ellipse fill="none" stroke="black" cx="780" cy="-285" rx="36" ry="36"/>
<text text-anchor="middle" x="780" y="-281.12" font-family="Times New Roman,serif" font-size="10.00">InvolvedScenario</text>
</g>
<!-- node0008&#45;&gt;node0000 -->
<g id="edge8" class="edge">
<title>node0008&#45;&gt;node0000</title>
<path fill="none" stroke="black" d="M780,-321.43C780,-334 780,-348.35 780,-361.72"/>
<polygon fill="black" stroke="black" points="776.5,-361.63 780,-371.63 783.5,-361.63 776.5,-361.63"/>
<text text-anchor="middle" x="789.38" y="-342.2" font-family="Times New Roman,serif" font-size="14.00">is a</text>
</g>
<!-- node0009 -->
<g id="node10" class="node">
<title>node0009</title>
<ellipse fill="none" stroke="black" cx="870" cy="-285" rx="36" ry="36"/>
<text text-anchor="middle" x="870" y="-281.12" font-family="Times New Roman,serif" font-size="10.00">ScenarioElement</text>
</g>
<!-- node0009&#45;&gt;node0000 -->
<g id="edge9" class="edge">
<title>node0009&#45;&gt;node0000</title>
<path fill="none" stroke="black" d="M848.9,-314.72C836.6,-331.46 820.94,-352.77 807.67,-370.84"/>
<polygon fill="black" stroke="black" points="804.97,-368.61 801.86,-378.74 810.61,-372.75 804.97,-368.61"/>
<text text-anchor="middle" x="839.76" y="-342.2" font-family="Times New Roman,serif" font-size="14.00">is a</text>
</g>
<!-- node0010 -->
<g id="node11" class="node">
<title>node0010</title>
<ellipse fill="none" stroke="black" cx="1161" cy="-285" rx="36" ry="36"/>
<text text-anchor="middle" x="1161" y="-281.12" font-family="Times New Roman,serif" font-size="10.00">ElementCompositions</text>
</g>
<!-- node0010&#45;&gt;node0000 -->
<g id="edge10" class="edge">
<title>node0010&#45;&gt;node0000</title>
<path fill="none" stroke="black" d="M1126.85,-296.98C1057.91,-319.14 902.12,-369.23 825,-394.03"/>
<polygon fill="black" stroke="black" points="824.1,-390.65 815.65,-397.04 826.24,-397.31 824.1,-390.65"/>
<text text-anchor="middle" x="1002.69" y="-342.2" font-family="Times New Roman,serif" font-size="14.00">is a</text>
</g>
<!-- node0011 -->
<g id="node12" class="node">
<title>node0011</title>
<ellipse fill="none" stroke="black" cx="1386" cy="-285" rx="36" ry="36"/>
<text text-anchor="middle" x="1386" y="-281.12" font-family="Times New Roman,serif" font-size="10.00">ElementState</text>
</g>
<!-- node0011&#45;&gt;node0000 -->
<g id="edge11" class="edge">
<title>node0011&#45;&gt;node0000</title>
<path fill="none" stroke="black" d="M1350.8,-293.12C1247.15,-314.07 943.01,-375.55 826.32,-399.14"/>
<polygon fill="black" stroke="black" points="825.89,-395.65 816.78,-401.06 827.28,-402.51 825.89,-395.65"/>
<text text-anchor="middle" x="1128.66" y="-342.2" font-family="Times New Roman,serif" font-size="14.00">is a</text>
</g>
<!-- node0012 -->
<g id="node13" class="node">
<title>node0012</title>
<ellipse fill="none" stroke="black" cx="1476" cy="-285" rx="36" ry="36"/>
<text text-anchor="middle" x="1476" y="-281.12" font-family="Times New Roman,serif" font-size="10.00">aidStates</text>
</g>
<!-- node0012&#45;&gt;node0000 -->
<g id="edge12" class="edge">
<title>node0012&#45;&gt;node0000</title>
<path fill="none" stroke="black" d="M1449.86,-309.98C1444.01,-314.27 1437.57,-318.24 1431,-321 1321.27,-367.05 957.79,-396.17 827.22,-405.36"/>
<polygon fill="black" stroke="black" points="827.29,-401.85 817.56,-406.03 827.78,-408.83 827.29,-401.85"/>
<text text-anchor="middle" x="1376.98" y="-342.2" font-family="Times New Roman,serif" font-size="14.00">is a</text>
</g>
<!-- node0013 -->
<g id="node14" class="node">
<title>node0013</title>
<ellipse fill="none" stroke="black" cx="1566" cy="-285" rx="36" ry="36"/>
<text text-anchor="middle" x="1566" y="-281.12" font-family="Times New Roman,serif" font-size="10.00">firefightingStates</text>
</g>
<!-- node0013&#45;&gt;node0000 -->
<g id="edge13" class="edge">
<title>node0013&#45;&gt;node0000</title>
<path fill="none" stroke="black" d="M1539.58,-309.36C1533.74,-313.69 1527.39,-317.84 1521,-321 1467.03,-347.69 1449.32,-345.19 1390,-355.5 1182.51,-391.56 930.84,-403.55 827.63,-407.13"/>
<polygon fill="black" stroke="black" points="827.76,-403.62 817.89,-407.45 828,-410.62 827.76,-403.62"/>
<text text-anchor="middle" x="1487.15" y="-342.2" font-family="Times New Roman,serif" font-size="14.00">is a</text>
</g>
<!-- node0014 -->
<g id="node15" class="node">
<title>node0014</title>
<ellipse fill="none" stroke="black" cx="1656" cy="-285" rx="36" ry="36"/>
<text text-anchor="middle" x="1656" y="-281.12" font-family="Times New Roman,serif" font-size="10.00">rescueStates</text>
</g>
<!-- node0014&#45;&gt;node0000 -->
<g id="edge14" class="edge">
<title>node0014&#45;&gt;node0000</title>
<path fill="none" stroke="black" d="M1628.97,-309.49C1623.28,-313.71 1617.14,-317.79 1611,-321 1565.61,-344.77 1551.33,-345.89 1501,-355.5 1250.7,-403.29 943.93,-408.61 827.69,-408.77"/>
<polygon fill="black" stroke="black" points="827.91,-405.27 817.91,-408.77 827.91,-412.27 827.91,-405.27"/>
<text text-anchor="middle" x="1580.32" y="-342.2" font-family="Times New Roman,serif" font-size="14.00">is a</text>
</g>
<!-- node0015 -->
<g id="node16" class="node">
<title>node0015</title>
<ellipse fill="none" stroke="black" cx="1746" cy="-285" rx="36" ry="36"/>
<text text-anchor="middle" x="1746" y="-281.12" font-family="Times New Roman,serif" font-size="10.00">towStates</text>
</g>
<!-- node0015&#45;&gt;node0000 -->
<g id="edge15" class="edge">
<title>node0015&#45;&gt;node0000</title>
<path fill="none" stroke="black" d="M1718.95,-309.45C1713.26,-313.68 1707.12,-317.76 1701,-321 1656.83,-344.36 1643.08,-346.14 1594,-355.5 1445.37,-383.85 977.73,-401.8 827.19,-406.96"/>
<polygon fill="black" stroke="black" points="827.47,-403.45 817.59,-407.28 827.71,-410.44 827.47,-403.45"/>
<text text-anchor="middle" x="1671.43" y="-342.2" font-family="Times New Roman,serif" font-size="14.00">is a</text>
</g>
<!-- node0016 -->
<g id="node17" class="node">
<title>node0016</title>
<ellipse fill="none" stroke="black" cx="36" cy="-160.5" rx="36" ry="36"/>
<text text-anchor="middle" x="36" y="-156.62" font-family="Times New Roman,serif" font-size="10.00">AdaptionScenario</text>
</g>
<!-- node0016&#45;&gt;node0002 -->
<g id="edge16" class="edge">
<title>node0016&#45;&gt;node0002</title>
<path fill="none" stroke="black" d="M63.66,-183.93C69.3,-188.24 75.26,-192.62 81,-196.5 119.36,-222.44 132.64,-223.06 171,-249 173.69,-250.82 176.43,-252.75 179.16,-254.73"/>
<polygon fill="black" stroke="black" points="177.02,-257.49 187.13,-260.66 181.2,-251.88 177.02,-257.49"/>
<text text-anchor="middle" x="149.61" y="-217.7" font-family="Times New Roman,serif" font-size="14.00">is a</text>
</g>
<!-- node0017 -->
<g id="node18" class="node">
<title>node0017</title>
<ellipse fill="none" stroke="black" cx="126" cy="-160.5" rx="36" ry="36"/>
<text text-anchor="middle" x="126" y="-156.62" font-family="Times New Roman,serif" font-size="10.00">AbsorptionScenario</text>
</g>
<!-- node0017&#45;&gt;node0002 -->
<g id="edge17" class="edge">
<title>node0017&#45;&gt;node0002</title>
<path fill="none" stroke="black" d="M147.1,-190.22C159.4,-206.96 175.06,-228.27 188.33,-246.34"/>
<polygon fill="black" stroke="black" points="185.39,-248.25 194.14,-254.24 191.03,-244.11 185.39,-248.25"/>
<text text-anchor="middle" x="185.76" y="-217.7" font-family="Times New Roman,serif" font-size="14.00">is a</text>
</g>
<!-- node0018 -->
<g id="node19" class="node">
<title>node0018</title>
<ellipse fill="none" stroke="black" cx="216" cy="-160.5" rx="36" ry="36"/>
<text text-anchor="middle" x="216" y="-156.62" font-family="Times New Roman,serif" font-size="10.00">RecoveryScenario</text>
</g>
<!-- node0018&#45;&gt;node0002 -->
<g id="edge18" class="edge">
<title>node0018&#45;&gt;node0002</title>
<path fill="none" stroke="black" d="M216,-196.93C216,-209.5 216,-223.85 216,-237.22"/>
<polygon fill="black" stroke="black" points="212.5,-237.13 216,-247.13 219.5,-237.13 212.5,-237.13"/>
<text text-anchor="middle" x="225.38" y="-217.7" font-family="Times New Roman,serif" font-size="14.00">is a</text>
</g>
<!-- node0019 -->
<g id="node20" class="node">
<title>node0019</title>
<ellipse fill="none" stroke="black" cx="306" cy="-160.5" rx="36" ry="36"/>
<text text-anchor="middle" x="306" y="-156.62" font-family="Times New Roman,serif" font-size="10.00">SafetyFactors</text>
</g>
<!-- node0019&#45;&gt;node0005 -->
<g id="edge19" class="edge">
<title>node0019&#45;&gt;node0005</title>
<path fill="none" stroke="black" d="M333.41,-184.32C339.07,-188.59 345.11,-192.86 351,-196.5 381.28,-215.2 390.85,-216.29 423.25,-231 441.65,-239.36 447.61,-238.71 465,-249 467.8,-250.65 470.61,-252.46 473.4,-254.35"/>
<polygon fill="black" stroke="black" points="471.3,-257.15 481.47,-260.12 475.38,-251.45 471.3,-257.15"/>
<text text-anchor="middle" x="432.62" y="-217.7" font-family="Times New Roman,serif" font-size="14.00">is a</text>
</g>
<!-- node0020 -->
<g id="node21" class="node">
<title>node0020</title>
<ellipse fill="none" stroke="black" cx="396" cy="-160.5" rx="36" ry="36"/>
<text text-anchor="middle" x="396" y="-156.62" font-family="Times New Roman,serif" font-size="10.00">FunctionFactors</text>
</g>
<!-- node0020&#45;&gt;node0005 -->
<g id="edge20" class="edge">
<title>node0020&#45;&gt;node0005</title>
<path fill="none" stroke="black" d="M420.18,-187.48C437.03,-205.59 459.69,-229.94 478.03,-249.65"/>
<polygon fill="black" stroke="black" points="475.45,-252.01 484.83,-256.95 480.58,-247.25 475.45,-252.01"/>
<text text-anchor="middle" x="469.2" y="-217.7" font-family="Times New Roman,serif" font-size="14.00">is a</text>
</g>
<!-- node0021 -->
<g id="node22" class="node">
<title>node0021</title>
<ellipse fill="none" stroke="black" cx="486" cy="-160.5" rx="36" ry="36"/>
<text text-anchor="middle" x="486" y="-156.62" font-family="Times New Roman,serif" font-size="10.00">EconomicFactors</text>
</g>
<!-- node0021&#45;&gt;node0005 -->
<g id="edge21" class="edge">
<title>node0021&#45;&gt;node0005</title>
<path fill="none" stroke="black" d="M492.81,-196.28C495.39,-209.45 498.37,-224.64 501.11,-238.65"/>
<polygon fill="black" stroke="black" points="497.6,-238.94 502.96,-248.08 504.47,-237.59 497.6,-238.94"/>
<text text-anchor="middle" x="508.81" y="-217.7" font-family="Times New Roman,serif" font-size="14.00">is a</text>
</g>
<!-- node0022 -->
<g id="node23" class="node">
<title>node0022</title>
<ellipse fill="none" stroke="black" cx="576" cy="-160.5" rx="36" ry="36"/>
<text text-anchor="middle" x="576" y="-156.62" font-family="Times New Roman,serif" font-size="10.00">TimeFactors</text>
</g>
<!-- node0022&#45;&gt;node0005 -->
<g id="edge22" class="edge">
<title>node0022&#45;&gt;node0005</title>
<path fill="none" stroke="black" d="M559.17,-192.73C550.95,-207.99 540.95,-226.56 532.12,-242.95"/>
<polygon fill="black" stroke="black" points="529.17,-241.03 527.51,-251.5 535.34,-244.35 529.17,-241.03"/>
<text text-anchor="middle" x="556.33" y="-217.7" font-family="Times New Roman,serif" font-size="14.00">is a</text>
</g>
<!-- node0023 -->
<g id="node24" class="node">
<title>node0023</title>
<ellipse fill="none" stroke="black" cx="666" cy="-160.5" rx="36" ry="36"/>
<text text-anchor="middle" x="666" y="-156.62" font-family="Times New Roman,serif" font-size="10.00">AffectedElement</text>
</g>
<!-- node0023&#45;&gt;node0009 -->
<g id="edge23" class="edge">
<title>node0023&#45;&gt;node0009</title>
<path fill="none" stroke="black" d="M693.41,-184.32C699.07,-188.59 705.11,-192.86 711,-196.5 741.28,-215.2 750.85,-216.29 783.25,-231 801.65,-239.36 807.61,-238.71 825,-249 827.8,-250.65 830.61,-252.46 833.4,-254.35"/>
<polygon fill="black" stroke="black" points="831.3,-257.15 841.47,-260.12 835.38,-251.45 831.3,-257.15"/>
<text text-anchor="middle" x="792.62" y="-217.7" font-family="Times New Roman,serif" font-size="14.00">is a</text>
</g>
<!-- node0024 -->
<g id="node25" class="node">
<title>node0024</title>
<ellipse fill="none" stroke="black" cx="756" cy="-160.5" rx="36" ry="36"/>
<text text-anchor="middle" x="756" y="-156.62" font-family="Times New Roman,serif" font-size="10.00">HazardElement</text>
</g>
<!-- node0024&#45;&gt;node0009 -->
<g id="edge24" class="edge">
<title>node0024&#45;&gt;node0009</title>
<path fill="none" stroke="black" d="M780.18,-187.48C797.03,-205.59 819.69,-229.94 838.03,-249.65"/>
<polygon fill="black" stroke="black" points="835.45,-252.01 844.83,-256.95 840.58,-247.25 835.45,-252.01"/>
<text text-anchor="middle" x="829.2" y="-217.7" font-family="Times New Roman,serif" font-size="14.00">is a</text>
</g>
<!-- node0025 -->
<g id="node26" class="node">
<title>node0025</title>
<ellipse fill="none" stroke="black" cx="846" cy="-160.5" rx="36" ry="36"/>
<text text-anchor="middle" x="846" y="-156.62" font-family="Times New Roman,serif" font-size="10.00">EnvironmentElement</text>
</g>
<!-- node0025&#45;&gt;node0009 -->
<g id="edge25" class="edge">
<title>node0025&#45;&gt;node0009</title>
<path fill="none" stroke="black" d="M852.81,-196.28C855.39,-209.45 858.37,-224.64 861.11,-238.65"/>
<polygon fill="black" stroke="black" points="857.6,-238.94 862.96,-248.08 864.47,-237.59 857.6,-238.94"/>
<text text-anchor="middle" x="868.81" y="-217.7" font-family="Times New Roman,serif" font-size="14.00">is a</text>
</g>
<!-- node0026 -->
<g id="node27" class="node">
<title>node0026</title>
<ellipse fill="none" stroke="black" cx="936" cy="-160.5" rx="36" ry="36"/>
<text text-anchor="middle" x="936" y="-156.62" font-family="Times New Roman,serif" font-size="10.00">ResponsePlanElement</text>
</g>
<!-- node0026&#45;&gt;node0009 -->
<g id="edge26" class="edge">
<title>node0026&#45;&gt;node0009</title>
<path fill="none" stroke="black" d="M919.17,-192.73C910.95,-207.99 900.95,-226.56 892.12,-242.95"/>
<polygon fill="black" stroke="black" points="889.17,-241.03 887.51,-251.5 895.34,-244.35 889.17,-241.03"/>
<text text-anchor="middle" x="916.33" y="-217.7" font-family="Times New Roman,serif" font-size="14.00">is a</text>
</g>
<!-- node0027 -->
<g id="node28" class="node">
<title>node0027</title>
<ellipse fill="none" stroke="black" cx="1026" cy="-160.5" rx="36" ry="36"/>
<text text-anchor="middle" x="1026" y="-156.62" font-family="Times New Roman,serif" font-size="10.00">VehicleCargo</text>
</g>
<!-- node0027&#45;&gt;node0010 -->
<g id="edge27" class="edge">
<title>node0027&#45;&gt;node0010</title>
<path fill="none" stroke="black" d="M1052.35,-185.41C1073.44,-204.55 1103.2,-231.56 1126.25,-252.46"/>
<polygon fill="black" stroke="black" points="1123.84,-255.01 1133.6,-259.13 1128.54,-249.82 1123.84,-255.01"/>
<text text-anchor="middle" x="1110.96" y="-217.7" font-family="Times New Roman,serif" font-size="14.00">is a</text>
</g>
<!-- node0028 -->
<g id="node29" class="node">
<title>node0028</title>
<ellipse fill="none" stroke="black" cx="1116" cy="-160.5" rx="36" ry="36"/>
<text text-anchor="middle" x="1116" y="-156.62" font-family="Times New Roman,serif" font-size="10.00">VehiclePassengers</text>
</g>
<!-- node0028&#45;&gt;node0010 -->
<g id="edge28" class="edge">
<title>node0028&#45;&gt;node0010</title>
<path fill="none" stroke="black" d="M1128.18,-194.65C1133.33,-208.68 1139.4,-225.21 1144.92,-240.22"/>
<polygon fill="black" stroke="black" points="1141.56,-241.22 1148.29,-249.4 1148.13,-238.81 1141.56,-241.22"/>
<text text-anchor="middle" x="1150.57" y="-217.7" font-family="Times New Roman,serif" font-size="14.00">is a</text>
</g>
<!-- node0029 -->
<g id="node30" class="node">
<title>node0029</title>
<ellipse fill="none" stroke="black" cx="1206" cy="-160.5" rx="36" ry="36"/>
<text text-anchor="middle" x="1206" y="-156.62" font-family="Times New Roman,serif" font-size="10.00">VehicleComponents</text>
</g>
<!-- node0029&#45;&gt;node0010 -->
<g id="edge29" class="edge">
<title>node0029&#45;&gt;node0010</title>
<path fill="none" stroke="black" d="M1193.82,-194.65C1188.67,-208.68 1182.6,-225.21 1177.08,-240.22"/>
<polygon fill="black" stroke="black" points="1173.87,-238.81 1173.71,-249.4 1180.44,-241.22 1173.87,-238.81"/>
<text text-anchor="middle" x="1195.57" y="-217.7" font-family="Times New Roman,serif" font-size="14.00">is a</text>
</g>
<!-- node0030 -->
<g id="node31" class="node">
<title>node0030</title>
<ellipse fill="none" stroke="black" cx="1296" cy="-160.5" rx="36" ry="36"/>
<text text-anchor="middle" x="1296" y="-156.62" font-family="Times New Roman,serif" font-size="10.00">IncludedLanes</text>
</g>
<!-- node0030&#45;&gt;node0010 -->
<g id="edge30" class="edge">
<title>node0030&#45;&gt;node0010</title>
<path fill="none" stroke="black" d="M1269.65,-185.41C1248.56,-204.55 1218.8,-231.56 1195.75,-252.46"/>
<polygon fill="black" stroke="black" points="1193.46,-249.82 1188.4,-259.13 1198.16,-255.01 1193.46,-249.82"/>
<text text-anchor="middle" x="1245.96" y="-217.7" font-family="Times New Roman,serif" font-size="14.00">is a</text>
</g>
<!-- node0031 -->
<g id="node32" class="node">
<title>node0031</title>
<ellipse fill="none" stroke="black" cx="1386" cy="-160.5" rx="36" ry="36"/>
<text text-anchor="middle" x="1386" y="-156.62" font-family="Times New Roman,serif" font-size="10.00">IncludedFacilities</text>
</g>
<!-- node0031&#45;&gt;node0010 -->
<g id="edge31" class="edge">
<title>node0031&#45;&gt;node0010</title>
<path fill="none" stroke="black" d="M1358.57,-184.28C1352.91,-188.56 1346.88,-192.84 1341,-196.5 1296.57,-224.16 1242.1,-249.56 1204.8,-265.79"/>
<polygon fill="black" stroke="black" points="1203.47,-262.55 1195.67,-269.72 1206.24,-268.98 1203.47,-262.55"/>
<text text-anchor="middle" x="1317.32" y="-217.7" font-family="Times New Roman,serif" font-size="14.00">is a</text>
</g>
<!-- node0032 -->
<g id="node33" class="node">
<title>node0032</title>
<ellipse fill="none" stroke="black" cx="1476" cy="-160.5" rx="36" ry="36"/>
<text text-anchor="middle" x="1476" y="-156.62" font-family="Times New Roman,serif" font-size="10.00">AffectedStates</text>
</g>
<!-- node0032&#45;&gt;node0011 -->
<g id="edge32" class="edge">
<title>node0032&#45;&gt;node0011</title>
<path fill="none" stroke="black" d="M1454.9,-190.22C1442.6,-206.96 1426.94,-228.27 1413.67,-246.34"/>
<polygon fill="black" stroke="black" points="1410.97,-244.11 1407.86,-254.24 1416.61,-248.25 1410.97,-244.11"/>
<text text-anchor="middle" x="1445.76" y="-217.7" font-family="Times New Roman,serif" font-size="14.00">is a</text>
</g>
<!-- node0033 -->
<g id="node34" class="node">
<title>node0033</title>
<ellipse fill="none" stroke="black" cx="1566" cy="-160.5" rx="36" ry="36"/>
<text text-anchor="middle" x="1566" y="-156.62" font-family="Times New Roman,serif" font-size="10.00">HazardStates</text>
</g>
<!-- node0033&#45;&gt;node0011 -->
<g id="edge33" class="edge">
<title>node0033&#45;&gt;node0011</title>
<path fill="none" stroke="black" d="M1538.34,-183.93C1532.7,-188.24 1526.74,-192.62 1521,-196.5 1482.64,-222.44 1469.36,-223.06 1431,-249 1428.31,-250.82 1425.57,-252.75 1422.84,-254.73"/>
<polygon fill="black" stroke="black" points="1420.8,-251.88 1414.87,-260.66 1424.98,-257.49 1420.8,-251.88"/>
<text text-anchor="middle" x="1499.61" y="-217.7" font-family="Times New Roman,serif" font-size="14.00">is a</text>
</g>
<!-- node0034 -->
<g id="node35" class="node">
<title>node0034</title>
<ellipse fill="none" stroke="black" cx="1656" cy="-160.5" rx="36" ry="36"/>
<text text-anchor="middle" x="1656" y="-156.62" font-family="Times New Roman,serif" font-size="10.00">ResponseStates</text>
</g>
<!-- node0034&#45;&gt;node0011 -->
<g id="edge34" class="edge">
<title>node0034&#45;&gt;node0011</title>
<path fill="none" stroke="black" d="M1628.88,-184.82C1623.2,-189.06 1617.08,-193.18 1611,-196.5 1570.47,-218.63 1557.41,-218.36 1513,-231 1477.11,-241.21 1464.78,-233.16 1431,-249 1427.87,-250.47 1424.77,-252.18 1421.73,-254.05"/>
<polygon fill="black" stroke="black" points="1419.88,-251.07 1413.58,-259.59 1423.82,-256.86 1419.88,-251.07"/>
<text text-anchor="middle" x="1581.16" y="-217.7" font-family="Times New Roman,serif" font-size="14.00">is a</text>
</g>
<!-- node0035 -->
<g id="node36" class="node">
<title>node0035</title>
<ellipse fill="none" stroke="black" cx="1746" cy="-160.5" rx="36" ry="36"/>
<text text-anchor="middle" x="1746" y="-156.62" font-family="Times New Roman,serif" font-size="10.00">idleState</text>
</g>
<!-- node0035&#45;&gt;node0012 -->
<g id="edge35" class="edge">
<title>node0035&#45;&gt;node0012</title>
<path fill="none" stroke="black" d="M1718.95,-184.94C1713.26,-189.16 1707.12,-193.25 1701,-196.5 1657.24,-219.72 1642.66,-217.47 1595,-231 1562.44,-240.24 1551.48,-234.28 1521,-249 1517.89,-250.5 1514.8,-252.24 1511.76,-254.13"/>
<polygon fill="black" stroke="black" points="1509.91,-251.16 1503.63,-259.7 1513.86,-256.94 1509.91,-251.16"/>
<text text-anchor="middle" x="1667.88" y="-217.7" font-family="Times New Roman,serif" font-size="14.00">is a</text>
</g>
<!-- node0036 -->
<g id="node37" class="node">
<title>node0036</title>
<ellipse fill="none" stroke="black" cx="1836" cy="-160.5" rx="36" ry="36"/>
<text text-anchor="middle" x="1836" y="-156.62" font-family="Times New Roman,serif" font-size="10.00">implementState</text>
</g>
<!-- node0036&#45;&gt;node0012 -->
<g id="edge36" class="edge">
<title>node0036&#45;&gt;node0012</title>
<path fill="none" stroke="black" d="M1808.97,-184.99C1803.28,-189.21 1797.14,-193.29 1791,-196.5 1745.61,-220.27 1731.13,-220.42 1681,-231 1610.98,-245.78 1587.28,-222.02 1521,-249 1517.8,-250.3 1514.64,-251.9 1511.57,-253.68"/>
<polygon fill="black" stroke="black" points="1509.79,-250.66 1503.36,-259.08 1513.64,-256.51 1509.79,-250.66"/>
<text text-anchor="middle" x="1760.27" y="-217.7" font-family="Times New Roman,serif" font-size="14.00">is a</text>
</g>
<!-- node0037 -->
<g id="node38" class="node">
<title>node0037</title>
<ellipse fill="none" stroke="black" cx="486" cy="-36" rx="36" ry="36"/>
<text text-anchor="middle" x="486" y="-32.12" font-family="Times New Roman,serif" font-size="10.00">3</text>
</g>
<!-- node0037&#45;&gt;node0023 -->
<g id="edge37" class="edge">
<title>node0037&#45;&gt;node0023</title>
<path fill="none" stroke="black" d="M513.66,-59.43C519.3,-63.74 525.26,-68.12 531,-72 569.36,-97.94 582.64,-98.56 621,-124.5 623.69,-126.32 626.43,-128.25 629.16,-130.23"/>
<polygon fill="black" stroke="black" points="627.02,-132.99 637.13,-136.16 631.2,-127.38 627.02,-132.99"/>
<text text-anchor="middle" x="599.61" y="-93.2" font-family="Times New Roman,serif" font-size="14.00">is a</text>
</g>
<!-- node0038 -->
<g id="node39" class="node">
<title>node0038</title>
<ellipse fill="none" stroke="black" cx="576" cy="-36" rx="36" ry="36"/>
<text text-anchor="middle" x="576" y="-32.12" font-family="Times New Roman,serif" font-size="10.00">Road</text>
</g>
<!-- node0038&#45;&gt;node0023 -->
<g id="edge38" class="edge">
<title>node0038&#45;&gt;node0023</title>
<path fill="none" stroke="black" d="M597.1,-65.72C609.4,-82.46 625.06,-103.77 638.33,-121.84"/>
<polygon fill="black" stroke="black" points="635.39,-123.75 644.14,-129.74 641.03,-119.61 635.39,-123.75"/>
<text text-anchor="middle" x="635.76" y="-93.2" font-family="Times New Roman,serif" font-size="14.00">is a</text>
</g>
<!-- node0039 -->
<g id="node40" class="node">
<title>node0039</title>
<ellipse fill="none" stroke="black" cx="666" cy="-36" rx="36" ry="36"/>
<text text-anchor="middle" x="666" y="-32.12" font-family="Times New Roman,serif" font-size="10.00">HazardVehicle</text>
</g>
<!-- node0039&#45;&gt;node0023 -->
<g id="edge39" class="edge">
<title>node0039&#45;&gt;node0023</title>
<path fill="none" stroke="black" d="M666,-72.43C666,-85 666,-99.35 666,-112.72"/>
<polygon fill="black" stroke="black" points="662.5,-112.63 666,-122.63 669.5,-112.63 662.5,-112.63"/>
<text text-anchor="middle" x="675.38" y="-93.2" font-family="Times New Roman,serif" font-size="14.00">is a</text>
</g>
<!-- node0040 -->
<g id="node41" class="node">
<title>node0040</title>
<ellipse fill="none" stroke="black" cx="756" cy="-36" rx="36" ry="36"/>
<text text-anchor="middle" x="756" y="-32.12" font-family="Times New Roman,serif" font-size="10.00">6</text>
</g>
<!-- node0040&#45;&gt;node0024 -->
<g id="edge40" class="edge">
<title>node0040&#45;&gt;node0024</title>
<path fill="none" stroke="black" d="M756,-72.43C756,-85 756,-99.35 756,-112.72"/>
<polygon fill="black" stroke="black" points="752.5,-112.63 756,-122.63 759.5,-112.63 752.5,-112.63"/>
<text text-anchor="middle" x="765.38" y="-93.2" font-family="Times New Roman,serif" font-size="14.00">is a</text>
</g>
<!-- node0041 -->
<g id="node42" class="node">
<title>node0041</title>
<ellipse fill="none" stroke="black" cx="846" cy="-36" rx="36" ry="36"/>
<text text-anchor="middle" x="846" y="-32.12" font-family="Times New Roman,serif" font-size="10.00">5</text>
</g>
<!-- node0041&#45;&gt;node0025 -->
<g id="edge41" class="edge">
<title>node0041&#45;&gt;node0025</title>
<path fill="none" stroke="black" d="M846,-72.43C846,-85 846,-99.35 846,-112.72"/>
<polygon fill="black" stroke="black" points="842.5,-112.63 846,-122.63 849.5,-112.63 842.5,-112.63"/>
<text text-anchor="middle" x="855.38" y="-93.2" font-family="Times New Roman,serif" font-size="14.00">is a</text>
</g>
<!-- node0042 -->
<g id="node43" class="node">
<title>node0042</title>
<ellipse fill="none" stroke="black" cx="936" cy="-36" rx="36" ry="36"/>
<text text-anchor="middle" x="936" y="-32.12" font-family="Times New Roman,serif" font-size="10.00">7</text>
</g>
<!-- node0042&#45;&gt;node0026 -->
<g id="edge42" class="edge">
<title>node0042&#45;&gt;node0026</title>
<path fill="none" stroke="black" d="M936,-72.43C936,-85 936,-99.35 936,-112.72"/>
<polygon fill="black" stroke="black" points="932.5,-112.63 936,-122.63 939.5,-112.63 932.5,-112.63"/>
<text text-anchor="middle" x="945.38" y="-93.2" font-family="Times New Roman,serif" font-size="14.00">is a</text>
</g>
<!-- node0043 -->
<g id="node44" class="node">
<title>node0043</title>
<ellipse fill="none" stroke="black" cx="1026" cy="-36" rx="36" ry="36"/>
<text text-anchor="middle" x="1026" y="-32.12" font-family="Times New Roman,serif" font-size="10.00">8</text>
</g>
<!-- node0043&#45;&gt;node0026 -->
<g id="edge43" class="edge">
<title>node0043&#45;&gt;node0026</title>
<path fill="none" stroke="black" d="M1004.9,-65.72C992.6,-82.46 976.94,-103.77 963.67,-121.84"/>
<polygon fill="black" stroke="black" points="960.97,-119.61 957.86,-129.74 966.61,-123.75 960.97,-119.61"/>
<text text-anchor="middle" x="995.76" y="-93.2" font-family="Times New Roman,serif" font-size="14.00">is a</text>
</g>
<!-- node0044 -->
<g id="node45" class="node">
<title>node0044</title>
<ellipse fill="none" stroke="black" cx="1116" cy="-36" rx="36" ry="36"/>
<text text-anchor="middle" x="1116" y="-32.12" font-family="Times New Roman,serif" font-size="10.00">ResponseResource</text>
</g>
<!-- node0044&#45;&gt;node0026 -->
<g id="edge44" class="edge">
<title>node0044&#45;&gt;node0026</title>
<path fill="none" stroke="black" d="M1088.34,-59.43C1082.7,-63.74 1076.74,-68.12 1071,-72 1032.64,-97.94 1019.36,-98.56 981,-124.5 978.31,-126.32 975.57,-128.25 972.84,-130.23"/>
<polygon fill="black" stroke="black" points="970.8,-127.38 964.87,-136.16 974.98,-132.99 970.8,-127.38"/>
<text text-anchor="middle" x="1049.61" y="-93.2" font-family="Times New Roman,serif" font-size="14.00">is a</text>
</g>
<!-- node0045 -->
<g id="node46" class="node">
<title>node0045</title>
<ellipse fill="none" stroke="black" cx="1206" cy="-36" rx="36" ry="36"/>
<text text-anchor="middle" x="1206" y="-32.12" font-family="Times New Roman,serif" font-size="10.00">ResponseAction</text>
</g>
<!-- node0045&#45;&gt;node0026 -->
<g id="edge45" class="edge">
<title>node0045&#45;&gt;node0026</title>
<path fill="none" stroke="black" d="M1178.88,-60.32C1173.2,-64.56 1167.08,-68.68 1161,-72 1120.47,-94.13 1107.41,-93.86 1063,-106.5 1027.11,-116.71 1014.78,-108.66 981,-124.5 977.87,-125.97 974.77,-127.68 971.73,-129.55"/>
<polygon fill="black" stroke="black" points="969.88,-126.57 963.58,-135.09 973.82,-132.36 969.88,-126.57"/>
<text text-anchor="middle" x="1131.16" y="-93.2" font-family="Times New Roman,serif" font-size="14.00">is a</text>
</g>
<!-- node0046 -->
<g id="node47" class="node">
<title>node0046</title>
<ellipse fill="none" stroke="black" cx="1296" cy="-36" rx="36" ry="36"/>
<text text-anchor="middle" x="1296" y="-32.12" font-family="Times New Roman,serif" font-size="10.00">CollidedState</text>
</g>
<!-- node0046&#45;&gt;node0032 -->
<g id="edge46" class="edge">
<title>node0046&#45;&gt;node0032</title>
<path fill="none" stroke="black" d="M1323.66,-59.43C1329.3,-63.74 1335.26,-68.12 1341,-72 1379.36,-97.94 1392.64,-98.56 1431,-124.5 1433.69,-126.32 1436.43,-128.25 1439.16,-130.23"/>
<polygon fill="black" stroke="black" points="1437.02,-132.99 1447.13,-136.16 1441.2,-127.38 1437.02,-132.99"/>
<text text-anchor="middle" x="1409.61" y="-93.2" font-family="Times New Roman,serif" font-size="14.00">is a</text>
</g>
<!-- node0047 -->
<g id="node48" class="node">
<title>node0047</title>
<ellipse fill="none" stroke="black" cx="1386" cy="-36" rx="36" ry="36"/>
<text text-anchor="middle" x="1386" y="-32.12" font-family="Times New Roman,serif" font-size="10.00">ExplodeState</text>
</g>
<!-- node0047&#45;&gt;node0032 -->
<g id="edge47" class="edge">
<title>node0047&#45;&gt;node0032</title>
<path fill="none" stroke="black" d="M1407.1,-65.72C1419.4,-82.46 1435.06,-103.77 1448.33,-121.84"/>
<polygon fill="black" stroke="black" points="1445.39,-123.75 1454.14,-129.74 1451.03,-119.61 1445.39,-123.75"/>
<text text-anchor="middle" x="1445.76" y="-93.2" font-family="Times New Roman,serif" font-size="14.00">is a</text>
</g>
<!-- node0048 -->
<g id="node49" class="node">
<title>node0048</title>
<ellipse fill="none" stroke="black" cx="1476" cy="-36" rx="36" ry="36"/>
<text text-anchor="middle" x="1476" y="-32.12" font-family="Times New Roman,serif" font-size="10.00">DrivingState</text>
</g>
<!-- node0048&#45;&gt;node0032 -->
<g id="edge48" class="edge">
<title>node0048&#45;&gt;node0032</title>
<path fill="none" stroke="black" d="M1476,-72.43C1476,-85 1476,-99.35 1476,-112.72"/>
<polygon fill="black" stroke="black" points="1472.5,-112.63 1476,-122.63 1479.5,-112.63 1472.5,-112.63"/>
<text text-anchor="middle" x="1485.38" y="-93.2" font-family="Times New Roman,serif" font-size="14.00">is a</text>
</g>
<!-- node0049 -->
<g id="node50" class="node">
<title>node0049</title>
<ellipse fill="none" stroke="black" cx="1566" cy="-36" rx="36" ry="36"/>
<text text-anchor="middle" x="1566" y="-32.12" font-family="Times New Roman,serif" font-size="10.00">DriveState</text>
</g>
<!-- node0049&#45;&gt;node0033 -->
<g id="edge49" class="edge">
<title>node0049&#45;&gt;node0033</title>
<path fill="none" stroke="black" d="M1566,-72.43C1566,-85 1566,-99.35 1566,-112.72"/>
<polygon fill="black" stroke="black" points="1562.5,-112.63 1566,-122.63 1569.5,-112.63 1562.5,-112.63"/>
<text text-anchor="middle" x="1575.38" y="-93.2" font-family="Times New Roman,serif" font-size="14.00">is a</text>
</g>
<!-- node0050 -->
<g id="node51" class="node">
<title>node0050</title>
<ellipse fill="none" stroke="black" cx="1656" cy="-36" rx="36" ry="36"/>
<text text-anchor="middle" x="1656" y="-32.12" font-family="Times New Roman,serif" font-size="10.00">CollideState</text>
</g>
<!-- node0050&#45;&gt;node0033 -->
<g id="edge50" class="edge">
<title>node0050&#45;&gt;node0033</title>
<path fill="none" stroke="black" d="M1634.9,-65.72C1622.6,-82.46 1606.94,-103.77 1593.67,-121.84"/>
<polygon fill="black" stroke="black" points="1590.97,-119.61 1587.86,-129.74 1596.61,-123.75 1590.97,-119.61"/>
<text text-anchor="middle" x="1625.76" y="-93.2" font-family="Times New Roman,serif" font-size="14.00">is a</text>
</g>
<!-- node0051 -->
<g id="node52" class="node">
<title>node0051</title>
<ellipse fill="none" stroke="black" cx="1746" cy="-36" rx="36" ry="36"/>
<text text-anchor="middle" x="1746" y="-32.12" font-family="Times New Roman,serif" font-size="10.00">SpillState</text>
</g>
<!-- node0051&#45;&gt;node0033 -->
<g id="edge51" class="edge">
<title>node0051&#45;&gt;node0033</title>
<path fill="none" stroke="black" d="M1718.34,-59.43C1712.7,-63.74 1706.74,-68.12 1701,-72 1662.64,-97.94 1649.36,-98.56 1611,-124.5 1608.31,-126.32 1605.57,-128.25 1602.84,-130.23"/>
<polygon fill="black" stroke="black" points="1600.8,-127.38 1594.87,-136.16 1604.98,-132.99 1600.8,-127.38"/>
<text text-anchor="middle" x="1679.61" y="-93.2" font-family="Times New Roman,serif" font-size="14.00">is a</text>
</g>
</g>
</svg>
