<?xml version="1.0" encoding="UTF-8" standalone="no"?>
<!DOCTYPE svg PUBLIC "-//W3C//DTD SVG 1.1//EN"
 "http://www.w3.org/Graphics/SVG/1.1/DTD/svg11.dtd">
<!-- Generated by graphviz version 12.1.2 (20240928.0832)
 -->
<!-- Title: G Pages: 1 -->
<svg width="2285pt" height="454pt"
 viewBox="0.00 0.00 2285.00 453.50" xmlns="http://www.w3.org/2000/svg" xmlns:xlink="http://www.w3.org/1999/xlink">
<g id="graph0" class="graph" transform="scale(1 1) rotate(0) translate(4 449.5)">
<title>G</title>
<polygon fill="white" stroke="none" points="-4,4 -4,-449.5 2281,-449.5 2281,4 -4,4"/>
<!-- node0000 -->
<g id="node1" class="node">
<title>node0000</title>
<ellipse fill="none" stroke="black" cx="1161" cy="-409.5" rx="36" ry="36"/>
<text text-anchor="middle" x="1161" y="-405.62" font-family="Times New Roman,serif" font-size="10.00">Thing</text>
</g>
<!-- node0001 -->
<g id="node2" class="node">
<title>node0001</title>
<ellipse fill="none" stroke="black" cx="126" cy="-285" rx="36" ry="36"/>
<text text-anchor="middle" x="126" y="-281.12" font-family="Times New Roman,serif" font-size="10.00">Emergency</text>
</g>
<!-- node0001&#45;&gt;node0000 -->
<g id="edge1" class="edge">
<title>node0001&#45;&gt;node0000</title>
<path fill="none" stroke="black" d="M152.13,-310C157.99,-314.29 164.42,-318.26 171,-321 281.14,-366.91 318.54,-343.47 437.25,-355.5 691.74,-381.29 997.78,-399.51 1113.55,-405.94"/>
<polygon fill="black" stroke="black" points="1113.1,-409.42 1123.28,-406.48 1113.49,-402.43 1113.1,-409.42"/>
<text text-anchor="middle" x="446.62" y="-342.2" font-family="Times New Roman,serif" font-size="14.00">is a</text>
</g>
<!-- node0002 -->
<g id="node3" class="node">
<title>node0002</title>
<ellipse fill="none" stroke="black" cx="216" cy="-285" rx="36" ry="36"/>
<text text-anchor="middle" x="216" y="-281.12" font-family="Times New Roman,serif" font-size="10.00">aidStates</text>
</g>
<!-- node0002&#45;&gt;node0000 -->
<g id="edge2" class="edge">
<title>node0002&#45;&gt;node0000</title>
<path fill="none" stroke="black" d="M250.37,-296.4C277.47,-304.23 316.34,-314.67 351,-321 637.77,-373.37 987.8,-398.13 1113.36,-405.79"/>
<polygon fill="black" stroke="black" points="1113.1,-409.28 1123.29,-406.39 1113.52,-402.3 1113.1,-409.28"/>
<text text-anchor="middle" x="581.4" y="-342.2" font-family="Times New Roman,serif" font-size="14.00">is a</text>
</g>
<!-- node0003 -->
<g id="node4" class="node">
<title>node0003</title>
<ellipse fill="none" stroke="black" cx="396" cy="-285" rx="36" ry="36"/>
<text text-anchor="middle" x="396" y="-281.12" font-family="Times New Roman,serif" font-size="10.00">ResilienceInfluentialFactors</text>
</g>
<!-- node0003&#45;&gt;node0000 -->
<g id="edge3" class="edge">
<title>node0003&#45;&gt;node0000</title>
<path fill="none" stroke="black" d="M431.87,-291.74C556.86,-311.76 973.19,-378.43 1114,-400.97"/>
<polygon fill="black" stroke="black" points="1113.28,-404.4 1123.71,-402.53 1114.39,-397.49 1113.28,-404.4"/>
<text text-anchor="middle" x="833.68" y="-342.2" font-family="Times New Roman,serif" font-size="14.00">is a</text>
</g>
<!-- node0004 -->
<g id="node5" class="node">
<title>node0004</title>
<ellipse fill="none" stroke="black" cx="711" cy="-285" rx="36" ry="36"/>
<text text-anchor="middle" x="711" y="-281.12" font-family="Times New Roman,serif" font-size="10.00">Scenario</text>
</g>
<!-- node0004&#45;&gt;node0000 -->
<g id="edge4" class="edge">
<title>node0004&#45;&gt;node0000</title>
<path fill="none" stroke="black" d="M745.45,-296.57C791.51,-310.59 875.75,-335.86 948.25,-355.5 1005.42,-370.99 1071.68,-387.23 1114.87,-397.58"/>
<polygon fill="black" stroke="black" points="1113.86,-400.94 1124.4,-399.86 1115.49,-394.13 1113.86,-400.94"/>
<text text-anchor="middle" x="957.62" y="-342.2" font-family="Times New Roman,serif" font-size="14.00">is a</text>
</g>
<!-- node0005 -->
<g id="node6" class="node">
<title>node0005</title>
<ellipse fill="none" stroke="black" cx="891" cy="-285" rx="36" ry="36"/>
<text text-anchor="middle" x="891" y="-281.12" font-family="Times New Roman,serif" font-size="10.00">InvolvedScenario</text>
</g>
<!-- node0005&#45;&gt;node0000 -->
<g id="edge5" class="edge">
<title>node0005&#45;&gt;node0000</title>
<path fill="none" stroke="black" d="M918.2,-309.17C923.88,-313.42 929.97,-317.58 936,-321 994.77,-354.34 1068.75,-380.38 1115.47,-395.11"/>
<polygon fill="black" stroke="black" points="1114.42,-398.44 1125,-398.06 1116.49,-391.76 1114.42,-398.44"/>
<text text-anchor="middle" x="1010.73" y="-342.2" font-family="Times New Roman,serif" font-size="14.00">is a</text>
</g>
<!-- node0006 -->
<g id="node7" class="node">
<title>node0006</title>
<ellipse fill="none" stroke="black" cx="981" cy="-285" rx="36" ry="36"/>
<text text-anchor="middle" x="981" y="-281.12" font-family="Times New Roman,serif" font-size="10.00">ElementCompositions</text>
</g>
<!-- node0006&#45;&gt;node0000 -->
<g id="edge6" class="edge">
<title>node0006&#45;&gt;node0000</title>
<path fill="none" stroke="black" d="M1008.8,-308.22C1014.43,-312.55 1020.35,-316.99 1026,-321 1057.22,-343.2 1093.74,-366.73 1120.92,-383.79"/>
<polygon fill="black" stroke="black" points="1118.86,-386.63 1129.2,-388.96 1122.57,-380.7 1118.86,-386.63"/>
<text text-anchor="middle" x="1082.9" y="-342.2" font-family="Times New Roman,serif" font-size="14.00">is a</text>
</g>
<!-- node0007 -->
<g id="node8" class="node">
<title>node0007</title>
<ellipse fill="none" stroke="black" cx="1071" cy="-285" rx="36" ry="36"/>
<text text-anchor="middle" x="1071" y="-281.12" font-family="Times New Roman,serif" font-size="10.00">rescueStates</text>
</g>
<!-- node0007&#45;&gt;node0000 -->
<g id="edge7" class="edge">
<title>node0007&#45;&gt;node0000</title>
<path fill="none" stroke="black" d="M1092.1,-314.72C1104.4,-331.46 1120.06,-352.77 1133.33,-370.84"/>
<polygon fill="black" stroke="black" points="1130.39,-372.75 1139.14,-378.74 1136.03,-368.61 1130.39,-372.75"/>
<text text-anchor="middle" x="1130.76" y="-342.2" font-family="Times New Roman,serif" font-size="14.00">is a</text>
</g>
<!-- node0008 -->
<g id="node9" class="node">
<title>node0008</title>
<ellipse fill="none" stroke="black" cx="1161" cy="-285" rx="36" ry="36"/>
<text text-anchor="middle" x="1161" y="-281.12" font-family="Times New Roman,serif" font-size="10.00">InvolvedScenarioElement</text>
</g>
<!-- node0008&#45;&gt;node0000 -->
<g id="edge8" class="edge">
<title>node0008&#45;&gt;node0000</title>
<path fill="none" stroke="black" d="M1161,-321.43C1161,-334 1161,-348.35 1161,-361.72"/>
<polygon fill="black" stroke="black" points="1157.5,-361.63 1161,-371.63 1164.5,-361.63 1157.5,-361.63"/>
<text text-anchor="middle" x="1170.38" y="-342.2" font-family="Times New Roman,serif" font-size="14.00">is a</text>
</g>
<!-- node0009 -->
<g id="node10" class="node">
<title>node0009</title>
<ellipse fill="none" stroke="black" cx="1251" cy="-285" rx="36" ry="36"/>
<text text-anchor="middle" x="1251" y="-281.12" font-family="Times New Roman,serif" font-size="10.00">ScenarioResilience</text>
</g>
<!-- node0009&#45;&gt;node0000 -->
<g id="edge9" class="edge">
<title>node0009&#45;&gt;node0000</title>
<path fill="none" stroke="black" d="M1229.9,-314.72C1217.6,-331.46 1201.94,-352.77 1188.67,-370.84"/>
<polygon fill="black" stroke="black" points="1185.97,-368.61 1182.86,-378.74 1191.61,-372.75 1185.97,-368.61"/>
<text text-anchor="middle" x="1220.76" y="-342.2" font-family="Times New Roman,serif" font-size="14.00">is a</text>
</g>
<!-- node0010 -->
<g id="node11" class="node">
<title>node0010</title>
<ellipse fill="none" stroke="black" cx="1341" cy="-285" rx="36" ry="36"/>
<text text-anchor="middle" x="1341" y="-281.12" font-family="Times New Roman,serif" font-size="10.00">169</text>
</g>
<!-- node0010&#45;&gt;node0000 -->
<g id="edge10" class="edge">
<title>node0010&#45;&gt;node0000</title>
<path fill="none" stroke="black" d="M1313.2,-308.22C1307.57,-312.55 1301.65,-316.99 1296,-321 1264.78,-343.2 1228.26,-366.73 1201.08,-383.79"/>
<polygon fill="black" stroke="black" points="1199.43,-380.7 1192.8,-388.96 1203.14,-386.63 1199.43,-380.7"/>
<text text-anchor="middle" x="1276.38" y="-342.2" font-family="Times New Roman,serif" font-size="14.00">is a</text>
</g>
<!-- node0011 -->
<g id="node12" class="node">
<title>node0011</title>
<ellipse fill="none" stroke="black" cx="1431" cy="-285" rx="36" ry="36"/>
<text text-anchor="middle" x="1431" y="-281.12" font-family="Times New Roman,serif" font-size="10.00">ScenarioElement</text>
</g>
<!-- node0011&#45;&gt;node0000 -->
<g id="edge11" class="edge">
<title>node0011&#45;&gt;node0000</title>
<path fill="none" stroke="black" d="M1403.8,-309.17C1398.12,-313.42 1392.03,-317.58 1386,-321 1327.23,-354.34 1253.25,-380.38 1206.53,-395.11"/>
<polygon fill="black" stroke="black" points="1205.51,-391.76 1197,-398.06 1207.58,-398.44 1205.51,-391.76"/>
<text text-anchor="middle" x="1360.41" y="-342.2" font-family="Times New Roman,serif" font-size="14.00">is a</text>
</g>
<!-- node0012 -->
<g id="node13" class="node">
<title>node0012</title>
<ellipse fill="none" stroke="black" cx="1521" cy="-285" rx="36" ry="36"/>
<text text-anchor="middle" x="1521" y="-281.12" font-family="Times New Roman,serif" font-size="10.00">ElementState</text>
</g>
<!-- node0012&#45;&gt;node0000 -->
<g id="edge12" class="edge">
<title>node0012&#45;&gt;node0000</title>
<path fill="none" stroke="black" d="M1493.92,-309.38C1488.23,-313.61 1482.1,-317.72 1476,-321 1388.01,-368.34 1272.08,-391.95 1208.24,-402.08"/>
<polygon fill="black" stroke="black" points="1207.79,-398.61 1198.44,-403.59 1208.86,-405.53 1207.79,-398.61"/>
<text text-anchor="middle" x="1445.46" y="-342.2" font-family="Times New Roman,serif" font-size="14.00">is a</text>
</g>
<!-- node0013 -->
<g id="node14" class="node">
<title>node0013</title>
<ellipse fill="none" stroke="black" cx="1611" cy="-285" rx="36" ry="36"/>
<text text-anchor="middle" x="1611" y="-281.12" font-family="Times New Roman,serif" font-size="10.00">towStates</text>
</g>
<!-- node0013&#45;&gt;node0000 -->
<g id="edge13" class="edge">
<title>node0013&#45;&gt;node0000</title>
<path fill="none" stroke="black" d="M1583.95,-309.45C1578.26,-313.68 1572.12,-317.76 1566,-321 1447.75,-383.54 1287.6,-401.39 1208.81,-406.48"/>
<polygon fill="black" stroke="black" points="1208.62,-402.98 1198.85,-407.07 1209.04,-409.97 1208.62,-402.98"/>
<text text-anchor="middle" x="1534.95" y="-342.2" font-family="Times New Roman,serif" font-size="14.00">is a</text>
</g>
<!-- node0014 -->
<g id="node15" class="node">
<title>node0014</title>
<ellipse fill="none" stroke="black" cx="1701" cy="-285" rx="36" ry="36"/>
<text text-anchor="middle" x="1701" y="-281.12" font-family="Times New Roman,serif" font-size="10.00">EmergencyPhase</text>
</g>
<!-- node0014&#45;&gt;node0000 -->
<g id="edge14" class="edge">
<title>node0014&#45;&gt;node0000</title>
<path fill="none" stroke="black" d="M1673.96,-309.46C1668.27,-313.69 1662.13,-317.77 1656,-321 1611.42,-344.5 1597.15,-344.37 1548,-355.5 1427.14,-382.86 1281.65,-398.17 1208.26,-404.68"/>
<polygon fill="black" stroke="black" points="1208.29,-401.17 1198.63,-405.52 1208.89,-408.14 1208.29,-401.17"/>
<text text-anchor="middle" x="1624.11" y="-342.2" font-family="Times New Roman,serif" font-size="14.00">is a</text>
</g>
<!-- node0015 -->
<g id="node16" class="node">
<title>node0015</title>
<ellipse fill="none" stroke="black" cx="1791" cy="-285" rx="36" ry="36"/>
<text text-anchor="middle" x="1791" y="-281.12" font-family="Times New Roman,serif" font-size="10.00">firefightingStates</text>
</g>
<!-- node0015&#45;&gt;node0000 -->
<g id="edge15" class="edge">
<title>node0015&#45;&gt;node0000</title>
<path fill="none" stroke="black" d="M1763.97,-309.48C1758.28,-313.7 1752.13,-317.78 1746,-321 1701.02,-344.64 1686.71,-344.97 1637,-355.5 1482.4,-388.24 1294.99,-401.58 1208.7,-406.28"/>
<polygon fill="black" stroke="black" points="1208.52,-402.78 1198.72,-406.81 1208.89,-409.77 1208.52,-402.78"/>
<text text-anchor="middle" x="1715.64" y="-342.2" font-family="Times New Roman,serif" font-size="14.00">is a</text>
</g>
<!-- node0016 -->
<g id="node17" class="node">
<title>node0016</title>
<ellipse fill="none" stroke="black" cx="36" cy="-160.5" rx="36" ry="36"/>
<text text-anchor="middle" x="36" y="-156.62" font-family="Times New Roman,serif" font-size="10.00">idleState</text>
</g>
<!-- node0016&#45;&gt;node0002 -->
<g id="edge16" class="edge">
<title>node0016&#45;&gt;node0002</title>
<path fill="none" stroke="black" d="M63.66,-183.93C69.3,-188.24 75.26,-192.62 81,-196.5 100.18,-209.47 151.82,-236.03 171,-249 173.69,-250.82 176.43,-252.75 179.16,-254.73"/>
<polygon fill="black" stroke="black" points="177.02,-257.49 187.13,-260.66 181.2,-251.88 177.02,-257.49"/>
<text text-anchor="middle" x="150.07" y="-217.7" font-family="Times New Roman,serif" font-size="14.00">is a</text>
</g>
<!-- node0017 -->
<g id="node18" class="node">
<title>node0017</title>
<ellipse fill="none" stroke="black" cx="126" cy="-160.5" rx="36" ry="36"/>
<text text-anchor="middle" x="126" y="-156.62" font-family="Times New Roman,serif" font-size="10.00">implementState</text>
</g>
<!-- node0017&#45;&gt;node0002 -->
<g id="edge17" class="edge">
<title>node0017&#45;&gt;node0002</title>
<path fill="none" stroke="black" d="M146.36,-190.76C155.14,-203.24 165.59,-217.91 175.25,-231 179.14,-236.26 183.29,-241.78 187.4,-247.18"/>
<polygon fill="black" stroke="black" points="184.45,-249.08 193.3,-254.9 190,-244.83 184.45,-249.08"/>
<text text-anchor="middle" x="184.62" y="-217.7" font-family="Times New Roman,serif" font-size="14.00">is a</text>
</g>
<!-- node0018 -->
<g id="node19" class="node">
<title>node0018</title>
<ellipse fill="none" stroke="black" cx="216" cy="-160.5" rx="36" ry="36"/>
<text text-anchor="middle" x="216" y="-156.62" font-family="Times New Roman,serif" font-size="10.00">EconomicFactors</text>
</g>
<!-- node0018&#45;&gt;node0003 -->
<g id="edge18" class="edge">
<title>node0018&#45;&gt;node0003</title>
<path fill="none" stroke="black" d="M243.8,-183.72C249.43,-188.05 255.35,-192.49 261,-196.5 292.22,-218.7 328.74,-242.23 355.92,-259.29"/>
<polygon fill="black" stroke="black" points="353.86,-262.13 364.2,-264.46 357.57,-256.2 353.86,-262.13"/>
<text text-anchor="middle" x="317.9" y="-217.7" font-family="Times New Roman,serif" font-size="14.00">is a</text>
</g>
<!-- node0019 -->
<g id="node20" class="node">
<title>node0019</title>
<ellipse fill="none" stroke="black" cx="306" cy="-160.5" rx="36" ry="36"/>
<text text-anchor="middle" x="306" y="-156.62" font-family="Times New Roman,serif" font-size="10.00">SafetyFactors</text>
</g>
<!-- node0019&#45;&gt;node0003 -->
<g id="edge19" class="edge">
<title>node0019&#45;&gt;node0003</title>
<path fill="none" stroke="black" d="M327.1,-190.22C339.4,-206.96 355.06,-228.27 368.33,-246.34"/>
<polygon fill="black" stroke="black" points="365.39,-248.25 374.14,-254.24 371.03,-244.11 365.39,-248.25"/>
<text text-anchor="middle" x="365.76" y="-217.7" font-family="Times New Roman,serif" font-size="14.00">is a</text>
</g>
<!-- node0020 -->
<g id="node21" class="node">
<title>node0020</title>
<ellipse fill="none" stroke="black" cx="396" cy="-160.5" rx="36" ry="36"/>
<text text-anchor="middle" x="396" y="-156.62" font-family="Times New Roman,serif" font-size="10.00">TimeFactors</text>
</g>
<!-- node0020&#45;&gt;node0003 -->
<g id="edge20" class="edge">
<title>node0020&#45;&gt;node0003</title>
<path fill="none" stroke="black" d="M396,-196.93C396,-209.5 396,-223.85 396,-237.22"/>
<polygon fill="black" stroke="black" points="392.5,-237.13 396,-247.13 399.5,-237.13 392.5,-237.13"/>
<text text-anchor="middle" x="405.38" y="-217.7" font-family="Times New Roman,serif" font-size="14.00">is a</text>
</g>
<!-- node0021 -->
<g id="node22" class="node">
<title>node0021</title>
<ellipse fill="none" stroke="black" cx="486" cy="-160.5" rx="36" ry="36"/>
<text text-anchor="middle" x="486" y="-156.62" font-family="Times New Roman,serif" font-size="10.00">FunctionFactors</text>
</g>
<!-- node0021&#45;&gt;node0003 -->
<g id="edge21" class="edge">
<title>node0021&#45;&gt;node0003</title>
<path fill="none" stroke="black" d="M464.9,-190.22C452.6,-206.96 436.94,-228.27 423.67,-246.34"/>
<polygon fill="black" stroke="black" points="420.97,-244.11 417.86,-254.24 426.61,-248.25 420.97,-244.11"/>
<text text-anchor="middle" x="455.76" y="-217.7" font-family="Times New Roman,serif" font-size="14.00">is a</text>
</g>
<!-- node0022 -->
<g id="node23" class="node">
<title>node0022</title>
<ellipse fill="none" stroke="black" cx="576" cy="-160.5" rx="36" ry="36"/>
<text text-anchor="middle" x="576" y="-156.62" font-family="Times New Roman,serif" font-size="10.00">RecoveryScenario</text>
</g>
<!-- node0022&#45;&gt;node0004 -->
<g id="edge22" class="edge">
<title>node0022&#45;&gt;node0004</title>
<path fill="none" stroke="black" d="M602.35,-185.41C623.44,-204.55 653.2,-231.56 676.25,-252.46"/>
<polygon fill="black" stroke="black" points="673.84,-255.01 683.6,-259.13 678.54,-249.82 673.84,-255.01"/>
<text text-anchor="middle" x="660.96" y="-217.7" font-family="Times New Roman,serif" font-size="14.00">is a</text>
</g>
<!-- node0023 -->
<g id="node24" class="node">
<title>node0023</title>
<ellipse fill="none" stroke="black" cx="666" cy="-160.5" rx="36" ry="36"/>
<text text-anchor="middle" x="666" y="-156.62" font-family="Times New Roman,serif" font-size="10.00">AbsorptionScenario</text>
</g>
<!-- node0023&#45;&gt;node0004 -->
<g id="edge23" class="edge">
<title>node0023&#45;&gt;node0004</title>
<path fill="none" stroke="black" d="M678.18,-194.65C683.33,-208.68 689.4,-225.21 694.92,-240.22"/>
<polygon fill="black" stroke="black" points="691.56,-241.22 698.29,-249.4 698.13,-238.81 691.56,-241.22"/>
<text text-anchor="middle" x="700.57" y="-217.7" font-family="Times New Roman,serif" font-size="14.00">is a</text>
</g>
<!-- node0024 -->
<g id="node25" class="node">
<title>node0024</title>
<ellipse fill="none" stroke="black" cx="756" cy="-160.5" rx="36" ry="36"/>
<text text-anchor="middle" x="756" y="-156.62" font-family="Times New Roman,serif" font-size="10.00">AdaptionScenario</text>
</g>
<!-- node0024&#45;&gt;node0004 -->
<g id="edge24" class="edge">
<title>node0024&#45;&gt;node0004</title>
<path fill="none" stroke="black" d="M743.82,-194.65C738.67,-208.68 732.6,-225.21 727.08,-240.22"/>
<polygon fill="black" stroke="black" points="723.87,-238.81 723.71,-249.4 730.44,-241.22 723.87,-238.81"/>
<text text-anchor="middle" x="745.57" y="-217.7" font-family="Times New Roman,serif" font-size="14.00">is a</text>
</g>
<!-- node0025 -->
<g id="node26" class="node">
<title>node0025</title>
<ellipse fill="none" stroke="black" cx="846" cy="-160.5" rx="36" ry="36"/>
<text text-anchor="middle" x="846" y="-156.62" font-family="Times New Roman,serif" font-size="10.00">VehicleCargo</text>
</g>
<!-- node0025&#45;&gt;node0006 -->
<g id="edge25" class="edge">
<title>node0025&#45;&gt;node0006</title>
<path fill="none" stroke="black" d="M872.35,-185.41C893.44,-204.55 923.2,-231.56 946.25,-252.46"/>
<polygon fill="black" stroke="black" points="943.84,-255.01 953.6,-259.13 948.54,-249.82 943.84,-255.01"/>
<text text-anchor="middle" x="930.96" y="-217.7" font-family="Times New Roman,serif" font-size="14.00">is a</text>
</g>
<!-- node0026 -->
<g id="node27" class="node">
<title>node0026</title>
<ellipse fill="none" stroke="black" cx="936" cy="-160.5" rx="36" ry="36"/>
<text text-anchor="middle" x="936" y="-156.62" font-family="Times New Roman,serif" font-size="10.00">IncludedLanes</text>
</g>
<!-- node0026&#45;&gt;node0006 -->
<g id="edge26" class="edge">
<title>node0026&#45;&gt;node0006</title>
<path fill="none" stroke="black" d="M948.18,-194.65C953.33,-208.68 959.4,-225.21 964.92,-240.22"/>
<polygon fill="black" stroke="black" points="961.56,-241.22 968.29,-249.4 968.13,-238.81 961.56,-241.22"/>
<text text-anchor="middle" x="970.57" y="-217.7" font-family="Times New Roman,serif" font-size="14.00">is a</text>
</g>
<!-- node0027 -->
<g id="node28" class="node">
<title>node0027</title>
<ellipse fill="none" stroke="black" cx="1026" cy="-160.5" rx="36" ry="36"/>
<text text-anchor="middle" x="1026" y="-156.62" font-family="Times New Roman,serif" font-size="10.00">VehiclePassengers</text>
</g>
<!-- node0027&#45;&gt;node0006 -->
<g id="edge27" class="edge">
<title>node0027&#45;&gt;node0006</title>
<path fill="none" stroke="black" d="M1013.82,-194.65C1008.67,-208.68 1002.6,-225.21 997.08,-240.22"/>
<polygon fill="black" stroke="black" points="993.87,-238.81 993.71,-249.4 1000.44,-241.22 993.87,-238.81"/>
<text text-anchor="middle" x="1015.57" y="-217.7" font-family="Times New Roman,serif" font-size="14.00">is a</text>
</g>
<!-- node0028 -->
<g id="node29" class="node">
<title>node0028</title>
<ellipse fill="none" stroke="black" cx="1116" cy="-160.5" rx="36" ry="36"/>
<text text-anchor="middle" x="1116" y="-156.62" font-family="Times New Roman,serif" font-size="10.00">VehicleComponents</text>
</g>
<!-- node0028&#45;&gt;node0006 -->
<g id="edge28" class="edge">
<title>node0028&#45;&gt;node0006</title>
<path fill="none" stroke="black" d="M1089.65,-185.41C1068.56,-204.55 1038.8,-231.56 1015.75,-252.46"/>
<polygon fill="black" stroke="black" points="1013.46,-249.82 1008.4,-259.13 1018.16,-255.01 1013.46,-249.82"/>
<text text-anchor="middle" x="1065.96" y="-217.7" font-family="Times New Roman,serif" font-size="14.00">is a</text>
</g>
<!-- node0029 -->
<g id="node30" class="node">
<title>node0029</title>
<ellipse fill="none" stroke="black" cx="1206" cy="-160.5" rx="36" ry="36"/>
<text text-anchor="middle" x="1206" y="-156.62" font-family="Times New Roman,serif" font-size="10.00">IncludedFacilities</text>
</g>
<!-- node0029&#45;&gt;node0006 -->
<g id="edge29" class="edge">
<title>node0029&#45;&gt;node0006</title>
<path fill="none" stroke="black" d="M1178.72,-184.54C1173.05,-188.8 1166.98,-193 1161,-196.5 1126.88,-216.48 1115.96,-216.97 1079,-231 1055.74,-239.83 1047.9,-237.2 1026,-249 1023.14,-250.54 1020.28,-252.26 1017.45,-254.09"/>
<polygon fill="black" stroke="black" points="1015.53,-251.17 1009.33,-259.76 1019.53,-256.91 1015.53,-251.17"/>
<text text-anchor="middle" x="1133.22" y="-217.7" font-family="Times New Roman,serif" font-size="14.00">is a</text>
</g>
<!-- node0030 -->
<g id="node31" class="node">
<title>node0030</title>
<ellipse fill="none" stroke="black" cx="1296" cy="-160.5" rx="36" ry="36"/>
<text text-anchor="middle" x="1296" y="-156.62" font-family="Times New Roman,serif" font-size="10.00">AffectedElement</text>
</g>
<!-- node0030&#45;&gt;node0011 -->
<g id="edge30" class="edge">
<title>node0030&#45;&gt;node0011</title>
<path fill="none" stroke="black" d="M1322.35,-185.41C1343.44,-204.55 1373.2,-231.56 1396.25,-252.46"/>
<polygon fill="black" stroke="black" points="1393.84,-255.01 1403.6,-259.13 1398.54,-249.82 1393.84,-255.01"/>
<text text-anchor="middle" x="1380.96" y="-217.7" font-family="Times New Roman,serif" font-size="14.00">is a</text>
</g>
<!-- node0031 -->
<g id="node32" class="node">
<title>node0031</title>
<ellipse fill="none" stroke="black" cx="1386" cy="-160.5" rx="36" ry="36"/>
<text text-anchor="middle" x="1386" y="-156.62" font-family="Times New Roman,serif" font-size="10.00">EnvironmentElement</text>
</g>
<!-- node0031&#45;&gt;node0011 -->
<g id="edge31" class="edge">
<title>node0031&#45;&gt;node0011</title>
<path fill="none" stroke="black" d="M1398.18,-194.65C1403.33,-208.68 1409.4,-225.21 1414.92,-240.22"/>
<polygon fill="black" stroke="black" points="1411.56,-241.22 1418.29,-249.4 1418.13,-238.81 1411.56,-241.22"/>
<text text-anchor="middle" x="1420.57" y="-217.7" font-family="Times New Roman,serif" font-size="14.00">is a</text>
</g>
<!-- node0032 -->
<g id="node33" class="node">
<title>node0032</title>
<ellipse fill="none" stroke="black" cx="1476" cy="-160.5" rx="36" ry="36"/>
<text text-anchor="middle" x="1476" y="-156.62" font-family="Times New Roman,serif" font-size="10.00">ResponsePlanElement</text>
</g>
<!-- node0032&#45;&gt;node0011 -->
<g id="edge32" class="edge">
<title>node0032&#45;&gt;node0011</title>
<path fill="none" stroke="black" d="M1463.82,-194.65C1458.67,-208.68 1452.6,-225.21 1447.08,-240.22"/>
<polygon fill="black" stroke="black" points="1443.87,-238.81 1443.71,-249.4 1450.44,-241.22 1443.87,-238.81"/>
<text text-anchor="middle" x="1465.57" y="-217.7" font-family="Times New Roman,serif" font-size="14.00">is a</text>
</g>
<!-- node0033 -->
<g id="node34" class="node">
<title>node0033</title>
<ellipse fill="none" stroke="black" cx="1656" cy="-160.5" rx="36" ry="36"/>
<text text-anchor="middle" x="1656" y="-156.62" font-family="Times New Roman,serif" font-size="10.00">HazardElement</text>
</g>
<!-- node0033&#45;&gt;node0011 -->
<g id="edge33" class="edge">
<title>node0033&#45;&gt;node0011</title>
<path fill="none" stroke="black" d="M1622.72,-175.18C1585.75,-190.94 1524.82,-218.61 1476,-249 1473.24,-250.72 1470.45,-252.57 1467.68,-254.49"/>
<polygon fill="black" stroke="black" points="1465.69,-251.62 1459.66,-260.33 1469.8,-257.28 1465.69,-251.62"/>
<text text-anchor="middle" x="1542.91" y="-217.7" font-family="Times New Roman,serif" font-size="14.00">is a</text>
</g>
<!-- node0034 -->
<g id="node35" class="node">
<title>node0034</title>
<ellipse fill="none" stroke="black" cx="1791" cy="-160.5" rx="36" ry="36"/>
<text text-anchor="middle" x="1791" y="-156.62" font-family="Times New Roman,serif" font-size="10.00">AffectedStates</text>
</g>
<!-- node0034&#45;&gt;node0012 -->
<g id="edge34" class="edge">
<title>node0034&#45;&gt;node0012</title>
<path fill="none" stroke="black" d="M1757.34,-174.59C1694.62,-198.97 1566.14,-248.92 1566,-249 1563.18,-250.6 1560.34,-252.37 1557.53,-254.23"/>
<polygon fill="black" stroke="black" points="1555.58,-251.32 1549.44,-259.96 1559.62,-257.04 1555.58,-251.32"/>
<text text-anchor="middle" x="1661.18" y="-217.7" font-family="Times New Roman,serif" font-size="14.00">is a</text>
</g>
<!-- node0035 -->
<g id="node36" class="node">
<title>node0035</title>
<ellipse fill="none" stroke="black" cx="1881" cy="-160.5" rx="36" ry="36"/>
<text text-anchor="middle" x="1881" y="-156.62" font-family="Times New Roman,serif" font-size="10.00">ResponseStates</text>
</g>
<!-- node0035&#45;&gt;node0012 -->
<g id="edge35" class="edge">
<title>node0035&#45;&gt;node0012</title>
<path fill="none" stroke="black" d="M1854.69,-185.09C1848.84,-189.4 1842.46,-193.49 1836,-196.5 1769.67,-227.41 1746.9,-217.37 1675,-231 1626.76,-240.15 1610.98,-229.32 1566,-249 1562.84,-250.38 1559.7,-252.04 1556.64,-253.87"/>
<polygon fill="black" stroke="black" points="1554.83,-250.87 1548.46,-259.33 1558.72,-256.69 1554.83,-250.87"/>
<text text-anchor="middle" x="1794.94" y="-217.7" font-family="Times New Roman,serif" font-size="14.00">is a</text>
</g>
<!-- node0036 -->
<g id="node37" class="node">
<title>node0036</title>
<ellipse fill="none" stroke="black" cx="2106" cy="-160.5" rx="36" ry="36"/>
<text text-anchor="middle" x="2106" y="-156.62" font-family="Times New Roman,serif" font-size="10.00">HazardStates</text>
</g>
<!-- node0036&#45;&gt;node0012 -->
<g id="edge36" class="edge">
<title>node0036&#45;&gt;node0012</title>
<path fill="none" stroke="black" d="M2071.47,-171.4C2016.3,-186.79 1904.63,-216.23 1808,-231 1754.69,-239.15 1616.32,-229.62 1566,-249 1562.78,-250.24 1559.6,-251.79 1556.51,-253.55"/>
<polygon fill="black" stroke="black" points="1554.77,-250.51 1548.29,-258.89 1558.58,-256.38 1554.77,-250.51"/>
<text text-anchor="middle" x="1899.99" y="-217.7" font-family="Times New Roman,serif" font-size="14.00">is a</text>
</g>
<!-- node0037 -->
<g id="node38" class="node">
<title>node0037</title>
<ellipse fill="none" stroke="black" cx="981" cy="-36" rx="36" ry="36"/>
<text text-anchor="middle" x="981" y="-32.12" font-family="Times New Roman,serif" font-size="10.00">3</text>
</g>
<!-- node0037&#45;&gt;node0030 -->
<g id="edge37" class="edge">
<title>node0037&#45;&gt;node0030</title>
<path fill="none" stroke="black" d="M1008.17,-60.23C1013.85,-64.47 1019.95,-68.62 1026,-72 1064.21,-93.35 1075.8,-95.83 1118.25,-106.5 1175.99,-121.02 1196.11,-101.43 1251,-124.5 1254.18,-125.84 1257.33,-127.46 1260.4,-129.27"/>
<polygon fill="black" stroke="black" points="1258.33,-132.09 1268.6,-134.69 1262.19,-126.25 1258.33,-132.09"/>
<text text-anchor="middle" x="1127.62" y="-93.2" font-family="Times New Roman,serif" font-size="14.00">is a</text>
</g>
<!-- node0038 -->
<g id="node39" class="node">
<title>node0038</title>
<ellipse fill="none" stroke="black" cx="1071" cy="-36" rx="36" ry="36"/>
<text text-anchor="middle" x="1071" y="-32.12" font-family="Times New Roman,serif" font-size="10.00">Road</text>
</g>
<!-- node0038&#45;&gt;node0030 -->
<g id="edge38" class="edge">
<title>node0038&#45;&gt;node0030</title>
<path fill="none" stroke="black" d="M1098.75,-59.3C1104.38,-63.62 1110.32,-68.03 1116,-72 1139.73,-88.58 1144.48,-95.49 1171.25,-106.5 1204.86,-120.32 1218.15,-108.97 1251,-124.5 1254.12,-125.97 1257.23,-127.7 1260.26,-129.57"/>
<polygon fill="black" stroke="black" points="1258.17,-132.38 1268.41,-135.12 1262.11,-126.6 1258.17,-132.38"/>
<text text-anchor="middle" x="1180.62" y="-93.2" font-family="Times New Roman,serif" font-size="14.00">is a</text>
</g>
<!-- node0039 -->
<g id="node40" class="node">
<title>node0039</title>
<ellipse fill="none" stroke="black" cx="1161" cy="-36" rx="36" ry="36"/>
<text text-anchor="middle" x="1161" y="-32.12" font-family="Times New Roman,serif" font-size="10.00">HazardVehicle</text>
</g>
<!-- node0039&#45;&gt;node0030 -->
<g id="edge39" class="edge">
<title>node0039&#45;&gt;node0030</title>
<path fill="none" stroke="black" d="M1177.82,-67.93C1186.2,-81.15 1197.31,-95.93 1210.25,-106.5 1225.58,-119.03 1234,-114.35 1251,-124.5 1253.79,-126.17 1256.6,-127.98 1259.39,-129.88"/>
<polygon fill="black" stroke="black" points="1257.28,-132.67 1267.44,-135.66 1261.36,-126.99 1257.28,-132.67"/>
<text text-anchor="middle" x="1219.62" y="-93.2" font-family="Times New Roman,serif" font-size="14.00">is a</text>
</g>
<!-- node0040 -->
<g id="node41" class="node">
<title>node0040</title>
<ellipse fill="none" stroke="black" cx="1251" cy="-36" rx="36" ry="36"/>
<text text-anchor="middle" x="1251" y="-32.12" font-family="Times New Roman,serif" font-size="10.00">5</text>
</g>
<!-- node0040&#45;&gt;node0031 -->
<g id="edge40" class="edge">
<title>node0040&#45;&gt;node0031</title>
<path fill="none" stroke="black" d="M1267.82,-67.93C1276.2,-81.15 1287.31,-95.93 1300.25,-106.5 1315.58,-119.03 1324,-114.35 1341,-124.5 1343.79,-126.17 1346.6,-127.98 1349.39,-129.88"/>
<polygon fill="black" stroke="black" points="1347.28,-132.67 1357.44,-135.66 1351.36,-126.99 1347.28,-132.67"/>
<text text-anchor="middle" x="1309.62" y="-93.2" font-family="Times New Roman,serif" font-size="14.00">is a</text>
</g>
<!-- node0041 -->
<g id="node42" class="node">
<title>node0041</title>
<ellipse fill="none" stroke="black" cx="1341" cy="-36" rx="36" ry="36"/>
<text text-anchor="middle" x="1341" y="-32.12" font-family="Times New Roman,serif" font-size="10.00">7</text>
</g>
<!-- node0041&#45;&gt;node0032 -->
<g id="edge41" class="edge">
<title>node0041&#45;&gt;node0032</title>
<path fill="none" stroke="black" d="M1367.35,-60.91C1388.44,-80.05 1418.2,-107.06 1441.25,-127.96"/>
<polygon fill="black" stroke="black" points="1438.84,-130.51 1448.6,-134.63 1443.54,-125.32 1438.84,-130.51"/>
<text text-anchor="middle" x="1425.96" y="-93.2" font-family="Times New Roman,serif" font-size="14.00">is a</text>
</g>
<!-- node0042 -->
<g id="node43" class="node">
<title>node0042</title>
<ellipse fill="none" stroke="black" cx="1431" cy="-36" rx="36" ry="36"/>
<text text-anchor="middle" x="1431" y="-32.12" font-family="Times New Roman,serif" font-size="10.00">8</text>
</g>
<!-- node0042&#45;&gt;node0032 -->
<g id="edge42" class="edge">
<title>node0042&#45;&gt;node0032</title>
<path fill="none" stroke="black" d="M1443.18,-70.15C1448.33,-84.18 1454.4,-100.71 1459.92,-115.72"/>
<polygon fill="black" stroke="black" points="1456.56,-116.72 1463.29,-124.9 1463.13,-114.31 1456.56,-116.72"/>
<text text-anchor="middle" x="1465.57" y="-93.2" font-family="Times New Roman,serif" font-size="14.00">is a</text>
</g>
<!-- node0043 -->
<g id="node44" class="node">
<title>node0043</title>
<ellipse fill="none" stroke="black" cx="1521" cy="-36" rx="36" ry="36"/>
<text text-anchor="middle" x="1521" y="-32.12" font-family="Times New Roman,serif" font-size="10.00">ResponseResource</text>
</g>
<!-- node0043&#45;&gt;node0032 -->
<g id="edge43" class="edge">
<title>node0043&#45;&gt;node0032</title>
<path fill="none" stroke="black" d="M1508.82,-70.15C1503.67,-84.18 1497.6,-100.71 1492.08,-115.72"/>
<polygon fill="black" stroke="black" points="1488.87,-114.31 1488.71,-124.9 1495.44,-116.72 1488.87,-114.31"/>
<text text-anchor="middle" x="1510.57" y="-93.2" font-family="Times New Roman,serif" font-size="14.00">is a</text>
</g>
<!-- node0044 -->
<g id="node45" class="node">
<title>node0044</title>
<ellipse fill="none" stroke="black" cx="1611" cy="-36" rx="36" ry="36"/>
<text text-anchor="middle" x="1611" y="-32.12" font-family="Times New Roman,serif" font-size="10.00">ResponseAction</text>
</g>
<!-- node0044&#45;&gt;node0032 -->
<g id="edge44" class="edge">
<title>node0044&#45;&gt;node0032</title>
<path fill="none" stroke="black" d="M1584.65,-60.91C1563.56,-80.05 1533.8,-107.06 1510.75,-127.96"/>
<polygon fill="black" stroke="black" points="1508.46,-125.32 1503.4,-134.63 1513.16,-130.51 1508.46,-125.32"/>
<text text-anchor="middle" x="1560.96" y="-93.2" font-family="Times New Roman,serif" font-size="14.00">is a</text>
</g>
<!-- node0045 -->
<g id="node46" class="node">
<title>node0045</title>
<ellipse fill="none" stroke="black" cx="1701" cy="-36" rx="36" ry="36"/>
<text text-anchor="middle" x="1701" y="-32.12" font-family="Times New Roman,serif" font-size="10.00">6</text>
</g>
<!-- node0045&#45;&gt;node0033 -->
<g id="edge45" class="edge">
<title>node0045&#45;&gt;node0033</title>
<path fill="none" stroke="black" d="M1688.82,-70.15C1683.67,-84.18 1677.6,-100.71 1672.08,-115.72"/>
<polygon fill="black" stroke="black" points="1668.87,-114.31 1668.71,-124.9 1675.44,-116.72 1668.87,-114.31"/>
<text text-anchor="middle" x="1690.57" y="-93.2" font-family="Times New Roman,serif" font-size="14.00">is a</text>
</g>
<!-- node0046 -->
<g id="node47" class="node">
<title>node0046</title>
<ellipse fill="none" stroke="black" cx="1791" cy="-36" rx="36" ry="36"/>
<text text-anchor="middle" x="1791" y="-32.12" font-family="Times New Roman,serif" font-size="10.00">CollidedState</text>
</g>
<!-- node0046&#45;&gt;node0034 -->
<g id="edge46" class="edge">
<title>node0046&#45;&gt;node0034</title>
<path fill="none" stroke="black" d="M1791,-72.43C1791,-85 1791,-99.35 1791,-112.72"/>
<polygon fill="black" stroke="black" points="1787.5,-112.63 1791,-122.63 1794.5,-112.63 1787.5,-112.63"/>
<text text-anchor="middle" x="1800.38" y="-93.2" font-family="Times New Roman,serif" font-size="14.00">is a</text>
</g>
<!-- node0047 -->
<g id="node48" class="node">
<title>node0047</title>
<ellipse fill="none" stroke="black" cx="1881" cy="-36" rx="36" ry="36"/>
<text text-anchor="middle" x="1881" y="-32.12" font-family="Times New Roman,serif" font-size="10.00">ExplodeState</text>
</g>
<!-- node0047&#45;&gt;node0034 -->
<g id="edge47" class="edge">
<title>node0047&#45;&gt;node0034</title>
<path fill="none" stroke="black" d="M1859.9,-65.72C1847.6,-82.46 1831.94,-103.77 1818.67,-121.84"/>
<polygon fill="black" stroke="black" points="1815.97,-119.61 1812.86,-129.74 1821.61,-123.75 1815.97,-119.61"/>
<text text-anchor="middle" x="1850.76" y="-93.2" font-family="Times New Roman,serif" font-size="14.00">is a</text>
</g>
<!-- node0048 -->
<g id="node49" class="node">
<title>node0048</title>
<ellipse fill="none" stroke="black" cx="1971" cy="-36" rx="36" ry="36"/>
<text text-anchor="middle" x="1971" y="-32.12" font-family="Times New Roman,serif" font-size="10.00">DrivingState</text>
</g>
<!-- node0048&#45;&gt;node0034 -->
<g id="edge48" class="edge">
<title>node0048&#45;&gt;node0034</title>
<path fill="none" stroke="black" d="M1943.34,-59.43C1937.7,-63.74 1931.74,-68.12 1926,-72 1887.64,-97.94 1874.36,-98.56 1836,-124.5 1833.31,-126.32 1830.57,-128.25 1827.84,-130.23"/>
<polygon fill="black" stroke="black" points="1825.8,-127.38 1819.87,-136.16 1829.98,-132.99 1825.8,-127.38"/>
<text text-anchor="middle" x="1904.61" y="-93.2" font-family="Times New Roman,serif" font-size="14.00">is a</text>
</g>
<!-- node0049 -->
<g id="node50" class="node">
<title>node0049</title>
<ellipse fill="none" stroke="black" cx="2061" cy="-36" rx="36" ry="36"/>
<text text-anchor="middle" x="2061" y="-32.12" font-family="Times New Roman,serif" font-size="10.00">CollideState</text>
</g>
<!-- node0049&#45;&gt;node0036 -->
<g id="edge49" class="edge">
<title>node0049&#45;&gt;node0036</title>
<path fill="none" stroke="black" d="M2073.18,-70.15C2078.33,-84.18 2084.4,-100.71 2089.92,-115.72"/>
<polygon fill="black" stroke="black" points="2086.56,-116.72 2093.29,-124.9 2093.13,-114.31 2086.56,-116.72"/>
<text text-anchor="middle" x="2095.57" y="-93.2" font-family="Times New Roman,serif" font-size="14.00">is a</text>
</g>
<!-- node0050 -->
<g id="node51" class="node">
<title>node0050</title>
<ellipse fill="none" stroke="black" cx="2151" cy="-36" rx="36" ry="36"/>
<text text-anchor="middle" x="2151" y="-32.12" font-family="Times New Roman,serif" font-size="10.00">SpillState</text>
</g>
<!-- node0050&#45;&gt;node0036 -->
<g id="edge50" class="edge">
<title>node0050&#45;&gt;node0036</title>
<path fill="none" stroke="black" d="M2138.82,-70.15C2133.67,-84.18 2127.6,-100.71 2122.08,-115.72"/>
<polygon fill="black" stroke="black" points="2118.87,-114.31 2118.71,-124.9 2125.44,-116.72 2118.87,-114.31"/>
<text text-anchor="middle" x="2140.57" y="-93.2" font-family="Times New Roman,serif" font-size="14.00">is a</text>
</g>
<!-- node0051 -->
<g id="node52" class="node">
<title>node0051</title>
<ellipse fill="none" stroke="black" cx="2241" cy="-36" rx="36" ry="36"/>
<text text-anchor="middle" x="2241" y="-32.12" font-family="Times New Roman,serif" font-size="10.00">DriveState</text>
</g>
<!-- node0051&#45;&gt;node0036 -->
<g id="edge51" class="edge">
<title>node0051&#45;&gt;node0036</title>
<path fill="none" stroke="black" d="M2214.65,-60.91C2193.56,-80.05 2163.8,-107.06 2140.75,-127.96"/>
<polygon fill="black" stroke="black" points="2138.46,-125.32 2133.4,-134.63 2143.16,-130.51 2138.46,-125.32"/>
<text text-anchor="middle" x="2190.96" y="-93.2" font-family="Times New Roman,serif" font-size="14.00">is a</text>
</g>
</g>
</svg>
