<?xml version="1.0" encoding="UTF-8" standalone="no"?>
<!DOCTYPE svg PUBLIC "-//W3C//DTD SVG 1.1//EN"
 "http://www.w3.org/Graphics/SVG/1.1/DTD/svg11.dtd">
<!-- Generated by graphviz version 12.1.2 (20240928.0832)
 -->
<!-- Title: G Pages: 1 -->
<svg width="2150pt" height="454pt"
 viewBox="0.00 0.00 2150.00 453.50" xmlns="http://www.w3.org/2000/svg" xmlns:xlink="http://www.w3.org/1999/xlink">
<g id="graph0" class="graph" transform="scale(1 1) rotate(0) translate(4 449.5)">
<title>G</title>
<polygon fill="white" stroke="none" points="-4,4 -4,-449.5 2146,-449.5 2146,4 -4,4"/>
<!-- node0000 -->
<g id="node1" class="node">
<title>node0000</title>
<ellipse fill="none" stroke="black" cx="1419" cy="-409.5" rx="36" ry="36"/>
<text text-anchor="middle" x="1419" y="-405.62" font-family="Times New Roman,serif" font-size="10.00">Thing</text>
</g>
<!-- node0001 -->
<g id="node2" class="node">
<title>node0001</title>
<ellipse fill="none" stroke="black" cx="216" cy="-285" rx="36" ry="36"/>
<text text-anchor="middle" x="216" y="-281.12" font-family="Times New Roman,serif" font-size="10.00">ResilienceInfluentialFactors</text>
</g>
<!-- node0001&#45;&gt;node0000 -->
<g id="edge1" class="edge">
<title>node0001&#45;&gt;node0000</title>
<path fill="none" stroke="black" d="M251.85,-289.79C351.89,-300.35 642.59,-330.96 884.25,-355.5 1064.27,-373.78 1278.46,-394.78 1371.71,-403.89"/>
<polygon fill="black" stroke="black" points="1371.21,-407.36 1381.5,-404.85 1371.89,-400.39 1371.21,-407.36"/>
<text text-anchor="middle" x="893.62" y="-342.2" font-family="Times New Roman,serif" font-size="14.00">is a</text>
</g>
<!-- node0002 -->
<g id="node3" class="node">
<title>node0002</title>
<ellipse fill="none" stroke="black" cx="621" cy="-285" rx="36" ry="36"/>
<text text-anchor="middle" x="621" y="-281.12" font-family="Times New Roman,serif" font-size="10.00">ElementCompositions</text>
</g>
<!-- node0002&#45;&gt;node0000 -->
<g id="edge2" class="edge">
<title>node0002&#45;&gt;node0000</title>
<path fill="none" stroke="black" d="M656.54,-293.17C723.69,-306.56 873.92,-335.8 1001.25,-355.5 1135.08,-376.2 1293.96,-394.7 1371.57,-403.34"/>
<polygon fill="black" stroke="black" points="1371.04,-406.8 1381.36,-404.42 1371.81,-399.84 1371.04,-406.8"/>
<text text-anchor="middle" x="1010.62" y="-342.2" font-family="Times New Roman,serif" font-size="14.00">is a</text>
</g>
<!-- node0003 -->
<g id="node4" class="node">
<title>node0003</title>
<ellipse fill="none" stroke="black" cx="936" cy="-285" rx="36" ry="36"/>
<text text-anchor="middle" x="936" y="-281.12" font-family="Times New Roman,serif" font-size="10.00">Scenario</text>
</g>
<!-- node0003&#45;&gt;node0000 -->
<g id="edge3" class="edge">
<title>node0003&#45;&gt;node0000</title>
<path fill="none" stroke="black" d="M963.02,-309.51C968.71,-313.73 974.86,-317.8 981,-321 1026.9,-344.95 1041.85,-343.66 1092.25,-355.5 1190.47,-378.58 1307.66,-394.93 1371.6,-402.93"/>
<polygon fill="black" stroke="black" points="1371.04,-406.38 1381.4,-404.14 1371.9,-399.44 1371.04,-406.38"/>
<text text-anchor="middle" x="1101.62" y="-342.2" font-family="Times New Roman,serif" font-size="14.00">is a</text>
</g>
<!-- node0004 -->
<g id="node5" class="node">
<title>node0004</title>
<ellipse fill="none" stroke="black" cx="1026" cy="-285" rx="36" ry="36"/>
<text text-anchor="middle" x="1026" y="-281.12" font-family="Times New Roman,serif" font-size="10.00">EmergencyPhase</text>
</g>
<!-- node0004&#45;&gt;node0000 -->
<g id="edge4" class="edge">
<title>node0004&#45;&gt;node0000</title>
<path fill="none" stroke="black" d="M1053.05,-309.45C1058.73,-313.68 1064.87,-317.76 1071,-321 1170.19,-373.41 1302.03,-395.39 1371.51,-403.81"/>
<polygon fill="black" stroke="black" points="1371.08,-407.28 1381.42,-404.96 1371.89,-400.33 1371.08,-407.28"/>
<text text-anchor="middle" x="1152.01" y="-342.2" font-family="Times New Roman,serif" font-size="14.00">is a</text>
</g>
<!-- node0005 -->
<g id="node6" class="node">
<title>node0005</title>
<ellipse fill="none" stroke="black" cx="1116" cy="-285" rx="36" ry="36"/>
<text text-anchor="middle" x="1116" y="-281.12" font-family="Times New Roman,serif" font-size="10.00">177</text>
</g>
<!-- node0005&#45;&gt;node0000 -->
<g id="edge5" class="edge">
<title>node0005&#45;&gt;node0000</title>
<path fill="none" stroke="black" d="M1143.11,-309.33C1148.8,-313.56 1154.92,-317.68 1161,-321 1230.44,-358.88 1319.25,-384.61 1372.49,-397.9"/>
<polygon fill="black" stroke="black" points="1371.6,-401.28 1382.15,-400.26 1373.27,-394.48 1371.6,-401.28"/>
<text text-anchor="middle" x="1245.02" y="-342.2" font-family="Times New Roman,serif" font-size="14.00">is a</text>
</g>
<!-- node0006 -->
<g id="node7" class="node">
<title>node0006</title>
<ellipse fill="none" stroke="black" cx="1206" cy="-285" rx="36" ry="36"/>
<text text-anchor="middle" x="1206" y="-281.12" font-family="Times New Roman,serif" font-size="10.00">firefightingStates</text>
</g>
<!-- node0006&#45;&gt;node0000 -->
<g id="edge6" class="edge">
<title>node0006&#45;&gt;node0000</title>
<path fill="none" stroke="black" d="M1233.51,-308.65C1239.16,-312.95 1245.17,-317.26 1251,-321 1291.88,-347.24 1341.52,-372.33 1376.2,-388.86"/>
<polygon fill="black" stroke="black" points="1374.55,-391.95 1385.09,-393.06 1377.54,-385.63 1374.55,-391.95"/>
<text text-anchor="middle" x="1318.8" y="-342.2" font-family="Times New Roman,serif" font-size="14.00">is a</text>
</g>
<!-- node0007 -->
<g id="node8" class="node">
<title>node0007</title>
<ellipse fill="none" stroke="black" cx="1296" cy="-285" rx="36" ry="36"/>
<text text-anchor="middle" x="1296" y="-281.12" font-family="Times New Roman,serif" font-size="10.00">ElementState</text>
</g>
<!-- node0007&#45;&gt;node0000 -->
<g id="edge7" class="edge">
<title>node0007&#45;&gt;node0000</title>
<path fill="none" stroke="black" d="M1321.19,-311.09C1339.84,-329.66 1365.44,-355.16 1385.77,-375.41"/>
<polygon fill="black" stroke="black" points="1383.22,-377.8 1392.77,-382.38 1388.16,-372.84 1383.22,-377.8"/>
<text text-anchor="middle" x="1374.24" y="-342.2" font-family="Times New Roman,serif" font-size="14.00">is a</text>
</g>
<!-- node0008 -->
<g id="node9" class="node">
<title>node0008</title>
<ellipse fill="none" stroke="black" cx="1386" cy="-285" rx="36" ry="36"/>
<text text-anchor="middle" x="1386" y="-281.12" font-family="Times New Roman,serif" font-size="10.00">InvolvedScenarioElement</text>
</g>
<!-- node0008&#45;&gt;node0000 -->
<g id="edge8" class="edge">
<title>node0008&#45;&gt;node0000</title>
<path fill="none" stroke="black" d="M1395.19,-320.12C1398.84,-333.66 1403.08,-349.42 1406.97,-363.85"/>
<polygon fill="black" stroke="black" points="1403.48,-364.35 1409.46,-373.1 1410.24,-362.53 1403.48,-364.35"/>
<text text-anchor="middle" x="1413.85" y="-342.2" font-family="Times New Roman,serif" font-size="14.00">is a</text>
</g>
<!-- node0009 -->
<g id="node10" class="node">
<title>node0009</title>
<ellipse fill="none" stroke="black" cx="1476" cy="-285" rx="36" ry="36"/>
<text text-anchor="middle" x="1476" y="-281.12" font-family="Times New Roman,serif" font-size="10.00">ScenarioElement</text>
</g>
<!-- node0009&#45;&gt;node0000 -->
<g id="edge9" class="edge">
<title>node0009&#45;&gt;node0000</title>
<path fill="none" stroke="black" d="M1461.02,-318.19C1454.15,-332.96 1445.91,-350.66 1438.56,-366.47"/>
<polygon fill="black" stroke="black" points="1435.56,-364.61 1434.51,-375.16 1441.91,-367.57 1435.56,-364.61"/>
<text text-anchor="middle" x="1460.29" y="-342.2" font-family="Times New Roman,serif" font-size="14.00">is a</text>
</g>
<!-- node0010 -->
<g id="node11" class="node">
<title>node0010</title>
<ellipse fill="none" stroke="black" cx="1566" cy="-285" rx="36" ry="36"/>
<text text-anchor="middle" x="1566" y="-281.12" font-family="Times New Roman,serif" font-size="10.00">173</text>
</g>
<!-- node0010&#45;&gt;node0000 -->
<g id="edge10" class="edge">
<title>node0010&#45;&gt;node0000</title>
<path fill="none" stroke="black" d="M1538.69,-308.75C1515.08,-328.44 1480.75,-357.04 1454.91,-378.57"/>
<polygon fill="black" stroke="black" points="1452.76,-375.81 1447.32,-384.9 1457.24,-381.19 1452.76,-375.81"/>
<text text-anchor="middle" x="1510.68" y="-342.2" font-family="Times New Roman,serif" font-size="14.00">is a</text>
</g>
<!-- node0011 -->
<g id="node12" class="node">
<title>node0011</title>
<ellipse fill="none" stroke="black" cx="1656" cy="-285" rx="36" ry="36"/>
<text text-anchor="middle" x="1656" y="-281.12" font-family="Times New Roman,serif" font-size="10.00">towStates</text>
</g>
<!-- node0011&#45;&gt;node0000 -->
<g id="edge11" class="edge">
<title>node0011&#45;&gt;node0000</title>
<path fill="none" stroke="black" d="M1628.64,-308.9C1622.98,-313.17 1616.93,-317.41 1611,-321 1562.88,-350.13 1503.4,-375.8 1463.51,-391.67"/>
<polygon fill="black" stroke="black" points="1462.23,-388.41 1454.21,-395.33 1464.8,-394.93 1462.23,-388.41"/>
<text text-anchor="middle" x="1585.22" y="-342.2" font-family="Times New Roman,serif" font-size="14.00">is a</text>
</g>
<!-- node0012 -->
<g id="node13" class="node">
<title>node0012</title>
<ellipse fill="none" stroke="black" cx="1746" cy="-285" rx="36" ry="36"/>
<text text-anchor="middle" x="1746" y="-281.12" font-family="Times New Roman,serif" font-size="10.00">InvolvedScenario</text>
</g>
<!-- node0012&#45;&gt;node0000 -->
<g id="edge12" class="edge">
<title>node0012&#45;&gt;node0000</title>
<path fill="none" stroke="black" d="M1718.92,-309.38C1713.23,-313.61 1707.1,-317.72 1701,-321 1623.55,-362.67 1523.26,-387.79 1465.52,-399.82"/>
<polygon fill="black" stroke="black" points="1465.14,-396.33 1456.05,-401.75 1466.54,-403.19 1465.14,-396.33"/>
<text text-anchor="middle" x="1666.95" y="-342.2" font-family="Times New Roman,serif" font-size="14.00">is a</text>
</g>
<!-- node0013 -->
<g id="node14" class="node">
<title>node0013</title>
<ellipse fill="none" stroke="black" cx="1836" cy="-285" rx="36" ry="36"/>
<text text-anchor="middle" x="1836" y="-281.12" font-family="Times New Roman,serif" font-size="10.00">rescueStates</text>
</g>
<!-- node0013&#45;&gt;node0000 -->
<g id="edge13" class="edge">
<title>node0013&#45;&gt;node0000</title>
<path fill="none" stroke="black" d="M1808.98,-309.5C1803.29,-313.72 1797.14,-317.79 1791,-321 1683.4,-377.18 1539.59,-397.75 1466.29,-404.92"/>
<polygon fill="black" stroke="black" points="1466.28,-401.4 1456.65,-405.81 1466.93,-408.37 1466.28,-401.4"/>
<text text-anchor="middle" x="1753.37" y="-342.2" font-family="Times New Roman,serif" font-size="14.00">is a</text>
</g>
<!-- node0014 -->
<g id="node15" class="node">
<title>node0014</title>
<ellipse fill="none" stroke="black" cx="1926" cy="-285" rx="36" ry="36"/>
<text text-anchor="middle" x="1926" y="-281.12" font-family="Times New Roman,serif" font-size="10.00">aidStates</text>
</g>
<!-- node0014&#45;&gt;node0000 -->
<g id="edge14" class="edge">
<title>node0014&#45;&gt;node0000</title>
<path fill="none" stroke="black" d="M1899,-309.54C1893.31,-313.76 1887.15,-317.82 1881,-321 1833.98,-345.33 1818.63,-343.82 1767,-355.5 1660.64,-379.56 1533.49,-395.83 1466.2,-403.48"/>
<polygon fill="black" stroke="black" points="1466.19,-399.96 1456.64,-404.55 1466.97,-406.91 1466.19,-399.96"/>
<text text-anchor="middle" x="1848.74" y="-342.2" font-family="Times New Roman,serif" font-size="14.00">is a</text>
</g>
<!-- node0015 -->
<g id="node16" class="node">
<title>node0015</title>
<ellipse fill="none" stroke="black" cx="2016" cy="-285" rx="36" ry="36"/>
<text text-anchor="middle" x="2016" y="-281.12" font-family="Times New Roman,serif" font-size="10.00">Emergency</text>
</g>
<!-- node0015&#45;&gt;node0000 -->
<g id="edge15" class="edge">
<title>node0015&#45;&gt;node0000</title>
<path fill="none" stroke="black" d="M1988.97,-309.48C1983.28,-313.7 1977.13,-317.78 1971,-321 1926.02,-344.64 1911.67,-344.77 1862,-355.5 1720.02,-386.18 1548.34,-400.35 1466.65,-405.74"/>
<polygon fill="black" stroke="black" points="1466.53,-402.24 1456.78,-406.37 1466.98,-409.22 1466.53,-402.24"/>
<text text-anchor="middle" x="1938.75" y="-342.2" font-family="Times New Roman,serif" font-size="14.00">is a</text>
</g>
<!-- node0016 -->
<g id="node17" class="node">
<title>node0016</title>
<ellipse fill="none" stroke="black" cx="2106" cy="-285" rx="36" ry="36"/>
<text text-anchor="middle" x="2106" y="-281.12" font-family="Times New Roman,serif" font-size="10.00">ScenarioResilience</text>
</g>
<!-- node0016&#45;&gt;node0000 -->
<g id="edge16" class="edge">
<title>node0016&#45;&gt;node0000</title>
<path fill="none" stroke="black" d="M2078.97,-309.48C2073.28,-313.7 2067.13,-317.78 2061,-321 2016.02,-344.64 2001.77,-345.26 1952,-355.5 1775.34,-391.83 1560.42,-403.53 1466.62,-407.07"/>
<polygon fill="black" stroke="black" points="1466.64,-403.57 1456.77,-407.43 1466.89,-410.56 1466.64,-403.57"/>
<text text-anchor="middle" x="2030.65" y="-342.2" font-family="Times New Roman,serif" font-size="14.00">is a</text>
</g>
<!-- node0017 -->
<g id="node18" class="node">
<title>node0017</title>
<ellipse fill="none" stroke="black" cx="36" cy="-160.5" rx="36" ry="36"/>
<text text-anchor="middle" x="36" y="-156.62" font-family="Times New Roman,serif" font-size="10.00">FunctionFactors</text>
</g>
<!-- node0017&#45;&gt;node0001 -->
<g id="edge17" class="edge">
<title>node0017&#45;&gt;node0001</title>
<path fill="none" stroke="black" d="M63.8,-183.72C69.43,-188.05 75.35,-192.49 81,-196.5 112.22,-218.7 148.74,-242.23 175.92,-259.29"/>
<polygon fill="black" stroke="black" points="173.86,-262.13 184.2,-264.46 177.57,-256.2 173.86,-262.13"/>
<text text-anchor="middle" x="137.9" y="-217.7" font-family="Times New Roman,serif" font-size="14.00">is a</text>
</g>
<!-- node0018 -->
<g id="node19" class="node">
<title>node0018</title>
<ellipse fill="none" stroke="black" cx="126" cy="-160.5" rx="36" ry="36"/>
<text text-anchor="middle" x="126" y="-156.62" font-family="Times New Roman,serif" font-size="10.00">EconomicFactors</text>
</g>
<!-- node0018&#45;&gt;node0001 -->
<g id="edge18" class="edge">
<title>node0018&#45;&gt;node0001</title>
<path fill="none" stroke="black" d="M147.1,-190.22C159.4,-206.96 175.06,-228.27 188.33,-246.34"/>
<polygon fill="black" stroke="black" points="185.39,-248.25 194.14,-254.24 191.03,-244.11 185.39,-248.25"/>
<text text-anchor="middle" x="185.76" y="-217.7" font-family="Times New Roman,serif" font-size="14.00">is a</text>
</g>
<!-- node0019 -->
<g id="node20" class="node">
<title>node0019</title>
<ellipse fill="none" stroke="black" cx="216" cy="-160.5" rx="36" ry="36"/>
<text text-anchor="middle" x="216" y="-156.62" font-family="Times New Roman,serif" font-size="10.00">SafetyFactors</text>
</g>
<!-- node0019&#45;&gt;node0001 -->
<g id="edge19" class="edge">
<title>node0019&#45;&gt;node0001</title>
<path fill="none" stroke="black" d="M216,-196.93C216,-209.5 216,-223.85 216,-237.22"/>
<polygon fill="black" stroke="black" points="212.5,-237.13 216,-247.13 219.5,-237.13 212.5,-237.13"/>
<text text-anchor="middle" x="225.38" y="-217.7" font-family="Times New Roman,serif" font-size="14.00">is a</text>
</g>
<!-- node0020 -->
<g id="node21" class="node">
<title>node0020</title>
<ellipse fill="none" stroke="black" cx="306" cy="-160.5" rx="36" ry="36"/>
<text text-anchor="middle" x="306" y="-156.62" font-family="Times New Roman,serif" font-size="10.00">TimeFactors</text>
</g>
<!-- node0020&#45;&gt;node0001 -->
<g id="edge20" class="edge">
<title>node0020&#45;&gt;node0001</title>
<path fill="none" stroke="black" d="M284.9,-190.22C272.6,-206.96 256.94,-228.27 243.67,-246.34"/>
<polygon fill="black" stroke="black" points="240.97,-244.11 237.86,-254.24 246.61,-248.25 240.97,-244.11"/>
<text text-anchor="middle" x="275.76" y="-217.7" font-family="Times New Roman,serif" font-size="14.00">is a</text>
</g>
<!-- node0021 -->
<g id="node22" class="node">
<title>node0021</title>
<ellipse fill="none" stroke="black" cx="396" cy="-160.5" rx="36" ry="36"/>
<text text-anchor="middle" x="396" y="-156.62" font-family="Times New Roman,serif" font-size="10.00">VehicleComponents</text>
</g>
<!-- node0021&#45;&gt;node0002 -->
<g id="edge21" class="edge">
<title>node0021&#45;&gt;node0002</title>
<path fill="none" stroke="black" d="M423.43,-184.28C429.09,-188.56 435.12,-192.84 441,-196.5 485.43,-224.16 539.9,-249.56 577.2,-265.79"/>
<polygon fill="black" stroke="black" points="575.76,-268.98 586.33,-269.72 578.53,-262.55 575.76,-268.98"/>
<text text-anchor="middle" x="507.91" y="-217.7" font-family="Times New Roman,serif" font-size="14.00">is a</text>
</g>
<!-- node0022 -->
<g id="node23" class="node">
<title>node0022</title>
<ellipse fill="none" stroke="black" cx="486" cy="-160.5" rx="36" ry="36"/>
<text text-anchor="middle" x="486" y="-156.62" font-family="Times New Roman,serif" font-size="10.00">VehicleCargo</text>
</g>
<!-- node0022&#45;&gt;node0002 -->
<g id="edge22" class="edge">
<title>node0022&#45;&gt;node0002</title>
<path fill="none" stroke="black" d="M512.35,-185.41C533.44,-204.55 563.2,-231.56 586.25,-252.46"/>
<polygon fill="black" stroke="black" points="583.84,-255.01 593.6,-259.13 588.54,-249.82 583.84,-255.01"/>
<text text-anchor="middle" x="570.96" y="-217.7" font-family="Times New Roman,serif" font-size="14.00">is a</text>
</g>
<!-- node0023 -->
<g id="node24" class="node">
<title>node0023</title>
<ellipse fill="none" stroke="black" cx="576" cy="-160.5" rx="36" ry="36"/>
<text text-anchor="middle" x="576" y="-156.62" font-family="Times New Roman,serif" font-size="10.00">VehiclePassengers</text>
</g>
<!-- node0023&#45;&gt;node0002 -->
<g id="edge23" class="edge">
<title>node0023&#45;&gt;node0002</title>
<path fill="none" stroke="black" d="M588.18,-194.65C593.33,-208.68 599.4,-225.21 604.92,-240.22"/>
<polygon fill="black" stroke="black" points="601.56,-241.22 608.29,-249.4 608.13,-238.81 601.56,-241.22"/>
<text text-anchor="middle" x="610.57" y="-217.7" font-family="Times New Roman,serif" font-size="14.00">is a</text>
</g>
<!-- node0024 -->
<g id="node25" class="node">
<title>node0024</title>
<ellipse fill="none" stroke="black" cx="666" cy="-160.5" rx="36" ry="36"/>
<text text-anchor="middle" x="666" y="-156.62" font-family="Times New Roman,serif" font-size="10.00">IncludedFacilities</text>
</g>
<!-- node0024&#45;&gt;node0002 -->
<g id="edge24" class="edge">
<title>node0024&#45;&gt;node0002</title>
<path fill="none" stroke="black" d="M653.82,-194.65C648.67,-208.68 642.6,-225.21 637.08,-240.22"/>
<polygon fill="black" stroke="black" points="633.87,-238.81 633.71,-249.4 640.44,-241.22 633.87,-238.81"/>
<text text-anchor="middle" x="655.57" y="-217.7" font-family="Times New Roman,serif" font-size="14.00">is a</text>
</g>
<!-- node0025 -->
<g id="node26" class="node">
<title>node0025</title>
<ellipse fill="none" stroke="black" cx="756" cy="-160.5" rx="36" ry="36"/>
<text text-anchor="middle" x="756" y="-156.62" font-family="Times New Roman,serif" font-size="10.00">IncludedLanes</text>
</g>
<!-- node0025&#45;&gt;node0002 -->
<g id="edge25" class="edge">
<title>node0025&#45;&gt;node0002</title>
<path fill="none" stroke="black" d="M729.65,-185.41C708.56,-204.55 678.8,-231.56 655.75,-252.46"/>
<polygon fill="black" stroke="black" points="653.46,-249.82 648.4,-259.13 658.16,-255.01 653.46,-249.82"/>
<text text-anchor="middle" x="705.96" y="-217.7" font-family="Times New Roman,serif" font-size="14.00">is a</text>
</g>
<!-- node0026 -->
<g id="node27" class="node">
<title>node0026</title>
<ellipse fill="none" stroke="black" cx="846" cy="-160.5" rx="36" ry="36"/>
<text text-anchor="middle" x="846" y="-156.62" font-family="Times New Roman,serif" font-size="10.00">RecoveryScenario</text>
</g>
<!-- node0026&#45;&gt;node0003 -->
<g id="edge26" class="edge">
<title>node0026&#45;&gt;node0003</title>
<path fill="none" stroke="black" d="M867.1,-190.22C879.4,-206.96 895.06,-228.27 908.33,-246.34"/>
<polygon fill="black" stroke="black" points="905.39,-248.25 914.14,-254.24 911.03,-244.11 905.39,-248.25"/>
<text text-anchor="middle" x="905.76" y="-217.7" font-family="Times New Roman,serif" font-size="14.00">is a</text>
</g>
<!-- node0027 -->
<g id="node28" class="node">
<title>node0027</title>
<ellipse fill="none" stroke="black" cx="936" cy="-160.5" rx="36" ry="36"/>
<text text-anchor="middle" x="936" y="-156.62" font-family="Times New Roman,serif" font-size="10.00">AdaptionScenario</text>
</g>
<!-- node0027&#45;&gt;node0003 -->
<g id="edge27" class="edge">
<title>node0027&#45;&gt;node0003</title>
<path fill="none" stroke="black" d="M936,-196.93C936,-209.5 936,-223.85 936,-237.22"/>
<polygon fill="black" stroke="black" points="932.5,-237.13 936,-247.13 939.5,-237.13 932.5,-237.13"/>
<text text-anchor="middle" x="945.38" y="-217.7" font-family="Times New Roman,serif" font-size="14.00">is a</text>
</g>
<!-- node0028 -->
<g id="node29" class="node">
<title>node0028</title>
<ellipse fill="none" stroke="black" cx="1026" cy="-160.5" rx="36" ry="36"/>
<text text-anchor="middle" x="1026" y="-156.62" font-family="Times New Roman,serif" font-size="10.00">AbsorptionScenario</text>
</g>
<!-- node0028&#45;&gt;node0003 -->
<g id="edge28" class="edge">
<title>node0028&#45;&gt;node0003</title>
<path fill="none" stroke="black" d="M1004.9,-190.22C992.6,-206.96 976.94,-228.27 963.67,-246.34"/>
<polygon fill="black" stroke="black" points="960.97,-244.11 957.86,-254.24 966.61,-248.25 960.97,-244.11"/>
<text text-anchor="middle" x="995.76" y="-217.7" font-family="Times New Roman,serif" font-size="14.00">is a</text>
</g>
<!-- node0029 -->
<g id="node30" class="node">
<title>node0029</title>
<ellipse fill="none" stroke="black" cx="1116" cy="-160.5" rx="36" ry="36"/>
<text text-anchor="middle" x="1116" y="-156.62" font-family="Times New Roman,serif" font-size="10.00">HazardStates</text>
</g>
<!-- node0029&#45;&gt;node0007 -->
<g id="edge29" class="edge">
<title>node0029&#45;&gt;node0007</title>
<path fill="none" stroke="black" d="M1143.66,-183.93C1149.3,-188.24 1155.26,-192.62 1161,-196.5 1199.36,-222.44 1212.64,-223.06 1251,-249 1253.69,-250.82 1256.43,-252.75 1259.16,-254.73"/>
<polygon fill="black" stroke="black" points="1257.02,-257.49 1267.13,-260.66 1261.2,-251.88 1257.02,-257.49"/>
<text text-anchor="middle" x="1229.61" y="-217.7" font-family="Times New Roman,serif" font-size="14.00">is a</text>
</g>
<!-- node0030 -->
<g id="node31" class="node">
<title>node0030</title>
<ellipse fill="none" stroke="black" cx="1206" cy="-160.5" rx="36" ry="36"/>
<text text-anchor="middle" x="1206" y="-156.62" font-family="Times New Roman,serif" font-size="10.00">AffectedStates</text>
</g>
<!-- node0030&#45;&gt;node0007 -->
<g id="edge30" class="edge">
<title>node0030&#45;&gt;node0007</title>
<path fill="none" stroke="black" d="M1227.1,-190.22C1239.4,-206.96 1255.06,-228.27 1268.33,-246.34"/>
<polygon fill="black" stroke="black" points="1265.39,-248.25 1274.14,-254.24 1271.03,-244.11 1265.39,-248.25"/>
<text text-anchor="middle" x="1265.76" y="-217.7" font-family="Times New Roman,serif" font-size="14.00">is a</text>
</g>
<!-- node0031 -->
<g id="node32" class="node">
<title>node0031</title>
<ellipse fill="none" stroke="black" cx="1296" cy="-160.5" rx="36" ry="36"/>
<text text-anchor="middle" x="1296" y="-156.62" font-family="Times New Roman,serif" font-size="10.00">ResponseStates</text>
</g>
<!-- node0031&#45;&gt;node0007 -->
<g id="edge31" class="edge">
<title>node0031&#45;&gt;node0007</title>
<path fill="none" stroke="black" d="M1296,-196.93C1296,-209.5 1296,-223.85 1296,-237.22"/>
<polygon fill="black" stroke="black" points="1292.5,-237.13 1296,-247.13 1299.5,-237.13 1292.5,-237.13"/>
<text text-anchor="middle" x="1305.38" y="-217.7" font-family="Times New Roman,serif" font-size="14.00">is a</text>
</g>
<!-- node0032 -->
<g id="node33" class="node">
<title>node0032</title>
<ellipse fill="none" stroke="black" cx="1476" cy="-160.5" rx="36" ry="36"/>
<text text-anchor="middle" x="1476" y="-156.62" font-family="Times New Roman,serif" font-size="10.00">ResponsePlanElement</text>
</g>
<!-- node0032&#45;&gt;node0009 -->
<g id="edge32" class="edge">
<title>node0032&#45;&gt;node0009</title>
<path fill="none" stroke="black" d="M1476,-196.93C1476,-209.5 1476,-223.85 1476,-237.22"/>
<polygon fill="black" stroke="black" points="1472.5,-237.13 1476,-247.13 1479.5,-237.13 1472.5,-237.13"/>
<text text-anchor="middle" x="1485.38" y="-217.7" font-family="Times New Roman,serif" font-size="14.00">is a</text>
</g>
<!-- node0033 -->
<g id="node34" class="node">
<title>node0033</title>
<ellipse fill="none" stroke="black" cx="1622" cy="-160.5" rx="36" ry="36"/>
<text text-anchor="middle" x="1622" y="-156.62" font-family="Times New Roman,serif" font-size="10.00">EnvironmentElement</text>
</g>
<!-- node0033&#45;&gt;node0009 -->
<g id="edge33" class="edge">
<title>node0033&#45;&gt;node0009</title>
<path fill="none" stroke="black" d="M1594.54,-184.54C1571.19,-204.13 1537.49,-232.41 1511.99,-253.81"/>
<polygon fill="black" stroke="black" points="1509.91,-250.98 1504.5,-260.09 1514.41,-256.34 1509.91,-250.98"/>
<text text-anchor="middle" x="1567.12" y="-217.7" font-family="Times New Roman,serif" font-size="14.00">is a</text>
</g>
<!-- node0034 -->
<g id="node35" class="node">
<title>node0034</title>
<ellipse fill="none" stroke="black" cx="1746" cy="-160.5" rx="36" ry="36"/>
<text text-anchor="middle" x="1746" y="-156.62" font-family="Times New Roman,serif" font-size="10.00">AffectedElement</text>
</g>
<!-- node0034&#45;&gt;node0009 -->
<g id="edge34" class="edge">
<title>node0034&#45;&gt;node0009</title>
<path fill="none" stroke="black" d="M1713.45,-176.27C1699.25,-182.62 1682.35,-190.06 1667,-196.5 1628.64,-212.59 1619.26,-217.25 1580,-231 1554.13,-240.06 1545.34,-236.37 1521,-249 1518.12,-250.5 1515.23,-252.18 1512.4,-253.99"/>
<polygon fill="black" stroke="black" points="1510.49,-251.05 1504.25,-259.61 1514.47,-256.81 1510.49,-251.05"/>
<text text-anchor="middle" x="1633.21" y="-217.7" font-family="Times New Roman,serif" font-size="14.00">is a</text>
</g>
<!-- node0035 -->
<g id="node36" class="node">
<title>node0035</title>
<ellipse fill="none" stroke="black" cx="1836" cy="-160.5" rx="36" ry="36"/>
<text text-anchor="middle" x="1836" y="-156.62" font-family="Times New Roman,serif" font-size="10.00">HazardElement</text>
</g>
<!-- node0035&#45;&gt;node0009 -->
<g id="edge35" class="edge">
<title>node0035&#45;&gt;node0009</title>
<path fill="none" stroke="black" d="M1809.63,-184.97C1803.79,-189.29 1797.42,-193.41 1791,-196.5 1731.69,-225.01 1711.65,-218.67 1647,-231 1591.43,-241.6 1573.07,-226.89 1521,-249 1517.82,-250.35 1514.68,-251.98 1511.61,-253.79"/>
<polygon fill="black" stroke="black" points="1509.82,-250.78 1503.42,-259.23 1513.69,-256.61 1509.82,-250.78"/>
<text text-anchor="middle" x="1752.75" y="-217.7" font-family="Times New Roman,serif" font-size="14.00">is a</text>
</g>
<!-- node0036 -->
<g id="node37" class="node">
<title>node0036</title>
<ellipse fill="none" stroke="black" cx="1926" cy="-160.5" rx="36" ry="36"/>
<text text-anchor="middle" x="1926" y="-156.62" font-family="Times New Roman,serif" font-size="10.00">idleState</text>
</g>
<!-- node0036&#45;&gt;node0014 -->
<g id="edge36" class="edge">
<title>node0036&#45;&gt;node0014</title>
<path fill="none" stroke="black" d="M1926,-196.93C1926,-209.5 1926,-223.85 1926,-237.22"/>
<polygon fill="black" stroke="black" points="1922.5,-237.13 1926,-247.13 1929.5,-237.13 1922.5,-237.13"/>
<text text-anchor="middle" x="1935.38" y="-217.7" font-family="Times New Roman,serif" font-size="14.00">is a</text>
</g>
<!-- node0037 -->
<g id="node38" class="node">
<title>node0037</title>
<ellipse fill="none" stroke="black" cx="2016" cy="-160.5" rx="36" ry="36"/>
<text text-anchor="middle" x="2016" y="-156.62" font-family="Times New Roman,serif" font-size="10.00">implementState</text>
</g>
<!-- node0037&#45;&gt;node0014 -->
<g id="edge37" class="edge">
<title>node0037&#45;&gt;node0014</title>
<path fill="none" stroke="black" d="M1994.9,-190.22C1982.6,-206.96 1966.94,-228.27 1953.67,-246.34"/>
<polygon fill="black" stroke="black" points="1950.97,-244.11 1947.86,-254.24 1956.61,-248.25 1950.97,-244.11"/>
<text text-anchor="middle" x="1985.76" y="-217.7" font-family="Times New Roman,serif" font-size="14.00">is a</text>
</g>
<!-- node0038 -->
<g id="node39" class="node">
<title>node0038</title>
<ellipse fill="none" stroke="black" cx="756" cy="-36" rx="36" ry="36"/>
<text text-anchor="middle" x="756" y="-32.12" font-family="Times New Roman,serif" font-size="10.00">CollideState</text>
</g>
<!-- node0038&#45;&gt;node0029 -->
<g id="edge38" class="edge">
<title>node0038&#45;&gt;node0029</title>
<path fill="none" stroke="black" d="M783.18,-60.21C788.86,-64.46 794.96,-68.61 801,-72 838.81,-93.21 850.04,-96.58 892.25,-106.5 969.98,-124.77 996.87,-94.83 1071,-124.5 1074.2,-125.78 1077.37,-127.37 1080.45,-129.14"/>
<polygon fill="black" stroke="black" points="1078.38,-131.97 1088.66,-134.52 1082.22,-126.12 1078.38,-131.97"/>
<text text-anchor="middle" x="901.62" y="-93.2" font-family="Times New Roman,serif" font-size="14.00">is a</text>
</g>
<!-- node0039 -->
<g id="node40" class="node">
<title>node0039</title>
<ellipse fill="none" stroke="black" cx="846" cy="-36" rx="36" ry="36"/>
<text text-anchor="middle" x="846" y="-32.12" font-family="Times New Roman,serif" font-size="10.00">SpillState</text>
</g>
<!-- node0039&#45;&gt;node0029 -->
<g id="edge39" class="edge">
<title>node0039&#45;&gt;node0029</title>
<path fill="none" stroke="black" d="M873.78,-59.26C879.41,-63.58 885.34,-68.01 891,-72 914.36,-88.46 918.45,-96.59 945.25,-106.5 998.2,-126.09 1019.03,-102.43 1071,-124.5 1074.18,-125.85 1077.32,-127.48 1080.39,-129.29"/>
<polygon fill="black" stroke="black" points="1078.31,-132.11 1088.58,-134.73 1082.18,-126.28 1078.31,-132.11"/>
<text text-anchor="middle" x="954.62" y="-93.2" font-family="Times New Roman,serif" font-size="14.00">is a</text>
</g>
<!-- node0040 -->
<g id="node41" class="node">
<title>node0040</title>
<ellipse fill="none" stroke="black" cx="936" cy="-36" rx="36" ry="36"/>
<text text-anchor="middle" x="936" y="-32.12" font-family="Times New Roman,serif" font-size="10.00">DriveState</text>
</g>
<!-- node0040&#45;&gt;node0029 -->
<g id="edge40" class="edge">
<title>node0040&#45;&gt;node0029</title>
<path fill="none" stroke="black" d="M951.64,-68.89C959.85,-82.46 971.15,-97.25 985.25,-106.5 1017.81,-127.86 1035.67,-108.13 1071,-124.5 1074.13,-125.95 1077.25,-127.66 1080.29,-129.52"/>
<polygon fill="black" stroke="black" points="1078.2,-132.33 1088.44,-135.04 1082.13,-126.54 1078.2,-132.33"/>
<text text-anchor="middle" x="994.62" y="-93.2" font-family="Times New Roman,serif" font-size="14.00">is a</text>
</g>
<!-- node0041 -->
<g id="node42" class="node">
<title>node0041</title>
<ellipse fill="none" stroke="black" cx="1026" cy="-36" rx="36" ry="36"/>
<text text-anchor="middle" x="1026" y="-32.12" font-family="Times New Roman,serif" font-size="10.00">DrivingState</text>
</g>
<!-- node0041&#45;&gt;node0030 -->
<g id="edge41" class="edge">
<title>node0041&#45;&gt;node0030</title>
<path fill="none" stroke="black" d="M1053.66,-59.43C1059.3,-63.74 1065.26,-68.12 1071,-72 1109.36,-97.94 1122.64,-98.56 1161,-124.5 1163.69,-126.32 1166.43,-128.25 1169.16,-130.23"/>
<polygon fill="black" stroke="black" points="1167.02,-132.99 1177.13,-136.16 1171.2,-127.38 1167.02,-132.99"/>
<text text-anchor="middle" x="1139.61" y="-93.2" font-family="Times New Roman,serif" font-size="14.00">is a</text>
</g>
<!-- node0042 -->
<g id="node43" class="node">
<title>node0042</title>
<ellipse fill="none" stroke="black" cx="1116" cy="-36" rx="36" ry="36"/>
<text text-anchor="middle" x="1116" y="-32.12" font-family="Times New Roman,serif" font-size="10.00">CollidedState</text>
</g>
<!-- node0042&#45;&gt;node0030 -->
<g id="edge42" class="edge">
<title>node0042&#45;&gt;node0030</title>
<path fill="none" stroke="black" d="M1137.1,-65.72C1149.4,-82.46 1165.06,-103.77 1178.33,-121.84"/>
<polygon fill="black" stroke="black" points="1175.39,-123.75 1184.14,-129.74 1181.03,-119.61 1175.39,-123.75"/>
<text text-anchor="middle" x="1175.76" y="-93.2" font-family="Times New Roman,serif" font-size="14.00">is a</text>
</g>
<!-- node0043 -->
<g id="node44" class="node">
<title>node0043</title>
<ellipse fill="none" stroke="black" cx="1206" cy="-36" rx="36" ry="36"/>
<text text-anchor="middle" x="1206" y="-32.12" font-family="Times New Roman,serif" font-size="10.00">ExplodeState</text>
</g>
<!-- node0043&#45;&gt;node0030 -->
<g id="edge43" class="edge">
<title>node0043&#45;&gt;node0030</title>
<path fill="none" stroke="black" d="M1206,-72.43C1206,-85 1206,-99.35 1206,-112.72"/>
<polygon fill="black" stroke="black" points="1202.5,-112.63 1206,-122.63 1209.5,-112.63 1202.5,-112.63"/>
<text text-anchor="middle" x="1215.38" y="-93.2" font-family="Times New Roman,serif" font-size="14.00">is a</text>
</g>
<!-- node0044 -->
<g id="node45" class="node">
<title>node0044</title>
<ellipse fill="none" stroke="black" cx="1296" cy="-36" rx="36" ry="36"/>
<text text-anchor="middle" x="1296" y="-32.12" font-family="Times New Roman,serif" font-size="10.00">7</text>
</g>
<!-- node0044&#45;&gt;node0032 -->
<g id="edge44" class="edge">
<title>node0044&#45;&gt;node0032</title>
<path fill="none" stroke="black" d="M1323.8,-59.22C1329.43,-63.55 1335.35,-67.99 1341,-72 1372.22,-94.2 1408.74,-117.73 1435.92,-134.79"/>
<polygon fill="black" stroke="black" points="1433.86,-137.63 1444.2,-139.96 1437.57,-131.7 1433.86,-137.63"/>
<text text-anchor="middle" x="1397.9" y="-93.2" font-family="Times New Roman,serif" font-size="14.00">is a</text>
</g>
<!-- node0045 -->
<g id="node46" class="node">
<title>node0045</title>
<ellipse fill="none" stroke="black" cx="1386" cy="-36" rx="36" ry="36"/>
<text text-anchor="middle" x="1386" y="-32.12" font-family="Times New Roman,serif" font-size="10.00">8</text>
</g>
<!-- node0045&#45;&gt;node0032 -->
<g id="edge45" class="edge">
<title>node0045&#45;&gt;node0032</title>
<path fill="none" stroke="black" d="M1407.1,-65.72C1419.4,-82.46 1435.06,-103.77 1448.33,-121.84"/>
<polygon fill="black" stroke="black" points="1445.39,-123.75 1454.14,-129.74 1451.03,-119.61 1445.39,-123.75"/>
<text text-anchor="middle" x="1445.76" y="-93.2" font-family="Times New Roman,serif" font-size="14.00">is a</text>
</g>
<!-- node0046 -->
<g id="node47" class="node">
<title>node0046</title>
<ellipse fill="none" stroke="black" cx="1476" cy="-36" rx="36" ry="36"/>
<text text-anchor="middle" x="1476" y="-32.12" font-family="Times New Roman,serif" font-size="10.00">ResponseResource</text>
</g>
<!-- node0046&#45;&gt;node0032 -->
<g id="edge46" class="edge">
<title>node0046&#45;&gt;node0032</title>
<path fill="none" stroke="black" d="M1476,-72.43C1476,-85 1476,-99.35 1476,-112.72"/>
<polygon fill="black" stroke="black" points="1472.5,-112.63 1476,-122.63 1479.5,-112.63 1472.5,-112.63"/>
<text text-anchor="middle" x="1485.38" y="-93.2" font-family="Times New Roman,serif" font-size="14.00">is a</text>
</g>
<!-- node0047 -->
<g id="node48" class="node">
<title>node0047</title>
<ellipse fill="none" stroke="black" cx="1566" cy="-36" rx="36" ry="36"/>
<text text-anchor="middle" x="1566" y="-32.12" font-family="Times New Roman,serif" font-size="10.00">ResponseAction</text>
</g>
<!-- node0047&#45;&gt;node0032 -->
<g id="edge47" class="edge">
<title>node0047&#45;&gt;node0032</title>
<path fill="none" stroke="black" d="M1544.9,-65.72C1532.6,-82.46 1516.94,-103.77 1503.67,-121.84"/>
<polygon fill="black" stroke="black" points="1500.97,-119.61 1497.86,-129.74 1506.61,-123.75 1500.97,-119.61"/>
<text text-anchor="middle" x="1535.76" y="-93.2" font-family="Times New Roman,serif" font-size="14.00">is a</text>
</g>
<!-- node0048 -->
<g id="node49" class="node">
<title>node0048</title>
<ellipse fill="none" stroke="black" cx="1656" cy="-36" rx="36" ry="36"/>
<text text-anchor="middle" x="1656" y="-32.12" font-family="Times New Roman,serif" font-size="10.00">5</text>
</g>
<!-- node0048&#45;&gt;node0033 -->
<g id="edge48" class="edge">
<title>node0048&#45;&gt;node0033</title>
<path fill="none" stroke="black" d="M1646.53,-71.12C1642.77,-84.66 1638.4,-100.42 1634.39,-114.85"/>
<polygon fill="black" stroke="black" points="1631.13,-113.53 1631.82,-124.1 1637.87,-115.4 1631.13,-113.53"/>
<text text-anchor="middle" x="1650.41" y="-93.2" font-family="Times New Roman,serif" font-size="14.00">is a</text>
</g>
<!-- node0049 -->
<g id="node50" class="node">
<title>node0049</title>
<ellipse fill="none" stroke="black" cx="1746" cy="-36" rx="36" ry="36"/>
<text text-anchor="middle" x="1746" y="-32.12" font-family="Times New Roman,serif" font-size="10.00">Road</text>
</g>
<!-- node0049&#45;&gt;node0034 -->
<g id="edge49" class="edge">
<title>node0049&#45;&gt;node0034</title>
<path fill="none" stroke="black" d="M1746,-72.43C1746,-85 1746,-99.35 1746,-112.72"/>
<polygon fill="black" stroke="black" points="1742.5,-112.63 1746,-122.63 1749.5,-112.63 1742.5,-112.63"/>
<text text-anchor="middle" x="1755.38" y="-93.2" font-family="Times New Roman,serif" font-size="14.00">is a</text>
</g>
<!-- node0050 -->
<g id="node51" class="node">
<title>node0050</title>
<ellipse fill="none" stroke="black" cx="1836" cy="-36" rx="36" ry="36"/>
<text text-anchor="middle" x="1836" y="-32.12" font-family="Times New Roman,serif" font-size="10.00">3</text>
</g>
<!-- node0050&#45;&gt;node0034 -->
<g id="edge50" class="edge">
<title>node0050&#45;&gt;node0034</title>
<path fill="none" stroke="black" d="M1814.9,-65.72C1802.6,-82.46 1786.94,-103.77 1773.67,-121.84"/>
<polygon fill="black" stroke="black" points="1770.97,-119.61 1767.86,-129.74 1776.61,-123.75 1770.97,-119.61"/>
<text text-anchor="middle" x="1805.76" y="-93.2" font-family="Times New Roman,serif" font-size="14.00">is a</text>
</g>
<!-- node0051 -->
<g id="node52" class="node">
<title>node0051</title>
<ellipse fill="none" stroke="black" cx="1926" cy="-36" rx="36" ry="36"/>
<text text-anchor="middle" x="1926" y="-32.12" font-family="Times New Roman,serif" font-size="10.00">HazardVehicle</text>
</g>
<!-- node0051&#45;&gt;node0034 -->
<g id="edge51" class="edge">
<title>node0051&#45;&gt;node0034</title>
<path fill="none" stroke="black" d="M1898.34,-59.43C1892.7,-63.74 1886.74,-68.12 1881,-72 1842.64,-97.94 1829.36,-98.56 1791,-124.5 1788.31,-126.32 1785.57,-128.25 1782.84,-130.23"/>
<polygon fill="black" stroke="black" points="1780.8,-127.38 1774.87,-136.16 1784.98,-132.99 1780.8,-127.38"/>
<text text-anchor="middle" x="1859.61" y="-93.2" font-family="Times New Roman,serif" font-size="14.00">is a</text>
</g>
<!-- node0052 -->
<g id="node53" class="node">
<title>node0052</title>
<ellipse fill="none" stroke="black" cx="2016" cy="-36" rx="36" ry="36"/>
<text text-anchor="middle" x="2016" y="-32.12" font-family="Times New Roman,serif" font-size="10.00">6</text>
</g>
<!-- node0052&#45;&gt;node0035 -->
<g id="edge52" class="edge">
<title>node0052&#45;&gt;node0035</title>
<path fill="none" stroke="black" d="M1988.34,-59.43C1982.7,-63.74 1976.74,-68.12 1971,-72 1932.64,-97.94 1919.36,-98.56 1881,-124.5 1878.31,-126.32 1875.57,-128.25 1872.84,-130.23"/>
<polygon fill="black" stroke="black" points="1870.8,-127.38 1864.87,-136.16 1874.98,-132.99 1870.8,-127.38"/>
<text text-anchor="middle" x="1949.61" y="-93.2" font-family="Times New Roman,serif" font-size="14.00">is a</text>
</g>
</g>
</svg>
