<?xml version="1.0" encoding="UTF-8" standalone="no"?>
<!DOCTYPE svg PUBLIC "-//W3C//DTD SVG 1.1//EN"
 "http://www.w3.org/Graphics/SVG/1.1/DTD/svg11.dtd">
<!-- Generated by graphviz version 12.1.2 (20240928.0832)
 -->
<!-- Title: G Pages: 1 -->
<svg width="1880pt" height="454pt"
 viewBox="0.00 0.00 1880.00 453.50" xmlns="http://www.w3.org/2000/svg" xmlns:xlink="http://www.w3.org/1999/xlink">
<g id="graph0" class="graph" transform="scale(1 1) rotate(0) translate(4 449.5)">
<title>G</title>
<polygon fill="white" stroke="none" points="-4,4 -4,-449.5 1876,-449.5 1876,4 -4,4"/>
<!-- node0000 -->
<g id="node1" class="node">
<title>node0000</title>
<ellipse fill="none" stroke="black" cx="963" cy="-409.5" rx="36" ry="36"/>
<text text-anchor="middle" x="963" y="-405.62" font-family="Times New Roman,serif" font-size="10.00">Thing</text>
</g>
<!-- node0001 -->
<g id="node2" class="node">
<title>node0001</title>
<ellipse fill="none" stroke="black" cx="126" cy="-285" rx="36" ry="36"/>
<text text-anchor="middle" x="126" y="-281.12" font-family="Times New Roman,serif" font-size="10.00">169</text>
</g>
<!-- node0001&#45;&gt;node0000 -->
<g id="edge1" class="edge">
<title>node0001&#45;&gt;node0000</title>
<path fill="none" stroke="black" d="M152.22,-309.78C158.07,-314.09 164.48,-318.12 171,-321 252.78,-357.2 280.58,-343.85 369.25,-355.5 571.59,-382.09 814.5,-399.16 915.43,-405.6"/>
<polygon fill="black" stroke="black" points="915.03,-409.09 925.23,-406.22 915.47,-402.1 915.03,-409.09"/>
<text text-anchor="middle" x="378.62" y="-342.2" font-family="Times New Roman,serif" font-size="14.00">is a</text>
</g>
<!-- node0002 -->
<g id="node3" class="node">
<title>node0002</title>
<ellipse fill="none" stroke="black" cx="216" cy="-285" rx="36" ry="36"/>
<text text-anchor="middle" x="216" y="-281.12" font-family="Times New Roman,serif" font-size="10.00">Scenario</text>
</g>
<!-- node0002&#45;&gt;node0000 -->
<g id="edge2" class="edge">
<title>node0002&#45;&gt;node0000</title>
<path fill="none" stroke="black" d="M249.79,-297.67C296.36,-313.3 383.15,-340.74 459.25,-355.5 624.91,-387.63 825.25,-401.37 915.21,-406.24"/>
<polygon fill="black" stroke="black" points="914.96,-409.73 925.13,-406.76 915.33,-402.74 914.96,-409.73"/>
<text text-anchor="middle" x="468.62" y="-342.2" font-family="Times New Roman,serif" font-size="14.00">is a</text>
</g>
<!-- node0003 -->
<g id="node4" class="node">
<title>node0003</title>
<ellipse fill="none" stroke="black" cx="396" cy="-285" rx="36" ry="36"/>
<text text-anchor="middle" x="396" y="-281.12" font-family="Times New Roman,serif" font-size="10.00">ScenarioResilience</text>
</g>
<!-- node0003&#45;&gt;node0000 -->
<g id="edge3" class="edge">
<title>node0003&#45;&gt;node0000</title>
<path fill="none" stroke="black" d="M423.02,-309.51C428.71,-313.73 434.86,-317.8 441,-321 486.9,-344.95 501.67,-344.48 552.25,-355.5 682.22,-383.82 838.85,-398.89 915.74,-405.07"/>
<polygon fill="black" stroke="black" points="915.18,-408.53 925.42,-405.83 915.73,-401.55 915.18,-408.53"/>
<text text-anchor="middle" x="561.62" y="-342.2" font-family="Times New Roman,serif" font-size="14.00">is a</text>
</g>
<!-- node0004 -->
<g id="node5" class="node">
<title>node0004</title>
<ellipse fill="none" stroke="black" cx="486" cy="-285" rx="36" ry="36"/>
<text text-anchor="middle" x="486" y="-281.12" font-family="Times New Roman,serif" font-size="10.00">InvolvedScenarioElement</text>
</g>
<!-- node0004&#45;&gt;node0000 -->
<g id="edge4" class="edge">
<title>node0004&#45;&gt;node0000</title>
<path fill="none" stroke="black" d="M512.29,-309.64C518.13,-313.96 524.52,-318.03 531,-321 661.74,-381.03 833.44,-400.08 915.43,-405.97"/>
<polygon fill="black" stroke="black" points="915.14,-409.45 925.35,-406.64 915.61,-402.47 915.14,-409.45"/>
<text text-anchor="middle" x="630.31" y="-342.2" font-family="Times New Roman,serif" font-size="14.00">is a</text>
</g>
<!-- node0005 -->
<g id="node6" class="node">
<title>node0005</title>
<ellipse fill="none" stroke="black" cx="576" cy="-285" rx="36" ry="36"/>
<text text-anchor="middle" x="576" y="-281.12" font-family="Times New Roman,serif" font-size="10.00">ResilienceInfluentialFactors</text>
</g>
<!-- node0005&#45;&gt;node0000 -->
<g id="edge5" class="edge">
<title>node0005&#45;&gt;node0000</title>
<path fill="none" stroke="black" d="M610.34,-296.87C680.34,-319.03 839.49,-369.41 917.79,-394.19"/>
<polygon fill="black" stroke="black" points="916.7,-397.52 927.29,-397.2 918.81,-390.84 916.7,-397.52"/>
<text text-anchor="middle" x="802.05" y="-342.2" font-family="Times New Roman,serif" font-size="14.00">is a</text>
</g>
<!-- node0006 -->
<g id="node7" class="node">
<title>node0006</title>
<ellipse fill="none" stroke="black" cx="846" cy="-285" rx="36" ry="36"/>
<text text-anchor="middle" x="846" y="-281.12" font-family="Times New Roman,serif" font-size="10.00">ScenarioElement</text>
</g>
<!-- node0006&#45;&gt;node0000 -->
<g id="edge6" class="edge">
<title>node0006&#45;&gt;node0000</title>
<path fill="none" stroke="black" d="M870.53,-311.68C888,-329.97 911.66,-354.75 930.67,-374.65"/>
<polygon fill="black" stroke="black" points="928.02,-376.95 937.46,-381.76 933.08,-372.11 928.02,-376.95"/>
<text text-anchor="middle" x="920.88" y="-342.2" font-family="Times New Roman,serif" font-size="14.00">is a</text>
</g>
<!-- node0007 -->
<g id="node8" class="node">
<title>node0007</title>
<ellipse fill="none" stroke="black" cx="1161" cy="-285" rx="36" ry="36"/>
<text text-anchor="middle" x="1161" y="-281.12" font-family="Times New Roman,serif" font-size="10.00">ElementCompositions</text>
</g>
<!-- node0007&#45;&gt;node0000 -->
<g id="edge7" class="edge">
<title>node0007&#45;&gt;node0000</title>
<path fill="none" stroke="black" d="M1130.5,-304.87C1096.34,-326 1040.85,-360.34 1003.18,-383.64"/>
<polygon fill="black" stroke="black" points="1001.49,-380.57 994.83,-388.81 1005.17,-386.53 1001.49,-380.57"/>
<text text-anchor="middle" x="1083.23" y="-342.2" font-family="Times New Roman,serif" font-size="14.00">is a</text>
</g>
<!-- node0008 -->
<g id="node9" class="node">
<title>node0008</title>
<ellipse fill="none" stroke="black" cx="1386" cy="-285" rx="36" ry="36"/>
<text text-anchor="middle" x="1386" y="-281.12" font-family="Times New Roman,serif" font-size="10.00">ElementState</text>
</g>
<!-- node0008&#45;&gt;node0000 -->
<g id="edge8" class="edge">
<title>node0008&#45;&gt;node0000</title>
<path fill="none" stroke="black" d="M1351.38,-296.02C1275.28,-318.06 1093.45,-370.72 1008.36,-395.36"/>
<polygon fill="black" stroke="black" points="1007.59,-391.94 998.95,-398.09 1009.53,-398.67 1007.59,-391.94"/>
<text text-anchor="middle" x="1209.2" y="-342.2" font-family="Times New Roman,serif" font-size="14.00">is a</text>
</g>
<!-- node0009 -->
<g id="node10" class="node">
<title>node0009</title>
<ellipse fill="none" stroke="black" cx="1476" cy="-285" rx="36" ry="36"/>
<text text-anchor="middle" x="1476" y="-281.12" font-family="Times New Roman,serif" font-size="10.00">aidStates</text>
</g>
<!-- node0009&#45;&gt;node0000 -->
<g id="edge9" class="edge">
<title>node0009&#45;&gt;node0000</title>
<path fill="none" stroke="black" d="M1449.75,-309.72C1443.9,-314.03 1437.5,-318.08 1431,-321 1287.24,-385.71 1097.91,-402.57 1010.71,-406.96"/>
<polygon fill="black" stroke="black" points="1010.69,-403.45 1000.86,-407.41 1011.02,-410.45 1010.69,-403.45"/>
<text text-anchor="middle" x="1392.67" y="-342.2" font-family="Times New Roman,serif" font-size="14.00">is a</text>
</g>
<!-- node0010 -->
<g id="node11" class="node">
<title>node0010</title>
<ellipse fill="none" stroke="black" cx="1566" cy="-285" rx="36" ry="36"/>
<text text-anchor="middle" x="1566" y="-281.12" font-family="Times New Roman,serif" font-size="10.00">firefightingStates</text>
</g>
<!-- node0010&#45;&gt;node0000 -->
<g id="edge10" class="edge">
<title>node0010&#45;&gt;node0000</title>
<path fill="none" stroke="black" d="M1539,-309.55C1533.31,-313.77 1527.16,-317.82 1521,-321 1473.58,-345.46 1458.24,-344.62 1406,-355.5 1263.79,-385.11 1092.21,-399.78 1010.6,-405.51"/>
<polygon fill="black" stroke="black" points="1010.48,-402.01 1000.74,-406.19 1010.96,-408.99 1010.48,-402.01"/>
<text text-anchor="middle" x="1488.41" y="-342.2" font-family="Times New Roman,serif" font-size="14.00">is a</text>
</g>
<!-- node0011 -->
<g id="node12" class="node">
<title>node0011</title>
<ellipse fill="none" stroke="black" cx="1656" cy="-285" rx="36" ry="36"/>
<text text-anchor="middle" x="1656" y="-281.12" font-family="Times New Roman,serif" font-size="10.00">rescueStates</text>
</g>
<!-- node0011&#45;&gt;node0000 -->
<g id="edge11" class="edge">
<title>node0011&#45;&gt;node0000</title>
<path fill="none" stroke="black" d="M1628.97,-309.48C1623.28,-313.7 1617.13,-317.78 1611,-321 1566.02,-344.64 1551.78,-345.29 1502,-355.5 1323.13,-392.18 1105.47,-403.71 1010.8,-407.14"/>
<polygon fill="black" stroke="black" points="1010.73,-403.64 1000.86,-407.48 1010.97,-410.63 1010.73,-403.64"/>
<text text-anchor="middle" x="1580.65" y="-342.2" font-family="Times New Roman,serif" font-size="14.00">is a</text>
</g>
<!-- node0012 -->
<g id="node13" class="node">
<title>node0012</title>
<ellipse fill="none" stroke="black" cx="1746" cy="-285" rx="36" ry="36"/>
<text text-anchor="middle" x="1746" y="-281.12" font-family="Times New Roman,serif" font-size="10.00">towStates</text>
</g>
<!-- node0012&#45;&gt;node0000 -->
<g id="edge12" class="edge">
<title>node0012&#45;&gt;node0000</title>
<path fill="none" stroke="black" d="M1718.95,-309.45C1713.26,-313.68 1707.12,-317.76 1701,-321 1656.83,-344.36 1642.99,-345.68 1594,-355.5 1379.2,-398.56 1116.45,-406.7 1010.57,-408.19"/>
<polygon fill="black" stroke="black" points="1010.8,-404.69 1000.85,-408.31 1010.89,-411.69 1010.8,-404.69"/>
<text text-anchor="middle" x="1671.41" y="-342.2" font-family="Times New Roman,serif" font-size="14.00">is a</text>
</g>
<!-- node0013 -->
<g id="node14" class="node">
<title>node0013</title>
<ellipse fill="none" stroke="black" cx="36" cy="-160.5" rx="36" ry="36"/>
<text text-anchor="middle" x="36" y="-156.62" font-family="Times New Roman,serif" font-size="10.00">AdaptionScenario</text>
</g>
<!-- node0013&#45;&gt;node0002 -->
<g id="edge13" class="edge">
<title>node0013&#45;&gt;node0002</title>
<path fill="none" stroke="black" d="M63.66,-183.93C69.3,-188.24 75.26,-192.62 81,-196.5 119.36,-222.44 132.64,-223.06 171,-249 173.69,-250.82 176.43,-252.75 179.16,-254.73"/>
<polygon fill="black" stroke="black" points="177.02,-257.49 187.13,-260.66 181.2,-251.88 177.02,-257.49"/>
<text text-anchor="middle" x="149.61" y="-217.7" font-family="Times New Roman,serif" font-size="14.00">is a</text>
</g>
<!-- node0014 -->
<g id="node15" class="node">
<title>node0014</title>
<ellipse fill="none" stroke="black" cx="126" cy="-160.5" rx="36" ry="36"/>
<text text-anchor="middle" x="126" y="-156.62" font-family="Times New Roman,serif" font-size="10.00">AbsorptionScenario</text>
</g>
<!-- node0014&#45;&gt;node0002 -->
<g id="edge14" class="edge">
<title>node0014&#45;&gt;node0002</title>
<path fill="none" stroke="black" d="M147.1,-190.22C159.4,-206.96 175.06,-228.27 188.33,-246.34"/>
<polygon fill="black" stroke="black" points="185.39,-248.25 194.14,-254.24 191.03,-244.11 185.39,-248.25"/>
<text text-anchor="middle" x="185.76" y="-217.7" font-family="Times New Roman,serif" font-size="14.00">is a</text>
</g>
<!-- node0015 -->
<g id="node16" class="node">
<title>node0015</title>
<ellipse fill="none" stroke="black" cx="216" cy="-160.5" rx="36" ry="36"/>
<text text-anchor="middle" x="216" y="-156.62" font-family="Times New Roman,serif" font-size="10.00">RecoveryScenario</text>
</g>
<!-- node0015&#45;&gt;node0002 -->
<g id="edge15" class="edge">
<title>node0015&#45;&gt;node0002</title>
<path fill="none" stroke="black" d="M216,-196.93C216,-209.5 216,-223.85 216,-237.22"/>
<polygon fill="black" stroke="black" points="212.5,-237.13 216,-247.13 219.5,-237.13 212.5,-237.13"/>
<text text-anchor="middle" x="225.38" y="-217.7" font-family="Times New Roman,serif" font-size="14.00">is a</text>
</g>
<!-- node0016 -->
<g id="node17" class="node">
<title>node0016</title>
<ellipse fill="none" stroke="black" cx="306" cy="-160.5" rx="36" ry="36"/>
<text text-anchor="middle" x="306" y="-156.62" font-family="Times New Roman,serif" font-size="10.00">SafetyFactors</text>
</g>
<!-- node0016&#45;&gt;node0005 -->
<g id="edge16" class="edge">
<title>node0016&#45;&gt;node0005</title>
<path fill="none" stroke="black" d="M333.11,-184.83C338.8,-189.06 344.92,-193.18 351,-196.5 391.63,-218.66 404.74,-218.33 449.25,-231 485.03,-241.18 497.32,-233.19 531,-249 534.12,-250.47 537.23,-252.18 540.27,-254.05"/>
<polygon fill="black" stroke="black" points="538.18,-256.87 548.42,-259.59 542.12,-251.08 538.18,-256.87"/>
<text text-anchor="middle" x="458.62" y="-217.7" font-family="Times New Roman,serif" font-size="14.00">is a</text>
</g>
<!-- node0017 -->
<g id="node18" class="node">
<title>node0017</title>
<ellipse fill="none" stroke="black" cx="396" cy="-160.5" rx="36" ry="36"/>
<text text-anchor="middle" x="396" y="-156.62" font-family="Times New Roman,serif" font-size="10.00">FunctionFactors</text>
</g>
<!-- node0017&#45;&gt;node0005 -->
<g id="edge17" class="edge">
<title>node0017&#45;&gt;node0005</title>
<path fill="none" stroke="black" d="M423.66,-183.93C429.3,-188.24 435.26,-192.62 441,-196.5 479.36,-222.44 492.64,-223.06 531,-249 533.69,-250.82 536.43,-252.75 539.16,-254.73"/>
<polygon fill="black" stroke="black" points="537.02,-257.49 547.13,-260.66 541.2,-251.88 537.02,-257.49"/>
<text text-anchor="middle" x="509.61" y="-217.7" font-family="Times New Roman,serif" font-size="14.00">is a</text>
</g>
<!-- node0018 -->
<g id="node19" class="node">
<title>node0018</title>
<ellipse fill="none" stroke="black" cx="486" cy="-160.5" rx="36" ry="36"/>
<text text-anchor="middle" x="486" y="-156.62" font-family="Times New Roman,serif" font-size="10.00">EconomicFactors</text>
</g>
<!-- node0018&#45;&gt;node0005 -->
<g id="edge18" class="edge">
<title>node0018&#45;&gt;node0005</title>
<path fill="none" stroke="black" d="M507.1,-190.22C519.4,-206.96 535.06,-228.27 548.33,-246.34"/>
<polygon fill="black" stroke="black" points="545.39,-248.25 554.14,-254.24 551.03,-244.11 545.39,-248.25"/>
<text text-anchor="middle" x="545.76" y="-217.7" font-family="Times New Roman,serif" font-size="14.00">is a</text>
</g>
<!-- node0019 -->
<g id="node20" class="node">
<title>node0019</title>
<ellipse fill="none" stroke="black" cx="576" cy="-160.5" rx="36" ry="36"/>
<text text-anchor="middle" x="576" y="-156.62" font-family="Times New Roman,serif" font-size="10.00">TimeFactors</text>
</g>
<!-- node0019&#45;&gt;node0005 -->
<g id="edge19" class="edge">
<title>node0019&#45;&gt;node0005</title>
<path fill="none" stroke="black" d="M576,-196.93C576,-209.5 576,-223.85 576,-237.22"/>
<polygon fill="black" stroke="black" points="572.5,-237.13 576,-247.13 579.5,-237.13 572.5,-237.13"/>
<text text-anchor="middle" x="585.38" y="-217.7" font-family="Times New Roman,serif" font-size="14.00">is a</text>
</g>
<!-- node0020 -->
<g id="node21" class="node">
<title>node0020</title>
<ellipse fill="none" stroke="black" cx="666" cy="-160.5" rx="36" ry="36"/>
<text text-anchor="middle" x="666" y="-156.62" font-family="Times New Roman,serif" font-size="10.00">AffectedElement</text>
</g>
<!-- node0020&#45;&gt;node0006 -->
<g id="edge20" class="edge">
<title>node0020&#45;&gt;node0006</title>
<path fill="none" stroke="black" d="M693.8,-183.72C699.43,-188.05 705.35,-192.49 711,-196.5 742.22,-218.7 778.74,-242.23 805.92,-259.29"/>
<polygon fill="black" stroke="black" points="803.86,-262.13 814.2,-264.46 807.57,-256.2 803.86,-262.13"/>
<text text-anchor="middle" x="767.9" y="-217.7" font-family="Times New Roman,serif" font-size="14.00">is a</text>
</g>
<!-- node0021 -->
<g id="node22" class="node">
<title>node0021</title>
<ellipse fill="none" stroke="black" cx="756" cy="-160.5" rx="36" ry="36"/>
<text text-anchor="middle" x="756" y="-156.62" font-family="Times New Roman,serif" font-size="10.00">HazardElement</text>
</g>
<!-- node0021&#45;&gt;node0006 -->
<g id="edge21" class="edge">
<title>node0021&#45;&gt;node0006</title>
<path fill="none" stroke="black" d="M777.1,-190.22C789.4,-206.96 805.06,-228.27 818.33,-246.34"/>
<polygon fill="black" stroke="black" points="815.39,-248.25 824.14,-254.24 821.03,-244.11 815.39,-248.25"/>
<text text-anchor="middle" x="815.76" y="-217.7" font-family="Times New Roman,serif" font-size="14.00">is a</text>
</g>
<!-- node0022 -->
<g id="node23" class="node">
<title>node0022</title>
<ellipse fill="none" stroke="black" cx="846" cy="-160.5" rx="36" ry="36"/>
<text text-anchor="middle" x="846" y="-156.62" font-family="Times New Roman,serif" font-size="10.00">EnvironmentElement</text>
</g>
<!-- node0022&#45;&gt;node0006 -->
<g id="edge22" class="edge">
<title>node0022&#45;&gt;node0006</title>
<path fill="none" stroke="black" d="M846,-196.93C846,-209.5 846,-223.85 846,-237.22"/>
<polygon fill="black" stroke="black" points="842.5,-237.13 846,-247.13 849.5,-237.13 842.5,-237.13"/>
<text text-anchor="middle" x="855.38" y="-217.7" font-family="Times New Roman,serif" font-size="14.00">is a</text>
</g>
<!-- node0023 -->
<g id="node24" class="node">
<title>node0023</title>
<ellipse fill="none" stroke="black" cx="936" cy="-160.5" rx="36" ry="36"/>
<text text-anchor="middle" x="936" y="-156.62" font-family="Times New Roman,serif" font-size="10.00">ResponsePlanElement</text>
</g>
<!-- node0023&#45;&gt;node0006 -->
<g id="edge23" class="edge">
<title>node0023&#45;&gt;node0006</title>
<path fill="none" stroke="black" d="M914.9,-190.22C902.6,-206.96 886.94,-228.27 873.67,-246.34"/>
<polygon fill="black" stroke="black" points="870.97,-244.11 867.86,-254.24 876.61,-248.25 870.97,-244.11"/>
<text text-anchor="middle" x="905.76" y="-217.7" font-family="Times New Roman,serif" font-size="14.00">is a</text>
</g>
<!-- node0024 -->
<g id="node25" class="node">
<title>node0024</title>
<ellipse fill="none" stroke="black" cx="1026" cy="-160.5" rx="36" ry="36"/>
<text text-anchor="middle" x="1026" y="-156.62" font-family="Times New Roman,serif" font-size="10.00">VehicleCargo</text>
</g>
<!-- node0024&#45;&gt;node0007 -->
<g id="edge24" class="edge">
<title>node0024&#45;&gt;node0007</title>
<path fill="none" stroke="black" d="M1052.35,-185.41C1073.44,-204.55 1103.2,-231.56 1126.25,-252.46"/>
<polygon fill="black" stroke="black" points="1123.84,-255.01 1133.6,-259.13 1128.54,-249.82 1123.84,-255.01"/>
<text text-anchor="middle" x="1110.96" y="-217.7" font-family="Times New Roman,serif" font-size="14.00">is a</text>
</g>
<!-- node0025 -->
<g id="node26" class="node">
<title>node0025</title>
<ellipse fill="none" stroke="black" cx="1116" cy="-160.5" rx="36" ry="36"/>
<text text-anchor="middle" x="1116" y="-156.62" font-family="Times New Roman,serif" font-size="10.00">VehiclePassengers</text>
</g>
<!-- node0025&#45;&gt;node0007 -->
<g id="edge25" class="edge">
<title>node0025&#45;&gt;node0007</title>
<path fill="none" stroke="black" d="M1128.18,-194.65C1133.33,-208.68 1139.4,-225.21 1144.92,-240.22"/>
<polygon fill="black" stroke="black" points="1141.56,-241.22 1148.29,-249.4 1148.13,-238.81 1141.56,-241.22"/>
<text text-anchor="middle" x="1150.57" y="-217.7" font-family="Times New Roman,serif" font-size="14.00">is a</text>
</g>
<!-- node0026 -->
<g id="node27" class="node">
<title>node0026</title>
<ellipse fill="none" stroke="black" cx="1206" cy="-160.5" rx="36" ry="36"/>
<text text-anchor="middle" x="1206" y="-156.62" font-family="Times New Roman,serif" font-size="10.00">VehicleComponents</text>
</g>
<!-- node0026&#45;&gt;node0007 -->
<g id="edge26" class="edge">
<title>node0026&#45;&gt;node0007</title>
<path fill="none" stroke="black" d="M1193.82,-194.65C1188.67,-208.68 1182.6,-225.21 1177.08,-240.22"/>
<polygon fill="black" stroke="black" points="1173.87,-238.81 1173.71,-249.4 1180.44,-241.22 1173.87,-238.81"/>
<text text-anchor="middle" x="1195.57" y="-217.7" font-family="Times New Roman,serif" font-size="14.00">is a</text>
</g>
<!-- node0027 -->
<g id="node28" class="node">
<title>node0027</title>
<ellipse fill="none" stroke="black" cx="1296" cy="-160.5" rx="36" ry="36"/>
<text text-anchor="middle" x="1296" y="-156.62" font-family="Times New Roman,serif" font-size="10.00">IncludedLanes</text>
</g>
<!-- node0027&#45;&gt;node0007 -->
<g id="edge27" class="edge">
<title>node0027&#45;&gt;node0007</title>
<path fill="none" stroke="black" d="M1269.65,-185.41C1248.56,-204.55 1218.8,-231.56 1195.75,-252.46"/>
<polygon fill="black" stroke="black" points="1193.46,-249.82 1188.4,-259.13 1198.16,-255.01 1193.46,-249.82"/>
<text text-anchor="middle" x="1245.96" y="-217.7" font-family="Times New Roman,serif" font-size="14.00">is a</text>
</g>
<!-- node0028 -->
<g id="node29" class="node">
<title>node0028</title>
<ellipse fill="none" stroke="black" cx="1386" cy="-160.5" rx="36" ry="36"/>
<text text-anchor="middle" x="1386" y="-156.62" font-family="Times New Roman,serif" font-size="10.00">IncludedFacilities</text>
</g>
<!-- node0028&#45;&gt;node0007 -->
<g id="edge28" class="edge">
<title>node0028&#45;&gt;node0007</title>
<path fill="none" stroke="black" d="M1358.57,-184.28C1352.91,-188.56 1346.88,-192.84 1341,-196.5 1296.57,-224.16 1242.1,-249.56 1204.8,-265.79"/>
<polygon fill="black" stroke="black" points="1203.47,-262.55 1195.67,-269.72 1206.24,-268.98 1203.47,-262.55"/>
<text text-anchor="middle" x="1317.32" y="-217.7" font-family="Times New Roman,serif" font-size="14.00">is a</text>
</g>
<!-- node0029 -->
<g id="node30" class="node">
<title>node0029</title>
<ellipse fill="none" stroke="black" cx="1476" cy="-160.5" rx="36" ry="36"/>
<text text-anchor="middle" x="1476" y="-156.62" font-family="Times New Roman,serif" font-size="10.00">AffectedStates</text>
</g>
<!-- node0029&#45;&gt;node0008 -->
<g id="edge29" class="edge">
<title>node0029&#45;&gt;node0008</title>
<path fill="none" stroke="black" d="M1454.9,-190.22C1442.6,-206.96 1426.94,-228.27 1413.67,-246.34"/>
<polygon fill="black" stroke="black" points="1410.97,-244.11 1407.86,-254.24 1416.61,-248.25 1410.97,-244.11"/>
<text text-anchor="middle" x="1445.76" y="-217.7" font-family="Times New Roman,serif" font-size="14.00">is a</text>
</g>
<!-- node0030 -->
<g id="node31" class="node">
<title>node0030</title>
<ellipse fill="none" stroke="black" cx="1566" cy="-160.5" rx="36" ry="36"/>
<text text-anchor="middle" x="1566" y="-156.62" font-family="Times New Roman,serif" font-size="10.00">HazardStates</text>
</g>
<!-- node0030&#45;&gt;node0008 -->
<g id="edge30" class="edge">
<title>node0030&#45;&gt;node0008</title>
<path fill="none" stroke="black" d="M1538.34,-183.93C1532.7,-188.24 1526.74,-192.62 1521,-196.5 1482.64,-222.44 1469.36,-223.06 1431,-249 1428.31,-250.82 1425.57,-252.75 1422.84,-254.73"/>
<polygon fill="black" stroke="black" points="1420.8,-251.88 1414.87,-260.66 1424.98,-257.49 1420.8,-251.88"/>
<text text-anchor="middle" x="1499.61" y="-217.7" font-family="Times New Roman,serif" font-size="14.00">is a</text>
</g>
<!-- node0031 -->
<g id="node32" class="node">
<title>node0031</title>
<ellipse fill="none" stroke="black" cx="1656" cy="-160.5" rx="36" ry="36"/>
<text text-anchor="middle" x="1656" y="-156.62" font-family="Times New Roman,serif" font-size="10.00">ResponseStates</text>
</g>
<!-- node0031&#45;&gt;node0008 -->
<g id="edge31" class="edge">
<title>node0031&#45;&gt;node0008</title>
<path fill="none" stroke="black" d="M1628.88,-184.82C1623.2,-189.06 1617.08,-193.18 1611,-196.5 1570.47,-218.63 1557.41,-218.36 1513,-231 1477.11,-241.21 1464.78,-233.16 1431,-249 1427.87,-250.47 1424.77,-252.18 1421.73,-254.05"/>
<polygon fill="black" stroke="black" points="1419.88,-251.07 1413.58,-259.59 1423.82,-256.86 1419.88,-251.07"/>
<text text-anchor="middle" x="1581.16" y="-217.7" font-family="Times New Roman,serif" font-size="14.00">is a</text>
</g>
<!-- node0032 -->
<g id="node33" class="node">
<title>node0032</title>
<ellipse fill="none" stroke="black" cx="1746" cy="-160.5" rx="36" ry="36"/>
<text text-anchor="middle" x="1746" y="-156.62" font-family="Times New Roman,serif" font-size="10.00">idleState</text>
</g>
<!-- node0032&#45;&gt;node0009 -->
<g id="edge32" class="edge">
<title>node0032&#45;&gt;node0009</title>
<path fill="none" stroke="black" d="M1718.95,-184.94C1713.26,-189.16 1707.12,-193.25 1701,-196.5 1657.24,-219.72 1642.66,-217.47 1595,-231 1562.44,-240.24 1551.48,-234.28 1521,-249 1517.89,-250.5 1514.8,-252.24 1511.76,-254.13"/>
<polygon fill="black" stroke="black" points="1509.91,-251.16 1503.63,-259.7 1513.86,-256.94 1509.91,-251.16"/>
<text text-anchor="middle" x="1667.88" y="-217.7" font-family="Times New Roman,serif" font-size="14.00">is a</text>
</g>
<!-- node0033 -->
<g id="node34" class="node">
<title>node0033</title>
<ellipse fill="none" stroke="black" cx="1836" cy="-160.5" rx="36" ry="36"/>
<text text-anchor="middle" x="1836" y="-156.62" font-family="Times New Roman,serif" font-size="10.00">implementState</text>
</g>
<!-- node0033&#45;&gt;node0009 -->
<g id="edge33" class="edge">
<title>node0033&#45;&gt;node0009</title>
<path fill="none" stroke="black" d="M1808.97,-184.99C1803.28,-189.21 1797.14,-193.29 1791,-196.5 1745.61,-220.27 1731.13,-220.42 1681,-231 1610.98,-245.78 1587.28,-222.02 1521,-249 1517.8,-250.3 1514.64,-251.9 1511.57,-253.68"/>
<polygon fill="black" stroke="black" points="1509.79,-250.66 1503.36,-259.08 1513.64,-256.51 1509.79,-250.66"/>
<text text-anchor="middle" x="1760.27" y="-217.7" font-family="Times New Roman,serif" font-size="14.00">is a</text>
</g>
<!-- node0034 -->
<g id="node35" class="node">
<title>node0034</title>
<ellipse fill="none" stroke="black" cx="486" cy="-36" rx="36" ry="36"/>
<text text-anchor="middle" x="486" y="-32.12" font-family="Times New Roman,serif" font-size="10.00">3</text>
</g>
<!-- node0034&#45;&gt;node0020 -->
<g id="edge34" class="edge">
<title>node0034&#45;&gt;node0020</title>
<path fill="none" stroke="black" d="M513.66,-59.43C519.3,-63.74 525.26,-68.12 531,-72 569.36,-97.94 582.64,-98.56 621,-124.5 623.69,-126.32 626.43,-128.25 629.16,-130.23"/>
<polygon fill="black" stroke="black" points="627.02,-132.99 637.13,-136.16 631.2,-127.38 627.02,-132.99"/>
<text text-anchor="middle" x="599.61" y="-93.2" font-family="Times New Roman,serif" font-size="14.00">is a</text>
</g>
<!-- node0035 -->
<g id="node36" class="node">
<title>node0035</title>
<ellipse fill="none" stroke="black" cx="576" cy="-36" rx="36" ry="36"/>
<text text-anchor="middle" x="576" y="-32.12" font-family="Times New Roman,serif" font-size="10.00">Road</text>
</g>
<!-- node0035&#45;&gt;node0020 -->
<g id="edge35" class="edge">
<title>node0035&#45;&gt;node0020</title>
<path fill="none" stroke="black" d="M597.1,-65.72C609.4,-82.46 625.06,-103.77 638.33,-121.84"/>
<polygon fill="black" stroke="black" points="635.39,-123.75 644.14,-129.74 641.03,-119.61 635.39,-123.75"/>
<text text-anchor="middle" x="635.76" y="-93.2" font-family="Times New Roman,serif" font-size="14.00">is a</text>
</g>
<!-- node0036 -->
<g id="node37" class="node">
<title>node0036</title>
<ellipse fill="none" stroke="black" cx="666" cy="-36" rx="36" ry="36"/>
<text text-anchor="middle" x="666" y="-32.12" font-family="Times New Roman,serif" font-size="10.00">HazardVehicle</text>
</g>
<!-- node0036&#45;&gt;node0020 -->
<g id="edge36" class="edge">
<title>node0036&#45;&gt;node0020</title>
<path fill="none" stroke="black" d="M666,-72.43C666,-85 666,-99.35 666,-112.72"/>
<polygon fill="black" stroke="black" points="662.5,-112.63 666,-122.63 669.5,-112.63 662.5,-112.63"/>
<text text-anchor="middle" x="675.38" y="-93.2" font-family="Times New Roman,serif" font-size="14.00">is a</text>
</g>
<!-- node0037 -->
<g id="node38" class="node">
<title>node0037</title>
<ellipse fill="none" stroke="black" cx="756" cy="-36" rx="36" ry="36"/>
<text text-anchor="middle" x="756" y="-32.12" font-family="Times New Roman,serif" font-size="10.00">6</text>
</g>
<!-- node0037&#45;&gt;node0021 -->
<g id="edge37" class="edge">
<title>node0037&#45;&gt;node0021</title>
<path fill="none" stroke="black" d="M756,-72.43C756,-85 756,-99.35 756,-112.72"/>
<polygon fill="black" stroke="black" points="752.5,-112.63 756,-122.63 759.5,-112.63 752.5,-112.63"/>
<text text-anchor="middle" x="765.38" y="-93.2" font-family="Times New Roman,serif" font-size="14.00">is a</text>
</g>
<!-- node0038 -->
<g id="node39" class="node">
<title>node0038</title>
<ellipse fill="none" stroke="black" cx="846" cy="-36" rx="36" ry="36"/>
<text text-anchor="middle" x="846" y="-32.12" font-family="Times New Roman,serif" font-size="10.00">5</text>
</g>
<!-- node0038&#45;&gt;node0022 -->
<g id="edge38" class="edge">
<title>node0038&#45;&gt;node0022</title>
<path fill="none" stroke="black" d="M846,-72.43C846,-85 846,-99.35 846,-112.72"/>
<polygon fill="black" stroke="black" points="842.5,-112.63 846,-122.63 849.5,-112.63 842.5,-112.63"/>
<text text-anchor="middle" x="855.38" y="-93.2" font-family="Times New Roman,serif" font-size="14.00">is a</text>
</g>
<!-- node0039 -->
<g id="node40" class="node">
<title>node0039</title>
<ellipse fill="none" stroke="black" cx="936" cy="-36" rx="36" ry="36"/>
<text text-anchor="middle" x="936" y="-32.12" font-family="Times New Roman,serif" font-size="10.00">7</text>
</g>
<!-- node0039&#45;&gt;node0023 -->
<g id="edge39" class="edge">
<title>node0039&#45;&gt;node0023</title>
<path fill="none" stroke="black" d="M936,-72.43C936,-85 936,-99.35 936,-112.72"/>
<polygon fill="black" stroke="black" points="932.5,-112.63 936,-122.63 939.5,-112.63 932.5,-112.63"/>
<text text-anchor="middle" x="945.38" y="-93.2" font-family="Times New Roman,serif" font-size="14.00">is a</text>
</g>
<!-- node0040 -->
<g id="node41" class="node">
<title>node0040</title>
<ellipse fill="none" stroke="black" cx="1026" cy="-36" rx="36" ry="36"/>
<text text-anchor="middle" x="1026" y="-32.12" font-family="Times New Roman,serif" font-size="10.00">8</text>
</g>
<!-- node0040&#45;&gt;node0023 -->
<g id="edge40" class="edge">
<title>node0040&#45;&gt;node0023</title>
<path fill="none" stroke="black" d="M1004.9,-65.72C992.6,-82.46 976.94,-103.77 963.67,-121.84"/>
<polygon fill="black" stroke="black" points="960.97,-119.61 957.86,-129.74 966.61,-123.75 960.97,-119.61"/>
<text text-anchor="middle" x="995.76" y="-93.2" font-family="Times New Roman,serif" font-size="14.00">is a</text>
</g>
<!-- node0041 -->
<g id="node42" class="node">
<title>node0041</title>
<ellipse fill="none" stroke="black" cx="1116" cy="-36" rx="36" ry="36"/>
<text text-anchor="middle" x="1116" y="-32.12" font-family="Times New Roman,serif" font-size="10.00">ResponseResource</text>
</g>
<!-- node0041&#45;&gt;node0023 -->
<g id="edge41" class="edge">
<title>node0041&#45;&gt;node0023</title>
<path fill="none" stroke="black" d="M1088.34,-59.43C1082.7,-63.74 1076.74,-68.12 1071,-72 1032.64,-97.94 1019.36,-98.56 981,-124.5 978.31,-126.32 975.57,-128.25 972.84,-130.23"/>
<polygon fill="black" stroke="black" points="970.8,-127.38 964.87,-136.16 974.98,-132.99 970.8,-127.38"/>
<text text-anchor="middle" x="1049.61" y="-93.2" font-family="Times New Roman,serif" font-size="14.00">is a</text>
</g>
<!-- node0042 -->
<g id="node43" class="node">
<title>node0042</title>
<ellipse fill="none" stroke="black" cx="1206" cy="-36" rx="36" ry="36"/>
<text text-anchor="middle" x="1206" y="-32.12" font-family="Times New Roman,serif" font-size="10.00">ResponseAction</text>
</g>
<!-- node0042&#45;&gt;node0023 -->
<g id="edge42" class="edge">
<title>node0042&#45;&gt;node0023</title>
<path fill="none" stroke="black" d="M1178.88,-60.32C1173.2,-64.56 1167.08,-68.68 1161,-72 1120.47,-94.13 1107.41,-93.86 1063,-106.5 1027.11,-116.71 1014.78,-108.66 981,-124.5 977.87,-125.97 974.77,-127.68 971.73,-129.55"/>
<polygon fill="black" stroke="black" points="969.88,-126.57 963.58,-135.09 973.82,-132.36 969.88,-126.57"/>
<text text-anchor="middle" x="1131.16" y="-93.2" font-family="Times New Roman,serif" font-size="14.00">is a</text>
</g>
<!-- node0043 -->
<g id="node44" class="node">
<title>node0043</title>
<ellipse fill="none" stroke="black" cx="1296" cy="-36" rx="36" ry="36"/>
<text text-anchor="middle" x="1296" y="-32.12" font-family="Times New Roman,serif" font-size="10.00">CollidedState</text>
</g>
<!-- node0043&#45;&gt;node0029 -->
<g id="edge43" class="edge">
<title>node0043&#45;&gt;node0029</title>
<path fill="none" stroke="black" d="M1323.66,-59.43C1329.3,-63.74 1335.26,-68.12 1341,-72 1379.36,-97.94 1392.64,-98.56 1431,-124.5 1433.69,-126.32 1436.43,-128.25 1439.16,-130.23"/>
<polygon fill="black" stroke="black" points="1437.02,-132.99 1447.13,-136.16 1441.2,-127.38 1437.02,-132.99"/>
<text text-anchor="middle" x="1409.61" y="-93.2" font-family="Times New Roman,serif" font-size="14.00">is a</text>
</g>
<!-- node0044 -->
<g id="node45" class="node">
<title>node0044</title>
<ellipse fill="none" stroke="black" cx="1386" cy="-36" rx="36" ry="36"/>
<text text-anchor="middle" x="1386" y="-32.12" font-family="Times New Roman,serif" font-size="10.00">ExplodeState</text>
</g>
<!-- node0044&#45;&gt;node0029 -->
<g id="edge44" class="edge">
<title>node0044&#45;&gt;node0029</title>
<path fill="none" stroke="black" d="M1407.1,-65.72C1419.4,-82.46 1435.06,-103.77 1448.33,-121.84"/>
<polygon fill="black" stroke="black" points="1445.39,-123.75 1454.14,-129.74 1451.03,-119.61 1445.39,-123.75"/>
<text text-anchor="middle" x="1445.76" y="-93.2" font-family="Times New Roman,serif" font-size="14.00">is a</text>
</g>
<!-- node0045 -->
<g id="node46" class="node">
<title>node0045</title>
<ellipse fill="none" stroke="black" cx="1476" cy="-36" rx="36" ry="36"/>
<text text-anchor="middle" x="1476" y="-32.12" font-family="Times New Roman,serif" font-size="10.00">DrivingState</text>
</g>
<!-- node0045&#45;&gt;node0029 -->
<g id="edge45" class="edge">
<title>node0045&#45;&gt;node0029</title>
<path fill="none" stroke="black" d="M1476,-72.43C1476,-85 1476,-99.35 1476,-112.72"/>
<polygon fill="black" stroke="black" points="1472.5,-112.63 1476,-122.63 1479.5,-112.63 1472.5,-112.63"/>
<text text-anchor="middle" x="1485.38" y="-93.2" font-family="Times New Roman,serif" font-size="14.00">is a</text>
</g>
<!-- node0046 -->
<g id="node47" class="node">
<title>node0046</title>
<ellipse fill="none" stroke="black" cx="1566" cy="-36" rx="36" ry="36"/>
<text text-anchor="middle" x="1566" y="-32.12" font-family="Times New Roman,serif" font-size="10.00">DriveState</text>
</g>
<!-- node0046&#45;&gt;node0030 -->
<g id="edge46" class="edge">
<title>node0046&#45;&gt;node0030</title>
<path fill="none" stroke="black" d="M1566,-72.43C1566,-85 1566,-99.35 1566,-112.72"/>
<polygon fill="black" stroke="black" points="1562.5,-112.63 1566,-122.63 1569.5,-112.63 1562.5,-112.63"/>
<text text-anchor="middle" x="1575.38" y="-93.2" font-family="Times New Roman,serif" font-size="14.00">is a</text>
</g>
<!-- node0047 -->
<g id="node48" class="node">
<title>node0047</title>
<ellipse fill="none" stroke="black" cx="1656" cy="-36" rx="36" ry="36"/>
<text text-anchor="middle" x="1656" y="-32.12" font-family="Times New Roman,serif" font-size="10.00">CollideState</text>
</g>
<!-- node0047&#45;&gt;node0030 -->
<g id="edge47" class="edge">
<title>node0047&#45;&gt;node0030</title>
<path fill="none" stroke="black" d="M1634.9,-65.72C1622.6,-82.46 1606.94,-103.77 1593.67,-121.84"/>
<polygon fill="black" stroke="black" points="1590.97,-119.61 1587.86,-129.74 1596.61,-123.75 1590.97,-119.61"/>
<text text-anchor="middle" x="1625.76" y="-93.2" font-family="Times New Roman,serif" font-size="14.00">is a</text>
</g>
<!-- node0048 -->
<g id="node49" class="node">
<title>node0048</title>
<ellipse fill="none" stroke="black" cx="1746" cy="-36" rx="36" ry="36"/>
<text text-anchor="middle" x="1746" y="-32.12" font-family="Times New Roman,serif" font-size="10.00">SpillState</text>
</g>
<!-- node0048&#45;&gt;node0030 -->
<g id="edge48" class="edge">
<title>node0048&#45;&gt;node0030</title>
<path fill="none" stroke="black" d="M1718.34,-59.43C1712.7,-63.74 1706.74,-68.12 1701,-72 1662.64,-97.94 1649.36,-98.56 1611,-124.5 1608.31,-126.32 1605.57,-128.25 1602.84,-130.23"/>
<polygon fill="black" stroke="black" points="1600.8,-127.38 1594.87,-136.16 1604.98,-132.99 1600.8,-127.38"/>
<text text-anchor="middle" x="1679.61" y="-93.2" font-family="Times New Roman,serif" font-size="14.00">is a</text>
</g>
</g>
</svg>
