<?xml version="1.0" encoding="UTF-8" standalone="no"?>
<!DOCTYPE svg PUBLIC "-//W3C//DTD SVG 1.1//EN"
 "http://www.w3.org/Graphics/SVG/1.1/DTD/svg11.dtd">
<!-- Generated by graphviz version 12.1.2 (20240928.0832)
 -->
<!-- Title: G Pages: 1 -->
<svg width="1430pt" height="454pt"
 viewBox="0.00 0.00 1430.00 453.50" xmlns="http://www.w3.org/2000/svg" xmlns:xlink="http://www.w3.org/1999/xlink">
<g id="graph0" class="graph" transform="scale(1 1) rotate(0) translate(4 449.5)">
<title>G</title>
<polygon fill="white" stroke="none" points="-4,4 -4,-449.5 1426,-449.5 1426,4 -4,4"/>
<!-- node0000 -->
<g id="node1" class="node">
<title>node0000</title>
<ellipse fill="none" stroke="black" cx="1026" cy="-409.5" rx="36" ry="36"/>
<text text-anchor="middle" x="1026" y="-405.62" font-family="Times New Roman,serif" font-size="10.00">Thing</text>
</g>
<!-- node0001 -->
<g id="node2" class="node">
<title>node0001</title>
<ellipse fill="none" stroke="black" cx="306" cy="-285" rx="36" ry="36"/>
<text text-anchor="middle" x="306" y="-281.12" font-family="Times New Roman,serif" font-size="10.00">177</text>
</g>
<!-- node0001&#45;&gt;node0000 -->
<g id="edge1" class="edge">
<title>node0001&#45;&gt;node0000</title>
<path fill="none" stroke="black" d="M332.44,-309.32C338.27,-313.66 344.62,-317.82 351,-321 403.43,-347.17 420.61,-344.97 478.25,-355.5 661.4,-388.94 883.11,-402.18 978.55,-406.6"/>
<polygon fill="black" stroke="black" points="978.16,-410.08 988.31,-407.04 978.48,-403.09 978.16,-410.08"/>
<text text-anchor="middle" x="487.62" y="-342.2" font-family="Times New Roman,serif" font-size="14.00">is a</text>
</g>
<!-- node0002 -->
<g id="node3" class="node">
<title>node0002</title>
<ellipse fill="none" stroke="black" cx="396" cy="-285" rx="36" ry="36"/>
<text text-anchor="middle" x="396" y="-281.12" font-family="Times New Roman,serif" font-size="10.00">173</text>
</g>
<!-- node0002&#45;&gt;node0000 -->
<g id="edge2" class="edge">
<title>node0002&#45;&gt;node0000</title>
<path fill="none" stroke="black" d="M422.17,-309.9C428.02,-314.2 434.45,-318.19 441,-321 627.82,-401.04 875.42,-409.62 978.17,-409.39"/>
<polygon fill="black" stroke="black" points="978.18,-412.89 988.17,-409.34 978.15,-405.89 978.18,-412.89"/>
<text text-anchor="middle" x="540.99" y="-342.2" font-family="Times New Roman,serif" font-size="14.00">is a</text>
</g>
<!-- node0003 -->
<g id="node4" class="node">
<title>node0003</title>
<ellipse fill="none" stroke="black" cx="486" cy="-285" rx="36" ry="36"/>
<text text-anchor="middle" x="486" y="-281.12" font-family="Times New Roman,serif" font-size="10.00">ScenarioElement</text>
</g>
<!-- node0003&#45;&gt;node0000 -->
<g id="edge3" class="edge">
<title>node0003&#45;&gt;node0000</title>
<path fill="none" stroke="black" d="M521.01,-293.94C615.16,-315.3 873.75,-373.96 979.75,-398.01"/>
<polygon fill="black" stroke="black" points="978.71,-401.36 989.24,-400.16 980.26,-394.53 978.71,-401.36"/>
<text text-anchor="middle" x="797.71" y="-342.2" font-family="Times New Roman,serif" font-size="14.00">is a</text>
</g>
<!-- node0004 -->
<g id="node5" class="node">
<title>node0004</title>
<ellipse fill="none" stroke="black" cx="801" cy="-285" rx="36" ry="36"/>
<text text-anchor="middle" x="801" y="-281.12" font-family="Times New Roman,serif" font-size="10.00">ElementCompositions</text>
</g>
<!-- node0004&#45;&gt;node0000 -->
<g id="edge4" class="edge">
<title>node0004&#45;&gt;node0000</title>
<path fill="none" stroke="black" d="M832.29,-303.03C871.97,-324.64 940.52,-361.96 984.53,-385.92"/>
<polygon fill="black" stroke="black" points="982.83,-388.98 993.29,-390.69 986.18,-382.84 982.83,-388.98"/>
<text text-anchor="middle" x="936.35" y="-342.2" font-family="Times New Roman,serif" font-size="14.00">is a</text>
</g>
<!-- node0005 -->
<g id="node6" class="node">
<title>node0005</title>
<ellipse fill="none" stroke="black" cx="1026" cy="-285" rx="36" ry="36"/>
<text text-anchor="middle" x="1026" y="-281.12" font-family="Times New Roman,serif" font-size="10.00">ElementState</text>
</g>
<!-- node0005&#45;&gt;node0000 -->
<g id="edge5" class="edge">
<title>node0005&#45;&gt;node0000</title>
<path fill="none" stroke="black" d="M1026,-321.43C1026,-334 1026,-348.35 1026,-361.72"/>
<polygon fill="black" stroke="black" points="1022.5,-361.63 1026,-371.63 1029.5,-361.63 1022.5,-361.63"/>
<text text-anchor="middle" x="1035.38" y="-342.2" font-family="Times New Roman,serif" font-size="14.00">is a</text>
</g>
<!-- node0006 -->
<g id="node7" class="node">
<title>node0006</title>
<ellipse fill="none" stroke="black" cx="1116" cy="-285" rx="36" ry="36"/>
<text text-anchor="middle" x="1116" y="-281.12" font-family="Times New Roman,serif" font-size="10.00">aidStates</text>
</g>
<!-- node0006&#45;&gt;node0000 -->
<g id="edge6" class="edge">
<title>node0006&#45;&gt;node0000</title>
<path fill="none" stroke="black" d="M1094.9,-314.72C1082.6,-331.46 1066.94,-352.77 1053.67,-370.84"/>
<polygon fill="black" stroke="black" points="1050.97,-368.61 1047.86,-378.74 1056.61,-372.75 1050.97,-368.61"/>
<text text-anchor="middle" x="1085.76" y="-342.2" font-family="Times New Roman,serif" font-size="14.00">is a</text>
</g>
<!-- node0007 -->
<g id="node8" class="node">
<title>node0007</title>
<ellipse fill="none" stroke="black" cx="1206" cy="-285" rx="36" ry="36"/>
<text text-anchor="middle" x="1206" y="-281.12" font-family="Times New Roman,serif" font-size="10.00">firefightingStates</text>
</g>
<!-- node0007&#45;&gt;node0000 -->
<g id="edge7" class="edge">
<title>node0007&#45;&gt;node0000</title>
<path fill="none" stroke="black" d="M1178.2,-308.22C1172.57,-312.55 1166.65,-316.99 1161,-321 1129.78,-343.2 1093.26,-366.73 1066.08,-383.79"/>
<polygon fill="black" stroke="black" points="1064.43,-380.7 1057.8,-388.96 1068.14,-386.63 1064.43,-380.7"/>
<text text-anchor="middle" x="1141.38" y="-342.2" font-family="Times New Roman,serif" font-size="14.00">is a</text>
</g>
<!-- node0008 -->
<g id="node9" class="node">
<title>node0008</title>
<ellipse fill="none" stroke="black" cx="1296" cy="-285" rx="36" ry="36"/>
<text text-anchor="middle" x="1296" y="-281.12" font-family="Times New Roman,serif" font-size="10.00">rescueStates</text>
</g>
<!-- node0008&#45;&gt;node0000 -->
<g id="edge8" class="edge">
<title>node0008&#45;&gt;node0000</title>
<path fill="none" stroke="black" d="M1268.8,-309.17C1263.12,-313.42 1257.03,-317.58 1251,-321 1192.23,-354.34 1118.25,-380.38 1071.53,-395.11"/>
<polygon fill="black" stroke="black" points="1070.51,-391.76 1062,-398.06 1072.58,-398.44 1070.51,-391.76"/>
<text text-anchor="middle" x="1225.41" y="-342.2" font-family="Times New Roman,serif" font-size="14.00">is a</text>
</g>
<!-- node0009 -->
<g id="node10" class="node">
<title>node0009</title>
<ellipse fill="none" stroke="black" cx="1386" cy="-285" rx="36" ry="36"/>
<text text-anchor="middle" x="1386" y="-281.12" font-family="Times New Roman,serif" font-size="10.00">towStates</text>
</g>
<!-- node0009&#45;&gt;node0000 -->
<g id="edge9" class="edge">
<title>node0009&#45;&gt;node0000</title>
<path fill="none" stroke="black" d="M1358.92,-309.38C1353.23,-313.61 1347.1,-317.72 1341,-321 1253.01,-368.34 1137.08,-391.95 1073.24,-402.08"/>
<polygon fill="black" stroke="black" points="1072.79,-398.61 1063.44,-403.59 1073.86,-405.53 1072.79,-398.61"/>
<text text-anchor="middle" x="1310.46" y="-342.2" font-family="Times New Roman,serif" font-size="14.00">is a</text>
</g>
<!-- node0010 -->
<g id="node11" class="node">
<title>node0010</title>
<ellipse fill="none" stroke="black" cx="171" cy="-160.5" rx="36" ry="36"/>
<text text-anchor="middle" x="171" y="-156.62" font-family="Times New Roman,serif" font-size="10.00">AffectedElement</text>
</g>
<!-- node0010&#45;&gt;node0003 -->
<g id="edge10" class="edge">
<title>node0010&#45;&gt;node0003</title>
<path fill="none" stroke="black" d="M204.24,-174.73C221.18,-181.39 242.13,-189.52 261,-196.5 304.41,-212.56 314.74,-218.33 359.25,-231 395.03,-241.18 407.32,-233.19 441,-249 444.12,-250.47 447.23,-252.18 450.27,-254.05"/>
<polygon fill="black" stroke="black" points="448.18,-256.87 458.42,-259.59 452.12,-251.08 448.18,-256.87"/>
<text text-anchor="middle" x="368.62" y="-217.7" font-family="Times New Roman,serif" font-size="14.00">is a</text>
</g>
<!-- node0011 -->
<g id="node12" class="node">
<title>node0011</title>
<ellipse fill="none" stroke="black" cx="306" cy="-160.5" rx="36" ry="36"/>
<text text-anchor="middle" x="306" y="-156.62" font-family="Times New Roman,serif" font-size="10.00">HazardElement</text>
</g>
<!-- node0011&#45;&gt;node0003 -->
<g id="edge11" class="edge">
<title>node0011&#45;&gt;node0003</title>
<path fill="none" stroke="black" d="M333.66,-183.93C339.3,-188.24 345.26,-192.62 351,-196.5 389.36,-222.44 402.64,-223.06 441,-249 443.69,-250.82 446.43,-252.75 449.16,-254.73"/>
<polygon fill="black" stroke="black" points="447.02,-257.49 457.13,-260.66 451.2,-251.88 447.02,-257.49"/>
<text text-anchor="middle" x="419.61" y="-217.7" font-family="Times New Roman,serif" font-size="14.00">is a</text>
</g>
<!-- node0012 -->
<g id="node13" class="node">
<title>node0012</title>
<ellipse fill="none" stroke="black" cx="396" cy="-160.5" rx="36" ry="36"/>
<text text-anchor="middle" x="396" y="-156.62" font-family="Times New Roman,serif" font-size="10.00">EnvironmentElement</text>
</g>
<!-- node0012&#45;&gt;node0003 -->
<g id="edge12" class="edge">
<title>node0012&#45;&gt;node0003</title>
<path fill="none" stroke="black" d="M417.1,-190.22C429.4,-206.96 445.06,-228.27 458.33,-246.34"/>
<polygon fill="black" stroke="black" points="455.39,-248.25 464.14,-254.24 461.03,-244.11 455.39,-248.25"/>
<text text-anchor="middle" x="455.76" y="-217.7" font-family="Times New Roman,serif" font-size="14.00">is a</text>
</g>
<!-- node0013 -->
<g id="node14" class="node">
<title>node0013</title>
<ellipse fill="none" stroke="black" cx="486" cy="-160.5" rx="36" ry="36"/>
<text text-anchor="middle" x="486" y="-156.62" font-family="Times New Roman,serif" font-size="10.00">ResponsePlanElement</text>
</g>
<!-- node0013&#45;&gt;node0003 -->
<g id="edge13" class="edge">
<title>node0013&#45;&gt;node0003</title>
<path fill="none" stroke="black" d="M486,-196.93C486,-209.5 486,-223.85 486,-237.22"/>
<polygon fill="black" stroke="black" points="482.5,-237.13 486,-247.13 489.5,-237.13 482.5,-237.13"/>
<text text-anchor="middle" x="495.38" y="-217.7" font-family="Times New Roman,serif" font-size="14.00">is a</text>
</g>
<!-- node0014 -->
<g id="node15" class="node">
<title>node0014</title>
<ellipse fill="none" stroke="black" cx="576" cy="-160.5" rx="36" ry="36"/>
<text text-anchor="middle" x="576" y="-156.62" font-family="Times New Roman,serif" font-size="10.00">VehicleCargo</text>
</g>
<!-- node0014&#45;&gt;node0004 -->
<g id="edge14" class="edge">
<title>node0014&#45;&gt;node0004</title>
<path fill="none" stroke="black" d="M603.43,-184.28C609.09,-188.56 615.12,-192.84 621,-196.5 665.43,-224.16 719.9,-249.56 757.2,-265.79"/>
<polygon fill="black" stroke="black" points="755.76,-268.98 766.33,-269.72 758.53,-262.55 755.76,-268.98"/>
<text text-anchor="middle" x="687.91" y="-217.7" font-family="Times New Roman,serif" font-size="14.00">is a</text>
</g>
<!-- node0015 -->
<g id="node16" class="node">
<title>node0015</title>
<ellipse fill="none" stroke="black" cx="666" cy="-160.5" rx="36" ry="36"/>
<text text-anchor="middle" x="666" y="-156.62" font-family="Times New Roman,serif" font-size="10.00">VehiclePassengers</text>
</g>
<!-- node0015&#45;&gt;node0004 -->
<g id="edge15" class="edge">
<title>node0015&#45;&gt;node0004</title>
<path fill="none" stroke="black" d="M692.35,-185.41C713.44,-204.55 743.2,-231.56 766.25,-252.46"/>
<polygon fill="black" stroke="black" points="763.84,-255.01 773.6,-259.13 768.54,-249.82 763.84,-255.01"/>
<text text-anchor="middle" x="750.96" y="-217.7" font-family="Times New Roman,serif" font-size="14.00">is a</text>
</g>
<!-- node0016 -->
<g id="node17" class="node">
<title>node0016</title>
<ellipse fill="none" stroke="black" cx="756" cy="-160.5" rx="36" ry="36"/>
<text text-anchor="middle" x="756" y="-156.62" font-family="Times New Roman,serif" font-size="10.00">VehicleComponents</text>
</g>
<!-- node0016&#45;&gt;node0004 -->
<g id="edge16" class="edge">
<title>node0016&#45;&gt;node0004</title>
<path fill="none" stroke="black" d="M768.18,-194.65C773.33,-208.68 779.4,-225.21 784.92,-240.22"/>
<polygon fill="black" stroke="black" points="781.56,-241.22 788.29,-249.4 788.13,-238.81 781.56,-241.22"/>
<text text-anchor="middle" x="790.57" y="-217.7" font-family="Times New Roman,serif" font-size="14.00">is a</text>
</g>
<!-- node0017 -->
<g id="node18" class="node">
<title>node0017</title>
<ellipse fill="none" stroke="black" cx="846" cy="-160.5" rx="36" ry="36"/>
<text text-anchor="middle" x="846" y="-156.62" font-family="Times New Roman,serif" font-size="10.00">IncludedLanes</text>
</g>
<!-- node0017&#45;&gt;node0004 -->
<g id="edge17" class="edge">
<title>node0017&#45;&gt;node0004</title>
<path fill="none" stroke="black" d="M833.82,-194.65C828.67,-208.68 822.6,-225.21 817.08,-240.22"/>
<polygon fill="black" stroke="black" points="813.87,-238.81 813.71,-249.4 820.44,-241.22 813.87,-238.81"/>
<text text-anchor="middle" x="835.57" y="-217.7" font-family="Times New Roman,serif" font-size="14.00">is a</text>
</g>
<!-- node0018 -->
<g id="node19" class="node">
<title>node0018</title>
<ellipse fill="none" stroke="black" cx="936" cy="-160.5" rx="36" ry="36"/>
<text text-anchor="middle" x="936" y="-156.62" font-family="Times New Roman,serif" font-size="10.00">IncludedFacilities</text>
</g>
<!-- node0018&#45;&gt;node0004 -->
<g id="edge18" class="edge">
<title>node0018&#45;&gt;node0004</title>
<path fill="none" stroke="black" d="M909.65,-185.41C888.56,-204.55 858.8,-231.56 835.75,-252.46"/>
<polygon fill="black" stroke="black" points="833.46,-249.82 828.4,-259.13 838.16,-255.01 833.46,-249.82"/>
<text text-anchor="middle" x="885.96" y="-217.7" font-family="Times New Roman,serif" font-size="14.00">is a</text>
</g>
<!-- node0019 -->
<g id="node20" class="node">
<title>node0019</title>
<ellipse fill="none" stroke="black" cx="1026" cy="-160.5" rx="36" ry="36"/>
<text text-anchor="middle" x="1026" y="-156.62" font-family="Times New Roman,serif" font-size="10.00">AffectedStates</text>
</g>
<!-- node0019&#45;&gt;node0005 -->
<g id="edge19" class="edge">
<title>node0019&#45;&gt;node0005</title>
<path fill="none" stroke="black" d="M1026,-196.93C1026,-209.5 1026,-223.85 1026,-237.22"/>
<polygon fill="black" stroke="black" points="1022.5,-237.13 1026,-247.13 1029.5,-237.13 1022.5,-237.13"/>
<text text-anchor="middle" x="1035.38" y="-217.7" font-family="Times New Roman,serif" font-size="14.00">is a</text>
</g>
<!-- node0020 -->
<g id="node21" class="node">
<title>node0020</title>
<ellipse fill="none" stroke="black" cx="1116" cy="-160.5" rx="36" ry="36"/>
<text text-anchor="middle" x="1116" y="-156.62" font-family="Times New Roman,serif" font-size="10.00">HazardStates</text>
</g>
<!-- node0020&#45;&gt;node0005 -->
<g id="edge20" class="edge">
<title>node0020&#45;&gt;node0005</title>
<path fill="none" stroke="black" d="M1094.9,-190.22C1082.6,-206.96 1066.94,-228.27 1053.67,-246.34"/>
<polygon fill="black" stroke="black" points="1050.97,-244.11 1047.86,-254.24 1056.61,-248.25 1050.97,-244.11"/>
<text text-anchor="middle" x="1085.76" y="-217.7" font-family="Times New Roman,serif" font-size="14.00">is a</text>
</g>
<!-- node0021 -->
<g id="node22" class="node">
<title>node0021</title>
<ellipse fill="none" stroke="black" cx="1206" cy="-160.5" rx="36" ry="36"/>
<text text-anchor="middle" x="1206" y="-156.62" font-family="Times New Roman,serif" font-size="10.00">ResponseStates</text>
</g>
<!-- node0021&#45;&gt;node0005 -->
<g id="edge21" class="edge">
<title>node0021&#45;&gt;node0005</title>
<path fill="none" stroke="black" d="M1178.34,-183.93C1172.7,-188.24 1166.74,-192.62 1161,-196.5 1122.64,-222.44 1109.36,-223.06 1071,-249 1068.31,-250.82 1065.57,-252.75 1062.84,-254.73"/>
<polygon fill="black" stroke="black" points="1060.8,-251.88 1054.87,-260.66 1064.98,-257.49 1060.8,-251.88"/>
<text text-anchor="middle" x="1139.61" y="-217.7" font-family="Times New Roman,serif" font-size="14.00">is a</text>
</g>
<!-- node0022 -->
<g id="node23" class="node">
<title>node0022</title>
<ellipse fill="none" stroke="black" cx="1296" cy="-160.5" rx="36" ry="36"/>
<text text-anchor="middle" x="1296" y="-156.62" font-family="Times New Roman,serif" font-size="10.00">idleState</text>
</g>
<!-- node0022&#45;&gt;node0006 -->
<g id="edge22" class="edge">
<title>node0022&#45;&gt;node0006</title>
<path fill="none" stroke="black" d="M1268.34,-183.93C1262.7,-188.24 1256.74,-192.62 1251,-196.5 1212.64,-222.44 1199.36,-223.06 1161,-249 1158.31,-250.82 1155.57,-252.75 1152.84,-254.73"/>
<polygon fill="black" stroke="black" points="1150.8,-251.88 1144.87,-260.66 1154.98,-257.49 1150.8,-251.88"/>
<text text-anchor="middle" x="1229.61" y="-217.7" font-family="Times New Roman,serif" font-size="14.00">is a</text>
</g>
<!-- node0023 -->
<g id="node24" class="node">
<title>node0023</title>
<ellipse fill="none" stroke="black" cx="1386" cy="-160.5" rx="36" ry="36"/>
<text text-anchor="middle" x="1386" y="-156.62" font-family="Times New Roman,serif" font-size="10.00">implementState</text>
</g>
<!-- node0023&#45;&gt;node0006 -->
<g id="edge23" class="edge">
<title>node0023&#45;&gt;node0006</title>
<path fill="none" stroke="black" d="M1358.88,-184.82C1353.2,-189.06 1347.08,-193.18 1341,-196.5 1300.47,-218.63 1287.41,-218.36 1243,-231 1207.11,-241.21 1194.78,-233.16 1161,-249 1157.87,-250.47 1154.77,-252.18 1151.73,-254.05"/>
<polygon fill="black" stroke="black" points="1149.88,-251.07 1143.58,-259.59 1153.82,-256.86 1149.88,-251.07"/>
<text text-anchor="middle" x="1311.16" y="-217.7" font-family="Times New Roman,serif" font-size="14.00">is a</text>
</g>
<!-- node0024 -->
<g id="node25" class="node">
<title>node0024</title>
<ellipse fill="none" stroke="black" cx="36" cy="-36" rx="36" ry="36"/>
<text text-anchor="middle" x="36" y="-32.12" font-family="Times New Roman,serif" font-size="10.00">3</text>
</g>
<!-- node0024&#45;&gt;node0010 -->
<g id="edge24" class="edge">
<title>node0024&#45;&gt;node0010</title>
<path fill="none" stroke="black" d="M62.35,-60.91C83.44,-80.05 113.2,-107.06 136.25,-127.96"/>
<polygon fill="black" stroke="black" points="133.84,-130.51 143.6,-134.63 138.54,-125.32 133.84,-130.51"/>
<text text-anchor="middle" x="120.96" y="-93.2" font-family="Times New Roman,serif" font-size="14.00">is a</text>
</g>
<!-- node0025 -->
<g id="node26" class="node">
<title>node0025</title>
<ellipse fill="none" stroke="black" cx="126" cy="-36" rx="36" ry="36"/>
<text text-anchor="middle" x="126" y="-32.12" font-family="Times New Roman,serif" font-size="10.00">Road</text>
</g>
<!-- node0025&#45;&gt;node0010 -->
<g id="edge25" class="edge">
<title>node0025&#45;&gt;node0010</title>
<path fill="none" stroke="black" d="M138.18,-70.15C143.33,-84.18 149.4,-100.71 154.92,-115.72"/>
<polygon fill="black" stroke="black" points="151.56,-116.72 158.29,-124.9 158.13,-114.31 151.56,-116.72"/>
<text text-anchor="middle" x="160.57" y="-93.2" font-family="Times New Roman,serif" font-size="14.00">is a</text>
</g>
<!-- node0026 -->
<g id="node27" class="node">
<title>node0026</title>
<ellipse fill="none" stroke="black" cx="216" cy="-36" rx="36" ry="36"/>
<text text-anchor="middle" x="216" y="-32.12" font-family="Times New Roman,serif" font-size="10.00">HazardVehicle</text>
</g>
<!-- node0026&#45;&gt;node0010 -->
<g id="edge26" class="edge">
<title>node0026&#45;&gt;node0010</title>
<path fill="none" stroke="black" d="M203.82,-70.15C198.67,-84.18 192.6,-100.71 187.08,-115.72"/>
<polygon fill="black" stroke="black" points="183.87,-114.31 183.71,-124.9 190.44,-116.72 183.87,-114.31"/>
<text text-anchor="middle" x="205.57" y="-93.2" font-family="Times New Roman,serif" font-size="14.00">is a</text>
</g>
<!-- node0027 -->
<g id="node28" class="node">
<title>node0027</title>
<ellipse fill="none" stroke="black" cx="306" cy="-36" rx="36" ry="36"/>
<text text-anchor="middle" x="306" y="-32.12" font-family="Times New Roman,serif" font-size="10.00">6</text>
</g>
<!-- node0027&#45;&gt;node0011 -->
<g id="edge27" class="edge">
<title>node0027&#45;&gt;node0011</title>
<path fill="none" stroke="black" d="M306,-72.43C306,-85 306,-99.35 306,-112.72"/>
<polygon fill="black" stroke="black" points="302.5,-112.63 306,-122.63 309.5,-112.63 302.5,-112.63"/>
<text text-anchor="middle" x="315.38" y="-93.2" font-family="Times New Roman,serif" font-size="14.00">is a</text>
</g>
<!-- node0028 -->
<g id="node29" class="node">
<title>node0028</title>
<ellipse fill="none" stroke="black" cx="396" cy="-36" rx="36" ry="36"/>
<text text-anchor="middle" x="396" y="-32.12" font-family="Times New Roman,serif" font-size="10.00">5</text>
</g>
<!-- node0028&#45;&gt;node0012 -->
<g id="edge28" class="edge">
<title>node0028&#45;&gt;node0012</title>
<path fill="none" stroke="black" d="M396,-72.43C396,-85 396,-99.35 396,-112.72"/>
<polygon fill="black" stroke="black" points="392.5,-112.63 396,-122.63 399.5,-112.63 392.5,-112.63"/>
<text text-anchor="middle" x="405.38" y="-93.2" font-family="Times New Roman,serif" font-size="14.00">is a</text>
</g>
<!-- node0029 -->
<g id="node30" class="node">
<title>node0029</title>
<ellipse fill="none" stroke="black" cx="486" cy="-36" rx="36" ry="36"/>
<text text-anchor="middle" x="486" y="-32.12" font-family="Times New Roman,serif" font-size="10.00">7</text>
</g>
<!-- node0029&#45;&gt;node0013 -->
<g id="edge29" class="edge">
<title>node0029&#45;&gt;node0013</title>
<path fill="none" stroke="black" d="M486,-72.43C486,-85 486,-99.35 486,-112.72"/>
<polygon fill="black" stroke="black" points="482.5,-112.63 486,-122.63 489.5,-112.63 482.5,-112.63"/>
<text text-anchor="middle" x="495.38" y="-93.2" font-family="Times New Roman,serif" font-size="14.00">is a</text>
</g>
<!-- node0030 -->
<g id="node31" class="node">
<title>node0030</title>
<ellipse fill="none" stroke="black" cx="576" cy="-36" rx="36" ry="36"/>
<text text-anchor="middle" x="576" y="-32.12" font-family="Times New Roman,serif" font-size="10.00">8</text>
</g>
<!-- node0030&#45;&gt;node0013 -->
<g id="edge30" class="edge">
<title>node0030&#45;&gt;node0013</title>
<path fill="none" stroke="black" d="M554.9,-65.72C542.6,-82.46 526.94,-103.77 513.67,-121.84"/>
<polygon fill="black" stroke="black" points="510.97,-119.61 507.86,-129.74 516.61,-123.75 510.97,-119.61"/>
<text text-anchor="middle" x="545.76" y="-93.2" font-family="Times New Roman,serif" font-size="14.00">is a</text>
</g>
<!-- node0031 -->
<g id="node32" class="node">
<title>node0031</title>
<ellipse fill="none" stroke="black" cx="666" cy="-36" rx="36" ry="36"/>
<text text-anchor="middle" x="666" y="-32.12" font-family="Times New Roman,serif" font-size="10.00">ResponseResource</text>
</g>
<!-- node0031&#45;&gt;node0013 -->
<g id="edge31" class="edge">
<title>node0031&#45;&gt;node0013</title>
<path fill="none" stroke="black" d="M638.34,-59.43C632.7,-63.74 626.74,-68.12 621,-72 582.64,-97.94 569.36,-98.56 531,-124.5 528.31,-126.32 525.57,-128.25 522.84,-130.23"/>
<polygon fill="black" stroke="black" points="520.8,-127.38 514.87,-136.16 524.98,-132.99 520.8,-127.38"/>
<text text-anchor="middle" x="599.61" y="-93.2" font-family="Times New Roman,serif" font-size="14.00">is a</text>
</g>
<!-- node0032 -->
<g id="node33" class="node">
<title>node0032</title>
<ellipse fill="none" stroke="black" cx="756" cy="-36" rx="36" ry="36"/>
<text text-anchor="middle" x="756" y="-32.12" font-family="Times New Roman,serif" font-size="10.00">ResponseAction</text>
</g>
<!-- node0032&#45;&gt;node0013 -->
<g id="edge32" class="edge">
<title>node0032&#45;&gt;node0013</title>
<path fill="none" stroke="black" d="M728.88,-60.32C723.2,-64.56 717.08,-68.68 711,-72 670.47,-94.13 657.41,-93.86 613,-106.5 577.11,-116.71 564.78,-108.66 531,-124.5 527.87,-125.97 524.77,-127.68 521.73,-129.55"/>
<polygon fill="black" stroke="black" points="519.88,-126.57 513.58,-135.09 523.82,-132.36 519.88,-126.57"/>
<text text-anchor="middle" x="681.16" y="-93.2" font-family="Times New Roman,serif" font-size="14.00">is a</text>
</g>
<!-- node0033 -->
<g id="node34" class="node">
<title>node0033</title>
<ellipse fill="none" stroke="black" cx="846" cy="-36" rx="36" ry="36"/>
<text text-anchor="middle" x="846" y="-32.12" font-family="Times New Roman,serif" font-size="10.00">CollidedState</text>
</g>
<!-- node0033&#45;&gt;node0019 -->
<g id="edge33" class="edge">
<title>node0033&#45;&gt;node0019</title>
<path fill="none" stroke="black" d="M873.66,-59.43C879.3,-63.74 885.26,-68.12 891,-72 929.36,-97.94 942.64,-98.56 981,-124.5 983.69,-126.32 986.43,-128.25 989.16,-130.23"/>
<polygon fill="black" stroke="black" points="987.02,-132.99 997.13,-136.16 991.2,-127.38 987.02,-132.99"/>
<text text-anchor="middle" x="959.61" y="-93.2" font-family="Times New Roman,serif" font-size="14.00">is a</text>
</g>
<!-- node0034 -->
<g id="node35" class="node">
<title>node0034</title>
<ellipse fill="none" stroke="black" cx="936" cy="-36" rx="36" ry="36"/>
<text text-anchor="middle" x="936" y="-32.12" font-family="Times New Roman,serif" font-size="10.00">ExplodeState</text>
</g>
<!-- node0034&#45;&gt;node0019 -->
<g id="edge34" class="edge">
<title>node0034&#45;&gt;node0019</title>
<path fill="none" stroke="black" d="M957.1,-65.72C969.4,-82.46 985.06,-103.77 998.33,-121.84"/>
<polygon fill="black" stroke="black" points="995.39,-123.75 1004.14,-129.74 1001.03,-119.61 995.39,-123.75"/>
<text text-anchor="middle" x="995.76" y="-93.2" font-family="Times New Roman,serif" font-size="14.00">is a</text>
</g>
<!-- node0035 -->
<g id="node36" class="node">
<title>node0035</title>
<ellipse fill="none" stroke="black" cx="1026" cy="-36" rx="36" ry="36"/>
<text text-anchor="middle" x="1026" y="-32.12" font-family="Times New Roman,serif" font-size="10.00">DrivingState</text>
</g>
<!-- node0035&#45;&gt;node0019 -->
<g id="edge35" class="edge">
<title>node0035&#45;&gt;node0019</title>
<path fill="none" stroke="black" d="M1026,-72.43C1026,-85 1026,-99.35 1026,-112.72"/>
<polygon fill="black" stroke="black" points="1022.5,-112.63 1026,-122.63 1029.5,-112.63 1022.5,-112.63"/>
<text text-anchor="middle" x="1035.38" y="-93.2" font-family="Times New Roman,serif" font-size="14.00">is a</text>
</g>
<!-- node0036 -->
<g id="node37" class="node">
<title>node0036</title>
<ellipse fill="none" stroke="black" cx="1116" cy="-36" rx="36" ry="36"/>
<text text-anchor="middle" x="1116" y="-32.12" font-family="Times New Roman,serif" font-size="10.00">DriveState</text>
</g>
<!-- node0036&#45;&gt;node0020 -->
<g id="edge36" class="edge">
<title>node0036&#45;&gt;node0020</title>
<path fill="none" stroke="black" d="M1116,-72.43C1116,-85 1116,-99.35 1116,-112.72"/>
<polygon fill="black" stroke="black" points="1112.5,-112.63 1116,-122.63 1119.5,-112.63 1112.5,-112.63"/>
<text text-anchor="middle" x="1125.38" y="-93.2" font-family="Times New Roman,serif" font-size="14.00">is a</text>
</g>
<!-- node0037 -->
<g id="node38" class="node">
<title>node0037</title>
<ellipse fill="none" stroke="black" cx="1206" cy="-36" rx="36" ry="36"/>
<text text-anchor="middle" x="1206" y="-32.12" font-family="Times New Roman,serif" font-size="10.00">CollideState</text>
</g>
<!-- node0037&#45;&gt;node0020 -->
<g id="edge37" class="edge">
<title>node0037&#45;&gt;node0020</title>
<path fill="none" stroke="black" d="M1184.9,-65.72C1172.6,-82.46 1156.94,-103.77 1143.67,-121.84"/>
<polygon fill="black" stroke="black" points="1140.97,-119.61 1137.86,-129.74 1146.61,-123.75 1140.97,-119.61"/>
<text text-anchor="middle" x="1175.76" y="-93.2" font-family="Times New Roman,serif" font-size="14.00">is a</text>
</g>
<!-- node0038 -->
<g id="node39" class="node">
<title>node0038</title>
<ellipse fill="none" stroke="black" cx="1296" cy="-36" rx="36" ry="36"/>
<text text-anchor="middle" x="1296" y="-32.12" font-family="Times New Roman,serif" font-size="10.00">SpillState</text>
</g>
<!-- node0038&#45;&gt;node0020 -->
<g id="edge38" class="edge">
<title>node0038&#45;&gt;node0020</title>
<path fill="none" stroke="black" d="M1268.34,-59.43C1262.7,-63.74 1256.74,-68.12 1251,-72 1212.64,-97.94 1199.36,-98.56 1161,-124.5 1158.31,-126.32 1155.57,-128.25 1152.84,-130.23"/>
<polygon fill="black" stroke="black" points="1150.8,-127.38 1144.87,-136.16 1154.98,-132.99 1150.8,-127.38"/>
<text text-anchor="middle" x="1229.61" y="-93.2" font-family="Times New Roman,serif" font-size="14.00">is a</text>
</g>
</g>
</svg>
