<?xml version="1.0" encoding="UTF-8" standalone="no"?>
<!DOCTYPE svg PUBLIC "-//W3C//DTD SVG 1.1//EN"
 "http://www.w3.org/Graphics/SVG/1.1/DTD/svg11.dtd">
<!-- Generated by graphviz version 12.1.2 (20240928.0832)
 -->
<!-- Title: G Pages: 1 -->
<svg width="1475pt" height="454pt"
 viewBox="0.00 0.00 1475.00 453.50" xmlns="http://www.w3.org/2000/svg" xmlns:xlink="http://www.w3.org/1999/xlink">
<g id="graph0" class="graph" transform="scale(1 1) rotate(0) translate(4 449.5)">
<title>G</title>
<polygon fill="white" stroke="none" points="-4,4 -4,-449.5 1471,-449.5 1471,4 -4,4"/>
<!-- node0000 -->
<g id="node1" class="node">
<title>node0000</title>
<ellipse fill="none" stroke="black" cx="1116" cy="-409.5" rx="36" ry="36"/>
<text text-anchor="middle" x="1116" y="-405.62" font-family="Times New Roman,serif" font-size="10.00">Thing</text>
</g>
<!-- node0001 -->
<g id="node2" class="node">
<title>node0001</title>
<ellipse fill="none" stroke="black" cx="351" cy="-285" rx="36" ry="36"/>
<text text-anchor="middle" x="351" y="-281.12" font-family="Times New Roman,serif" font-size="10.00">169</text>
</g>
<!-- node0001&#45;&gt;node0000 -->
<g id="edge1" class="edge">
<title>node0001&#45;&gt;node0000</title>
<path fill="none" stroke="black" d="M377.11,-310.04C382.97,-314.33 389.41,-318.28 396,-321 518.86,-371.64 928.56,-398.26 1068.6,-406.04"/>
<polygon fill="black" stroke="black" points="1068.07,-409.52 1078.24,-406.57 1068.45,-402.53 1068.07,-409.52"/>
<text text-anchor="middle" x="537.48" y="-342.2" font-family="Times New Roman,serif" font-size="14.00">is a</text>
</g>
<!-- node0002 -->
<g id="node3" class="node">
<title>node0002</title>
<ellipse fill="none" stroke="black" cx="441" cy="-285" rx="36" ry="36"/>
<text text-anchor="middle" x="441" y="-281.12" font-family="Times New Roman,serif" font-size="10.00">ScenarioElement</text>
</g>
<!-- node0002&#45;&gt;node0000 -->
<g id="edge2" class="edge">
<title>node0002&#45;&gt;node0000</title>
<path fill="none" stroke="black" d="M476.34,-292.41C589.32,-312.92 941.77,-376.88 1069.33,-400.03"/>
<polygon fill="black" stroke="black" points="1068.65,-403.46 1079.11,-401.81 1069.9,-396.58 1068.65,-403.46"/>
<text text-anchor="middle" x="828.29" y="-342.2" font-family="Times New Roman,serif" font-size="14.00">is a</text>
</g>
<!-- node0003 -->
<g id="node4" class="node">
<title>node0003</title>
<ellipse fill="none" stroke="black" cx="801" cy="-285" rx="36" ry="36"/>
<text text-anchor="middle" x="801" y="-281.12" font-family="Times New Roman,serif" font-size="10.00">ElementCompositions</text>
</g>
<!-- node0003&#45;&gt;node0000 -->
<g id="edge3" class="edge">
<title>node0003&#45;&gt;node0000</title>
<path fill="none" stroke="black" d="M834.41,-298.99C891.59,-321.23 1008.19,-366.57 1071.94,-391.37"/>
<polygon fill="black" stroke="black" points="1070.46,-394.54 1081.05,-394.91 1072.99,-388.02 1070.46,-394.54"/>
<text text-anchor="middle" x="986.73" y="-342.2" font-family="Times New Roman,serif" font-size="14.00">is a</text>
</g>
<!-- node0004 -->
<g id="node5" class="node">
<title>node0004</title>
<ellipse fill="none" stroke="black" cx="1071" cy="-285" rx="36" ry="36"/>
<text text-anchor="middle" x="1071" y="-281.12" font-family="Times New Roman,serif" font-size="10.00">ElementState</text>
</g>
<!-- node0004&#45;&gt;node0000 -->
<g id="edge4" class="edge">
<title>node0004&#45;&gt;node0000</title>
<path fill="none" stroke="black" d="M1083.02,-319.25C1087.19,-330.74 1091.91,-343.69 1096.25,-355.5 1097.36,-358.52 1098.51,-361.64 1099.68,-364.78"/>
<polygon fill="black" stroke="black" points="1096.34,-365.86 1103.1,-374.02 1102.91,-363.43 1096.34,-365.86"/>
<text text-anchor="middle" x="1105.62" y="-342.2" font-family="Times New Roman,serif" font-size="14.00">is a</text>
</g>
<!-- node0005 -->
<g id="node6" class="node">
<title>node0005</title>
<ellipse fill="none" stroke="black" cx="1161" cy="-285" rx="36" ry="36"/>
<text text-anchor="middle" x="1161" y="-281.12" font-family="Times New Roman,serif" font-size="10.00">aidStates</text>
</g>
<!-- node0005&#45;&gt;node0000 -->
<g id="edge5" class="edge">
<title>node0005&#45;&gt;node0000</title>
<path fill="none" stroke="black" d="M1148.82,-319.15C1143.67,-333.18 1137.6,-349.71 1132.08,-364.72"/>
<polygon fill="black" stroke="black" points="1128.87,-363.31 1128.71,-373.9 1135.44,-365.72 1128.87,-363.31"/>
<text text-anchor="middle" x="1150.57" y="-342.2" font-family="Times New Roman,serif" font-size="14.00">is a</text>
</g>
<!-- node0006 -->
<g id="node7" class="node">
<title>node0006</title>
<ellipse fill="none" stroke="black" cx="1251" cy="-285" rx="36" ry="36"/>
<text text-anchor="middle" x="1251" y="-281.12" font-family="Times New Roman,serif" font-size="10.00">firefightingStates</text>
</g>
<!-- node0006&#45;&gt;node0000 -->
<g id="edge6" class="edge">
<title>node0006&#45;&gt;node0000</title>
<path fill="none" stroke="black" d="M1224.65,-309.91C1203.56,-329.05 1173.8,-356.06 1150.75,-376.96"/>
<polygon fill="black" stroke="black" points="1148.46,-374.32 1143.4,-383.63 1153.16,-379.51 1148.46,-374.32"/>
<text text-anchor="middle" x="1200.96" y="-342.2" font-family="Times New Roman,serif" font-size="14.00">is a</text>
</g>
<!-- node0007 -->
<g id="node8" class="node">
<title>node0007</title>
<ellipse fill="none" stroke="black" cx="1341" cy="-285" rx="36" ry="36"/>
<text text-anchor="middle" x="1341" y="-281.12" font-family="Times New Roman,serif" font-size="10.00">rescueStates</text>
</g>
<!-- node0007&#45;&gt;node0000 -->
<g id="edge7" class="edge">
<title>node0007&#45;&gt;node0000</title>
<path fill="none" stroke="black" d="M1313.57,-308.78C1307.91,-313.06 1301.88,-317.34 1296,-321 1251.57,-348.66 1197.1,-374.06 1159.8,-390.29"/>
<polygon fill="black" stroke="black" points="1158.47,-387.05 1150.67,-394.22 1161.24,-393.48 1158.47,-387.05"/>
<text text-anchor="middle" x="1272.32" y="-342.2" font-family="Times New Roman,serif" font-size="14.00">is a</text>
</g>
<!-- node0008 -->
<g id="node9" class="node">
<title>node0008</title>
<ellipse fill="none" stroke="black" cx="1431" cy="-285" rx="36" ry="36"/>
<text text-anchor="middle" x="1431" y="-281.12" font-family="Times New Roman,serif" font-size="10.00">towStates</text>
</g>
<!-- node0008&#45;&gt;node0000 -->
<g id="edge8" class="edge">
<title>node0008&#45;&gt;node0000</title>
<path fill="none" stroke="black" d="M1403.9,-309.35C1398.22,-313.59 1392.09,-317.7 1386,-321 1312.59,-360.78 1218.07,-386.24 1162.55,-398.9"/>
<polygon fill="black" stroke="black" points="1161.79,-395.48 1152.79,-401.08 1163.31,-402.31 1161.79,-395.48"/>
<text text-anchor="middle" x="1353.73" y="-342.2" font-family="Times New Roman,serif" font-size="14.00">is a</text>
</g>
<!-- node0009 -->
<g id="node10" class="node">
<title>node0009</title>
<ellipse fill="none" stroke="black" cx="171" cy="-160.5" rx="36" ry="36"/>
<text text-anchor="middle" x="171" y="-156.62" font-family="Times New Roman,serif" font-size="10.00">AffectedElement</text>
</g>
<!-- node0009&#45;&gt;node0002 -->
<g id="edge9" class="edge">
<title>node0009&#45;&gt;node0002</title>
<path fill="none" stroke="black" d="M203.91,-175.57C238.22,-190.07 293.65,-213.02 342.25,-231 365.88,-239.74 373.8,-237.1 396,-249 398.86,-250.53 401.73,-252.25 404.55,-254.08"/>
<polygon fill="black" stroke="black" points="402.48,-256.89 412.68,-259.74 406.48,-251.15 402.48,-256.89"/>
<text text-anchor="middle" x="351.62" y="-217.7" font-family="Times New Roman,serif" font-size="14.00">is a</text>
</g>
<!-- node0010 -->
<g id="node11" class="node">
<title>node0010</title>
<ellipse fill="none" stroke="black" cx="306" cy="-160.5" rx="36" ry="36"/>
<text text-anchor="middle" x="306" y="-156.62" font-family="Times New Roman,serif" font-size="10.00">HazardElement</text>
</g>
<!-- node0010&#45;&gt;node0002 -->
<g id="edge10" class="edge">
<title>node0010&#45;&gt;node0002</title>
<path fill="none" stroke="black" d="M332.35,-185.41C353.44,-204.55 383.2,-231.56 406.25,-252.46"/>
<polygon fill="black" stroke="black" points="403.84,-255.01 413.6,-259.13 408.54,-249.82 403.84,-255.01"/>
<text text-anchor="middle" x="390.96" y="-217.7" font-family="Times New Roman,serif" font-size="14.00">is a</text>
</g>
<!-- node0011 -->
<g id="node12" class="node">
<title>node0011</title>
<ellipse fill="none" stroke="black" cx="396" cy="-160.5" rx="36" ry="36"/>
<text text-anchor="middle" x="396" y="-156.62" font-family="Times New Roman,serif" font-size="10.00">EnvironmentElement</text>
</g>
<!-- node0011&#45;&gt;node0002 -->
<g id="edge11" class="edge">
<title>node0011&#45;&gt;node0002</title>
<path fill="none" stroke="black" d="M408.18,-194.65C413.33,-208.68 419.4,-225.21 424.92,-240.22"/>
<polygon fill="black" stroke="black" points="421.56,-241.22 428.29,-249.4 428.13,-238.81 421.56,-241.22"/>
<text text-anchor="middle" x="430.57" y="-217.7" font-family="Times New Roman,serif" font-size="14.00">is a</text>
</g>
<!-- node0012 -->
<g id="node13" class="node">
<title>node0012</title>
<ellipse fill="none" stroke="black" cx="486" cy="-160.5" rx="36" ry="36"/>
<text text-anchor="middle" x="486" y="-156.62" font-family="Times New Roman,serif" font-size="10.00">ResponsePlanElement</text>
</g>
<!-- node0012&#45;&gt;node0002 -->
<g id="edge12" class="edge">
<title>node0012&#45;&gt;node0002</title>
<path fill="none" stroke="black" d="M473.82,-194.65C468.67,-208.68 462.6,-225.21 457.08,-240.22"/>
<polygon fill="black" stroke="black" points="453.87,-238.81 453.71,-249.4 460.44,-241.22 453.87,-238.81"/>
<text text-anchor="middle" x="475.57" y="-217.7" font-family="Times New Roman,serif" font-size="14.00">is a</text>
</g>
<!-- node0013 -->
<g id="node14" class="node">
<title>node0013</title>
<ellipse fill="none" stroke="black" cx="576" cy="-160.5" rx="36" ry="36"/>
<text text-anchor="middle" x="576" y="-156.62" font-family="Times New Roman,serif" font-size="10.00">VehicleCargo</text>
</g>
<!-- node0013&#45;&gt;node0003 -->
<g id="edge13" class="edge">
<title>node0013&#45;&gt;node0003</title>
<path fill="none" stroke="black" d="M603.43,-184.28C609.09,-188.56 615.12,-192.84 621,-196.5 665.43,-224.16 719.9,-249.56 757.2,-265.79"/>
<polygon fill="black" stroke="black" points="755.76,-268.98 766.33,-269.72 758.53,-262.55 755.76,-268.98"/>
<text text-anchor="middle" x="687.91" y="-217.7" font-family="Times New Roman,serif" font-size="14.00">is a</text>
</g>
<!-- node0014 -->
<g id="node15" class="node">
<title>node0014</title>
<ellipse fill="none" stroke="black" cx="666" cy="-160.5" rx="36" ry="36"/>
<text text-anchor="middle" x="666" y="-156.62" font-family="Times New Roman,serif" font-size="10.00">VehiclePassengers</text>
</g>
<!-- node0014&#45;&gt;node0003 -->
<g id="edge14" class="edge">
<title>node0014&#45;&gt;node0003</title>
<path fill="none" stroke="black" d="M692.35,-185.41C713.44,-204.55 743.2,-231.56 766.25,-252.46"/>
<polygon fill="black" stroke="black" points="763.84,-255.01 773.6,-259.13 768.54,-249.82 763.84,-255.01"/>
<text text-anchor="middle" x="750.96" y="-217.7" font-family="Times New Roman,serif" font-size="14.00">is a</text>
</g>
<!-- node0015 -->
<g id="node16" class="node">
<title>node0015</title>
<ellipse fill="none" stroke="black" cx="756" cy="-160.5" rx="36" ry="36"/>
<text text-anchor="middle" x="756" y="-156.62" font-family="Times New Roman,serif" font-size="10.00">VehicleComponents</text>
</g>
<!-- node0015&#45;&gt;node0003 -->
<g id="edge15" class="edge">
<title>node0015&#45;&gt;node0003</title>
<path fill="none" stroke="black" d="M768.18,-194.65C773.33,-208.68 779.4,-225.21 784.92,-240.22"/>
<polygon fill="black" stroke="black" points="781.56,-241.22 788.29,-249.4 788.13,-238.81 781.56,-241.22"/>
<text text-anchor="middle" x="790.57" y="-217.7" font-family="Times New Roman,serif" font-size="14.00">is a</text>
</g>
<!-- node0016 -->
<g id="node17" class="node">
<title>node0016</title>
<ellipse fill="none" stroke="black" cx="846" cy="-160.5" rx="36" ry="36"/>
<text text-anchor="middle" x="846" y="-156.62" font-family="Times New Roman,serif" font-size="10.00">IncludedLanes</text>
</g>
<!-- node0016&#45;&gt;node0003 -->
<g id="edge16" class="edge">
<title>node0016&#45;&gt;node0003</title>
<path fill="none" stroke="black" d="M833.82,-194.65C828.67,-208.68 822.6,-225.21 817.08,-240.22"/>
<polygon fill="black" stroke="black" points="813.87,-238.81 813.71,-249.4 820.44,-241.22 813.87,-238.81"/>
<text text-anchor="middle" x="835.57" y="-217.7" font-family="Times New Roman,serif" font-size="14.00">is a</text>
</g>
<!-- node0017 -->
<g id="node18" class="node">
<title>node0017</title>
<ellipse fill="none" stroke="black" cx="936" cy="-160.5" rx="36" ry="36"/>
<text text-anchor="middle" x="936" y="-156.62" font-family="Times New Roman,serif" font-size="10.00">IncludedFacilities</text>
</g>
<!-- node0017&#45;&gt;node0003 -->
<g id="edge17" class="edge">
<title>node0017&#45;&gt;node0003</title>
<path fill="none" stroke="black" d="M909.65,-185.41C888.56,-204.55 858.8,-231.56 835.75,-252.46"/>
<polygon fill="black" stroke="black" points="833.46,-249.82 828.4,-259.13 838.16,-255.01 833.46,-249.82"/>
<text text-anchor="middle" x="885.96" y="-217.7" font-family="Times New Roman,serif" font-size="14.00">is a</text>
</g>
<!-- node0018 -->
<g id="node19" class="node">
<title>node0018</title>
<ellipse fill="none" stroke="black" cx="1026" cy="-160.5" rx="36" ry="36"/>
<text text-anchor="middle" x="1026" y="-156.62" font-family="Times New Roman,serif" font-size="10.00">AffectedStates</text>
</g>
<!-- node0018&#45;&gt;node0004 -->
<g id="edge18" class="edge">
<title>node0018&#45;&gt;node0004</title>
<path fill="none" stroke="black" d="M1038.02,-194.75C1042.19,-206.24 1046.91,-219.19 1051.25,-231 1052.36,-234.02 1053.51,-237.14 1054.68,-240.28"/>
<polygon fill="black" stroke="black" points="1051.34,-241.36 1058.1,-249.52 1057.91,-238.93 1051.34,-241.36"/>
<text text-anchor="middle" x="1060.62" y="-217.7" font-family="Times New Roman,serif" font-size="14.00">is a</text>
</g>
<!-- node0019 -->
<g id="node20" class="node">
<title>node0019</title>
<ellipse fill="none" stroke="black" cx="1116" cy="-160.5" rx="36" ry="36"/>
<text text-anchor="middle" x="1116" y="-156.62" font-family="Times New Roman,serif" font-size="10.00">HazardStates</text>
</g>
<!-- node0019&#45;&gt;node0004 -->
<g id="edge19" class="edge">
<title>node0019&#45;&gt;node0004</title>
<path fill="none" stroke="black" d="M1103.82,-194.65C1098.67,-208.68 1092.6,-225.21 1087.08,-240.22"/>
<polygon fill="black" stroke="black" points="1083.87,-238.81 1083.71,-249.4 1090.44,-241.22 1083.87,-238.81"/>
<text text-anchor="middle" x="1105.57" y="-217.7" font-family="Times New Roman,serif" font-size="14.00">is a</text>
</g>
<!-- node0020 -->
<g id="node21" class="node">
<title>node0020</title>
<ellipse fill="none" stroke="black" cx="1206" cy="-160.5" rx="36" ry="36"/>
<text text-anchor="middle" x="1206" y="-156.62" font-family="Times New Roman,serif" font-size="10.00">ResponseStates</text>
</g>
<!-- node0020&#45;&gt;node0004 -->
<g id="edge20" class="edge">
<title>node0020&#45;&gt;node0004</title>
<path fill="none" stroke="black" d="M1179.65,-185.41C1158.56,-204.55 1128.8,-231.56 1105.75,-252.46"/>
<polygon fill="black" stroke="black" points="1103.46,-249.82 1098.4,-259.13 1108.16,-255.01 1103.46,-249.82"/>
<text text-anchor="middle" x="1155.96" y="-217.7" font-family="Times New Roman,serif" font-size="14.00">is a</text>
</g>
<!-- node0021 -->
<g id="node22" class="node">
<title>node0021</title>
<ellipse fill="none" stroke="black" cx="1296" cy="-160.5" rx="36" ry="36"/>
<text text-anchor="middle" x="1296" y="-156.62" font-family="Times New Roman,serif" font-size="10.00">idleState</text>
</g>
<!-- node0021&#45;&gt;node0005 -->
<g id="edge21" class="edge">
<title>node0021&#45;&gt;node0005</title>
<path fill="none" stroke="black" d="M1269.65,-185.41C1248.56,-204.55 1218.8,-231.56 1195.75,-252.46"/>
<polygon fill="black" stroke="black" points="1193.46,-249.82 1188.4,-259.13 1198.16,-255.01 1193.46,-249.82"/>
<text text-anchor="middle" x="1245.96" y="-217.7" font-family="Times New Roman,serif" font-size="14.00">is a</text>
</g>
<!-- node0022 -->
<g id="node23" class="node">
<title>node0022</title>
<ellipse fill="none" stroke="black" cx="1386" cy="-160.5" rx="36" ry="36"/>
<text text-anchor="middle" x="1386" y="-156.62" font-family="Times New Roman,serif" font-size="10.00">implementState</text>
</g>
<!-- node0022&#45;&gt;node0005 -->
<g id="edge22" class="edge">
<title>node0022&#45;&gt;node0005</title>
<path fill="none" stroke="black" d="M1358.72,-184.54C1353.05,-188.8 1346.98,-193 1341,-196.5 1306.88,-216.48 1295.96,-216.97 1259,-231 1235.74,-239.83 1227.9,-237.2 1206,-249 1203.14,-250.54 1200.28,-252.26 1197.45,-254.09"/>
<polygon fill="black" stroke="black" points="1195.53,-251.17 1189.33,-259.76 1199.53,-256.91 1195.53,-251.17"/>
<text text-anchor="middle" x="1313.22" y="-217.7" font-family="Times New Roman,serif" font-size="14.00">is a</text>
</g>
<!-- node0023 -->
<g id="node24" class="node">
<title>node0023</title>
<ellipse fill="none" stroke="black" cx="36" cy="-36" rx="36" ry="36"/>
<text text-anchor="middle" x="36" y="-32.12" font-family="Times New Roman,serif" font-size="10.00">3</text>
</g>
<!-- node0023&#45;&gt;node0009 -->
<g id="edge23" class="edge">
<title>node0023&#45;&gt;node0009</title>
<path fill="none" stroke="black" d="M62.35,-60.91C83.44,-80.05 113.2,-107.06 136.25,-127.96"/>
<polygon fill="black" stroke="black" points="133.84,-130.51 143.6,-134.63 138.54,-125.32 133.84,-130.51"/>
<text text-anchor="middle" x="120.96" y="-93.2" font-family="Times New Roman,serif" font-size="14.00">is a</text>
</g>
<!-- node0024 -->
<g id="node25" class="node">
<title>node0024</title>
<ellipse fill="none" stroke="black" cx="126" cy="-36" rx="36" ry="36"/>
<text text-anchor="middle" x="126" y="-32.12" font-family="Times New Roman,serif" font-size="10.00">Road</text>
</g>
<!-- node0024&#45;&gt;node0009 -->
<g id="edge24" class="edge">
<title>node0024&#45;&gt;node0009</title>
<path fill="none" stroke="black" d="M138.18,-70.15C143.33,-84.18 149.4,-100.71 154.92,-115.72"/>
<polygon fill="black" stroke="black" points="151.56,-116.72 158.29,-124.9 158.13,-114.31 151.56,-116.72"/>
<text text-anchor="middle" x="160.57" y="-93.2" font-family="Times New Roman,serif" font-size="14.00">is a</text>
</g>
<!-- node0025 -->
<g id="node26" class="node">
<title>node0025</title>
<ellipse fill="none" stroke="black" cx="216" cy="-36" rx="36" ry="36"/>
<text text-anchor="middle" x="216" y="-32.12" font-family="Times New Roman,serif" font-size="10.00">HazardVehicle</text>
</g>
<!-- node0025&#45;&gt;node0009 -->
<g id="edge25" class="edge">
<title>node0025&#45;&gt;node0009</title>
<path fill="none" stroke="black" d="M203.82,-70.15C198.67,-84.18 192.6,-100.71 187.08,-115.72"/>
<polygon fill="black" stroke="black" points="183.87,-114.31 183.71,-124.9 190.44,-116.72 183.87,-114.31"/>
<text text-anchor="middle" x="205.57" y="-93.2" font-family="Times New Roman,serif" font-size="14.00">is a</text>
</g>
<!-- node0026 -->
<g id="node27" class="node">
<title>node0026</title>
<ellipse fill="none" stroke="black" cx="306" cy="-36" rx="36" ry="36"/>
<text text-anchor="middle" x="306" y="-32.12" font-family="Times New Roman,serif" font-size="10.00">6</text>
</g>
<!-- node0026&#45;&gt;node0010 -->
<g id="edge26" class="edge">
<title>node0026&#45;&gt;node0010</title>
<path fill="none" stroke="black" d="M306,-72.43C306,-85 306,-99.35 306,-112.72"/>
<polygon fill="black" stroke="black" points="302.5,-112.63 306,-122.63 309.5,-112.63 302.5,-112.63"/>
<text text-anchor="middle" x="315.38" y="-93.2" font-family="Times New Roman,serif" font-size="14.00">is a</text>
</g>
<!-- node0027 -->
<g id="node28" class="node">
<title>node0027</title>
<ellipse fill="none" stroke="black" cx="396" cy="-36" rx="36" ry="36"/>
<text text-anchor="middle" x="396" y="-32.12" font-family="Times New Roman,serif" font-size="10.00">5</text>
</g>
<!-- node0027&#45;&gt;node0011 -->
<g id="edge27" class="edge">
<title>node0027&#45;&gt;node0011</title>
<path fill="none" stroke="black" d="M396,-72.43C396,-85 396,-99.35 396,-112.72"/>
<polygon fill="black" stroke="black" points="392.5,-112.63 396,-122.63 399.5,-112.63 392.5,-112.63"/>
<text text-anchor="middle" x="405.38" y="-93.2" font-family="Times New Roman,serif" font-size="14.00">is a</text>
</g>
<!-- node0028 -->
<g id="node29" class="node">
<title>node0028</title>
<ellipse fill="none" stroke="black" cx="486" cy="-36" rx="36" ry="36"/>
<text text-anchor="middle" x="486" y="-32.12" font-family="Times New Roman,serif" font-size="10.00">7</text>
</g>
<!-- node0028&#45;&gt;node0012 -->
<g id="edge28" class="edge">
<title>node0028&#45;&gt;node0012</title>
<path fill="none" stroke="black" d="M486,-72.43C486,-85 486,-99.35 486,-112.72"/>
<polygon fill="black" stroke="black" points="482.5,-112.63 486,-122.63 489.5,-112.63 482.5,-112.63"/>
<text text-anchor="middle" x="495.38" y="-93.2" font-family="Times New Roman,serif" font-size="14.00">is a</text>
</g>
<!-- node0029 -->
<g id="node30" class="node">
<title>node0029</title>
<ellipse fill="none" stroke="black" cx="576" cy="-36" rx="36" ry="36"/>
<text text-anchor="middle" x="576" y="-32.12" font-family="Times New Roman,serif" font-size="10.00">8</text>
</g>
<!-- node0029&#45;&gt;node0012 -->
<g id="edge29" class="edge">
<title>node0029&#45;&gt;node0012</title>
<path fill="none" stroke="black" d="M554.9,-65.72C542.6,-82.46 526.94,-103.77 513.67,-121.84"/>
<polygon fill="black" stroke="black" points="510.97,-119.61 507.86,-129.74 516.61,-123.75 510.97,-119.61"/>
<text text-anchor="middle" x="545.76" y="-93.2" font-family="Times New Roman,serif" font-size="14.00">is a</text>
</g>
<!-- node0030 -->
<g id="node31" class="node">
<title>node0030</title>
<ellipse fill="none" stroke="black" cx="666" cy="-36" rx="36" ry="36"/>
<text text-anchor="middle" x="666" y="-32.12" font-family="Times New Roman,serif" font-size="10.00">ResponseResource</text>
</g>
<!-- node0030&#45;&gt;node0012 -->
<g id="edge30" class="edge">
<title>node0030&#45;&gt;node0012</title>
<path fill="none" stroke="black" d="M638.34,-59.43C632.7,-63.74 626.74,-68.12 621,-72 582.64,-97.94 569.36,-98.56 531,-124.5 528.31,-126.32 525.57,-128.25 522.84,-130.23"/>
<polygon fill="black" stroke="black" points="520.8,-127.38 514.87,-136.16 524.98,-132.99 520.8,-127.38"/>
<text text-anchor="middle" x="599.61" y="-93.2" font-family="Times New Roman,serif" font-size="14.00">is a</text>
</g>
<!-- node0031 -->
<g id="node32" class="node">
<title>node0031</title>
<ellipse fill="none" stroke="black" cx="756" cy="-36" rx="36" ry="36"/>
<text text-anchor="middle" x="756" y="-32.12" font-family="Times New Roman,serif" font-size="10.00">ResponseAction</text>
</g>
<!-- node0031&#45;&gt;node0012 -->
<g id="edge31" class="edge">
<title>node0031&#45;&gt;node0012</title>
<path fill="none" stroke="black" d="M728.88,-60.32C723.2,-64.56 717.08,-68.68 711,-72 670.47,-94.13 657.41,-93.86 613,-106.5 577.11,-116.71 564.78,-108.66 531,-124.5 527.87,-125.97 524.77,-127.68 521.73,-129.55"/>
<polygon fill="black" stroke="black" points="519.88,-126.57 513.58,-135.09 523.82,-132.36 519.88,-126.57"/>
<text text-anchor="middle" x="681.16" y="-93.2" font-family="Times New Roman,serif" font-size="14.00">is a</text>
</g>
<!-- node0032 -->
<g id="node33" class="node">
<title>node0032</title>
<ellipse fill="none" stroke="black" cx="846" cy="-36" rx="36" ry="36"/>
<text text-anchor="middle" x="846" y="-32.12" font-family="Times New Roman,serif" font-size="10.00">CollidedState</text>
</g>
<!-- node0032&#45;&gt;node0018 -->
<g id="edge32" class="edge">
<title>node0032&#45;&gt;node0018</title>
<path fill="none" stroke="black" d="M873.66,-59.43C879.3,-63.74 885.26,-68.12 891,-72 929.36,-97.94 942.64,-98.56 981,-124.5 983.69,-126.32 986.43,-128.25 989.16,-130.23"/>
<polygon fill="black" stroke="black" points="987.02,-132.99 997.13,-136.16 991.2,-127.38 987.02,-132.99"/>
<text text-anchor="middle" x="959.61" y="-93.2" font-family="Times New Roman,serif" font-size="14.00">is a</text>
</g>
<!-- node0033 -->
<g id="node34" class="node">
<title>node0033</title>
<ellipse fill="none" stroke="black" cx="936" cy="-36" rx="36" ry="36"/>
<text text-anchor="middle" x="936" y="-32.12" font-family="Times New Roman,serif" font-size="10.00">ExplodeState</text>
</g>
<!-- node0033&#45;&gt;node0018 -->
<g id="edge33" class="edge">
<title>node0033&#45;&gt;node0018</title>
<path fill="none" stroke="black" d="M957.1,-65.72C969.4,-82.46 985.06,-103.77 998.33,-121.84"/>
<polygon fill="black" stroke="black" points="995.39,-123.75 1004.14,-129.74 1001.03,-119.61 995.39,-123.75"/>
<text text-anchor="middle" x="995.76" y="-93.2" font-family="Times New Roman,serif" font-size="14.00">is a</text>
</g>
<!-- node0034 -->
<g id="node35" class="node">
<title>node0034</title>
<ellipse fill="none" stroke="black" cx="1026" cy="-36" rx="36" ry="36"/>
<text text-anchor="middle" x="1026" y="-32.12" font-family="Times New Roman,serif" font-size="10.00">DrivingState</text>
</g>
<!-- node0034&#45;&gt;node0018 -->
<g id="edge34" class="edge">
<title>node0034&#45;&gt;node0018</title>
<path fill="none" stroke="black" d="M1026,-72.43C1026,-85 1026,-99.35 1026,-112.72"/>
<polygon fill="black" stroke="black" points="1022.5,-112.63 1026,-122.63 1029.5,-112.63 1022.5,-112.63"/>
<text text-anchor="middle" x="1035.38" y="-93.2" font-family="Times New Roman,serif" font-size="14.00">is a</text>
</g>
<!-- node0035 -->
<g id="node36" class="node">
<title>node0035</title>
<ellipse fill="none" stroke="black" cx="1116" cy="-36" rx="36" ry="36"/>
<text text-anchor="middle" x="1116" y="-32.12" font-family="Times New Roman,serif" font-size="10.00">DriveState</text>
</g>
<!-- node0035&#45;&gt;node0019 -->
<g id="edge35" class="edge">
<title>node0035&#45;&gt;node0019</title>
<path fill="none" stroke="black" d="M1116,-72.43C1116,-85 1116,-99.35 1116,-112.72"/>
<polygon fill="black" stroke="black" points="1112.5,-112.63 1116,-122.63 1119.5,-112.63 1112.5,-112.63"/>
<text text-anchor="middle" x="1125.38" y="-93.2" font-family="Times New Roman,serif" font-size="14.00">is a</text>
</g>
<!-- node0036 -->
<g id="node37" class="node">
<title>node0036</title>
<ellipse fill="none" stroke="black" cx="1206" cy="-36" rx="36" ry="36"/>
<text text-anchor="middle" x="1206" y="-32.12" font-family="Times New Roman,serif" font-size="10.00">CollideState</text>
</g>
<!-- node0036&#45;&gt;node0019 -->
<g id="edge36" class="edge">
<title>node0036&#45;&gt;node0019</title>
<path fill="none" stroke="black" d="M1184.9,-65.72C1172.6,-82.46 1156.94,-103.77 1143.67,-121.84"/>
<polygon fill="black" stroke="black" points="1140.97,-119.61 1137.86,-129.74 1146.61,-123.75 1140.97,-119.61"/>
<text text-anchor="middle" x="1175.76" y="-93.2" font-family="Times New Roman,serif" font-size="14.00">is a</text>
</g>
<!-- node0037 -->
<g id="node38" class="node">
<title>node0037</title>
<ellipse fill="none" stroke="black" cx="1296" cy="-36" rx="36" ry="36"/>
<text text-anchor="middle" x="1296" y="-32.12" font-family="Times New Roman,serif" font-size="10.00">SpillState</text>
</g>
<!-- node0037&#45;&gt;node0019 -->
<g id="edge37" class="edge">
<title>node0037&#45;&gt;node0019</title>
<path fill="none" stroke="black" d="M1268.34,-59.43C1262.7,-63.74 1256.74,-68.12 1251,-72 1212.64,-97.94 1199.36,-98.56 1161,-124.5 1158.31,-126.32 1155.57,-128.25 1152.84,-130.23"/>
<polygon fill="black" stroke="black" points="1150.8,-127.38 1144.87,-136.16 1154.98,-132.99 1150.8,-127.38"/>
<text text-anchor="middle" x="1229.61" y="-93.2" font-family="Times New Roman,serif" font-size="14.00">is a</text>
</g>
</g>
</svg>
