<?xml version="1.0" encoding="UTF-8" standalone="no"?>
<!DOCTYPE svg PUBLIC "-//W3C//DTD SVG 1.1//EN"
 "http://www.w3.org/Graphics/SVG/1.1/DTD/svg11.dtd">
<!-- Generated by graphviz version 12.1.2 (20240928.0832)
 -->
<!-- Title: G Pages: 1 -->
<svg width="2780pt" height="454pt"
 viewBox="0.00 0.00 2780.00 453.50" xmlns="http://www.w3.org/2000/svg" xmlns:xlink="http://www.w3.org/1999/xlink">
<g id="graph0" class="graph" transform="scale(1 1) rotate(0) translate(4 449.5)">
<title>G</title>
<polygon fill="white" stroke="none" points="-4,4 -4,-449.5 2776,-449.5 2776,4 -4,4"/>
<!-- node0000 -->
<g id="node1" class="node">
<title>node0000</title>
<ellipse fill="none" stroke="black" cx="2005" cy="-409.5" rx="36" ry="36"/>
<text text-anchor="middle" x="2005" y="-405.62" font-family="Times New Roman,serif" font-size="10.00">Thing</text>
</g>
<!-- node0001 -->
<g id="node2" class="node">
<title>node0001</title>
<ellipse fill="none" stroke="black" cx="576" cy="-285" rx="36" ry="36"/>
<text text-anchor="middle" x="576" y="-281.12" font-family="Times New Roman,serif" font-size="10.00">towStates</text>
</g>
<!-- node0001&#45;&gt;node0000 -->
<g id="edge1" class="edge">
<title>node0001&#45;&gt;node0000</title>
<path fill="none" stroke="black" d="M602,-310.34C607.86,-314.6 614.34,-318.48 621,-321 748.18,-369.17 1728.98,-400.47 1957.51,-407.16"/>
<polygon fill="black" stroke="black" points="1957.13,-410.65 1967.23,-407.44 1957.34,-403.65 1957.13,-410.65"/>
<text text-anchor="middle" x="859.72" y="-342.2" font-family="Times New Roman,serif" font-size="14.00">is a</text>
</g>
<!-- node0002 -->
<g id="node3" class="node">
<title>node0002</title>
<ellipse fill="none" stroke="black" cx="666" cy="-285" rx="36" ry="36"/>
<text text-anchor="middle" x="666" y="-281.12" font-family="Times New Roman,serif" font-size="10.00">ElementState</text>
</g>
<!-- node0002&#45;&gt;node0000 -->
<g id="edge2" class="edge">
<title>node0002&#45;&gt;node0000</title>
<path fill="none" stroke="black" d="M701.87,-289.3C810.5,-299.3 1145.52,-330.1 1423.25,-355.5 1621.72,-373.65 1858.28,-395.16 1957.51,-404.18"/>
<polygon fill="black" stroke="black" points="1957.13,-407.66 1967.41,-405.08 1957.77,-400.69 1957.13,-407.66"/>
<text text-anchor="middle" x="1432.62" y="-342.2" font-family="Times New Roman,serif" font-size="14.00">is a</text>
</g>
<!-- node0003 -->
<g id="node4" class="node">
<title>node0003</title>
<ellipse fill="none" stroke="black" cx="1341" cy="-285" rx="36" ry="36"/>
<text text-anchor="middle" x="1341" y="-281.12" font-family="Times New Roman,serif" font-size="10.00">firefightingStates</text>
</g>
<!-- node0003&#45;&gt;node0000 -->
<g id="edge3" class="edge">
<title>node0003&#45;&gt;node0000</title>
<path fill="none" stroke="black" d="M1367.15,-309.94C1373.01,-314.24 1379.44,-318.22 1386,-321 1489.57,-364.88 1831.23,-395.07 1957.53,-404.97"/>
<polygon fill="black" stroke="black" points="1956.96,-408.43 1967.2,-405.72 1957.5,-401.45 1956.96,-408.43"/>
<text text-anchor="middle" x="1523.44" y="-342.2" font-family="Times New Roman,serif" font-size="14.00">is a</text>
</g>
<!-- node0004 -->
<g id="node5" class="node">
<title>node0004</title>
<ellipse fill="none" stroke="black" cx="1431" cy="-285" rx="36" ry="36"/>
<text text-anchor="middle" x="1431" y="-281.12" font-family="Times New Roman,serif" font-size="10.00">ScenarioElement</text>
</g>
<!-- node0004&#45;&gt;node0000 -->
<g id="edge4" class="edge">
<title>node0004&#45;&gt;node0000</title>
<path fill="none" stroke="black" d="M1466.47,-293.57C1565.86,-314.78 1847.03,-374.79 1958.57,-398.59"/>
<polygon fill="black" stroke="black" points="1957.77,-402 1968.28,-400.66 1959.23,-395.15 1957.77,-402"/>
<text text-anchor="middle" x="1761.74" y="-342.2" font-family="Times New Roman,serif" font-size="14.00">is a</text>
</g>
<!-- node0005 -->
<g id="node6" class="node">
<title>node0005</title>
<ellipse fill="none" stroke="black" cx="1746" cy="-285" rx="36" ry="36"/>
<text text-anchor="middle" x="1746" y="-281.12" font-family="Times New Roman,serif" font-size="10.00">ResilienceInfluentialFactors</text>
</g>
<!-- node0005&#45;&gt;node0000 -->
<g id="edge5" class="edge">
<title>node0005&#45;&gt;node0000</title>
<path fill="none" stroke="black" d="M1778.54,-301.39C1825.19,-323.45 1911.11,-364.09 1962.66,-388.47"/>
<polygon fill="black" stroke="black" points="1960.89,-391.51 1971.43,-392.62 1963.88,-385.18 1960.89,-391.51"/>
<text text-anchor="middle" x="1900.38" y="-342.2" font-family="Times New Roman,serif" font-size="14.00">is a</text>
</g>
<!-- node0006 -->
<g id="node7" class="node">
<title>node0006</title>
<ellipse fill="none" stroke="black" cx="1870" cy="-285" rx="36" ry="36"/>
<text text-anchor="middle" x="1870" y="-281.12" font-family="Times New Roman,serif" font-size="10.00">Scenario</text>
</g>
<!-- node0006&#45;&gt;node0000 -->
<g id="edge6" class="edge">
<title>node0006&#45;&gt;node0000</title>
<path fill="none" stroke="black" d="M1896.35,-309.91C1917.44,-329.05 1947.2,-356.06 1970.25,-376.96"/>
<polygon fill="black" stroke="black" points="1967.84,-379.51 1977.6,-383.63 1972.54,-374.32 1967.84,-379.51"/>
<text text-anchor="middle" x="1954.96" y="-342.2" font-family="Times New Roman,serif" font-size="14.00">is a</text>
</g>
<!-- node0007 -->
<g id="node8" class="node">
<title>node0007</title>
<ellipse fill="none" stroke="black" cx="1960" cy="-285" rx="36" ry="36"/>
<text text-anchor="middle" x="1960" y="-281.12" font-family="Times New Roman,serif" font-size="10.00">Emergency</text>
</g>
<!-- node0007&#45;&gt;node0000 -->
<g id="edge7" class="edge">
<title>node0007&#45;&gt;node0000</title>
<path fill="none" stroke="black" d="M1972.18,-319.15C1977.33,-333.18 1983.4,-349.71 1988.92,-364.72"/>
<polygon fill="black" stroke="black" points="1985.56,-365.72 1992.29,-373.9 1992.13,-363.31 1985.56,-365.72"/>
<text text-anchor="middle" x="1994.57" y="-342.2" font-family="Times New Roman,serif" font-size="14.00">is a</text>
</g>
<!-- node0008 -->
<g id="node9" class="node">
<title>node0008</title>
<ellipse fill="none" stroke="black" cx="2050" cy="-285" rx="36" ry="36"/>
<text text-anchor="middle" x="2050" y="-281.12" font-family="Times New Roman,serif" font-size="10.00">InvolvedScenario</text>
</g>
<!-- node0008&#45;&gt;node0000 -->
<g id="edge8" class="edge">
<title>node0008&#45;&gt;node0000</title>
<path fill="none" stroke="black" d="M2037.82,-319.15C2032.67,-333.18 2026.6,-349.71 2021.08,-364.72"/>
<polygon fill="black" stroke="black" points="2017.87,-363.31 2017.71,-373.9 2024.44,-365.72 2017.87,-363.31"/>
<text text-anchor="middle" x="2039.57" y="-342.2" font-family="Times New Roman,serif" font-size="14.00">is a</text>
</g>
<!-- node0009 -->
<g id="node10" class="node">
<title>node0009</title>
<ellipse fill="none" stroke="black" cx="2140" cy="-285" rx="36" ry="36"/>
<text text-anchor="middle" x="2140" y="-281.12" font-family="Times New Roman,serif" font-size="10.00">EmergencyPhase</text>
</g>
<!-- node0009&#45;&gt;node0000 -->
<g id="edge9" class="edge">
<title>node0009&#45;&gt;node0000</title>
<path fill="none" stroke="black" d="M2113.65,-309.91C2092.56,-329.05 2062.8,-356.06 2039.75,-376.96"/>
<polygon fill="black" stroke="black" points="2037.46,-374.32 2032.4,-383.63 2042.16,-379.51 2037.46,-374.32"/>
<text text-anchor="middle" x="2089.96" y="-342.2" font-family="Times New Roman,serif" font-size="14.00">is a</text>
</g>
<!-- node0010 -->
<g id="node11" class="node">
<title>node0010</title>
<ellipse fill="none" stroke="black" cx="2230" cy="-285" rx="36" ry="36"/>
<text text-anchor="middle" x="2230" y="-281.12" font-family="Times New Roman,serif" font-size="10.00">InvolvedScenarioElement</text>
</g>
<!-- node0010&#45;&gt;node0000 -->
<g id="edge10" class="edge">
<title>node0010&#45;&gt;node0000</title>
<path fill="none" stroke="black" d="M2202.57,-308.78C2196.91,-313.06 2190.88,-317.34 2185,-321 2140.57,-348.66 2086.1,-374.06 2048.8,-390.29"/>
<polygon fill="black" stroke="black" points="2047.47,-387.05 2039.67,-394.22 2050.24,-393.48 2047.47,-387.05"/>
<text text-anchor="middle" x="2161.32" y="-342.2" font-family="Times New Roman,serif" font-size="14.00">is a</text>
</g>
<!-- node0011 -->
<g id="node12" class="node">
<title>node0011</title>
<ellipse fill="none" stroke="black" cx="2320" cy="-285" rx="36" ry="36"/>
<text text-anchor="middle" x="2320" y="-281.12" font-family="Times New Roman,serif" font-size="10.00">ElementCompositions</text>
</g>
<!-- node0011&#45;&gt;node0000 -->
<g id="edge11" class="edge">
<title>node0011&#45;&gt;node0000</title>
<path fill="none" stroke="black" d="M2292.9,-309.35C2287.22,-313.59 2281.09,-317.7 2275,-321 2201.59,-360.78 2107.07,-386.24 2051.55,-398.9"/>
<polygon fill="black" stroke="black" points="2050.79,-395.48 2041.79,-401.08 2052.31,-402.31 2050.79,-395.48"/>
<text text-anchor="middle" x="2242.73" y="-342.2" font-family="Times New Roman,serif" font-size="14.00">is a</text>
</g>
<!-- node0012 -->
<g id="node13" class="node">
<title>node0012</title>
<ellipse fill="none" stroke="black" cx="2410" cy="-285" rx="36" ry="36"/>
<text text-anchor="middle" x="2410" y="-281.12" font-family="Times New Roman,serif" font-size="10.00">rescueStates</text>
</g>
<!-- node0012&#45;&gt;node0000 -->
<g id="edge12" class="edge">
<title>node0012&#45;&gt;node0000</title>
<path fill="none" stroke="black" d="M2382.97,-309.48C2377.28,-313.7 2371.13,-317.78 2365,-321 2261.71,-375.27 2124.04,-396.56 2052.58,-404.37"/>
<polygon fill="black" stroke="black" points="2052.37,-400.87 2042.78,-405.39 2053.09,-407.83 2052.37,-400.87"/>
<text text-anchor="middle" x="2328.87" y="-342.2" font-family="Times New Roman,serif" font-size="14.00">is a</text>
</g>
<!-- node0013 -->
<g id="node14" class="node">
<title>node0013</title>
<ellipse fill="none" stroke="black" cx="2500" cy="-285" rx="36" ry="36"/>
<text text-anchor="middle" x="2500" y="-281.12" font-family="Times New Roman,serif" font-size="10.00">ScenarioResilience</text>
</g>
<!-- node0013&#45;&gt;node0000 -->
<g id="edge13" class="edge">
<title>node0013&#45;&gt;node0000</title>
<path fill="none" stroke="black" d="M2472.99,-309.53C2467.3,-313.75 2461.15,-317.81 2455,-321 2408.39,-345.19 2393.17,-343.73 2342,-355.5 2239.64,-379.05 2117.36,-395.41 2051.89,-403.24"/>
<polygon fill="black" stroke="black" points="2051.76,-399.73 2042.24,-404.38 2052.58,-406.68 2051.76,-399.73"/>
<text text-anchor="middle" x="2421.14" y="-342.2" font-family="Times New Roman,serif" font-size="14.00">is a</text>
</g>
<!-- node0014 -->
<g id="node15" class="node">
<title>node0014</title>
<ellipse fill="none" stroke="black" cx="2646" cy="-285" rx="36" ry="36"/>
<text text-anchor="middle" x="2646" y="-281.12" font-family="Times New Roman,serif" font-size="10.00">aidStates</text>
</g>
<!-- node0014&#45;&gt;node0000 -->
<g id="edge14" class="edge">
<title>node0014&#45;&gt;node0000</title>
<path fill="none" stroke="black" d="M2611.96,-298.08C2592.41,-304.94 2567.38,-313.61 2545,-321 2496.34,-337.06 2485.08,-344.65 2435,-355.5 2297.84,-385.2 2132.21,-399.76 2052.46,-405.47"/>
<polygon fill="black" stroke="black" points="2052.57,-401.96 2042.84,-406.15 2053.06,-408.94 2052.57,-401.96"/>
<text text-anchor="middle" x="2501.73" y="-342.2" font-family="Times New Roman,serif" font-size="14.00">is a</text>
</g>
<!-- node0015 -->
<g id="node16" class="node">
<title>node0015</title>
<ellipse fill="none" stroke="black" cx="171" cy="-160.5" rx="36" ry="36"/>
<text text-anchor="middle" x="171" y="-156.62" font-family="Times New Roman,serif" font-size="10.00">HazardStates</text>
</g>
<!-- node0015&#45;&gt;node0002 -->
<g id="edge15" class="edge">
<title>node0015&#45;&gt;node0002</title>
<path fill="none" stroke="black" d="M206.57,-168.19C311.23,-187.9 611.43,-244.65 621,-249 624.14,-250.43 627.26,-252.12 630.31,-253.97"/>
<polygon fill="black" stroke="black" points="628.23,-256.78 638.48,-259.47 632.14,-250.98 628.23,-256.78"/>
<text text-anchor="middle" x="539.24" y="-217.7" font-family="Times New Roman,serif" font-size="14.00">is a</text>
</g>
<!-- node0016 -->
<g id="node17" class="node">
<title>node0016</title>
<ellipse fill="none" stroke="black" cx="441" cy="-160.5" rx="36" ry="36"/>
<text text-anchor="middle" x="441" y="-156.62" font-family="Times New Roman,serif" font-size="10.00">AffectedStates</text>
</g>
<!-- node0016&#45;&gt;node0002 -->
<g id="edge16" class="edge">
<title>node0016&#45;&gt;node0002</title>
<path fill="none" stroke="black" d="M474.28,-175.18C511.25,-190.94 572.18,-218.61 621,-249 623.76,-250.72 626.55,-252.57 629.32,-254.49"/>
<polygon fill="black" stroke="black" points="627.2,-257.28 637.34,-260.33 631.31,-251.62 627.2,-257.28"/>
<text text-anchor="middle" x="597.32" y="-217.7" font-family="Times New Roman,serif" font-size="14.00">is a</text>
</g>
<!-- node0017 -->
<g id="node18" class="node">
<title>node0017</title>
<ellipse fill="none" stroke="black" cx="666" cy="-160.5" rx="36" ry="36"/>
<text text-anchor="middle" x="666" y="-156.62" font-family="Times New Roman,serif" font-size="10.00">ResponseStates</text>
</g>
<!-- node0017&#45;&gt;node0002 -->
<g id="edge17" class="edge">
<title>node0017&#45;&gt;node0002</title>
<path fill="none" stroke="black" d="M666,-196.93C666,-209.5 666,-223.85 666,-237.22"/>
<polygon fill="black" stroke="black" points="662.5,-237.13 666,-247.13 669.5,-237.13 662.5,-237.13"/>
<text text-anchor="middle" x="675.38" y="-217.7" font-family="Times New Roman,serif" font-size="14.00">is a</text>
</g>
<!-- node0018 -->
<g id="node19" class="node">
<title>node0018</title>
<ellipse fill="none" stroke="black" cx="936" cy="-160.5" rx="36" ry="36"/>
<text text-anchor="middle" x="936" y="-156.62" font-family="Times New Roman,serif" font-size="10.00">ResponsePlanElement</text>
</g>
<!-- node0018&#45;&gt;node0004 -->
<g id="edge18" class="edge">
<title>node0018&#45;&gt;node0004</title>
<path fill="none" stroke="black" d="M971.75,-167.47C1071.5,-184.25 1348.1,-231.77 1386,-249 1389.14,-250.43 1392.26,-252.12 1395.31,-253.97"/>
<polygon fill="black" stroke="black" points="1393.23,-256.78 1403.48,-259.47 1397.14,-250.98 1393.23,-256.78"/>
<text text-anchor="middle" x="1321" y="-217.7" font-family="Times New Roman,serif" font-size="14.00">is a</text>
</g>
<!-- node0019 -->
<g id="node20" class="node">
<title>node0019</title>
<ellipse fill="none" stroke="black" cx="1296" cy="-160.5" rx="36" ry="36"/>
<text text-anchor="middle" x="1296" y="-156.62" font-family="Times New Roman,serif" font-size="10.00">AffectedElement</text>
</g>
<!-- node0019&#45;&gt;node0004 -->
<g id="edge19" class="edge">
<title>node0019&#45;&gt;node0004</title>
<path fill="none" stroke="black" d="M1322.35,-185.41C1343.44,-204.55 1373.2,-231.56 1396.25,-252.46"/>
<polygon fill="black" stroke="black" points="1393.84,-255.01 1403.6,-259.13 1398.54,-249.82 1393.84,-255.01"/>
<text text-anchor="middle" x="1380.96" y="-217.7" font-family="Times New Roman,serif" font-size="14.00">is a</text>
</g>
<!-- node0020 -->
<g id="node21" class="node">
<title>node0020</title>
<ellipse fill="none" stroke="black" cx="1386" cy="-160.5" rx="36" ry="36"/>
<text text-anchor="middle" x="1386" y="-156.62" font-family="Times New Roman,serif" font-size="10.00">EnvironmentElement</text>
</g>
<!-- node0020&#45;&gt;node0004 -->
<g id="edge20" class="edge">
<title>node0020&#45;&gt;node0004</title>
<path fill="none" stroke="black" d="M1398.18,-194.65C1403.33,-208.68 1409.4,-225.21 1414.92,-240.22"/>
<polygon fill="black" stroke="black" points="1411.56,-241.22 1418.29,-249.4 1418.13,-238.81 1411.56,-241.22"/>
<text text-anchor="middle" x="1420.57" y="-217.7" font-family="Times New Roman,serif" font-size="14.00">is a</text>
</g>
<!-- node0021 -->
<g id="node22" class="node">
<title>node0021</title>
<ellipse fill="none" stroke="black" cx="1476" cy="-160.5" rx="36" ry="36"/>
<text text-anchor="middle" x="1476" y="-156.62" font-family="Times New Roman,serif" font-size="10.00">HazardElement</text>
</g>
<!-- node0021&#45;&gt;node0004 -->
<g id="edge21" class="edge">
<title>node0021&#45;&gt;node0004</title>
<path fill="none" stroke="black" d="M1463.82,-194.65C1458.67,-208.68 1452.6,-225.21 1447.08,-240.22"/>
<polygon fill="black" stroke="black" points="1443.87,-238.81 1443.71,-249.4 1450.44,-241.22 1443.87,-238.81"/>
<text text-anchor="middle" x="1465.57" y="-217.7" font-family="Times New Roman,serif" font-size="14.00">is a</text>
</g>
<!-- node0022 -->
<g id="node23" class="node">
<title>node0022</title>
<ellipse fill="none" stroke="black" cx="1566" cy="-160.5" rx="36" ry="36"/>
<text text-anchor="middle" x="1566" y="-156.62" font-family="Times New Roman,serif" font-size="10.00">SafetyFactors</text>
</g>
<!-- node0022&#45;&gt;node0005 -->
<g id="edge22" class="edge">
<title>node0022&#45;&gt;node0005</title>
<path fill="none" stroke="black" d="M1593.8,-183.72C1599.43,-188.05 1605.35,-192.49 1611,-196.5 1642.22,-218.7 1678.74,-242.23 1705.92,-259.29"/>
<polygon fill="black" stroke="black" points="1703.86,-262.13 1714.2,-264.46 1707.57,-256.2 1703.86,-262.13"/>
<text text-anchor="middle" x="1667.9" y="-217.7" font-family="Times New Roman,serif" font-size="14.00">is a</text>
</g>
<!-- node0023 -->
<g id="node24" class="node">
<title>node0023</title>
<ellipse fill="none" stroke="black" cx="1656" cy="-160.5" rx="36" ry="36"/>
<text text-anchor="middle" x="1656" y="-156.62" font-family="Times New Roman,serif" font-size="10.00">FunctionFactors</text>
</g>
<!-- node0023&#45;&gt;node0005 -->
<g id="edge23" class="edge">
<title>node0023&#45;&gt;node0005</title>
<path fill="none" stroke="black" d="M1677.1,-190.22C1689.4,-206.96 1705.06,-228.27 1718.33,-246.34"/>
<polygon fill="black" stroke="black" points="1715.39,-248.25 1724.14,-254.24 1721.03,-244.11 1715.39,-248.25"/>
<text text-anchor="middle" x="1715.76" y="-217.7" font-family="Times New Roman,serif" font-size="14.00">is a</text>
</g>
<!-- node0024 -->
<g id="node25" class="node">
<title>node0024</title>
<ellipse fill="none" stroke="black" cx="1746" cy="-160.5" rx="36" ry="36"/>
<text text-anchor="middle" x="1746" y="-156.62" font-family="Times New Roman,serif" font-size="10.00">EconomicFactors</text>
</g>
<!-- node0024&#45;&gt;node0005 -->
<g id="edge24" class="edge">
<title>node0024&#45;&gt;node0005</title>
<path fill="none" stroke="black" d="M1746,-196.93C1746,-209.5 1746,-223.85 1746,-237.22"/>
<polygon fill="black" stroke="black" points="1742.5,-237.13 1746,-247.13 1749.5,-237.13 1742.5,-237.13"/>
<text text-anchor="middle" x="1755.38" y="-217.7" font-family="Times New Roman,serif" font-size="14.00">is a</text>
</g>
<!-- node0025 -->
<g id="node26" class="node">
<title>node0025</title>
<ellipse fill="none" stroke="black" cx="1836" cy="-160.5" rx="36" ry="36"/>
<text text-anchor="middle" x="1836" y="-156.62" font-family="Times New Roman,serif" font-size="10.00">TimeFactors</text>
</g>
<!-- node0025&#45;&gt;node0005 -->
<g id="edge25" class="edge">
<title>node0025&#45;&gt;node0005</title>
<path fill="none" stroke="black" d="M1814.9,-190.22C1802.6,-206.96 1786.94,-228.27 1773.67,-246.34"/>
<polygon fill="black" stroke="black" points="1770.97,-244.11 1767.86,-254.24 1776.61,-248.25 1770.97,-244.11"/>
<text text-anchor="middle" x="1805.76" y="-217.7" font-family="Times New Roman,serif" font-size="14.00">is a</text>
</g>
<!-- node0026 -->
<g id="node27" class="node">
<title>node0026</title>
<ellipse fill="none" stroke="black" cx="1926" cy="-160.5" rx="36" ry="36"/>
<text text-anchor="middle" x="1926" y="-156.62" font-family="Times New Roman,serif" font-size="10.00">AbsorptionScenario</text>
</g>
<!-- node0026&#45;&gt;node0006 -->
<g id="edge26" class="edge">
<title>node0026&#45;&gt;node0006</title>
<path fill="none" stroke="black" d="M1911.29,-193.69C1904.53,-208.46 1896.44,-226.16 1889.22,-241.97"/>
<polygon fill="black" stroke="black" points="1886.22,-240.1 1885.24,-250.65 1892.59,-243.01 1886.22,-240.1"/>
<text text-anchor="middle" x="1910.73" y="-217.7" font-family="Times New Roman,serif" font-size="14.00">is a</text>
</g>
<!-- node0027 -->
<g id="node28" class="node">
<title>node0027</title>
<ellipse fill="none" stroke="black" cx="2016" cy="-160.5" rx="36" ry="36"/>
<text text-anchor="middle" x="2016" y="-156.62" font-family="Times New Roman,serif" font-size="10.00">AdaptionScenario</text>
</g>
<!-- node0027&#45;&gt;node0006 -->
<g id="edge27" class="edge">
<title>node0027&#45;&gt;node0006</title>
<path fill="none" stroke="black" d="M1988.54,-184.54C1965.19,-204.13 1931.49,-232.41 1905.99,-253.81"/>
<polygon fill="black" stroke="black" points="1903.91,-250.98 1898.5,-260.09 1908.41,-256.34 1903.91,-250.98"/>
<text text-anchor="middle" x="1961.12" y="-217.7" font-family="Times New Roman,serif" font-size="14.00">is a</text>
</g>
<!-- node0028 -->
<g id="node29" class="node">
<title>node0028</title>
<ellipse fill="none" stroke="black" cx="2106" cy="-160.5" rx="36" ry="36"/>
<text text-anchor="middle" x="2106" y="-156.62" font-family="Times New Roman,serif" font-size="10.00">RecoveryScenario</text>
</g>
<!-- node0028&#45;&gt;node0006 -->
<g id="edge28" class="edge">
<title>node0028&#45;&gt;node0006</title>
<path fill="none" stroke="black" d="M2078.78,-184.64C2073.1,-188.89 2067.01,-193.06 2061,-196.5 2024.89,-217.14 2013.26,-217.25 1974,-231 1948.13,-240.06 1939.34,-236.37 1915,-249 1912.12,-250.5 1909.23,-252.18 1906.4,-253.99"/>
<polygon fill="black" stroke="black" points="1904.49,-251.05 1898.25,-259.61 1908.47,-256.81 1904.49,-251.05"/>
<text text-anchor="middle" x="2032.49" y="-217.7" font-family="Times New Roman,serif" font-size="14.00">is a</text>
</g>
<!-- node0029 -->
<g id="node30" class="node">
<title>node0029</title>
<ellipse fill="none" stroke="black" cx="2196" cy="-160.5" rx="36" ry="36"/>
<text text-anchor="middle" x="2196" y="-156.62" font-family="Times New Roman,serif" font-size="10.00">VehicleComponents</text>
</g>
<!-- node0029&#45;&gt;node0011 -->
<g id="edge29" class="edge">
<title>node0029&#45;&gt;node0011</title>
<path fill="none" stroke="black" d="M2221.39,-186.59C2240.2,-205.16 2266.01,-230.66 2286.5,-250.91"/>
<polygon fill="black" stroke="black" points="2283.99,-253.35 2293.56,-257.88 2288.91,-248.37 2283.99,-253.35"/>
<text text-anchor="middle" x="2274.8" y="-217.7" font-family="Times New Roman,serif" font-size="14.00">is a</text>
</g>
<!-- node0030 -->
<g id="node31" class="node">
<title>node0030</title>
<ellipse fill="none" stroke="black" cx="2286" cy="-160.5" rx="36" ry="36"/>
<text text-anchor="middle" x="2286" y="-156.62" font-family="Times New Roman,serif" font-size="10.00">VehicleCargo</text>
</g>
<!-- node0030&#45;&gt;node0011 -->
<g id="edge30" class="edge">
<title>node0030&#45;&gt;node0011</title>
<path fill="none" stroke="black" d="M2295.47,-195.62C2299.23,-209.16 2303.6,-224.92 2307.61,-239.35"/>
<polygon fill="black" stroke="black" points="2304.13,-239.9 2310.18,-248.6 2310.87,-238.03 2304.13,-239.9"/>
<text text-anchor="middle" x="2314.41" y="-217.7" font-family="Times New Roman,serif" font-size="14.00">is a</text>
</g>
<!-- node0031 -->
<g id="node32" class="node">
<title>node0031</title>
<ellipse fill="none" stroke="black" cx="2376" cy="-160.5" rx="36" ry="36"/>
<text text-anchor="middle" x="2376" y="-156.62" font-family="Times New Roman,serif" font-size="10.00">IncludedLanes</text>
</g>
<!-- node0031&#45;&gt;node0011 -->
<g id="edge31" class="edge">
<title>node0031&#45;&gt;node0011</title>
<path fill="none" stroke="black" d="M2361.29,-193.69C2354.53,-208.46 2346.44,-226.16 2339.22,-241.97"/>
<polygon fill="black" stroke="black" points="2336.22,-240.1 2335.24,-250.65 2342.59,-243.01 2336.22,-240.1"/>
<text text-anchor="middle" x="2360.73" y="-217.7" font-family="Times New Roman,serif" font-size="14.00">is a</text>
</g>
<!-- node0032 -->
<g id="node33" class="node">
<title>node0032</title>
<ellipse fill="none" stroke="black" cx="2466" cy="-160.5" rx="36" ry="36"/>
<text text-anchor="middle" x="2466" y="-156.62" font-family="Times New Roman,serif" font-size="10.00">IncludedFacilities</text>
</g>
<!-- node0032&#45;&gt;node0011 -->
<g id="edge32" class="edge">
<title>node0032&#45;&gt;node0011</title>
<path fill="none" stroke="black" d="M2438.54,-184.54C2415.19,-204.13 2381.49,-232.41 2355.99,-253.81"/>
<polygon fill="black" stroke="black" points="2353.91,-250.98 2348.5,-260.09 2358.41,-256.34 2353.91,-250.98"/>
<text text-anchor="middle" x="2411.12" y="-217.7" font-family="Times New Roman,serif" font-size="14.00">is a</text>
</g>
<!-- node0033 -->
<g id="node34" class="node">
<title>node0033</title>
<ellipse fill="none" stroke="black" cx="2556" cy="-160.5" rx="36" ry="36"/>
<text text-anchor="middle" x="2556" y="-156.62" font-family="Times New Roman,serif" font-size="10.00">VehiclePassengers</text>
</g>
<!-- node0033&#45;&gt;node0011 -->
<g id="edge33" class="edge">
<title>node0033&#45;&gt;node0011</title>
<path fill="none" stroke="black" d="M2528.78,-184.64C2523.1,-188.89 2517.01,-193.06 2511,-196.5 2474.89,-217.14 2463.26,-217.25 2424,-231 2398.13,-240.06 2389.34,-236.37 2365,-249 2362.12,-250.5 2359.23,-252.18 2356.4,-253.99"/>
<polygon fill="black" stroke="black" points="2354.49,-251.05 2348.25,-259.61 2358.47,-256.81 2354.49,-251.05"/>
<text text-anchor="middle" x="2482.49" y="-217.7" font-family="Times New Roman,serif" font-size="14.00">is a</text>
</g>
<!-- node0034 -->
<g id="node35" class="node">
<title>node0034</title>
<ellipse fill="none" stroke="black" cx="2646" cy="-160.5" rx="36" ry="36"/>
<text text-anchor="middle" x="2646" y="-156.62" font-family="Times New Roman,serif" font-size="10.00">idleState</text>
</g>
<!-- node0034&#45;&gt;node0014 -->
<g id="edge34" class="edge">
<title>node0034&#45;&gt;node0014</title>
<path fill="none" stroke="black" d="M2646,-196.93C2646,-209.5 2646,-223.85 2646,-237.22"/>
<polygon fill="black" stroke="black" points="2642.5,-237.13 2646,-247.13 2649.5,-237.13 2642.5,-237.13"/>
<text text-anchor="middle" x="2655.38" y="-217.7" font-family="Times New Roman,serif" font-size="14.00">is a</text>
</g>
<!-- node0035 -->
<g id="node36" class="node">
<title>node0035</title>
<ellipse fill="none" stroke="black" cx="2736" cy="-160.5" rx="36" ry="36"/>
<text text-anchor="middle" x="2736" y="-156.62" font-family="Times New Roman,serif" font-size="10.00">implementState</text>
</g>
<!-- node0035&#45;&gt;node0014 -->
<g id="edge35" class="edge">
<title>node0035&#45;&gt;node0014</title>
<path fill="none" stroke="black" d="M2714.9,-190.22C2702.6,-206.96 2686.94,-228.27 2673.67,-246.34"/>
<polygon fill="black" stroke="black" points="2670.97,-244.11 2667.86,-254.24 2676.61,-248.25 2670.97,-244.11"/>
<text text-anchor="middle" x="2705.76" y="-217.7" font-family="Times New Roman,serif" font-size="14.00">is a</text>
</g>
<!-- node0036 -->
<g id="node37" class="node">
<title>node0036</title>
<ellipse fill="none" stroke="black" cx="36" cy="-36" rx="36" ry="36"/>
<text text-anchor="middle" x="36" y="-32.12" font-family="Times New Roman,serif" font-size="10.00">CollideState</text>
</g>
<!-- node0036&#45;&gt;node0015 -->
<g id="edge36" class="edge">
<title>node0036&#45;&gt;node0015</title>
<path fill="none" stroke="black" d="M62.35,-60.91C83.44,-80.05 113.2,-107.06 136.25,-127.96"/>
<polygon fill="black" stroke="black" points="133.84,-130.51 143.6,-134.63 138.54,-125.32 133.84,-130.51"/>
<text text-anchor="middle" x="120.96" y="-93.2" font-family="Times New Roman,serif" font-size="14.00">is a</text>
</g>
<!-- node0037 -->
<g id="node38" class="node">
<title>node0037</title>
<ellipse fill="none" stroke="black" cx="126" cy="-36" rx="36" ry="36"/>
<text text-anchor="middle" x="126" y="-32.12" font-family="Times New Roman,serif" font-size="10.00">SpillState</text>
</g>
<!-- node0037&#45;&gt;node0015 -->
<g id="edge37" class="edge">
<title>node0037&#45;&gt;node0015</title>
<path fill="none" stroke="black" d="M138.18,-70.15C143.33,-84.18 149.4,-100.71 154.92,-115.72"/>
<polygon fill="black" stroke="black" points="151.56,-116.72 158.29,-124.9 158.13,-114.31 151.56,-116.72"/>
<text text-anchor="middle" x="160.57" y="-93.2" font-family="Times New Roman,serif" font-size="14.00">is a</text>
</g>
<!-- node0038 -->
<g id="node39" class="node">
<title>node0038</title>
<ellipse fill="none" stroke="black" cx="216" cy="-36" rx="36" ry="36"/>
<text text-anchor="middle" x="216" y="-32.12" font-family="Times New Roman,serif" font-size="10.00">DriveState</text>
</g>
<!-- node0038&#45;&gt;node0015 -->
<g id="edge38" class="edge">
<title>node0038&#45;&gt;node0015</title>
<path fill="none" stroke="black" d="M203.82,-70.15C198.67,-84.18 192.6,-100.71 187.08,-115.72"/>
<polygon fill="black" stroke="black" points="183.87,-114.31 183.71,-124.9 190.44,-116.72 183.87,-114.31"/>
<text text-anchor="middle" x="205.57" y="-93.2" font-family="Times New Roman,serif" font-size="14.00">is a</text>
</g>
<!-- node0039 -->
<g id="node40" class="node">
<title>node0039</title>
<ellipse fill="none" stroke="black" cx="306" cy="-36" rx="36" ry="36"/>
<text text-anchor="middle" x="306" y="-32.12" font-family="Times New Roman,serif" font-size="10.00">CollidedState</text>
</g>
<!-- node0039&#45;&gt;node0016 -->
<g id="edge39" class="edge">
<title>node0039&#45;&gt;node0016</title>
<path fill="none" stroke="black" d="M332.35,-60.91C353.44,-80.05 383.2,-107.06 406.25,-127.96"/>
<polygon fill="black" stroke="black" points="403.84,-130.51 413.6,-134.63 408.54,-125.32 403.84,-130.51"/>
<text text-anchor="middle" x="390.96" y="-93.2" font-family="Times New Roman,serif" font-size="14.00">is a</text>
</g>
<!-- node0040 -->
<g id="node41" class="node">
<title>node0040</title>
<ellipse fill="none" stroke="black" cx="396" cy="-36" rx="36" ry="36"/>
<text text-anchor="middle" x="396" y="-32.12" font-family="Times New Roman,serif" font-size="10.00">ExplodeState</text>
</g>
<!-- node0040&#45;&gt;node0016 -->
<g id="edge40" class="edge">
<title>node0040&#45;&gt;node0016</title>
<path fill="none" stroke="black" d="M408.18,-70.15C413.33,-84.18 419.4,-100.71 424.92,-115.72"/>
<polygon fill="black" stroke="black" points="421.56,-116.72 428.29,-124.9 428.13,-114.31 421.56,-116.72"/>
<text text-anchor="middle" x="430.57" y="-93.2" font-family="Times New Roman,serif" font-size="14.00">is a</text>
</g>
<!-- node0041 -->
<g id="node42" class="node">
<title>node0041</title>
<ellipse fill="none" stroke="black" cx="486" cy="-36" rx="36" ry="36"/>
<text text-anchor="middle" x="486" y="-32.12" font-family="Times New Roman,serif" font-size="10.00">DrivingState</text>
</g>
<!-- node0041&#45;&gt;node0016 -->
<g id="edge41" class="edge">
<title>node0041&#45;&gt;node0016</title>
<path fill="none" stroke="black" d="M473.82,-70.15C468.67,-84.18 462.6,-100.71 457.08,-115.72"/>
<polygon fill="black" stroke="black" points="453.87,-114.31 453.71,-124.9 460.44,-116.72 453.87,-114.31"/>
<text text-anchor="middle" x="475.57" y="-93.2" font-family="Times New Roman,serif" font-size="14.00">is a</text>
</g>
<!-- node0042 -->
<g id="node43" class="node">
<title>node0042</title>
<ellipse fill="none" stroke="black" cx="576" cy="-36" rx="36" ry="36"/>
<text text-anchor="middle" x="576" y="-32.12" font-family="Times New Roman,serif" font-size="10.00">emergencyaction1</text>
</g>
<!-- node0042&#45;&gt;node0018 -->
<g id="edge42" class="edge">
<title>node0042&#45;&gt;node0018</title>
<path fill="none" stroke="black" d="M603.08,-60.39C608.77,-64.62 614.9,-68.72 621,-72 709.01,-119.31 824.94,-142.93 888.77,-153.07"/>
<polygon fill="black" stroke="black" points="888.15,-156.52 898.56,-154.58 889.21,-149.6 888.15,-156.52"/>
<text text-anchor="middle" x="703.79" y="-93.2" font-family="Times New Roman,serif" font-size="14.00">is a</text>
</g>
<!-- node0043 -->
<g id="node44" class="node">
<title>node0043</title>
<ellipse fill="none" stroke="black" cx="666" cy="-36" rx="36" ry="36"/>
<text text-anchor="middle" x="666" y="-32.12" font-family="Times New Roman,serif" font-size="10.00">我</text>
</g>
<!-- node0043&#45;&gt;node0018 -->
<g id="edge43" class="edge">
<title>node0043&#45;&gt;node0018</title>
<path fill="none" stroke="black" d="M693.2,-60.17C698.88,-64.42 704.97,-68.58 711,-72 769.77,-105.34 843.75,-131.38 890.47,-146.11"/>
<polygon fill="black" stroke="black" points="889.42,-149.44 900,-149.06 891.49,-142.76 889.42,-149.44"/>
<text text-anchor="middle" x="785.73" y="-93.2" font-family="Times New Roman,serif" font-size="14.00">is a</text>
</g>
<!-- node0044 -->
<g id="node45" class="node">
<title>node0044</title>
<ellipse fill="none" stroke="black" cx="756" cy="-36" rx="36" ry="36"/>
<text text-anchor="middle" x="756" y="-32.12" font-family="Times New Roman,serif" font-size="10.00">emergencyresource1</text>
</g>
<!-- node0044&#45;&gt;node0018 -->
<g id="edge44" class="edge">
<title>node0044&#45;&gt;node0018</title>
<path fill="none" stroke="black" d="M783.8,-59.22C789.43,-63.55 795.35,-67.99 801,-72 832.22,-94.2 868.74,-117.73 895.92,-134.79"/>
<polygon fill="black" stroke="black" points="893.86,-137.63 904.2,-139.96 897.57,-131.7 893.86,-137.63"/>
<text text-anchor="middle" x="857.9" y="-93.2" font-family="Times New Roman,serif" font-size="14.00">is a</text>
</g>
<!-- node0045 -->
<g id="node46" class="node">
<title>node0045</title>
<ellipse fill="none" stroke="black" cx="846" cy="-36" rx="36" ry="36"/>
<text text-anchor="middle" x="846" y="-32.12" font-family="Times New Roman,serif" font-size="10.00">救助</text>
</g>
<!-- node0045&#45;&gt;node0018 -->
<g id="edge45" class="edge">
<title>node0045&#45;&gt;node0018</title>
<path fill="none" stroke="black" d="M867.1,-65.72C879.4,-82.46 895.06,-103.77 908.33,-121.84"/>
<polygon fill="black" stroke="black" points="905.39,-123.75 914.14,-129.74 911.03,-119.61 905.39,-123.75"/>
<text text-anchor="middle" x="905.76" y="-93.2" font-family="Times New Roman,serif" font-size="14.00">is a</text>
</g>
<!-- node0046 -->
<g id="node47" class="node">
<title>node0046</title>
<ellipse fill="none" stroke="black" cx="936" cy="-36" rx="36" ry="36"/>
<text text-anchor="middle" x="936" y="-32.12" font-family="Times New Roman,serif" font-size="10.00">345</text>
</g>
<!-- node0046&#45;&gt;node0018 -->
<g id="edge46" class="edge">
<title>node0046&#45;&gt;node0018</title>
<path fill="none" stroke="black" d="M936,-72.43C936,-85 936,-99.35 936,-112.72"/>
<polygon fill="black" stroke="black" points="932.5,-112.63 936,-122.63 939.5,-112.63 932.5,-112.63"/>
<text text-anchor="middle" x="945.38" y="-93.2" font-family="Times New Roman,serif" font-size="14.00">is a</text>
</g>
<!-- node0047 -->
<g id="node48" class="node">
<title>node0047</title>
<ellipse fill="none" stroke="black" cx="1026" cy="-36" rx="36" ry="36"/>
<text text-anchor="middle" x="1026" y="-32.12" font-family="Times New Roman,serif" font-size="10.00">ResponseAction</text>
</g>
<!-- node0047&#45;&gt;node0018 -->
<g id="edge47" class="edge">
<title>node0047&#45;&gt;node0018</title>
<path fill="none" stroke="black" d="M1004.9,-65.72C992.6,-82.46 976.94,-103.77 963.67,-121.84"/>
<polygon fill="black" stroke="black" points="960.97,-119.61 957.86,-129.74 966.61,-123.75 960.97,-119.61"/>
<text text-anchor="middle" x="995.76" y="-93.2" font-family="Times New Roman,serif" font-size="14.00">is a</text>
</g>
<!-- node0048 -->
<g id="node49" class="node">
<title>node0048</title>
<ellipse fill="none" stroke="black" cx="1116" cy="-36" rx="36" ry="36"/>
<text text-anchor="middle" x="1116" y="-32.12" font-family="Times New Roman,serif" font-size="10.00">人员</text>
</g>
<!-- node0048&#45;&gt;node0018 -->
<g id="edge48" class="edge">
<title>node0048&#45;&gt;node0018</title>
<path fill="none" stroke="black" d="M1088.2,-59.22C1082.57,-63.55 1076.65,-67.99 1071,-72 1039.78,-94.2 1003.26,-117.73 976.08,-134.79"/>
<polygon fill="black" stroke="black" points="974.43,-131.7 967.8,-139.96 978.14,-137.63 974.43,-131.7"/>
<text text-anchor="middle" x="1051.38" y="-93.2" font-family="Times New Roman,serif" font-size="14.00">is a</text>
</g>
<!-- node0049 -->
<g id="node50" class="node">
<title>node0049</title>
<ellipse fill="none" stroke="black" cx="1206" cy="-36" rx="36" ry="36"/>
<text text-anchor="middle" x="1206" y="-32.12" font-family="Times New Roman,serif" font-size="10.00">ResponseResource</text>
</g>
<!-- node0049&#45;&gt;node0018 -->
<g id="edge49" class="edge">
<title>node0049&#45;&gt;node0018</title>
<path fill="none" stroke="black" d="M1178.8,-60.17C1173.12,-64.42 1167.03,-68.58 1161,-72 1102.23,-105.34 1028.25,-131.38 981.53,-146.11"/>
<polygon fill="black" stroke="black" points="980.51,-142.76 972,-149.06 982.58,-149.44 980.51,-142.76"/>
<text text-anchor="middle" x="1135.41" y="-93.2" font-family="Times New Roman,serif" font-size="14.00">is a</text>
</g>
<!-- node0050 -->
<g id="node51" class="node">
<title>node0050</title>
<ellipse fill="none" stroke="black" cx="1296" cy="-36" rx="36" ry="36"/>
<text text-anchor="middle" x="1296" y="-32.12" font-family="Times New Roman,serif" font-size="10.00">Road</text>
</g>
<!-- node0050&#45;&gt;node0019 -->
<g id="edge50" class="edge">
<title>node0050&#45;&gt;node0019</title>
<path fill="none" stroke="black" d="M1296,-72.43C1296,-85 1296,-99.35 1296,-112.72"/>
<polygon fill="black" stroke="black" points="1292.5,-112.63 1296,-122.63 1299.5,-112.63 1292.5,-112.63"/>
<text text-anchor="middle" x="1305.38" y="-93.2" font-family="Times New Roman,serif" font-size="14.00">is a</text>
</g>
<!-- node0051 -->
<g id="node52" class="node">
<title>node0051</title>
<ellipse fill="none" stroke="black" cx="1386" cy="-36" rx="36" ry="36"/>
<text text-anchor="middle" x="1386" y="-32.12" font-family="Times New Roman,serif" font-size="10.00">HazardVehicle</text>
</g>
<!-- node0051&#45;&gt;node0019 -->
<g id="edge51" class="edge">
<title>node0051&#45;&gt;node0019</title>
<path fill="none" stroke="black" d="M1364.9,-65.72C1352.6,-82.46 1336.94,-103.77 1323.67,-121.84"/>
<polygon fill="black" stroke="black" points="1320.97,-119.61 1317.86,-129.74 1326.61,-123.75 1320.97,-119.61"/>
<text text-anchor="middle" x="1355.76" y="-93.2" font-family="Times New Roman,serif" font-size="14.00">is a</text>
</g>
<!-- node0052 -->
<g id="node53" class="node">
<title>node0052</title>
<ellipse fill="none" stroke="black" cx="1476" cy="-36" rx="36" ry="36"/>
<text text-anchor="middle" x="1476" y="-32.12" font-family="Times New Roman,serif" font-size="10.00">weather</text>
</g>
<!-- node0052&#45;&gt;node0020 -->
<g id="edge52" class="edge">
<title>node0052&#45;&gt;node0020</title>
<path fill="none" stroke="black" d="M1454.9,-65.72C1442.6,-82.46 1426.94,-103.77 1413.67,-121.84"/>
<polygon fill="black" stroke="black" points="1410.97,-119.61 1407.86,-129.74 1416.61,-123.75 1410.97,-119.61"/>
<text text-anchor="middle" x="1445.76" y="-93.2" font-family="Times New Roman,serif" font-size="14.00">is a</text>
</g>
<!-- node0053 -->
<g id="node54" class="node">
<title>node0053</title>
<ellipse fill="none" stroke="black" cx="1566" cy="-36" rx="36" ry="36"/>
<text text-anchor="middle" x="1566" y="-32.12" font-family="Times New Roman,serif" font-size="10.00">affectedvehicle</text>
</g>
<!-- node0053&#45;&gt;node0021 -->
<g id="edge53" class="edge">
<title>node0053&#45;&gt;node0021</title>
<path fill="none" stroke="black" d="M1544.9,-65.72C1532.6,-82.46 1516.94,-103.77 1503.67,-121.84"/>
<polygon fill="black" stroke="black" points="1500.97,-119.61 1497.86,-129.74 1506.61,-123.75 1500.97,-119.61"/>
<text text-anchor="middle" x="1535.76" y="-93.2" font-family="Times New Roman,serif" font-size="14.00">is a</text>
</g>
</g>
</svg>
