<?xml version="1.0" encoding="UTF-8" standalone="no"?>
<!DOCTYPE svg PUBLIC "-//W3C//DTD SVG 1.1//EN"
 "http://www.w3.org/Graphics/SVG/1.1/DTD/svg11.dtd">
<!-- Generated by graphviz version 12.1.2 (20240928.0832)
 -->
<!-- Title: G Pages: 1 -->
<svg width="1790pt" height="454pt"
 viewBox="0.00 0.00 1790.00 453.50" xmlns="http://www.w3.org/2000/svg" xmlns:xlink="http://www.w3.org/1999/xlink">
<g id="graph0" class="graph" transform="scale(1 1) rotate(0) translate(4 449.5)">
<title>G</title>
<polygon fill="white" stroke="none" points="-4,4 -4,-449.5 1786,-449.5 1786,4 -4,4"/>
<!-- node0000 -->
<g id="node1" class="node">
<title>node0000</title>
<ellipse fill="none" stroke="black" cx="1476" cy="-409.5" rx="36" ry="36"/>
<text text-anchor="middle" x="1476" y="-405.62" font-family="Times New Roman,serif" font-size="10.00">Thing</text>
</g>
<!-- node0001 -->
<g id="node2" class="node">
<title>node0001</title>
<ellipse fill="none" stroke="black" cx="306" cy="-285" rx="36" ry="36"/>
<text text-anchor="middle" x="306" y="-281.12" font-family="Times New Roman,serif" font-size="10.00">ScenarioElement</text>
</g>
<!-- node0001&#45;&gt;node0000 -->
<g id="edge1" class="edge">
<title>node0001&#45;&gt;node0000</title>
<path fill="none" stroke="black" d="M341.98,-289.77C512.14,-307.58 1235.95,-383.37 1428.69,-403.55"/>
<polygon fill="black" stroke="black" points="1428.27,-407.02 1438.58,-404.58 1429,-400.06 1428.27,-407.02"/>
<text text-anchor="middle" x="970.43" y="-342.2" font-family="Times New Roman,serif" font-size="14.00">is a</text>
</g>
<!-- node0002 -->
<g id="node3" class="node">
<title>node0002</title>
<ellipse fill="none" stroke="black" cx="1071" cy="-285" rx="36" ry="36"/>
<text text-anchor="middle" x="1071" y="-281.12" font-family="Times New Roman,serif" font-size="10.00">ElementCompositions</text>
</g>
<!-- node0002&#45;&gt;node0000 -->
<g id="edge2" class="edge">
<title>node0002&#45;&gt;node0000</title>
<path fill="none" stroke="black" d="M1105.53,-296.44C1178.61,-318.55 1348.89,-370.05 1430.63,-394.78"/>
<polygon fill="black" stroke="black" points="1429.52,-398.1 1440.11,-397.64 1431.55,-391.4 1429.52,-398.1"/>
<text text-anchor="middle" x="1307.12" y="-342.2" font-family="Times New Roman,serif" font-size="14.00">is a</text>
</g>
<!-- node0003 -->
<g id="node4" class="node">
<title>node0003</title>
<ellipse fill="none" stroke="black" cx="1386" cy="-285" rx="36" ry="36"/>
<text text-anchor="middle" x="1386" y="-281.12" font-family="Times New Roman,serif" font-size="10.00">ElementState</text>
</g>
<!-- node0003&#45;&gt;node0000 -->
<g id="edge3" class="edge">
<title>node0003&#45;&gt;node0000</title>
<path fill="none" stroke="black" d="M1407.1,-314.72C1419.4,-331.46 1435.06,-352.77 1448.33,-370.84"/>
<polygon fill="black" stroke="black" points="1445.39,-372.75 1454.14,-378.74 1451.03,-368.61 1445.39,-372.75"/>
<text text-anchor="middle" x="1445.76" y="-342.2" font-family="Times New Roman,serif" font-size="14.00">is a</text>
</g>
<!-- node0004 -->
<g id="node5" class="node">
<title>node0004</title>
<ellipse fill="none" stroke="black" cx="1476" cy="-285" rx="36" ry="36"/>
<text text-anchor="middle" x="1476" y="-281.12" font-family="Times New Roman,serif" font-size="10.00">aidStates</text>
</g>
<!-- node0004&#45;&gt;node0000 -->
<g id="edge4" class="edge">
<title>node0004&#45;&gt;node0000</title>
<path fill="none" stroke="black" d="M1476,-321.43C1476,-334 1476,-348.35 1476,-361.72"/>
<polygon fill="black" stroke="black" points="1472.5,-361.63 1476,-371.63 1479.5,-361.63 1472.5,-361.63"/>
<text text-anchor="middle" x="1485.38" y="-342.2" font-family="Times New Roman,serif" font-size="14.00">is a</text>
</g>
<!-- node0005 -->
<g id="node6" class="node">
<title>node0005</title>
<ellipse fill="none" stroke="black" cx="1566" cy="-285" rx="36" ry="36"/>
<text text-anchor="middle" x="1566" y="-281.12" font-family="Times New Roman,serif" font-size="10.00">firefightingStates</text>
</g>
<!-- node0005&#45;&gt;node0000 -->
<g id="edge5" class="edge">
<title>node0005&#45;&gt;node0000</title>
<path fill="none" stroke="black" d="M1544.9,-314.72C1532.6,-331.46 1516.94,-352.77 1503.67,-370.84"/>
<polygon fill="black" stroke="black" points="1500.97,-368.61 1497.86,-378.74 1506.61,-372.75 1500.97,-368.61"/>
<text text-anchor="middle" x="1535.76" y="-342.2" font-family="Times New Roman,serif" font-size="14.00">is a</text>
</g>
<!-- node0006 -->
<g id="node7" class="node">
<title>node0006</title>
<ellipse fill="none" stroke="black" cx="1656" cy="-285" rx="36" ry="36"/>
<text text-anchor="middle" x="1656" y="-281.12" font-family="Times New Roman,serif" font-size="10.00">rescueStates</text>
</g>
<!-- node0006&#45;&gt;node0000 -->
<g id="edge6" class="edge">
<title>node0006&#45;&gt;node0000</title>
<path fill="none" stroke="black" d="M1628.2,-308.22C1622.57,-312.55 1616.65,-316.99 1611,-321 1579.78,-343.2 1543.26,-366.73 1516.08,-383.79"/>
<polygon fill="black" stroke="black" points="1514.43,-380.7 1507.8,-388.96 1518.14,-386.63 1514.43,-380.7"/>
<text text-anchor="middle" x="1591.38" y="-342.2" font-family="Times New Roman,serif" font-size="14.00">is a</text>
</g>
<!-- node0007 -->
<g id="node8" class="node">
<title>node0007</title>
<ellipse fill="none" stroke="black" cx="1746" cy="-285" rx="36" ry="36"/>
<text text-anchor="middle" x="1746" y="-281.12" font-family="Times New Roman,serif" font-size="10.00">towStates</text>
</g>
<!-- node0007&#45;&gt;node0000 -->
<g id="edge7" class="edge">
<title>node0007&#45;&gt;node0000</title>
<path fill="none" stroke="black" d="M1718.8,-309.17C1713.12,-313.42 1707.03,-317.58 1701,-321 1642.23,-354.34 1568.25,-380.38 1521.53,-395.11"/>
<polygon fill="black" stroke="black" points="1520.51,-391.76 1512,-398.06 1522.58,-398.44 1520.51,-391.76"/>
<text text-anchor="middle" x="1675.41" y="-342.2" font-family="Times New Roman,serif" font-size="14.00">is a</text>
</g>
<!-- node0008 -->
<g id="node9" class="node">
<title>node0008</title>
<ellipse fill="none" stroke="black" cx="126" cy="-160.5" rx="36" ry="36"/>
<text text-anchor="middle" x="126" y="-156.62" font-family="Times New Roman,serif" font-size="10.00">AffectedElement</text>
</g>
<!-- node0008&#45;&gt;node0001 -->
<g id="edge8" class="edge">
<title>node0008&#45;&gt;node0001</title>
<path fill="none" stroke="black" d="M153.8,-183.72C159.43,-188.05 165.35,-192.49 171,-196.5 202.22,-218.7 238.74,-242.23 265.92,-259.29"/>
<polygon fill="black" stroke="black" points="263.86,-262.13 274.2,-264.46 267.57,-256.2 263.86,-262.13"/>
<text text-anchor="middle" x="227.9" y="-217.7" font-family="Times New Roman,serif" font-size="14.00">is a</text>
</g>
<!-- node0009 -->
<g id="node10" class="node">
<title>node0009</title>
<ellipse fill="none" stroke="black" cx="216" cy="-160.5" rx="36" ry="36"/>
<text text-anchor="middle" x="216" y="-156.62" font-family="Times New Roman,serif" font-size="10.00">HazardElement</text>
</g>
<!-- node0009&#45;&gt;node0001 -->
<g id="edge9" class="edge">
<title>node0009&#45;&gt;node0001</title>
<path fill="none" stroke="black" d="M237.1,-190.22C249.4,-206.96 265.06,-228.27 278.33,-246.34"/>
<polygon fill="black" stroke="black" points="275.39,-248.25 284.14,-254.24 281.03,-244.11 275.39,-248.25"/>
<text text-anchor="middle" x="275.76" y="-217.7" font-family="Times New Roman,serif" font-size="14.00">is a</text>
</g>
<!-- node0010 -->
<g id="node11" class="node">
<title>node0010</title>
<ellipse fill="none" stroke="black" cx="306" cy="-160.5" rx="36" ry="36"/>
<text text-anchor="middle" x="306" y="-156.62" font-family="Times New Roman,serif" font-size="10.00">EnvironmentElement</text>
</g>
<!-- node0010&#45;&gt;node0001 -->
<g id="edge10" class="edge">
<title>node0010&#45;&gt;node0001</title>
<path fill="none" stroke="black" d="M306,-196.93C306,-209.5 306,-223.85 306,-237.22"/>
<polygon fill="black" stroke="black" points="302.5,-237.13 306,-247.13 309.5,-237.13 302.5,-237.13"/>
<text text-anchor="middle" x="315.38" y="-217.7" font-family="Times New Roman,serif" font-size="14.00">is a</text>
</g>
<!-- node0011 -->
<g id="node12" class="node">
<title>node0011</title>
<ellipse fill="none" stroke="black" cx="666" cy="-160.5" rx="36" ry="36"/>
<text text-anchor="middle" x="666" y="-156.62" font-family="Times New Roman,serif" font-size="10.00">ResponsePlanElement</text>
</g>
<!-- node0011&#45;&gt;node0001 -->
<g id="edge11" class="edge">
<title>node0011&#45;&gt;node0001</title>
<path fill="none" stroke="black" d="M631.81,-173.13C566.45,-195.37 423.82,-243.91 350.89,-268.73"/>
<polygon fill="black" stroke="black" points="350,-265.33 341.66,-271.87 352.25,-271.96 350,-265.33"/>
<text text-anchor="middle" x="516.93" y="-217.7" font-family="Times New Roman,serif" font-size="14.00">is a</text>
</g>
<!-- node0012 -->
<g id="node13" class="node">
<title>node0012</title>
<ellipse fill="none" stroke="black" cx="846" cy="-160.5" rx="36" ry="36"/>
<text text-anchor="middle" x="846" y="-156.62" font-family="Times New Roman,serif" font-size="10.00">VehicleCargo</text>
</g>
<!-- node0012&#45;&gt;node0002 -->
<g id="edge12" class="edge">
<title>node0012&#45;&gt;node0002</title>
<path fill="none" stroke="black" d="M873.43,-184.28C879.09,-188.56 885.12,-192.84 891,-196.5 935.43,-224.16 989.9,-249.56 1027.2,-265.79"/>
<polygon fill="black" stroke="black" points="1025.76,-268.98 1036.33,-269.72 1028.53,-262.55 1025.76,-268.98"/>
<text text-anchor="middle" x="957.91" y="-217.7" font-family="Times New Roman,serif" font-size="14.00">is a</text>
</g>
<!-- node0013 -->
<g id="node14" class="node">
<title>node0013</title>
<ellipse fill="none" stroke="black" cx="936" cy="-160.5" rx="36" ry="36"/>
<text text-anchor="middle" x="936" y="-156.62" font-family="Times New Roman,serif" font-size="10.00">VehiclePassengers</text>
</g>
<!-- node0013&#45;&gt;node0002 -->
<g id="edge13" class="edge">
<title>node0013&#45;&gt;node0002</title>
<path fill="none" stroke="black" d="M962.35,-185.41C983.44,-204.55 1013.2,-231.56 1036.25,-252.46"/>
<polygon fill="black" stroke="black" points="1033.84,-255.01 1043.6,-259.13 1038.54,-249.82 1033.84,-255.01"/>
<text text-anchor="middle" x="1020.96" y="-217.7" font-family="Times New Roman,serif" font-size="14.00">is a</text>
</g>
<!-- node0014 -->
<g id="node15" class="node">
<title>node0014</title>
<ellipse fill="none" stroke="black" cx="1026" cy="-160.5" rx="36" ry="36"/>
<text text-anchor="middle" x="1026" y="-156.62" font-family="Times New Roman,serif" font-size="10.00">VehicleComponents</text>
</g>
<!-- node0014&#45;&gt;node0002 -->
<g id="edge14" class="edge">
<title>node0014&#45;&gt;node0002</title>
<path fill="none" stroke="black" d="M1038.18,-194.65C1043.33,-208.68 1049.4,-225.21 1054.92,-240.22"/>
<polygon fill="black" stroke="black" points="1051.56,-241.22 1058.29,-249.4 1058.13,-238.81 1051.56,-241.22"/>
<text text-anchor="middle" x="1060.57" y="-217.7" font-family="Times New Roman,serif" font-size="14.00">is a</text>
</g>
<!-- node0015 -->
<g id="node16" class="node">
<title>node0015</title>
<ellipse fill="none" stroke="black" cx="1116" cy="-160.5" rx="36" ry="36"/>
<text text-anchor="middle" x="1116" y="-156.62" font-family="Times New Roman,serif" font-size="10.00">IncludedLanes</text>
</g>
<!-- node0015&#45;&gt;node0002 -->
<g id="edge15" class="edge">
<title>node0015&#45;&gt;node0002</title>
<path fill="none" stroke="black" d="M1103.82,-194.65C1098.67,-208.68 1092.6,-225.21 1087.08,-240.22"/>
<polygon fill="black" stroke="black" points="1083.87,-238.81 1083.71,-249.4 1090.44,-241.22 1083.87,-238.81"/>
<text text-anchor="middle" x="1105.57" y="-217.7" font-family="Times New Roman,serif" font-size="14.00">is a</text>
</g>
<!-- node0016 -->
<g id="node17" class="node">
<title>node0016</title>
<ellipse fill="none" stroke="black" cx="1206" cy="-160.5" rx="36" ry="36"/>
<text text-anchor="middle" x="1206" y="-156.62" font-family="Times New Roman,serif" font-size="10.00">IncludedFacilities</text>
</g>
<!-- node0016&#45;&gt;node0002 -->
<g id="edge16" class="edge">
<title>node0016&#45;&gt;node0002</title>
<path fill="none" stroke="black" d="M1179.65,-185.41C1158.56,-204.55 1128.8,-231.56 1105.75,-252.46"/>
<polygon fill="black" stroke="black" points="1103.46,-249.82 1098.4,-259.13 1108.16,-255.01 1103.46,-249.82"/>
<text text-anchor="middle" x="1155.96" y="-217.7" font-family="Times New Roman,serif" font-size="14.00">is a</text>
</g>
<!-- node0017 -->
<g id="node18" class="node">
<title>node0017</title>
<ellipse fill="none" stroke="black" cx="1296" cy="-160.5" rx="36" ry="36"/>
<text text-anchor="middle" x="1296" y="-156.62" font-family="Times New Roman,serif" font-size="10.00">AffectedStates</text>
</g>
<!-- node0017&#45;&gt;node0003 -->
<g id="edge17" class="edge">
<title>node0017&#45;&gt;node0003</title>
<path fill="none" stroke="black" d="M1317.1,-190.22C1329.4,-206.96 1345.06,-228.27 1358.33,-246.34"/>
<polygon fill="black" stroke="black" points="1355.39,-248.25 1364.14,-254.24 1361.03,-244.11 1355.39,-248.25"/>
<text text-anchor="middle" x="1355.76" y="-217.7" font-family="Times New Roman,serif" font-size="14.00">is a</text>
</g>
<!-- node0018 -->
<g id="node19" class="node">
<title>node0018</title>
<ellipse fill="none" stroke="black" cx="1386" cy="-160.5" rx="36" ry="36"/>
<text text-anchor="middle" x="1386" y="-156.62" font-family="Times New Roman,serif" font-size="10.00">HazardStates</text>
</g>
<!-- node0018&#45;&gt;node0003 -->
<g id="edge18" class="edge">
<title>node0018&#45;&gt;node0003</title>
<path fill="none" stroke="black" d="M1386,-196.93C1386,-209.5 1386,-223.85 1386,-237.22"/>
<polygon fill="black" stroke="black" points="1382.5,-237.13 1386,-247.13 1389.5,-237.13 1382.5,-237.13"/>
<text text-anchor="middle" x="1395.38" y="-217.7" font-family="Times New Roman,serif" font-size="14.00">is a</text>
</g>
<!-- node0019 -->
<g id="node20" class="node">
<title>node0019</title>
<ellipse fill="none" stroke="black" cx="1476" cy="-160.5" rx="36" ry="36"/>
<text text-anchor="middle" x="1476" y="-156.62" font-family="Times New Roman,serif" font-size="10.00">ResponseStates</text>
</g>
<!-- node0019&#45;&gt;node0003 -->
<g id="edge19" class="edge">
<title>node0019&#45;&gt;node0003</title>
<path fill="none" stroke="black" d="M1454.9,-190.22C1442.6,-206.96 1426.94,-228.27 1413.67,-246.34"/>
<polygon fill="black" stroke="black" points="1410.97,-244.11 1407.86,-254.24 1416.61,-248.25 1410.97,-244.11"/>
<text text-anchor="middle" x="1445.76" y="-217.7" font-family="Times New Roman,serif" font-size="14.00">is a</text>
</g>
<!-- node0020 -->
<g id="node21" class="node">
<title>node0020</title>
<ellipse fill="none" stroke="black" cx="1566" cy="-160.5" rx="36" ry="36"/>
<text text-anchor="middle" x="1566" y="-156.62" font-family="Times New Roman,serif" font-size="10.00">idleState</text>
</g>
<!-- node0020&#45;&gt;node0004 -->
<g id="edge20" class="edge">
<title>node0020&#45;&gt;node0004</title>
<path fill="none" stroke="black" d="M1544.9,-190.22C1532.6,-206.96 1516.94,-228.27 1503.67,-246.34"/>
<polygon fill="black" stroke="black" points="1500.97,-244.11 1497.86,-254.24 1506.61,-248.25 1500.97,-244.11"/>
<text text-anchor="middle" x="1535.76" y="-217.7" font-family="Times New Roman,serif" font-size="14.00">is a</text>
</g>
<!-- node0021 -->
<g id="node22" class="node">
<title>node0021</title>
<ellipse fill="none" stroke="black" cx="1656" cy="-160.5" rx="36" ry="36"/>
<text text-anchor="middle" x="1656" y="-156.62" font-family="Times New Roman,serif" font-size="10.00">implementState</text>
</g>
<!-- node0021&#45;&gt;node0004 -->
<g id="edge21" class="edge">
<title>node0021&#45;&gt;node0004</title>
<path fill="none" stroke="black" d="M1628.34,-183.93C1622.7,-188.24 1616.74,-192.62 1611,-196.5 1572.64,-222.44 1559.36,-223.06 1521,-249 1518.31,-250.82 1515.57,-252.75 1512.84,-254.73"/>
<polygon fill="black" stroke="black" points="1510.8,-251.88 1504.87,-260.66 1514.98,-257.49 1510.8,-251.88"/>
<text text-anchor="middle" x="1589.61" y="-217.7" font-family="Times New Roman,serif" font-size="14.00">is a</text>
</g>
<!-- node0022 -->
<g id="node23" class="node">
<title>node0022</title>
<ellipse fill="none" stroke="black" cx="36" cy="-36" rx="36" ry="36"/>
<text text-anchor="middle" x="36" y="-32.12" font-family="Times New Roman,serif" font-size="10.00">Road</text>
</g>
<!-- node0022&#45;&gt;node0008 -->
<g id="edge22" class="edge">
<title>node0022&#45;&gt;node0008</title>
<path fill="none" stroke="black" d="M57.1,-65.72C69.4,-82.46 85.06,-103.77 98.33,-121.84"/>
<polygon fill="black" stroke="black" points="95.39,-123.75 104.14,-129.74 101.03,-119.61 95.39,-123.75"/>
<text text-anchor="middle" x="95.76" y="-93.2" font-family="Times New Roman,serif" font-size="14.00">is a</text>
</g>
<!-- node0023 -->
<g id="node24" class="node">
<title>node0023</title>
<ellipse fill="none" stroke="black" cx="126" cy="-36" rx="36" ry="36"/>
<text text-anchor="middle" x="126" y="-32.12" font-family="Times New Roman,serif" font-size="10.00">HazardVehicle</text>
</g>
<!-- node0023&#45;&gt;node0008 -->
<g id="edge23" class="edge">
<title>node0023&#45;&gt;node0008</title>
<path fill="none" stroke="black" d="M126,-72.43C126,-85 126,-99.35 126,-112.72"/>
<polygon fill="black" stroke="black" points="122.5,-112.63 126,-122.63 129.5,-112.63 122.5,-112.63"/>
<text text-anchor="middle" x="135.38" y="-93.2" font-family="Times New Roman,serif" font-size="14.00">is a</text>
</g>
<!-- node0024 -->
<g id="node25" class="node">
<title>node0024</title>
<ellipse fill="none" stroke="black" cx="216" cy="-36" rx="36" ry="36"/>
<text text-anchor="middle" x="216" y="-32.12" font-family="Times New Roman,serif" font-size="10.00">affectedvehicle</text>
</g>
<!-- node0024&#45;&gt;node0009 -->
<g id="edge24" class="edge">
<title>node0024&#45;&gt;node0009</title>
<path fill="none" stroke="black" d="M216,-72.43C216,-85 216,-99.35 216,-112.72"/>
<polygon fill="black" stroke="black" points="212.5,-112.63 216,-122.63 219.5,-112.63 212.5,-112.63"/>
<text text-anchor="middle" x="225.38" y="-93.2" font-family="Times New Roman,serif" font-size="14.00">is a</text>
</g>
<!-- node0025 -->
<g id="node26" class="node">
<title>node0025</title>
<ellipse fill="none" stroke="black" cx="306" cy="-36" rx="36" ry="36"/>
<text text-anchor="middle" x="306" y="-32.12" font-family="Times New Roman,serif" font-size="10.00">weather</text>
</g>
<!-- node0025&#45;&gt;node0010 -->
<g id="edge25" class="edge">
<title>node0025&#45;&gt;node0010</title>
<path fill="none" stroke="black" d="M306,-72.43C306,-85 306,-99.35 306,-112.72"/>
<polygon fill="black" stroke="black" points="302.5,-112.63 306,-122.63 309.5,-112.63 302.5,-112.63"/>
<text text-anchor="middle" x="315.38" y="-93.2" font-family="Times New Roman,serif" font-size="14.00">is a</text>
</g>
<!-- node0026 -->
<g id="node27" class="node">
<title>node0026</title>
<ellipse fill="none" stroke="black" cx="396" cy="-36" rx="36" ry="36"/>
<text text-anchor="middle" x="396" y="-32.12" font-family="Times New Roman,serif" font-size="10.00">emergencyaction1</text>
</g>
<!-- node0026&#45;&gt;node0011 -->
<g id="edge26" class="edge">
<title>node0026&#45;&gt;node0011</title>
<path fill="none" stroke="black" d="M423.2,-60.17C428.88,-64.42 434.97,-68.58 441,-72 499.77,-105.34 573.75,-131.38 620.47,-146.11"/>
<polygon fill="black" stroke="black" points="619.42,-149.44 630,-149.06 621.49,-142.76 619.42,-149.44"/>
<text text-anchor="middle" x="515.73" y="-93.2" font-family="Times New Roman,serif" font-size="14.00">is a</text>
</g>
<!-- node0027 -->
<g id="node28" class="node">
<title>node0027</title>
<ellipse fill="none" stroke="black" cx="486" cy="-36" rx="36" ry="36"/>
<text text-anchor="middle" x="486" y="-32.12" font-family="Times New Roman,serif" font-size="10.00">emergencyresource1</text>
</g>
<!-- node0027&#45;&gt;node0011 -->
<g id="edge27" class="edge">
<title>node0027&#45;&gt;node0011</title>
<path fill="none" stroke="black" d="M513.8,-59.22C519.43,-63.55 525.35,-67.99 531,-72 562.22,-94.2 598.74,-117.73 625.92,-134.79"/>
<polygon fill="black" stroke="black" points="623.86,-137.63 634.2,-139.96 627.57,-131.7 623.86,-137.63"/>
<text text-anchor="middle" x="587.9" y="-93.2" font-family="Times New Roman,serif" font-size="14.00">is a</text>
</g>
<!-- node0028 -->
<g id="node29" class="node">
<title>node0028</title>
<ellipse fill="none" stroke="black" cx="576" cy="-36" rx="36" ry="36"/>
<text text-anchor="middle" x="576" y="-32.12" font-family="Times New Roman,serif" font-size="10.00">人员</text>
</g>
<!-- node0028&#45;&gt;node0011 -->
<g id="edge28" class="edge">
<title>node0028&#45;&gt;node0011</title>
<path fill="none" stroke="black" d="M597.1,-65.72C609.4,-82.46 625.06,-103.77 638.33,-121.84"/>
<polygon fill="black" stroke="black" points="635.39,-123.75 644.14,-129.74 641.03,-119.61 635.39,-123.75"/>
<text text-anchor="middle" x="635.76" y="-93.2" font-family="Times New Roman,serif" font-size="14.00">is a</text>
</g>
<!-- node0029 -->
<g id="node30" class="node">
<title>node0029</title>
<ellipse fill="none" stroke="black" cx="666" cy="-36" rx="36" ry="36"/>
<text text-anchor="middle" x="666" y="-32.12" font-family="Times New Roman,serif" font-size="10.00">救助</text>
</g>
<!-- node0029&#45;&gt;node0011 -->
<g id="edge29" class="edge">
<title>node0029&#45;&gt;node0011</title>
<path fill="none" stroke="black" d="M666,-72.43C666,-85 666,-99.35 666,-112.72"/>
<polygon fill="black" stroke="black" points="662.5,-112.63 666,-122.63 669.5,-112.63 662.5,-112.63"/>
<text text-anchor="middle" x="675.38" y="-93.2" font-family="Times New Roman,serif" font-size="14.00">is a</text>
</g>
<!-- node0030 -->
<g id="node31" class="node">
<title>node0030</title>
<ellipse fill="none" stroke="black" cx="756" cy="-36" rx="36" ry="36"/>
<text text-anchor="middle" x="756" y="-32.12" font-family="Times New Roman,serif" font-size="10.00">345</text>
</g>
<!-- node0030&#45;&gt;node0011 -->
<g id="edge30" class="edge">
<title>node0030&#45;&gt;node0011</title>
<path fill="none" stroke="black" d="M734.9,-65.72C722.6,-82.46 706.94,-103.77 693.67,-121.84"/>
<polygon fill="black" stroke="black" points="690.97,-119.61 687.86,-129.74 696.61,-123.75 690.97,-119.61"/>
<text text-anchor="middle" x="725.76" y="-93.2" font-family="Times New Roman,serif" font-size="14.00">is a</text>
</g>
<!-- node0031 -->
<g id="node32" class="node">
<title>node0031</title>
<ellipse fill="none" stroke="black" cx="846" cy="-36" rx="36" ry="36"/>
<text text-anchor="middle" x="846" y="-32.12" font-family="Times New Roman,serif" font-size="10.00">我</text>
</g>
<!-- node0031&#45;&gt;node0011 -->
<g id="edge31" class="edge">
<title>node0031&#45;&gt;node0011</title>
<path fill="none" stroke="black" d="M818.2,-59.22C812.57,-63.55 806.65,-67.99 801,-72 769.78,-94.2 733.26,-117.73 706.08,-134.79"/>
<polygon fill="black" stroke="black" points="704.43,-131.7 697.8,-139.96 708.14,-137.63 704.43,-131.7"/>
<text text-anchor="middle" x="781.38" y="-93.2" font-family="Times New Roman,serif" font-size="14.00">is a</text>
</g>
<!-- node0032 -->
<g id="node33" class="node">
<title>node0032</title>
<ellipse fill="none" stroke="black" cx="936" cy="-36" rx="36" ry="36"/>
<text text-anchor="middle" x="936" y="-32.12" font-family="Times New Roman,serif" font-size="10.00">ResponseResource</text>
</g>
<!-- node0032&#45;&gt;node0011 -->
<g id="edge32" class="edge">
<title>node0032&#45;&gt;node0011</title>
<path fill="none" stroke="black" d="M908.8,-60.17C903.12,-64.42 897.03,-68.58 891,-72 832.23,-105.34 758.25,-131.38 711.53,-146.11"/>
<polygon fill="black" stroke="black" points="710.51,-142.76 702,-149.06 712.58,-149.44 710.51,-142.76"/>
<text text-anchor="middle" x="865.41" y="-93.2" font-family="Times New Roman,serif" font-size="14.00">is a</text>
</g>
<!-- node0033 -->
<g id="node34" class="node">
<title>node0033</title>
<ellipse fill="none" stroke="black" cx="1026" cy="-36" rx="36" ry="36"/>
<text text-anchor="middle" x="1026" y="-32.12" font-family="Times New Roman,serif" font-size="10.00">ResponseAction</text>
</g>
<!-- node0033&#45;&gt;node0011 -->
<g id="edge33" class="edge">
<title>node0033&#45;&gt;node0011</title>
<path fill="none" stroke="black" d="M998.92,-60.38C993.23,-64.61 987.1,-68.72 981,-72 907.61,-111.48 881.94,-104.67 801,-124.5 771.3,-131.78 738.04,-140.39 711.97,-147.26"/>
<polygon fill="black" stroke="black" points="711.14,-143.85 702.36,-149.79 712.92,-150.62 711.14,-143.85"/>
<text text-anchor="middle" x="951.24" y="-93.2" font-family="Times New Roman,serif" font-size="14.00">is a</text>
</g>
<!-- node0034 -->
<g id="node35" class="node">
<title>node0034</title>
<ellipse fill="none" stroke="black" cx="1116" cy="-36" rx="36" ry="36"/>
<text text-anchor="middle" x="1116" y="-32.12" font-family="Times New Roman,serif" font-size="10.00">CollidedState</text>
</g>
<!-- node0034&#45;&gt;node0017 -->
<g id="edge34" class="edge">
<title>node0034&#45;&gt;node0017</title>
<path fill="none" stroke="black" d="M1143.66,-59.43C1149.3,-63.74 1155.26,-68.12 1161,-72 1199.36,-97.94 1212.64,-98.56 1251,-124.5 1253.69,-126.32 1256.43,-128.25 1259.16,-130.23"/>
<polygon fill="black" stroke="black" points="1257.02,-132.99 1267.13,-136.16 1261.2,-127.38 1257.02,-132.99"/>
<text text-anchor="middle" x="1229.61" y="-93.2" font-family="Times New Roman,serif" font-size="14.00">is a</text>
</g>
<!-- node0035 -->
<g id="node36" class="node">
<title>node0035</title>
<ellipse fill="none" stroke="black" cx="1206" cy="-36" rx="36" ry="36"/>
<text text-anchor="middle" x="1206" y="-32.12" font-family="Times New Roman,serif" font-size="10.00">ExplodeState</text>
</g>
<!-- node0035&#45;&gt;node0017 -->
<g id="edge35" class="edge">
<title>node0035&#45;&gt;node0017</title>
<path fill="none" stroke="black" d="M1227.1,-65.72C1239.4,-82.46 1255.06,-103.77 1268.33,-121.84"/>
<polygon fill="black" stroke="black" points="1265.39,-123.75 1274.14,-129.74 1271.03,-119.61 1265.39,-123.75"/>
<text text-anchor="middle" x="1265.76" y="-93.2" font-family="Times New Roman,serif" font-size="14.00">is a</text>
</g>
<!-- node0036 -->
<g id="node37" class="node">
<title>node0036</title>
<ellipse fill="none" stroke="black" cx="1296" cy="-36" rx="36" ry="36"/>
<text text-anchor="middle" x="1296" y="-32.12" font-family="Times New Roman,serif" font-size="10.00">DrivingState</text>
</g>
<!-- node0036&#45;&gt;node0017 -->
<g id="edge36" class="edge">
<title>node0036&#45;&gt;node0017</title>
<path fill="none" stroke="black" d="M1296,-72.43C1296,-85 1296,-99.35 1296,-112.72"/>
<polygon fill="black" stroke="black" points="1292.5,-112.63 1296,-122.63 1299.5,-112.63 1292.5,-112.63"/>
<text text-anchor="middle" x="1305.38" y="-93.2" font-family="Times New Roman,serif" font-size="14.00">is a</text>
</g>
<!-- node0037 -->
<g id="node38" class="node">
<title>node0037</title>
<ellipse fill="none" stroke="black" cx="1386" cy="-36" rx="36" ry="36"/>
<text text-anchor="middle" x="1386" y="-32.12" font-family="Times New Roman,serif" font-size="10.00">DriveState</text>
</g>
<!-- node0037&#45;&gt;node0018 -->
<g id="edge37" class="edge">
<title>node0037&#45;&gt;node0018</title>
<path fill="none" stroke="black" d="M1386,-72.43C1386,-85 1386,-99.35 1386,-112.72"/>
<polygon fill="black" stroke="black" points="1382.5,-112.63 1386,-122.63 1389.5,-112.63 1382.5,-112.63"/>
<text text-anchor="middle" x="1395.38" y="-93.2" font-family="Times New Roman,serif" font-size="14.00">is a</text>
</g>
<!-- node0038 -->
<g id="node39" class="node">
<title>node0038</title>
<ellipse fill="none" stroke="black" cx="1476" cy="-36" rx="36" ry="36"/>
<text text-anchor="middle" x="1476" y="-32.12" font-family="Times New Roman,serif" font-size="10.00">CollideState</text>
</g>
<!-- node0038&#45;&gt;node0018 -->
<g id="edge38" class="edge">
<title>node0038&#45;&gt;node0018</title>
<path fill="none" stroke="black" d="M1454.9,-65.72C1442.6,-82.46 1426.94,-103.77 1413.67,-121.84"/>
<polygon fill="black" stroke="black" points="1410.97,-119.61 1407.86,-129.74 1416.61,-123.75 1410.97,-119.61"/>
<text text-anchor="middle" x="1445.76" y="-93.2" font-family="Times New Roman,serif" font-size="14.00">is a</text>
</g>
<!-- node0039 -->
<g id="node40" class="node">
<title>node0039</title>
<ellipse fill="none" stroke="black" cx="1566" cy="-36" rx="36" ry="36"/>
<text text-anchor="middle" x="1566" y="-32.12" font-family="Times New Roman,serif" font-size="10.00">SpillState</text>
</g>
<!-- node0039&#45;&gt;node0018 -->
<g id="edge39" class="edge">
<title>node0039&#45;&gt;node0018</title>
<path fill="none" stroke="black" d="M1538.34,-59.43C1532.7,-63.74 1526.74,-68.12 1521,-72 1482.64,-97.94 1469.36,-98.56 1431,-124.5 1428.31,-126.32 1425.57,-128.25 1422.84,-130.23"/>
<polygon fill="black" stroke="black" points="1420.8,-127.38 1414.87,-136.16 1424.98,-132.99 1420.8,-127.38"/>
<text text-anchor="middle" x="1499.61" y="-93.2" font-family="Times New Roman,serif" font-size="14.00">is a</text>
</g>
</g>
</svg>
