<?xml version="1.0" encoding="UTF-8" standalone="no"?>
<!DOCTYPE svg PUBLIC "-//W3C//DTD SVG 1.1//EN"
 "http://www.w3.org/Graphics/SVG/1.1/DTD/svg11.dtd">
<!-- Generated by graphviz version 12.1.2 (20240928.0832)
 -->
<!-- Pages: 1 -->
<svg width="695pt" height="939pt"
 viewBox="0.00 0.00 695.20 939.20" xmlns="http://www.w3.org/2000/svg" xmlns:xlink="http://www.w3.org/1999/xlink">
<g id="graph0" class="graph" transform="scale(1 1) rotate(0) translate(3.6 935.6)">
<polygon fill="white" stroke="none" points="-3.6,3.6 -3.6,-935.6 691.6,-935.6 691.6,3.6 -3.6,3.6"/>
<!-- casualties -->
<g id="node1" class="node">
<title>casualties</title>
<polygon fill="none" stroke="black" points="41,-910 41,-932 239,-932 239,-910 41,-910"/>
<text text-anchor="start" x="117.88" y="-917.5" font-family="Arial" font-size="10.00">casualties</text>
<polygon fill="none" stroke="black" points="41,-890 41,-910 109,-910 109,-890 41,-890"/>
<text text-anchor="start" x="44.62" y="-896.7" font-family="Arial" font-size="9.00">No_Casualties</text>
<polygon fill="white" stroke="none" points="109,-890 109,-910 200,-910 200,-890 109,-890"/>
<polygon fill="none" stroke="black" points="109,-890 109,-910 200,-910 200,-890 109,-890"/>
<polygon fill="#f3f4f6" stroke="none" points="113,-894 113,-906 196,-906 196,-894 113,-894"/>
<polygon fill="#4ade80" stroke="none" points="115,-896 115,-904 155,-904 155,-896 115,-896"/>
<polygon fill="#f3f4f6" stroke="none" points="155,-896 155,-904 194,-904 194,-896 155,-896"/>
<polygon fill="none" stroke="black" points="200,-890 200,-910 239,-910 239,-890 200,-890"/>
<text text-anchor="start" x="203.75" y="-896.7" font-family="Arial" font-size="9.00">50.30%</text>
<polygon fill="none" stroke="black" points="41,-870 41,-890 109,-890 109,-870 41,-870"/>
<text text-anchor="start" x="61.5" y="-876.7" font-family="Arial" font-size="9.00">Casualties</text>
<polygon fill="white" stroke="none" points="109,-870 109,-890 200,-890 200,-870 109,-870"/>
<polygon fill="none" stroke="black" points="109,-870 109,-890 200,-890 200,-870 109,-870"/>
<polygon fill="#f3f4f6" stroke="none" points="113,-874 113,-886 196,-886 196,-874 113,-874"/>
<polygon fill="#4ade80" stroke="none" points="115,-876 115,-884 154,-884 154,-876 115,-876"/>
<polygon fill="#f3f4f6" stroke="none" points="154,-876 154,-884 194,-884 194,-876 154,-876"/>
<polygon fill="none" stroke="black" points="200,-870 200,-890 239,-890 239,-870 200,-870"/>
<text text-anchor="start" x="203.75" y="-876.7" font-family="Arial" font-size="9.00">49.70%</text>
</g>
<!-- AdaptionCapacity -->
<g id="node13" class="node">
<title>AdaptionCapacity</title>
<polygon fill="none" stroke="black" points="294,-775 294,-797 484,-797 484,-775 294,-775"/>
<text text-anchor="start" x="350.38" y="-782.5" font-family="Arial" font-size="10.00">AdaptionCapacity</text>
<polygon fill="none" stroke="black" points="294,-755 294,-775 354,-775 354,-755 294,-755"/>
<text text-anchor="start" x="327.5" y="-761.7" font-family="Arial" font-size="9.00">Good</text>
<polygon fill="white" stroke="none" points="354,-755 354,-775 445,-775 445,-755 354,-755"/>
<polygon fill="none" stroke="black" points="354,-755 354,-775 445,-775 445,-755 354,-755"/>
<polygon fill="#f3f4f6" stroke="none" points="358,-759 358,-771 441,-771 441,-759 358,-759"/>
<polygon fill="#4ade80" stroke="none" points="360,-761 360,-769 406,-769 406,-761 360,-761"/>
<polygon fill="#f3f4f6" stroke="none" points="406,-761 406,-769 439,-769 439,-761 406,-761"/>
<polygon fill="none" stroke="black" points="445,-755 445,-775 484,-775 484,-755 445,-755"/>
<text text-anchor="start" x="448.75" y="-761.7" font-family="Arial" font-size="9.00">58.66%</text>
<polygon fill="none" stroke="black" points="294,-735 294,-755 354,-755 354,-735 294,-735"/>
<text text-anchor="start" x="333.5" y="-741.7" font-family="Arial" font-size="9.00">Bad</text>
<polygon fill="white" stroke="none" points="354,-735 354,-755 445,-755 445,-735 354,-735"/>
<polygon fill="none" stroke="black" points="354,-735 354,-755 445,-755 445,-735 354,-735"/>
<polygon fill="#f3f4f6" stroke="none" points="358,-739 358,-751 441,-751 441,-739 358,-739"/>
<polygon fill="#4ade80" stroke="none" points="360,-741 360,-749 393,-749 393,-741 360,-741"/>
<polygon fill="#f3f4f6" stroke="none" points="393,-741 393,-749 439,-749 439,-741 393,-741"/>
<polygon fill="none" stroke="black" points="445,-735 445,-755 484,-755 484,-735 445,-735"/>
<text text-anchor="start" x="448.75" y="-741.7" font-family="Arial" font-size="9.00">41.34%</text>
</g>
<!-- casualties&#45;&gt;AdaptionCapacity -->
<g id="edge6" class="edge">
<title>casualties&#45;&gt;AdaptionCapacity</title>
<path fill="none" stroke="#64748b" stroke-width="0.8" d="M238.77,-901C308.29,-901 389,-901 389,-901 389,-901 389,-808.18 389,-808.18"/>
<polygon fill="#64748b" stroke="#64748b" stroke-width="0.8" points="392.5,-808.18 389,-798.18 385.5,-808.18 392.5,-808.18"/>
</g>
<!-- emergencyType -->
<g id="node2" class="node">
<title>emergencyType</title>
<polygon fill="none" stroke="black" points="0,-837 0,-859 280,-859 280,-837 0,-837"/>
<text text-anchor="start" x="105.5" y="-844.5" font-family="Arial" font-size="10.00">emergencyType</text>
<polygon fill="none" stroke="black" points="0,-817 0,-837 150,-837 150,-817 0,-817"/>
<text text-anchor="start" x="54.5" y="-823.7" font-family="Arial" font-size="9.00">Vehicle_Self_Accident</text>
<polygon fill="white" stroke="none" points="150,-817 150,-837 241,-837 241,-817 150,-817"/>
<polygon fill="none" stroke="black" points="150,-817 150,-837 241,-837 241,-817 150,-817"/>
<polygon fill="#f3f4f6" stroke="none" points="154,-821 154,-833 237,-833 237,-821 154,-821"/>
<polygon fill="#4ade80" stroke="none" points="156,-823 156,-831 185,-831 185,-823 156,-823"/>
<polygon fill="#f3f4f6" stroke="none" points="185,-823 185,-831 235,-831 235,-823 185,-823"/>
<polygon fill="none" stroke="black" points="241,-817 241,-837 280,-837 280,-817 241,-817"/>
<text text-anchor="start" x="244.75" y="-823.7" font-family="Arial" font-size="9.00">36.42%</text>
<polygon fill="none" stroke="black" points="0,-797 0,-817 150,-817 150,-797 0,-797"/>
<text text-anchor="start" x="3.75" y="-803.7" font-family="Arial" font-size="9.00">Vehicle_to_Fixed_Object_Accident</text>
<polygon fill="white" stroke="none" points="150,-797 150,-817 241,-817 241,-797 150,-797"/>
<polygon fill="none" stroke="black" points="150,-797 150,-817 241,-817 241,-797 150,-797"/>
<polygon fill="#f3f4f6" stroke="none" points="154,-801 154,-813 237,-813 237,-801 154,-801"/>
<polygon fill="#4ade80" stroke="none" points="156,-803 156,-811 181,-811 181,-803 156,-803"/>
<polygon fill="#f3f4f6" stroke="none" points="181,-803 181,-811 235,-811 235,-803 181,-803"/>
<polygon fill="none" stroke="black" points="241,-797 241,-817 280,-817 280,-797 241,-797"/>
<text text-anchor="start" x="244.75" y="-803.7" font-family="Arial" font-size="9.00">32.39%</text>
<polygon fill="none" stroke="black" points="0,-777 0,-797 150,-797 150,-777 0,-777"/>
<text text-anchor="start" x="69.5" y="-783.7" font-family="Arial" font-size="9.00">Collision_Accident</text>
<polygon fill="white" stroke="none" points="150,-777 150,-797 241,-797 241,-777 150,-777"/>
<polygon fill="none" stroke="black" points="150,-777 150,-797 241,-797 241,-777 150,-777"/>
<polygon fill="#f3f4f6" stroke="none" points="154,-781 154,-793 237,-793 237,-781 154,-781"/>
<polygon fill="#4ade80" stroke="none" points="156,-783 156,-791 180,-791 180,-783 156,-783"/>
<polygon fill="#f3f4f6" stroke="none" points="180,-783 180,-791 235,-791 235,-783 180,-783"/>
<polygon fill="none" stroke="black" points="241,-777 241,-797 280,-797 280,-777 241,-777"/>
<text text-anchor="start" x="244.75" y="-783.7" font-family="Arial" font-size="9.00">31.19%</text>
</g>
<!-- emergencyType&#45;&gt;AdaptionCapacity -->
<g id="edge14" class="edge">
<title>emergencyType&#45;&gt;AdaptionCapacity</title>
<path fill="none" stroke="#64748b" stroke-width="0.8" d="M279.78,-787C279.78,-787 283.08,-787 283.08,-787"/>
<polygon fill="#64748b" stroke="#64748b" stroke-width="0.8" points="283.08,-790.5 293.08,-787 283.08,-783.5 283.08,-790.5"/>
</g>
<!-- roadPassibility -->
<g id="node3" class="node">
<title>roadPassibility</title>
<polygon fill="none" stroke="black" points="45,-631 45,-653 235,-653 235,-631 45,-631"/>
<text text-anchor="start" x="108.12" y="-638.5" font-family="Arial" font-size="10.00">roadPassibility</text>
<polygon fill="none" stroke="black" points="45,-611 45,-631 105,-631 105,-611 45,-611"/>
<text text-anchor="start" x="53.75" y="-617.7" font-family="Arial" font-size="9.00">Impassable</text>
<polygon fill="white" stroke="none" points="105,-611 105,-631 196,-631 196,-611 105,-611"/>
<polygon fill="none" stroke="black" points="105,-611 105,-631 196,-631 196,-611 105,-611"/>
<polygon fill="#f3f4f6" stroke="none" points="109,-615 109,-627 192,-627 192,-615 109,-615"/>
<polygon fill="#4ade80" stroke="none" points="111,-617 111,-625 151,-625 151,-617 111,-617"/>
<polygon fill="#f3f4f6" stroke="none" points="151,-617 151,-625 190,-625 190,-617 151,-617"/>
<polygon fill="none" stroke="black" points="196,-611 196,-631 235,-631 235,-611 196,-611"/>
<text text-anchor="start" x="200.25" y="-617.7" font-family="Arial" font-size="9.00">51.11%</text>
<polygon fill="none" stroke="black" points="45,-591 45,-611 105,-611 105,-591 45,-591"/>
<text text-anchor="start" x="62.75" y="-597.7" font-family="Arial" font-size="9.00">Passable</text>
<polygon fill="white" stroke="none" points="105,-591 105,-611 196,-611 196,-591 105,-591"/>
<polygon fill="none" stroke="black" points="105,-591 105,-611 196,-611 196,-591 105,-591"/>
<polygon fill="#f3f4f6" stroke="none" points="109,-595 109,-607 192,-607 192,-595 109,-595"/>
<polygon fill="#4ade80" stroke="none" points="111,-597 111,-605 150,-605 150,-597 111,-597"/>
<polygon fill="#f3f4f6" stroke="none" points="150,-597 150,-605 190,-605 190,-597 150,-597"/>
<polygon fill="none" stroke="black" points="196,-591 196,-611 235,-611 235,-591 196,-591"/>
<text text-anchor="start" x="199.75" y="-597.7" font-family="Arial" font-size="9.00">48.89%</text>
</g>
<!-- AbsorptionCapacity -->
<g id="node12" class="node">
<title>AbsorptionCapacity</title>
<polygon fill="none" stroke="black" points="294,-594 294,-616 484,-616 484,-594 294,-594"/>
<text text-anchor="start" x="346.25" y="-601.5" font-family="Arial" font-size="10.00">AbsorptionCapacity</text>
<polygon fill="none" stroke="black" points="294,-574 294,-594 354,-594 354,-574 294,-574"/>
<text text-anchor="start" x="327.5" y="-580.7" font-family="Arial" font-size="9.00">Good</text>
<polygon fill="white" stroke="none" points="354,-574 354,-594 445,-594 445,-574 354,-574"/>
<polygon fill="none" stroke="black" points="354,-574 354,-594 445,-594 445,-574 354,-574"/>
<polygon fill="#f3f4f6" stroke="none" points="358,-578 358,-590 441,-590 441,-578 358,-578"/>
<polygon fill="#4ade80" stroke="none" points="360,-580 360,-588 419,-588 419,-580 360,-580"/>
<polygon fill="#f3f4f6" stroke="none" points="419,-580 419,-588 439,-588 439,-580 419,-580"/>
<polygon fill="none" stroke="black" points="445,-574 445,-594 484,-594 484,-574 445,-574"/>
<text text-anchor="start" x="448.75" y="-580.7" font-family="Arial" font-size="9.00">74.76%</text>
<polygon fill="none" stroke="black" points="294,-554 294,-574 354,-574 354,-554 294,-554"/>
<text text-anchor="start" x="333.5" y="-560.7" font-family="Arial" font-size="9.00">Bad</text>
<polygon fill="white" stroke="none" points="354,-554 354,-574 445,-574 445,-554 354,-554"/>
<polygon fill="none" stroke="black" points="354,-554 354,-574 445,-574 445,-554 354,-554"/>
<polygon fill="#f3f4f6" stroke="none" points="358,-558 358,-570 441,-570 441,-558 358,-558"/>
<polygon fill="#4ade80" stroke="none" points="360,-560 360,-568 380,-568 380,-560 360,-560"/>
<polygon fill="#f3f4f6" stroke="none" points="380,-560 380,-568 439,-568 439,-560 380,-560"/>
<polygon fill="none" stroke="black" points="445,-554 445,-574 484,-574 484,-554 445,-554"/>
<text text-anchor="start" x="448.75" y="-560.7" font-family="Arial" font-size="9.00">25.24%</text>
</g>
<!-- roadPassibility&#45;&gt;AbsorptionCapacity -->
<g id="edge3" class="edge">
<title>roadPassibility&#45;&gt;AbsorptionCapacity</title>
<path fill="none" stroke="#64748b" stroke-width="0.8" d="M234.85,-603.5C234.85,-603.5 282.79,-603.5 282.79,-603.5"/>
<polygon fill="#64748b" stroke="#64748b" stroke-width="0.8" points="282.79,-607 292.79,-603.5 282.79,-600 282.79,-607"/>
</g>
<!-- roadLoss -->
<g id="node4" class="node">
<title>roadLoss</title>
<polygon fill="none" stroke="black" points="45,-558 45,-580 235,-580 235,-558 45,-558"/>
<text text-anchor="start" x="120.12" y="-565.5" font-family="Arial" font-size="10.00">roadLoss</text>
<polygon fill="none" stroke="black" points="45,-538 45,-558 105,-558 105,-538 45,-538"/>
<text text-anchor="start" x="62" y="-544.7" font-family="Arial" font-size="9.00">Not_Loss</text>
<polygon fill="white" stroke="none" points="105,-538 105,-558 196,-558 196,-538 105,-538"/>
<polygon fill="none" stroke="black" points="105,-538 105,-558 196,-558 196,-538 105,-538"/>
<polygon fill="#f3f4f6" stroke="none" points="109,-542 109,-554 192,-554 192,-542 109,-542"/>
<polygon fill="#4ade80" stroke="none" points="111,-544 111,-552 154,-552 154,-544 111,-544"/>
<polygon fill="#f3f4f6" stroke="none" points="154,-544 154,-552 190,-552 190,-544 154,-544"/>
<polygon fill="none" stroke="black" points="196,-538 196,-558 235,-558 235,-538 196,-538"/>
<text text-anchor="start" x="199.75" y="-544.7" font-family="Arial" font-size="9.00">53.92%</text>
<polygon fill="none" stroke="black" points="45,-518 45,-538 105,-538 105,-518 45,-518"/>
<text text-anchor="start" x="81.5" y="-524.7" font-family="Arial" font-size="9.00">Loss</text>
<polygon fill="white" stroke="none" points="105,-518 105,-538 196,-538 196,-518 105,-518"/>
<polygon fill="none" stroke="black" points="105,-518 105,-538 196,-538 196,-518 105,-518"/>
<polygon fill="#f3f4f6" stroke="none" points="109,-522 109,-534 192,-534 192,-522 109,-522"/>
<polygon fill="#4ade80" stroke="none" points="111,-524 111,-532 147,-532 147,-524 111,-524"/>
<polygon fill="#f3f4f6" stroke="none" points="147,-524 147,-532 190,-532 190,-524 147,-524"/>
<polygon fill="none" stroke="black" points="196,-518 196,-538 235,-538 235,-518 196,-518"/>
<text text-anchor="start" x="199.75" y="-524.7" font-family="Arial" font-size="9.00">46.08%</text>
</g>
<!-- roadLoss&#45;&gt;AbsorptionCapacity -->
<g id="edge1" class="edge">
<title>roadLoss&#45;&gt;AbsorptionCapacity</title>
<path fill="none" stroke="#64748b" stroke-width="0.8" d="M234.85,-567C234.85,-567 282.79,-567 282.79,-567"/>
<polygon fill="#64748b" stroke="#64748b" stroke-width="0.8" points="282.79,-570.5 292.79,-567 282.79,-563.5 282.79,-570.5"/>
</g>
<!-- AidResource -->
<g id="node5" class="node">
<title>AidResource</title>
<polygon fill="none" stroke="black" points="45,-485 45,-507 235,-507 235,-485 45,-485"/>
<text text-anchor="start" x="111.88" y="-492.5" font-family="Arial" font-size="10.00">AidResource</text>
<polygon fill="none" stroke="black" points="45,-465 45,-485 105,-485 105,-465 45,-465"/>
<text text-anchor="start" x="59.75" y="-471.7" font-family="Arial" font-size="9.00">Not_Used</text>
<polygon fill="white" stroke="none" points="105,-465 105,-485 196,-485 196,-465 105,-465"/>
<polygon fill="none" stroke="black" points="105,-465 105,-485 196,-485 196,-465 105,-465"/>
<polygon fill="#f3f4f6" stroke="none" points="109,-469 109,-481 192,-481 192,-469 109,-469"/>
<polygon fill="#4ade80" stroke="none" points="111,-471 111,-479 154,-479 154,-471 111,-471"/>
<polygon fill="#f3f4f6" stroke="none" points="154,-471 154,-479 190,-479 190,-471 154,-471"/>
<polygon fill="none" stroke="black" points="196,-465 196,-485 235,-485 235,-465 196,-465"/>
<text text-anchor="start" x="199.75" y="-471.7" font-family="Arial" font-size="9.00">54.53%</text>
<polygon fill="none" stroke="black" points="45,-445 45,-465 105,-465 105,-445 45,-445"/>
<text text-anchor="start" x="79.25" y="-451.7" font-family="Arial" font-size="9.00">Used</text>
<polygon fill="white" stroke="none" points="105,-445 105,-465 196,-465 196,-445 105,-445"/>
<polygon fill="none" stroke="black" points="105,-445 105,-465 196,-465 196,-445 105,-445"/>
<polygon fill="#f3f4f6" stroke="none" points="109,-449 109,-461 192,-461 192,-449 109,-449"/>
<polygon fill="#4ade80" stroke="none" points="111,-451 111,-459 147,-459 147,-451 111,-451"/>
<polygon fill="#f3f4f6" stroke="none" points="147,-451 147,-459 190,-459 190,-451 147,-451"/>
<polygon fill="none" stroke="black" points="196,-445 196,-465 235,-465 235,-445 196,-445"/>
<text text-anchor="start" x="199.75" y="-451.7" font-family="Arial" font-size="9.00">45.47%</text>
</g>
<!-- RecoveryCapacity -->
<g id="node14" class="node">
<title>RecoveryCapacity</title>
<polygon fill="none" stroke="black" points="294,-339 294,-361 484,-361 484,-339 294,-339"/>
<text text-anchor="start" x="348.5" y="-346.5" font-family="Arial" font-size="10.00">RecoveryCapacity</text>
<polygon fill="none" stroke="black" points="294,-319 294,-339 354,-339 354,-319 294,-319"/>
<text text-anchor="start" x="327.5" y="-325.7" font-family="Arial" font-size="9.00">Good</text>
<polygon fill="white" stroke="none" points="354,-319 354,-339 445,-339 445,-319 354,-319"/>
<polygon fill="none" stroke="black" points="354,-319 354,-339 445,-339 445,-319 354,-319"/>
<polygon fill="#f3f4f6" stroke="none" points="358,-323 358,-335 441,-335 441,-323 358,-323"/>
<polygon fill="#4ade80" stroke="none" points="360,-325 360,-333 400,-333 400,-325 360,-325"/>
<polygon fill="#f3f4f6" stroke="none" points="400,-325 400,-333 439,-333 439,-325 400,-325"/>
<polygon fill="none" stroke="black" points="445,-319 445,-339 484,-339 484,-319 445,-319"/>
<text text-anchor="start" x="448.75" y="-325.7" font-family="Arial" font-size="9.00">50.01%</text>
<polygon fill="none" stroke="black" points="294,-299 294,-319 354,-319 354,-299 294,-299"/>
<text text-anchor="start" x="333.5" y="-305.7" font-family="Arial" font-size="9.00">Bad</text>
<polygon fill="white" stroke="none" points="354,-299 354,-319 445,-319 445,-299 354,-299"/>
<polygon fill="none" stroke="black" points="354,-299 354,-319 445,-319 445,-299 354,-299"/>
<polygon fill="#f3f4f6" stroke="none" points="358,-303 358,-315 441,-315 441,-303 358,-303"/>
<polygon fill="#4ade80" stroke="none" points="360,-305 360,-313 399,-313 399,-305 360,-305"/>
<polygon fill="#f3f4f6" stroke="none" points="399,-305 399,-313 439,-313 439,-305 399,-305"/>
<polygon fill="none" stroke="black" points="445,-299 445,-319 484,-319 484,-299 445,-299"/>
<text text-anchor="start" x="448.75" y="-305.7" font-family="Arial" font-size="9.00">49.99%</text>
</g>
<!-- AidResource&#45;&gt;RecoveryCapacity -->
<g id="edge10" class="edge">
<title>AidResource&#45;&gt;RecoveryCapacity</title>
<path fill="none" stroke="#64748b" stroke-width="0.8" d="M234.63,-476C316.11,-476 420.67,-476 420.67,-476 420.67,-476 420.67,-372.17 420.67,-372.17"/>
<polygon fill="#64748b" stroke="#64748b" stroke-width="0.8" points="424.17,-372.17 420.67,-362.17 417.17,-372.17 424.17,-372.17"/>
</g>
<!-- TowResource -->
<g id="node6" class="node">
<title>TowResource</title>
<polygon fill="none" stroke="black" points="45,-412 45,-434 235,-434 235,-412 45,-412"/>
<text text-anchor="start" x="110" y="-419.5" font-family="Arial" font-size="10.00">TowResource</text>
<polygon fill="none" stroke="black" points="45,-392 45,-412 105,-412 105,-392 45,-392"/>
<text text-anchor="start" x="59.75" y="-398.7" font-family="Arial" font-size="9.00">Not_Used</text>
<polygon fill="white" stroke="none" points="105,-392 105,-412 196,-412 196,-392 105,-392"/>
<polygon fill="none" stroke="black" points="105,-392 105,-412 196,-412 196,-392 105,-392"/>
<polygon fill="#f3f4f6" stroke="none" points="109,-396 109,-408 192,-408 192,-396 109,-396"/>
<polygon fill="#4ade80" stroke="none" points="111,-398 111,-406 152,-406 152,-398 111,-398"/>
<polygon fill="#f3f4f6" stroke="none" points="152,-398 152,-406 190,-406 190,-398 152,-398"/>
<polygon fill="none" stroke="black" points="196,-392 196,-412 235,-412 235,-392 196,-392"/>
<text text-anchor="start" x="199.75" y="-398.7" font-family="Arial" font-size="9.00">51.71%</text>
<polygon fill="none" stroke="black" points="45,-372 45,-392 105,-392 105,-372 45,-372"/>
<text text-anchor="start" x="79.25" y="-378.7" font-family="Arial" font-size="9.00">Used</text>
<polygon fill="white" stroke="none" points="105,-372 105,-392 196,-392 196,-372 105,-372"/>
<polygon fill="none" stroke="black" points="105,-372 105,-392 196,-392 196,-372 105,-372"/>
<polygon fill="#f3f4f6" stroke="none" points="109,-376 109,-388 192,-388 192,-376 109,-376"/>
<polygon fill="#4ade80" stroke="none" points="111,-378 111,-386 149,-386 149,-378 111,-378"/>
<polygon fill="#f3f4f6" stroke="none" points="149,-378 149,-386 190,-386 190,-378 149,-378"/>
<polygon fill="none" stroke="black" points="196,-372 196,-392 235,-392 235,-372 196,-372"/>
<text text-anchor="start" x="199.75" y="-378.7" font-family="Arial" font-size="9.00">48.29%</text>
</g>
<!-- TowResource&#45;&gt;RecoveryCapacity -->
<g id="edge2" class="edge">
<title>TowResource&#45;&gt;RecoveryCapacity</title>
<path fill="none" stroke="#64748b" stroke-width="0.8" d="M234.69,-403C293.26,-403 357.33,-403 357.33,-403 357.33,-403 357.33,-372.17 357.33,-372.17"/>
<polygon fill="#64748b" stroke="#64748b" stroke-width="0.8" points="360.83,-372.17 357.33,-362.17 353.83,-372.17 360.83,-372.17"/>
</g>
<!-- FirefightingResource -->
<g id="node7" class="node">
<title>FirefightingResource</title>
<polygon fill="none" stroke="black" points="45,-339 45,-361 235,-361 235,-339 45,-339"/>
<text text-anchor="start" x="95" y="-346.5" font-family="Arial" font-size="10.00">FirefightingResource</text>
<polygon fill="none" stroke="black" points="45,-319 45,-339 105,-339 105,-319 45,-319"/>
<text text-anchor="start" x="59.75" y="-325.7" font-family="Arial" font-size="9.00">Not_Used</text>
<polygon fill="white" stroke="none" points="105,-319 105,-339 196,-339 196,-319 105,-319"/>
<polygon fill="none" stroke="black" points="105,-319 105,-339 196,-339 196,-319 105,-319"/>
<polygon fill="#f3f4f6" stroke="none" points="109,-323 109,-335 192,-335 192,-323 109,-323"/>
<polygon fill="#4ade80" stroke="none" points="111,-325 111,-333 151,-333 151,-325 111,-325"/>
<polygon fill="#f3f4f6" stroke="none" points="151,-325 151,-333 190,-333 190,-325 151,-325"/>
<polygon fill="none" stroke="black" points="196,-319 196,-339 235,-339 235,-319 196,-319"/>
<text text-anchor="start" x="199.75" y="-325.7" font-family="Arial" font-size="9.00">50.10%</text>
<polygon fill="none" stroke="black" points="45,-299 45,-319 105,-319 105,-299 45,-299"/>
<text text-anchor="start" x="79.25" y="-305.7" font-family="Arial" font-size="9.00">Used</text>
<polygon fill="white" stroke="none" points="105,-299 105,-319 196,-319 196,-299 105,-299"/>
<polygon fill="none" stroke="black" points="105,-299 105,-319 196,-319 196,-299 105,-299"/>
<polygon fill="#f3f4f6" stroke="none" points="109,-303 109,-315 192,-315 192,-303 109,-303"/>
<polygon fill="#4ade80" stroke="none" points="111,-305 111,-313 150,-313 150,-305 111,-305"/>
<polygon fill="#f3f4f6" stroke="none" points="150,-305 150,-313 190,-313 190,-305 150,-305"/>
<polygon fill="none" stroke="black" points="196,-299 196,-319 235,-319 235,-299 196,-299"/>
<text text-anchor="start" x="199.75" y="-305.7" font-family="Arial" font-size="9.00">49.90%</text>
</g>
<!-- FirefightingResource&#45;&gt;RecoveryCapacity -->
<g id="edge12" class="edge">
<title>FirefightingResource&#45;&gt;RecoveryCapacity</title>
<path fill="none" stroke="#64748b" stroke-width="0.8" d="M234.85,-330C234.85,-330 282.79,-330 282.79,-330"/>
<polygon fill="#64748b" stroke="#64748b" stroke-width="0.8" points="282.79,-333.5 292.79,-330 282.79,-326.5 282.79,-333.5"/>
</g>
<!-- RescueResource -->
<g id="node8" class="node">
<title>RescueResource</title>
<polygon fill="none" stroke="black" points="45,-266 45,-288 235,-288 235,-266 45,-266"/>
<text text-anchor="start" x="102.12" y="-273.5" font-family="Arial" font-size="10.00">RescueResource</text>
<polygon fill="none" stroke="black" points="45,-246 45,-266 105,-266 105,-246 45,-246"/>
<text text-anchor="start" x="59.75" y="-252.7" font-family="Arial" font-size="9.00">Not_Used</text>
<polygon fill="white" stroke="none" points="105,-246 105,-266 196,-266 196,-246 105,-246"/>
<polygon fill="none" stroke="black" points="105,-246 105,-266 196,-266 196,-246 105,-246"/>
<polygon fill="#f3f4f6" stroke="none" points="109,-250 109,-262 192,-262 192,-250 109,-250"/>
<polygon fill="#4ade80" stroke="none" points="111,-252 111,-260 151,-260 151,-252 111,-252"/>
<polygon fill="#f3f4f6" stroke="none" points="151,-252 151,-260 190,-260 190,-252 151,-252"/>
<polygon fill="none" stroke="black" points="196,-246 196,-266 235,-266 235,-246 196,-246"/>
<text text-anchor="start" x="199.75" y="-252.7" font-family="Arial" font-size="9.00">50.30%</text>
<polygon fill="none" stroke="black" points="45,-226 45,-246 105,-246 105,-226 45,-226"/>
<text text-anchor="start" x="79.25" y="-232.7" font-family="Arial" font-size="9.00">Used</text>
<polygon fill="white" stroke="none" points="105,-226 105,-246 196,-246 196,-226 105,-226"/>
<polygon fill="none" stroke="black" points="105,-226 105,-246 196,-246 196,-226 105,-226"/>
<polygon fill="#f3f4f6" stroke="none" points="109,-230 109,-242 192,-242 192,-230 109,-230"/>
<polygon fill="#4ade80" stroke="none" points="111,-232 111,-240 150,-240 150,-232 111,-232"/>
<polygon fill="#f3f4f6" stroke="none" points="150,-232 150,-240 190,-240 190,-232 150,-232"/>
<polygon fill="none" stroke="black" points="196,-226 196,-246 235,-246 235,-226 196,-226"/>
<text text-anchor="start" x="199.75" y="-232.7" font-family="Arial" font-size="9.00">49.70%</text>
</g>
<!-- RescueResource&#45;&gt;RecoveryCapacity -->
<g id="edge4" class="edge">
<title>RescueResource&#45;&gt;RecoveryCapacity</title>
<path fill="none" stroke="#64748b" stroke-width="0.8" d="M234.85,-257C287.11,-257 341.5,-257 341.5,-257 341.5,-257 341.5,-287.83 341.5,-287.83"/>
<polygon fill="#64748b" stroke="#64748b" stroke-width="0.8" points="338,-287.83 341.5,-297.83 345,-287.83 338,-287.83"/>
</g>
<!-- disposalDuration -->
<g id="node9" class="node">
<title>disposalDuration</title>
<polygon fill="none" stroke="black" points="45,-193 45,-215 235,-215 235,-193 45,-193"/>
<text text-anchor="start" x="103.62" y="-200.5" font-family="Arial" font-size="10.00">disposalDuration</text>
<polygon fill="none" stroke="black" points="45,-173 45,-193 105,-193 105,-173 45,-173"/>
<text text-anchor="start" x="67.25" y="-179.7" font-family="Arial" font-size="9.00">0&#45;15min</text>
<polygon fill="white" stroke="none" points="105,-173 105,-193 196,-193 196,-173 105,-173"/>
<polygon fill="none" stroke="black" points="105,-173 105,-193 196,-193 196,-173 105,-173"/>
<polygon fill="#f3f4f6" stroke="none" points="109,-177 109,-189 192,-189 192,-177 109,-177"/>
<polygon fill="#4ade80" stroke="none" points="111,-179 111,-187 125,-187 125,-179 111,-179"/>
<polygon fill="#f3f4f6" stroke="none" points="125,-179 125,-187 190,-187 190,-179 125,-179"/>
<polygon fill="none" stroke="black" points="196,-173 196,-193 235,-193 235,-173 196,-173"/>
<text text-anchor="start" x="199.75" y="-179.7" font-family="Arial" font-size="9.00">17.57%</text>
<polygon fill="none" stroke="black" points="45,-153 45,-173 105,-173 105,-153 45,-153"/>
<text text-anchor="start" x="62" y="-159.7" font-family="Arial" font-size="9.00">15&#45;30min</text>
<polygon fill="white" stroke="none" points="105,-153 105,-173 196,-173 196,-153 105,-153"/>
<polygon fill="none" stroke="black" points="105,-153 105,-173 196,-173 196,-153 105,-153"/>
<polygon fill="#f3f4f6" stroke="none" points="109,-157 109,-169 192,-169 192,-157 109,-157"/>
<polygon fill="#4ade80" stroke="none" points="111,-159 111,-167 131,-167 131,-159 111,-159"/>
<polygon fill="#f3f4f6" stroke="none" points="131,-159 131,-167 190,-167 190,-159 131,-159"/>
<polygon fill="none" stroke="black" points="196,-153 196,-173 235,-173 235,-153 196,-153"/>
<text text-anchor="start" x="199.75" y="-159.7" font-family="Arial" font-size="9.00">25.80%</text>
<polygon fill="none" stroke="black" points="45,-133 45,-153 105,-153 105,-133 45,-133"/>
<text text-anchor="start" x="62" y="-139.7" font-family="Arial" font-size="9.00">30&#45;60min</text>
<polygon fill="white" stroke="none" points="105,-133 105,-153 196,-153 196,-133 105,-133"/>
<polygon fill="none" stroke="black" points="105,-133 105,-153 196,-153 196,-133 105,-133"/>
<polygon fill="#f3f4f6" stroke="none" points="109,-137 109,-149 192,-149 192,-137 109,-137"/>
<polygon fill="#4ade80" stroke="none" points="111,-139 111,-147 147,-147 147,-139 111,-139"/>
<polygon fill="#f3f4f6" stroke="none" points="147,-139 147,-147 190,-147 190,-139 147,-139"/>
<polygon fill="none" stroke="black" points="196,-133 196,-153 235,-153 235,-133 196,-133"/>
<text text-anchor="start" x="199.75" y="-139.7" font-family="Arial" font-size="9.00">45.07%</text>
<polygon fill="none" stroke="black" points="45,-113 45,-133 105,-133 105,-113 45,-113"/>
<text text-anchor="start" x="70.25" y="-119.7" font-family="Arial" font-size="9.00">60min+</text>
<polygon fill="white" stroke="none" points="105,-113 105,-133 196,-133 196,-113 105,-113"/>
<polygon fill="none" stroke="black" points="105,-113 105,-133 196,-133 196,-113 105,-113"/>
<polygon fill="#f3f4f6" stroke="none" points="109,-117 109,-129 192,-129 192,-117 109,-117"/>
<polygon fill="#4ade80" stroke="none" points="111,-119 111,-127 120,-127 120,-119 111,-119"/>
<polygon fill="#f3f4f6" stroke="none" points="120,-119 120,-127 190,-127 190,-119 120,-119"/>
<polygon fill="none" stroke="black" points="196,-113 196,-133 235,-133 235,-113 196,-113"/>
<text text-anchor="start" x="200.25" y="-119.7" font-family="Arial" font-size="9.00">11.56%</text>
</g>
<!-- disposalDuration&#45;&gt;RecoveryCapacity -->
<g id="edge8" class="edge">
<title>disposalDuration&#45;&gt;RecoveryCapacity</title>
<path fill="none" stroke="#64748b" stroke-width="0.8" d="M234.85,-164C305.21,-164 389,-164 389,-164 389,-164 389,-287.95 389,-287.95"/>
<polygon fill="#64748b" stroke="#64748b" stroke-width="0.8" points="385.5,-287.95 389,-297.95 392.5,-287.95 385.5,-287.95"/>
</g>
<!-- emergencyPeriod -->
<g id="node10" class="node">
<title>emergencyPeriod</title>
<polygon fill="none" stroke="black" points="41,-744 41,-766 239,-766 239,-744 41,-744"/>
<text text-anchor="start" x="102.12" y="-751.5" font-family="Arial" font-size="10.00">emergencyPeriod</text>
<polygon fill="none" stroke="black" points="41,-724 41,-744 109,-744 109,-724 41,-724"/>
<text text-anchor="start" x="45" y="-730.7" font-family="Arial" font-size="9.00">Early_Morning</text>
<polygon fill="white" stroke="none" points="109,-724 109,-744 200,-744 200,-724 109,-724"/>
<polygon fill="none" stroke="black" points="109,-724 109,-744 200,-744 200,-724 109,-724"/>
<polygon fill="#f3f4f6" stroke="none" points="113,-728 113,-740 196,-740 196,-728 113,-728"/>
<polygon fill="#4ade80" stroke="none" points="115,-730 115,-738 136,-738 136,-730 115,-730"/>
<polygon fill="#f3f4f6" stroke="none" points="136,-730 136,-738 194,-738 194,-730 136,-730"/>
<polygon fill="none" stroke="black" points="200,-724 200,-744 239,-744 239,-724 200,-724"/>
<text text-anchor="start" x="203.75" y="-730.7" font-family="Arial" font-size="9.00">27.36%</text>
<polygon fill="none" stroke="black" points="41,-704 41,-724 109,-724 109,-704 41,-704"/>
<text text-anchor="start" x="71.25" y="-710.7" font-family="Arial" font-size="9.00">Morning</text>
<polygon fill="white" stroke="none" points="109,-704 109,-724 200,-724 200,-704 109,-704"/>
<polygon fill="none" stroke="black" points="109,-704 109,-724 200,-724 200,-704 109,-704"/>
<polygon fill="#f3f4f6" stroke="none" points="113,-708 113,-720 196,-720 196,-708 113,-708"/>
<polygon fill="#4ade80" stroke="none" points="115,-710 115,-718 134,-718 134,-710 115,-710"/>
<polygon fill="#f3f4f6" stroke="none" points="134,-710 134,-718 194,-718 194,-710 134,-710"/>
<polygon fill="none" stroke="black" points="200,-704 200,-724 239,-724 239,-704 200,-704"/>
<text text-anchor="start" x="203.75" y="-710.7" font-family="Arial" font-size="9.00">24.95%</text>
<polygon fill="none" stroke="black" points="41,-684 41,-704 109,-704 109,-684 41,-684"/>
<text text-anchor="start" x="65.25" y="-690.7" font-family="Arial" font-size="9.00">Afternoon</text>
<polygon fill="white" stroke="none" points="109,-684 109,-704 200,-704 200,-684 109,-684"/>
<polygon fill="none" stroke="black" points="109,-684 109,-704 200,-704 200,-684 109,-684"/>
<polygon fill="#f3f4f6" stroke="none" points="113,-688 113,-700 196,-700 196,-688 113,-688"/>
<polygon fill="#4ade80" stroke="none" points="115,-690 115,-698 134,-698 134,-690 115,-690"/>
<polygon fill="#f3f4f6" stroke="none" points="134,-690 134,-698 194,-698 194,-690 134,-690"/>
<polygon fill="none" stroke="black" points="200,-684 200,-704 239,-704 239,-684 200,-684"/>
<text text-anchor="start" x="203.75" y="-690.7" font-family="Arial" font-size="9.00">24.14%</text>
<polygon fill="none" stroke="black" points="41,-664 41,-684 109,-684 109,-664 41,-664"/>
<text text-anchor="start" x="71.25" y="-670.7" font-family="Arial" font-size="9.00">Evening</text>
<polygon fill="white" stroke="none" points="109,-664 109,-684 200,-684 200,-664 109,-664"/>
<polygon fill="none" stroke="black" points="109,-664 109,-684 200,-684 200,-664 109,-664"/>
<polygon fill="#f3f4f6" stroke="none" points="113,-668 113,-680 196,-680 196,-668 113,-668"/>
<polygon fill="#4ade80" stroke="none" points="115,-670 115,-678 133,-678 133,-670 115,-670"/>
<polygon fill="#f3f4f6" stroke="none" points="133,-670 133,-678 194,-678 194,-670 133,-670"/>
<polygon fill="none" stroke="black" points="200,-664 200,-684 239,-684 239,-664 200,-664"/>
<text text-anchor="start" x="203.75" y="-670.7" font-family="Arial" font-size="9.00">23.54%</text>
</g>
<!-- emergencyPeriod&#45;&gt;AdaptionCapacity -->
<g id="edge9" class="edge">
<title>emergencyPeriod&#45;&gt;AdaptionCapacity</title>
<path fill="none" stroke="#64748b" stroke-width="0.8" d="M238.77,-750.5C238.77,-750.5 282.79,-750.5 282.79,-750.5"/>
<polygon fill="#64748b" stroke="#64748b" stroke-width="0.8" points="282.79,-754 292.79,-750.5 282.79,-747 282.79,-754"/>
</g>
<!-- responseDuration -->
<g id="node11" class="node">
<title>responseDuration</title>
<polygon fill="none" stroke="black" points="44.5,-80 44.5,-102 235.5,-102 235.5,-80 44.5,-80"/>
<text text-anchor="start" x="101.75" y="-87.5" font-family="Arial" font-size="10.00">responseDuration</text>
<polygon fill="none" stroke="black" points="44.5,-60 44.5,-80 104.5,-80 104.5,-60 44.5,-60"/>
<text text-anchor="start" x="66.75" y="-66.7" font-family="Arial" font-size="9.00">0&#45;15min</text>
<polygon fill="white" stroke="none" points="104.5,-60 104.5,-80 196.5,-80 196.5,-60 104.5,-60"/>
<polygon fill="none" stroke="black" points="104.5,-60 104.5,-80 196.5,-80 196.5,-60 104.5,-60"/>
<polygon fill="#f3f4f6" stroke="none" points="108.5,-64 108.5,-76 192.5,-76 192.5,-64 108.5,-64"/>
<polygon fill="#4ade80" stroke="none" points="110.5,-66 110.5,-74 174,-74 174,-66 110.5,-66"/>
<polygon fill="#f3f4f6" stroke="none" points="174,-66 174,-74 190.5,-74 190.5,-66 174,-66"/>
<polygon fill="none" stroke="black" points="196.5,-60 196.5,-80 235.5,-80 235.5,-60 196.5,-60"/>
<text text-anchor="start" x="200.25" y="-66.7" font-family="Arial" font-size="9.00">79.68%</text>
<polygon fill="none" stroke="black" points="44.5,-40 44.5,-60 104.5,-60 104.5,-40 44.5,-40"/>
<text text-anchor="start" x="61.5" y="-46.7" font-family="Arial" font-size="9.00">15&#45;30min</text>
<polygon fill="white" stroke="none" points="104.5,-40 104.5,-60 196.5,-60 196.5,-40 104.5,-40"/>
<polygon fill="none" stroke="black" points="104.5,-40 104.5,-60 196.5,-60 196.5,-40 104.5,-40"/>
<polygon fill="#f3f4f6" stroke="none" points="108.5,-44 108.5,-56 192.5,-56 192.5,-44 108.5,-44"/>
<polygon fill="#4ade80" stroke="none" points="110.5,-46 110.5,-54 127,-54 127,-46 110.5,-46"/>
<polygon fill="#f3f4f6" stroke="none" points="127,-46 127,-54 190.5,-54 190.5,-46 127,-46"/>
<polygon fill="none" stroke="black" points="196.5,-40 196.5,-60 235.5,-60 235.5,-40 196.5,-40"/>
<text text-anchor="start" x="200.25" y="-46.7" font-family="Arial" font-size="9.00">20.32%</text>
<polygon fill="none" stroke="black" points="44.5,-20 44.5,-40 104.5,-40 104.5,-20 44.5,-20"/>
<text text-anchor="start" x="61.5" y="-26.7" font-family="Arial" font-size="9.00">30&#45;60min</text>
<polygon fill="white" stroke="none" points="104.5,-20 104.5,-40 196.5,-40 196.5,-20 104.5,-20"/>
<polygon fill="none" stroke="black" points="104.5,-20 104.5,-40 196.5,-40 196.5,-20 104.5,-20"/>
<polygon fill="#f3f4f6" stroke="none" points="108.5,-24 108.5,-36 192.5,-36 192.5,-24 108.5,-24"/>
<polygon fill="#f3f4f6" stroke="none" points="110.5,-26 110.5,-34 190.5,-34 190.5,-26 110.5,-26"/>
<polygon fill="none" stroke="black" points="196.5,-20 196.5,-40 235.5,-40 235.5,-20 196.5,-20"/>
<text text-anchor="start" x="205.25" y="-26.7" font-family="Arial" font-size="9.00">0.00%</text>
<polygon fill="none" stroke="black" points="44.5,0 44.5,-20 104.5,-20 104.5,0 44.5,0"/>
<text text-anchor="start" x="69.75" y="-6.7" font-family="Arial" font-size="9.00">60min+</text>
<polygon fill="white" stroke="none" points="104.5,0 104.5,-20 196.5,-20 196.5,0 104.5,0"/>
<polygon fill="none" stroke="black" points="104.5,0 104.5,-20 196.5,-20 196.5,0 104.5,0"/>
<polygon fill="#f3f4f6" stroke="none" points="108.5,-4 108.5,-16 192.5,-16 192.5,-4 108.5,-4"/>
<polygon fill="#f3f4f6" stroke="none" points="110.5,-6 110.5,-14 190.5,-14 190.5,-6 110.5,-6"/>
<polygon fill="none" stroke="black" points="196.5,0 196.5,-20 235.5,-20 235.5,0 196.5,0"/>
<text text-anchor="start" x="205.25" y="-6.7" font-family="Arial" font-size="9.00">0.00%</text>
</g>
<!-- responseDuration&#45;&gt;RecoveryCapacity -->
<g id="edge11" class="edge">
<title>responseDuration&#45;&gt;RecoveryCapacity</title>
<path fill="none" stroke="#64748b" stroke-width="0.8" d="M235.45,-51C322.12,-51 436.5,-51 436.5,-51 436.5,-51 436.5,-287.87 436.5,-287.87"/>
<polygon fill="#64748b" stroke="#64748b" stroke-width="0.8" points="433,-287.87 436.5,-297.87 440,-287.87 433,-287.87"/>
</g>
<!-- ScenarioResilience -->
<g id="node15" class="node">
<title>ScenarioResilience</title>
<polygon fill="none" stroke="black" points="498,-594 498,-616 688,-616 688,-594 498,-594"/>
<text text-anchor="start" x="551" y="-601.5" font-family="Arial" font-size="10.00">ScenarioResilience</text>
<polygon fill="none" stroke="black" points="498,-574 498,-594 558,-594 558,-574 498,-574"/>
<text text-anchor="start" x="531.5" y="-580.7" font-family="Arial" font-size="9.00">Good</text>
<polygon fill="white" stroke="none" points="558,-574 558,-594 649,-594 649,-574 558,-574"/>
<polygon fill="none" stroke="black" points="558,-574 558,-594 649,-594 649,-574 558,-574"/>
<polygon fill="#f3f4f6" stroke="none" points="562,-578 562,-590 645,-590 645,-578 562,-578"/>
<polygon fill="#4ade80" stroke="none" points="564,-580 564,-588 611,-588 611,-580 564,-580"/>
<polygon fill="#f3f4f6" stroke="none" points="611,-580 611,-588 643,-588 643,-580 611,-580"/>
<polygon fill="none" stroke="black" points="649,-574 649,-594 688,-594 688,-574 649,-574"/>
<text text-anchor="start" x="652.75" y="-580.7" font-family="Arial" font-size="9.00">59.27%</text>
<polygon fill="none" stroke="black" points="498,-554 498,-574 558,-574 558,-554 498,-554"/>
<text text-anchor="start" x="537.5" y="-560.7" font-family="Arial" font-size="9.00">Bad</text>
<polygon fill="white" stroke="none" points="558,-554 558,-574 649,-574 649,-554 558,-554"/>
<polygon fill="none" stroke="black" points="558,-554 558,-574 649,-574 649,-554 558,-554"/>
<polygon fill="#f3f4f6" stroke="none" points="562,-558 562,-570 645,-570 645,-558 562,-558"/>
<polygon fill="#4ade80" stroke="none" points="564,-560 564,-568 596,-568 596,-560 564,-560"/>
<polygon fill="#f3f4f6" stroke="none" points="596,-560 596,-568 643,-568 643,-560 596,-560"/>
<polygon fill="none" stroke="black" points="649,-554 649,-574 688,-574 688,-554 649,-554"/>
<text text-anchor="start" x="652.75" y="-560.7" font-family="Arial" font-size="9.00">40.73%</text>
</g>
<!-- AbsorptionCapacity&#45;&gt;ScenarioResilience -->
<g id="edge13" class="edge">
<title>AbsorptionCapacity&#45;&gt;ScenarioResilience</title>
<path fill="none" stroke="#64748b" stroke-width="0.8" d="M483.83,-585C483.83,-585 487,-585 487,-585"/>
<polygon fill="#64748b" stroke="#64748b" stroke-width="0.8" points="487,-588.5 497,-585 487,-581.5 487,-588.5"/>
</g>
<!-- AdaptionCapacity&#45;&gt;ScenarioResilience -->
<g id="edge5" class="edge">
<title>AdaptionCapacity&#45;&gt;ScenarioResilience</title>
<path fill="none" stroke="#64748b" stroke-width="0.8" d="M483.83,-766C537.11,-766 593,-766 593,-766 593,-766 593,-626.92 593,-626.92"/>
<polygon fill="#64748b" stroke="#64748b" stroke-width="0.8" points="596.5,-626.91 593,-616.92 589.5,-626.92 596.5,-626.91"/>
</g>
<!-- RecoveryCapacity&#45;&gt;ScenarioResilience -->
<g id="edge7" class="edge">
<title>RecoveryCapacity&#45;&gt;ScenarioResilience</title>
<path fill="none" stroke="#64748b" stroke-width="0.8" d="M483.83,-330C537.11,-330 593,-330 593,-330 593,-330 593,-543.03 593,-543.03"/>
<polygon fill="#64748b" stroke="#64748b" stroke-width="0.8" points="589.5,-543.03 593,-553.03 596.5,-543.03 589.5,-543.03"/>
</g>
</g>
</svg>
