<?xml version="1.0" encoding="UTF-8" standalone="no"?>
<!DOCTYPE svg PUBLIC "-//W3C//DTD SVG 1.1//EN"
 "http://www.w3.org/Graphics/SVG/1.1/DTD/svg11.dtd">
<!-- Generated by graphviz version 12.1.2 (20240928.0832)
 -->
<!-- Pages: 1 -->
<svg width="696pt" height="939pt"
 viewBox="0.00 0.00 696.20 939.20" xmlns="http://www.w3.org/2000/svg" xmlns:xlink="http://www.w3.org/1999/xlink">
<g id="graph0" class="graph" transform="scale(1 1) rotate(0) translate(3.6 935.6)">
<polygon fill="white" stroke="none" points="-3.6,3.6 -3.6,-935.6 692.6,-935.6 692.6,3.6 -3.6,3.6"/>
<!-- casualties -->
<g id="node1" class="node">
<title>casualties</title>
<polygon fill="none" stroke="#3b82f6" points="38,-910 38,-932 242,-932 242,-910 38,-910"/>
<text text-anchor="start" x="117.88" y="-917.5" font-family="Arial" font-size="10.00">casualties</text>
<polygon fill="none" stroke="#3b82f6" points="38,-890 38,-910 106,-910 106,-890 38,-890"/>
<text text-anchor="start" x="41.62" y="-896.7" font-family="Arial" font-size="9.00">No_Casualties</text>
<polygon fill="white" stroke="none" points="106,-890 106,-910 198,-910 198,-890 106,-890"/>
<polygon fill="none" stroke="#3b82f6" points="106,-890 106,-910 198,-910 198,-890 106,-890"/>
<polygon fill="#f3f4f6" stroke="none" points="110,-894 110,-906 194,-906 194,-894 110,-894"/>
<polygon fill="#f3f4f6" stroke="none" points="112,-896 112,-904 192,-904 192,-896 112,-896"/>
<polygon fill="none" stroke="#3b82f6" points="198,-890 198,-910 242,-910 242,-890 198,-890"/>
<text text-anchor="start" x="211.75" y="-896.7" font-family="Arial" font-size="9.00">0.00%</text>
<polygon fill="none" stroke="#3b82f6" points="38,-870 38,-890 106,-890 106,-870 38,-870"/>
<text text-anchor="start" x="58.5" y="-876.7" font-family="Arial" font-size="9.00">Casualties</text>
<polygon fill="white" stroke="none" points="106,-870 106,-890 198,-890 198,-870 106,-870"/>
<polygon fill="none" stroke="#3b82f6" points="106,-870 106,-890 198,-890 198,-870 106,-870"/>
<polygon fill="#f3f4f6" stroke="none" points="110,-874 110,-886 194,-886 194,-874 110,-874"/>
<polygon fill="#4ade80" stroke="none" points="112,-876 112,-884 192,-884 192,-876 112,-876"/>
<polygon fill="none" stroke="#3b82f6" points="198,-870 198,-890 242,-890 242,-870 198,-870"/>
<text text-anchor="start" x="201.62" y="-876.7" font-family="Arial" font-size="9.00">100.00%</text>
</g>
<!-- AdaptionCapacity -->
<g id="node13" class="node">
<title>AdaptionCapacity</title>
<polygon fill="none" stroke="black" points="294.5,-775 294.5,-797 484.5,-797 484.5,-775 294.5,-775"/>
<text text-anchor="start" x="350.88" y="-782.5" font-family="Arial" font-size="10.00">AdaptionCapacity</text>
<polygon fill="none" stroke="black" points="294.5,-755 294.5,-775 354.5,-775 354.5,-755 294.5,-755"/>
<text text-anchor="start" x="328" y="-761.7" font-family="Arial" font-size="9.00">Good</text>
<polygon fill="white" stroke="none" points="354.5,-755 354.5,-775 445.5,-775 445.5,-755 354.5,-755"/>
<polygon fill="none" stroke="black" points="354.5,-755 354.5,-775 445.5,-775 445.5,-755 354.5,-755"/>
<polygon fill="#f3f4f6" stroke="none" points="358.5,-759 358.5,-771 441.5,-771 441.5,-759 358.5,-759"/>
<polygon fill="#4ade80" stroke="none" points="360.5,-761 360.5,-769 406.5,-769 406.5,-761 360.5,-761"/>
<polygon fill="#f3f4f6" stroke="none" points="406.5,-761 406.5,-769 439.5,-769 439.5,-761 406.5,-761"/>
<polygon fill="none" stroke="black" points="445.5,-755 445.5,-775 484.5,-775 484.5,-755 445.5,-755"/>
<text text-anchor="start" x="449.25" y="-761.7" font-family="Arial" font-size="9.00">58.66%</text>
<polygon fill="none" stroke="black" points="294.5,-735 294.5,-755 354.5,-755 354.5,-735 294.5,-735"/>
<text text-anchor="start" x="334" y="-741.7" font-family="Arial" font-size="9.00">Bad</text>
<polygon fill="white" stroke="none" points="354.5,-735 354.5,-755 445.5,-755 445.5,-735 354.5,-735"/>
<polygon fill="none" stroke="black" points="354.5,-735 354.5,-755 445.5,-755 445.5,-735 354.5,-735"/>
<polygon fill="#f3f4f6" stroke="none" points="358.5,-739 358.5,-751 441.5,-751 441.5,-739 358.5,-739"/>
<polygon fill="#4ade80" stroke="none" points="360.5,-741 360.5,-749 393.5,-749 393.5,-741 360.5,-741"/>
<polygon fill="#f3f4f6" stroke="none" points="393.5,-741 393.5,-749 439.5,-749 439.5,-741 393.5,-741"/>
<polygon fill="none" stroke="black" points="445.5,-735 445.5,-755 484.5,-755 484.5,-735 445.5,-735"/>
<text text-anchor="start" x="449.25" y="-741.7" font-family="Arial" font-size="9.00">41.34%</text>
</g>
<!-- casualties&#45;&gt;AdaptionCapacity -->
<g id="edge6" class="edge">
<title>casualties&#45;&gt;AdaptionCapacity</title>
<path fill="none" stroke="#64748b" stroke-width="0.8" d="M241.84,-901C310.83,-901 389.5,-901 389.5,-901 389.5,-901 389.5,-808.18 389.5,-808.18"/>
<polygon fill="#64748b" stroke="#64748b" stroke-width="0.8" points="393,-808.18 389.5,-798.18 386,-808.18 393,-808.18"/>
</g>
<!-- emergencyType -->
<g id="node2" class="node">
<title>emergencyType</title>
<polygon fill="none" stroke="black" points="0,-837 0,-859 280,-859 280,-837 0,-837"/>
<text text-anchor="start" x="105.5" y="-844.5" font-family="Arial" font-size="10.00">emergencyType</text>
<polygon fill="none" stroke="black" points="0,-817 0,-837 150,-837 150,-817 0,-817"/>
<text text-anchor="start" x="54.5" y="-823.7" font-family="Arial" font-size="9.00">Vehicle_Self_Accident</text>
<polygon fill="white" stroke="none" points="150,-817 150,-837 241,-837 241,-817 150,-817"/>
<polygon fill="none" stroke="black" points="150,-817 150,-837 241,-837 241,-817 150,-817"/>
<polygon fill="#f3f4f6" stroke="none" points="154,-821 154,-833 237,-833 237,-821 154,-821"/>
<polygon fill="#4ade80" stroke="none" points="156,-823 156,-831 185,-831 185,-823 156,-823"/>
<polygon fill="#f3f4f6" stroke="none" points="185,-823 185,-831 235,-831 235,-823 185,-823"/>
<polygon fill="none" stroke="black" points="241,-817 241,-837 280,-837 280,-817 241,-817"/>
<text text-anchor="start" x="244.75" y="-823.7" font-family="Arial" font-size="9.00">36.42%</text>
<polygon fill="none" stroke="black" points="0,-797 0,-817 150,-817 150,-797 0,-797"/>
<text text-anchor="start" x="3.75" y="-803.7" font-family="Arial" font-size="9.00">Vehicle_to_Fixed_Object_Accident</text>
<polygon fill="white" stroke="none" points="150,-797 150,-817 241,-817 241,-797 150,-797"/>
<polygon fill="none" stroke="black" points="150,-797 150,-817 241,-817 241,-797 150,-797"/>
<polygon fill="#f3f4f6" stroke="none" points="154,-801 154,-813 237,-813 237,-801 154,-801"/>
<polygon fill="#4ade80" stroke="none" points="156,-803 156,-811 181,-811 181,-803 156,-803"/>
<polygon fill="#f3f4f6" stroke="none" points="181,-803 181,-811 235,-811 235,-803 181,-803"/>
<polygon fill="none" stroke="black" points="241,-797 241,-817 280,-817 280,-797 241,-797"/>
<text text-anchor="start" x="244.75" y="-803.7" font-family="Arial" font-size="9.00">32.39%</text>
<polygon fill="none" stroke="black" points="0,-777 0,-797 150,-797 150,-777 0,-777"/>
<text text-anchor="start" x="69.5" y="-783.7" font-family="Arial" font-size="9.00">Collision_Accident</text>
<polygon fill="white" stroke="none" points="150,-777 150,-797 241,-797 241,-777 150,-777"/>
<polygon fill="none" stroke="black" points="150,-777 150,-797 241,-797 241,-777 150,-777"/>
<polygon fill="#f3f4f6" stroke="none" points="154,-781 154,-793 237,-793 237,-781 154,-781"/>
<polygon fill="#4ade80" stroke="none" points="156,-783 156,-791 180,-791 180,-783 156,-783"/>
<polygon fill="#f3f4f6" stroke="none" points="180,-783 180,-791 235,-791 235,-783 180,-783"/>
<polygon fill="none" stroke="black" points="241,-777 241,-797 280,-797 280,-777 241,-777"/>
<text text-anchor="start" x="244.75" y="-783.7" font-family="Arial" font-size="9.00">31.19%</text>
</g>
<!-- emergencyType&#45;&gt;AdaptionCapacity -->
<g id="edge14" class="edge">
<title>emergencyType&#45;&gt;AdaptionCapacity</title>
<path fill="none" stroke="#64748b" stroke-width="0.8" d="M279.7,-787C279.7,-787 283.39,-787 283.39,-787"/>
<polygon fill="#64748b" stroke="#64748b" stroke-width="0.8" points="283.39,-790.5 293.39,-787 283.39,-783.5 283.39,-790.5"/>
</g>
<!-- roadPassibility -->
<g id="node3" class="node">
<title>roadPassibility</title>
<polygon fill="none" stroke="#3b82f6" points="42,-631 42,-653 238,-653 238,-631 42,-631"/>
<text text-anchor="start" x="108.12" y="-638.5" font-family="Arial" font-size="10.00">roadPassibility</text>
<polygon fill="none" stroke="#3b82f6" points="42,-611 42,-631 102,-631 102,-611 42,-611"/>
<text text-anchor="start" x="50.75" y="-617.7" font-family="Arial" font-size="9.00">Impassable</text>
<polygon fill="white" stroke="none" points="102,-611 102,-631 194,-631 194,-611 102,-611"/>
<polygon fill="none" stroke="#3b82f6" points="102,-611 102,-631 194,-631 194,-611 102,-611"/>
<polygon fill="#f3f4f6" stroke="none" points="106,-615 106,-627 190,-627 190,-615 106,-615"/>
<polygon fill="#4ade80" stroke="none" points="108,-617 108,-625 188,-625 188,-617 108,-617"/>
<polygon fill="none" stroke="#3b82f6" points="194,-611 194,-631 238,-631 238,-611 194,-611"/>
<text text-anchor="start" x="197.62" y="-617.7" font-family="Arial" font-size="9.00">100.00%</text>
<polygon fill="none" stroke="#3b82f6" points="42,-591 42,-611 102,-611 102,-591 42,-591"/>
<text text-anchor="start" x="59.75" y="-597.7" font-family="Arial" font-size="9.00">Passable</text>
<polygon fill="white" stroke="none" points="102,-591 102,-611 194,-611 194,-591 102,-591"/>
<polygon fill="none" stroke="#3b82f6" points="102,-591 102,-611 194,-611 194,-591 102,-591"/>
<polygon fill="#f3f4f6" stroke="none" points="106,-595 106,-607 190,-607 190,-595 106,-595"/>
<polygon fill="#f3f4f6" stroke="none" points="108,-597 108,-605 188,-605 188,-597 108,-597"/>
<polygon fill="none" stroke="#3b82f6" points="194,-591 194,-611 238,-611 238,-591 194,-591"/>
<text text-anchor="start" x="207.75" y="-597.7" font-family="Arial" font-size="9.00">0.00%</text>
</g>
<!-- AbsorptionCapacity -->
<g id="node12" class="node">
<title>AbsorptionCapacity</title>
<polygon fill="none" stroke="black" points="294.5,-594 294.5,-616 484.5,-616 484.5,-594 294.5,-594"/>
<text text-anchor="start" x="346.75" y="-601.5" font-family="Arial" font-size="10.00">AbsorptionCapacity</text>
<polygon fill="none" stroke="black" points="294.5,-574 294.5,-594 354.5,-594 354.5,-574 294.5,-574"/>
<text text-anchor="start" x="328" y="-580.7" font-family="Arial" font-size="9.00">Good</text>
<polygon fill="white" stroke="none" points="354.5,-574 354.5,-594 445.5,-594 445.5,-574 354.5,-574"/>
<polygon fill="none" stroke="black" points="354.5,-574 354.5,-594 445.5,-594 445.5,-574 354.5,-574"/>
<polygon fill="#f3f4f6" stroke="none" points="358.5,-578 358.5,-590 441.5,-590 441.5,-578 358.5,-578"/>
<polygon fill="#4ade80" stroke="none" points="360.5,-580 360.5,-588 419.5,-588 419.5,-580 360.5,-580"/>
<polygon fill="#f3f4f6" stroke="none" points="419.5,-580 419.5,-588 439.5,-588 439.5,-580 419.5,-580"/>
<polygon fill="none" stroke="black" points="445.5,-574 445.5,-594 484.5,-594 484.5,-574 445.5,-574"/>
<text text-anchor="start" x="449.25" y="-580.7" font-family="Arial" font-size="9.00">74.76%</text>
<polygon fill="none" stroke="black" points="294.5,-554 294.5,-574 354.5,-574 354.5,-554 294.5,-554"/>
<text text-anchor="start" x="334" y="-560.7" font-family="Arial" font-size="9.00">Bad</text>
<polygon fill="white" stroke="none" points="354.5,-554 354.5,-574 445.5,-574 445.5,-554 354.5,-554"/>
<polygon fill="none" stroke="black" points="354.5,-554 354.5,-574 445.5,-574 445.5,-554 354.5,-554"/>
<polygon fill="#f3f4f6" stroke="none" points="358.5,-558 358.5,-570 441.5,-570 441.5,-558 358.5,-558"/>
<polygon fill="#4ade80" stroke="none" points="360.5,-560 360.5,-568 380.5,-568 380.5,-560 360.5,-560"/>
<polygon fill="#f3f4f6" stroke="none" points="380.5,-560 380.5,-568 439.5,-568 439.5,-560 380.5,-560"/>
<polygon fill="none" stroke="black" points="445.5,-554 445.5,-574 484.5,-574 484.5,-554 445.5,-554"/>
<text text-anchor="start" x="449.25" y="-560.7" font-family="Arial" font-size="9.00">25.24%</text>
</g>
<!-- roadPassibility&#45;&gt;AbsorptionCapacity -->
<g id="edge3" class="edge">
<title>roadPassibility&#45;&gt;AbsorptionCapacity</title>
<path fill="none" stroke="#64748b" stroke-width="0.8" d="M237.89,-603.5C237.89,-603.5 283.54,-603.5 283.54,-603.5"/>
<polygon fill="#64748b" stroke="#64748b" stroke-width="0.8" points="283.54,-607 293.54,-603.5 283.54,-600 283.54,-607"/>
</g>
<!-- roadLoss -->
<g id="node4" class="node">
<title>roadLoss</title>
<polygon fill="none" stroke="#3b82f6" points="42,-558 42,-580 238,-580 238,-558 42,-558"/>
<text text-anchor="start" x="120.12" y="-565.5" font-family="Arial" font-size="10.00">roadLoss</text>
<polygon fill="none" stroke="#3b82f6" points="42,-538 42,-558 102,-558 102,-538 42,-538"/>
<text text-anchor="start" x="59" y="-544.7" font-family="Arial" font-size="9.00">Not_Loss</text>
<polygon fill="white" stroke="none" points="102,-538 102,-558 194,-558 194,-538 102,-538"/>
<polygon fill="none" stroke="#3b82f6" points="102,-538 102,-558 194,-558 194,-538 102,-538"/>
<polygon fill="#f3f4f6" stroke="none" points="106,-542 106,-554 190,-554 190,-542 106,-542"/>
<polygon fill="#4ade80" stroke="none" points="108,-544 108,-552 188,-552 188,-544 108,-544"/>
<polygon fill="none" stroke="#3b82f6" points="194,-538 194,-558 238,-558 238,-538 194,-538"/>
<text text-anchor="start" x="197.62" y="-544.7" font-family="Arial" font-size="9.00">100.00%</text>
<polygon fill="none" stroke="#3b82f6" points="42,-518 42,-538 102,-538 102,-518 42,-518"/>
<text text-anchor="start" x="78.5" y="-524.7" font-family="Arial" font-size="9.00">Loss</text>
<polygon fill="white" stroke="none" points="102,-518 102,-538 194,-538 194,-518 102,-518"/>
<polygon fill="none" stroke="#3b82f6" points="102,-518 102,-538 194,-538 194,-518 102,-518"/>
<polygon fill="#f3f4f6" stroke="none" points="106,-522 106,-534 190,-534 190,-522 106,-522"/>
<polygon fill="#f3f4f6" stroke="none" points="108,-524 108,-532 188,-532 188,-524 108,-524"/>
<polygon fill="none" stroke="#3b82f6" points="194,-518 194,-538 238,-538 238,-518 194,-518"/>
<text text-anchor="start" x="207.75" y="-524.7" font-family="Arial" font-size="9.00">0.00%</text>
</g>
<!-- roadLoss&#45;&gt;AbsorptionCapacity -->
<g id="edge1" class="edge">
<title>roadLoss&#45;&gt;AbsorptionCapacity</title>
<path fill="none" stroke="#64748b" stroke-width="0.8" d="M237.89,-567C237.89,-567 283.54,-567 283.54,-567"/>
<polygon fill="#64748b" stroke="#64748b" stroke-width="0.8" points="283.54,-570.5 293.54,-567 283.54,-563.5 283.54,-570.5"/>
</g>
<!-- AidResource -->
<g id="node5" class="node">
<title>AidResource</title>
<polygon fill="none" stroke="#3b82f6" points="42,-485 42,-507 238,-507 238,-485 42,-485"/>
<text text-anchor="start" x="111.88" y="-492.5" font-family="Arial" font-size="10.00">AidResource</text>
<polygon fill="none" stroke="#3b82f6" points="42,-465 42,-485 102,-485 102,-465 42,-465"/>
<text text-anchor="start" x="56.75" y="-471.7" font-family="Arial" font-size="9.00">Not_Used</text>
<polygon fill="white" stroke="none" points="102,-465 102,-485 194,-485 194,-465 102,-465"/>
<polygon fill="none" stroke="#3b82f6" points="102,-465 102,-485 194,-485 194,-465 102,-465"/>
<polygon fill="#f3f4f6" stroke="none" points="106,-469 106,-481 190,-481 190,-469 106,-469"/>
<polygon fill="#f3f4f6" stroke="none" points="108,-471 108,-479 188,-479 188,-471 108,-471"/>
<polygon fill="none" stroke="#3b82f6" points="194,-465 194,-485 238,-485 238,-465 194,-465"/>
<text text-anchor="start" x="207.75" y="-471.7" font-family="Arial" font-size="9.00">0.00%</text>
<polygon fill="none" stroke="#3b82f6" points="42,-445 42,-465 102,-465 102,-445 42,-445"/>
<text text-anchor="start" x="76.25" y="-451.7" font-family="Arial" font-size="9.00">Used</text>
<polygon fill="white" stroke="none" points="102,-445 102,-465 194,-465 194,-445 102,-445"/>
<polygon fill="none" stroke="#3b82f6" points="102,-445 102,-465 194,-465 194,-445 102,-445"/>
<polygon fill="#f3f4f6" stroke="none" points="106,-449 106,-461 190,-461 190,-449 106,-449"/>
<polygon fill="#4ade80" stroke="none" points="108,-451 108,-459 188,-459 188,-451 108,-451"/>
<polygon fill="none" stroke="#3b82f6" points="194,-445 194,-465 238,-465 238,-445 194,-445"/>
<text text-anchor="start" x="197.62" y="-451.7" font-family="Arial" font-size="9.00">100.00%</text>
</g>
<!-- RecoveryCapacity -->
<g id="node14" class="node">
<title>RecoveryCapacity</title>
<polygon fill="none" stroke="black" points="294,-339 294,-361 485,-361 485,-339 294,-339"/>
<text text-anchor="start" x="349" y="-346.5" font-family="Arial" font-size="10.00">RecoveryCapacity</text>
<polygon fill="none" stroke="black" points="294,-319 294,-339 354,-339 354,-319 294,-319"/>
<text text-anchor="start" x="327.5" y="-325.7" font-family="Arial" font-size="9.00">Good</text>
<polygon fill="white" stroke="none" points="354,-319 354,-339 446,-339 446,-319 354,-319"/>
<polygon fill="none" stroke="black" points="354,-319 354,-339 446,-339 446,-319 354,-319"/>
<polygon fill="#f3f4f6" stroke="none" points="358,-323 358,-335 442,-335 442,-323 358,-323"/>
<polygon fill="#4ade80" stroke="none" points="360,-325 360,-333 400,-333 400,-325 360,-325"/>
<polygon fill="#f3f4f6" stroke="none" points="400,-325 400,-333 440,-333 440,-325 400,-325"/>
<polygon fill="none" stroke="black" points="446,-319 446,-339 485,-339 485,-319 446,-319"/>
<text text-anchor="start" x="449.75" y="-325.7" font-family="Arial" font-size="9.00">50.00%</text>
<polygon fill="none" stroke="black" points="294,-299 294,-319 354,-319 354,-299 294,-299"/>
<text text-anchor="start" x="333.5" y="-305.7" font-family="Arial" font-size="9.00">Bad</text>
<polygon fill="white" stroke="none" points="354,-299 354,-319 446,-319 446,-299 354,-299"/>
<polygon fill="none" stroke="black" points="354,-299 354,-319 446,-319 446,-299 354,-299"/>
<polygon fill="#f3f4f6" stroke="none" points="358,-303 358,-315 442,-315 442,-303 358,-303"/>
<polygon fill="#4ade80" stroke="none" points="360,-305 360,-313 400,-313 400,-305 360,-305"/>
<polygon fill="#f3f4f6" stroke="none" points="400,-305 400,-313 440,-313 440,-305 400,-305"/>
<polygon fill="none" stroke="black" points="446,-299 446,-319 485,-319 485,-299 446,-299"/>
<text text-anchor="start" x="449.75" y="-305.7" font-family="Arial" font-size="9.00">50.00%</text>
</g>
<!-- AidResource&#45;&gt;RecoveryCapacity -->
<g id="edge10" class="edge">
<title>AidResource&#45;&gt;RecoveryCapacity</title>
<path fill="none" stroke="#64748b" stroke-width="0.8" d="M237.94,-476C319.09,-476 421.17,-476 421.17,-476 421.17,-476 421.17,-372.17 421.17,-372.17"/>
<polygon fill="#64748b" stroke="#64748b" stroke-width="0.8" points="424.67,-372.17 421.17,-362.17 417.67,-372.17 424.67,-372.17"/>
</g>
<!-- TowResource -->
<g id="node6" class="node">
<title>TowResource</title>
<polygon fill="none" stroke="#3b82f6" points="42,-412 42,-434 238,-434 238,-412 42,-412"/>
<text text-anchor="start" x="110" y="-419.5" font-family="Arial" font-size="10.00">TowResource</text>
<polygon fill="none" stroke="#3b82f6" points="42,-392 42,-412 102,-412 102,-392 42,-392"/>
<text text-anchor="start" x="56.75" y="-398.7" font-family="Arial" font-size="9.00">Not_Used</text>
<polygon fill="white" stroke="none" points="102,-392 102,-412 194,-412 194,-392 102,-392"/>
<polygon fill="none" stroke="#3b82f6" points="102,-392 102,-412 194,-412 194,-392 102,-392"/>
<polygon fill="#f3f4f6" stroke="none" points="106,-396 106,-408 190,-408 190,-396 106,-396"/>
<polygon fill="#f3f4f6" stroke="none" points="108,-398 108,-406 188,-406 188,-398 108,-398"/>
<polygon fill="none" stroke="#3b82f6" points="194,-392 194,-412 238,-412 238,-392 194,-392"/>
<text text-anchor="start" x="207.75" y="-398.7" font-family="Arial" font-size="9.00">0.00%</text>
<polygon fill="none" stroke="#3b82f6" points="42,-372 42,-392 102,-392 102,-372 42,-372"/>
<text text-anchor="start" x="76.25" y="-378.7" font-family="Arial" font-size="9.00">Used</text>
<polygon fill="white" stroke="none" points="102,-372 102,-392 194,-392 194,-372 102,-372"/>
<polygon fill="none" stroke="#3b82f6" points="102,-372 102,-392 194,-392 194,-372 102,-372"/>
<polygon fill="#f3f4f6" stroke="none" points="106,-376 106,-388 190,-388 190,-376 106,-376"/>
<polygon fill="#4ade80" stroke="none" points="108,-378 108,-386 188,-386 188,-378 108,-378"/>
<polygon fill="none" stroke="#3b82f6" points="194,-372 194,-392 238,-392 238,-372 194,-372"/>
<text text-anchor="start" x="197.62" y="-378.7" font-family="Arial" font-size="9.00">100.00%</text>
</g>
<!-- TowResource&#45;&gt;RecoveryCapacity -->
<g id="edge2" class="edge">
<title>TowResource&#45;&gt;RecoveryCapacity</title>
<path fill="none" stroke="#64748b" stroke-width="0.8" d="M237.77,-403C295.68,-403 357.83,-403 357.83,-403 357.83,-403 357.83,-372.17 357.83,-372.17"/>
<polygon fill="#64748b" stroke="#64748b" stroke-width="0.8" points="361.33,-372.17 357.83,-362.17 354.33,-372.17 361.33,-372.17"/>
</g>
<!-- FirefightingResource -->
<g id="node7" class="node">
<title>FirefightingResource</title>
<polygon fill="none" stroke="#3b82f6" points="42,-339 42,-361 238,-361 238,-339 42,-339"/>
<text text-anchor="start" x="95" y="-346.5" font-family="Arial" font-size="10.00">FirefightingResource</text>
<polygon fill="none" stroke="#3b82f6" points="42,-319 42,-339 102,-339 102,-319 42,-319"/>
<text text-anchor="start" x="56.75" y="-325.7" font-family="Arial" font-size="9.00">Not_Used</text>
<polygon fill="white" stroke="none" points="102,-319 102,-339 194,-339 194,-319 102,-319"/>
<polygon fill="none" stroke="#3b82f6" points="102,-319 102,-339 194,-339 194,-319 102,-319"/>
<polygon fill="#f3f4f6" stroke="none" points="106,-323 106,-335 190,-335 190,-323 106,-323"/>
<polygon fill="#f3f4f6" stroke="none" points="108,-325 108,-333 188,-333 188,-325 108,-325"/>
<polygon fill="none" stroke="#3b82f6" points="194,-319 194,-339 238,-339 238,-319 194,-319"/>
<text text-anchor="start" x="207.75" y="-325.7" font-family="Arial" font-size="9.00">0.00%</text>
<polygon fill="none" stroke="#3b82f6" points="42,-299 42,-319 102,-319 102,-299 42,-299"/>
<text text-anchor="start" x="76.25" y="-305.7" font-family="Arial" font-size="9.00">Used</text>
<polygon fill="white" stroke="none" points="102,-299 102,-319 194,-319 194,-299 102,-299"/>
<polygon fill="none" stroke="#3b82f6" points="102,-299 102,-319 194,-319 194,-299 102,-299"/>
<polygon fill="#f3f4f6" stroke="none" points="106,-303 106,-315 190,-315 190,-303 106,-303"/>
<polygon fill="#4ade80" stroke="none" points="108,-305 108,-313 188,-313 188,-305 108,-305"/>
<polygon fill="none" stroke="#3b82f6" points="194,-299 194,-319 238,-319 238,-299 194,-299"/>
<text text-anchor="start" x="197.62" y="-305.7" font-family="Arial" font-size="9.00">100.00%</text>
</g>
<!-- FirefightingResource&#45;&gt;RecoveryCapacity -->
<g id="edge12" class="edge">
<title>FirefightingResource&#45;&gt;RecoveryCapacity</title>
<path fill="none" stroke="#64748b" stroke-width="0.8" d="M237.89,-330C237.89,-330 283.13,-330 283.13,-330"/>
<polygon fill="#64748b" stroke="#64748b" stroke-width="0.8" points="283.13,-333.5 293.13,-330 283.13,-326.5 283.13,-333.5"/>
</g>
<!-- RescueResource -->
<g id="node8" class="node">
<title>RescueResource</title>
<polygon fill="none" stroke="#3b82f6" points="42,-266 42,-288 238,-288 238,-266 42,-266"/>
<text text-anchor="start" x="102.12" y="-273.5" font-family="Arial" font-size="10.00">RescueResource</text>
<polygon fill="none" stroke="#3b82f6" points="42,-246 42,-266 102,-266 102,-246 42,-246"/>
<text text-anchor="start" x="56.75" y="-252.7" font-family="Arial" font-size="9.00">Not_Used</text>
<polygon fill="white" stroke="none" points="102,-246 102,-266 194,-266 194,-246 102,-246"/>
<polygon fill="none" stroke="#3b82f6" points="102,-246 102,-266 194,-266 194,-246 102,-246"/>
<polygon fill="#f3f4f6" stroke="none" points="106,-250 106,-262 190,-262 190,-250 106,-250"/>
<polygon fill="#f3f4f6" stroke="none" points="108,-252 108,-260 188,-260 188,-252 108,-252"/>
<polygon fill="none" stroke="#3b82f6" points="194,-246 194,-266 238,-266 238,-246 194,-246"/>
<text text-anchor="start" x="207.75" y="-252.7" font-family="Arial" font-size="9.00">0.00%</text>
<polygon fill="none" stroke="#3b82f6" points="42,-226 42,-246 102,-246 102,-226 42,-226"/>
<text text-anchor="start" x="76.25" y="-232.7" font-family="Arial" font-size="9.00">Used</text>
<polygon fill="white" stroke="none" points="102,-226 102,-246 194,-246 194,-226 102,-226"/>
<polygon fill="none" stroke="#3b82f6" points="102,-226 102,-246 194,-246 194,-226 102,-226"/>
<polygon fill="#f3f4f6" stroke="none" points="106,-230 106,-242 190,-242 190,-230 106,-230"/>
<polygon fill="#4ade80" stroke="none" points="108,-232 108,-240 188,-240 188,-232 108,-232"/>
<polygon fill="none" stroke="#3b82f6" points="194,-226 194,-246 238,-246 238,-226 194,-226"/>
<text text-anchor="start" x="197.62" y="-232.7" font-family="Arial" font-size="9.00">100.00%</text>
</g>
<!-- RescueResource&#45;&gt;RecoveryCapacity -->
<g id="edge4" class="edge">
<title>RescueResource&#45;&gt;RecoveryCapacity</title>
<path fill="none" stroke="#64748b" stroke-width="0.8" d="M237.92,-257C289.32,-257 341.75,-257 341.75,-257 341.75,-257 341.75,-287.83 341.75,-287.83"/>
<polygon fill="#64748b" stroke="#64748b" stroke-width="0.8" points="338.25,-287.83 341.75,-297.83 345.25,-287.83 338.25,-287.83"/>
</g>
<!-- disposalDuration -->
<g id="node9" class="node">
<title>disposalDuration</title>
<polygon fill="none" stroke="#3b82f6" points="42,-193 42,-215 238,-215 238,-193 42,-193"/>
<text text-anchor="start" x="103.62" y="-200.5" font-family="Arial" font-size="10.00">disposalDuration</text>
<polygon fill="none" stroke="#3b82f6" points="42,-173 42,-193 102,-193 102,-173 42,-173"/>
<text text-anchor="start" x="64.25" y="-179.7" font-family="Arial" font-size="9.00">0&#45;15min</text>
<polygon fill="white" stroke="none" points="102,-173 102,-193 194,-193 194,-173 102,-173"/>
<polygon fill="none" stroke="#3b82f6" points="102,-173 102,-193 194,-193 194,-173 102,-173"/>
<polygon fill="#f3f4f6" stroke="none" points="106,-177 106,-189 190,-189 190,-177 106,-177"/>
<polygon fill="#f3f4f6" stroke="none" points="108,-179 108,-187 188,-187 188,-179 108,-179"/>
<polygon fill="none" stroke="#3b82f6" points="194,-173 194,-193 238,-193 238,-173 194,-173"/>
<text text-anchor="start" x="207.75" y="-179.7" font-family="Arial" font-size="9.00">0.00%</text>
<polygon fill="none" stroke="#3b82f6" points="42,-153 42,-173 102,-173 102,-153 42,-153"/>
<text text-anchor="start" x="59" y="-159.7" font-family="Arial" font-size="9.00">15&#45;30min</text>
<polygon fill="white" stroke="none" points="102,-153 102,-173 194,-173 194,-153 102,-153"/>
<polygon fill="none" stroke="#3b82f6" points="102,-153 102,-173 194,-173 194,-153 102,-153"/>
<polygon fill="#f3f4f6" stroke="none" points="106,-157 106,-169 190,-169 190,-157 106,-157"/>
<polygon fill="#f3f4f6" stroke="none" points="108,-159 108,-167 188,-167 188,-159 108,-159"/>
<polygon fill="none" stroke="#3b82f6" points="194,-153 194,-173 238,-173 238,-153 194,-153"/>
<text text-anchor="start" x="207.75" y="-159.7" font-family="Arial" font-size="9.00">0.00%</text>
<polygon fill="none" stroke="#3b82f6" points="42,-133 42,-153 102,-153 102,-133 42,-133"/>
<text text-anchor="start" x="59" y="-139.7" font-family="Arial" font-size="9.00">30&#45;60min</text>
<polygon fill="white" stroke="none" points="102,-133 102,-153 194,-153 194,-133 102,-133"/>
<polygon fill="none" stroke="#3b82f6" points="102,-133 102,-153 194,-153 194,-133 102,-133"/>
<polygon fill="#f3f4f6" stroke="none" points="106,-137 106,-149 190,-149 190,-137 106,-137"/>
<polygon fill="#f3f4f6" stroke="none" points="108,-139 108,-147 188,-147 188,-139 108,-139"/>
<polygon fill="none" stroke="#3b82f6" points="194,-133 194,-153 238,-153 238,-133 194,-133"/>
<text text-anchor="start" x="207.75" y="-139.7" font-family="Arial" font-size="9.00">0.00%</text>
<polygon fill="none" stroke="#3b82f6" points="42,-113 42,-133 102,-133 102,-113 42,-113"/>
<text text-anchor="start" x="67.25" y="-119.7" font-family="Arial" font-size="9.00">60min+</text>
<polygon fill="white" stroke="none" points="102,-113 102,-133 194,-133 194,-113 102,-113"/>
<polygon fill="none" stroke="#3b82f6" points="102,-113 102,-133 194,-133 194,-113 102,-113"/>
<polygon fill="#f3f4f6" stroke="none" points="106,-117 106,-129 190,-129 190,-117 106,-117"/>
<polygon fill="#4ade80" stroke="none" points="108,-119 108,-127 188,-127 188,-119 108,-119"/>
<polygon fill="none" stroke="#3b82f6" points="194,-113 194,-133 238,-133 238,-113 194,-113"/>
<text text-anchor="start" x="197.62" y="-119.7" font-family="Arial" font-size="9.00">100.00%</text>
</g>
<!-- disposalDuration&#45;&gt;RecoveryCapacity -->
<g id="edge8" class="edge">
<title>disposalDuration&#45;&gt;RecoveryCapacity</title>
<path fill="none" stroke="#64748b" stroke-width="0.8" d="M237.89,-164C307.79,-164 389.5,-164 389.5,-164 389.5,-164 389.5,-287.95 389.5,-287.95"/>
<polygon fill="#64748b" stroke="#64748b" stroke-width="0.8" points="386,-287.95 389.5,-297.95 393,-287.95 386,-287.95"/>
</g>
<!-- emergencyPeriod -->
<g id="node10" class="node">
<title>emergencyPeriod</title>
<polygon fill="none" stroke="black" points="41,-744 41,-766 239,-766 239,-744 41,-744"/>
<text text-anchor="start" x="102.12" y="-751.5" font-family="Arial" font-size="10.00">emergencyPeriod</text>
<polygon fill="none" stroke="black" points="41,-724 41,-744 109,-744 109,-724 41,-724"/>
<text text-anchor="start" x="45" y="-730.7" font-family="Arial" font-size="9.00">Early_Morning</text>
<polygon fill="white" stroke="none" points="109,-724 109,-744 200,-744 200,-724 109,-724"/>
<polygon fill="none" stroke="black" points="109,-724 109,-744 200,-744 200,-724 109,-724"/>
<polygon fill="#f3f4f6" stroke="none" points="113,-728 113,-740 196,-740 196,-728 113,-728"/>
<polygon fill="#4ade80" stroke="none" points="115,-730 115,-738 136,-738 136,-730 115,-730"/>
<polygon fill="#f3f4f6" stroke="none" points="136,-730 136,-738 194,-738 194,-730 136,-730"/>
<polygon fill="none" stroke="black" points="200,-724 200,-744 239,-744 239,-724 200,-724"/>
<text text-anchor="start" x="203.75" y="-730.7" font-family="Arial" font-size="9.00">27.36%</text>
<polygon fill="none" stroke="black" points="41,-704 41,-724 109,-724 109,-704 41,-704"/>
<text text-anchor="start" x="71.25" y="-710.7" font-family="Arial" font-size="9.00">Morning</text>
<polygon fill="white" stroke="none" points="109,-704 109,-724 200,-724 200,-704 109,-704"/>
<polygon fill="none" stroke="black" points="109,-704 109,-724 200,-724 200,-704 109,-704"/>
<polygon fill="#f3f4f6" stroke="none" points="113,-708 113,-720 196,-720 196,-708 113,-708"/>
<polygon fill="#4ade80" stroke="none" points="115,-710 115,-718 134,-718 134,-710 115,-710"/>
<polygon fill="#f3f4f6" stroke="none" points="134,-710 134,-718 194,-718 194,-710 134,-710"/>
<polygon fill="none" stroke="black" points="200,-704 200,-724 239,-724 239,-704 200,-704"/>
<text text-anchor="start" x="203.75" y="-710.7" font-family="Arial" font-size="9.00">24.95%</text>
<polygon fill="none" stroke="black" points="41,-684 41,-704 109,-704 109,-684 41,-684"/>
<text text-anchor="start" x="65.25" y="-690.7" font-family="Arial" font-size="9.00">Afternoon</text>
<polygon fill="white" stroke="none" points="109,-684 109,-704 200,-704 200,-684 109,-684"/>
<polygon fill="none" stroke="black" points="109,-684 109,-704 200,-704 200,-684 109,-684"/>
<polygon fill="#f3f4f6" stroke="none" points="113,-688 113,-700 196,-700 196,-688 113,-688"/>
<polygon fill="#4ade80" stroke="none" points="115,-690 115,-698 134,-698 134,-690 115,-690"/>
<polygon fill="#f3f4f6" stroke="none" points="134,-690 134,-698 194,-698 194,-690 134,-690"/>
<polygon fill="none" stroke="black" points="200,-684 200,-704 239,-704 239,-684 200,-684"/>
<text text-anchor="start" x="203.75" y="-690.7" font-family="Arial" font-size="9.00">24.14%</text>
<polygon fill="none" stroke="black" points="41,-664 41,-684 109,-684 109,-664 41,-664"/>
<text text-anchor="start" x="71.25" y="-670.7" font-family="Arial" font-size="9.00">Evening</text>
<polygon fill="white" stroke="none" points="109,-664 109,-684 200,-684 200,-664 109,-664"/>
<polygon fill="none" stroke="black" points="109,-664 109,-684 200,-684 200,-664 109,-664"/>
<polygon fill="#f3f4f6" stroke="none" points="113,-668 113,-680 196,-680 196,-668 113,-668"/>
<polygon fill="#4ade80" stroke="none" points="115,-670 115,-678 133,-678 133,-670 115,-670"/>
<polygon fill="#f3f4f6" stroke="none" points="133,-670 133,-678 194,-678 194,-670 133,-670"/>
<polygon fill="none" stroke="black" points="200,-664 200,-684 239,-684 239,-664 200,-664"/>
<text text-anchor="start" x="203.75" y="-670.7" font-family="Arial" font-size="9.00">23.54%</text>
</g>
<!-- emergencyPeriod&#45;&gt;AdaptionCapacity -->
<g id="edge9" class="edge">
<title>emergencyPeriod&#45;&gt;AdaptionCapacity</title>
<path fill="none" stroke="#64748b" stroke-width="0.8" d="M238.97,-750.5C238.97,-750.5 283.51,-750.5 283.51,-750.5"/>
<polygon fill="#64748b" stroke="#64748b" stroke-width="0.8" points="283.51,-754 293.51,-750.5 283.51,-747 283.51,-754"/>
</g>
<!-- responseDuration -->
<g id="node11" class="node">
<title>responseDuration</title>
<polygon fill="none" stroke="black" points="44.5,-80 44.5,-102 235.5,-102 235.5,-80 44.5,-80"/>
<text text-anchor="start" x="101.75" y="-87.5" font-family="Arial" font-size="10.00">responseDuration</text>
<polygon fill="none" stroke="black" points="44.5,-60 44.5,-80 104.5,-80 104.5,-60 44.5,-60"/>
<text text-anchor="start" x="66.75" y="-66.7" font-family="Arial" font-size="9.00">0&#45;15min</text>
<polygon fill="white" stroke="none" points="104.5,-60 104.5,-80 196.5,-80 196.5,-60 104.5,-60"/>
<polygon fill="none" stroke="black" points="104.5,-60 104.5,-80 196.5,-80 196.5,-60 104.5,-60"/>
<polygon fill="#f3f4f6" stroke="none" points="108.5,-64 108.5,-76 192.5,-76 192.5,-64 108.5,-64"/>
<polygon fill="#4ade80" stroke="none" points="110.5,-66 110.5,-74 174,-74 174,-66 110.5,-66"/>
<polygon fill="#f3f4f6" stroke="none" points="174,-66 174,-74 190.5,-74 190.5,-66 174,-66"/>
<polygon fill="none" stroke="black" points="196.5,-60 196.5,-80 235.5,-80 235.5,-60 196.5,-60"/>
<text text-anchor="start" x="200.25" y="-66.7" font-family="Arial" font-size="9.00">79.68%</text>
<polygon fill="none" stroke="black" points="44.5,-40 44.5,-60 104.5,-60 104.5,-40 44.5,-40"/>
<text text-anchor="start" x="61.5" y="-46.7" font-family="Arial" font-size="9.00">15&#45;30min</text>
<polygon fill="white" stroke="none" points="104.5,-40 104.5,-60 196.5,-60 196.5,-40 104.5,-40"/>
<polygon fill="none" stroke="black" points="104.5,-40 104.5,-60 196.5,-60 196.5,-40 104.5,-40"/>
<polygon fill="#f3f4f6" stroke="none" points="108.5,-44 108.5,-56 192.5,-56 192.5,-44 108.5,-44"/>
<polygon fill="#4ade80" stroke="none" points="110.5,-46 110.5,-54 127,-54 127,-46 110.5,-46"/>
<polygon fill="#f3f4f6" stroke="none" points="127,-46 127,-54 190.5,-54 190.5,-46 127,-46"/>
<polygon fill="none" stroke="black" points="196.5,-40 196.5,-60 235.5,-60 235.5,-40 196.5,-40"/>
<text text-anchor="start" x="200.25" y="-46.7" font-family="Arial" font-size="9.00">20.32%</text>
<polygon fill="none" stroke="black" points="44.5,-20 44.5,-40 104.5,-40 104.5,-20 44.5,-20"/>
<text text-anchor="start" x="61.5" y="-26.7" font-family="Arial" font-size="9.00">30&#45;60min</text>
<polygon fill="white" stroke="none" points="104.5,-20 104.5,-40 196.5,-40 196.5,-20 104.5,-20"/>
<polygon fill="none" stroke="black" points="104.5,-20 104.5,-40 196.5,-40 196.5,-20 104.5,-20"/>
<polygon fill="#f3f4f6" stroke="none" points="108.5,-24 108.5,-36 192.5,-36 192.5,-24 108.5,-24"/>
<polygon fill="#f3f4f6" stroke="none" points="110.5,-26 110.5,-34 190.5,-34 190.5,-26 110.5,-26"/>
<polygon fill="none" stroke="black" points="196.5,-20 196.5,-40 235.5,-40 235.5,-20 196.5,-20"/>
<text text-anchor="start" x="205.25" y="-26.7" font-family="Arial" font-size="9.00">0.00%</text>
<polygon fill="none" stroke="black" points="44.5,0 44.5,-20 104.5,-20 104.5,0 44.5,0"/>
<text text-anchor="start" x="69.75" y="-6.7" font-family="Arial" font-size="9.00">60min+</text>
<polygon fill="white" stroke="none" points="104.5,0 104.5,-20 196.5,-20 196.5,0 104.5,0"/>
<polygon fill="none" stroke="black" points="104.5,0 104.5,-20 196.5,-20 196.5,0 104.5,0"/>
<polygon fill="#f3f4f6" stroke="none" points="108.5,-4 108.5,-16 192.5,-16 192.5,-4 108.5,-4"/>
<polygon fill="#f3f4f6" stroke="none" points="110.5,-6 110.5,-14 190.5,-14 190.5,-6 110.5,-6"/>
<polygon fill="none" stroke="black" points="196.5,0 196.5,-20 235.5,-20 235.5,0 196.5,0"/>
<text text-anchor="start" x="205.25" y="-6.7" font-family="Arial" font-size="9.00">0.00%</text>
</g>
<!-- responseDuration&#45;&gt;RecoveryCapacity -->
<g id="edge11" class="edge">
<title>responseDuration&#45;&gt;RecoveryCapacity</title>
<path fill="none" stroke="#64748b" stroke-width="0.8" d="M235.28,-51C322.22,-51 437.25,-51 437.25,-51 437.25,-51 437.25,-287.87 437.25,-287.87"/>
<polygon fill="#64748b" stroke="#64748b" stroke-width="0.8" points="433.75,-287.87 437.25,-297.87 440.75,-287.87 433.75,-287.87"/>
</g>
<!-- ScenarioResilience -->
<g id="node15" class="node">
<title>ScenarioResilience</title>
<polygon fill="none" stroke="black" points="499,-594 499,-616 689,-616 689,-594 499,-594"/>
<text text-anchor="start" x="552" y="-601.5" font-family="Arial" font-size="10.00">ScenarioResilience</text>
<polygon fill="none" stroke="black" points="499,-574 499,-594 559,-594 559,-574 499,-574"/>
<text text-anchor="start" x="532.5" y="-580.7" font-family="Arial" font-size="9.00">Good</text>
<polygon fill="white" stroke="none" points="559,-574 559,-594 650,-594 650,-574 559,-574"/>
<polygon fill="none" stroke="black" points="559,-574 559,-594 650,-594 650,-574 559,-574"/>
<polygon fill="#f3f4f6" stroke="none" points="563,-578 563,-590 646,-590 646,-578 563,-578"/>
<polygon fill="#4ade80" stroke="none" points="565,-580 565,-588 612,-588 612,-580 565,-580"/>
<polygon fill="#f3f4f6" stroke="none" points="612,-580 612,-588 644,-588 644,-580 612,-580"/>
<polygon fill="none" stroke="black" points="650,-574 650,-594 689,-594 689,-574 650,-574"/>
<text text-anchor="start" x="653.75" y="-580.7" font-family="Arial" font-size="9.00">59.27%</text>
<polygon fill="none" stroke="black" points="499,-554 499,-574 559,-574 559,-554 499,-554"/>
<text text-anchor="start" x="538.5" y="-560.7" font-family="Arial" font-size="9.00">Bad</text>
<polygon fill="white" stroke="none" points="559,-554 559,-574 650,-574 650,-554 559,-554"/>
<polygon fill="none" stroke="black" points="559,-554 559,-574 650,-574 650,-554 559,-554"/>
<polygon fill="#f3f4f6" stroke="none" points="563,-558 563,-570 646,-570 646,-558 563,-558"/>
<polygon fill="#4ade80" stroke="none" points="565,-560 565,-568 597,-568 597,-560 565,-560"/>
<polygon fill="#f3f4f6" stroke="none" points="597,-560 597,-568 644,-568 644,-560 597,-560"/>
<polygon fill="none" stroke="black" points="650,-554 650,-574 689,-574 689,-554 650,-554"/>
<text text-anchor="start" x="653.75" y="-560.7" font-family="Arial" font-size="9.00">40.73%</text>
</g>
<!-- AbsorptionCapacity&#45;&gt;ScenarioResilience -->
<g id="edge13" class="edge">
<title>AbsorptionCapacity&#45;&gt;ScenarioResilience</title>
<path fill="none" stroke="#64748b" stroke-width="0.8" d="M484.27,-585C484.27,-585 487.81,-585 487.81,-585"/>
<polygon fill="#64748b" stroke="#64748b" stroke-width="0.8" points="487.81,-588.5 497.81,-585 487.81,-581.5 487.81,-588.5"/>
</g>
<!-- AdaptionCapacity&#45;&gt;ScenarioResilience -->
<g id="edge5" class="edge">
<title>AdaptionCapacity&#45;&gt;ScenarioResilience</title>
<path fill="none" stroke="#64748b" stroke-width="0.8" d="M484.27,-766C537.76,-766 594,-766 594,-766 594,-766 594,-626.92 594,-626.92"/>
<polygon fill="#64748b" stroke="#64748b" stroke-width="0.8" points="597.5,-626.91 594,-616.92 590.5,-626.92 597.5,-626.91"/>
</g>
<!-- RecoveryCapacity&#45;&gt;ScenarioResilience -->
<g id="edge7" class="edge">
<title>RecoveryCapacity&#45;&gt;ScenarioResilience</title>
<path fill="none" stroke="#64748b" stroke-width="0.8" d="M484.86,-330C538.18,-330 594,-330 594,-330 594,-330 594,-543.03 594,-543.03"/>
<polygon fill="#64748b" stroke="#64748b" stroke-width="0.8" points="590.5,-543.03 594,-553.03 597.5,-543.03 590.5,-543.03"/>
</g>
</g>
</svg>
