<?xml version="1.0" encoding="UTF-8" standalone="no"?>
<!DOCTYPE svg PUBLIC "-//W3C//DTD SVG 1.1//EN"
 "http://www.w3.org/Graphics/SVG/1.1/DTD/svg11.dtd">
<!-- Generated by graphviz version 12.1.2 (20240928.0832)
 -->
<!-- Pages: 1 -->
<svg width="696pt" height="939pt"
 viewBox="0.00 0.00 696.20 939.20" xmlns="http://www.w3.org/2000/svg" xmlns:xlink="http://www.w3.org/1999/xlink">
<g id="graph0" class="graph" transform="scale(1 1) rotate(0) translate(3.6 935.6)">
<polygon fill="white" stroke="none" points="-3.6,3.6 -3.6,-935.6 692.6,-935.6 692.6,3.6 -3.6,3.6"/>
<!-- roadPassibility -->
<g id="node1" class="node">
<title>roadPassibility</title>
<polygon fill="none" stroke="black" points="45,-910 45,-932 236,-932 236,-910 45,-910"/>
<text text-anchor="start" x="108.62" y="-917.5" font-family="Arial" font-size="10.00">roadPassibility</text>
<polygon fill="none" stroke="black" points="45,-890 45,-910 105,-910 105,-890 45,-890"/>
<text text-anchor="start" x="53.75" y="-896.7" font-family="Arial" font-size="9.00">Impassable</text>
<polygon fill="white" stroke="none" points="105,-890 105,-910 197,-910 197,-890 105,-890"/>
<polygon fill="none" stroke="black" points="105,-890 105,-910 197,-910 197,-890 105,-890"/>
<polygon fill="#f3f4f6" stroke="none" points="109,-894 109,-906 193,-906 193,-894 109,-894"/>
<polygon fill="#4ade80" stroke="none" points="111,-896 111,-904 112,-904 112,-896 111,-896"/>
<polygon fill="#f3f4f6" stroke="none" points="112,-896 112,-904 191,-904 191,-896 112,-896"/>
<polygon fill="none" stroke="black" points="197,-890 197,-910 236,-910 236,-890 197,-890"/>
<text text-anchor="start" x="205.75" y="-896.7" font-family="Arial" font-size="9.00">0.50%</text>
<polygon fill="none" stroke="black" points="45,-870 45,-890 105,-890 105,-870 45,-870"/>
<text text-anchor="start" x="62.75" y="-876.7" font-family="Arial" font-size="9.00">Passable</text>
<polygon fill="white" stroke="none" points="105,-870 105,-890 197,-890 197,-870 105,-870"/>
<polygon fill="none" stroke="black" points="105,-870 105,-890 197,-890 197,-870 105,-870"/>
<polygon fill="#f3f4f6" stroke="none" points="109,-874 109,-886 193,-886 193,-874 109,-874"/>
<polygon fill="#4ade80" stroke="none" points="111,-876 111,-884 190,-884 190,-876 111,-876"/>
<polygon fill="#f3f4f6" stroke="none" points="190,-876 190,-884 191,-884 191,-876 190,-876"/>
<polygon fill="none" stroke="black" points="197,-870 197,-890 236,-890 236,-870 197,-870"/>
<text text-anchor="start" x="200.75" y="-876.7" font-family="Arial" font-size="9.00">99.50%</text>
</g>
<!-- AbsorptionCapacity -->
<g id="node12" class="node">
<title>AbsorptionCapacity</title>
<polygon fill="none" stroke="black" points="295,-837 295,-859 485,-859 485,-837 295,-837"/>
<text text-anchor="start" x="347.25" y="-844.5" font-family="Arial" font-size="10.00">AbsorptionCapacity</text>
<polygon fill="none" stroke="black" points="295,-817 295,-837 355,-837 355,-817 295,-817"/>
<text text-anchor="start" x="328.5" y="-823.7" font-family="Arial" font-size="9.00">Good</text>
<polygon fill="white" stroke="none" points="355,-817 355,-837 446,-837 446,-817 355,-817"/>
<polygon fill="none" stroke="black" points="355,-817 355,-837 446,-837 446,-817 355,-817"/>
<polygon fill="#f3f4f6" stroke="none" points="359,-821 359,-833 442,-833 442,-821 359,-821"/>
<polygon fill="#4ade80" stroke="none" points="361,-823 361,-831 433,-831 433,-823 361,-823"/>
<polygon fill="#f3f4f6" stroke="none" points="433,-823 433,-831 440,-831 440,-823 433,-823"/>
<polygon fill="none" stroke="black" points="446,-817 446,-837 485,-837 485,-817 446,-817"/>
<text text-anchor="start" x="449.75" y="-823.7" font-family="Arial" font-size="9.00">90.87%</text>
<polygon fill="none" stroke="black" points="295,-797 295,-817 355,-817 355,-797 295,-797"/>
<text text-anchor="start" x="334.5" y="-803.7" font-family="Arial" font-size="9.00">Bad</text>
<polygon fill="white" stroke="none" points="355,-797 355,-817 446,-817 446,-797 355,-797"/>
<polygon fill="none" stroke="black" points="355,-797 355,-817 446,-817 446,-797 355,-797"/>
<polygon fill="#f3f4f6" stroke="none" points="359,-801 359,-813 442,-813 442,-801 359,-801"/>
<polygon fill="#4ade80" stroke="none" points="361,-803 361,-811 368,-811 368,-803 361,-803"/>
<polygon fill="#f3f4f6" stroke="none" points="368,-803 368,-811 440,-811 440,-803 368,-803"/>
<polygon fill="none" stroke="black" points="446,-797 446,-817 485,-817 485,-797 446,-797"/>
<text text-anchor="start" x="454.75" y="-803.7" font-family="Arial" font-size="9.00">9.13%</text>
</g>
<!-- roadPassibility&#45;&gt;AbsorptionCapacity -->
<g id="edge8" class="edge">
<title>roadPassibility&#45;&gt;AbsorptionCapacity</title>
<path fill="none" stroke="#64748b" stroke-width="0.8" d="M235.89,-901C306.33,-901 390,-901 390,-901 390,-901 390,-870.17 390,-870.17"/>
<polygon fill="#64748b" stroke="#64748b" stroke-width="0.8" points="393.5,-870.17 390,-860.17 386.5,-870.17 393.5,-870.17"/>
</g>
<!-- emergencyType -->
<g id="node2" class="node">
<title>emergencyType</title>
<polygon fill="none" stroke="black" points="0,-764 0,-786 281,-786 281,-764 0,-764"/>
<text text-anchor="start" x="106" y="-771.5" font-family="Arial" font-size="10.00">emergencyType</text>
<polygon fill="none" stroke="black" points="0,-744 0,-764 150,-764 150,-744 0,-744"/>
<text text-anchor="start" x="54.5" y="-750.7" font-family="Arial" font-size="9.00">Vehicle_Self_Accident</text>
<polygon fill="white" stroke="none" points="150,-744 150,-764 242,-764 242,-744 150,-744"/>
<polygon fill="none" stroke="black" points="150,-744 150,-764 242,-764 242,-744 150,-744"/>
<polygon fill="#f3f4f6" stroke="none" points="154,-748 154,-760 238,-760 238,-748 154,-748"/>
<polygon fill="#4ade80" stroke="none" points="156,-750 156,-758 186.5,-758 186.5,-750 156,-750"/>
<polygon fill="#f3f4f6" stroke="none" points="186.5,-750 186.5,-758 236,-758 236,-750 186.5,-750"/>
<polygon fill="none" stroke="black" points="242,-744 242,-764 281,-764 281,-744 242,-744"/>
<text text-anchor="start" x="245.75" y="-750.7" font-family="Arial" font-size="9.00">38.02%</text>
<polygon fill="none" stroke="black" points="0,-724 0,-744 150,-744 150,-724 0,-724"/>
<text text-anchor="start" x="3.75" y="-730.7" font-family="Arial" font-size="9.00">Vehicle_to_Fixed_Object_Accident</text>
<polygon fill="white" stroke="none" points="150,-724 150,-744 242,-744 242,-724 150,-724"/>
<polygon fill="none" stroke="black" points="150,-724 150,-744 242,-744 242,-724 150,-724"/>
<polygon fill="#f3f4f6" stroke="none" points="154,-728 154,-740 238,-740 238,-728 154,-728"/>
<polygon fill="#4ade80" stroke="none" points="156,-730 156,-738 157,-738 157,-730 156,-730"/>
<polygon fill="#f3f4f6" stroke="none" points="157,-730 157,-738 236,-738 236,-730 157,-730"/>
<polygon fill="none" stroke="black" points="242,-724 242,-744 281,-744 281,-724 242,-724"/>
<text text-anchor="start" x="250.75" y="-730.7" font-family="Arial" font-size="9.00">0.99%</text>
<polygon fill="none" stroke="black" points="0,-704 0,-724 150,-724 150,-704 0,-704"/>
<text text-anchor="start" x="69.5" y="-710.7" font-family="Arial" font-size="9.00">Collision_Accident</text>
<polygon fill="white" stroke="none" points="150,-704 150,-724 242,-724 242,-704 150,-704"/>
<polygon fill="none" stroke="black" points="150,-704 150,-724 242,-724 242,-704 150,-704"/>
<polygon fill="#f3f4f6" stroke="none" points="154,-708 154,-720 238,-720 238,-708 154,-708"/>
<polygon fill="#4ade80" stroke="none" points="156,-710 156,-718 204.5,-718 204.5,-710 156,-710"/>
<polygon fill="#f3f4f6" stroke="none" points="204.5,-710 204.5,-718 236,-718 236,-710 204.5,-710"/>
<polygon fill="none" stroke="black" points="242,-704 242,-724 281,-724 281,-704 242,-704"/>
<text text-anchor="start" x="245.75" y="-710.7" font-family="Arial" font-size="9.00">60.99%</text>
</g>
<!-- AdaptionCapacity -->
<g id="node13" class="node">
<title>AdaptionCapacity</title>
<polygon fill="none" stroke="black" points="295,-671 295,-693 485,-693 485,-671 295,-671"/>
<text text-anchor="start" x="351.38" y="-678.5" font-family="Arial" font-size="10.00">AdaptionCapacity</text>
<polygon fill="none" stroke="black" points="295,-651 295,-671 355,-671 355,-651 295,-651"/>
<text text-anchor="start" x="328.5" y="-657.7" font-family="Arial" font-size="9.00">Good</text>
<polygon fill="white" stroke="none" points="355,-651 355,-671 446,-671 446,-651 355,-651"/>
<polygon fill="none" stroke="black" points="355,-651 355,-671 446,-671 446,-651 355,-651"/>
<polygon fill="#f3f4f6" stroke="none" points="359,-655 359,-667 442,-667 442,-655 359,-655"/>
<polygon fill="#4ade80" stroke="none" points="361,-657 361,-665 382,-665 382,-657 361,-657"/>
<polygon fill="#f3f4f6" stroke="none" points="382,-657 382,-665 440,-665 440,-657 382,-657"/>
<polygon fill="none" stroke="black" points="446,-651 446,-671 485,-671 485,-651 446,-651"/>
<text text-anchor="start" x="449.75" y="-657.7" font-family="Arial" font-size="9.00">26.84%</text>
<polygon fill="none" stroke="black" points="295,-631 295,-651 355,-651 355,-631 295,-631"/>
<text text-anchor="start" x="334.5" y="-637.7" font-family="Arial" font-size="9.00">Bad</text>
<polygon fill="white" stroke="none" points="355,-631 355,-651 446,-651 446,-631 355,-631"/>
<polygon fill="none" stroke="black" points="355,-631 355,-651 446,-651 446,-631 355,-631"/>
<polygon fill="#f3f4f6" stroke="none" points="359,-635 359,-647 442,-647 442,-635 359,-635"/>
<polygon fill="#4ade80" stroke="none" points="361,-637 361,-645 419,-645 419,-637 361,-637"/>
<polygon fill="#f3f4f6" stroke="none" points="419,-637 419,-645 440,-645 440,-637 419,-637"/>
<polygon fill="none" stroke="black" points="446,-631 446,-651 485,-651 485,-631 446,-631"/>
<text text-anchor="start" x="449.75" y="-637.7" font-family="Arial" font-size="9.00">73.16%</text>
</g>
<!-- emergencyType&#45;&gt;AdaptionCapacity -->
<g id="edge1" class="edge">
<title>emergencyType&#45;&gt;AdaptionCapacity</title>
<path fill="none" stroke="#64748b" stroke-width="0.8" d="M260.25,-704.42C260.25,-687.77 260.25,-672.33 260.25,-672.33 260.25,-672.33 283.81,-672.33 283.81,-672.33"/>
<polygon fill="#64748b" stroke="#64748b" stroke-width="0.8" points="283.81,-675.83 293.81,-672.33 283.81,-668.83 283.81,-675.83"/>
</g>
<!-- roadLoss -->
<g id="node3" class="node">
<title>roadLoss</title>
<polygon fill="none" stroke="black" points="45.5,-837 45.5,-859 235.5,-859 235.5,-837 45.5,-837"/>
<text text-anchor="start" x="120.62" y="-844.5" font-family="Arial" font-size="10.00">roadLoss</text>
<polygon fill="none" stroke="black" points="45.5,-817 45.5,-837 105.5,-837 105.5,-817 45.5,-817"/>
<text text-anchor="start" x="62.5" y="-823.7" font-family="Arial" font-size="9.00">Not_Loss</text>
<polygon fill="white" stroke="none" points="105.5,-817 105.5,-837 196.5,-837 196.5,-817 105.5,-817"/>
<polygon fill="none" stroke="black" points="105.5,-817 105.5,-837 196.5,-837 196.5,-817 105.5,-817"/>
<polygon fill="#f3f4f6" stroke="none" points="109.5,-821 109.5,-833 192.5,-833 192.5,-821 109.5,-821"/>
<polygon fill="#4ade80" stroke="none" points="111.5,-823 111.5,-831 187.5,-831 187.5,-823 111.5,-823"/>
<polygon fill="#f3f4f6" stroke="none" points="187.5,-823 187.5,-831 190.5,-831 190.5,-823 187.5,-823"/>
<polygon fill="none" stroke="black" points="196.5,-817 196.5,-837 235.5,-837 235.5,-817 196.5,-817"/>
<text text-anchor="start" x="200.25" y="-823.7" font-family="Arial" font-size="9.00">95.35%</text>
<polygon fill="none" stroke="black" points="45.5,-797 45.5,-817 105.5,-817 105.5,-797 45.5,-797"/>
<text text-anchor="start" x="82" y="-803.7" font-family="Arial" font-size="9.00">Loss</text>
<polygon fill="white" stroke="none" points="105.5,-797 105.5,-817 196.5,-817 196.5,-797 105.5,-797"/>
<polygon fill="none" stroke="black" points="105.5,-797 105.5,-817 196.5,-817 196.5,-797 105.5,-797"/>
<polygon fill="#f3f4f6" stroke="none" points="109.5,-801 109.5,-813 192.5,-813 192.5,-801 109.5,-801"/>
<polygon fill="#4ade80" stroke="none" points="111.5,-803 111.5,-811 114.5,-811 114.5,-803 111.5,-803"/>
<polygon fill="#f3f4f6" stroke="none" points="114.5,-803 114.5,-811 190.5,-811 190.5,-803 114.5,-803"/>
<polygon fill="none" stroke="black" points="196.5,-797 196.5,-817 235.5,-817 235.5,-797 196.5,-797"/>
<text text-anchor="start" x="205.25" y="-803.7" font-family="Arial" font-size="9.00">4.65%</text>
</g>
<!-- roadLoss&#45;&gt;AbsorptionCapacity -->
<g id="edge13" class="edge">
<title>roadLoss&#45;&gt;AbsorptionCapacity</title>
<path fill="none" stroke="#64748b" stroke-width="0.8" d="M235.18,-828C235.18,-828 284.17,-828 284.17,-828"/>
<polygon fill="#64748b" stroke="#64748b" stroke-width="0.8" points="284.17,-831.5 294.17,-828 284.17,-824.5 284.17,-831.5"/>
</g>
<!-- casualties -->
<g id="node4" class="node">
<title>casualties</title>
<polygon fill="none" stroke="black" points="41.5,-671 41.5,-693 239.5,-693 239.5,-671 41.5,-671"/>
<text text-anchor="start" x="118.38" y="-678.5" font-family="Arial" font-size="10.00">casualties</text>
<polygon fill="none" stroke="black" points="41.5,-651 41.5,-671 109.5,-671 109.5,-651 41.5,-651"/>
<text text-anchor="start" x="45.12" y="-657.7" font-family="Arial" font-size="9.00">No_Casualties</text>
<polygon fill="white" stroke="none" points="109.5,-651 109.5,-671 200.5,-671 200.5,-651 109.5,-651"/>
<polygon fill="none" stroke="black" points="109.5,-651 109.5,-671 200.5,-671 200.5,-651 109.5,-651"/>
<polygon fill="#f3f4f6" stroke="none" points="113.5,-655 113.5,-667 196.5,-667 196.5,-655 113.5,-655"/>
<polygon fill="#4ade80" stroke="none" points="115.5,-657 115.5,-665 190.5,-665 190.5,-657 115.5,-657"/>
<polygon fill="#f3f4f6" stroke="none" points="190.5,-657 190.5,-665 194.5,-665 194.5,-657 190.5,-657"/>
<polygon fill="none" stroke="black" points="200.5,-651 200.5,-671 239.5,-671 239.5,-651 200.5,-651"/>
<text text-anchor="start" x="204.25" y="-657.7" font-family="Arial" font-size="9.00">94.06%</text>
<polygon fill="none" stroke="black" points="41.5,-631 41.5,-651 109.5,-651 109.5,-631 41.5,-631"/>
<text text-anchor="start" x="62" y="-637.7" font-family="Arial" font-size="9.00">Casualties</text>
<polygon fill="white" stroke="none" points="109.5,-631 109.5,-651 200.5,-651 200.5,-631 109.5,-631"/>
<polygon fill="none" stroke="black" points="109.5,-631 109.5,-651 200.5,-651 200.5,-631 109.5,-631"/>
<polygon fill="#f3f4f6" stroke="none" points="113.5,-635 113.5,-647 196.5,-647 196.5,-635 113.5,-635"/>
<polygon fill="#4ade80" stroke="none" points="115.5,-637 115.5,-645 119.5,-645 119.5,-637 115.5,-637"/>
<polygon fill="#f3f4f6" stroke="none" points="119.5,-637 119.5,-645 194.5,-645 194.5,-637 119.5,-637"/>
<polygon fill="none" stroke="black" points="200.5,-631 200.5,-651 239.5,-651 239.5,-631 200.5,-631"/>
<text text-anchor="start" x="209.25" y="-637.7" font-family="Arial" font-size="9.00">5.94%</text>
</g>
<!-- casualties&#45;&gt;AdaptionCapacity -->
<g id="edge11" class="edge">
<title>casualties&#45;&gt;AdaptionCapacity</title>
<path fill="none" stroke="#64748b" stroke-width="0.8" d="M239.47,-651.67C239.47,-651.67 284.01,-651.67 284.01,-651.67"/>
<polygon fill="#64748b" stroke="#64748b" stroke-width="0.8" points="284.01,-655.17 294.01,-651.67 284.01,-648.17 284.01,-655.17"/>
</g>
<!-- AidResource -->
<g id="node5" class="node">
<title>AidResource</title>
<polygon fill="none" stroke="black" points="45.5,-485 45.5,-507 235.5,-507 235.5,-485 45.5,-485"/>
<text text-anchor="start" x="112.38" y="-492.5" font-family="Arial" font-size="10.00">AidResource</text>
<polygon fill="none" stroke="black" points="45.5,-465 45.5,-485 105.5,-485 105.5,-465 45.5,-465"/>
<text text-anchor="start" x="60.25" y="-471.7" font-family="Arial" font-size="9.00">Not_Used</text>
<polygon fill="white" stroke="none" points="105.5,-465 105.5,-485 196.5,-485 196.5,-465 105.5,-465"/>
<polygon fill="none" stroke="black" points="105.5,-465 105.5,-485 196.5,-485 196.5,-465 105.5,-465"/>
<polygon fill="#f3f4f6" stroke="none" points="109.5,-469 109.5,-481 192.5,-481 192.5,-469 109.5,-469"/>
<polygon fill="#4ade80" stroke="none" points="111.5,-471 111.5,-479 188.5,-479 188.5,-471 111.5,-471"/>
<polygon fill="#f3f4f6" stroke="none" points="188.5,-471 188.5,-479 190.5,-479 190.5,-471 188.5,-471"/>
<polygon fill="none" stroke="black" points="196.5,-465 196.5,-485 235.5,-485 235.5,-465 196.5,-465"/>
<text text-anchor="start" x="200.25" y="-471.7" font-family="Arial" font-size="9.00">97.43%</text>
<polygon fill="none" stroke="black" points="45.5,-445 45.5,-465 105.5,-465 105.5,-445 45.5,-445"/>
<text text-anchor="start" x="79.75" y="-451.7" font-family="Arial" font-size="9.00">Used</text>
<polygon fill="white" stroke="none" points="105.5,-445 105.5,-465 196.5,-465 196.5,-445 105.5,-445"/>
<polygon fill="none" stroke="black" points="105.5,-445 105.5,-465 196.5,-465 196.5,-445 105.5,-445"/>
<polygon fill="#f3f4f6" stroke="none" points="109.5,-449 109.5,-461 192.5,-461 192.5,-449 109.5,-449"/>
<polygon fill="#4ade80" stroke="none" points="111.5,-451 111.5,-459 113.5,-459 113.5,-451 111.5,-451"/>
<polygon fill="#f3f4f6" stroke="none" points="113.5,-451 113.5,-459 190.5,-459 190.5,-451 113.5,-451"/>
<polygon fill="none" stroke="black" points="196.5,-445 196.5,-465 235.5,-465 235.5,-445 196.5,-445"/>
<text text-anchor="start" x="205.25" y="-451.7" font-family="Arial" font-size="9.00">2.57%</text>
</g>
<!-- RecoveryCapacity -->
<g id="node14" class="node">
<title>RecoveryCapacity</title>
<polygon fill="none" stroke="black" points="295,-339 295,-361 485,-361 485,-339 295,-339"/>
<text text-anchor="start" x="349.5" y="-346.5" font-family="Arial" font-size="10.00">RecoveryCapacity</text>
<polygon fill="none" stroke="black" points="295,-319 295,-339 355,-339 355,-319 295,-319"/>
<text text-anchor="start" x="328.5" y="-325.7" font-family="Arial" font-size="9.00">Good</text>
<polygon fill="white" stroke="none" points="355,-319 355,-339 446,-339 446,-319 355,-319"/>
<polygon fill="none" stroke="black" points="355,-319 355,-339 446,-339 446,-319 355,-319"/>
<polygon fill="#f3f4f6" stroke="none" points="359,-323 359,-335 442,-335 442,-323 359,-323"/>
<polygon fill="#4ade80" stroke="none" points="361,-325 361,-333 385,-333 385,-325 361,-325"/>
<polygon fill="#f3f4f6" stroke="none" points="385,-325 385,-333 440,-333 440,-325 385,-325"/>
<polygon fill="none" stroke="black" points="446,-319 446,-339 485,-339 485,-319 446,-319"/>
<text text-anchor="start" x="449.75" y="-325.7" font-family="Arial" font-size="9.00">30.13%</text>
<polygon fill="none" stroke="black" points="295,-299 295,-319 355,-319 355,-299 295,-299"/>
<text text-anchor="start" x="334.5" y="-305.7" font-family="Arial" font-size="9.00">Bad</text>
<polygon fill="white" stroke="none" points="355,-299 355,-319 446,-319 446,-299 355,-299"/>
<polygon fill="none" stroke="black" points="355,-299 355,-319 446,-319 446,-299 355,-299"/>
<polygon fill="#f3f4f6" stroke="none" points="359,-303 359,-315 442,-315 442,-303 359,-303"/>
<polygon fill="#4ade80" stroke="none" points="361,-305 361,-313 416,-313 416,-305 361,-305"/>
<polygon fill="#f3f4f6" stroke="none" points="416,-305 416,-313 440,-313 440,-305 416,-305"/>
<polygon fill="none" stroke="black" points="446,-299 446,-319 485,-319 485,-299 446,-299"/>
<text text-anchor="start" x="449.75" y="-305.7" font-family="Arial" font-size="9.00">69.87%</text>
</g>
<!-- AidResource&#45;&gt;RecoveryCapacity -->
<g id="edge4" class="edge">
<title>AidResource&#45;&gt;RecoveryCapacity</title>
<path fill="none" stroke="#64748b" stroke-width="0.8" d="M235.29,-476C322.21,-476 437.5,-476 437.5,-476 437.5,-476 437.5,-372.17 437.5,-372.17"/>
<polygon fill="#64748b" stroke="#64748b" stroke-width="0.8" points="441,-372.17 437.5,-362.17 434,-372.17 441,-372.17"/>
</g>
<!-- TowResource -->
<g id="node6" class="node">
<title>TowResource</title>
<polygon fill="none" stroke="black" points="45.5,-412 45.5,-434 235.5,-434 235.5,-412 45.5,-412"/>
<text text-anchor="start" x="110.5" y="-419.5" font-family="Arial" font-size="10.00">TowResource</text>
<polygon fill="none" stroke="black" points="45.5,-392 45.5,-412 105.5,-412 105.5,-392 45.5,-392"/>
<text text-anchor="start" x="60.25" y="-398.7" font-family="Arial" font-size="9.00">Not_Used</text>
<polygon fill="white" stroke="none" points="105.5,-392 105.5,-412 196.5,-412 196.5,-392 105.5,-392"/>
<polygon fill="none" stroke="black" points="105.5,-392 105.5,-412 196.5,-412 196.5,-392 105.5,-392"/>
<polygon fill="#f3f4f6" stroke="none" points="109.5,-396 109.5,-408 192.5,-408 192.5,-396 109.5,-396"/>
<polygon fill="#4ade80" stroke="none" points="111.5,-398 111.5,-406 143.5,-406 143.5,-398 111.5,-398"/>
<polygon fill="#f3f4f6" stroke="none" points="143.5,-398 143.5,-406 190.5,-406 190.5,-398 143.5,-398"/>
<polygon fill="none" stroke="black" points="196.5,-392 196.5,-412 235.5,-412 235.5,-392 196.5,-392"/>
<text text-anchor="start" x="200.25" y="-398.7" font-family="Arial" font-size="9.00">40.10%</text>
<polygon fill="none" stroke="black" points="45.5,-372 45.5,-392 105.5,-392 105.5,-372 45.5,-372"/>
<text text-anchor="start" x="79.75" y="-378.7" font-family="Arial" font-size="9.00">Used</text>
<polygon fill="white" stroke="none" points="105.5,-372 105.5,-392 196.5,-392 196.5,-372 105.5,-372"/>
<polygon fill="none" stroke="black" points="105.5,-372 105.5,-392 196.5,-392 196.5,-372 105.5,-372"/>
<polygon fill="#f3f4f6" stroke="none" points="109.5,-376 109.5,-388 192.5,-388 192.5,-376 109.5,-376"/>
<polygon fill="#4ade80" stroke="none" points="111.5,-378 111.5,-386 158.5,-386 158.5,-378 111.5,-378"/>
<polygon fill="#f3f4f6" stroke="none" points="158.5,-378 158.5,-386 190.5,-386 190.5,-378 158.5,-378"/>
<polygon fill="none" stroke="black" points="196.5,-372 196.5,-392 235.5,-392 235.5,-372 196.5,-372"/>
<text text-anchor="start" x="200.25" y="-378.7" font-family="Arial" font-size="9.00">59.90%</text>
</g>
<!-- TowResource&#45;&gt;RecoveryCapacity -->
<g id="edge7" class="edge">
<title>TowResource&#45;&gt;RecoveryCapacity</title>
<path fill="none" stroke="#64748b" stroke-width="0.8" d="M235.18,-403C305.76,-403 390,-403 390,-403 390,-403 390,-372.17 390,-372.17"/>
<polygon fill="#64748b" stroke="#64748b" stroke-width="0.8" points="393.5,-372.17 390,-362.17 386.5,-372.17 393.5,-372.17"/>
</g>
<!-- FirefightingResource -->
<g id="node7" class="node">
<title>FirefightingResource</title>
<polygon fill="none" stroke="black" points="45.5,-339 45.5,-361 235.5,-361 235.5,-339 45.5,-339"/>
<text text-anchor="start" x="95.5" y="-346.5" font-family="Arial" font-size="10.00">FirefightingResource</text>
<polygon fill="none" stroke="black" points="45.5,-319 45.5,-339 105.5,-339 105.5,-319 45.5,-319"/>
<text text-anchor="start" x="60.25" y="-325.7" font-family="Arial" font-size="9.00">Not_Used</text>
<polygon fill="white" stroke="none" points="105.5,-319 105.5,-339 196.5,-339 196.5,-319 105.5,-319"/>
<polygon fill="none" stroke="black" points="105.5,-319 105.5,-339 196.5,-339 196.5,-319 105.5,-319"/>
<polygon fill="#f3f4f6" stroke="none" points="109.5,-323 109.5,-335 192.5,-335 192.5,-323 109.5,-323"/>
<polygon fill="#4ade80" stroke="none" points="111.5,-325 111.5,-333 189.5,-333 189.5,-325 111.5,-325"/>
<polygon fill="#f3f4f6" stroke="none" points="189.5,-325 189.5,-333 190.5,-333 190.5,-325 189.5,-325"/>
<polygon fill="none" stroke="black" points="196.5,-319 196.5,-339 235.5,-339 235.5,-319 196.5,-319"/>
<text text-anchor="start" x="200.25" y="-325.7" font-family="Arial" font-size="9.00">98.22%</text>
<polygon fill="none" stroke="black" points="45.5,-299 45.5,-319 105.5,-319 105.5,-299 45.5,-299"/>
<text text-anchor="start" x="79.75" y="-305.7" font-family="Arial" font-size="9.00">Used</text>
<polygon fill="white" stroke="none" points="105.5,-299 105.5,-319 196.5,-319 196.5,-299 105.5,-299"/>
<polygon fill="none" stroke="black" points="105.5,-299 105.5,-319 196.5,-319 196.5,-299 105.5,-299"/>
<polygon fill="#f3f4f6" stroke="none" points="109.5,-303 109.5,-315 192.5,-315 192.5,-303 109.5,-303"/>
<polygon fill="#4ade80" stroke="none" points="111.5,-305 111.5,-313 112.5,-313 112.5,-305 111.5,-305"/>
<polygon fill="#f3f4f6" stroke="none" points="112.5,-305 112.5,-313 190.5,-313 190.5,-305 112.5,-305"/>
<polygon fill="none" stroke="black" points="196.5,-299 196.5,-319 235.5,-319 235.5,-299 196.5,-299"/>
<text text-anchor="start" x="205.25" y="-305.7" font-family="Arial" font-size="9.00">1.78%</text>
</g>
<!-- FirefightingResource&#45;&gt;RecoveryCapacity -->
<g id="edge9" class="edge">
<title>FirefightingResource&#45;&gt;RecoveryCapacity</title>
<path fill="none" stroke="#64748b" stroke-width="0.8" d="M235.18,-330C235.18,-330 284.17,-330 284.17,-330"/>
<polygon fill="#64748b" stroke="#64748b" stroke-width="0.8" points="284.17,-333.5 294.17,-330 284.17,-326.5 284.17,-333.5"/>
</g>
<!-- RescueResource -->
<g id="node8" class="node">
<title>RescueResource</title>
<polygon fill="none" stroke="black" points="45.5,-266 45.5,-288 235.5,-288 235.5,-266 45.5,-266"/>
<text text-anchor="start" x="102.62" y="-273.5" font-family="Arial" font-size="10.00">RescueResource</text>
<polygon fill="none" stroke="black" points="45.5,-246 45.5,-266 105.5,-266 105.5,-246 45.5,-246"/>
<text text-anchor="start" x="60.25" y="-252.7" font-family="Arial" font-size="9.00">Not_Used</text>
<polygon fill="white" stroke="none" points="105.5,-246 105.5,-266 196.5,-266 196.5,-246 105.5,-246"/>
<polygon fill="none" stroke="black" points="105.5,-246 105.5,-266 196.5,-266 196.5,-246 105.5,-246"/>
<polygon fill="#f3f4f6" stroke="none" points="109.5,-250 109.5,-262 192.5,-262 192.5,-250 109.5,-250"/>
<polygon fill="#4ade80" stroke="none" points="111.5,-252 111.5,-260 189.5,-260 189.5,-252 111.5,-252"/>
<polygon fill="#f3f4f6" stroke="none" points="189.5,-252 189.5,-260 190.5,-260 190.5,-252 189.5,-252"/>
<polygon fill="none" stroke="black" points="196.5,-246 196.5,-266 235.5,-266 235.5,-246 196.5,-246"/>
<text text-anchor="start" x="200.25" y="-252.7" font-family="Arial" font-size="9.00">98.42%</text>
<polygon fill="none" stroke="black" points="45.5,-226 45.5,-246 105.5,-246 105.5,-226 45.5,-226"/>
<text text-anchor="start" x="79.75" y="-232.7" font-family="Arial" font-size="9.00">Used</text>
<polygon fill="white" stroke="none" points="105.5,-226 105.5,-246 196.5,-246 196.5,-226 105.5,-226"/>
<polygon fill="none" stroke="black" points="105.5,-226 105.5,-246 196.5,-246 196.5,-226 105.5,-226"/>
<polygon fill="#f3f4f6" stroke="none" points="109.5,-230 109.5,-242 192.5,-242 192.5,-230 109.5,-230"/>
<polygon fill="#4ade80" stroke="none" points="111.5,-232 111.5,-240 112.5,-240 112.5,-232 111.5,-232"/>
<polygon fill="#f3f4f6" stroke="none" points="112.5,-232 112.5,-240 190.5,-240 190.5,-232 112.5,-232"/>
<polygon fill="none" stroke="black" points="196.5,-226 196.5,-246 235.5,-246 235.5,-226 196.5,-226"/>
<text text-anchor="start" x="205.25" y="-232.7" font-family="Arial" font-size="9.00">1.58%</text>
</g>
<!-- RescueResource&#45;&gt;RecoveryCapacity -->
<g id="edge5" class="edge">
<title>RescueResource&#45;&gt;RecoveryCapacity</title>
<path fill="none" stroke="#64748b" stroke-width="0.8" d="M235.29,-257C287.77,-257 342.5,-257 342.5,-257 342.5,-257 342.5,-287.83 342.5,-287.83"/>
<polygon fill="#64748b" stroke="#64748b" stroke-width="0.8" points="339,-287.83 342.5,-297.83 346,-287.83 339,-287.83"/>
</g>
<!-- emergencyPeriod -->
<g id="node9" class="node">
<title>emergencyPeriod</title>
<polygon fill="none" stroke="black" points="41.5,-598 41.5,-620 239.5,-620 239.5,-598 41.5,-598"/>
<text text-anchor="start" x="102.62" y="-605.5" font-family="Arial" font-size="10.00">emergencyPeriod</text>
<polygon fill="none" stroke="black" points="41.5,-578 41.5,-598 109.5,-598 109.5,-578 41.5,-578"/>
<text text-anchor="start" x="45.5" y="-584.7" font-family="Arial" font-size="9.00">Early_Morning</text>
<polygon fill="white" stroke="none" points="109.5,-578 109.5,-598 200.5,-598 200.5,-578 109.5,-578"/>
<polygon fill="none" stroke="black" points="109.5,-578 109.5,-598 200.5,-598 200.5,-578 109.5,-578"/>
<polygon fill="#f3f4f6" stroke="none" points="113.5,-582 113.5,-594 196.5,-594 196.5,-582 113.5,-582"/>
<polygon fill="#4ade80" stroke="none" points="115.5,-584 115.5,-592 118.5,-592 118.5,-584 115.5,-584"/>
<polygon fill="#f3f4f6" stroke="none" points="118.5,-584 118.5,-592 194.5,-592 194.5,-584 118.5,-584"/>
<polygon fill="none" stroke="black" points="200.5,-578 200.5,-598 239.5,-598 239.5,-578 200.5,-578"/>
<text text-anchor="start" x="209.25" y="-584.7" font-family="Arial" font-size="9.00">3.86%</text>
<polygon fill="none" stroke="black" points="41.5,-558 41.5,-578 109.5,-578 109.5,-558 41.5,-558"/>
<text text-anchor="start" x="71.75" y="-564.7" font-family="Arial" font-size="9.00">Morning</text>
<polygon fill="white" stroke="none" points="109.5,-558 109.5,-578 200.5,-578 200.5,-558 109.5,-558"/>
<polygon fill="none" stroke="black" points="109.5,-558 109.5,-578 200.5,-578 200.5,-558 109.5,-558"/>
<polygon fill="#f3f4f6" stroke="none" points="113.5,-562 113.5,-574 196.5,-574 196.5,-562 113.5,-562"/>
<polygon fill="#4ade80" stroke="none" points="115.5,-564 115.5,-572 145.5,-572 145.5,-564 115.5,-564"/>
<polygon fill="#f3f4f6" stroke="none" points="145.5,-564 145.5,-572 194.5,-572 194.5,-564 145.5,-564"/>
<polygon fill="none" stroke="black" points="200.5,-558 200.5,-578 239.5,-578 239.5,-558 200.5,-558"/>
<text text-anchor="start" x="204.25" y="-564.7" font-family="Arial" font-size="9.00">38.32%</text>
<polygon fill="none" stroke="black" points="41.5,-538 41.5,-558 109.5,-558 109.5,-538 41.5,-538"/>
<text text-anchor="start" x="65.75" y="-544.7" font-family="Arial" font-size="9.00">Afternoon</text>
<polygon fill="white" stroke="none" points="109.5,-538 109.5,-558 200.5,-558 200.5,-538 109.5,-538"/>
<polygon fill="none" stroke="black" points="109.5,-538 109.5,-558 200.5,-558 200.5,-538 109.5,-538"/>
<polygon fill="#f3f4f6" stroke="none" points="113.5,-542 113.5,-554 196.5,-554 196.5,-542 113.5,-542"/>
<polygon fill="#4ade80" stroke="none" points="115.5,-544 115.5,-552 150.5,-552 150.5,-544 115.5,-544"/>
<polygon fill="#f3f4f6" stroke="none" points="150.5,-544 150.5,-552 194.5,-552 194.5,-544 150.5,-544"/>
<polygon fill="none" stroke="black" points="200.5,-538 200.5,-558 239.5,-558 239.5,-538 200.5,-538"/>
<text text-anchor="start" x="204.25" y="-544.7" font-family="Arial" font-size="9.00">44.16%</text>
<polygon fill="none" stroke="black" points="41.5,-518 41.5,-538 109.5,-538 109.5,-518 41.5,-518"/>
<text text-anchor="start" x="71.75" y="-524.7" font-family="Arial" font-size="9.00">Evening</text>
<polygon fill="white" stroke="none" points="109.5,-518 109.5,-538 200.5,-538 200.5,-518 109.5,-518"/>
<polygon fill="none" stroke="black" points="109.5,-518 109.5,-538 200.5,-538 200.5,-518 109.5,-518"/>
<polygon fill="#f3f4f6" stroke="none" points="113.5,-522 113.5,-534 196.5,-534 196.5,-522 113.5,-522"/>
<polygon fill="#4ade80" stroke="none" points="115.5,-524 115.5,-532 125.5,-532 125.5,-524 115.5,-524"/>
<polygon fill="#f3f4f6" stroke="none" points="125.5,-524 125.5,-532 194.5,-532 194.5,-524 125.5,-524"/>
<polygon fill="none" stroke="black" points="200.5,-518 200.5,-538 239.5,-538 239.5,-518 200.5,-518"/>
<text text-anchor="start" x="204.25" y="-524.7" font-family="Arial" font-size="9.00">13.66%</text>
</g>
<!-- emergencyPeriod&#45;&gt;AdaptionCapacity -->
<g id="edge10" class="edge">
<title>emergencyPeriod&#45;&gt;AdaptionCapacity</title>
<path fill="none" stroke="#64748b" stroke-width="0.8" d="M239.43,-569C290.61,-569 342.5,-569 342.5,-569 342.5,-569 342.5,-619.82 342.5,-619.82"/>
<polygon fill="#64748b" stroke="#64748b" stroke-width="0.8" points="339,-619.82 342.5,-629.82 346,-619.82 339,-619.82"/>
</g>
<!-- responseDuration -->
<g id="node10" class="node">
<title>responseDuration</title>
<polygon fill="none" stroke="black" points="45,-193 45,-215 236,-215 236,-193 45,-193"/>
<text text-anchor="start" x="102.25" y="-200.5" font-family="Arial" font-size="10.00">responseDuration</text>
<polygon fill="none" stroke="black" points="45,-173 45,-193 105,-193 105,-173 45,-173"/>
<text text-anchor="start" x="67.25" y="-179.7" font-family="Arial" font-size="9.00">0&#45;15min</text>
<polygon fill="white" stroke="none" points="105,-173 105,-193 197,-193 197,-173 105,-173"/>
<polygon fill="none" stroke="black" points="105,-173 105,-193 197,-193 197,-173 105,-173"/>
<polygon fill="#f3f4f6" stroke="none" points="109,-177 109,-189 193,-189 193,-177 109,-177"/>
<polygon fill="#4ade80" stroke="none" points="111,-179 111,-187 145.5,-187 145.5,-179 111,-179"/>
<polygon fill="#f3f4f6" stroke="none" points="145.5,-179 145.5,-187 191,-187 191,-179 145.5,-179"/>
<polygon fill="none" stroke="black" points="197,-173 197,-193 236,-193 236,-173 197,-173"/>
<text text-anchor="start" x="200.75" y="-179.7" font-family="Arial" font-size="9.00">43.56%</text>
<polygon fill="none" stroke="black" points="45,-153 45,-173 105,-173 105,-153 45,-153"/>
<text text-anchor="start" x="62" y="-159.7" font-family="Arial" font-size="9.00">15&#45;30min</text>
<polygon fill="white" stroke="none" points="105,-153 105,-173 197,-173 197,-153 105,-153"/>
<polygon fill="none" stroke="black" points="105,-153 105,-173 197,-173 197,-153 105,-153"/>
<polygon fill="#f3f4f6" stroke="none" points="109,-157 109,-169 193,-169 193,-157 109,-157"/>
<polygon fill="#4ade80" stroke="none" points="111,-159 111,-167 147.5,-167 147.5,-159 111,-159"/>
<polygon fill="#f3f4f6" stroke="none" points="147.5,-159 147.5,-167 191,-167 191,-159 147.5,-159"/>
<polygon fill="none" stroke="black" points="197,-153 197,-173 236,-173 236,-153 197,-153"/>
<text text-anchor="start" x="200.75" y="-159.7" font-family="Arial" font-size="9.00">45.71%</text>
<polygon fill="none" stroke="black" points="45,-133 45,-153 105,-153 105,-133 45,-133"/>
<text text-anchor="start" x="62" y="-139.7" font-family="Arial" font-size="9.00">30&#45;60min</text>
<polygon fill="white" stroke="none" points="105,-133 105,-153 197,-153 197,-133 105,-133"/>
<polygon fill="none" stroke="black" points="105,-133 105,-153 197,-153 197,-133 105,-133"/>
<polygon fill="#f3f4f6" stroke="none" points="109,-137 109,-149 193,-149 193,-137 109,-137"/>
<polygon fill="#4ade80" stroke="none" points="111,-139 111,-147 119.5,-147 119.5,-139 111,-139"/>
<polygon fill="#f3f4f6" stroke="none" points="119.5,-139 119.5,-147 191,-147 191,-139 119.5,-139"/>
<polygon fill="none" stroke="black" points="197,-133 197,-153 236,-153 236,-133 197,-133"/>
<text text-anchor="start" x="200.75" y="-139.7" font-family="Arial" font-size="9.00">10.73%</text>
<polygon fill="none" stroke="black" points="45,-113 45,-133 105,-133 105,-113 45,-113"/>
<text text-anchor="start" x="70.25" y="-119.7" font-family="Arial" font-size="9.00">60min+</text>
<polygon fill="white" stroke="none" points="105,-113 105,-133 197,-133 197,-113 105,-113"/>
<polygon fill="none" stroke="black" points="105,-113 105,-133 197,-133 197,-113 105,-113"/>
<polygon fill="#f3f4f6" stroke="none" points="109,-117 109,-129 193,-129 193,-117 109,-117"/>
<polygon fill="#f3f4f6" stroke="none" points="111,-119 111,-127 191,-127 191,-119 111,-119"/>
<polygon fill="none" stroke="black" points="197,-113 197,-133 236,-133 236,-113 197,-113"/>
<text text-anchor="start" x="205.75" y="-119.7" font-family="Arial" font-size="9.00">0.00%</text>
</g>
<!-- responseDuration&#45;&gt;RecoveryCapacity -->
<g id="edge3" class="edge">
<title>responseDuration&#45;&gt;RecoveryCapacity</title>
<path fill="none" stroke="#64748b" stroke-width="0.8" d="M235.89,-164C306.33,-164 390,-164 390,-164 390,-164 390,-287.95 390,-287.95"/>
<polygon fill="#64748b" stroke="#64748b" stroke-width="0.8" points="386.5,-287.95 390,-297.95 393.5,-287.95 386.5,-287.95"/>
</g>
<!-- disposalDuration -->
<g id="node11" class="node">
<title>disposalDuration</title>
<polygon fill="none" stroke="black" points="45,-80 45,-102 236,-102 236,-80 45,-80"/>
<text text-anchor="start" x="104.12" y="-87.5" font-family="Arial" font-size="10.00">disposalDuration</text>
<polygon fill="none" stroke="black" points="45,-60 45,-80 105,-80 105,-60 45,-60"/>
<text text-anchor="start" x="67.25" y="-66.7" font-family="Arial" font-size="9.00">0&#45;15min</text>
<polygon fill="white" stroke="none" points="105,-60 105,-80 197,-80 197,-60 105,-60"/>
<polygon fill="none" stroke="black" points="105,-60 105,-80 197,-80 197,-60 105,-60"/>
<polygon fill="#f3f4f6" stroke="none" points="109,-64 109,-76 193,-76 193,-64 109,-64"/>
<polygon fill="#4ade80" stroke="none" points="111,-66 111,-74 134.5,-74 134.5,-66 111,-66"/>
<polygon fill="#f3f4f6" stroke="none" points="134.5,-66 134.5,-74 191,-74 191,-66 134.5,-66"/>
<polygon fill="none" stroke="black" points="197,-60 197,-80 236,-80 236,-60 197,-60"/>
<text text-anchor="start" x="200.75" y="-66.7" font-family="Arial" font-size="9.00">29.32%</text>
<polygon fill="none" stroke="black" points="45,-40 45,-60 105,-60 105,-40 45,-40"/>
<text text-anchor="start" x="62" y="-46.7" font-family="Arial" font-size="9.00">15&#45;30min</text>
<polygon fill="white" stroke="none" points="105,-40 105,-60 197,-60 197,-40 105,-40"/>
<polygon fill="none" stroke="black" points="105,-40 105,-60 197,-60 197,-40 105,-40"/>
<polygon fill="#f3f4f6" stroke="none" points="109,-44 109,-56 193,-56 193,-44 109,-44"/>
<polygon fill="#4ade80" stroke="none" points="111,-46 111,-54 136.5,-54 136.5,-46 111,-46"/>
<polygon fill="#f3f4f6" stroke="none" points="136.5,-46 136.5,-54 191,-54 191,-46 136.5,-46"/>
<polygon fill="none" stroke="black" points="197,-40 197,-60 236,-60 236,-40 197,-40"/>
<text text-anchor="start" x="200.75" y="-46.7" font-family="Arial" font-size="9.00">32.12%</text>
<polygon fill="none" stroke="black" points="45,-20 45,-40 105,-40 105,-20 45,-20"/>
<text text-anchor="start" x="62" y="-26.7" font-family="Arial" font-size="9.00">30&#45;60min</text>
<polygon fill="white" stroke="none" points="105,-20 105,-40 197,-40 197,-20 105,-20"/>
<polygon fill="none" stroke="black" points="105,-20 105,-40 197,-40 197,-20 105,-20"/>
<polygon fill="#f3f4f6" stroke="none" points="109,-24 109,-36 193,-36 193,-24 109,-24"/>
<polygon fill="#4ade80" stroke="none" points="111,-26 111,-34 141.5,-34 141.5,-26 111,-26"/>
<polygon fill="#f3f4f6" stroke="none" points="141.5,-26 141.5,-34 191,-34 191,-26 141.5,-26"/>
<polygon fill="none" stroke="black" points="197,-20 197,-40 236,-40 236,-20 197,-20"/>
<text text-anchor="start" x="200.75" y="-26.7" font-family="Arial" font-size="9.00">38.55%</text>
<polygon fill="none" stroke="black" points="45,0 45,-20 105,-20 105,0 45,0"/>
<text text-anchor="start" x="70.25" y="-6.7" font-family="Arial" font-size="9.00">60min+</text>
<polygon fill="white" stroke="none" points="105,0 105,-20 197,-20 197,0 105,0"/>
<polygon fill="none" stroke="black" points="105,0 105,-20 197,-20 197,0 105,0"/>
<polygon fill="#f3f4f6" stroke="none" points="109,-4 109,-16 193,-16 193,-4 109,-4"/>
<polygon fill="#f3f4f6" stroke="none" points="111,-6 111,-14 191,-14 191,-6 111,-6"/>
<polygon fill="none" stroke="black" points="197,0 197,-20 236,-20 236,0 197,0"/>
<text text-anchor="start" x="205.75" y="-6.7" font-family="Arial" font-size="9.00">0.00%</text>
</g>
<!-- disposalDuration&#45;&gt;RecoveryCapacity -->
<g id="edge6" class="edge">
<title>disposalDuration&#45;&gt;RecoveryCapacity</title>
<path fill="none" stroke="#64748b" stroke-width="0.8" d="M235.7,-51C322.57,-51 437.5,-51 437.5,-51 437.5,-51 437.5,-287.87 437.5,-287.87"/>
<polygon fill="#64748b" stroke="#64748b" stroke-width="0.8" points="434,-287.87 437.5,-297.87 441,-287.87 434,-287.87"/>
</g>
<!-- ScenarioResilience -->
<g id="node15" class="node">
<title>ScenarioResilience</title>
<polygon fill="none" stroke="black" points="499,-671 499,-693 689,-693 689,-671 499,-671"/>
<text text-anchor="start" x="552" y="-678.5" font-family="Arial" font-size="10.00">ScenarioResilience</text>
<polygon fill="none" stroke="black" points="499,-651 499,-671 559,-671 559,-651 499,-651"/>
<text text-anchor="start" x="532.5" y="-657.7" font-family="Arial" font-size="9.00">Good</text>
<polygon fill="white" stroke="none" points="559,-651 559,-671 650,-671 650,-651 559,-651"/>
<polygon fill="none" stroke="black" points="559,-651 559,-671 650,-671 650,-651 559,-651"/>
<polygon fill="#f3f4f6" stroke="none" points="563,-655 563,-667 646,-667 646,-655 563,-655"/>
<polygon fill="#4ade80" stroke="none" points="565,-657 565,-665 593,-665 593,-657 565,-657"/>
<polygon fill="#f3f4f6" stroke="none" points="593,-657 593,-665 644,-665 644,-657 593,-657"/>
<polygon fill="none" stroke="black" points="650,-651 650,-671 689,-671 689,-651 650,-651"/>
<text text-anchor="start" x="653.75" y="-657.7" font-family="Arial" font-size="9.00">35.69%</text>
<polygon fill="none" stroke="black" points="499,-631 499,-651 559,-651 559,-631 499,-631"/>
<text text-anchor="start" x="538.5" y="-637.7" font-family="Arial" font-size="9.00">Bad</text>
<polygon fill="white" stroke="none" points="559,-631 559,-651 650,-651 650,-631 559,-631"/>
<polygon fill="none" stroke="black" points="559,-631 559,-651 650,-651 650,-631 559,-631"/>
<polygon fill="#f3f4f6" stroke="none" points="563,-635 563,-647 646,-647 646,-635 563,-635"/>
<polygon fill="#4ade80" stroke="none" points="565,-637 565,-645 616,-645 616,-637 565,-637"/>
<polygon fill="#f3f4f6" stroke="none" points="616,-637 616,-645 644,-645 644,-637 616,-637"/>
<polygon fill="none" stroke="black" points="650,-631 650,-651 689,-651 689,-631 650,-631"/>
<text text-anchor="start" x="653.75" y="-637.7" font-family="Arial" font-size="9.00">64.31%</text>
</g>
<!-- AbsorptionCapacity&#45;&gt;ScenarioResilience -->
<g id="edge12" class="edge">
<title>AbsorptionCapacity&#45;&gt;ScenarioResilience</title>
<path fill="none" stroke="#64748b" stroke-width="0.8" d="M484.83,-828C538.11,-828 594,-828 594,-828 594,-828 594,-704.05 594,-704.05"/>
<polygon fill="#64748b" stroke="#64748b" stroke-width="0.8" points="597.5,-704.05 594,-694.05 590.5,-704.05 597.5,-704.05"/>
</g>
<!-- AdaptionCapacity&#45;&gt;ScenarioResilience -->
<g id="edge14" class="edge">
<title>AdaptionCapacity&#45;&gt;ScenarioResilience</title>
<path fill="none" stroke="#64748b" stroke-width="0.8" d="M484.83,-662C484.83,-662 488,-662 488,-662"/>
<polygon fill="#64748b" stroke="#64748b" stroke-width="0.8" points="488,-665.5 498,-662 488,-658.5 488,-665.5"/>
</g>
<!-- RecoveryCapacity&#45;&gt;ScenarioResilience -->
<g id="edge2" class="edge">
<title>RecoveryCapacity&#45;&gt;ScenarioResilience</title>
<path fill="none" stroke="#64748b" stroke-width="0.8" d="M484.83,-330C538.11,-330 594,-330 594,-330 594,-330 594,-619.85 594,-619.85"/>
<polygon fill="#64748b" stroke="#64748b" stroke-width="0.8" points="590.5,-619.85 594,-629.85 597.5,-619.85 590.5,-619.85"/>
</g>
</g>
</svg>
