<?xml version="1.0" encoding="UTF-8" standalone="no"?>
<!DOCTYPE svg PUBLIC "-//W3C//DTD SVG 1.1//EN"
 "http://www.w3.org/Graphics/SVG/1.1/DTD/svg11.dtd">
<!-- Generated by graphviz version 12.1.2 (20240928.0832)
 -->
<!-- Pages: 1 -->
<svg width="701pt" height="939pt"
 viewBox="0.00 0.00 701.20 939.20" xmlns="http://www.w3.org/2000/svg" xmlns:xlink="http://www.w3.org/1999/xlink">
<g id="graph0" class="graph" transform="scale(1 1) rotate(0) translate(3.6 935.6)">
<polygon fill="white" stroke="none" points="-3.6,3.6 -3.6,-935.6 697.6,-935.6 697.6,3.6 -3.6,3.6"/>
<!-- casualties -->
<g id="node1" class="node">
<title>casualties</title>
<polygon fill="none" stroke="#3b82f6" points="41,-558 41,-580 245,-580 245,-558 41,-558"/>
<text text-anchor="start" x="120.88" y="-565.5" font-family="Arial" font-size="10.00">casualties</text>
<polygon fill="none" stroke="#3b82f6" points="41,-538 41,-558 109,-558 109,-538 41,-538"/>
<text text-anchor="start" x="44.62" y="-544.7" font-family="Arial" font-size="9.00">No_Casualties</text>
<polygon fill="white" stroke="none" points="109,-538 109,-558 201,-558 201,-538 109,-538"/>
<polygon fill="none" stroke="#3b82f6" points="109,-538 109,-558 201,-558 201,-538 109,-538"/>
<polygon fill="#f3f4f6" stroke="none" points="113,-542 113,-554 197,-554 197,-542 113,-542"/>
<polygon fill="#4ade80" stroke="none" points="115,-544 115,-552 195,-552 195,-544 115,-544"/>
<polygon fill="none" stroke="#3b82f6" points="201,-538 201,-558 245,-558 245,-538 201,-538"/>
<text text-anchor="start" x="204.62" y="-544.7" font-family="Arial" font-size="9.00">100.00%</text>
<polygon fill="none" stroke="#3b82f6" points="41,-518 41,-538 109,-538 109,-518 41,-518"/>
<text text-anchor="start" x="61.5" y="-524.7" font-family="Arial" font-size="9.00">Casualties</text>
<polygon fill="white" stroke="none" points="109,-518 109,-538 201,-538 201,-518 109,-518"/>
<polygon fill="none" stroke="#3b82f6" points="109,-518 109,-538 201,-538 201,-518 109,-518"/>
<polygon fill="#f3f4f6" stroke="none" points="113,-522 113,-534 197,-534 197,-522 113,-522"/>
<polygon fill="#f3f4f6" stroke="none" points="115,-524 115,-532 195,-532 195,-524 115,-524"/>
<polygon fill="none" stroke="#3b82f6" points="201,-518 201,-538 245,-538 245,-518 201,-518"/>
<text text-anchor="start" x="214.75" y="-524.7" font-family="Arial" font-size="9.00">0.00%</text>
</g>
<!-- RecoveryCapacity -->
<g id="node14" class="node">
<title>RecoveryCapacity</title>
<polygon fill="none" stroke="black" points="300,-376 300,-398 490,-398 490,-376 300,-376"/>
<text text-anchor="start" x="354.5" y="-383.5" font-family="Arial" font-size="10.00">RecoveryCapacity</text>
<polygon fill="none" stroke="black" points="300,-356 300,-376 360,-376 360,-356 300,-356"/>
<text text-anchor="start" x="333.5" y="-362.7" font-family="Arial" font-size="9.00">Good</text>
<polygon fill="white" stroke="none" points="360,-356 360,-376 451,-376 451,-356 360,-356"/>
<polygon fill="none" stroke="black" points="360,-356 360,-376 451,-376 451,-356 360,-356"/>
<polygon fill="#f3f4f6" stroke="none" points="364,-360 364,-372 447,-372 447,-360 364,-360"/>
<polygon fill="#4ade80" stroke="none" points="366,-362 366,-370 415,-370 415,-362 366,-362"/>
<polygon fill="#f3f4f6" stroke="none" points="415,-362 415,-370 445,-370 445,-362 415,-362"/>
<polygon fill="none" stroke="black" points="451,-356 451,-376 490,-376 490,-356 451,-356"/>
<text text-anchor="start" x="454.75" y="-362.7" font-family="Arial" font-size="9.00">62.03%</text>
<polygon fill="none" stroke="black" points="300,-336 300,-356 360,-356 360,-336 300,-336"/>
<text text-anchor="start" x="339.5" y="-342.7" font-family="Arial" font-size="9.00">Bad</text>
<polygon fill="white" stroke="none" points="360,-336 360,-356 451,-356 451,-336 360,-336"/>
<polygon fill="none" stroke="black" points="360,-336 360,-356 451,-356 451,-336 360,-336"/>
<polygon fill="#f3f4f6" stroke="none" points="364,-340 364,-352 447,-352 447,-340 364,-340"/>
<polygon fill="#4ade80" stroke="none" points="366,-342 366,-350 396,-350 396,-342 366,-342"/>
<polygon fill="#f3f4f6" stroke="none" points="396,-342 396,-350 445,-350 445,-342 396,-342"/>
<polygon fill="none" stroke="black" points="451,-336 451,-356 490,-356 490,-336 451,-336"/>
<text text-anchor="start" x="454.75" y="-342.7" font-family="Arial" font-size="9.00">37.97%</text>
</g>
<!-- casualties&#45;&gt;RecoveryCapacity -->
<g id="edge3" class="edge">
<title>casualties&#45;&gt;RecoveryCapacity</title>
<path fill="none" stroke="#64748b" stroke-width="0.8" d="M244.61,-549C326,-549 426.67,-549 426.67,-549 426.67,-549 426.67,-409.08 426.67,-409.08"/>
<polygon fill="#64748b" stroke="#64748b" stroke-width="0.8" points="430.17,-409.08 426.67,-399.08 423.17,-409.08 430.17,-409.08"/>
</g>
<!-- emergencyType -->
<g id="node2" class="node">
<title>emergencyType</title>
<polygon fill="none" stroke="#3b82f6" points="0,-764 0,-786 286,-786 286,-764 0,-764"/>
<text text-anchor="start" x="108.5" y="-771.5" font-family="Arial" font-size="10.00">emergencyType</text>
<polygon fill="none" stroke="#3b82f6" points="0,-744 0,-764 150,-764 150,-744 0,-744"/>
<text text-anchor="start" x="54.5" y="-750.7" font-family="Arial" font-size="9.00">Vehicle_Self_Accident</text>
<polygon fill="white" stroke="none" points="150,-744 150,-764 242,-764 242,-744 150,-744"/>
<polygon fill="none" stroke="#3b82f6" points="150,-744 150,-764 242,-764 242,-744 150,-744"/>
<polygon fill="#f3f4f6" stroke="none" points="154,-748 154,-760 238,-760 238,-748 154,-748"/>
<polygon fill="#f3f4f6" stroke="none" points="156,-750 156,-758 236,-758 236,-750 156,-750"/>
<polygon fill="none" stroke="#3b82f6" points="242,-744 242,-764 286,-764 286,-744 242,-744"/>
<text text-anchor="start" x="255.75" y="-750.7" font-family="Arial" font-size="9.00">0.00%</text>
<polygon fill="none" stroke="#3b82f6" points="0,-724 0,-744 150,-744 150,-724 0,-724"/>
<text text-anchor="start" x="3.75" y="-730.7" font-family="Arial" font-size="9.00">Vehicle_to_Fixed_Object_Accident</text>
<polygon fill="white" stroke="none" points="150,-724 150,-744 242,-744 242,-724 150,-724"/>
<polygon fill="none" stroke="#3b82f6" points="150,-724 150,-744 242,-744 242,-724 150,-724"/>
<polygon fill="#f3f4f6" stroke="none" points="154,-728 154,-740 238,-740 238,-728 154,-728"/>
<polygon fill="#f3f4f6" stroke="none" points="156,-730 156,-738 236,-738 236,-730 156,-730"/>
<polygon fill="none" stroke="#3b82f6" points="242,-724 242,-744 286,-744 286,-724 242,-724"/>
<text text-anchor="start" x="255.75" y="-730.7" font-family="Arial" font-size="9.00">0.00%</text>
<polygon fill="none" stroke="#3b82f6" points="0,-704 0,-724 150,-724 150,-704 0,-704"/>
<text text-anchor="start" x="69.5" y="-710.7" font-family="Arial" font-size="9.00">Collision_Accident</text>
<polygon fill="white" stroke="none" points="150,-704 150,-724 242,-724 242,-704 150,-704"/>
<polygon fill="none" stroke="#3b82f6" points="150,-704 150,-724 242,-724 242,-704 150,-704"/>
<polygon fill="#f3f4f6" stroke="none" points="154,-708 154,-720 238,-720 238,-708 154,-708"/>
<polygon fill="#4ade80" stroke="none" points="156,-710 156,-718 236,-718 236,-710 156,-710"/>
<polygon fill="none" stroke="#3b82f6" points="242,-704 242,-724 286,-724 286,-704 242,-704"/>
<text text-anchor="start" x="245.62" y="-710.7" font-family="Arial" font-size="9.00">100.00%</text>
</g>
<!-- AdaptionCapacity -->
<g id="node13" class="node">
<title>AdaptionCapacity</title>
<polygon fill="none" stroke="black" points="300,-703 300,-725 490,-725 490,-703 300,-703"/>
<text text-anchor="start" x="356.38" y="-710.5" font-family="Arial" font-size="10.00">AdaptionCapacity</text>
<polygon fill="none" stroke="black" points="300,-683 300,-703 360,-703 360,-683 300,-683"/>
<text text-anchor="start" x="333.5" y="-689.7" font-family="Arial" font-size="9.00">Good</text>
<polygon fill="white" stroke="none" points="360,-683 360,-703 451,-703 451,-683 360,-683"/>
<polygon fill="none" stroke="black" points="360,-683 360,-703 451,-703 451,-683 360,-683"/>
<polygon fill="#f3f4f6" stroke="none" points="364,-687 364,-699 447,-699 447,-687 364,-687"/>
<polygon fill="#4ade80" stroke="none" points="366,-689 366,-697 414,-697 414,-689 366,-689"/>
<polygon fill="#f3f4f6" stroke="none" points="414,-689 414,-697 445,-697 445,-689 414,-689"/>
<polygon fill="none" stroke="black" points="451,-683 451,-703 490,-703 490,-683 451,-683"/>
<text text-anchor="start" x="454.75" y="-689.7" font-family="Arial" font-size="9.00">60.04%</text>
<polygon fill="none" stroke="black" points="300,-663 300,-683 360,-683 360,-663 300,-663"/>
<text text-anchor="start" x="339.5" y="-669.7" font-family="Arial" font-size="9.00">Bad</text>
<polygon fill="white" stroke="none" points="360,-663 360,-683 451,-683 451,-663 360,-663"/>
<polygon fill="none" stroke="black" points="360,-663 360,-683 451,-683 451,-663 360,-663"/>
<polygon fill="#f3f4f6" stroke="none" points="364,-667 364,-679 447,-679 447,-667 364,-667"/>
<polygon fill="#4ade80" stroke="none" points="366,-669 366,-677 397,-677 397,-669 366,-669"/>
<polygon fill="#f3f4f6" stroke="none" points="397,-669 397,-677 445,-677 445,-669 397,-669"/>
<polygon fill="none" stroke="black" points="451,-663 451,-683 490,-683 490,-663 451,-663"/>
<text text-anchor="start" x="454.75" y="-669.7" font-family="Arial" font-size="9.00">39.96%</text>
</g>
<!-- emergencyType&#45;&gt;AdaptionCapacity -->
<g id="edge14" class="edge">
<title>emergencyType&#45;&gt;AdaptionCapacity</title>
<path fill="none" stroke="#64748b" stroke-width="0.8" d="M285.93,-714.5C285.93,-714.5 288.93,-714.5 288.93,-714.5"/>
<polygon fill="#64748b" stroke="#64748b" stroke-width="0.8" points="288.93,-718 298.93,-714.5 288.93,-711 288.93,-718"/>
</g>
<!-- roadPassibility -->
<g id="node3" class="node">
<title>roadPassibility</title>
<polygon fill="none" stroke="#3b82f6" points="45,-910 45,-932 241,-932 241,-910 45,-910"/>
<text text-anchor="start" x="111.12" y="-917.5" font-family="Arial" font-size="10.00">roadPassibility</text>
<polygon fill="none" stroke="#3b82f6" points="45,-890 45,-910 105,-910 105,-890 45,-890"/>
<text text-anchor="start" x="53.75" y="-896.7" font-family="Arial" font-size="9.00">Impassable</text>
<polygon fill="white" stroke="none" points="105,-890 105,-910 197,-910 197,-890 105,-890"/>
<polygon fill="none" stroke="#3b82f6" points="105,-890 105,-910 197,-910 197,-890 105,-890"/>
<polygon fill="#f3f4f6" stroke="none" points="109,-894 109,-906 193,-906 193,-894 109,-894"/>
<polygon fill="#4ade80" stroke="none" points="111,-896 111,-904 191,-904 191,-896 111,-896"/>
<polygon fill="none" stroke="#3b82f6" points="197,-890 197,-910 241,-910 241,-890 197,-890"/>
<text text-anchor="start" x="200.62" y="-896.7" font-family="Arial" font-size="9.00">100.00%</text>
<polygon fill="none" stroke="#3b82f6" points="45,-870 45,-890 105,-890 105,-870 45,-870"/>
<text text-anchor="start" x="62.75" y="-876.7" font-family="Arial" font-size="9.00">Passable</text>
<polygon fill="white" stroke="none" points="105,-870 105,-890 197,-890 197,-870 105,-870"/>
<polygon fill="none" stroke="#3b82f6" points="105,-870 105,-890 197,-890 197,-870 105,-870"/>
<polygon fill="#f3f4f6" stroke="none" points="109,-874 109,-886 193,-886 193,-874 109,-874"/>
<polygon fill="#f3f4f6" stroke="none" points="111,-876 111,-884 191,-884 191,-876 111,-876"/>
<polygon fill="none" stroke="#3b82f6" points="197,-870 197,-890 241,-890 241,-870 197,-870"/>
<text text-anchor="start" x="210.75" y="-876.7" font-family="Arial" font-size="9.00">0.00%</text>
</g>
<!-- AbsorptionCapacity -->
<g id="node12" class="node">
<title>AbsorptionCapacity</title>
<polygon fill="none" stroke="black" points="300,-837 300,-859 490,-859 490,-837 300,-837"/>
<text text-anchor="start" x="352.25" y="-844.5" font-family="Arial" font-size="10.00">AbsorptionCapacity</text>
<polygon fill="none" stroke="black" points="300,-817 300,-837 360,-837 360,-817 300,-817"/>
<text text-anchor="start" x="333.5" y="-823.7" font-family="Arial" font-size="9.00">Good</text>
<polygon fill="white" stroke="none" points="360,-817 360,-837 451,-837 451,-817 360,-817"/>
<polygon fill="none" stroke="black" points="360,-817 360,-837 451,-837 451,-817 360,-817"/>
<polygon fill="#f3f4f6" stroke="none" points="364,-821 364,-833 447,-833 447,-821 364,-821"/>
<polygon fill="#4ade80" stroke="none" points="366,-823 366,-831 411,-831 411,-823 366,-823"/>
<polygon fill="#f3f4f6" stroke="none" points="411,-823 411,-831 445,-831 445,-823 411,-823"/>
<polygon fill="none" stroke="black" points="451,-817 451,-837 490,-837 490,-817 451,-817"/>
<text text-anchor="start" x="454.75" y="-823.7" font-family="Arial" font-size="9.00">56.67%</text>
<polygon fill="none" stroke="black" points="300,-797 300,-817 360,-817 360,-797 300,-797"/>
<text text-anchor="start" x="339.5" y="-803.7" font-family="Arial" font-size="9.00">Bad</text>
<polygon fill="white" stroke="none" points="360,-797 360,-817 451,-817 451,-797 360,-797"/>
<polygon fill="none" stroke="black" points="360,-797 360,-817 451,-817 451,-797 360,-797"/>
<polygon fill="#f3f4f6" stroke="none" points="364,-801 364,-813 447,-813 447,-801 364,-801"/>
<polygon fill="#4ade80" stroke="none" points="366,-803 366,-811 400,-811 400,-803 366,-803"/>
<polygon fill="#f3f4f6" stroke="none" points="400,-803 400,-811 445,-811 445,-803 400,-803"/>
<polygon fill="none" stroke="black" points="451,-797 451,-817 490,-817 490,-797 451,-797"/>
<text text-anchor="start" x="454.75" y="-803.7" font-family="Arial" font-size="9.00">43.33%</text>
</g>
<!-- roadPassibility&#45;&gt;AbsorptionCapacity -->
<g id="edge4" class="edge">
<title>roadPassibility&#45;&gt;AbsorptionCapacity</title>
<path fill="none" stroke="#64748b" stroke-width="0.8" d="M240.79,-901C311.63,-901 395,-901 395,-901 395,-901 395,-870.17 395,-870.17"/>
<polygon fill="#64748b" stroke="#64748b" stroke-width="0.8" points="398.5,-870.17 395,-860.17 391.5,-870.17 398.5,-870.17"/>
</g>
<!-- roadLoss -->
<g id="node4" class="node">
<title>roadLoss</title>
<polygon fill="none" stroke="#3b82f6" points="45,-837 45,-859 241,-859 241,-837 45,-837"/>
<text text-anchor="start" x="123.12" y="-844.5" font-family="Arial" font-size="10.00">roadLoss</text>
<polygon fill="none" stroke="#3b82f6" points="45,-817 45,-837 105,-837 105,-817 45,-817"/>
<text text-anchor="start" x="62" y="-823.7" font-family="Arial" font-size="9.00">Not_Loss</text>
<polygon fill="white" stroke="none" points="105,-817 105,-837 197,-837 197,-817 105,-817"/>
<polygon fill="none" stroke="#3b82f6" points="105,-817 105,-837 197,-837 197,-817 105,-817"/>
<polygon fill="#f3f4f6" stroke="none" points="109,-821 109,-833 193,-833 193,-821 109,-821"/>
<polygon fill="#4ade80" stroke="none" points="111,-823 111,-831 191,-831 191,-823 111,-823"/>
<polygon fill="none" stroke="#3b82f6" points="197,-817 197,-837 241,-837 241,-817 197,-817"/>
<text text-anchor="start" x="200.62" y="-823.7" font-family="Arial" font-size="9.00">100.00%</text>
<polygon fill="none" stroke="#3b82f6" points="45,-797 45,-817 105,-817 105,-797 45,-797"/>
<text text-anchor="start" x="81.5" y="-803.7" font-family="Arial" font-size="9.00">Loss</text>
<polygon fill="white" stroke="none" points="105,-797 105,-817 197,-817 197,-797 105,-797"/>
<polygon fill="none" stroke="#3b82f6" points="105,-797 105,-817 197,-817 197,-797 105,-797"/>
<polygon fill="#f3f4f6" stroke="none" points="109,-801 109,-813 193,-813 193,-801 109,-801"/>
<polygon fill="#f3f4f6" stroke="none" points="111,-803 111,-811 191,-811 191,-803 111,-803"/>
<polygon fill="none" stroke="#3b82f6" points="197,-797 197,-817 241,-817 241,-797 197,-797"/>
<text text-anchor="start" x="210.75" y="-803.7" font-family="Arial" font-size="9.00">0.00%</text>
</g>
<!-- roadLoss&#45;&gt;AbsorptionCapacity -->
<g id="edge1" class="edge">
<title>roadLoss&#45;&gt;AbsorptionCapacity</title>
<path fill="none" stroke="#64748b" stroke-width="0.8" d="M240.79,-828C240.79,-828 288.95,-828 288.95,-828"/>
<polygon fill="#64748b" stroke="#64748b" stroke-width="0.8" points="288.95,-831.5 298.95,-828 288.95,-824.5 288.95,-831.5"/>
</g>
<!-- AidResource -->
<g id="node5" class="node">
<title>AidResource</title>
<polygon fill="none" stroke="#3b82f6" points="45,-485 45,-507 241,-507 241,-485 45,-485"/>
<text text-anchor="start" x="114.88" y="-492.5" font-family="Arial" font-size="10.00">AidResource</text>
<polygon fill="none" stroke="#3b82f6" points="45,-465 45,-485 105,-485 105,-465 45,-465"/>
<text text-anchor="start" x="59.75" y="-471.7" font-family="Arial" font-size="9.00">Not_Used</text>
<polygon fill="white" stroke="none" points="105,-465 105,-485 197,-485 197,-465 105,-465"/>
<polygon fill="none" stroke="#3b82f6" points="105,-465 105,-485 197,-485 197,-465 105,-465"/>
<polygon fill="#f3f4f6" stroke="none" points="109,-469 109,-481 193,-481 193,-469 109,-469"/>
<polygon fill="#4ade80" stroke="none" points="111,-471 111,-479 191,-479 191,-471 111,-471"/>
<polygon fill="none" stroke="#3b82f6" points="197,-465 197,-485 241,-485 241,-465 197,-465"/>
<text text-anchor="start" x="200.62" y="-471.7" font-family="Arial" font-size="9.00">100.00%</text>
<polygon fill="none" stroke="#3b82f6" points="45,-445 45,-465 105,-465 105,-445 45,-445"/>
<text text-anchor="start" x="79.25" y="-451.7" font-family="Arial" font-size="9.00">Used</text>
<polygon fill="white" stroke="none" points="105,-445 105,-465 197,-465 197,-445 105,-445"/>
<polygon fill="none" stroke="#3b82f6" points="105,-445 105,-465 197,-465 197,-445 105,-445"/>
<polygon fill="#f3f4f6" stroke="none" points="109,-449 109,-461 193,-461 193,-449 109,-449"/>
<polygon fill="#f3f4f6" stroke="none" points="111,-451 111,-459 191,-459 191,-451 111,-451"/>
<polygon fill="none" stroke="#3b82f6" points="197,-445 197,-465 241,-465 241,-445 197,-445"/>
<text text-anchor="start" x="210.75" y="-451.7" font-family="Arial" font-size="9.00">0.00%</text>
</g>
<!-- AidResource&#45;&gt;RecoveryCapacity -->
<g id="edge10" class="edge">
<title>AidResource&#45;&gt;RecoveryCapacity</title>
<path fill="none" stroke="#64748b" stroke-width="0.8" d="M240.92,-476C299.77,-476 363.33,-476 363.33,-476 363.33,-476 363.33,-409.15 363.33,-409.15"/>
<polygon fill="#64748b" stroke="#64748b" stroke-width="0.8" points="366.83,-409.15 363.33,-399.15 359.83,-409.15 366.83,-409.15"/>
</g>
<!-- TowResource -->
<g id="node6" class="node">
<title>TowResource</title>
<polygon fill="none" stroke="#3b82f6" points="45,-412 45,-434 241,-434 241,-412 45,-412"/>
<text text-anchor="start" x="113" y="-419.5" font-family="Arial" font-size="10.00">TowResource</text>
<polygon fill="none" stroke="#3b82f6" points="45,-392 45,-412 105,-412 105,-392 45,-392"/>
<text text-anchor="start" x="59.75" y="-398.7" font-family="Arial" font-size="9.00">Not_Used</text>
<polygon fill="white" stroke="none" points="105,-392 105,-412 197,-412 197,-392 105,-392"/>
<polygon fill="none" stroke="#3b82f6" points="105,-392 105,-412 197,-412 197,-392 105,-392"/>
<polygon fill="#f3f4f6" stroke="none" points="109,-396 109,-408 193,-408 193,-396 109,-396"/>
<polygon fill="#4ade80" stroke="none" points="111,-398 111,-406 191,-406 191,-398 111,-398"/>
<polygon fill="none" stroke="#3b82f6" points="197,-392 197,-412 241,-412 241,-392 197,-392"/>
<text text-anchor="start" x="200.62" y="-398.7" font-family="Arial" font-size="9.00">100.00%</text>
<polygon fill="none" stroke="#3b82f6" points="45,-372 45,-392 105,-392 105,-372 45,-372"/>
<text text-anchor="start" x="79.25" y="-378.7" font-family="Arial" font-size="9.00">Used</text>
<polygon fill="white" stroke="none" points="105,-372 105,-392 197,-392 197,-372 105,-372"/>
<polygon fill="none" stroke="#3b82f6" points="105,-372 105,-392 197,-392 197,-372 105,-372"/>
<polygon fill="#f3f4f6" stroke="none" points="109,-376 109,-388 193,-388 193,-376 109,-376"/>
<polygon fill="#f3f4f6" stroke="none" points="111,-378 111,-386 191,-386 191,-378 111,-378"/>
<polygon fill="none" stroke="#3b82f6" points="197,-372 197,-392 241,-392 241,-372 197,-372"/>
<text text-anchor="start" x="210.75" y="-378.7" font-family="Arial" font-size="9.00">0.00%</text>
</g>
<!-- TowResource&#45;&gt;RecoveryCapacity -->
<g id="edge2" class="edge">
<title>TowResource&#45;&gt;RecoveryCapacity</title>
<path fill="none" stroke="#64748b" stroke-width="0.8" d="M240.79,-385C240.79,-385 288.95,-385 288.95,-385"/>
<polygon fill="#64748b" stroke="#64748b" stroke-width="0.8" points="288.95,-388.5 298.95,-385 288.95,-381.5 288.95,-388.5"/>
</g>
<!-- FirefightingResource -->
<g id="node7" class="node">
<title>FirefightingResource</title>
<polygon fill="none" stroke="#3b82f6" points="45,-339 45,-361 241,-361 241,-339 45,-339"/>
<text text-anchor="start" x="98" y="-346.5" font-family="Arial" font-size="10.00">FirefightingResource</text>
<polygon fill="none" stroke="#3b82f6" points="45,-319 45,-339 105,-339 105,-319 45,-319"/>
<text text-anchor="start" x="59.75" y="-325.7" font-family="Arial" font-size="9.00">Not_Used</text>
<polygon fill="white" stroke="none" points="105,-319 105,-339 197,-339 197,-319 105,-319"/>
<polygon fill="none" stroke="#3b82f6" points="105,-319 105,-339 197,-339 197,-319 105,-319"/>
<polygon fill="#f3f4f6" stroke="none" points="109,-323 109,-335 193,-335 193,-323 109,-323"/>
<polygon fill="#4ade80" stroke="none" points="111,-325 111,-333 191,-333 191,-325 111,-325"/>
<polygon fill="none" stroke="#3b82f6" points="197,-319 197,-339 241,-339 241,-319 197,-319"/>
<text text-anchor="start" x="200.62" y="-325.7" font-family="Arial" font-size="9.00">100.00%</text>
<polygon fill="none" stroke="#3b82f6" points="45,-299 45,-319 105,-319 105,-299 45,-299"/>
<text text-anchor="start" x="79.25" y="-305.7" font-family="Arial" font-size="9.00">Used</text>
<polygon fill="white" stroke="none" points="105,-299 105,-319 197,-319 197,-299 105,-299"/>
<polygon fill="none" stroke="#3b82f6" points="105,-299 105,-319 197,-319 197,-299 105,-299"/>
<polygon fill="#f3f4f6" stroke="none" points="109,-303 109,-315 193,-315 193,-303 109,-303"/>
<polygon fill="#f3f4f6" stroke="none" points="111,-305 111,-313 191,-313 191,-305 111,-305"/>
<polygon fill="none" stroke="#3b82f6" points="197,-299 197,-319 241,-319 241,-299 197,-299"/>
<text text-anchor="start" x="210.75" y="-305.7" font-family="Arial" font-size="9.00">0.00%</text>
</g>
<!-- FirefightingResource&#45;&gt;RecoveryCapacity -->
<g id="edge12" class="edge">
<title>FirefightingResource&#45;&gt;RecoveryCapacity</title>
<path fill="none" stroke="#64748b" stroke-width="0.8" d="M240.79,-348.5C240.79,-348.5 288.95,-348.5 288.95,-348.5"/>
<polygon fill="#64748b" stroke="#64748b" stroke-width="0.8" points="288.95,-352 298.95,-348.5 288.95,-345 288.95,-352"/>
</g>
<!-- RescueResource -->
<g id="node8" class="node">
<title>RescueResource</title>
<polygon fill="none" stroke="#3b82f6" points="45,-266 45,-288 241,-288 241,-266 45,-266"/>
<text text-anchor="start" x="105.12" y="-273.5" font-family="Arial" font-size="10.00">RescueResource</text>
<polygon fill="none" stroke="#3b82f6" points="45,-246 45,-266 105,-266 105,-246 45,-246"/>
<text text-anchor="start" x="59.75" y="-252.7" font-family="Arial" font-size="9.00">Not_Used</text>
<polygon fill="white" stroke="none" points="105,-246 105,-266 197,-266 197,-246 105,-246"/>
<polygon fill="none" stroke="#3b82f6" points="105,-246 105,-266 197,-266 197,-246 105,-246"/>
<polygon fill="#f3f4f6" stroke="none" points="109,-250 109,-262 193,-262 193,-250 109,-250"/>
<polygon fill="#4ade80" stroke="none" points="111,-252 111,-260 191,-260 191,-252 111,-252"/>
<polygon fill="none" stroke="#3b82f6" points="197,-246 197,-266 241,-266 241,-246 197,-246"/>
<text text-anchor="start" x="200.62" y="-252.7" font-family="Arial" font-size="9.00">100.00%</text>
<polygon fill="none" stroke="#3b82f6" points="45,-226 45,-246 105,-246 105,-226 45,-226"/>
<text text-anchor="start" x="79.25" y="-232.7" font-family="Arial" font-size="9.00">Used</text>
<polygon fill="white" stroke="none" points="105,-226 105,-246 197,-246 197,-226 105,-226"/>
<polygon fill="none" stroke="#3b82f6" points="105,-226 105,-246 197,-246 197,-226 105,-226"/>
<polygon fill="#f3f4f6" stroke="none" points="109,-230 109,-242 193,-242 193,-230 109,-230"/>
<polygon fill="#f3f4f6" stroke="none" points="111,-232 111,-240 191,-240 191,-232 111,-232"/>
<polygon fill="none" stroke="#3b82f6" points="197,-226 197,-246 241,-246 241,-226 197,-226"/>
<text text-anchor="start" x="210.75" y="-232.7" font-family="Arial" font-size="9.00">0.00%</text>
</g>
<!-- RescueResource&#45;&gt;RecoveryCapacity -->
<g id="edge5" class="edge">
<title>RescueResource&#45;&gt;RecoveryCapacity</title>
<path fill="none" stroke="#64748b" stroke-width="0.8" d="M240.76,-257C293.34,-257 347.5,-257 347.5,-257 347.5,-257 347.5,-324.86 347.5,-324.86"/>
<polygon fill="#64748b" stroke="#64748b" stroke-width="0.8" points="344,-324.86 347.5,-334.86 351,-324.86 344,-324.86"/>
</g>
<!-- disposalDuration -->
<g id="node9" class="node">
<title>disposalDuration</title>
<polygon fill="none" stroke="#3b82f6" points="45,-193 45,-215 241,-215 241,-193 45,-193"/>
<text text-anchor="start" x="106.62" y="-200.5" font-family="Arial" font-size="10.00">disposalDuration</text>
<polygon fill="none" stroke="#3b82f6" points="45,-173 45,-193 105,-193 105,-173 45,-173"/>
<text text-anchor="start" x="67.25" y="-179.7" font-family="Arial" font-size="9.00">0&#45;15min</text>
<polygon fill="white" stroke="none" points="105,-173 105,-193 197,-193 197,-173 105,-173"/>
<polygon fill="none" stroke="#3b82f6" points="105,-173 105,-193 197,-193 197,-173 105,-173"/>
<polygon fill="#f3f4f6" stroke="none" points="109,-177 109,-189 193,-189 193,-177 109,-177"/>
<polygon fill="#4ade80" stroke="none" points="111,-179 111,-187 191,-187 191,-179 111,-179"/>
<polygon fill="none" stroke="#3b82f6" points="197,-173 197,-193 241,-193 241,-173 197,-173"/>
<text text-anchor="start" x="200.62" y="-179.7" font-family="Arial" font-size="9.00">100.00%</text>
<polygon fill="none" stroke="#3b82f6" points="45,-153 45,-173 105,-173 105,-153 45,-153"/>
<text text-anchor="start" x="62" y="-159.7" font-family="Arial" font-size="9.00">15&#45;30min</text>
<polygon fill="white" stroke="none" points="105,-153 105,-173 197,-173 197,-153 105,-153"/>
<polygon fill="none" stroke="#3b82f6" points="105,-153 105,-173 197,-173 197,-153 105,-153"/>
<polygon fill="#f3f4f6" stroke="none" points="109,-157 109,-169 193,-169 193,-157 109,-157"/>
<polygon fill="#f3f4f6" stroke="none" points="111,-159 111,-167 191,-167 191,-159 111,-159"/>
<polygon fill="none" stroke="#3b82f6" points="197,-153 197,-173 241,-173 241,-153 197,-153"/>
<text text-anchor="start" x="210.75" y="-159.7" font-family="Arial" font-size="9.00">0.00%</text>
<polygon fill="none" stroke="#3b82f6" points="45,-133 45,-153 105,-153 105,-133 45,-133"/>
<text text-anchor="start" x="62" y="-139.7" font-family="Arial" font-size="9.00">30&#45;60min</text>
<polygon fill="white" stroke="none" points="105,-133 105,-153 197,-153 197,-133 105,-133"/>
<polygon fill="none" stroke="#3b82f6" points="105,-133 105,-153 197,-153 197,-133 105,-133"/>
<polygon fill="#f3f4f6" stroke="none" points="109,-137 109,-149 193,-149 193,-137 109,-137"/>
<polygon fill="#f3f4f6" stroke="none" points="111,-139 111,-147 191,-147 191,-139 111,-139"/>
<polygon fill="none" stroke="#3b82f6" points="197,-133 197,-153 241,-153 241,-133 197,-133"/>
<text text-anchor="start" x="210.75" y="-139.7" font-family="Arial" font-size="9.00">0.00%</text>
<polygon fill="none" stroke="#3b82f6" points="45,-113 45,-133 105,-133 105,-113 45,-113"/>
<text text-anchor="start" x="70.25" y="-119.7" font-family="Arial" font-size="9.00">60min+</text>
<polygon fill="white" stroke="none" points="105,-113 105,-133 197,-133 197,-113 105,-113"/>
<polygon fill="none" stroke="#3b82f6" points="105,-113 105,-133 197,-133 197,-113 105,-113"/>
<polygon fill="#f3f4f6" stroke="none" points="109,-117 109,-129 193,-129 193,-117 109,-117"/>
<polygon fill="#f3f4f6" stroke="none" points="111,-119 111,-127 191,-127 191,-119 111,-119"/>
<polygon fill="none" stroke="#3b82f6" points="197,-113 197,-133 241,-133 241,-113 197,-113"/>
<text text-anchor="start" x="210.75" y="-119.7" font-family="Arial" font-size="9.00">0.00%</text>
</g>
<!-- disposalDuration&#45;&gt;RecoveryCapacity -->
<g id="edge7" class="edge">
<title>disposalDuration&#45;&gt;RecoveryCapacity</title>
<path fill="none" stroke="#64748b" stroke-width="0.8" d="M240.79,-164C311.63,-164 395,-164 395,-164 395,-164 395,-324.96 395,-324.96"/>
<polygon fill="#64748b" stroke="#64748b" stroke-width="0.8" points="391.5,-324.96 395,-334.96 398.5,-324.96 391.5,-324.96"/>
</g>
<!-- emergencyPeriod -->
<g id="node10" class="node">
<title>emergencyPeriod</title>
<polygon fill="none" stroke="#3b82f6" points="41,-671 41,-693 245,-693 245,-671 41,-671"/>
<text text-anchor="start" x="105.12" y="-678.5" font-family="Arial" font-size="10.00">emergencyPeriod</text>
<polygon fill="none" stroke="#3b82f6" points="41,-651 41,-671 109,-671 109,-651 41,-651"/>
<text text-anchor="start" x="45" y="-657.7" font-family="Arial" font-size="9.00">Early_Morning</text>
<polygon fill="white" stroke="none" points="109,-651 109,-671 201,-671 201,-651 109,-651"/>
<polygon fill="none" stroke="#3b82f6" points="109,-651 109,-671 201,-671 201,-651 109,-651"/>
<polygon fill="#f3f4f6" stroke="none" points="113,-655 113,-667 197,-667 197,-655 113,-655"/>
<polygon fill="#f3f4f6" stroke="none" points="115,-657 115,-665 195,-665 195,-657 115,-657"/>
<polygon fill="none" stroke="#3b82f6" points="201,-651 201,-671 245,-671 245,-651 201,-651"/>
<text text-anchor="start" x="214.75" y="-657.7" font-family="Arial" font-size="9.00">0.00%</text>
<polygon fill="none" stroke="#3b82f6" points="41,-631 41,-651 109,-651 109,-631 41,-631"/>
<text text-anchor="start" x="71.25" y="-637.7" font-family="Arial" font-size="9.00">Morning</text>
<polygon fill="white" stroke="none" points="109,-631 109,-651 201,-651 201,-631 109,-631"/>
<polygon fill="none" stroke="#3b82f6" points="109,-631 109,-651 201,-651 201,-631 109,-631"/>
<polygon fill="#f3f4f6" stroke="none" points="113,-635 113,-647 197,-647 197,-635 113,-635"/>
<polygon fill="#4ade80" stroke="none" points="115,-637 115,-645 195,-645 195,-637 115,-637"/>
<polygon fill="none" stroke="#3b82f6" points="201,-631 201,-651 245,-651 245,-631 201,-631"/>
<text text-anchor="start" x="204.62" y="-637.7" font-family="Arial" font-size="9.00">100.00%</text>
<polygon fill="none" stroke="#3b82f6" points="41,-611 41,-631 109,-631 109,-611 41,-611"/>
<text text-anchor="start" x="65.25" y="-617.7" font-family="Arial" font-size="9.00">Afternoon</text>
<polygon fill="white" stroke="none" points="109,-611 109,-631 201,-631 201,-611 109,-611"/>
<polygon fill="none" stroke="#3b82f6" points="109,-611 109,-631 201,-631 201,-611 109,-611"/>
<polygon fill="#f3f4f6" stroke="none" points="113,-615 113,-627 197,-627 197,-615 113,-615"/>
<polygon fill="#f3f4f6" stroke="none" points="115,-617 115,-625 195,-625 195,-617 115,-617"/>
<polygon fill="none" stroke="#3b82f6" points="201,-611 201,-631 245,-631 245,-611 201,-611"/>
<text text-anchor="start" x="214.75" y="-617.7" font-family="Arial" font-size="9.00">0.00%</text>
<polygon fill="none" stroke="#3b82f6" points="41,-591 41,-611 109,-611 109,-591 41,-591"/>
<text text-anchor="start" x="71.25" y="-597.7" font-family="Arial" font-size="9.00">Evening</text>
<polygon fill="white" stroke="none" points="109,-591 109,-611 201,-611 201,-591 109,-591"/>
<polygon fill="none" stroke="#3b82f6" points="109,-591 109,-611 201,-611 201,-591 109,-591"/>
<polygon fill="#f3f4f6" stroke="none" points="113,-595 113,-607 197,-607 197,-595 113,-595"/>
<polygon fill="#f3f4f6" stroke="none" points="115,-597 115,-605 195,-605 195,-597 115,-597"/>
<polygon fill="none" stroke="#3b82f6" points="201,-591 201,-611 245,-611 245,-591 201,-591"/>
<text text-anchor="start" x="214.75" y="-597.7" font-family="Arial" font-size="9.00">0.00%</text>
</g>
<!-- emergencyPeriod&#45;&gt;AdaptionCapacity -->
<g id="edge9" class="edge">
<title>emergencyPeriod&#45;&gt;AdaptionCapacity</title>
<path fill="none" stroke="#64748b" stroke-width="0.8" d="M244.77,-678C244.77,-678 288.98,-678 288.98,-678"/>
<polygon fill="#64748b" stroke="#64748b" stroke-width="0.8" points="288.98,-681.5 298.98,-678 288.98,-674.5 288.98,-681.5"/>
</g>
<!-- responseDuration -->
<g id="node11" class="node">
<title>responseDuration</title>
<polygon fill="none" stroke="black" points="47.5,-80 47.5,-102 238.5,-102 238.5,-80 47.5,-80"/>
<text text-anchor="start" x="104.75" y="-87.5" font-family="Arial" font-size="10.00">responseDuration</text>
<polygon fill="none" stroke="black" points="47.5,-60 47.5,-80 107.5,-80 107.5,-60 47.5,-60"/>
<text text-anchor="start" x="69.75" y="-66.7" font-family="Arial" font-size="9.00">0&#45;15min</text>
<polygon fill="white" stroke="none" points="107.5,-60 107.5,-80 199.5,-80 199.5,-60 107.5,-60"/>
<polygon fill="none" stroke="black" points="107.5,-60 107.5,-80 199.5,-80 199.5,-60 107.5,-60"/>
<polygon fill="#f3f4f6" stroke="none" points="111.5,-64 111.5,-76 195.5,-76 195.5,-64 111.5,-64"/>
<polygon fill="#4ade80" stroke="none" points="113.5,-66 113.5,-74 177,-74 177,-66 113.5,-66"/>
<polygon fill="#f3f4f6" stroke="none" points="177,-66 177,-74 193.5,-74 193.5,-66 177,-66"/>
<polygon fill="none" stroke="black" points="199.5,-60 199.5,-80 238.5,-80 238.5,-60 199.5,-60"/>
<text text-anchor="start" x="203.25" y="-66.7" font-family="Arial" font-size="9.00">79.68%</text>
<polygon fill="none" stroke="black" points="47.5,-40 47.5,-60 107.5,-60 107.5,-40 47.5,-40"/>
<text text-anchor="start" x="64.5" y="-46.7" font-family="Arial" font-size="9.00">15&#45;30min</text>
<polygon fill="white" stroke="none" points="107.5,-40 107.5,-60 199.5,-60 199.5,-40 107.5,-40"/>
<polygon fill="none" stroke="black" points="107.5,-40 107.5,-60 199.5,-60 199.5,-40 107.5,-40"/>
<polygon fill="#f3f4f6" stroke="none" points="111.5,-44 111.5,-56 195.5,-56 195.5,-44 111.5,-44"/>
<polygon fill="#4ade80" stroke="none" points="113.5,-46 113.5,-54 130,-54 130,-46 113.5,-46"/>
<polygon fill="#f3f4f6" stroke="none" points="130,-46 130,-54 193.5,-54 193.5,-46 130,-46"/>
<polygon fill="none" stroke="black" points="199.5,-40 199.5,-60 238.5,-60 238.5,-40 199.5,-40"/>
<text text-anchor="start" x="203.25" y="-46.7" font-family="Arial" font-size="9.00">20.32%</text>
<polygon fill="none" stroke="black" points="47.5,-20 47.5,-40 107.5,-40 107.5,-20 47.5,-20"/>
<text text-anchor="start" x="64.5" y="-26.7" font-family="Arial" font-size="9.00">30&#45;60min</text>
<polygon fill="white" stroke="none" points="107.5,-20 107.5,-40 199.5,-40 199.5,-20 107.5,-20"/>
<polygon fill="none" stroke="black" points="107.5,-20 107.5,-40 199.5,-40 199.5,-20 107.5,-20"/>
<polygon fill="#f3f4f6" stroke="none" points="111.5,-24 111.5,-36 195.5,-36 195.5,-24 111.5,-24"/>
<polygon fill="#f3f4f6" stroke="none" points="113.5,-26 113.5,-34 193.5,-34 193.5,-26 113.5,-26"/>
<polygon fill="none" stroke="black" points="199.5,-20 199.5,-40 238.5,-40 238.5,-20 199.5,-20"/>
<text text-anchor="start" x="208.25" y="-26.7" font-family="Arial" font-size="9.00">0.00%</text>
<polygon fill="none" stroke="black" points="47.5,0 47.5,-20 107.5,-20 107.5,0 47.5,0"/>
<text text-anchor="start" x="72.75" y="-6.7" font-family="Arial" font-size="9.00">60min+</text>
<polygon fill="white" stroke="none" points="107.5,0 107.5,-20 199.5,-20 199.5,0 107.5,0"/>
<polygon fill="none" stroke="black" points="107.5,0 107.5,-20 199.5,-20 199.5,0 107.5,0"/>
<polygon fill="#f3f4f6" stroke="none" points="111.5,-4 111.5,-16 195.5,-16 195.5,-4 111.5,-4"/>
<polygon fill="#f3f4f6" stroke="none" points="113.5,-6 113.5,-14 193.5,-14 193.5,-6 113.5,-6"/>
<polygon fill="none" stroke="black" points="199.5,0 199.5,-20 238.5,-20 238.5,0 199.5,0"/>
<text text-anchor="start" x="208.25" y="-6.7" font-family="Arial" font-size="9.00">0.00%</text>
</g>
<!-- responseDuration&#45;&gt;RecoveryCapacity -->
<g id="edge11" class="edge">
<title>responseDuration&#45;&gt;RecoveryCapacity</title>
<path fill="none" stroke="#64748b" stroke-width="0.8" d="M238.18,-51C325.87,-51 442.5,-51 442.5,-51 442.5,-51 442.5,-324.91 442.5,-324.91"/>
<polygon fill="#64748b" stroke="#64748b" stroke-width="0.8" points="439,-324.91 442.5,-334.91 446,-324.91 439,-324.91"/>
</g>
<!-- ScenarioResilience -->
<g id="node15" class="node">
<title>ScenarioResilience</title>
<polygon fill="none" stroke="black" points="504,-703 504,-725 694,-725 694,-703 504,-703"/>
<text text-anchor="start" x="557" y="-710.5" font-family="Arial" font-size="10.00">ScenarioResilience</text>
<polygon fill="none" stroke="black" points="504,-683 504,-703 564,-703 564,-683 504,-683"/>
<text text-anchor="start" x="537.5" y="-689.7" font-family="Arial" font-size="9.00">Good</text>
<polygon fill="white" stroke="none" points="564,-683 564,-703 655,-703 655,-683 564,-683"/>
<polygon fill="none" stroke="black" points="564,-683 564,-703 655,-703 655,-683 564,-683"/>
<polygon fill="#f3f4f6" stroke="none" points="568,-687 568,-699 651,-699 651,-687 568,-687"/>
<polygon fill="#4ade80" stroke="none" points="570,-689 570,-697 619,-697 619,-689 570,-689"/>
<polygon fill="#f3f4f6" stroke="none" points="619,-689 619,-697 649,-697 649,-689 619,-689"/>
<polygon fill="none" stroke="black" points="655,-683 655,-703 694,-703 694,-683 655,-683"/>
<text text-anchor="start" x="658.75" y="-689.7" font-family="Arial" font-size="9.00">62.29%</text>
<polygon fill="none" stroke="black" points="504,-663 504,-683 564,-683 564,-663 504,-663"/>
<text text-anchor="start" x="543.5" y="-669.7" font-family="Arial" font-size="9.00">Bad</text>
<polygon fill="white" stroke="none" points="564,-663 564,-683 655,-683 655,-663 564,-663"/>
<polygon fill="none" stroke="black" points="564,-663 564,-683 655,-683 655,-663 564,-663"/>
<polygon fill="#f3f4f6" stroke="none" points="568,-667 568,-679 651,-679 651,-667 568,-667"/>
<polygon fill="#4ade80" stroke="none" points="570,-669 570,-677 600,-677 600,-669 570,-669"/>
<polygon fill="#f3f4f6" stroke="none" points="600,-669 600,-677 649,-677 649,-669 600,-669"/>
<polygon fill="none" stroke="black" points="655,-663 655,-683 694,-683 694,-663 655,-663"/>
<text text-anchor="start" x="658.75" y="-669.7" font-family="Arial" font-size="9.00">37.71%</text>
</g>
<!-- AbsorptionCapacity&#45;&gt;ScenarioResilience -->
<g id="edge13" class="edge">
<title>AbsorptionCapacity&#45;&gt;ScenarioResilience</title>
<path fill="none" stroke="#64748b" stroke-width="0.8" d="M489.83,-828C543.11,-828 599,-828 599,-828 599,-828 599,-735.95 599,-735.95"/>
<polygon fill="#64748b" stroke="#64748b" stroke-width="0.8" points="602.5,-735.95 599,-725.95 595.5,-735.95 602.5,-735.95"/>
</g>
<!-- AdaptionCapacity&#45;&gt;ScenarioResilience -->
<g id="edge6" class="edge">
<title>AdaptionCapacity&#45;&gt;ScenarioResilience</title>
<path fill="none" stroke="#64748b" stroke-width="0.8" d="M489.83,-694C489.83,-694 493,-694 493,-694"/>
<polygon fill="#64748b" stroke="#64748b" stroke-width="0.8" points="493,-697.5 503,-694 493,-690.5 493,-697.5"/>
</g>
<!-- RecoveryCapacity&#45;&gt;ScenarioResilience -->
<g id="edge8" class="edge">
<title>RecoveryCapacity&#45;&gt;ScenarioResilience</title>
<path fill="none" stroke="#64748b" stroke-width="0.8" d="M489.83,-367C543.11,-367 599,-367 599,-367 599,-367 599,-652.03 599,-652.03"/>
<polygon fill="#64748b" stroke="#64748b" stroke-width="0.8" points="595.5,-652.03 599,-662.03 602.5,-652.03 595.5,-652.03"/>
</g>
</g>
</svg>
