<?xml version="1.0" encoding="UTF-8" standalone="no"?>
<!DOCTYPE svg PUBLIC "-//W3C//DTD SVG 1.1//EN"
 "http://www.w3.org/Graphics/SVG/1.1/DTD/svg11.dtd">
<!-- Generated by graphviz version 12.1.2 (20240928.0832)
 -->
<!-- Pages: 1 -->
<svg width="701pt" height="939pt"
 viewBox="0.00 0.00 701.20 939.20" xmlns="http://www.w3.org/2000/svg" xmlns:xlink="http://www.w3.org/1999/xlink">
<g id="graph0" class="graph" transform="scale(1 1) rotate(0) translate(3.6 935.6)">
<polygon fill="white" stroke="none" points="-3.6,3.6 -3.6,-935.6 697.6,-935.6 697.6,3.6 -3.6,3.6"/>
<!-- casualties -->
<g id="node1" class="node">
<title>casualties</title>
<polygon fill="none" stroke="#3b82f6" points="41,-910 41,-932 245,-932 245,-910 41,-910"/>
<text text-anchor="start" x="120.88" y="-917.5" font-family="Arial" font-size="10.00">casualties</text>
<polygon fill="none" stroke="#3b82f6" points="41,-890 41,-910 109,-910 109,-890 41,-890"/>
<text text-anchor="start" x="44.62" y="-896.7" font-family="Arial" font-size="9.00">No_Casualties</text>
<polygon fill="white" stroke="none" points="109,-890 109,-910 201,-910 201,-890 109,-890"/>
<polygon fill="none" stroke="#3b82f6" points="109,-890 109,-910 201,-910 201,-890 109,-890"/>
<polygon fill="#f3f4f6" stroke="none" points="113,-894 113,-906 197,-906 197,-894 113,-894"/>
<polygon fill="#4ade80" stroke="none" points="115,-896 115,-904 195,-904 195,-896 115,-896"/>
<polygon fill="none" stroke="#3b82f6" points="201,-890 201,-910 245,-910 245,-890 201,-890"/>
<text text-anchor="start" x="204.62" y="-896.7" font-family="Arial" font-size="9.00">100.00%</text>
<polygon fill="none" stroke="#3b82f6" points="41,-870 41,-890 109,-890 109,-870 41,-870"/>
<text text-anchor="start" x="61.5" y="-876.7" font-family="Arial" font-size="9.00">Casualties</text>
<polygon fill="white" stroke="none" points="109,-870 109,-890 201,-890 201,-870 109,-870"/>
<polygon fill="none" stroke="#3b82f6" points="109,-870 109,-890 201,-890 201,-870 109,-870"/>
<polygon fill="#f3f4f6" stroke="none" points="113,-874 113,-886 197,-886 197,-874 113,-874"/>
<polygon fill="#f3f4f6" stroke="none" points="115,-876 115,-884 195,-884 195,-876 115,-876"/>
<polygon fill="none" stroke="#3b82f6" points="201,-870 201,-890 245,-890 245,-870 201,-870"/>
<text text-anchor="start" x="214.75" y="-876.7" font-family="Arial" font-size="9.00">0.00%</text>
</g>
<!-- AdaptionCapacity -->
<g id="node13" class="node">
<title>AdaptionCapacity</title>
<polygon fill="none" stroke="black" points="300,-775 300,-797 490,-797 490,-775 300,-775"/>
<text text-anchor="start" x="356.38" y="-782.5" font-family="Arial" font-size="10.00">AdaptionCapacity</text>
<polygon fill="none" stroke="black" points="300,-755 300,-775 360,-775 360,-755 300,-755"/>
<text text-anchor="start" x="333.5" y="-761.7" font-family="Arial" font-size="9.00">Good</text>
<polygon fill="white" stroke="none" points="360,-755 360,-775 451,-775 451,-755 360,-755"/>
<polygon fill="none" stroke="black" points="360,-755 360,-775 451,-775 451,-755 360,-755"/>
<polygon fill="#f3f4f6" stroke="none" points="364,-759 364,-771 447,-771 447,-759 364,-759"/>
<polygon fill="#4ade80" stroke="none" points="366,-761 366,-769 391,-769 391,-761 366,-761"/>
<polygon fill="#f3f4f6" stroke="none" points="391,-761 391,-769 445,-769 445,-761 391,-761"/>
<polygon fill="none" stroke="black" points="451,-755 451,-775 490,-775 490,-755 451,-755"/>
<text text-anchor="start" x="454.75" y="-761.7" font-family="Arial" font-size="9.00">32.08%</text>
<polygon fill="none" stroke="black" points="300,-735 300,-755 360,-755 360,-735 300,-735"/>
<text text-anchor="start" x="339.5" y="-741.7" font-family="Arial" font-size="9.00">Bad</text>
<polygon fill="white" stroke="none" points="360,-735 360,-755 451,-755 451,-735 360,-735"/>
<polygon fill="none" stroke="black" points="360,-735 360,-755 451,-755 451,-735 360,-735"/>
<polygon fill="#f3f4f6" stroke="none" points="364,-739 364,-751 447,-751 447,-739 364,-739"/>
<polygon fill="#4ade80" stroke="none" points="366,-741 366,-749 420,-749 420,-741 366,-741"/>
<polygon fill="#f3f4f6" stroke="none" points="420,-741 420,-749 445,-749 445,-741 420,-741"/>
<polygon fill="none" stroke="black" points="451,-735 451,-755 490,-755 490,-735 451,-735"/>
<text text-anchor="start" x="454.75" y="-741.7" font-family="Arial" font-size="9.00">67.92%</text>
</g>
<!-- casualties&#45;&gt;AdaptionCapacity -->
<g id="edge6" class="edge">
<title>casualties&#45;&gt;AdaptionCapacity</title>
<path fill="none" stroke="#64748b" stroke-width="0.8" d="M244.77,-901C314.71,-901 395,-901 395,-901 395,-901 395,-808.18 395,-808.18"/>
<polygon fill="#64748b" stroke="#64748b" stroke-width="0.8" points="398.5,-808.18 395,-798.18 391.5,-808.18 398.5,-808.18"/>
</g>
<!-- emergencyType -->
<g id="node2" class="node">
<title>emergencyType</title>
<polygon fill="none" stroke="#3b82f6" points="0,-837 0,-859 286,-859 286,-837 0,-837"/>
<text text-anchor="start" x="108.5" y="-844.5" font-family="Arial" font-size="10.00">emergencyType</text>
<polygon fill="none" stroke="#3b82f6" points="0,-817 0,-837 150,-837 150,-817 0,-817"/>
<text text-anchor="start" x="54.5" y="-823.7" font-family="Arial" font-size="9.00">Vehicle_Self_Accident</text>
<polygon fill="white" stroke="none" points="150,-817 150,-837 242,-837 242,-817 150,-817"/>
<polygon fill="none" stroke="#3b82f6" points="150,-817 150,-837 242,-837 242,-817 150,-817"/>
<polygon fill="#f3f4f6" stroke="none" points="154,-821 154,-833 238,-833 238,-821 154,-821"/>
<polygon fill="#f3f4f6" stroke="none" points="156,-823 156,-831 236,-831 236,-823 156,-823"/>
<polygon fill="none" stroke="#3b82f6" points="242,-817 242,-837 286,-837 286,-817 242,-817"/>
<text text-anchor="start" x="255.75" y="-823.7" font-family="Arial" font-size="9.00">0.00%</text>
<polygon fill="none" stroke="#3b82f6" points="0,-797 0,-817 150,-817 150,-797 0,-797"/>
<text text-anchor="start" x="3.75" y="-803.7" font-family="Arial" font-size="9.00">Vehicle_to_Fixed_Object_Accident</text>
<polygon fill="white" stroke="none" points="150,-797 150,-817 242,-817 242,-797 150,-797"/>
<polygon fill="none" stroke="#3b82f6" points="150,-797 150,-817 242,-817 242,-797 150,-797"/>
<polygon fill="#f3f4f6" stroke="none" points="154,-801 154,-813 238,-813 238,-801 154,-801"/>
<polygon fill="#f3f4f6" stroke="none" points="156,-803 156,-811 236,-811 236,-803 156,-803"/>
<polygon fill="none" stroke="#3b82f6" points="242,-797 242,-817 286,-817 286,-797 242,-797"/>
<text text-anchor="start" x="255.75" y="-803.7" font-family="Arial" font-size="9.00">0.00%</text>
<polygon fill="none" stroke="#3b82f6" points="0,-777 0,-797 150,-797 150,-777 0,-777"/>
<text text-anchor="start" x="69.5" y="-783.7" font-family="Arial" font-size="9.00">Collision_Accident</text>
<polygon fill="white" stroke="none" points="150,-777 150,-797 242,-797 242,-777 150,-777"/>
<polygon fill="none" stroke="#3b82f6" points="150,-777 150,-797 242,-797 242,-777 150,-777"/>
<polygon fill="#f3f4f6" stroke="none" points="154,-781 154,-793 238,-793 238,-781 154,-781"/>
<polygon fill="#4ade80" stroke="none" points="156,-783 156,-791 236,-791 236,-783 156,-783"/>
<polygon fill="none" stroke="#3b82f6" points="242,-777 242,-797 286,-797 286,-777 242,-777"/>
<text text-anchor="start" x="245.62" y="-783.7" font-family="Arial" font-size="9.00">100.00%</text>
</g>
<!-- emergencyType&#45;&gt;AdaptionCapacity -->
<g id="edge14" class="edge">
<title>emergencyType&#45;&gt;AdaptionCapacity</title>
<path fill="none" stroke="#64748b" stroke-width="0.8" d="M285.93,-787C285.93,-787 288.93,-787 288.93,-787"/>
<polygon fill="#64748b" stroke="#64748b" stroke-width="0.8" points="288.93,-790.5 298.93,-787 288.93,-783.5 288.93,-790.5"/>
</g>
<!-- roadPassibility -->
<g id="node3" class="node">
<title>roadPassibility</title>
<polygon fill="none" stroke="#3b82f6" points="45,-631 45,-653 241,-653 241,-631 45,-631"/>
<text text-anchor="start" x="111.12" y="-638.5" font-family="Arial" font-size="10.00">roadPassibility</text>
<polygon fill="none" stroke="#3b82f6" points="45,-611 45,-631 105,-631 105,-611 45,-611"/>
<text text-anchor="start" x="53.75" y="-617.7" font-family="Arial" font-size="9.00">Impassable</text>
<polygon fill="white" stroke="none" points="105,-611 105,-631 197,-631 197,-611 105,-611"/>
<polygon fill="none" stroke="#3b82f6" points="105,-611 105,-631 197,-631 197,-611 105,-611"/>
<polygon fill="#f3f4f6" stroke="none" points="109,-615 109,-627 193,-627 193,-615 109,-615"/>
<polygon fill="#4ade80" stroke="none" points="111,-617 111,-625 191,-625 191,-617 111,-617"/>
<polygon fill="none" stroke="#3b82f6" points="197,-611 197,-631 241,-631 241,-611 197,-611"/>
<text text-anchor="start" x="200.62" y="-617.7" font-family="Arial" font-size="9.00">100.00%</text>
<polygon fill="none" stroke="#3b82f6" points="45,-591 45,-611 105,-611 105,-591 45,-591"/>
<text text-anchor="start" x="62.75" y="-597.7" font-family="Arial" font-size="9.00">Passable</text>
<polygon fill="white" stroke="none" points="105,-591 105,-611 197,-611 197,-591 105,-591"/>
<polygon fill="none" stroke="#3b82f6" points="105,-591 105,-611 197,-611 197,-591 105,-591"/>
<polygon fill="#f3f4f6" stroke="none" points="109,-595 109,-607 193,-607 193,-595 109,-595"/>
<polygon fill="#f3f4f6" stroke="none" points="111,-597 111,-605 191,-605 191,-597 111,-597"/>
<polygon fill="none" stroke="#3b82f6" points="197,-591 197,-611 241,-611 241,-591 197,-591"/>
<text text-anchor="start" x="210.75" y="-597.7" font-family="Arial" font-size="9.00">0.00%</text>
</g>
<!-- AbsorptionCapacity -->
<g id="node12" class="node">
<title>AbsorptionCapacity</title>
<polygon fill="none" stroke="black" points="300,-594 300,-616 490,-616 490,-594 300,-594"/>
<text text-anchor="start" x="352.25" y="-601.5" font-family="Arial" font-size="10.00">AbsorptionCapacity</text>
<polygon fill="none" stroke="black" points="300,-574 300,-594 360,-594 360,-574 300,-574"/>
<text text-anchor="start" x="333.5" y="-580.7" font-family="Arial" font-size="9.00">Good</text>
<polygon fill="white" stroke="none" points="360,-574 360,-594 451,-594 451,-574 360,-574"/>
<polygon fill="none" stroke="black" points="360,-574 360,-594 451,-594 451,-574 360,-574"/>
<polygon fill="#f3f4f6" stroke="none" points="364,-578 364,-590 447,-590 447,-578 364,-578"/>
<polygon fill="#4ade80" stroke="none" points="366,-580 366,-588 418,-588 418,-580 366,-580"/>
<polygon fill="#f3f4f6" stroke="none" points="418,-580 418,-588 445,-588 445,-580 418,-580"/>
<polygon fill="none" stroke="black" points="451,-574 451,-594 490,-594 490,-574 451,-574"/>
<text text-anchor="start" x="454.75" y="-580.7" font-family="Arial" font-size="9.00">66.22%</text>
<polygon fill="none" stroke="black" points="300,-554 300,-574 360,-574 360,-554 300,-554"/>
<text text-anchor="start" x="339.5" y="-560.7" font-family="Arial" font-size="9.00">Bad</text>
<polygon fill="white" stroke="none" points="360,-554 360,-574 451,-574 451,-554 360,-554"/>
<polygon fill="none" stroke="black" points="360,-554 360,-574 451,-574 451,-554 360,-554"/>
<polygon fill="#f3f4f6" stroke="none" points="364,-558 364,-570 447,-570 447,-558 364,-558"/>
<polygon fill="#4ade80" stroke="none" points="366,-560 366,-568 393,-568 393,-560 366,-560"/>
<polygon fill="#f3f4f6" stroke="none" points="393,-560 393,-568 445,-568 445,-560 393,-560"/>
<polygon fill="none" stroke="black" points="451,-554 451,-574 490,-574 490,-554 451,-554"/>
<text text-anchor="start" x="454.75" y="-560.7" font-family="Arial" font-size="9.00">33.78%</text>
</g>
<!-- roadPassibility&#45;&gt;AbsorptionCapacity -->
<g id="edge3" class="edge">
<title>roadPassibility&#45;&gt;AbsorptionCapacity</title>
<path fill="none" stroke="#64748b" stroke-width="0.8" d="M240.79,-603.5C240.79,-603.5 288.95,-603.5 288.95,-603.5"/>
<polygon fill="#64748b" stroke="#64748b" stroke-width="0.8" points="288.95,-607 298.95,-603.5 288.95,-600 288.95,-607"/>
</g>
<!-- roadLoss -->
<g id="node4" class="node">
<title>roadLoss</title>
<polygon fill="none" stroke="#3b82f6" points="45,-558 45,-580 241,-580 241,-558 45,-558"/>
<text text-anchor="start" x="123.12" y="-565.5" font-family="Arial" font-size="10.00">roadLoss</text>
<polygon fill="none" stroke="#3b82f6" points="45,-538 45,-558 105,-558 105,-538 45,-538"/>
<text text-anchor="start" x="62" y="-544.7" font-family="Arial" font-size="9.00">Not_Loss</text>
<polygon fill="white" stroke="none" points="105,-538 105,-558 197,-558 197,-538 105,-538"/>
<polygon fill="none" stroke="#3b82f6" points="105,-538 105,-558 197,-558 197,-538 105,-538"/>
<polygon fill="#f3f4f6" stroke="none" points="109,-542 109,-554 193,-554 193,-542 109,-542"/>
<polygon fill="#4ade80" stroke="none" points="111,-544 111,-552 191,-552 191,-544 111,-544"/>
<polygon fill="none" stroke="#3b82f6" points="197,-538 197,-558 241,-558 241,-538 197,-538"/>
<text text-anchor="start" x="200.62" y="-544.7" font-family="Arial" font-size="9.00">100.00%</text>
<polygon fill="none" stroke="#3b82f6" points="45,-518 45,-538 105,-538 105,-518 45,-518"/>
<text text-anchor="start" x="81.5" y="-524.7" font-family="Arial" font-size="9.00">Loss</text>
<polygon fill="white" stroke="none" points="105,-518 105,-538 197,-538 197,-518 105,-518"/>
<polygon fill="none" stroke="#3b82f6" points="105,-518 105,-538 197,-538 197,-518 105,-518"/>
<polygon fill="#f3f4f6" stroke="none" points="109,-522 109,-534 193,-534 193,-522 109,-522"/>
<polygon fill="#f3f4f6" stroke="none" points="111,-524 111,-532 191,-532 191,-524 111,-524"/>
<polygon fill="none" stroke="#3b82f6" points="197,-518 197,-538 241,-538 241,-518 197,-518"/>
<text text-anchor="start" x="210.75" y="-524.7" font-family="Arial" font-size="9.00">0.00%</text>
</g>
<!-- roadLoss&#45;&gt;AbsorptionCapacity -->
<g id="edge1" class="edge">
<title>roadLoss&#45;&gt;AbsorptionCapacity</title>
<path fill="none" stroke="#64748b" stroke-width="0.8" d="M240.79,-567C240.79,-567 288.95,-567 288.95,-567"/>
<polygon fill="#64748b" stroke="#64748b" stroke-width="0.8" points="288.95,-570.5 298.95,-567 288.95,-563.5 288.95,-570.5"/>
</g>
<!-- AidResource -->
<g id="node5" class="node">
<title>AidResource</title>
<polygon fill="none" stroke="#3b82f6" points="45,-485 45,-507 241,-507 241,-485 45,-485"/>
<text text-anchor="start" x="114.88" y="-492.5" font-family="Arial" font-size="10.00">AidResource</text>
<polygon fill="none" stroke="#3b82f6" points="45,-465 45,-485 105,-485 105,-465 45,-465"/>
<text text-anchor="start" x="59.75" y="-471.7" font-family="Arial" font-size="9.00">Not_Used</text>
<polygon fill="white" stroke="none" points="105,-465 105,-485 197,-485 197,-465 105,-465"/>
<polygon fill="none" stroke="#3b82f6" points="105,-465 105,-485 197,-485 197,-465 105,-465"/>
<polygon fill="#f3f4f6" stroke="none" points="109,-469 109,-481 193,-481 193,-469 109,-469"/>
<polygon fill="#4ade80" stroke="none" points="111,-471 111,-479 191,-479 191,-471 111,-471"/>
<polygon fill="none" stroke="#3b82f6" points="197,-465 197,-485 241,-485 241,-465 197,-465"/>
<text text-anchor="start" x="200.62" y="-471.7" font-family="Arial" font-size="9.00">100.00%</text>
<polygon fill="none" stroke="#3b82f6" points="45,-445 45,-465 105,-465 105,-445 45,-445"/>
<text text-anchor="start" x="79.25" y="-451.7" font-family="Arial" font-size="9.00">Used</text>
<polygon fill="white" stroke="none" points="105,-445 105,-465 197,-465 197,-445 105,-445"/>
<polygon fill="none" stroke="#3b82f6" points="105,-445 105,-465 197,-465 197,-445 105,-445"/>
<polygon fill="#f3f4f6" stroke="none" points="109,-449 109,-461 193,-461 193,-449 109,-449"/>
<polygon fill="#f3f4f6" stroke="none" points="111,-451 111,-459 191,-459 191,-451 111,-451"/>
<polygon fill="none" stroke="#3b82f6" points="197,-445 197,-465 241,-465 241,-445 197,-445"/>
<text text-anchor="start" x="210.75" y="-451.7" font-family="Arial" font-size="9.00">0.00%</text>
</g>
<!-- RecoveryCapacity -->
<g id="node14" class="node">
<title>RecoveryCapacity</title>
<polygon fill="none" stroke="black" points="300,-339 300,-361 490,-361 490,-339 300,-339"/>
<text text-anchor="start" x="354.5" y="-346.5" font-family="Arial" font-size="10.00">RecoveryCapacity</text>
<polygon fill="none" stroke="black" points="300,-319 300,-339 360,-339 360,-319 300,-319"/>
<text text-anchor="start" x="333.5" y="-325.7" font-family="Arial" font-size="9.00">Good</text>
<polygon fill="white" stroke="none" points="360,-319 360,-339 451,-339 451,-319 360,-319"/>
<polygon fill="none" stroke="black" points="360,-319 360,-339 451,-339 451,-319 360,-319"/>
<polygon fill="#f3f4f6" stroke="none" points="364,-323 364,-335 447,-335 447,-323 364,-323"/>
<polygon fill="#4ade80" stroke="none" points="366,-325 366,-333 394,-333 394,-325 366,-325"/>
<polygon fill="#f3f4f6" stroke="none" points="394,-325 394,-333 445,-333 445,-325 394,-325"/>
<polygon fill="none" stroke="black" points="451,-319 451,-339 490,-339 490,-319 451,-319"/>
<text text-anchor="start" x="454.75" y="-325.7" font-family="Arial" font-size="9.00">35.55%</text>
<polygon fill="none" stroke="black" points="300,-299 300,-319 360,-319 360,-299 300,-299"/>
<text text-anchor="start" x="339.5" y="-305.7" font-family="Arial" font-size="9.00">Bad</text>
<polygon fill="white" stroke="none" points="360,-299 360,-319 451,-319 451,-299 360,-299"/>
<polygon fill="none" stroke="black" points="360,-299 360,-319 451,-319 451,-299 360,-299"/>
<polygon fill="#f3f4f6" stroke="none" points="364,-303 364,-315 447,-315 447,-303 364,-303"/>
<polygon fill="#4ade80" stroke="none" points="366,-305 366,-313 417,-313 417,-305 366,-305"/>
<polygon fill="#f3f4f6" stroke="none" points="417,-305 417,-313 445,-313 445,-305 417,-305"/>
<polygon fill="none" stroke="black" points="451,-299 451,-319 490,-319 490,-299 451,-299"/>
<text text-anchor="start" x="454.75" y="-305.7" font-family="Arial" font-size="9.00">64.45%</text>
</g>
<!-- AidResource&#45;&gt;RecoveryCapacity -->
<g id="edge10" class="edge">
<title>AidResource&#45;&gt;RecoveryCapacity</title>
<path fill="none" stroke="#64748b" stroke-width="0.8" d="M240.62,-476C322.68,-476 426.67,-476 426.67,-476 426.67,-476 426.67,-372.17 426.67,-372.17"/>
<polygon fill="#64748b" stroke="#64748b" stroke-width="0.8" points="430.17,-372.17 426.67,-362.17 423.17,-372.17 430.17,-372.17"/>
</g>
<!-- TowResource -->
<g id="node6" class="node">
<title>TowResource</title>
<polygon fill="none" stroke="#3b82f6" points="45,-412 45,-434 241,-434 241,-412 45,-412"/>
<text text-anchor="start" x="113" y="-419.5" font-family="Arial" font-size="10.00">TowResource</text>
<polygon fill="none" stroke="#3b82f6" points="45,-392 45,-412 105,-412 105,-392 45,-392"/>
<text text-anchor="start" x="59.75" y="-398.7" font-family="Arial" font-size="9.00">Not_Used</text>
<polygon fill="white" stroke="none" points="105,-392 105,-412 197,-412 197,-392 105,-392"/>
<polygon fill="none" stroke="#3b82f6" points="105,-392 105,-412 197,-412 197,-392 105,-392"/>
<polygon fill="#f3f4f6" stroke="none" points="109,-396 109,-408 193,-408 193,-396 109,-396"/>
<polygon fill="#4ade80" stroke="none" points="111,-398 111,-406 191,-406 191,-398 111,-398"/>
<polygon fill="none" stroke="#3b82f6" points="197,-392 197,-412 241,-412 241,-392 197,-392"/>
<text text-anchor="start" x="200.62" y="-398.7" font-family="Arial" font-size="9.00">100.00%</text>
<polygon fill="none" stroke="#3b82f6" points="45,-372 45,-392 105,-392 105,-372 45,-372"/>
<text text-anchor="start" x="79.25" y="-378.7" font-family="Arial" font-size="9.00">Used</text>
<polygon fill="white" stroke="none" points="105,-372 105,-392 197,-392 197,-372 105,-372"/>
<polygon fill="none" stroke="#3b82f6" points="105,-372 105,-392 197,-392 197,-372 105,-372"/>
<polygon fill="#f3f4f6" stroke="none" points="109,-376 109,-388 193,-388 193,-376 109,-376"/>
<polygon fill="#f3f4f6" stroke="none" points="111,-378 111,-386 191,-386 191,-378 111,-378"/>
<polygon fill="none" stroke="#3b82f6" points="197,-372 197,-392 241,-392 241,-372 197,-372"/>
<text text-anchor="start" x="210.75" y="-378.7" font-family="Arial" font-size="9.00">0.00%</text>
</g>
<!-- TowResource&#45;&gt;RecoveryCapacity -->
<g id="edge2" class="edge">
<title>TowResource&#45;&gt;RecoveryCapacity</title>
<path fill="none" stroke="#64748b" stroke-width="0.8" d="M240.92,-403C299.77,-403 363.33,-403 363.33,-403 363.33,-403 363.33,-372.17 363.33,-372.17"/>
<polygon fill="#64748b" stroke="#64748b" stroke-width="0.8" points="366.83,-372.17 363.33,-362.17 359.83,-372.17 366.83,-372.17"/>
</g>
<!-- FirefightingResource -->
<g id="node7" class="node">
<title>FirefightingResource</title>
<polygon fill="none" stroke="#3b82f6" points="45,-339 45,-361 241,-361 241,-339 45,-339"/>
<text text-anchor="start" x="98" y="-346.5" font-family="Arial" font-size="10.00">FirefightingResource</text>
<polygon fill="none" stroke="#3b82f6" points="45,-319 45,-339 105,-339 105,-319 45,-319"/>
<text text-anchor="start" x="59.75" y="-325.7" font-family="Arial" font-size="9.00">Not_Used</text>
<polygon fill="white" stroke="none" points="105,-319 105,-339 197,-339 197,-319 105,-319"/>
<polygon fill="none" stroke="#3b82f6" points="105,-319 105,-339 197,-339 197,-319 105,-319"/>
<polygon fill="#f3f4f6" stroke="none" points="109,-323 109,-335 193,-335 193,-323 109,-323"/>
<polygon fill="#4ade80" stroke="none" points="111,-325 111,-333 191,-333 191,-325 111,-325"/>
<polygon fill="none" stroke="#3b82f6" points="197,-319 197,-339 241,-339 241,-319 197,-319"/>
<text text-anchor="start" x="200.62" y="-325.7" font-family="Arial" font-size="9.00">100.00%</text>
<polygon fill="none" stroke="#3b82f6" points="45,-299 45,-319 105,-319 105,-299 45,-299"/>
<text text-anchor="start" x="79.25" y="-305.7" font-family="Arial" font-size="9.00">Used</text>
<polygon fill="white" stroke="none" points="105,-299 105,-319 197,-319 197,-299 105,-299"/>
<polygon fill="none" stroke="#3b82f6" points="105,-299 105,-319 197,-319 197,-299 105,-299"/>
<polygon fill="#f3f4f6" stroke="none" points="109,-303 109,-315 193,-315 193,-303 109,-303"/>
<polygon fill="#f3f4f6" stroke="none" points="111,-305 111,-313 191,-313 191,-305 111,-305"/>
<polygon fill="none" stroke="#3b82f6" points="197,-299 197,-319 241,-319 241,-299 197,-299"/>
<text text-anchor="start" x="210.75" y="-305.7" font-family="Arial" font-size="9.00">0.00%</text>
</g>
<!-- FirefightingResource&#45;&gt;RecoveryCapacity -->
<g id="edge12" class="edge">
<title>FirefightingResource&#45;&gt;RecoveryCapacity</title>
<path fill="none" stroke="#64748b" stroke-width="0.8" d="M240.79,-330C240.79,-330 288.95,-330 288.95,-330"/>
<polygon fill="#64748b" stroke="#64748b" stroke-width="0.8" points="288.95,-333.5 298.95,-330 288.95,-326.5 288.95,-333.5"/>
</g>
<!-- RescueResource -->
<g id="node8" class="node">
<title>RescueResource</title>
<polygon fill="none" stroke="#3b82f6" points="45,-266 45,-288 241,-288 241,-266 45,-266"/>
<text text-anchor="start" x="105.12" y="-273.5" font-family="Arial" font-size="10.00">RescueResource</text>
<polygon fill="none" stroke="#3b82f6" points="45,-246 45,-266 105,-266 105,-246 45,-246"/>
<text text-anchor="start" x="59.75" y="-252.7" font-family="Arial" font-size="9.00">Not_Used</text>
<polygon fill="white" stroke="none" points="105,-246 105,-266 197,-266 197,-246 105,-246"/>
<polygon fill="none" stroke="#3b82f6" points="105,-246 105,-266 197,-266 197,-246 105,-246"/>
<polygon fill="#f3f4f6" stroke="none" points="109,-250 109,-262 193,-262 193,-250 109,-250"/>
<polygon fill="#4ade80" stroke="none" points="111,-252 111,-260 191,-260 191,-252 111,-252"/>
<polygon fill="none" stroke="#3b82f6" points="197,-246 197,-266 241,-266 241,-246 197,-246"/>
<text text-anchor="start" x="200.62" y="-252.7" font-family="Arial" font-size="9.00">100.00%</text>
<polygon fill="none" stroke="#3b82f6" points="45,-226 45,-246 105,-246 105,-226 45,-226"/>
<text text-anchor="start" x="79.25" y="-232.7" font-family="Arial" font-size="9.00">Used</text>
<polygon fill="white" stroke="none" points="105,-226 105,-246 197,-246 197,-226 105,-226"/>
<polygon fill="none" stroke="#3b82f6" points="105,-226 105,-246 197,-246 197,-226 105,-226"/>
<polygon fill="#f3f4f6" stroke="none" points="109,-230 109,-242 193,-242 193,-230 109,-230"/>
<polygon fill="#f3f4f6" stroke="none" points="111,-232 111,-240 191,-240 191,-232 111,-232"/>
<polygon fill="none" stroke="#3b82f6" points="197,-226 197,-246 241,-246 241,-226 197,-226"/>
<text text-anchor="start" x="210.75" y="-232.7" font-family="Arial" font-size="9.00">0.00%</text>
</g>
<!-- RescueResource&#45;&gt;RecoveryCapacity -->
<g id="edge4" class="edge">
<title>RescueResource&#45;&gt;RecoveryCapacity</title>
<path fill="none" stroke="#64748b" stroke-width="0.8" d="M240.76,-257C293.34,-257 347.5,-257 347.5,-257 347.5,-257 347.5,-287.83 347.5,-287.83"/>
<polygon fill="#64748b" stroke="#64748b" stroke-width="0.8" points="344,-287.83 347.5,-297.83 351,-287.83 344,-287.83"/>
</g>
<!-- disposalDuration -->
<g id="node9" class="node">
<title>disposalDuration</title>
<polygon fill="none" stroke="black" points="48,-193 48,-215 238,-215 238,-193 48,-193"/>
<text text-anchor="start" x="106.62" y="-200.5" font-family="Arial" font-size="10.00">disposalDuration</text>
<polygon fill="none" stroke="black" points="48,-173 48,-193 108,-193 108,-173 48,-173"/>
<text text-anchor="start" x="70.25" y="-179.7" font-family="Arial" font-size="9.00">0&#45;15min</text>
<polygon fill="white" stroke="none" points="108,-173 108,-193 199,-193 199,-173 108,-173"/>
<polygon fill="none" stroke="black" points="108,-173 108,-193 199,-193 199,-173 108,-173"/>
<polygon fill="#f3f4f6" stroke="none" points="112,-177 112,-189 195,-189 195,-177 112,-177"/>
<polygon fill="#4ade80" stroke="none" points="114,-179 114,-187 128,-187 128,-179 114,-179"/>
<polygon fill="#f3f4f6" stroke="none" points="128,-179 128,-187 193,-187 193,-179 128,-179"/>
<polygon fill="none" stroke="black" points="199,-173 199,-193 238,-193 238,-173 199,-173"/>
<text text-anchor="start" x="202.75" y="-179.7" font-family="Arial" font-size="9.00">17.57%</text>
<polygon fill="none" stroke="black" points="48,-153 48,-173 108,-173 108,-153 48,-153"/>
<text text-anchor="start" x="65" y="-159.7" font-family="Arial" font-size="9.00">15&#45;30min</text>
<polygon fill="white" stroke="none" points="108,-153 108,-173 199,-173 199,-153 108,-153"/>
<polygon fill="none" stroke="black" points="108,-153 108,-173 199,-173 199,-153 108,-153"/>
<polygon fill="#f3f4f6" stroke="none" points="112,-157 112,-169 195,-169 195,-157 112,-157"/>
<polygon fill="#4ade80" stroke="none" points="114,-159 114,-167 134,-167 134,-159 114,-159"/>
<polygon fill="#f3f4f6" stroke="none" points="134,-159 134,-167 193,-167 193,-159 134,-159"/>
<polygon fill="none" stroke="black" points="199,-153 199,-173 238,-173 238,-153 199,-153"/>
<text text-anchor="start" x="202.75" y="-159.7" font-family="Arial" font-size="9.00">25.80%</text>
<polygon fill="none" stroke="black" points="48,-133 48,-153 108,-153 108,-133 48,-133"/>
<text text-anchor="start" x="65" y="-139.7" font-family="Arial" font-size="9.00">30&#45;60min</text>
<polygon fill="white" stroke="none" points="108,-133 108,-153 199,-153 199,-133 108,-133"/>
<polygon fill="none" stroke="black" points="108,-133 108,-153 199,-153 199,-133 108,-133"/>
<polygon fill="#f3f4f6" stroke="none" points="112,-137 112,-149 195,-149 195,-137 112,-137"/>
<polygon fill="#4ade80" stroke="none" points="114,-139 114,-147 150,-147 150,-139 114,-139"/>
<polygon fill="#f3f4f6" stroke="none" points="150,-139 150,-147 193,-147 193,-139 150,-139"/>
<polygon fill="none" stroke="black" points="199,-133 199,-153 238,-153 238,-133 199,-133"/>
<text text-anchor="start" x="202.75" y="-139.7" font-family="Arial" font-size="9.00">45.07%</text>
<polygon fill="none" stroke="black" points="48,-113 48,-133 108,-133 108,-113 48,-113"/>
<text text-anchor="start" x="73.25" y="-119.7" font-family="Arial" font-size="9.00">60min+</text>
<polygon fill="white" stroke="none" points="108,-113 108,-133 199,-133 199,-113 108,-113"/>
<polygon fill="none" stroke="black" points="108,-113 108,-133 199,-133 199,-113 108,-113"/>
<polygon fill="#f3f4f6" stroke="none" points="112,-117 112,-129 195,-129 195,-117 112,-117"/>
<polygon fill="#4ade80" stroke="none" points="114,-119 114,-127 123,-127 123,-119 114,-119"/>
<polygon fill="#f3f4f6" stroke="none" points="123,-119 123,-127 193,-127 193,-119 123,-119"/>
<polygon fill="none" stroke="black" points="199,-113 199,-133 238,-133 238,-113 199,-113"/>
<text text-anchor="start" x="203.25" y="-119.7" font-family="Arial" font-size="9.00">11.56%</text>
</g>
<!-- disposalDuration&#45;&gt;RecoveryCapacity -->
<g id="edge8" class="edge">
<title>disposalDuration&#45;&gt;RecoveryCapacity</title>
<path fill="none" stroke="#64748b" stroke-width="0.8" d="M237.91,-164C309.35,-164 395,-164 395,-164 395,-164 395,-287.95 395,-287.95"/>
<polygon fill="#64748b" stroke="#64748b" stroke-width="0.8" points="391.5,-287.95 395,-297.95 398.5,-287.95 391.5,-287.95"/>
</g>
<!-- emergencyPeriod -->
<g id="node10" class="node">
<title>emergencyPeriod</title>
<polygon fill="none" stroke="#3b82f6" points="41,-744 41,-766 245,-766 245,-744 41,-744"/>
<text text-anchor="start" x="105.12" y="-751.5" font-family="Arial" font-size="10.00">emergencyPeriod</text>
<polygon fill="none" stroke="#3b82f6" points="41,-724 41,-744 109,-744 109,-724 41,-724"/>
<text text-anchor="start" x="45" y="-730.7" font-family="Arial" font-size="9.00">Early_Morning</text>
<polygon fill="white" stroke="none" points="109,-724 109,-744 201,-744 201,-724 109,-724"/>
<polygon fill="none" stroke="#3b82f6" points="109,-724 109,-744 201,-744 201,-724 109,-724"/>
<polygon fill="#f3f4f6" stroke="none" points="113,-728 113,-740 197,-740 197,-728 113,-728"/>
<polygon fill="#f3f4f6" stroke="none" points="115,-730 115,-738 195,-738 195,-730 115,-730"/>
<polygon fill="none" stroke="#3b82f6" points="201,-724 201,-744 245,-744 245,-724 201,-724"/>
<text text-anchor="start" x="214.75" y="-730.7" font-family="Arial" font-size="9.00">0.00%</text>
<polygon fill="none" stroke="#3b82f6" points="41,-704 41,-724 109,-724 109,-704 41,-704"/>
<text text-anchor="start" x="71.25" y="-710.7" font-family="Arial" font-size="9.00">Morning</text>
<polygon fill="white" stroke="none" points="109,-704 109,-724 201,-724 201,-704 109,-704"/>
<polygon fill="none" stroke="#3b82f6" points="109,-704 109,-724 201,-724 201,-704 109,-704"/>
<polygon fill="#f3f4f6" stroke="none" points="113,-708 113,-720 197,-720 197,-708 113,-708"/>
<polygon fill="#f3f4f6" stroke="none" points="115,-710 115,-718 195,-718 195,-710 115,-710"/>
<polygon fill="none" stroke="#3b82f6" points="201,-704 201,-724 245,-724 245,-704 201,-704"/>
<text text-anchor="start" x="214.75" y="-710.7" font-family="Arial" font-size="9.00">0.00%</text>
<polygon fill="none" stroke="#3b82f6" points="41,-684 41,-704 109,-704 109,-684 41,-684"/>
<text text-anchor="start" x="65.25" y="-690.7" font-family="Arial" font-size="9.00">Afternoon</text>
<polygon fill="white" stroke="none" points="109,-684 109,-704 201,-704 201,-684 109,-684"/>
<polygon fill="none" stroke="#3b82f6" points="109,-684 109,-704 201,-704 201,-684 109,-684"/>
<polygon fill="#f3f4f6" stroke="none" points="113,-688 113,-700 197,-700 197,-688 113,-688"/>
<polygon fill="#4ade80" stroke="none" points="115,-690 115,-698 195,-698 195,-690 115,-690"/>
<polygon fill="none" stroke="#3b82f6" points="201,-684 201,-704 245,-704 245,-684 201,-684"/>
<text text-anchor="start" x="204.62" y="-690.7" font-family="Arial" font-size="9.00">100.00%</text>
<polygon fill="none" stroke="#3b82f6" points="41,-664 41,-684 109,-684 109,-664 41,-664"/>
<text text-anchor="start" x="71.25" y="-670.7" font-family="Arial" font-size="9.00">Evening</text>
<polygon fill="white" stroke="none" points="109,-664 109,-684 201,-684 201,-664 109,-664"/>
<polygon fill="none" stroke="#3b82f6" points="109,-664 109,-684 201,-684 201,-664 109,-664"/>
<polygon fill="#f3f4f6" stroke="none" points="113,-668 113,-680 197,-680 197,-668 113,-668"/>
<polygon fill="#f3f4f6" stroke="none" points="115,-670 115,-678 195,-678 195,-670 115,-670"/>
<polygon fill="none" stroke="#3b82f6" points="201,-664 201,-684 245,-684 245,-664 201,-664"/>
<text text-anchor="start" x="214.75" y="-670.7" font-family="Arial" font-size="9.00">0.00%</text>
</g>
<!-- emergencyPeriod&#45;&gt;AdaptionCapacity -->
<g id="edge9" class="edge">
<title>emergencyPeriod&#45;&gt;AdaptionCapacity</title>
<path fill="none" stroke="#64748b" stroke-width="0.8" d="M244.77,-750.5C244.77,-750.5 288.98,-750.5 288.98,-750.5"/>
<polygon fill="#64748b" stroke="#64748b" stroke-width="0.8" points="288.98,-754 298.98,-750.5 288.98,-747 288.98,-754"/>
</g>
<!-- responseDuration -->
<g id="node11" class="node">
<title>responseDuration</title>
<polygon fill="none" stroke="black" points="47.5,-80 47.5,-102 238.5,-102 238.5,-80 47.5,-80"/>
<text text-anchor="start" x="104.75" y="-87.5" font-family="Arial" font-size="10.00">responseDuration</text>
<polygon fill="none" stroke="black" points="47.5,-60 47.5,-80 107.5,-80 107.5,-60 47.5,-60"/>
<text text-anchor="start" x="69.75" y="-66.7" font-family="Arial" font-size="9.00">0&#45;15min</text>
<polygon fill="white" stroke="none" points="107.5,-60 107.5,-80 199.5,-80 199.5,-60 107.5,-60"/>
<polygon fill="none" stroke="black" points="107.5,-60 107.5,-80 199.5,-80 199.5,-60 107.5,-60"/>
<polygon fill="#f3f4f6" stroke="none" points="111.5,-64 111.5,-76 195.5,-76 195.5,-64 111.5,-64"/>
<polygon fill="#4ade80" stroke="none" points="113.5,-66 113.5,-74 177,-74 177,-66 113.5,-66"/>
<polygon fill="#f3f4f6" stroke="none" points="177,-66 177,-74 193.5,-74 193.5,-66 177,-66"/>
<polygon fill="none" stroke="black" points="199.5,-60 199.5,-80 238.5,-80 238.5,-60 199.5,-60"/>
<text text-anchor="start" x="203.25" y="-66.7" font-family="Arial" font-size="9.00">79.68%</text>
<polygon fill="none" stroke="black" points="47.5,-40 47.5,-60 107.5,-60 107.5,-40 47.5,-40"/>
<text text-anchor="start" x="64.5" y="-46.7" font-family="Arial" font-size="9.00">15&#45;30min</text>
<polygon fill="white" stroke="none" points="107.5,-40 107.5,-60 199.5,-60 199.5,-40 107.5,-40"/>
<polygon fill="none" stroke="black" points="107.5,-40 107.5,-60 199.5,-60 199.5,-40 107.5,-40"/>
<polygon fill="#f3f4f6" stroke="none" points="111.5,-44 111.5,-56 195.5,-56 195.5,-44 111.5,-44"/>
<polygon fill="#4ade80" stroke="none" points="113.5,-46 113.5,-54 130,-54 130,-46 113.5,-46"/>
<polygon fill="#f3f4f6" stroke="none" points="130,-46 130,-54 193.5,-54 193.5,-46 130,-46"/>
<polygon fill="none" stroke="black" points="199.5,-40 199.5,-60 238.5,-60 238.5,-40 199.5,-40"/>
<text text-anchor="start" x="203.25" y="-46.7" font-family="Arial" font-size="9.00">20.32%</text>
<polygon fill="none" stroke="black" points="47.5,-20 47.5,-40 107.5,-40 107.5,-20 47.5,-20"/>
<text text-anchor="start" x="64.5" y="-26.7" font-family="Arial" font-size="9.00">30&#45;60min</text>
<polygon fill="white" stroke="none" points="107.5,-20 107.5,-40 199.5,-40 199.5,-20 107.5,-20"/>
<polygon fill="none" stroke="black" points="107.5,-20 107.5,-40 199.5,-40 199.5,-20 107.5,-20"/>
<polygon fill="#f3f4f6" stroke="none" points="111.5,-24 111.5,-36 195.5,-36 195.5,-24 111.5,-24"/>
<polygon fill="#f3f4f6" stroke="none" points="113.5,-26 113.5,-34 193.5,-34 193.5,-26 113.5,-26"/>
<polygon fill="none" stroke="black" points="199.5,-20 199.5,-40 238.5,-40 238.5,-20 199.5,-20"/>
<text text-anchor="start" x="208.25" y="-26.7" font-family="Arial" font-size="9.00">0.00%</text>
<polygon fill="none" stroke="black" points="47.5,0 47.5,-20 107.5,-20 107.5,0 47.5,0"/>
<text text-anchor="start" x="72.75" y="-6.7" font-family="Arial" font-size="9.00">60min+</text>
<polygon fill="white" stroke="none" points="107.5,0 107.5,-20 199.5,-20 199.5,0 107.5,0"/>
<polygon fill="none" stroke="black" points="107.5,0 107.5,-20 199.5,-20 199.5,0 107.5,0"/>
<polygon fill="#f3f4f6" stroke="none" points="111.5,-4 111.5,-16 195.5,-16 195.5,-4 111.5,-4"/>
<polygon fill="#f3f4f6" stroke="none" points="113.5,-6 113.5,-14 193.5,-14 193.5,-6 113.5,-6"/>
<polygon fill="none" stroke="black" points="199.5,0 199.5,-20 238.5,-20 238.5,0 199.5,0"/>
<text text-anchor="start" x="208.25" y="-6.7" font-family="Arial" font-size="9.00">0.00%</text>
</g>
<!-- responseDuration&#45;&gt;RecoveryCapacity -->
<g id="edge11" class="edge">
<title>responseDuration&#45;&gt;RecoveryCapacity</title>
<path fill="none" stroke="#64748b" stroke-width="0.8" d="M238.18,-51C325.87,-51 442.5,-51 442.5,-51 442.5,-51 442.5,-287.87 442.5,-287.87"/>
<polygon fill="#64748b" stroke="#64748b" stroke-width="0.8" points="439,-287.87 442.5,-297.87 446,-287.87 439,-287.87"/>
</g>
<!-- ScenarioResilience -->
<g id="node15" class="node">
<title>ScenarioResilience</title>
<polygon fill="none" stroke="black" points="504,-594 504,-616 694,-616 694,-594 504,-594"/>
<text text-anchor="start" x="557" y="-601.5" font-family="Arial" font-size="10.00">ScenarioResilience</text>
<polygon fill="none" stroke="black" points="504,-574 504,-594 564,-594 564,-574 504,-574"/>
<text text-anchor="start" x="537.5" y="-580.7" font-family="Arial" font-size="9.00">Good</text>
<polygon fill="white" stroke="none" points="564,-574 564,-594 655,-594 655,-574 564,-574"/>
<polygon fill="none" stroke="black" points="564,-574 564,-594 655,-594 655,-574 564,-574"/>
<polygon fill="#f3f4f6" stroke="none" points="568,-578 568,-590 651,-590 651,-578 568,-578"/>
<polygon fill="#4ade80" stroke="none" points="570,-580 570,-588 616,-588 616,-580 570,-580"/>
<polygon fill="#f3f4f6" stroke="none" points="616,-580 616,-588 649,-588 649,-580 616,-580"/>
<polygon fill="none" stroke="black" points="655,-574 655,-594 694,-594 694,-574 655,-574"/>
<text text-anchor="start" x="658.75" y="-580.7" font-family="Arial" font-size="9.00">57.68%</text>
<polygon fill="none" stroke="black" points="504,-554 504,-574 564,-574 564,-554 504,-554"/>
<text text-anchor="start" x="543.5" y="-560.7" font-family="Arial" font-size="9.00">Bad</text>
<polygon fill="white" stroke="none" points="564,-554 564,-574 655,-574 655,-554 564,-554"/>
<polygon fill="none" stroke="black" points="564,-554 564,-574 655,-574 655,-554 564,-554"/>
<polygon fill="#f3f4f6" stroke="none" points="568,-558 568,-570 651,-570 651,-558 568,-558"/>
<polygon fill="#4ade80" stroke="none" points="570,-560 570,-568 603,-568 603,-560 570,-560"/>
<polygon fill="#f3f4f6" stroke="none" points="603,-560 603,-568 649,-568 649,-560 603,-560"/>
<polygon fill="none" stroke="black" points="655,-554 655,-574 694,-574 694,-554 655,-554"/>
<text text-anchor="start" x="658.75" y="-560.7" font-family="Arial" font-size="9.00">42.32%</text>
</g>
<!-- AbsorptionCapacity&#45;&gt;ScenarioResilience -->
<g id="edge13" class="edge">
<title>AbsorptionCapacity&#45;&gt;ScenarioResilience</title>
<path fill="none" stroke="#64748b" stroke-width="0.8" d="M489.83,-585C489.83,-585 493,-585 493,-585"/>
<polygon fill="#64748b" stroke="#64748b" stroke-width="0.8" points="493,-588.5 503,-585 493,-581.5 493,-588.5"/>
</g>
<!-- AdaptionCapacity&#45;&gt;ScenarioResilience -->
<g id="edge5" class="edge">
<title>AdaptionCapacity&#45;&gt;ScenarioResilience</title>
<path fill="none" stroke="#64748b" stroke-width="0.8" d="M489.83,-766C543.11,-766 599,-766 599,-766 599,-766 599,-626.92 599,-626.92"/>
<polygon fill="#64748b" stroke="#64748b" stroke-width="0.8" points="602.5,-626.91 599,-616.92 595.5,-626.92 602.5,-626.91"/>
</g>
<!-- RecoveryCapacity&#45;&gt;ScenarioResilience -->
<g id="edge7" class="edge">
<title>RecoveryCapacity&#45;&gt;ScenarioResilience</title>
<path fill="none" stroke="#64748b" stroke-width="0.8" d="M489.83,-330C543.11,-330 599,-330 599,-330 599,-330 599,-543.03 599,-543.03"/>
<polygon fill="#64748b" stroke="#64748b" stroke-width="0.8" points="595.5,-543.03 599,-553.03 602.5,-543.03 595.5,-543.03"/>
</g>
</g>
</svg>
