<?xml version="1.0" encoding="UTF-8" standalone="no"?>
<!DOCTYPE svg PUBLIC "-//W3C//DTD SVG 1.1//EN"
 "http://www.w3.org/Graphics/SVG/1.1/DTD/svg11.dtd">
<!-- Generated by graphviz version 12.1.2 (20240928.0832)
 -->
<!-- Pages: 1 -->
<svg width="331pt" height="359pt"
 viewBox="0.00 0.00 330.70 359.20" xmlns="http://www.w3.org/2000/svg" xmlns:xlink="http://www.w3.org/1999/xlink">
<g id="graph0" class="graph" transform="scale(1 1) rotate(0) translate(3.6 355.6)">
<polygon fill="white" stroke="none" points="-3.6,3.6 -3.6,-355.6 327.1,-355.6 327.1,3.6 -3.6,3.6"/>
<!-- casualties -->
<g id="node1" class="node">
<title>casualties</title>
<polygon fill="none" stroke="black" points="22.88,-330 22.88,-352 79.12,-352 79.12,-330 22.88,-330"/>
<text text-anchor="start" x="28.88" y="-337.5" font-family="Arial" font-size="10.00">casualties</text>
</g>
<!-- AdaptionCapacity -->
<g id="node13" class="node">
<title>AdaptionCapacity</title>
<polygon fill="none" stroke="black" points="120.12,-280 120.12,-302 209.38,-302 209.38,-280 120.12,-280"/>
<text text-anchor="start" x="126.12" y="-287.5" font-family="Arial" font-size="10.00">AdaptionCapacity</text>
</g>
<!-- casualties&#45;&gt;AdaptionCapacity -->
<g id="edge6" class="edge">
<title>casualties&#45;&gt;AdaptionCapacity</title>
<path fill="none" stroke="#64748b" stroke-width="0.8" d="M79.12,-341C112.8,-341 164.75,-341 164.75,-341 164.75,-341 164.75,-312.81 164.75,-312.81"/>
<polygon fill="#64748b" stroke="#64748b" stroke-width="0.8" points="168.25,-312.81 164.75,-302.81 161.25,-312.81 168.25,-312.81"/>
</g>
<!-- emergencyType -->
<g id="node2" class="node">
<title>emergencyType</title>
<polygon fill="none" stroke="black" points="10.5,-297 10.5,-319 91.5,-319 91.5,-297 10.5,-297"/>
<text text-anchor="start" x="16.5" y="-304.5" font-family="Arial" font-size="10.00">emergencyType</text>
</g>
<!-- emergencyType&#45;&gt;AdaptionCapacity -->
<g id="edge14" class="edge">
<title>emergencyType&#45;&gt;AdaptionCapacity</title>
<path fill="none" stroke="#64748b" stroke-width="0.8" d="M37.5,-297.03C37.5,-294.91 37.5,-293.33 37.5,-293.33 37.5,-293.33 109.03,-293.33 109.03,-293.33"/>
<polygon fill="#64748b" stroke="#64748b" stroke-width="0.8" points="109.03,-296.83 119.03,-293.33 109.03,-289.83 109.03,-296.83"/>
</g>
<!-- roadPassibility -->
<g id="node3" class="node">
<title>roadPassibility</title>
<polygon fill="none" stroke="black" points="13.12,-231 13.12,-253 88.88,-253 88.88,-231 13.12,-231"/>
<text text-anchor="start" x="19.12" y="-238.5" font-family="Arial" font-size="10.00">roadPassibility</text>
</g>
<!-- AbsorptionCapacity -->
<g id="node12" class="node">
<title>AbsorptionCapacity</title>
<polygon fill="none" stroke="black" points="116,-214 116,-236 213.5,-236 213.5,-214 116,-214"/>
<text text-anchor="start" x="122" y="-221.5" font-family="Arial" font-size="10.00">AbsorptionCapacity</text>
</g>
<!-- roadPassibility&#45;&gt;AbsorptionCapacity -->
<g id="edge3" class="edge">
<title>roadPassibility&#45;&gt;AbsorptionCapacity</title>
<path fill="none" stroke="#64748b" stroke-width="0.8" d="M81,-231.03C81,-228.91 81,-227.33 81,-227.33 81,-227.33 104.82,-227.33 104.82,-227.33"/>
<polygon fill="#64748b" stroke="#64748b" stroke-width="0.8" points="104.82,-230.83 114.82,-227.33 104.82,-223.83 104.82,-230.83"/>
</g>
<!-- roadLoss -->
<g id="node4" class="node">
<title>roadLoss</title>
<polygon fill="none" stroke="black" points="25.12,-198 25.12,-220 76.88,-220 76.88,-198 25.12,-198"/>
<text text-anchor="start" x="31.12" y="-205.5" font-family="Arial" font-size="10.00">roadLoss</text>
</g>
<!-- roadLoss&#45;&gt;AbsorptionCapacity -->
<g id="edge1" class="edge">
<title>roadLoss&#45;&gt;AbsorptionCapacity</title>
<path fill="none" stroke="#64748b" stroke-width="0.8" d="M51,-219.97C51,-222.09 51,-223.67 51,-223.67 51,-223.67 104.97,-223.67 104.97,-223.67"/>
<polygon fill="#64748b" stroke="#64748b" stroke-width="0.8" points="104.97,-227.17 114.97,-223.67 104.97,-220.17 104.97,-227.17"/>
</g>
<!-- AidResource -->
<g id="node5" class="node">
<title>AidResource</title>
<polygon fill="none" stroke="black" points="16.88,-165 16.88,-187 85.12,-187 85.12,-165 16.88,-165"/>
<text text-anchor="start" x="22.88" y="-172.5" font-family="Arial" font-size="10.00">AidResource</text>
</g>
<!-- RecoveryCapacity -->
<g id="node14" class="node">
<title>RecoveryCapacity</title>
<polygon fill="none" stroke="black" points="118.25,-99 118.25,-121 211.25,-121 211.25,-99 118.25,-99"/>
<text text-anchor="start" x="124.25" y="-106.5" font-family="Arial" font-size="10.00">RecoveryCapacity</text>
</g>
<!-- AidResource&#45;&gt;RecoveryCapacity -->
<g id="edge10" class="edge">
<title>AidResource&#45;&gt;RecoveryCapacity</title>
<path fill="none" stroke="#64748b" stroke-width="0.8" d="M84.96,-176C123.25,-176 180.25,-176 180.25,-176 180.25,-176 180.25,-132.11 180.25,-132.11"/>
<polygon fill="#64748b" stroke="#64748b" stroke-width="0.8" points="183.75,-132.11 180.25,-122.11 176.75,-132.11 183.75,-132.11"/>
</g>
<!-- TowResource -->
<g id="node6" class="node">
<title>TowResource</title>
<polygon fill="none" stroke="black" points="15,-132 15,-154 87,-154 87,-132 15,-132"/>
<text text-anchor="start" x="21" y="-139.5" font-family="Arial" font-size="10.00">TowResource</text>
</g>
<!-- TowResource&#45;&gt;RecoveryCapacity -->
<g id="edge2" class="edge">
<title>TowResource&#45;&gt;RecoveryCapacity</title>
<path fill="none" stroke="#64748b" stroke-width="0.8" d="M86.75,-143C114.84,-143 149.25,-143 149.25,-143 149.25,-143 149.25,-132.02 149.25,-132.02"/>
<polygon fill="#64748b" stroke="#64748b" stroke-width="0.8" points="152.75,-132.02 149.25,-122.02 145.75,-132.02 152.75,-132.02"/>
</g>
<!-- FirefightingResource -->
<g id="node7" class="node">
<title>FirefightingResource</title>
<polygon fill="none" stroke="black" points="0,-99 0,-121 102,-121 102,-99 0,-99"/>
<text text-anchor="start" x="6" y="-106.5" font-family="Arial" font-size="10.00">FirefightingResource</text>
</g>
<!-- FirefightingResource&#45;&gt;RecoveryCapacity -->
<g id="edge12" class="edge">
<title>FirefightingResource&#45;&gt;RecoveryCapacity</title>
<path fill="none" stroke="#64748b" stroke-width="0.8" d="M101.89,-110C101.89,-110 107.37,-110 107.37,-110"/>
<polygon fill="#64748b" stroke="#64748b" stroke-width="0.8" points="107.37,-113.5 117.37,-110 107.37,-106.5 107.37,-113.5"/>
</g>
<!-- RescueResource -->
<g id="node8" class="node">
<title>RescueResource</title>
<polygon fill="none" stroke="black" points="7.12,-66 7.12,-88 94.88,-88 94.88,-66 7.12,-66"/>
<text text-anchor="start" x="13.12" y="-73.5" font-family="Arial" font-size="10.00">RescueResource</text>
</g>
<!-- RescueResource&#45;&gt;RecoveryCapacity -->
<g id="edge4" class="edge">
<title>RescueResource&#45;&gt;RecoveryCapacity</title>
<path fill="none" stroke="#64748b" stroke-width="0.8" d="M94.66,-77C117.8,-77 141.5,-77 141.5,-77 141.5,-77 141.5,-87.98 141.5,-87.98"/>
<polygon fill="#64748b" stroke="#64748b" stroke-width="0.8" points="138,-87.98 141.5,-97.98 145,-87.98 138,-87.98"/>
</g>
<!-- disposalDuration -->
<g id="node9" class="node">
<title>disposalDuration</title>
<polygon fill="none" stroke="black" points="8.62,-33 8.62,-55 93.38,-55 93.38,-33 8.62,-33"/>
<text text-anchor="start" x="14.62" y="-40.5" font-family="Arial" font-size="10.00">disposalDuration</text>
</g>
<!-- disposalDuration&#45;&gt;RecoveryCapacity -->
<g id="edge8" class="edge">
<title>disposalDuration&#45;&gt;RecoveryCapacity</title>
<path fill="none" stroke="#64748b" stroke-width="0.8" d="M93.36,-44C125.7,-44 164.75,-44 164.75,-44 164.75,-44 164.75,-87.89 164.75,-87.89"/>
<polygon fill="#64748b" stroke="#64748b" stroke-width="0.8" points="161.25,-87.89 164.75,-97.89 168.25,-87.89 161.25,-87.89"/>
</g>
<!-- emergencyPeriod -->
<g id="node10" class="node">
<title>emergencyPeriod</title>
<polygon fill="none" stroke="black" points="7.12,-264 7.12,-286 94.88,-286 94.88,-264 7.12,-264"/>
<text text-anchor="start" x="13.12" y="-271.5" font-family="Arial" font-size="10.00">emergencyPeriod</text>
</g>
<!-- emergencyPeriod&#45;&gt;AdaptionCapacity -->
<g id="edge9" class="edge">
<title>emergencyPeriod&#45;&gt;AdaptionCapacity</title>
<path fill="none" stroke="#64748b" stroke-width="0.8" d="M64.5,-285.97C64.5,-288.09 64.5,-289.67 64.5,-289.67 64.5,-289.67 108.98,-289.67 108.98,-289.67"/>
<polygon fill="#64748b" stroke="#64748b" stroke-width="0.8" points="108.98,-293.17 118.98,-289.67 108.98,-286.17 108.98,-293.17"/>
</g>
<!-- responseDuration -->
<g id="node11" class="node">
<title>responseDuration</title>
<polygon fill="none" stroke="black" points="6.75,0 6.75,-22 95.25,-22 95.25,0 6.75,0"/>
<text text-anchor="start" x="12.75" y="-7.5" font-family="Arial" font-size="10.00">responseDuration</text>
</g>
<!-- responseDuration&#45;&gt;RecoveryCapacity -->
<g id="edge11" class="edge">
<title>responseDuration&#45;&gt;RecoveryCapacity</title>
<path fill="none" stroke="#64748b" stroke-width="0.8" d="M95.1,-11C135.15,-11 188,-11 188,-11 188,-11 188,-87.82 188,-87.82"/>
<polygon fill="#64748b" stroke="#64748b" stroke-width="0.8" points="184.5,-87.82 188,-97.82 191.5,-87.82 184.5,-87.82"/>
</g>
<!-- ScenarioResilience -->
<g id="node15" class="node">
<title>ScenarioResilience</title>
<polygon fill="none" stroke="black" points="227.5,-214 227.5,-236 323.5,-236 323.5,-214 227.5,-214"/>
<text text-anchor="start" x="233.5" y="-221.5" font-family="Arial" font-size="10.00">ScenarioResilience</text>
</g>
<!-- AbsorptionCapacity&#45;&gt;ScenarioResilience -->
<g id="edge13" class="edge">
<title>AbsorptionCapacity&#45;&gt;ScenarioResilience</title>
<path fill="none" stroke="#64748b" stroke-width="0.8" d="M213.33,-225C213.33,-225 216.47,-225 216.47,-225"/>
<polygon fill="#64748b" stroke="#64748b" stroke-width="0.8" points="216.47,-228.5 226.47,-225 216.47,-221.5 216.47,-228.5"/>
</g>
<!-- AdaptionCapacity&#45;&gt;ScenarioResilience -->
<g id="edge5" class="edge">
<title>AdaptionCapacity&#45;&gt;ScenarioResilience</title>
<path fill="none" stroke="#64748b" stroke-width="0.8" d="M209.16,-291C239.97,-291 275.5,-291 275.5,-291 275.5,-291 275.5,-247.11 275.5,-247.11"/>
<polygon fill="#64748b" stroke="#64748b" stroke-width="0.8" points="279,-247.11 275.5,-237.11 272,-247.11 279,-247.11"/>
</g>
<!-- RecoveryCapacity&#45;&gt;ScenarioResilience -->
<g id="edge7" class="edge">
<title>RecoveryCapacity&#45;&gt;ScenarioResilience</title>
<path fill="none" stroke="#64748b" stroke-width="0.8" d="M211.08,-110C241.42,-110 275.5,-110 275.5,-110 275.5,-110 275.5,-203.18 275.5,-203.18"/>
<polygon fill="#64748b" stroke="#64748b" stroke-width="0.8" points="272,-203.18 275.5,-213.18 279,-203.18 272,-203.18"/>
</g>
</g>
</svg>
