<?xml version="1.0" encoding="UTF-8" standalone="no"?>
<!DOCTYPE svg PUBLIC "-//W3C//DTD SVG 1.1//EN"
 "http://www.w3.org/Graphics/SVG/1.1/DTD/svg11.dtd">
<!-- Generated by graphviz version 12.1.2 (20240928.0832)
 -->
<!-- Title: G Pages: 1 -->
<svg width="980pt" height="454pt"
 viewBox="0.00 0.00 980.00 453.50" xmlns="http://www.w3.org/2000/svg" xmlns:xlink="http://www.w3.org/1999/xlink">
<g id="graph0" class="graph" transform="scale(1 1) rotate(0) translate(4 449.5)">
<title>G</title>
<polygon fill="white" stroke="none" points="-4,4 -4,-449.5 976,-449.5 976,4 -4,4"/>
<!-- node0000 -->
<g id="node1" class="node">
<title>node0000</title>
<ellipse fill="none" stroke="black" cx="666" cy="-409.5" rx="36" ry="36"/>
<text text-anchor="middle" x="666" y="-405.62" font-family="Times New Roman,serif" font-size="10.00">Thing</text>
</g>
<!-- node0001 -->
<g id="node2" class="node">
<title>node0001</title>
<ellipse fill="none" stroke="black" cx="396" cy="-285" rx="36" ry="36"/>
<text text-anchor="middle" x="396" y="-281.12" font-family="Times New Roman,serif" font-size="10.00">ScenarioElement</text>
</g>
<!-- node0001&#45;&gt;node0000 -->
<g id="edge1" class="edge">
<title>node0001&#45;&gt;node0000</title>
<path fill="none" stroke="black" d="M428.84,-300.9C477.59,-323.02 569.14,-364.55 623.12,-389.04"/>
<polygon fill="black" stroke="black" points="621.46,-392.14 632.01,-393.08 624.35,-385.76 621.46,-392.14"/>
<text text-anchor="middle" x="556.54" y="-342.2" font-family="Times New Roman,serif" font-size="14.00">is a</text>
</g>
<!-- node0002 -->
<g id="node3" class="node">
<title>node0002</title>
<ellipse fill="none" stroke="black" cx="666" cy="-285" rx="36" ry="36"/>
<text text-anchor="middle" x="666" y="-281.12" font-family="Times New Roman,serif" font-size="10.00">ElementCompositions</text>
</g>
<!-- node0002&#45;&gt;node0000 -->
<g id="edge2" class="edge">
<title>node0002&#45;&gt;node0000</title>
<path fill="none" stroke="black" d="M666,-321.43C666,-334 666,-348.35 666,-361.72"/>
<polygon fill="black" stroke="black" points="662.5,-361.63 666,-371.63 669.5,-361.63 662.5,-361.63"/>
<text text-anchor="middle" x="675.38" y="-342.2" font-family="Times New Roman,serif" font-size="14.00">is a</text>
</g>
<!-- node0003 -->
<g id="node4" class="node">
<title>node0003</title>
<ellipse fill="none" stroke="black" cx="846" cy="-285" rx="36" ry="36"/>
<text text-anchor="middle" x="846" y="-281.12" font-family="Times New Roman,serif" font-size="10.00">ElementState</text>
</g>
<!-- node0003&#45;&gt;node0000 -->
<g id="edge3" class="edge">
<title>node0003&#45;&gt;node0000</title>
<path fill="none" stroke="black" d="M816.68,-305.95C786.31,-326.63 738.67,-359.04 705.11,-381.89"/>
<polygon fill="black" stroke="black" points="703.16,-378.98 696.86,-387.5 707.1,-384.77 703.16,-378.98"/>
<text text-anchor="middle" x="776.15" y="-342.2" font-family="Times New Roman,serif" font-size="14.00">is a</text>
</g>
<!-- node0004 -->
<g id="node5" class="node">
<title>node0004</title>
<ellipse fill="none" stroke="black" cx="171" cy="-160.5" rx="36" ry="36"/>
<text text-anchor="middle" x="171" y="-156.62" font-family="Times New Roman,serif" font-size="10.00">AffectedElement</text>
</g>
<!-- node0004&#45;&gt;node0001 -->
<g id="edge4" class="edge">
<title>node0004&#45;&gt;node0001</title>
<path fill="none" stroke="black" d="M202.29,-178.53C241.97,-200.14 310.52,-237.46 354.53,-261.42"/>
<polygon fill="black" stroke="black" points="352.83,-264.48 363.29,-266.19 356.18,-258.34 352.83,-264.48"/>
<text text-anchor="middle" x="306.35" y="-217.7" font-family="Times New Roman,serif" font-size="14.00">is a</text>
</g>
<!-- node0005 -->
<g id="node6" class="node">
<title>node0005</title>
<ellipse fill="none" stroke="black" cx="306" cy="-160.5" rx="36" ry="36"/>
<text text-anchor="middle" x="306" y="-156.62" font-family="Times New Roman,serif" font-size="10.00">HazardElement</text>
</g>
<!-- node0005&#45;&gt;node0001 -->
<g id="edge5" class="edge">
<title>node0005&#45;&gt;node0001</title>
<path fill="none" stroke="black" d="M327.1,-190.22C339.4,-206.96 355.06,-228.27 368.33,-246.34"/>
<polygon fill="black" stroke="black" points="365.39,-248.25 374.14,-254.24 371.03,-244.11 365.39,-248.25"/>
<text text-anchor="middle" x="365.76" y="-217.7" font-family="Times New Roman,serif" font-size="14.00">is a</text>
</g>
<!-- node0006 -->
<g id="node7" class="node">
<title>node0006</title>
<ellipse fill="none" stroke="black" cx="396" cy="-160.5" rx="36" ry="36"/>
<text text-anchor="middle" x="396" y="-156.62" font-family="Times New Roman,serif" font-size="10.00">EnvironmentElement</text>
</g>
<!-- node0006&#45;&gt;node0001 -->
<g id="edge6" class="edge">
<title>node0006&#45;&gt;node0001</title>
<path fill="none" stroke="black" d="M396,-196.93C396,-209.5 396,-223.85 396,-237.22"/>
<polygon fill="black" stroke="black" points="392.5,-237.13 396,-247.13 399.5,-237.13 392.5,-237.13"/>
<text text-anchor="middle" x="405.38" y="-217.7" font-family="Times New Roman,serif" font-size="14.00">is a</text>
</g>
<!-- node0007 -->
<g id="node8" class="node">
<title>node0007</title>
<ellipse fill="none" stroke="black" cx="486" cy="-160.5" rx="36" ry="36"/>
<text text-anchor="middle" x="486" y="-156.62" font-family="Times New Roman,serif" font-size="10.00">ResponsePlanElement</text>
</g>
<!-- node0007&#45;&gt;node0001 -->
<g id="edge7" class="edge">
<title>node0007&#45;&gt;node0001</title>
<path fill="none" stroke="black" d="M464.9,-190.22C452.6,-206.96 436.94,-228.27 423.67,-246.34"/>
<polygon fill="black" stroke="black" points="420.97,-244.11 417.86,-254.24 426.61,-248.25 420.97,-244.11"/>
<text text-anchor="middle" x="455.76" y="-217.7" font-family="Times New Roman,serif" font-size="14.00">is a</text>
</g>
<!-- node0008 -->
<g id="node9" class="node">
<title>node0008</title>
<ellipse fill="none" stroke="black" cx="576" cy="-160.5" rx="36" ry="36"/>
<text text-anchor="middle" x="576" y="-156.62" font-family="Times New Roman,serif" font-size="10.00">People</text>
</g>
<!-- node0008&#45;&gt;node0002 -->
<g id="edge8" class="edge">
<title>node0008&#45;&gt;node0002</title>
<path fill="none" stroke="black" d="M597.1,-190.22C609.4,-206.96 625.06,-228.27 638.33,-246.34"/>
<polygon fill="black" stroke="black" points="635.39,-248.25 644.14,-254.24 641.03,-244.11 635.39,-248.25"/>
<text text-anchor="middle" x="635.76" y="-217.7" font-family="Times New Roman,serif" font-size="14.00">is a</text>
</g>
<!-- node0009 -->
<g id="node10" class="node">
<title>node0009</title>
<ellipse fill="none" stroke="black" cx="666" cy="-160.5" rx="36" ry="36"/>
<text text-anchor="middle" x="666" y="-156.62" font-family="Times New Roman,serif" font-size="10.00">Lane</text>
</g>
<!-- node0009&#45;&gt;node0002 -->
<g id="edge9" class="edge">
<title>node0009&#45;&gt;node0002</title>
<path fill="none" stroke="black" d="M666,-196.93C666,-209.5 666,-223.85 666,-237.22"/>
<polygon fill="black" stroke="black" points="662.5,-237.13 666,-247.13 669.5,-237.13 662.5,-237.13"/>
<text text-anchor="middle" x="675.38" y="-217.7" font-family="Times New Roman,serif" font-size="14.00">is a</text>
</g>
<!-- node0010 -->
<g id="node11" class="node">
<title>node0010</title>
<ellipse fill="none" stroke="black" cx="756" cy="-160.5" rx="36" ry="36"/>
<text text-anchor="middle" x="756" y="-156.62" font-family="Times New Roman,serif" font-size="10.00">Facility</text>
</g>
<!-- node0010&#45;&gt;node0002 -->
<g id="edge10" class="edge">
<title>node0010&#45;&gt;node0002</title>
<path fill="none" stroke="black" d="M734.9,-190.22C722.6,-206.96 706.94,-228.27 693.67,-246.34"/>
<polygon fill="black" stroke="black" points="690.97,-244.11 687.86,-254.24 696.61,-248.25 690.97,-244.11"/>
<text text-anchor="middle" x="725.76" y="-217.7" font-family="Times New Roman,serif" font-size="14.00">is a</text>
</g>
<!-- node0011 -->
<g id="node12" class="node">
<title>node0011</title>
<ellipse fill="none" stroke="black" cx="846" cy="-160.5" rx="36" ry="36"/>
<text text-anchor="middle" x="846" y="-156.62" font-family="Times New Roman,serif" font-size="10.00">AffectedStates</text>
</g>
<!-- node0011&#45;&gt;node0003 -->
<g id="edge11" class="edge">
<title>node0011&#45;&gt;node0003</title>
<path fill="none" stroke="black" d="M846,-196.93C846,-209.5 846,-223.85 846,-237.22"/>
<polygon fill="black" stroke="black" points="842.5,-237.13 846,-247.13 849.5,-237.13 842.5,-237.13"/>
<text text-anchor="middle" x="855.38" y="-217.7" font-family="Times New Roman,serif" font-size="14.00">is a</text>
</g>
<!-- node0012 -->
<g id="node13" class="node">
<title>node0012</title>
<ellipse fill="none" stroke="black" cx="936" cy="-160.5" rx="36" ry="36"/>
<text text-anchor="middle" x="936" y="-156.62" font-family="Times New Roman,serif" font-size="10.00">HazardStates</text>
</g>
<!-- node0012&#45;&gt;node0003 -->
<g id="edge12" class="edge">
<title>node0012&#45;&gt;node0003</title>
<path fill="none" stroke="black" d="M914.9,-190.22C902.6,-206.96 886.94,-228.27 873.67,-246.34"/>
<polygon fill="black" stroke="black" points="870.97,-244.11 867.86,-254.24 876.61,-248.25 870.97,-244.11"/>
<text text-anchor="middle" x="905.76" y="-217.7" font-family="Times New Roman,serif" font-size="14.00">is a</text>
</g>
<!-- node0013 -->
<g id="node14" class="node">
<title>node0013</title>
<ellipse fill="none" stroke="black" cx="36" cy="-36" rx="36" ry="36"/>
<text text-anchor="middle" x="36" y="-32.12" font-family="Times New Roman,serif" font-size="10.00">AffectedVehicle</text>
</g>
<!-- node0013&#45;&gt;node0004 -->
<g id="edge13" class="edge">
<title>node0013&#45;&gt;node0004</title>
<path fill="none" stroke="black" d="M62.35,-60.91C83.44,-80.05 113.2,-107.06 136.25,-127.96"/>
<polygon fill="black" stroke="black" points="133.84,-130.51 143.6,-134.63 138.54,-125.32 133.84,-130.51"/>
<text text-anchor="middle" x="120.96" y="-93.2" font-family="Times New Roman,serif" font-size="14.00">is a</text>
</g>
<!-- node0014 -->
<g id="node15" class="node">
<title>node0014</title>
<ellipse fill="none" stroke="black" cx="126" cy="-36" rx="36" ry="36"/>
<text text-anchor="middle" x="126" y="-32.12" font-family="Times New Roman,serif" font-size="10.00">AffectedRoad</text>
</g>
<!-- node0014&#45;&gt;node0004 -->
<g id="edge14" class="edge">
<title>node0014&#45;&gt;node0004</title>
<path fill="none" stroke="black" d="M138.18,-70.15C143.33,-84.18 149.4,-100.71 154.92,-115.72"/>
<polygon fill="black" stroke="black" points="151.56,-116.72 158.29,-124.9 158.13,-114.31 151.56,-116.72"/>
<text text-anchor="middle" x="160.57" y="-93.2" font-family="Times New Roman,serif" font-size="14.00">is a</text>
</g>
<!-- node0015 -->
<g id="node16" class="node">
<title>node0015</title>
<ellipse fill="none" stroke="black" cx="216" cy="-36" rx="36" ry="36"/>
<text text-anchor="middle" x="216" y="-32.12" font-family="Times New Roman,serif" font-size="10.00">AffectedPeople</text>
</g>
<!-- node0015&#45;&gt;node0004 -->
<g id="edge15" class="edge">
<title>node0015&#45;&gt;node0004</title>
<path fill="none" stroke="black" d="M203.82,-70.15C198.67,-84.18 192.6,-100.71 187.08,-115.72"/>
<polygon fill="black" stroke="black" points="183.87,-114.31 183.71,-124.9 190.44,-116.72 183.87,-114.31"/>
<text text-anchor="middle" x="205.57" y="-93.2" font-family="Times New Roman,serif" font-size="14.00">is a</text>
</g>
<!-- node0016 -->
<g id="node17" class="node">
<title>node0016</title>
<ellipse fill="none" stroke="black" cx="306" cy="-36" rx="36" ry="36"/>
<text text-anchor="middle" x="306" y="-32.12" font-family="Times New Roman,serif" font-size="10.00">Road</text>
</g>
<!-- node0016&#45;&gt;node0006 -->
<g id="edge16" class="edge">
<title>node0016&#45;&gt;node0006</title>
<path fill="none" stroke="black" d="M327.1,-65.72C339.4,-82.46 355.06,-103.77 368.33,-121.84"/>
<polygon fill="black" stroke="black" points="365.39,-123.75 374.14,-129.74 371.03,-119.61 365.39,-123.75"/>
<text text-anchor="middle" x="365.76" y="-93.2" font-family="Times New Roman,serif" font-size="14.00">is a</text>
</g>
<!-- node0017 -->
<g id="node18" class="node">
<title>node0017</title>
<ellipse fill="none" stroke="black" cx="396" cy="-36" rx="36" ry="36"/>
<text text-anchor="middle" x="396" y="-32.12" font-family="Times New Roman,serif" font-size="10.00">Meteorology</text>
</g>
<!-- node0017&#45;&gt;node0006 -->
<g id="edge17" class="edge">
<title>node0017&#45;&gt;node0006</title>
<path fill="none" stroke="black" d="M396,-72.43C396,-85 396,-99.35 396,-112.72"/>
<polygon fill="black" stroke="black" points="392.5,-112.63 396,-122.63 399.5,-112.63 392.5,-112.63"/>
<text text-anchor="middle" x="405.38" y="-93.2" font-family="Times New Roman,serif" font-size="14.00">is a</text>
</g>
<!-- node0018 -->
<g id="node19" class="node">
<title>node0018</title>
<ellipse fill="none" stroke="black" cx="486" cy="-36" rx="36" ry="36"/>
<text text-anchor="middle" x="486" y="-32.12" font-family="Times New Roman,serif" font-size="10.00">ResponseResource</text>
</g>
<!-- node0018&#45;&gt;node0007 -->
<g id="edge18" class="edge">
<title>node0018&#45;&gt;node0007</title>
<path fill="none" stroke="black" d="M486,-72.43C486,-85 486,-99.35 486,-112.72"/>
<polygon fill="black" stroke="black" points="482.5,-112.63 486,-122.63 489.5,-112.63 482.5,-112.63"/>
<text text-anchor="middle" x="495.38" y="-93.2" font-family="Times New Roman,serif" font-size="14.00">is a</text>
</g>
<!-- node0019 -->
<g id="node20" class="node">
<title>node0019</title>
<ellipse fill="none" stroke="black" cx="576" cy="-36" rx="36" ry="36"/>
<text text-anchor="middle" x="576" y="-32.12" font-family="Times New Roman,serif" font-size="10.00">ResponseAction</text>
</g>
<!-- node0019&#45;&gt;node0007 -->
<g id="edge19" class="edge">
<title>node0019&#45;&gt;node0007</title>
<path fill="none" stroke="black" d="M554.9,-65.72C542.6,-82.46 526.94,-103.77 513.67,-121.84"/>
<polygon fill="black" stroke="black" points="510.97,-119.61 507.86,-129.74 516.61,-123.75 510.97,-119.61"/>
<text text-anchor="middle" x="545.76" y="-93.2" font-family="Times New Roman,serif" font-size="14.00">is a</text>
</g>
<!-- node0020 -->
<g id="node21" class="node">
<title>node0020</title>
<ellipse fill="none" stroke="black" cx="756" cy="-36" rx="36" ry="36"/>
<text text-anchor="middle" x="756" y="-32.12" font-family="Times New Roman,serif" font-size="10.00">CollidedState</text>
</g>
<!-- node0020&#45;&gt;node0011 -->
<g id="edge20" class="edge">
<title>node0020&#45;&gt;node0011</title>
<path fill="none" stroke="black" d="M777.1,-65.72C789.4,-82.46 805.06,-103.77 818.33,-121.84"/>
<polygon fill="black" stroke="black" points="815.39,-123.75 824.14,-129.74 821.03,-119.61 815.39,-123.75"/>
<text text-anchor="middle" x="815.76" y="-93.2" font-family="Times New Roman,serif" font-size="14.00">is a</text>
</g>
<!-- node0021 -->
<g id="node22" class="node">
<title>node0021</title>
<ellipse fill="none" stroke="black" cx="846" cy="-36" rx="36" ry="36"/>
<text text-anchor="middle" x="846" y="-32.12" font-family="Times New Roman,serif" font-size="10.00">DrivingState</text>
</g>
<!-- node0021&#45;&gt;node0011 -->
<g id="edge21" class="edge">
<title>node0021&#45;&gt;node0011</title>
<path fill="none" stroke="black" d="M846,-72.43C846,-85 846,-99.35 846,-112.72"/>
<polygon fill="black" stroke="black" points="842.5,-112.63 846,-122.63 849.5,-112.63 842.5,-112.63"/>
<text text-anchor="middle" x="855.38" y="-93.2" font-family="Times New Roman,serif" font-size="14.00">is a</text>
</g>
<!-- node0022 -->
<g id="node23" class="node">
<title>node0022</title>
<ellipse fill="none" stroke="black" cx="936" cy="-36" rx="36" ry="36"/>
<text text-anchor="middle" x="936" y="-32.12" font-family="Times New Roman,serif" font-size="10.00">ExplodeState</text>
</g>
<!-- node0022&#45;&gt;node0011 -->
<g id="edge22" class="edge">
<title>node0022&#45;&gt;node0011</title>
<path fill="none" stroke="black" d="M914.9,-65.72C902.6,-82.46 886.94,-103.77 873.67,-121.84"/>
<polygon fill="black" stroke="black" points="870.97,-119.61 867.86,-129.74 876.61,-123.75 870.97,-119.61"/>
<text text-anchor="middle" x="905.76" y="-93.2" font-family="Times New Roman,serif" font-size="14.00">is a</text>
</g>
</g>
</svg>
