<?xml version="1.0" encoding="UTF-8" standalone="no"?>
<!DOCTYPE svg PUBLIC "-//W3C//DTD SVG 1.1//EN"
 "http://www.w3.org/Graphics/SVG/1.1/DTD/svg11.dtd">
<!-- Generated by graphviz version 12.1.2 (20240928.0832)
 -->
<!-- Title: G Pages: 1 -->
<svg width="260pt" height="205pt"
 viewBox="0.00 0.00 260.00 204.50" xmlns="http://www.w3.org/2000/svg" xmlns:xlink="http://www.w3.org/1999/xlink">
<g id="graph0" class="graph" transform="scale(1 1) rotate(0) translate(4 200.5)">
<title>G</title>
<polygon fill="white" stroke="none" points="-4,4 -4,-200.5 256,-200.5 256,4 -4,4"/>
<!-- node0000 -->
<g id="node1" class="node">
<title>node0000</title>
<ellipse fill="none" stroke="black" cx="126" cy="-160.5" rx="36" ry="36"/>
<text text-anchor="middle" x="126" y="-156.62" font-family="Times New Roman,serif" font-size="10.00">Thing</text>
</g>
<!-- node0001 -->
<g id="node2" class="node">
<title>node0001</title>
<ellipse fill="none" stroke="black" cx="36" cy="-36" rx="36" ry="36"/>
<text text-anchor="middle" x="36" y="-32.12" font-family="Times New Roman,serif" font-size="10.00">Emergency</text>
</g>
<!-- node0001&#45;&gt;node0000 -->
<g id="edge1" class="edge">
<title>node0001&#45;&gt;node0000</title>
<path fill="none" stroke="black" d="M57.1,-65.72C69.4,-82.46 85.06,-103.77 98.33,-121.84"/>
<polygon fill="black" stroke="black" points="95.39,-123.75 104.14,-129.74 101.03,-119.61 95.39,-123.75"/>
<text text-anchor="middle" x="95.76" y="-93.2" font-family="Times New Roman,serif" font-size="14.00">is a</text>
</g>
<!-- node0002 -->
<g id="node3" class="node">
<title>node0002</title>
<ellipse fill="none" stroke="black" cx="126" cy="-36" rx="36" ry="36"/>
<text text-anchor="middle" x="126" y="-32.12" font-family="Times New Roman,serif" font-size="10.00">EmergencyPhase</text>
</g>
<!-- node0002&#45;&gt;node0000 -->
<g id="edge2" class="edge">
<title>node0002&#45;&gt;node0000</title>
<path fill="none" stroke="black" d="M126,-72.43C126,-85 126,-99.35 126,-112.72"/>
<polygon fill="black" stroke="black" points="122.5,-112.63 126,-122.63 129.5,-112.63 122.5,-112.63"/>
<text text-anchor="middle" x="135.38" y="-93.2" font-family="Times New Roman,serif" font-size="14.00">is a</text>
</g>
<!-- node0003 -->
<g id="node4" class="node">
<title>node0003</title>
<ellipse fill="none" stroke="black" cx="216" cy="-36" rx="36" ry="36"/>
<text text-anchor="middle" x="216" y="-32.12" font-family="Times New Roman,serif" font-size="10.00">InvolvedScenario</text>
</g>
<!-- node0003&#45;&gt;node0000 -->
<g id="edge3" class="edge">
<title>node0003&#45;&gt;node0000</title>
<path fill="none" stroke="black" d="M194.9,-65.72C182.6,-82.46 166.94,-103.77 153.67,-121.84"/>
<polygon fill="black" stroke="black" points="150.97,-119.61 147.86,-129.74 156.61,-123.75 150.97,-119.61"/>
<text text-anchor="middle" x="185.76" y="-93.2" font-family="Times New Roman,serif" font-size="14.00">is a</text>
</g>
</g>
</svg>
