<?xml version="1.0" encoding="UTF-8" standalone="no"?>
<!DOCTYPE svg PUBLIC "-//W3C//DTD SVG 1.1//EN"
 "http://www.w3.org/Graphics/SVG/1.1/DTD/svg11.dtd">
<!-- Generated by graphviz version 12.1.2 (20240928.0832)
 -->
<!-- Title: G Pages: 1 -->
<svg width="3230pt" height="454pt"
 viewBox="0.00 0.00 3230.00 453.50" xmlns="http://www.w3.org/2000/svg" xmlns:xlink="http://www.w3.org/1999/xlink">
<g id="graph0" class="graph" transform="scale(1 1) rotate(0) translate(4 449.5)">
<title>G</title>
<polygon fill="white" stroke="none" points="-4,4 -4,-449.5 3226,-449.5 3226,4 -4,4"/>
<!-- node0000 -->
<g id="node1" class="node">
<title>node0000</title>
<ellipse fill="none" stroke="black" cx="2916" cy="-409.5" rx="36" ry="36"/>
<text text-anchor="middle" x="2916" y="-405.62" font-family="Times New Roman,serif" font-size="10.00">Thing</text>
</g>
<!-- node0001 -->
<g id="node2" class="node">
<title>node0001</title>
<ellipse fill="none" stroke="black" cx="396" cy="-285" rx="36" ry="36"/>
<text text-anchor="middle" x="396" y="-281.12" font-family="Times New Roman,serif" font-size="10.00">ScenarioElement</text>
</g>
<!-- node0001&#45;&gt;node0000 -->
<g id="edge1" class="edge">
<title>node0001&#45;&gt;node0000</title>
<path fill="none" stroke="black" d="M432.11,-287.76C713.26,-301.42 2549.74,-390.7 2868.79,-406.2"/>
<polygon fill="black" stroke="black" points="2868.24,-409.68 2878.4,-406.67 2868.58,-402.69 2868.24,-409.68"/>
<text text-anchor="middle" x="1816.25" y="-342.2" font-family="Times New Roman,serif" font-size="14.00">is a</text>
</g>
<!-- node0002 -->
<g id="node3" class="node">
<title>node0002</title>
<ellipse fill="none" stroke="black" cx="2511" cy="-285" rx="36" ry="36"/>
<text text-anchor="middle" x="2511" y="-281.12" font-family="Times New Roman,serif" font-size="10.00">ElementCompositions</text>
</g>
<!-- node0002&#45;&gt;node0000 -->
<g id="edge2" class="edge">
<title>node0002&#45;&gt;node0000</title>
<path fill="none" stroke="black" d="M2545.53,-296.44C2618.61,-318.55 2788.89,-370.05 2870.63,-394.78"/>
<polygon fill="black" stroke="black" points="2869.52,-398.1 2880.11,-397.64 2871.55,-391.4 2869.52,-398.1"/>
<text text-anchor="middle" x="2747.12" y="-342.2" font-family="Times New Roman,serif" font-size="14.00">is a</text>
</g>
<!-- node0003 -->
<g id="node4" class="node">
<title>node0003</title>
<ellipse fill="none" stroke="black" cx="2826" cy="-285" rx="36" ry="36"/>
<text text-anchor="middle" x="2826" y="-281.12" font-family="Times New Roman,serif" font-size="10.00">ElementState</text>
</g>
<!-- node0003&#45;&gt;node0000 -->
<g id="edge3" class="edge">
<title>node0003&#45;&gt;node0000</title>
<path fill="none" stroke="black" d="M2847.1,-314.72C2859.4,-331.46 2875.06,-352.77 2888.33,-370.84"/>
<polygon fill="black" stroke="black" points="2885.39,-372.75 2894.14,-378.74 2891.03,-368.61 2885.39,-372.75"/>
<text text-anchor="middle" x="2885.76" y="-342.2" font-family="Times New Roman,serif" font-size="14.00">is a</text>
</g>
<!-- node0004 -->
<g id="node5" class="node">
<title>node0004</title>
<ellipse fill="none" stroke="black" cx="2916" cy="-285" rx="36" ry="36"/>
<text text-anchor="middle" x="2916" y="-281.12" font-family="Times New Roman,serif" font-size="10.00">aidStates</text>
</g>
<!-- node0004&#45;&gt;node0000 -->
<g id="edge4" class="edge">
<title>node0004&#45;&gt;node0000</title>
<path fill="none" stroke="black" d="M2916,-321.43C2916,-334 2916,-348.35 2916,-361.72"/>
<polygon fill="black" stroke="black" points="2912.5,-361.63 2916,-371.63 2919.5,-361.63 2912.5,-361.63"/>
<text text-anchor="middle" x="2925.38" y="-342.2" font-family="Times New Roman,serif" font-size="14.00">is a</text>
</g>
<!-- node0005 -->
<g id="node6" class="node">
<title>node0005</title>
<ellipse fill="none" stroke="black" cx="3006" cy="-285" rx="36" ry="36"/>
<text text-anchor="middle" x="3006" y="-281.12" font-family="Times New Roman,serif" font-size="10.00">firefightingStates</text>
</g>
<!-- node0005&#45;&gt;node0000 -->
<g id="edge5" class="edge">
<title>node0005&#45;&gt;node0000</title>
<path fill="none" stroke="black" d="M2984.9,-314.72C2972.6,-331.46 2956.94,-352.77 2943.67,-370.84"/>
<polygon fill="black" stroke="black" points="2940.97,-368.61 2937.86,-378.74 2946.61,-372.75 2940.97,-368.61"/>
<text text-anchor="middle" x="2975.76" y="-342.2" font-family="Times New Roman,serif" font-size="14.00">is a</text>
</g>
<!-- node0006 -->
<g id="node7" class="node">
<title>node0006</title>
<ellipse fill="none" stroke="black" cx="3096" cy="-285" rx="36" ry="36"/>
<text text-anchor="middle" x="3096" y="-281.12" font-family="Times New Roman,serif" font-size="10.00">rescueStates</text>
</g>
<!-- node0006&#45;&gt;node0000 -->
<g id="edge6" class="edge">
<title>node0006&#45;&gt;node0000</title>
<path fill="none" stroke="black" d="M3068.2,-308.22C3062.57,-312.55 3056.65,-316.99 3051,-321 3019.78,-343.2 2983.26,-366.73 2956.08,-383.79"/>
<polygon fill="black" stroke="black" points="2954.43,-380.7 2947.8,-388.96 2958.14,-386.63 2954.43,-380.7"/>
<text text-anchor="middle" x="3031.38" y="-342.2" font-family="Times New Roman,serif" font-size="14.00">is a</text>
</g>
<!-- node0007 -->
<g id="node8" class="node">
<title>node0007</title>
<ellipse fill="none" stroke="black" cx="3186" cy="-285" rx="36" ry="36"/>
<text text-anchor="middle" x="3186" y="-281.12" font-family="Times New Roman,serif" font-size="10.00">towStates</text>
</g>
<!-- node0007&#45;&gt;node0000 -->
<g id="edge7" class="edge">
<title>node0007&#45;&gt;node0000</title>
<path fill="none" stroke="black" d="M3158.8,-309.17C3153.12,-313.42 3147.03,-317.58 3141,-321 3082.23,-354.34 3008.25,-380.38 2961.53,-395.11"/>
<polygon fill="black" stroke="black" points="2960.51,-391.76 2952,-398.06 2962.58,-398.44 2960.51,-391.76"/>
<text text-anchor="middle" x="3115.41" y="-342.2" font-family="Times New Roman,serif" font-size="14.00">is a</text>
</g>
<!-- node0008 -->
<g id="node9" class="node">
<title>node0008</title>
<ellipse fill="none" stroke="black" cx="171" cy="-160.5" rx="36" ry="36"/>
<text text-anchor="middle" x="171" y="-156.62" font-family="Times New Roman,serif" font-size="10.00">AffectedElement</text>
</g>
<!-- node0008&#45;&gt;node0001 -->
<g id="edge8" class="edge">
<title>node0008&#45;&gt;node0001</title>
<path fill="none" stroke="black" d="M202.29,-178.53C241.97,-200.14 310.52,-237.46 354.53,-261.42"/>
<polygon fill="black" stroke="black" points="352.83,-264.48 363.29,-266.19 356.18,-258.34 352.83,-264.48"/>
<text text-anchor="middle" x="306.35" y="-217.7" font-family="Times New Roman,serif" font-size="14.00">is a</text>
</g>
<!-- node0009 -->
<g id="node10" class="node">
<title>node0009</title>
<ellipse fill="none" stroke="black" cx="306" cy="-160.5" rx="36" ry="36"/>
<text text-anchor="middle" x="306" y="-156.62" font-family="Times New Roman,serif" font-size="10.00">HazardElement</text>
</g>
<!-- node0009&#45;&gt;node0001 -->
<g id="edge9" class="edge">
<title>node0009&#45;&gt;node0001</title>
<path fill="none" stroke="black" d="M327.1,-190.22C339.4,-206.96 355.06,-228.27 368.33,-246.34"/>
<polygon fill="black" stroke="black" points="365.39,-248.25 374.14,-254.24 371.03,-244.11 365.39,-248.25"/>
<text text-anchor="middle" x="365.76" y="-217.7" font-family="Times New Roman,serif" font-size="14.00">is a</text>
</g>
<!-- node0010 -->
<g id="node11" class="node">
<title>node0010</title>
<ellipse fill="none" stroke="black" cx="396" cy="-160.5" rx="36" ry="36"/>
<text text-anchor="middle" x="396" y="-156.62" font-family="Times New Roman,serif" font-size="10.00">EnvironmentElement</text>
</g>
<!-- node0010&#45;&gt;node0001 -->
<g id="edge10" class="edge">
<title>node0010&#45;&gt;node0001</title>
<path fill="none" stroke="black" d="M396,-196.93C396,-209.5 396,-223.85 396,-237.22"/>
<polygon fill="black" stroke="black" points="392.5,-237.13 396,-247.13 399.5,-237.13 392.5,-237.13"/>
<text text-anchor="middle" x="405.38" y="-217.7" font-family="Times New Roman,serif" font-size="14.00">is a</text>
</g>
<!-- node0011 -->
<g id="node12" class="node">
<title>node0011</title>
<ellipse fill="none" stroke="black" cx="1431" cy="-160.5" rx="36" ry="36"/>
<text text-anchor="middle" x="1431" y="-156.62" font-family="Times New Roman,serif" font-size="10.00">ResponsePlanElement</text>
</g>
<!-- node0011&#45;&gt;node0001 -->
<g id="edge11" class="edge">
<title>node0011&#45;&gt;node0001</title>
<path fill="none" stroke="black" d="M1395.07,-165.75C1238.99,-184.23 619.71,-257.52 443.19,-278.41"/>
<polygon fill="black" stroke="black" points="443,-274.91 433.48,-279.56 443.82,-281.86 443,-274.91"/>
<text text-anchor="middle" x="984.84" y="-217.7" font-family="Times New Roman,serif" font-size="14.00">is a</text>
</g>
<!-- node0012 -->
<g id="node13" class="node">
<title>node0012</title>
<ellipse fill="none" stroke="black" cx="2286" cy="-160.5" rx="36" ry="36"/>
<text text-anchor="middle" x="2286" y="-156.62" font-family="Times New Roman,serif" font-size="10.00">IncludedLanes</text>
</g>
<!-- node0012&#45;&gt;node0002 -->
<g id="edge12" class="edge">
<title>node0012&#45;&gt;node0002</title>
<path fill="none" stroke="black" d="M2313.43,-184.28C2319.09,-188.56 2325.12,-192.84 2331,-196.5 2375.43,-224.16 2429.9,-249.56 2467.2,-265.79"/>
<polygon fill="black" stroke="black" points="2465.76,-268.98 2476.33,-269.72 2468.53,-262.55 2465.76,-268.98"/>
<text text-anchor="middle" x="2397.91" y="-217.7" font-family="Times New Roman,serif" font-size="14.00">is a</text>
</g>
<!-- node0013 -->
<g id="node14" class="node">
<title>node0013</title>
<ellipse fill="none" stroke="black" cx="2376" cy="-160.5" rx="36" ry="36"/>
<text text-anchor="middle" x="2376" y="-156.62" font-family="Times New Roman,serif" font-size="10.00">IncludedFacilities</text>
</g>
<!-- node0013&#45;&gt;node0002 -->
<g id="edge13" class="edge">
<title>node0013&#45;&gt;node0002</title>
<path fill="none" stroke="black" d="M2402.35,-185.41C2423.44,-204.55 2453.2,-231.56 2476.25,-252.46"/>
<polygon fill="black" stroke="black" points="2473.84,-255.01 2483.6,-259.13 2478.54,-249.82 2473.84,-255.01"/>
<text text-anchor="middle" x="2460.96" y="-217.7" font-family="Times New Roman,serif" font-size="14.00">is a</text>
</g>
<!-- node0014 -->
<g id="node15" class="node">
<title>node0014</title>
<ellipse fill="none" stroke="black" cx="2466" cy="-160.5" rx="36" ry="36"/>
<text text-anchor="middle" x="2466" y="-156.62" font-family="Times New Roman,serif" font-size="10.00">VehicleCargo</text>
</g>
<!-- node0014&#45;&gt;node0002 -->
<g id="edge14" class="edge">
<title>node0014&#45;&gt;node0002</title>
<path fill="none" stroke="black" d="M2478.18,-194.65C2483.33,-208.68 2489.4,-225.21 2494.92,-240.22"/>
<polygon fill="black" stroke="black" points="2491.56,-241.22 2498.29,-249.4 2498.13,-238.81 2491.56,-241.22"/>
<text text-anchor="middle" x="2500.57" y="-217.7" font-family="Times New Roman,serif" font-size="14.00">is a</text>
</g>
<!-- node0015 -->
<g id="node16" class="node">
<title>node0015</title>
<ellipse fill="none" stroke="black" cx="2556" cy="-160.5" rx="36" ry="36"/>
<text text-anchor="middle" x="2556" y="-156.62" font-family="Times New Roman,serif" font-size="10.00">VehiclePassengers</text>
</g>
<!-- node0015&#45;&gt;node0002 -->
<g id="edge15" class="edge">
<title>node0015&#45;&gt;node0002</title>
<path fill="none" stroke="black" d="M2543.82,-194.65C2538.67,-208.68 2532.6,-225.21 2527.08,-240.22"/>
<polygon fill="black" stroke="black" points="2523.87,-238.81 2523.71,-249.4 2530.44,-241.22 2523.87,-238.81"/>
<text text-anchor="middle" x="2545.57" y="-217.7" font-family="Times New Roman,serif" font-size="14.00">is a</text>
</g>
<!-- node0016 -->
<g id="node17" class="node">
<title>node0016</title>
<ellipse fill="none" stroke="black" cx="2646" cy="-160.5" rx="36" ry="36"/>
<text text-anchor="middle" x="2646" y="-156.62" font-family="Times New Roman,serif" font-size="10.00">VehicleComponents</text>
</g>
<!-- node0016&#45;&gt;node0002 -->
<g id="edge16" class="edge">
<title>node0016&#45;&gt;node0002</title>
<path fill="none" stroke="black" d="M2619.65,-185.41C2598.56,-204.55 2568.8,-231.56 2545.75,-252.46"/>
<polygon fill="black" stroke="black" points="2543.46,-249.82 2538.4,-259.13 2548.16,-255.01 2543.46,-249.82"/>
<text text-anchor="middle" x="2595.96" y="-217.7" font-family="Times New Roman,serif" font-size="14.00">is a</text>
</g>
<!-- node0017 -->
<g id="node18" class="node">
<title>node0017</title>
<ellipse fill="none" stroke="black" cx="2736" cy="-160.5" rx="36" ry="36"/>
<text text-anchor="middle" x="2736" y="-156.62" font-family="Times New Roman,serif" font-size="10.00">AffectedStates</text>
</g>
<!-- node0017&#45;&gt;node0003 -->
<g id="edge17" class="edge">
<title>node0017&#45;&gt;node0003</title>
<path fill="none" stroke="black" d="M2757.1,-190.22C2769.4,-206.96 2785.06,-228.27 2798.33,-246.34"/>
<polygon fill="black" stroke="black" points="2795.39,-248.25 2804.14,-254.24 2801.03,-244.11 2795.39,-248.25"/>
<text text-anchor="middle" x="2795.76" y="-217.7" font-family="Times New Roman,serif" font-size="14.00">is a</text>
</g>
<!-- node0018 -->
<g id="node19" class="node">
<title>node0018</title>
<ellipse fill="none" stroke="black" cx="2826" cy="-160.5" rx="36" ry="36"/>
<text text-anchor="middle" x="2826" y="-156.62" font-family="Times New Roman,serif" font-size="10.00">HazardStates</text>
</g>
<!-- node0018&#45;&gt;node0003 -->
<g id="edge18" class="edge">
<title>node0018&#45;&gt;node0003</title>
<path fill="none" stroke="black" d="M2826,-196.93C2826,-209.5 2826,-223.85 2826,-237.22"/>
<polygon fill="black" stroke="black" points="2822.5,-237.13 2826,-247.13 2829.5,-237.13 2822.5,-237.13"/>
<text text-anchor="middle" x="2835.38" y="-217.7" font-family="Times New Roman,serif" font-size="14.00">is a</text>
</g>
<!-- node0019 -->
<g id="node20" class="node">
<title>node0019</title>
<ellipse fill="none" stroke="black" cx="2916" cy="-160.5" rx="36" ry="36"/>
<text text-anchor="middle" x="2916" y="-156.62" font-family="Times New Roman,serif" font-size="10.00">ResponseStates</text>
</g>
<!-- node0019&#45;&gt;node0003 -->
<g id="edge19" class="edge">
<title>node0019&#45;&gt;node0003</title>
<path fill="none" stroke="black" d="M2894.9,-190.22C2882.6,-206.96 2866.94,-228.27 2853.67,-246.34"/>
<polygon fill="black" stroke="black" points="2850.97,-244.11 2847.86,-254.24 2856.61,-248.25 2850.97,-244.11"/>
<text text-anchor="middle" x="2885.76" y="-217.7" font-family="Times New Roman,serif" font-size="14.00">is a</text>
</g>
<!-- node0020 -->
<g id="node21" class="node">
<title>node0020</title>
<ellipse fill="none" stroke="black" cx="3006" cy="-160.5" rx="36" ry="36"/>
<text text-anchor="middle" x="3006" y="-156.62" font-family="Times New Roman,serif" font-size="10.00">idleState</text>
</g>
<!-- node0020&#45;&gt;node0004 -->
<g id="edge20" class="edge">
<title>node0020&#45;&gt;node0004</title>
<path fill="none" stroke="black" d="M2984.9,-190.22C2972.6,-206.96 2956.94,-228.27 2943.67,-246.34"/>
<polygon fill="black" stroke="black" points="2940.97,-244.11 2937.86,-254.24 2946.61,-248.25 2940.97,-244.11"/>
<text text-anchor="middle" x="2975.76" y="-217.7" font-family="Times New Roman,serif" font-size="14.00">is a</text>
</g>
<!-- node0021 -->
<g id="node22" class="node">
<title>node0021</title>
<ellipse fill="none" stroke="black" cx="3096" cy="-160.5" rx="36" ry="36"/>
<text text-anchor="middle" x="3096" y="-156.62" font-family="Times New Roman,serif" font-size="10.00">implementState</text>
</g>
<!-- node0021&#45;&gt;node0004 -->
<g id="edge21" class="edge">
<title>node0021&#45;&gt;node0004</title>
<path fill="none" stroke="black" d="M3068.34,-183.93C3062.7,-188.24 3056.74,-192.62 3051,-196.5 3012.64,-222.44 2999.36,-223.06 2961,-249 2958.31,-250.82 2955.57,-252.75 2952.84,-254.73"/>
<polygon fill="black" stroke="black" points="2950.8,-251.88 2944.87,-260.66 2954.98,-257.49 2950.8,-251.88"/>
<text text-anchor="middle" x="3029.61" y="-217.7" font-family="Times New Roman,serif" font-size="14.00">is a</text>
</g>
<!-- node0022 -->
<g id="node23" class="node">
<title>node0022</title>
<ellipse fill="none" stroke="black" cx="36" cy="-36" rx="36" ry="36"/>
<text text-anchor="middle" x="36" y="-32.12" font-family="Times New Roman,serif" font-size="10.00">4</text>
</g>
<!-- node0022&#45;&gt;node0008 -->
<g id="edge22" class="edge">
<title>node0022&#45;&gt;node0008</title>
<path fill="none" stroke="black" d="M62.35,-60.91C83.44,-80.05 113.2,-107.06 136.25,-127.96"/>
<polygon fill="black" stroke="black" points="133.84,-130.51 143.6,-134.63 138.54,-125.32 133.84,-130.51"/>
<text text-anchor="middle" x="120.96" y="-93.2" font-family="Times New Roman,serif" font-size="14.00">is a</text>
</g>
<!-- node0023 -->
<g id="node24" class="node">
<title>node0023</title>
<ellipse fill="none" stroke="black" cx="126" cy="-36" rx="36" ry="36"/>
<text text-anchor="middle" x="126" y="-32.12" font-family="Times New Roman,serif" font-size="10.00">5</text>
</g>
<!-- node0023&#45;&gt;node0008 -->
<g id="edge23" class="edge">
<title>node0023&#45;&gt;node0008</title>
<path fill="none" stroke="black" d="M138.18,-70.15C143.33,-84.18 149.4,-100.71 154.92,-115.72"/>
<polygon fill="black" stroke="black" points="151.56,-116.72 158.29,-124.9 158.13,-114.31 151.56,-116.72"/>
<text text-anchor="middle" x="160.57" y="-93.2" font-family="Times New Roman,serif" font-size="14.00">is a</text>
</g>
<!-- node0024 -->
<g id="node25" class="node">
<title>node0024</title>
<ellipse fill="none" stroke="black" cx="216" cy="-36" rx="36" ry="36"/>
<text text-anchor="middle" x="216" y="-32.12" font-family="Times New Roman,serif" font-size="10.00">1</text>
</g>
<!-- node0024&#45;&gt;node0008 -->
<g id="edge24" class="edge">
<title>node0024&#45;&gt;node0008</title>
<path fill="none" stroke="black" d="M203.82,-70.15C198.67,-84.18 192.6,-100.71 187.08,-115.72"/>
<polygon fill="black" stroke="black" points="183.87,-114.31 183.71,-124.9 190.44,-116.72 183.87,-114.31"/>
<text text-anchor="middle" x="205.57" y="-93.2" font-family="Times New Roman,serif" font-size="14.00">is a</text>
</g>
<!-- node0025 -->
<g id="node26" class="node">
<title>node0025</title>
<ellipse fill="none" stroke="black" cx="306" cy="-36" rx="36" ry="36"/>
<text text-anchor="middle" x="306" y="-32.12" font-family="Times New Roman,serif" font-size="10.00">3</text>
</g>
<!-- node0025&#45;&gt;node0009 -->
<g id="edge25" class="edge">
<title>node0025&#45;&gt;node0009</title>
<path fill="none" stroke="black" d="M306,-72.43C306,-85 306,-99.35 306,-112.72"/>
<polygon fill="black" stroke="black" points="302.5,-112.63 306,-122.63 309.5,-112.63 302.5,-112.63"/>
<text text-anchor="middle" x="315.38" y="-93.2" font-family="Times New Roman,serif" font-size="14.00">is a</text>
</g>
<!-- node0026 -->
<g id="node27" class="node">
<title>node0026</title>
<ellipse fill="none" stroke="black" cx="396" cy="-36" rx="36" ry="36"/>
<text text-anchor="middle" x="396" y="-32.12" font-family="Times New Roman,serif" font-size="10.00">2</text>
</g>
<!-- node0026&#45;&gt;node0010 -->
<g id="edge26" class="edge">
<title>node0026&#45;&gt;node0010</title>
<path fill="none" stroke="black" d="M396,-72.43C396,-85 396,-99.35 396,-112.72"/>
<polygon fill="black" stroke="black" points="392.5,-112.63 396,-122.63 399.5,-112.63 392.5,-112.63"/>
<text text-anchor="middle" x="405.38" y="-93.2" font-family="Times New Roman,serif" font-size="14.00">is a</text>
</g>
<!-- node0027 -->
<g id="node28" class="node">
<title>node0027</title>
<ellipse fill="none" stroke="black" cx="486" cy="-36" rx="36" ry="36"/>
<text text-anchor="middle" x="486" y="-32.12" font-family="Times New Roman,serif" font-size="10.00">人员</text>
</g>
<!-- node0027&#45;&gt;node0011 -->
<g id="edge27" class="edge">
<title>node0027&#45;&gt;node0011</title>
<path fill="none" stroke="black" d="M513.05,-60.44C518.74,-64.67 524.88,-68.75 531,-72 574.87,-95.26 588.5,-97.11 637.25,-106.5 781.67,-134.32 1235.19,-152.54 1383.53,-157.87"/>
<polygon fill="black" stroke="black" points="1383.26,-161.36 1393.38,-158.22 1383.51,-154.37 1383.26,-161.36"/>
<text text-anchor="middle" x="646.62" y="-93.2" font-family="Times New Roman,serif" font-size="14.00">is a</text>
</g>
<!-- node0028 -->
<g id="node29" class="node">
<title>node0028</title>
<ellipse fill="none" stroke="black" cx="576" cy="-36" rx="36" ry="36"/>
<text text-anchor="middle" x="576" y="-32.12" font-family="Times New Roman,serif" font-size="10.00">救助</text>
</g>
<!-- node0028&#45;&gt;node0011 -->
<g id="edge28" class="edge">
<title>node0028&#45;&gt;node0011</title>
<path fill="none" stroke="black" d="M603.05,-60.44C608.74,-64.67 614.88,-68.75 621,-72 664.87,-95.26 678.54,-96.9 727.25,-106.5 970.49,-154.43 1268.86,-159.7 1383.26,-159.81"/>
<polygon fill="black" stroke="black" points="1383.19,-163.31 1393.19,-159.8 1383.19,-156.31 1383.19,-163.31"/>
<text text-anchor="middle" x="736.62" y="-93.2" font-family="Times New Roman,serif" font-size="14.00">is a</text>
</g>
<!-- node0029 -->
<g id="node30" class="node">
<title>node0029</title>
<ellipse fill="none" stroke="black" cx="666" cy="-36" rx="36" ry="36"/>
<text text-anchor="middle" x="666" y="-32.12" font-family="Times New Roman,serif" font-size="10.00">牵引</text>
</g>
<!-- node0029&#45;&gt;node0011 -->
<g id="edge29" class="edge">
<title>node0029&#45;&gt;node0011</title>
<path fill="none" stroke="black" d="M693.04,-60.47C698.73,-64.69 704.87,-68.77 711,-72 755.68,-95.53 769.74,-96.59 819.25,-106.5 1026.6,-147.99 1279.9,-157 1383.45,-158.96"/>
<polygon fill="black" stroke="black" points="1383.18,-162.45 1393.24,-159.13 1383.3,-155.46 1383.18,-162.45"/>
<text text-anchor="middle" x="828.62" y="-93.2" font-family="Times New Roman,serif" font-size="14.00">is a</text>
</g>
<!-- node0030 -->
<g id="node31" class="node">
<title>node0030</title>
<ellipse fill="none" stroke="black" cx="756" cy="-36" rx="36" ry="36"/>
<text text-anchor="middle" x="756" y="-32.5" font-family="Times New Roman,serif" font-size="10.00">24324让</text>
</g>
<!-- node0030&#45;&gt;node0011 -->
<g id="edge30" class="edge">
<title>node0030&#45;&gt;node0011</title>
<path fill="none" stroke="black" d="M783.05,-60.45C788.73,-64.68 794.87,-68.76 801,-72 845.27,-95.39 859.24,-96.25 908.25,-106.5 1080.83,-142.59 1290.79,-154.39 1383.32,-158.01"/>
<polygon fill="black" stroke="black" points="1383.16,-161.51 1393.28,-158.39 1383.42,-154.51 1383.16,-161.51"/>
<text text-anchor="middle" x="917.62" y="-93.2" font-family="Times New Roman,serif" font-size="14.00">is a</text>
</g>
<!-- node0031 -->
<g id="node32" class="node">
<title>node0031</title>
<ellipse fill="none" stroke="black" cx="846" cy="-36" rx="36" ry="36"/>
<text text-anchor="middle" x="846" y="-32.12" font-family="Times New Roman,serif" font-size="10.00">7</text>
</g>
<!-- node0031&#45;&gt;node0011 -->
<g id="edge31" class="edge">
<title>node0031&#45;&gt;node0011</title>
<path fill="none" stroke="black" d="M873.03,-60.49C878.72,-64.71 884.86,-68.79 891,-72 936.49,-95.81 951.07,-95.65 1001.25,-106.5 1138.34,-136.15 1303.87,-150.73 1383.57,-156.46"/>
<polygon fill="black" stroke="black" points="1382.96,-159.93 1393.18,-157.14 1383.45,-152.94 1382.96,-159.93"/>
<text text-anchor="middle" x="1010.62" y="-93.2" font-family="Times New Roman,serif" font-size="14.00">is a</text>
</g>
<!-- node0032 -->
<g id="node33" class="node">
<title>node0032</title>
<ellipse fill="none" stroke="black" cx="936" cy="-36" rx="36" ry="36"/>
<text text-anchor="middle" x="936" y="-32.12" font-family="Times New Roman,serif" font-size="10.00">8</text>
</g>
<!-- node0032&#45;&gt;node0011 -->
<g id="edge32" class="edge">
<title>node0032&#45;&gt;node0011</title>
<path fill="none" stroke="black" d="M963.01,-60.53C968.7,-64.75 974.85,-68.81 981,-72 1027.71,-96.22 1042.97,-94.71 1094.25,-106.5 1196.55,-130.01 1318.73,-146.38 1384.14,-154.22"/>
<polygon fill="black" stroke="black" points="1383.45,-157.67 1393.79,-155.37 1384.27,-150.71 1383.45,-157.67"/>
<text text-anchor="middle" x="1103.62" y="-93.2" font-family="Times New Roman,serif" font-size="14.00">is a</text>
</g>
<!-- node0033 -->
<g id="node34" class="node">
<title>node0033</title>
<ellipse fill="none" stroke="black" cx="1026" cy="-36" rx="36" ry="36"/>
<text text-anchor="middle" x="1026" y="-32.12" font-family="Times New Roman,serif" font-size="10.00">ResponseResource</text>
</g>
<!-- node0033&#45;&gt;node0011 -->
<g id="edge33" class="edge">
<title>node0033&#45;&gt;node0011</title>
<path fill="none" stroke="black" d="M1053.03,-60.48C1058.72,-64.7 1064.87,-68.78 1071,-72 1174.3,-126.24 1311.97,-147.54 1383.42,-155.36"/>
<polygon fill="black" stroke="black" points="1382.91,-158.82 1393.22,-156.38 1383.64,-151.86 1382.91,-158.82"/>
<text text-anchor="middle" x="1154.45" y="-93.2" font-family="Times New Roman,serif" font-size="14.00">is a</text>
</g>
<!-- node0034 -->
<g id="node35" class="node">
<title>node0034</title>
<ellipse fill="none" stroke="black" cx="1116" cy="-36" rx="36" ry="36"/>
<text text-anchor="middle" x="1116" y="-32.12" font-family="Times New Roman,serif" font-size="10.00">ResponseAction</text>
</g>
<!-- node0034&#45;&gt;node0011 -->
<g id="edge34" class="edge">
<title>node0034&#45;&gt;node0011</title>
<path fill="none" stroke="black" d="M1143.1,-60.36C1148.78,-64.59 1154.91,-68.7 1161,-72 1234.42,-111.75 1328.94,-137.22 1384.46,-149.89"/>
<polygon fill="black" stroke="black" points="1383.69,-153.3 1394.21,-152.07 1385.22,-146.47 1383.69,-153.3"/>
<text text-anchor="middle" x="1241.05" y="-93.2" font-family="Times New Roman,serif" font-size="14.00">is a</text>
</g>
<!-- node0035 -->
<g id="node36" class="node">
<title>node0035</title>
<ellipse fill="none" stroke="black" cx="1206" cy="-36" rx="36" ry="36"/>
<text text-anchor="middle" x="1206" y="-32.5" font-family="Times New Roman,serif" font-size="10.00">3额</text>
</g>
<!-- node0035&#45;&gt;node0011 -->
<g id="edge35" class="edge">
<title>node0035&#45;&gt;node0011</title>
<path fill="none" stroke="black" d="M1233.43,-59.78C1239.09,-64.06 1245.12,-68.34 1251,-72 1295.43,-99.66 1349.9,-125.06 1387.2,-141.29"/>
<polygon fill="black" stroke="black" points="1385.76,-144.48 1396.33,-145.22 1388.53,-138.05 1385.76,-144.48"/>
<text text-anchor="middle" x="1317.91" y="-93.2" font-family="Times New Roman,serif" font-size="14.00">is a</text>
</g>
<!-- node0036 -->
<g id="node37" class="node">
<title>node0036</title>
<ellipse fill="none" stroke="black" cx="1296" cy="-36" rx="36" ry="36"/>
<text text-anchor="middle" x="1296" y="-32.12" font-family="Times New Roman,serif" font-size="10.00">432</text>
</g>
<!-- node0036&#45;&gt;node0011 -->
<g id="edge36" class="edge">
<title>node0036&#45;&gt;node0011</title>
<path fill="none" stroke="black" d="M1322.35,-60.91C1343.44,-80.05 1373.2,-107.06 1396.25,-127.96"/>
<polygon fill="black" stroke="black" points="1393.84,-130.51 1403.6,-134.63 1398.54,-125.32 1393.84,-130.51"/>
<text text-anchor="middle" x="1380.96" y="-93.2" font-family="Times New Roman,serif" font-size="14.00">is a</text>
</g>
<!-- node0037 -->
<g id="node38" class="node">
<title>node0037</title>
<ellipse fill="none" stroke="black" cx="1386" cy="-36" rx="36" ry="36"/>
<text text-anchor="middle" x="1386" y="-32.12" font-family="Times New Roman,serif" font-size="10.00">4332</text>
</g>
<!-- node0037&#45;&gt;node0011 -->
<g id="edge37" class="edge">
<title>node0037&#45;&gt;node0011</title>
<path fill="none" stroke="black" d="M1398.18,-70.15C1403.33,-84.18 1409.4,-100.71 1414.92,-115.72"/>
<polygon fill="black" stroke="black" points="1411.56,-116.72 1418.29,-124.9 1418.13,-114.31 1411.56,-116.72"/>
<text text-anchor="middle" x="1420.57" y="-93.2" font-family="Times New Roman,serif" font-size="14.00">is a</text>
</g>
<!-- node0038 -->
<g id="node39" class="node">
<title>node0038</title>
<ellipse fill="none" stroke="black" cx="1476" cy="-36" rx="36" ry="36"/>
<text text-anchor="middle" x="1476" y="-32.12" font-family="Times New Roman,serif" font-size="10.00">454235</text>
</g>
<!-- node0038&#45;&gt;node0011 -->
<g id="edge38" class="edge">
<title>node0038&#45;&gt;node0011</title>
<path fill="none" stroke="black" d="M1463.82,-70.15C1458.67,-84.18 1452.6,-100.71 1447.08,-115.72"/>
<polygon fill="black" stroke="black" points="1443.87,-114.31 1443.71,-124.9 1450.44,-116.72 1443.87,-114.31"/>
<text text-anchor="middle" x="1465.57" y="-93.2" font-family="Times New Roman,serif" font-size="14.00">is a</text>
</g>
<!-- node0039 -->
<g id="node40" class="node">
<title>node0039</title>
<ellipse fill="none" stroke="black" cx="1566" cy="-36" rx="36" ry="36"/>
<text text-anchor="middle" x="1566" y="-32.12" font-family="Times New Roman,serif" font-size="10.00">52431</text>
</g>
<!-- node0039&#45;&gt;node0011 -->
<g id="edge39" class="edge">
<title>node0039&#45;&gt;node0011</title>
<path fill="none" stroke="black" d="M1539.65,-60.91C1518.56,-80.05 1488.8,-107.06 1465.75,-127.96"/>
<polygon fill="black" stroke="black" points="1463.46,-125.32 1458.4,-134.63 1468.16,-130.51 1463.46,-125.32"/>
<text text-anchor="middle" x="1515.96" y="-93.2" font-family="Times New Roman,serif" font-size="14.00">is a</text>
</g>
<!-- node0040 -->
<g id="node41" class="node">
<title>node0040</title>
<ellipse fill="none" stroke="black" cx="1656" cy="-36" rx="36" ry="36"/>
<text text-anchor="middle" x="1656" y="-32.12" font-family="Times New Roman,serif" font-size="10.00">5322342</text>
</g>
<!-- node0040&#45;&gt;node0011 -->
<g id="edge40" class="edge">
<title>node0040&#45;&gt;node0011</title>
<path fill="none" stroke="black" d="M1628.57,-59.78C1622.91,-64.06 1616.88,-68.34 1611,-72 1566.57,-99.66 1512.1,-125.06 1474.8,-141.29"/>
<polygon fill="black" stroke="black" points="1473.47,-138.05 1465.67,-145.22 1476.24,-144.48 1473.47,-138.05"/>
<text text-anchor="middle" x="1587.32" y="-93.2" font-family="Times New Roman,serif" font-size="14.00">is a</text>
</g>
<!-- node0041 -->
<g id="node42" class="node">
<title>node0041</title>
<ellipse fill="none" stroke="black" cx="1746" cy="-36" rx="36" ry="36"/>
<text text-anchor="middle" x="1746" y="-32.12" font-family="Times New Roman,serif" font-size="10.00">546452345</text>
</g>
<!-- node0041&#45;&gt;node0011 -->
<g id="edge41" class="edge">
<title>node0041&#45;&gt;node0011</title>
<path fill="none" stroke="black" d="M1718.9,-60.35C1713.22,-64.59 1707.09,-68.7 1701,-72 1627.59,-111.78 1533.07,-137.24 1477.55,-149.9"/>
<polygon fill="black" stroke="black" points="1476.79,-146.48 1467.79,-152.08 1478.31,-153.31 1476.79,-146.48"/>
<text text-anchor="middle" x="1668.73" y="-93.2" font-family="Times New Roman,serif" font-size="14.00">is a</text>
</g>
<!-- node0042 -->
<g id="node43" class="node">
<title>node0042</title>
<ellipse fill="none" stroke="black" cx="1836" cy="-36" rx="36" ry="36"/>
<text text-anchor="middle" x="1836" y="-32.12" font-family="Times New Roman,serif" font-size="10.00">5546246246</text>
</g>
<!-- node0042&#45;&gt;node0011 -->
<g id="edge42" class="edge">
<title>node0042&#45;&gt;node0011</title>
<path fill="none" stroke="black" d="M1808.97,-60.48C1803.28,-64.7 1797.13,-68.78 1791,-72 1687.71,-126.27 1550.04,-147.56 1478.58,-155.37"/>
<polygon fill="black" stroke="black" points="1478.37,-151.87 1468.78,-156.39 1479.09,-158.83 1478.37,-151.87"/>
<text text-anchor="middle" x="1754.87" y="-93.2" font-family="Times New Roman,serif" font-size="14.00">is a</text>
</g>
<!-- node0043 -->
<g id="node44" class="node">
<title>node0043</title>
<ellipse fill="none" stroke="black" cx="1926" cy="-36" rx="36" ry="36"/>
<text text-anchor="middle" x="1926" y="-32.12" font-family="Times New Roman,serif" font-size="10.00">5636336</text>
</g>
<!-- node0043&#45;&gt;node0011 -->
<g id="edge43" class="edge">
<title>node0043&#45;&gt;node0011</title>
<path fill="none" stroke="black" d="M1898.99,-60.53C1893.3,-64.75 1887.15,-68.81 1881,-72 1834.39,-96.19 1819.17,-94.73 1768,-106.5 1665.64,-130.05 1543.36,-146.41 1477.89,-154.24"/>
<polygon fill="black" stroke="black" points="1477.76,-150.73 1468.24,-155.38 1478.58,-157.68 1477.76,-150.73"/>
<text text-anchor="middle" x="1847.14" y="-93.2" font-family="Times New Roman,serif" font-size="14.00">is a</text>
</g>
<!-- node0044 -->
<g id="node45" class="node">
<title>node0044</title>
<ellipse fill="none" stroke="black" cx="2016" cy="-36" rx="36" ry="36"/>
<text text-anchor="middle" x="2016" y="-32.12" font-family="Times New Roman,serif" font-size="10.00">64</text>
</g>
<!-- node0044&#45;&gt;node0011 -->
<g id="edge44" class="edge">
<title>node0044&#45;&gt;node0011</title>
<path fill="none" stroke="black" d="M1988.97,-60.49C1983.28,-64.71 1977.14,-68.79 1971,-72 1925.61,-95.77 1911.08,-95.65 1861,-106.5 1723.84,-136.2 1558.21,-150.76 1478.46,-156.47"/>
<polygon fill="black" stroke="black" points="1478.57,-152.96 1468.84,-157.15 1479.06,-159.94 1478.57,-152.96"/>
<text text-anchor="middle" x="1940.25" y="-93.2" font-family="Times New Roman,serif" font-size="14.00">is a</text>
</g>
<!-- node0045 -->
<g id="node46" class="node">
<title>node0045</title>
<ellipse fill="none" stroke="black" cx="2106" cy="-36" rx="36" ry="36"/>
<text text-anchor="middle" x="2106" y="-32.12" font-family="Times New Roman,serif" font-size="10.00">6454</text>
</g>
<!-- node0045&#45;&gt;node0011 -->
<g id="edge45" class="edge">
<title>node0045&#45;&gt;node0011</title>
<path fill="none" stroke="black" d="M2078.95,-60.45C2073.26,-64.68 2067.12,-68.76 2061,-72 2016.83,-95.36 2002.91,-96.26 1954,-106.5 1781.35,-142.66 1571.28,-154.43 1478.71,-158.03"/>
<polygon fill="black" stroke="black" points="1478.6,-154.53 1468.74,-158.4 1478.86,-161.52 1478.6,-154.53"/>
<text text-anchor="middle" x="2029.54" y="-93.2" font-family="Times New Roman,serif" font-size="14.00">is a</text>
</g>
<!-- node0046 -->
<g id="node47" class="node">
<title>node0046</title>
<ellipse fill="none" stroke="black" cx="2196" cy="-36" rx="36" ry="36"/>
<text text-anchor="middle" x="2196" y="-32.12" font-family="Times New Roman,serif" font-size="10.00">85646</text>
</g>
<!-- node0046&#45;&gt;node0011 -->
<g id="edge46" class="edge">
<title>node0046&#45;&gt;node0011</title>
<path fill="none" stroke="black" d="M2168.96,-60.46C2163.27,-64.69 2157.13,-68.77 2151,-72 2106.42,-95.5 2092.41,-96.6 2043,-106.5 1835.58,-148.07 1582.17,-157.04 1478.57,-158.97"/>
<polygon fill="black" stroke="black" points="1478.72,-155.47 1468.78,-159.14 1478.84,-162.47 1478.72,-155.47"/>
<text text-anchor="middle" x="2121.04" y="-93.2" font-family="Times New Roman,serif" font-size="14.00">is a</text>
</g>
<!-- node0047 -->
<g id="node48" class="node">
<title>node0047</title>
<ellipse fill="none" stroke="black" cx="2286" cy="-36" rx="36" ry="36"/>
<text text-anchor="middle" x="2286" y="-32.12" font-family="Times New Roman,serif" font-size="10.00">在</text>
</g>
<!-- node0047&#45;&gt;node0011 -->
<g id="edge47" class="edge">
<title>node0047&#45;&gt;node0011</title>
<path fill="none" stroke="black" d="M2258.95,-60.45C2253.26,-64.68 2247.12,-68.76 2241,-72 2196.83,-95.36 2183.03,-96.89 2134,-106.5 1890.97,-154.14 1592.94,-159.58 1478.68,-159.77"/>
<polygon fill="black" stroke="black" points="1478.76,-156.27 1468.76,-159.77 1478.76,-163.27 1478.76,-156.27"/>
<text text-anchor="middle" x="2211.42" y="-93.2" font-family="Times New Roman,serif" font-size="14.00">is a</text>
</g>
<!-- node0048 -->
<g id="node49" class="node">
<title>node0048</title>
<ellipse fill="none" stroke="black" cx="2376" cy="-36" rx="36" ry="36"/>
<text text-anchor="middle" x="2376" y="-32.12" font-family="Times New Roman,serif" font-size="10.00">我的</text>
</g>
<!-- node0048&#45;&gt;node0011 -->
<g id="edge48" class="edge">
<title>node0048&#45;&gt;node0011</title>
<path fill="none" stroke="black" d="M2348.95,-60.44C2343.26,-64.66 2337.12,-68.75 2331,-72 2287.24,-95.22 2273.65,-97.11 2225,-106.5 2080.54,-134.38 1626.88,-152.55 1478.49,-157.88"/>
<polygon fill="black" stroke="black" points="1478.5,-154.37 1468.63,-158.23 1478.75,-161.37 1478.5,-154.37"/>
<text text-anchor="middle" x="2301.8" y="-93.2" font-family="Times New Roman,serif" font-size="14.00">is a</text>
</g>
<!-- node0049 -->
<g id="node50" class="node">
<title>node0049</title>
<ellipse fill="none" stroke="black" cx="2466" cy="-36" rx="36" ry="36"/>
<text text-anchor="middle" x="2466" y="-32.12" font-family="Times New Roman,serif" font-size="10.00">部分</text>
</g>
<!-- node0049&#45;&gt;node0011 -->
<g id="edge49" class="edge">
<title>node0049&#45;&gt;node0011</title>
<path fill="none" stroke="black" d="M2438.95,-60.44C2433.26,-64.66 2427.12,-68.75 2421,-72 2377.24,-95.22 2363.68,-97.28 2315,-106.5 2152.34,-137.32 1637.74,-153.79 1478.46,-158.25"/>
<polygon fill="black" stroke="black" points="1478.59,-154.74 1468.7,-158.52 1478.79,-161.74 1478.59,-154.74"/>
<text text-anchor="middle" x="2391.81" y="-93.2" font-family="Times New Roman,serif" font-size="14.00">is a</text>
</g>
<!-- node0050 -->
<g id="node51" class="node">
<title>node0050</title>
<ellipse fill="none" stroke="black" cx="2556" cy="-36" rx="36" ry="36"/>
<text text-anchor="middle" x="2556" y="-32.12" font-family="Times New Roman,serif" font-size="10.00">CollidedState</text>
</g>
<!-- node0050&#45;&gt;node0017 -->
<g id="edge50" class="edge">
<title>node0050&#45;&gt;node0017</title>
<path fill="none" stroke="black" d="M2583.66,-59.43C2589.3,-63.74 2595.26,-68.12 2601,-72 2639.36,-97.94 2652.64,-98.56 2691,-124.5 2693.69,-126.32 2696.43,-128.25 2699.16,-130.23"/>
<polygon fill="black" stroke="black" points="2697.02,-132.99 2707.13,-136.16 2701.2,-127.38 2697.02,-132.99"/>
<text text-anchor="middle" x="2669.61" y="-93.2" font-family="Times New Roman,serif" font-size="14.00">is a</text>
</g>
<!-- node0051 -->
<g id="node52" class="node">
<title>node0051</title>
<ellipse fill="none" stroke="black" cx="2646" cy="-36" rx="36" ry="36"/>
<text text-anchor="middle" x="2646" y="-32.12" font-family="Times New Roman,serif" font-size="10.00">ExplodeState</text>
</g>
<!-- node0051&#45;&gt;node0017 -->
<g id="edge51" class="edge">
<title>node0051&#45;&gt;node0017</title>
<path fill="none" stroke="black" d="M2667.1,-65.72C2679.4,-82.46 2695.06,-103.77 2708.33,-121.84"/>
<polygon fill="black" stroke="black" points="2705.39,-123.75 2714.14,-129.74 2711.03,-119.61 2705.39,-123.75"/>
<text text-anchor="middle" x="2705.76" y="-93.2" font-family="Times New Roman,serif" font-size="14.00">is a</text>
</g>
<!-- node0052 -->
<g id="node53" class="node">
<title>node0052</title>
<ellipse fill="none" stroke="black" cx="2736" cy="-36" rx="36" ry="36"/>
<text text-anchor="middle" x="2736" y="-32.12" font-family="Times New Roman,serif" font-size="10.00">DrivingState</text>
</g>
<!-- node0052&#45;&gt;node0017 -->
<g id="edge52" class="edge">
<title>node0052&#45;&gt;node0017</title>
<path fill="none" stroke="black" d="M2736,-72.43C2736,-85 2736,-99.35 2736,-112.72"/>
<polygon fill="black" stroke="black" points="2732.5,-112.63 2736,-122.63 2739.5,-112.63 2732.5,-112.63"/>
<text text-anchor="middle" x="2745.38" y="-93.2" font-family="Times New Roman,serif" font-size="14.00">is a</text>
</g>
<!-- node0053 -->
<g id="node54" class="node">
<title>node0053</title>
<ellipse fill="none" stroke="black" cx="2826" cy="-36" rx="36" ry="36"/>
<text text-anchor="middle" x="2826" y="-32.12" font-family="Times New Roman,serif" font-size="10.00">DriveState</text>
</g>
<!-- node0053&#45;&gt;node0018 -->
<g id="edge53" class="edge">
<title>node0053&#45;&gt;node0018</title>
<path fill="none" stroke="black" d="M2826,-72.43C2826,-85 2826,-99.35 2826,-112.72"/>
<polygon fill="black" stroke="black" points="2822.5,-112.63 2826,-122.63 2829.5,-112.63 2822.5,-112.63"/>
<text text-anchor="middle" x="2835.38" y="-93.2" font-family="Times New Roman,serif" font-size="14.00">is a</text>
</g>
<!-- node0054 -->
<g id="node55" class="node">
<title>node0054</title>
<ellipse fill="none" stroke="black" cx="2916" cy="-36" rx="36" ry="36"/>
<text text-anchor="middle" x="2916" y="-32.12" font-family="Times New Roman,serif" font-size="10.00">CollideState</text>
</g>
<!-- node0054&#45;&gt;node0018 -->
<g id="edge54" class="edge">
<title>node0054&#45;&gt;node0018</title>
<path fill="none" stroke="black" d="M2894.9,-65.72C2882.6,-82.46 2866.94,-103.77 2853.67,-121.84"/>
<polygon fill="black" stroke="black" points="2850.97,-119.61 2847.86,-129.74 2856.61,-123.75 2850.97,-119.61"/>
<text text-anchor="middle" x="2885.76" y="-93.2" font-family="Times New Roman,serif" font-size="14.00">is a</text>
</g>
<!-- node0055 -->
<g id="node56" class="node">
<title>node0055</title>
<ellipse fill="none" stroke="black" cx="3006" cy="-36" rx="36" ry="36"/>
<text text-anchor="middle" x="3006" y="-32.12" font-family="Times New Roman,serif" font-size="10.00">SpillState</text>
</g>
<!-- node0055&#45;&gt;node0018 -->
<g id="edge55" class="edge">
<title>node0055&#45;&gt;node0018</title>
<path fill="none" stroke="black" d="M2978.34,-59.43C2972.7,-63.74 2966.74,-68.12 2961,-72 2922.64,-97.94 2909.36,-98.56 2871,-124.5 2868.31,-126.32 2865.57,-128.25 2862.84,-130.23"/>
<polygon fill="black" stroke="black" points="2860.8,-127.38 2854.87,-136.16 2864.98,-132.99 2860.8,-127.38"/>
<text text-anchor="middle" x="2939.61" y="-93.2" font-family="Times New Roman,serif" font-size="14.00">is a</text>
</g>
</g>
</svg>
