<?xml version="1.0" encoding="UTF-8" standalone="no"?>
<!DOCTYPE svg PUBLIC "-//W3C//DTD SVG 1.1//EN"
 "http://www.w3.org/Graphics/SVG/1.1/DTD/svg11.dtd">
<!-- Generated by graphviz version 12.1.2 (20240928.0832)
 -->
<!-- Title: G Pages: 1 -->
<svg width="620pt" height="329pt"
 viewBox="0.00 0.00 620.00 329.00" xmlns="http://www.w3.org/2000/svg" xmlns:xlink="http://www.w3.org/1999/xlink">
<g id="graph0" class="graph" transform="scale(1 1) rotate(0) translate(4 325)">
<title>G</title>
<polygon fill="white" stroke="none" points="-4,4 -4,-325 616,-325 616,4 -4,4"/>
<!-- node0000 -->
<g id="node1" class="node">
<title>node0000</title>
<ellipse fill="none" stroke="black" cx="261" cy="-285" rx="36" ry="36"/>
<text text-anchor="middle" x="261" y="-281.12" font-family="Times New Roman,serif" font-size="10.00">Thing</text>
</g>
<!-- node0001 -->
<g id="node2" class="node">
<title>node0001</title>
<ellipse fill="none" stroke="black" cx="126" cy="-160.5" rx="36" ry="36"/>
<text text-anchor="middle" x="126" y="-156.62" font-family="Times New Roman,serif" font-size="10.00">Scenario</text>
</g>
<!-- node0001&#45;&gt;node0000 -->
<g id="edge1" class="edge">
<title>node0001&#45;&gt;node0000</title>
<path fill="none" stroke="black" d="M152.35,-185.41C173.44,-204.55 203.2,-231.56 226.25,-252.46"/>
<polygon fill="black" stroke="black" points="223.84,-255.01 233.6,-259.13 228.54,-249.82 223.84,-255.01"/>
<text text-anchor="middle" x="210.96" y="-217.7" font-family="Times New Roman,serif" font-size="14.00">is a</text>
</g>
<!-- node0002 -->
<g id="node3" class="node">
<title>node0002</title>
<ellipse fill="none" stroke="black" cx="216" cy="-160.5" rx="36" ry="36"/>
<text text-anchor="middle" x="216" y="-156.62" font-family="Times New Roman,serif" font-size="10.00">ScenarioResilience</text>
</g>
<!-- node0002&#45;&gt;node0000 -->
<g id="edge2" class="edge">
<title>node0002&#45;&gt;node0000</title>
<path fill="none" stroke="black" d="M228.18,-194.65C233.33,-208.68 239.4,-225.21 244.92,-240.22"/>
<polygon fill="black" stroke="black" points="241.56,-241.22 248.29,-249.4 248.13,-238.81 241.56,-241.22"/>
<text text-anchor="middle" x="250.57" y="-217.7" font-family="Times New Roman,serif" font-size="14.00">is a</text>
</g>
<!-- node0003 -->
<g id="node4" class="node">
<title>node0003</title>
<ellipse fill="none" stroke="black" cx="306" cy="-160.5" rx="36" ry="36"/>
<text text-anchor="middle" x="306" y="-156.62" font-family="Times New Roman,serif" font-size="10.00">InvolvedScenarioElement</text>
</g>
<!-- node0003&#45;&gt;node0000 -->
<g id="edge3" class="edge">
<title>node0003&#45;&gt;node0000</title>
<path fill="none" stroke="black" d="M293.82,-194.65C288.67,-208.68 282.6,-225.21 277.08,-240.22"/>
<polygon fill="black" stroke="black" points="273.87,-238.81 273.71,-249.4 280.44,-241.22 273.87,-238.81"/>
<text text-anchor="middle" x="295.57" y="-217.7" font-family="Times New Roman,serif" font-size="14.00">is a</text>
</g>
<!-- node0004 -->
<g id="node5" class="node">
<title>node0004</title>
<ellipse fill="none" stroke="black" cx="396" cy="-160.5" rx="36" ry="36"/>
<text text-anchor="middle" x="396" y="-156.62" font-family="Times New Roman,serif" font-size="10.00">ResilienceInfluentialFactors</text>
</g>
<!-- node0004&#45;&gt;node0000 -->
<g id="edge4" class="edge">
<title>node0004&#45;&gt;node0000</title>
<path fill="none" stroke="black" d="M369.65,-185.41C348.56,-204.55 318.8,-231.56 295.75,-252.46"/>
<polygon fill="black" stroke="black" points="293.46,-249.82 288.4,-259.13 298.16,-255.01 293.46,-249.82"/>
<text text-anchor="middle" x="345.96" y="-217.7" font-family="Times New Roman,serif" font-size="14.00">is a</text>
</g>
<!-- node0005 -->
<g id="node6" class="node">
<title>node0005</title>
<ellipse fill="none" stroke="black" cx="36" cy="-36" rx="36" ry="36"/>
<text text-anchor="middle" x="36" y="-32.12" font-family="Times New Roman,serif" font-size="10.00">AdaptionScenario</text>
</g>
<!-- node0005&#45;&gt;node0001 -->
<g id="edge5" class="edge">
<title>node0005&#45;&gt;node0001</title>
<path fill="none" stroke="black" d="M57.1,-65.72C69.4,-82.46 85.06,-103.77 98.33,-121.84"/>
<polygon fill="black" stroke="black" points="95.39,-123.75 104.14,-129.74 101.03,-119.61 95.39,-123.75"/>
<text text-anchor="middle" x="95.76" y="-93.2" font-family="Times New Roman,serif" font-size="14.00">is a</text>
</g>
<!-- node0006 -->
<g id="node7" class="node">
<title>node0006</title>
<ellipse fill="none" stroke="black" cx="126" cy="-36" rx="36" ry="36"/>
<text text-anchor="middle" x="126" y="-32.12" font-family="Times New Roman,serif" font-size="10.00">AbsorptionScenario</text>
</g>
<!-- node0006&#45;&gt;node0001 -->
<g id="edge6" class="edge">
<title>node0006&#45;&gt;node0001</title>
<path fill="none" stroke="black" d="M126,-72.43C126,-85 126,-99.35 126,-112.72"/>
<polygon fill="black" stroke="black" points="122.5,-112.63 126,-122.63 129.5,-112.63 122.5,-112.63"/>
<text text-anchor="middle" x="135.38" y="-93.2" font-family="Times New Roman,serif" font-size="14.00">is a</text>
</g>
<!-- node0007 -->
<g id="node8" class="node">
<title>node0007</title>
<ellipse fill="none" stroke="black" cx="216" cy="-36" rx="36" ry="36"/>
<text text-anchor="middle" x="216" y="-32.12" font-family="Times New Roman,serif" font-size="10.00">RecoveryScenario</text>
</g>
<!-- node0007&#45;&gt;node0001 -->
<g id="edge7" class="edge">
<title>node0007&#45;&gt;node0001</title>
<path fill="none" stroke="black" d="M194.9,-65.72C182.6,-82.46 166.94,-103.77 153.67,-121.84"/>
<polygon fill="black" stroke="black" points="150.97,-119.61 147.86,-129.74 156.61,-123.75 150.97,-119.61"/>
<text text-anchor="middle" x="185.76" y="-93.2" font-family="Times New Roman,serif" font-size="14.00">is a</text>
</g>
<!-- node0008 -->
<g id="node9" class="node">
<title>node0008</title>
<ellipse fill="none" stroke="black" cx="306" cy="-36" rx="36" ry="36"/>
<text text-anchor="middle" x="306" y="-32.12" font-family="Times New Roman,serif" font-size="10.00">SafetyFactors</text>
</g>
<!-- node0008&#45;&gt;node0004 -->
<g id="edge8" class="edge">
<title>node0008&#45;&gt;node0004</title>
<path fill="none" stroke="black" d="M327.1,-65.72C339.4,-82.46 355.06,-103.77 368.33,-121.84"/>
<polygon fill="black" stroke="black" points="365.39,-123.75 374.14,-129.74 371.03,-119.61 365.39,-123.75"/>
<text text-anchor="middle" x="365.76" y="-93.2" font-family="Times New Roman,serif" font-size="14.00">is a</text>
</g>
<!-- node0009 -->
<g id="node10" class="node">
<title>node0009</title>
<ellipse fill="none" stroke="black" cx="396" cy="-36" rx="36" ry="36"/>
<text text-anchor="middle" x="396" y="-32.12" font-family="Times New Roman,serif" font-size="10.00">FunctionFactors</text>
</g>
<!-- node0009&#45;&gt;node0004 -->
<g id="edge9" class="edge">
<title>node0009&#45;&gt;node0004</title>
<path fill="none" stroke="black" d="M396,-72.43C396,-85 396,-99.35 396,-112.72"/>
<polygon fill="black" stroke="black" points="392.5,-112.63 396,-122.63 399.5,-112.63 392.5,-112.63"/>
<text text-anchor="middle" x="405.38" y="-93.2" font-family="Times New Roman,serif" font-size="14.00">is a</text>
</g>
<!-- node0010 -->
<g id="node11" class="node">
<title>node0010</title>
<ellipse fill="none" stroke="black" cx="486" cy="-36" rx="36" ry="36"/>
<text text-anchor="middle" x="486" y="-32.12" font-family="Times New Roman,serif" font-size="10.00">EconomicFactors</text>
</g>
<!-- node0010&#45;&gt;node0004 -->
<g id="edge10" class="edge">
<title>node0010&#45;&gt;node0004</title>
<path fill="none" stroke="black" d="M464.9,-65.72C452.6,-82.46 436.94,-103.77 423.67,-121.84"/>
<polygon fill="black" stroke="black" points="420.97,-119.61 417.86,-129.74 426.61,-123.75 420.97,-119.61"/>
<text text-anchor="middle" x="455.76" y="-93.2" font-family="Times New Roman,serif" font-size="14.00">is a</text>
</g>
<!-- node0011 -->
<g id="node12" class="node">
<title>node0011</title>
<ellipse fill="none" stroke="black" cx="576" cy="-36" rx="36" ry="36"/>
<text text-anchor="middle" x="576" y="-32.12" font-family="Times New Roman,serif" font-size="10.00">TimeFactors</text>
</g>
<!-- node0011&#45;&gt;node0004 -->
<g id="edge11" class="edge">
<title>node0011&#45;&gt;node0004</title>
<path fill="none" stroke="black" d="M548.2,-59.22C542.57,-63.55 536.65,-67.99 531,-72 499.78,-94.2 463.26,-117.73 436.08,-134.79"/>
<polygon fill="black" stroke="black" points="434.43,-131.7 427.8,-139.96 438.14,-137.63 434.43,-131.7"/>
<text text-anchor="middle" x="511.38" y="-93.2" font-family="Times New Roman,serif" font-size="14.00">is a</text>
</g>
</g>
</svg>
