<?xml version="1.0" encoding="UTF-8" standalone="no"?>
<!DOCTYPE svg PUBLIC "-//W3C//DTD SVG 1.1//EN"
 "http://www.w3.org/Graphics/SVG/1.1/DTD/svg11.dtd">
<!-- Generated by graphviz version 12.1.2 (20240928.0832)
 -->
<!-- Title: G Pages: 1 -->
<svg width="1700pt" height="454pt"
 viewBox="0.00 0.00 1700.00 453.50" xmlns="http://www.w3.org/2000/svg" xmlns:xlink="http://www.w3.org/1999/xlink">
<g id="graph0" class="graph" transform="scale(1 1) rotate(0) translate(4 449.5)">
<title>G</title>
<polygon fill="white" stroke="none" points="-4,4 -4,-449.5 1696,-449.5 1696,4 -4,4"/>
<!-- node0000 -->
<g id="node1" class="node">
<title>node0000</title>
<ellipse fill="none" stroke="black" cx="822" cy="-409.5" rx="36" ry="36"/>
<text text-anchor="middle" x="822" y="-405.62" font-family="Times New Roman,serif" font-size="10.00">Thing</text>
</g>
<!-- node0001 -->
<g id="node2" class="node">
<title>node0001</title>
<ellipse fill="none" stroke="black" cx="126" cy="-285" rx="36" ry="36"/>
<text text-anchor="middle" x="126" y="-281.12" font-family="Times New Roman,serif" font-size="10.00">&#45;28</text>
</g>
<!-- node0001&#45;&gt;node0000 -->
<g id="edge1" class="edge">
<title>node0001&#45;&gt;node0000</title>
<path fill="none" stroke="black" d="M152.26,-309.69C158.11,-314 164.51,-318.06 171,-321 244.89,-354.49 270.04,-343.3 350.25,-355.5 504.72,-379.01 689.12,-396.76 774.41,-404.4"/>
<polygon fill="black" stroke="black" points="773.99,-407.87 784.26,-405.27 774.61,-400.9 773.99,-407.87"/>
<text text-anchor="middle" x="359.62" y="-342.2" font-family="Times New Roman,serif" font-size="14.00">is a</text>
</g>
<!-- node0002 -->
<g id="node3" class="node">
<title>node0002</title>
<ellipse fill="none" stroke="black" cx="216" cy="-285" rx="36" ry="36"/>
<text text-anchor="middle" x="216" y="-281.12" font-family="Times New Roman,serif" font-size="10.00">Scenario</text>
</g>
<!-- node0002&#45;&gt;node0000 -->
<g id="edge2" class="edge">
<title>node0002&#45;&gt;node0000</title>
<path fill="none" stroke="black" d="M249.52,-298.67C291.95,-314.24 367.53,-340.44 434.25,-355.5 555.35,-382.84 701.12,-398.15 774.65,-404.68"/>
<polygon fill="black" stroke="black" points="774.04,-408.14 784.3,-405.52 774.65,-401.17 774.04,-408.14"/>
<text text-anchor="middle" x="443.62" y="-342.2" font-family="Times New Roman,serif" font-size="14.00">is a</text>
</g>
<!-- node0003 -->
<g id="node4" class="node">
<title>node0003</title>
<ellipse fill="none" stroke="black" cx="372" cy="-285" rx="36" ry="36"/>
<text text-anchor="middle" x="372" y="-281.12" font-family="Times New Roman,serif" font-size="10.00">ScenarioResilience</text>
</g>
<!-- node0003&#45;&gt;node0000 -->
<g id="edge3" class="edge">
<title>node0003&#45;&gt;node0000</title>
<path fill="none" stroke="black" d="M399.05,-309.45C404.73,-313.68 410.87,-317.76 417,-321 535.27,-383.5 695.41,-401.37 774.19,-406.47"/>
<polygon fill="black" stroke="black" points="773.96,-409.96 784.16,-407.07 774.38,-402.97 773.96,-409.96"/>
<text text-anchor="middle" x="498.54" y="-342.2" font-family="Times New Roman,serif" font-size="14.00">is a</text>
</g>
<!-- node0004 -->
<g id="node5" class="node">
<title>node0004</title>
<ellipse fill="none" stroke="black" cx="462" cy="-285" rx="36" ry="36"/>
<text text-anchor="middle" x="462" y="-281.12" font-family="Times New Roman,serif" font-size="10.00">InvolvedScenarioElement</text>
</g>
<!-- node0004&#45;&gt;node0000 -->
<g id="edge4" class="edge">
<title>node0004&#45;&gt;node0000</title>
<path fill="none" stroke="black" d="M489.08,-309.39C494.77,-313.62 500.9,-317.72 507,-321 595.01,-368.31 710.94,-391.93 774.77,-402.07"/>
<polygon fill="black" stroke="black" points="774.15,-405.52 784.56,-403.58 775.21,-398.6 774.15,-405.52"/>
<text text-anchor="middle" x="589.79" y="-342.2" font-family="Times New Roman,serif" font-size="14.00">is a</text>
</g>
<!-- node0005 -->
<g id="node6" class="node">
<title>node0005</title>
<ellipse fill="none" stroke="black" cx="552" cy="-285" rx="36" ry="36"/>
<text text-anchor="middle" x="552" y="-281.12" font-family="Times New Roman,serif" font-size="10.00">ResilienceInfluentialFactors</text>
</g>
<!-- node0005&#45;&gt;node0000 -->
<g id="edge5" class="edge">
<title>node0005&#45;&gt;node0000</title>
<path fill="none" stroke="black" d="M579.2,-309.17C584.88,-313.42 590.97,-317.58 597,-321 655.77,-354.34 729.75,-380.38 776.47,-395.11"/>
<polygon fill="black" stroke="black" points="775.42,-398.44 786,-398.06 777.49,-391.76 775.42,-398.44"/>
<text text-anchor="middle" x="671.73" y="-342.2" font-family="Times New Roman,serif" font-size="14.00">is a</text>
</g>
<!-- node0006 -->
<g id="node7" class="node">
<title>node0006</title>
<ellipse fill="none" stroke="black" cx="642" cy="-285" rx="36" ry="36"/>
<text text-anchor="middle" x="642" y="-281.12" font-family="Times New Roman,serif" font-size="10.00">Emergency</text>
</g>
<!-- node0006&#45;&gt;node0000 -->
<g id="edge6" class="edge">
<title>node0006&#45;&gt;node0000</title>
<path fill="none" stroke="black" d="M669.8,-308.22C675.43,-312.55 681.35,-316.99 687,-321 718.22,-343.2 754.74,-366.73 781.92,-383.79"/>
<polygon fill="black" stroke="black" points="779.86,-386.63 790.2,-388.96 783.57,-380.7 779.86,-386.63"/>
<text text-anchor="middle" x="743.9" y="-342.2" font-family="Times New Roman,serif" font-size="14.00">is a</text>
</g>
<!-- node0007 -->
<g id="node8" class="node">
<title>node0007</title>
<ellipse fill="none" stroke="black" cx="732" cy="-285" rx="36" ry="36"/>
<text text-anchor="middle" x="732" y="-281.12" font-family="Times New Roman,serif" font-size="10.00">EmergencyPhase</text>
</g>
<!-- node0007&#45;&gt;node0000 -->
<g id="edge7" class="edge">
<title>node0007&#45;&gt;node0000</title>
<path fill="none" stroke="black" d="M753.1,-314.72C765.4,-331.46 781.06,-352.77 794.33,-370.84"/>
<polygon fill="black" stroke="black" points="791.39,-372.75 800.14,-378.74 797.03,-368.61 791.39,-372.75"/>
<text text-anchor="middle" x="791.76" y="-342.2" font-family="Times New Roman,serif" font-size="14.00">is a</text>
</g>
<!-- node0008 -->
<g id="node9" class="node">
<title>node0008</title>
<ellipse fill="none" stroke="black" cx="822" cy="-285" rx="36" ry="36"/>
<text text-anchor="middle" x="822" y="-281.12" font-family="Times New Roman,serif" font-size="10.00">InvolvedScenario</text>
</g>
<!-- node0008&#45;&gt;node0000 -->
<g id="edge8" class="edge">
<title>node0008&#45;&gt;node0000</title>
<path fill="none" stroke="black" d="M822,-321.43C822,-334 822,-348.35 822,-361.72"/>
<polygon fill="black" stroke="black" points="818.5,-361.63 822,-371.63 825.5,-361.63 818.5,-361.63"/>
<text text-anchor="middle" x="831.38" y="-342.2" font-family="Times New Roman,serif" font-size="14.00">is a</text>
</g>
<!-- node0009 -->
<g id="node10" class="node">
<title>node0009</title>
<ellipse fill="none" stroke="black" cx="912" cy="-285" rx="36" ry="36"/>
<text text-anchor="middle" x="912" y="-281.12" font-family="Times New Roman,serif" font-size="10.00">ScenarioElement</text>
</g>
<!-- node0009&#45;&gt;node0000 -->
<g id="edge9" class="edge">
<title>node0009&#45;&gt;node0000</title>
<path fill="none" stroke="black" d="M890.9,-314.72C878.6,-331.46 862.94,-352.77 849.67,-370.84"/>
<polygon fill="black" stroke="black" points="846.97,-368.61 843.86,-378.74 852.61,-372.75 846.97,-368.61"/>
<text text-anchor="middle" x="881.76" y="-342.2" font-family="Times New Roman,serif" font-size="14.00">is a</text>
</g>
<!-- node0010 -->
<g id="node11" class="node">
<title>node0010</title>
<ellipse fill="none" stroke="black" cx="1026" cy="-285" rx="36" ry="36"/>
<text text-anchor="middle" x="1026" y="-281.12" font-family="Times New Roman,serif" font-size="10.00">ElementCompositions</text>
</g>
<!-- node0010&#45;&gt;node0000 -->
<g id="edge10" class="edge">
<title>node0010&#45;&gt;node0000</title>
<path fill="none" stroke="black" d="M995.46,-304.34C960.08,-325.58 901.65,-360.67 862.51,-384.18"/>
<polygon fill="black" stroke="black" points="860.82,-381.11 854.05,-389.26 864.42,-387.11 860.82,-381.11"/>
<text text-anchor="middle" x="945.59" y="-342.2" font-family="Times New Roman,serif" font-size="14.00">is a</text>
</g>
<!-- node0011 -->
<g id="node12" class="node">
<title>node0011</title>
<ellipse fill="none" stroke="black" cx="1116" cy="-285" rx="36" ry="36"/>
<text text-anchor="middle" x="1116" y="-281.12" font-family="Times New Roman,serif" font-size="10.00">ElementState</text>
</g>
<!-- node0011&#45;&gt;node0000 -->
<g id="edge11" class="edge">
<title>node0011&#45;&gt;node0000</title>
<path fill="none" stroke="black" d="M1088.89,-309.33C1083.2,-313.56 1077.08,-317.68 1071,-321 1004.25,-357.42 919.41,-383.39 867.98,-397.16"/>
<polygon fill="black" stroke="black" points="867.15,-393.75 858.37,-399.68 868.93,-400.52 867.15,-393.75"/>
<text text-anchor="middle" x="1041.77" y="-342.2" font-family="Times New Roman,serif" font-size="14.00">is a</text>
</g>
<!-- node0012 -->
<g id="node13" class="node">
<title>node0012</title>
<ellipse fill="none" stroke="black" cx="1206" cy="-285" rx="36" ry="36"/>
<text text-anchor="middle" x="1206" y="-281.12" font-family="Times New Roman,serif" font-size="10.00">aidStates</text>
</g>
<!-- node0012&#45;&gt;node0000 -->
<g id="edge12" class="edge">
<title>node0012&#45;&gt;node0000</title>
<path fill="none" stroke="black" d="M1178.95,-309.44C1173.26,-313.66 1167.12,-317.75 1161,-321 1064.82,-372.04 937.25,-394.49 869.32,-403.38"/>
<polygon fill="black" stroke="black" points="869.13,-399.87 859.65,-404.59 870,-406.82 869.13,-399.87"/>
<text text-anchor="middle" x="1127.48" y="-342.2" font-family="Times New Roman,serif" font-size="14.00">is a</text>
</g>
<!-- node0013 -->
<g id="node14" class="node">
<title>node0013</title>
<ellipse fill="none" stroke="black" cx="1296" cy="-285" rx="36" ry="36"/>
<text text-anchor="middle" x="1296" y="-281.12" font-family="Times New Roman,serif" font-size="10.00">firefightingStates</text>
</g>
<!-- node0013&#45;&gt;node0000 -->
<g id="edge13" class="edge">
<title>node0013&#45;&gt;node0000</title>
<path fill="none" stroke="black" d="M1268.97,-309.49C1263.28,-313.71 1257.14,-317.79 1251,-321 1205.61,-344.77 1190.84,-343.61 1141,-355.5 1045.38,-378.32 931.33,-394.72 868.79,-402.8"/>
<polygon fill="black" stroke="black" points="868.7,-399.29 859.23,-404.02 869.59,-406.23 868.7,-399.29"/>
<text text-anchor="middle" x="1218.29" y="-342.2" font-family="Times New Roman,serif" font-size="14.00">is a</text>
</g>
<!-- node0014 -->
<g id="node15" class="node">
<title>node0014</title>
<ellipse fill="none" stroke="black" cx="1386" cy="-285" rx="36" ry="36"/>
<text text-anchor="middle" x="1386" y="-281.12" font-family="Times New Roman,serif" font-size="10.00">rescueStates</text>
</g>
<!-- node0014&#45;&gt;node0000 -->
<g id="edge14" class="edge">
<title>node0014&#45;&gt;node0000</title>
<path fill="none" stroke="black" d="M1358.97,-309.48C1353.28,-313.7 1347.13,-317.78 1341,-321 1296.02,-344.64 1281.62,-344.53 1232,-355.5 1102.51,-384.12 946.37,-399.04 869.49,-405.12"/>
<polygon fill="black" stroke="black" points="869.5,-401.61 859.8,-405.87 870.04,-408.59 869.5,-401.61"/>
<text text-anchor="middle" x="1308.73" y="-342.2" font-family="Times New Roman,serif" font-size="14.00">is a</text>
</g>
<!-- node0015 -->
<g id="node16" class="node">
<title>node0015</title>
<ellipse fill="none" stroke="black" cx="1476" cy="-285" rx="36" ry="36"/>
<text text-anchor="middle" x="1476" y="-281.12" font-family="Times New Roman,serif" font-size="10.00">towStates</text>
</g>
<!-- node0015&#45;&gt;node0000 -->
<g id="edge15" class="edge">
<title>node0015&#45;&gt;node0000</title>
<path fill="none" stroke="black" d="M1448.97,-309.48C1443.28,-313.7 1437.13,-317.78 1431,-321 1386.02,-344.64 1371.74,-345.1 1322,-355.5 1158.04,-389.77 958.96,-402.44 869.53,-406.64"/>
<polygon fill="black" stroke="black" points="869.5,-403.14 859.67,-407.09 869.82,-410.13 869.5,-403.14"/>
<text text-anchor="middle" x="1400.64" y="-342.2" font-family="Times New Roman,serif" font-size="14.00">is a</text>
</g>
<!-- node0016 -->
<g id="node17" class="node">
<title>node0016</title>
<ellipse fill="none" stroke="black" cx="36" cy="-160.5" rx="36" ry="36"/>
<text text-anchor="middle" x="36" y="-156.62" font-family="Times New Roman,serif" font-size="10.00">AdaptionScenario</text>
</g>
<!-- node0016&#45;&gt;node0002 -->
<g id="edge16" class="edge">
<title>node0016&#45;&gt;node0002</title>
<path fill="none" stroke="black" d="M63.66,-183.93C69.3,-188.24 75.26,-192.62 81,-196.5 119.36,-222.44 132.64,-223.06 171,-249 173.69,-250.82 176.43,-252.75 179.16,-254.73"/>
<polygon fill="black" stroke="black" points="177.02,-257.49 187.13,-260.66 181.2,-251.88 177.02,-257.49"/>
<text text-anchor="middle" x="149.61" y="-217.7" font-family="Times New Roman,serif" font-size="14.00">is a</text>
</g>
<!-- node0017 -->
<g id="node18" class="node">
<title>node0017</title>
<ellipse fill="none" stroke="black" cx="126" cy="-160.5" rx="36" ry="36"/>
<text text-anchor="middle" x="126" y="-156.62" font-family="Times New Roman,serif" font-size="10.00">AbsorptionScenario</text>
</g>
<!-- node0017&#45;&gt;node0002 -->
<g id="edge17" class="edge">
<title>node0017&#45;&gt;node0002</title>
<path fill="none" stroke="black" d="M147.1,-190.22C159.4,-206.96 175.06,-228.27 188.33,-246.34"/>
<polygon fill="black" stroke="black" points="185.39,-248.25 194.14,-254.24 191.03,-244.11 185.39,-248.25"/>
<text text-anchor="middle" x="185.76" y="-217.7" font-family="Times New Roman,serif" font-size="14.00">is a</text>
</g>
<!-- node0018 -->
<g id="node19" class="node">
<title>node0018</title>
<ellipse fill="none" stroke="black" cx="216" cy="-160.5" rx="36" ry="36"/>
<text text-anchor="middle" x="216" y="-156.62" font-family="Times New Roman,serif" font-size="10.00">RecoveryScenario</text>
</g>
<!-- node0018&#45;&gt;node0002 -->
<g id="edge18" class="edge">
<title>node0018&#45;&gt;node0002</title>
<path fill="none" stroke="black" d="M216,-196.93C216,-209.5 216,-223.85 216,-237.22"/>
<polygon fill="black" stroke="black" points="212.5,-237.13 216,-247.13 219.5,-237.13 212.5,-237.13"/>
<text text-anchor="middle" x="225.38" y="-217.7" font-family="Times New Roman,serif" font-size="14.00">is a</text>
</g>
<!-- node0019 -->
<g id="node20" class="node">
<title>node0019</title>
<ellipse fill="none" stroke="black" cx="306" cy="-160.5" rx="36" ry="36"/>
<text text-anchor="middle" x="306" y="-156.62" font-family="Times New Roman,serif" font-size="10.00">SafetyFactors</text>
</g>
<!-- node0019&#45;&gt;node0005 -->
<g id="edge19" class="edge">
<title>node0019&#45;&gt;node0005</title>
<path fill="none" stroke="black" d="M333.18,-184.71C338.86,-188.96 344.96,-193.11 351,-196.5 388.81,-217.71 401.04,-217.51 442.25,-231 470.64,-240.29 480.32,-235.58 507,-249 510.08,-250.55 513.16,-252.33 516.18,-254.24"/>
<polygon fill="black" stroke="black" points="514.08,-257.05 524.3,-259.85 518.06,-251.29 514.08,-257.05"/>
<text text-anchor="middle" x="451.62" y="-217.7" font-family="Times New Roman,serif" font-size="14.00">is a</text>
</g>
<!-- node0020 -->
<g id="node21" class="node">
<title>node0020</title>
<ellipse fill="none" stroke="black" cx="396" cy="-160.5" rx="36" ry="36"/>
<text text-anchor="middle" x="396" y="-156.62" font-family="Times New Roman,serif" font-size="10.00">FunctionFactors</text>
</g>
<!-- node0020&#45;&gt;node0005 -->
<g id="edge20" class="edge">
<title>node0020&#45;&gt;node0005</title>
<path fill="none" stroke="black" d="M423.89,-183.4C449.35,-203.4 487.17,-233.09 515.13,-255.04"/>
<polygon fill="black" stroke="black" points="512.61,-257.52 522.64,-260.94 516.93,-252.01 512.61,-257.52"/>
<text text-anchor="middle" x="492.72" y="-217.7" font-family="Times New Roman,serif" font-size="14.00">is a</text>
</g>
<!-- node0021 -->
<g id="node22" class="node">
<title>node0021</title>
<ellipse fill="none" stroke="black" cx="486" cy="-160.5" rx="36" ry="36"/>
<text text-anchor="middle" x="486" y="-156.62" font-family="Times New Roman,serif" font-size="10.00">EconomicFactors</text>
</g>
<!-- node0021&#45;&gt;node0005 -->
<g id="edge21" class="edge">
<title>node0021&#45;&gt;node0005</title>
<path fill="none" stroke="black" d="M502.83,-192.73C511.05,-207.99 521.05,-226.56 529.88,-242.95"/>
<polygon fill="black" stroke="black" points="526.66,-244.35 534.49,-251.5 532.83,-241.03 526.66,-244.35"/>
<text text-anchor="middle" x="532.33" y="-217.7" font-family="Times New Roman,serif" font-size="14.00">is a</text>
</g>
<!-- node0022 -->
<g id="node23" class="node">
<title>node0022</title>
<ellipse fill="none" stroke="black" cx="576" cy="-160.5" rx="36" ry="36"/>
<text text-anchor="middle" x="576" y="-156.62" font-family="Times New Roman,serif" font-size="10.00">TimeFactors</text>
</g>
<!-- node0022&#45;&gt;node0005 -->
<g id="edge22" class="edge">
<title>node0022&#45;&gt;node0005</title>
<path fill="none" stroke="black" d="M569.19,-196.28C566.61,-209.45 563.63,-224.64 560.89,-238.65"/>
<polygon fill="black" stroke="black" points="557.53,-237.59 559.04,-248.08 564.4,-238.94 557.53,-237.59"/>
<text text-anchor="middle" x="574.81" y="-217.7" font-family="Times New Roman,serif" font-size="14.00">is a</text>
</g>
<!-- node0023 -->
<g id="node24" class="node">
<title>node0023</title>
<ellipse fill="none" stroke="black" cx="666" cy="-160.5" rx="36" ry="36"/>
<text text-anchor="middle" x="666" y="-156.62" font-family="Times New Roman,serif" font-size="10.00">AffectedElement</text>
</g>
<!-- node0023&#45;&gt;node0009 -->
<g id="edge23" class="edge">
<title>node0023&#45;&gt;node0009</title>
<path fill="none" stroke="black" d="M693.18,-184.71C698.86,-188.96 704.96,-193.11 711,-196.5 748.81,-217.71 761.04,-217.51 802.25,-231 830.64,-240.29 840.32,-235.58 867,-249 870.08,-250.55 873.16,-252.33 876.18,-254.24"/>
<polygon fill="black" stroke="black" points="874.08,-257.05 884.3,-259.85 878.06,-251.29 874.08,-257.05"/>
<text text-anchor="middle" x="811.62" y="-217.7" font-family="Times New Roman,serif" font-size="14.00">is a</text>
</g>
<!-- node0024 -->
<g id="node25" class="node">
<title>node0024</title>
<ellipse fill="none" stroke="black" cx="846" cy="-160.5" rx="36" ry="36"/>
<text text-anchor="middle" x="846" y="-156.62" font-family="Times New Roman,serif" font-size="10.00">HazardElement</text>
</g>
<!-- node0024&#45;&gt;node0009 -->
<g id="edge24" class="edge">
<title>node0024&#45;&gt;node0009</title>
<path fill="none" stroke="black" d="M862.83,-192.73C871.05,-207.99 881.05,-226.56 889.88,-242.95"/>
<polygon fill="black" stroke="black" points="886.66,-244.35 894.49,-251.5 892.83,-241.03 886.66,-244.35"/>
<text text-anchor="middle" x="892.33" y="-217.7" font-family="Times New Roman,serif" font-size="14.00">is a</text>
</g>
<!-- node0025 -->
<g id="node26" class="node">
<title>node0025</title>
<ellipse fill="none" stroke="black" cx="756" cy="-160.5" rx="36" ry="36"/>
<text text-anchor="middle" x="756" y="-156.62" font-family="Times New Roman,serif" font-size="10.00">EnvironmentElement</text>
</g>
<!-- node0025&#45;&gt;node0009 -->
<g id="edge25" class="edge">
<title>node0025&#45;&gt;node0009</title>
<path fill="none" stroke="black" d="M783.89,-183.4C809.35,-203.4 847.17,-233.09 875.13,-255.04"/>
<polygon fill="black" stroke="black" points="872.61,-257.52 882.64,-260.94 876.93,-252.01 872.61,-257.52"/>
<text text-anchor="middle" x="852.72" y="-217.7" font-family="Times New Roman,serif" font-size="14.00">is a</text>
</g>
<!-- node0026 -->
<g id="node27" class="node">
<title>node0026</title>
<ellipse fill="none" stroke="black" cx="936" cy="-160.5" rx="36" ry="36"/>
<text text-anchor="middle" x="936" y="-156.62" font-family="Times New Roman,serif" font-size="10.00">ResponsePlanElement</text>
</g>
<!-- node0026&#45;&gt;node0009 -->
<g id="edge26" class="edge">
<title>node0026&#45;&gt;node0009</title>
<path fill="none" stroke="black" d="M929.19,-196.28C926.61,-209.45 923.63,-224.64 920.89,-238.65"/>
<polygon fill="black" stroke="black" points="917.53,-237.59 919.04,-248.08 924.4,-238.94 917.53,-237.59"/>
<text text-anchor="middle" x="934.81" y="-217.7" font-family="Times New Roman,serif" font-size="14.00">is a</text>
</g>
<!-- node0027 -->
<g id="node28" class="node">
<title>node0027</title>
<ellipse fill="none" stroke="black" cx="1026" cy="-160.5" rx="36" ry="36"/>
<text text-anchor="middle" x="1026" y="-156.62" font-family="Times New Roman,serif" font-size="10.00">VehicleCargo</text>
</g>
<!-- node0027&#45;&gt;node0010 -->
<g id="edge27" class="edge">
<title>node0027&#45;&gt;node0010</title>
<path fill="none" stroke="black" d="M1026,-196.93C1026,-209.5 1026,-223.85 1026,-237.22"/>
<polygon fill="black" stroke="black" points="1022.5,-237.13 1026,-247.13 1029.5,-237.13 1022.5,-237.13"/>
<text text-anchor="middle" x="1035.38" y="-217.7" font-family="Times New Roman,serif" font-size="14.00">is a</text>
</g>
<!-- node0028 -->
<g id="node29" class="node">
<title>node0028</title>
<ellipse fill="none" stroke="black" cx="1116" cy="-160.5" rx="36" ry="36"/>
<text text-anchor="middle" x="1116" y="-156.62" font-family="Times New Roman,serif" font-size="10.00">VehiclePassengers</text>
</g>
<!-- node0028&#45;&gt;node0010 -->
<g id="edge28" class="edge">
<title>node0028&#45;&gt;node0010</title>
<path fill="none" stroke="black" d="M1094.9,-190.22C1082.6,-206.96 1066.94,-228.27 1053.67,-246.34"/>
<polygon fill="black" stroke="black" points="1050.97,-244.11 1047.86,-254.24 1056.61,-248.25 1050.97,-244.11"/>
<text text-anchor="middle" x="1085.76" y="-217.7" font-family="Times New Roman,serif" font-size="14.00">is a</text>
</g>
<!-- node0029 -->
<g id="node30" class="node">
<title>node0029</title>
<ellipse fill="none" stroke="black" cx="1206" cy="-160.5" rx="36" ry="36"/>
<text text-anchor="middle" x="1206" y="-156.62" font-family="Times New Roman,serif" font-size="10.00">VehicleComponents</text>
</g>
<!-- node0029&#45;&gt;node0010 -->
<g id="edge29" class="edge">
<title>node0029&#45;&gt;node0010</title>
<path fill="none" stroke="black" d="M1178.34,-183.93C1172.7,-188.24 1166.74,-192.62 1161,-196.5 1122.64,-222.44 1109.36,-223.06 1071,-249 1068.31,-250.82 1065.57,-252.75 1062.84,-254.73"/>
<polygon fill="black" stroke="black" points="1060.8,-251.88 1054.87,-260.66 1064.98,-257.49 1060.8,-251.88"/>
<text text-anchor="middle" x="1139.61" y="-217.7" font-family="Times New Roman,serif" font-size="14.00">is a</text>
</g>
<!-- node0030 -->
<g id="node31" class="node">
<title>node0030</title>
<ellipse fill="none" stroke="black" cx="1296" cy="-160.5" rx="36" ry="36"/>
<text text-anchor="middle" x="1296" y="-156.62" font-family="Times New Roman,serif" font-size="10.00">AffectedStates</text>
</g>
<!-- node0030&#45;&gt;node0011 -->
<g id="edge30" class="edge">
<title>node0030&#45;&gt;node0011</title>
<path fill="none" stroke="black" d="M1268.34,-183.93C1262.7,-188.24 1256.74,-192.62 1251,-196.5 1212.64,-222.44 1199.36,-223.06 1161,-249 1158.31,-250.82 1155.57,-252.75 1152.84,-254.73"/>
<polygon fill="black" stroke="black" points="1150.8,-251.88 1144.87,-260.66 1154.98,-257.49 1150.8,-251.88"/>
<text text-anchor="middle" x="1229.61" y="-217.7" font-family="Times New Roman,serif" font-size="14.00">is a</text>
</g>
<!-- node0031 -->
<g id="node32" class="node">
<title>node0031</title>
<ellipse fill="none" stroke="black" cx="1431" cy="-160.5" rx="36" ry="36"/>
<text text-anchor="middle" x="1431" y="-156.62" font-family="Times New Roman,serif" font-size="10.00">HazardStates</text>
</g>
<!-- node0031&#45;&gt;node0011 -->
<g id="edge31" class="edge">
<title>node0031&#45;&gt;node0011</title>
<path fill="none" stroke="black" d="M1397.76,-174.72C1380.82,-181.39 1359.87,-189.51 1341,-196.5 1297.7,-212.54 1287.41,-218.36 1243,-231 1207.11,-241.21 1194.78,-233.16 1161,-249 1157.87,-250.47 1154.77,-252.18 1151.73,-254.05"/>
<polygon fill="black" stroke="black" points="1149.88,-251.07 1143.58,-259.59 1153.82,-256.86 1149.88,-251.07"/>
<text text-anchor="middle" x="1301.79" y="-217.7" font-family="Times New Roman,serif" font-size="14.00">is a</text>
</g>
<!-- node0032 -->
<g id="node33" class="node">
<title>node0032</title>
<ellipse fill="none" stroke="black" cx="1521" cy="-160.5" rx="36" ry="36"/>
<text text-anchor="middle" x="1521" y="-156.62" font-family="Times New Roman,serif" font-size="10.00">idleState</text>
</g>
<!-- node0032&#45;&gt;node0012 -->
<g id="edge32" class="edge">
<title>node0032&#45;&gt;node0012</title>
<path fill="none" stroke="black" d="M1494.64,-185C1488.81,-189.32 1482.43,-193.43 1476,-196.5 1429.66,-218.61 1297.34,-226.89 1251,-249 1247.88,-250.49 1244.78,-252.22 1241.75,-254.1"/>
<polygon fill="black" stroke="black" points="1239.9,-251.13 1233.61,-259.65 1243.84,-256.91 1239.9,-251.13"/>
<text text-anchor="middle" x="1415.05" y="-217.7" font-family="Times New Roman,serif" font-size="14.00">is a</text>
</g>
<!-- node0033 -->
<g id="node34" class="node">
<title>node0033</title>
<ellipse fill="none" stroke="black" cx="1611" cy="-160.5" rx="36" ry="36"/>
<text text-anchor="middle" x="1611" y="-156.62" font-family="Times New Roman,serif" font-size="10.00">implementState</text>
</g>
<!-- node0033&#45;&gt;node0012 -->
<g id="edge33" class="edge">
<title>node0033&#45;&gt;node0012</title>
<path fill="none" stroke="black" d="M1584.61,-184.92C1578.77,-189.25 1572.41,-193.38 1566,-196.5 1509.16,-224.17 1490.28,-220.11 1428,-231 1350.11,-244.62 1324.4,-219.58 1251,-249 1247.8,-250.28 1244.63,-251.87 1241.55,-253.65"/>
<polygon fill="black" stroke="black" points="1239.78,-250.62 1233.34,-259.03 1243.62,-256.47 1239.78,-250.62"/>
<text text-anchor="middle" x="1529.8" y="-217.7" font-family="Times New Roman,serif" font-size="14.00">is a</text>
</g>
<!-- node0034 -->
<g id="node35" class="node">
<title>node0034</title>
<ellipse fill="none" stroke="black" cx="576" cy="-36" rx="36" ry="36"/>
<text text-anchor="middle" x="576" y="-32.12" font-family="Times New Roman,serif" font-size="10.00">324</text>
</g>
<!-- node0034&#45;&gt;node0023 -->
<g id="edge34" class="edge">
<title>node0034&#45;&gt;node0023</title>
<path fill="none" stroke="black" d="M572.39,-72.29C572.85,-84.07 575.35,-96.69 582.25,-106.5 593.17,-122.03 604.79,-114.61 621,-124.5 623.77,-126.19 626.57,-128.02 629.35,-129.94"/>
<polygon fill="black" stroke="black" points="627.24,-132.73 637.39,-135.75 631.34,-127.05 627.24,-132.73"/>
<text text-anchor="middle" x="591.62" y="-93.2" font-family="Times New Roman,serif" font-size="14.00">is a</text>
</g>
<!-- node0034&#45;&gt;node0025 -->
<g id="edge35" class="edge">
<title>node0034&#45;&gt;node0025</title>
<path fill="none" stroke="black" d="M591.64,-68.89C599.85,-82.46 611.15,-97.25 625.25,-106.5 657.81,-127.86 675.67,-108.13 711,-124.5 714.13,-125.95 717.25,-127.66 720.29,-129.52"/>
<polygon fill="black" stroke="black" points="718.2,-132.33 728.44,-135.04 722.13,-126.54 718.2,-132.33"/>
<text text-anchor="middle" x="634.62" y="-93.2" font-family="Times New Roman,serif" font-size="14.00">is a</text>
</g>
<!-- node0035 -->
<g id="node36" class="node">
<title>node0035</title>
<ellipse fill="none" stroke="black" cx="666" cy="-36" rx="36" ry="36"/>
<text text-anchor="middle" x="666" y="-32.12" font-family="Times New Roman,serif" font-size="10.00">435</text>
</g>
<!-- node0035&#45;&gt;node0024 -->
<g id="edge36" class="edge">
<title>node0035&#45;&gt;node0024</title>
<path fill="none" stroke="black" d="M693.66,-59.43C699.3,-63.74 705.26,-68.12 711,-72 730.18,-84.97 781.82,-111.53 801,-124.5 803.69,-126.32 806.43,-128.25 809.16,-130.23"/>
<polygon fill="black" stroke="black" points="807.02,-132.99 817.13,-136.16 811.2,-127.38 807.02,-132.99"/>
<text text-anchor="middle" x="780.07" y="-93.2" font-family="Times New Roman,serif" font-size="14.00">is a</text>
</g>
<!-- node0036 -->
<g id="node37" class="node">
<title>node0036</title>
<ellipse fill="none" stroke="black" cx="756" cy="-36" rx="36" ry="36"/>
<text text-anchor="middle" x="756" y="-32.12" font-family="Times New Roman,serif" font-size="10.00">HazardVehicle</text>
</g>
<!-- node0036&#45;&gt;node0024 -->
<g id="edge37" class="edge">
<title>node0036&#45;&gt;node0024</title>
<path fill="none" stroke="black" d="M776.36,-66.26C785.14,-78.74 795.59,-93.41 805.25,-106.5 809.14,-111.76 813.29,-117.28 817.4,-122.68"/>
<polygon fill="black" stroke="black" points="814.45,-124.58 823.3,-130.4 820,-120.33 814.45,-124.58"/>
<text text-anchor="middle" x="814.62" y="-93.2" font-family="Times New Roman,serif" font-size="14.00">is a</text>
</g>
<!-- node0037 -->
<g id="node38" class="node">
<title>node0037</title>
<ellipse fill="none" stroke="black" cx="846" cy="-36" rx="36" ry="36"/>
<text text-anchor="middle" x="846" y="-32.12" font-family="Times New Roman,serif" font-size="10.00">32</text>
</g>
<!-- node0037&#45;&gt;node0026 -->
<g id="edge38" class="edge">
<title>node0037&#45;&gt;node0026</title>
<path fill="none" stroke="black" d="M867.1,-65.72C879.4,-82.46 895.06,-103.77 908.33,-121.84"/>
<polygon fill="black" stroke="black" points="905.39,-123.75 914.14,-129.74 911.03,-119.61 905.39,-123.75"/>
<text text-anchor="middle" x="905.76" y="-93.2" font-family="Times New Roman,serif" font-size="14.00">is a</text>
</g>
<!-- node0038 -->
<g id="node39" class="node">
<title>node0038</title>
<ellipse fill="none" stroke="black" cx="936" cy="-36" rx="36" ry="36"/>
<text text-anchor="middle" x="936" y="-32.12" font-family="Times New Roman,serif" font-size="10.00">66</text>
</g>
<!-- node0038&#45;&gt;node0026 -->
<g id="edge39" class="edge">
<title>node0038&#45;&gt;node0026</title>
<path fill="none" stroke="black" d="M936,-72.43C936,-85 936,-99.35 936,-112.72"/>
<polygon fill="black" stroke="black" points="932.5,-112.63 936,-122.63 939.5,-112.63 932.5,-112.63"/>
<text text-anchor="middle" x="945.38" y="-93.2" font-family="Times New Roman,serif" font-size="14.00">is a</text>
</g>
<!-- node0039 -->
<g id="node40" class="node">
<title>node0039</title>
<ellipse fill="none" stroke="black" cx="1026" cy="-36" rx="36" ry="36"/>
<text text-anchor="middle" x="1026" y="-32.12" font-family="Times New Roman,serif" font-size="10.00">ResponseResource</text>
</g>
<!-- node0039&#45;&gt;node0026 -->
<g id="edge40" class="edge">
<title>node0039&#45;&gt;node0026</title>
<path fill="none" stroke="black" d="M1004.9,-65.72C992.6,-82.46 976.94,-103.77 963.67,-121.84"/>
<polygon fill="black" stroke="black" points="960.97,-119.61 957.86,-129.74 966.61,-123.75 960.97,-119.61"/>
<text text-anchor="middle" x="995.76" y="-93.2" font-family="Times New Roman,serif" font-size="14.00">is a</text>
</g>
<!-- node0040 -->
<g id="node41" class="node">
<title>node0040</title>
<ellipse fill="none" stroke="black" cx="1116" cy="-36" rx="36" ry="36"/>
<text text-anchor="middle" x="1116" y="-32.12" font-family="Times New Roman,serif" font-size="10.00">ResponseAction</text>
</g>
<!-- node0040&#45;&gt;node0026 -->
<g id="edge41" class="edge">
<title>node0040&#45;&gt;node0026</title>
<path fill="none" stroke="black" d="M1088.34,-59.43C1082.7,-63.74 1076.74,-68.12 1071,-72 1032.64,-97.94 1019.36,-98.56 981,-124.5 978.31,-126.32 975.57,-128.25 972.84,-130.23"/>
<polygon fill="black" stroke="black" points="970.8,-127.38 964.87,-136.16 974.98,-132.99 970.8,-127.38"/>
<text text-anchor="middle" x="1049.61" y="-93.2" font-family="Times New Roman,serif" font-size="14.00">is a</text>
</g>
<!-- node0041 -->
<g id="node42" class="node">
<title>node0041</title>
<ellipse fill="none" stroke="black" cx="1206" cy="-36" rx="36" ry="36"/>
<text text-anchor="middle" x="1206" y="-32.12" font-family="Times New Roman,serif" font-size="10.00">CollidedState</text>
</g>
<!-- node0041&#45;&gt;node0030 -->
<g id="edge42" class="edge">
<title>node0041&#45;&gt;node0030</title>
<path fill="none" stroke="black" d="M1227.1,-65.72C1239.4,-82.46 1255.06,-103.77 1268.33,-121.84"/>
<polygon fill="black" stroke="black" points="1265.39,-123.75 1274.14,-129.74 1271.03,-119.61 1265.39,-123.75"/>
<text text-anchor="middle" x="1265.76" y="-93.2" font-family="Times New Roman,serif" font-size="14.00">is a</text>
</g>
<!-- node0042 -->
<g id="node43" class="node">
<title>node0042</title>
<ellipse fill="none" stroke="black" cx="1296" cy="-36" rx="36" ry="36"/>
<text text-anchor="middle" x="1296" y="-32.12" font-family="Times New Roman,serif" font-size="10.00">ExplodeState</text>
</g>
<!-- node0042&#45;&gt;node0030 -->
<g id="edge43" class="edge">
<title>node0042&#45;&gt;node0030</title>
<path fill="none" stroke="black" d="M1296,-72.43C1296,-85 1296,-99.35 1296,-112.72"/>
<polygon fill="black" stroke="black" points="1292.5,-112.63 1296,-122.63 1299.5,-112.63 1292.5,-112.63"/>
<text text-anchor="middle" x="1305.38" y="-93.2" font-family="Times New Roman,serif" font-size="14.00">is a</text>
</g>
<!-- node0043 -->
<g id="node44" class="node">
<title>node0043</title>
<ellipse fill="none" stroke="black" cx="1386" cy="-36" rx="36" ry="36"/>
<text text-anchor="middle" x="1386" y="-32.12" font-family="Times New Roman,serif" font-size="10.00">DrivingState</text>
</g>
<!-- node0043&#45;&gt;node0030 -->
<g id="edge44" class="edge">
<title>node0043&#45;&gt;node0030</title>
<path fill="none" stroke="black" d="M1364.9,-65.72C1352.6,-82.46 1336.94,-103.77 1323.67,-121.84"/>
<polygon fill="black" stroke="black" points="1320.97,-119.61 1317.86,-129.74 1326.61,-123.75 1320.97,-119.61"/>
<text text-anchor="middle" x="1355.76" y="-93.2" font-family="Times New Roman,serif" font-size="14.00">is a</text>
</g>
<!-- node0044 -->
<g id="node45" class="node">
<title>node0044</title>
<ellipse fill="none" stroke="black" cx="1476" cy="-36" rx="36" ry="36"/>
<text text-anchor="middle" x="1476" y="-32.12" font-family="Times New Roman,serif" font-size="10.00">DriveState</text>
</g>
<!-- node0044&#45;&gt;node0031 -->
<g id="edge45" class="edge">
<title>node0044&#45;&gt;node0031</title>
<path fill="none" stroke="black" d="M1463.82,-70.15C1458.67,-84.18 1452.6,-100.71 1447.08,-115.72"/>
<polygon fill="black" stroke="black" points="1443.87,-114.31 1443.71,-124.9 1450.44,-116.72 1443.87,-114.31"/>
<text text-anchor="middle" x="1465.57" y="-93.2" font-family="Times New Roman,serif" font-size="14.00">is a</text>
</g>
<!-- node0045 -->
<g id="node46" class="node">
<title>node0045</title>
<ellipse fill="none" stroke="black" cx="1566" cy="-36" rx="36" ry="36"/>
<text text-anchor="middle" x="1566" y="-32.12" font-family="Times New Roman,serif" font-size="10.00">CollideState</text>
</g>
<!-- node0045&#45;&gt;node0031 -->
<g id="edge46" class="edge">
<title>node0045&#45;&gt;node0031</title>
<path fill="none" stroke="black" d="M1539.65,-60.91C1518.56,-80.05 1488.8,-107.06 1465.75,-127.96"/>
<polygon fill="black" stroke="black" points="1463.46,-125.32 1458.4,-134.63 1468.16,-130.51 1463.46,-125.32"/>
<text text-anchor="middle" x="1515.96" y="-93.2" font-family="Times New Roman,serif" font-size="14.00">is a</text>
</g>
<!-- node0046 -->
<g id="node47" class="node">
<title>node0046</title>
<ellipse fill="none" stroke="black" cx="1656" cy="-36" rx="36" ry="36"/>
<text text-anchor="middle" x="1656" y="-32.12" font-family="Times New Roman,serif" font-size="10.00">SpillState</text>
</g>
<!-- node0046&#45;&gt;node0031 -->
<g id="edge47" class="edge">
<title>node0046&#45;&gt;node0031</title>
<path fill="none" stroke="black" d="M1628.72,-60.04C1623.05,-64.3 1616.98,-68.5 1611,-72 1576.88,-91.98 1565.96,-92.47 1529,-106.5 1505.74,-115.33 1497.9,-112.7 1476,-124.5 1473.14,-126.04 1470.28,-127.76 1467.45,-129.59"/>
<polygon fill="black" stroke="black" points="1465.53,-126.67 1459.33,-135.26 1469.53,-132.41 1465.53,-126.67"/>
<text text-anchor="middle" x="1583.22" y="-93.2" font-family="Times New Roman,serif" font-size="14.00">is a</text>
</g>
</g>
</svg>
