<?xml version="1.0" encoding="UTF-8" standalone="no"?>
<!DOCTYPE svg PUBLIC "-//W3C//DTD SVG 1.1//EN"
 "http://www.w3.org/Graphics/SVG/1.1/DTD/svg11.dtd">
<!-- Generated by graphviz version 12.1.2 (20240928.0832)
 -->
<!-- Title: G Pages: 1 -->
<svg width="1182pt" height="454pt"
 viewBox="0.00 0.00 1182.00 453.50" xmlns="http://www.w3.org/2000/svg" xmlns:xlink="http://www.w3.org/1999/xlink">
<g id="graph0" class="graph" transform="scale(1 1) rotate(0) translate(4 449.5)">
<title>G</title>
<polygon fill="white" stroke="none" points="-4,4 -4,-449.5 1178,-449.5 1178,4 -4,4"/>
<!-- node0000 -->
<g id="node1" class="node">
<title>node0000</title>
<ellipse fill="none" stroke="black" cx="823" cy="-409.5" rx="36" ry="36"/>
<text text-anchor="middle" x="823" y="-405.62" font-family="Times New Roman,serif" font-size="10.00">Thing</text>
</g>
<!-- node0001 -->
<g id="node2" class="node">
<title>node0001</title>
<ellipse fill="none" stroke="black" cx="256" cy="-285" rx="36" ry="36"/>
<text text-anchor="middle" x="256" y="-281.12" font-family="Times New Roman,serif" font-size="10.00">&#45;28</text>
</g>
<!-- node0001&#45;&gt;node0000 -->
<g id="edge1" class="edge">
<title>node0001&#45;&gt;node0000</title>
<path fill="none" stroke="black" d="M282.21,-309.81C288.06,-314.11 294.47,-318.14 301,-321 464.6,-392.8 680.81,-406.01 775.34,-408.21"/>
<polygon fill="black" stroke="black" points="775.2,-411.71 785.27,-408.41 775.34,-404.71 775.2,-411.71"/>
<text text-anchor="middle" x="405.12" y="-342.2" font-family="Times New Roman,serif" font-size="14.00">is a</text>
</g>
<!-- node0002 -->
<g id="node3" class="node">
<title>node0002</title>
<ellipse fill="none" stroke="black" cx="346" cy="-285" rx="36" ry="36"/>
<text text-anchor="middle" x="346" y="-281.12" font-family="Times New Roman,serif" font-size="10.00">ScenarioElement</text>
</g>
<!-- node0002&#45;&gt;node0000 -->
<g id="edge2" class="edge">
<title>node0002&#45;&gt;node0000</title>
<path fill="none" stroke="black" d="M381.07,-295.01C465.94,-316.8 682.36,-372.38 777.24,-396.75"/>
<polygon fill="black" stroke="black" points="776.17,-400.09 786.73,-399.19 777.91,-393.31 776.17,-400.09"/>
<text text-anchor="middle" x="622.43" y="-342.2" font-family="Times New Roman,serif" font-size="14.00">is a</text>
</g>
<!-- node0003 -->
<g id="node4" class="node">
<title>node0003</title>
<ellipse fill="none" stroke="black" cx="643" cy="-285" rx="36" ry="36"/>
<text text-anchor="middle" x="643" y="-281.12" font-family="Times New Roman,serif" font-size="10.00">ElementCompositions</text>
</g>
<!-- node0003&#45;&gt;node0000 -->
<g id="edge3" class="edge">
<title>node0003&#45;&gt;node0000</title>
<path fill="none" stroke="black" d="M672.32,-305.95C702.69,-326.63 750.33,-359.04 783.89,-381.89"/>
<polygon fill="black" stroke="black" points="781.9,-384.77 792.14,-387.5 785.84,-378.98 781.9,-384.77"/>
<text text-anchor="middle" x="753.15" y="-342.2" font-family="Times New Roman,serif" font-size="14.00">is a</text>
</g>
<!-- node0004 -->
<g id="node5" class="node">
<title>node0004</title>
<ellipse fill="none" stroke="black" cx="778" cy="-285" rx="36" ry="36"/>
<text text-anchor="middle" x="778" y="-281.12" font-family="Times New Roman,serif" font-size="10.00">ElementState</text>
</g>
<!-- node0004&#45;&gt;node0000 -->
<g id="edge4" class="edge">
<title>node0004&#45;&gt;node0000</title>
<path fill="none" stroke="black" d="M790.18,-319.15C795.33,-333.18 801.4,-349.71 806.92,-364.72"/>
<polygon fill="black" stroke="black" points="803.56,-365.72 810.29,-373.9 810.13,-363.31 803.56,-365.72"/>
<text text-anchor="middle" x="812.57" y="-342.2" font-family="Times New Roman,serif" font-size="14.00">is a</text>
</g>
<!-- node0005 -->
<g id="node6" class="node">
<title>node0005</title>
<ellipse fill="none" stroke="black" cx="868" cy="-285" rx="36" ry="36"/>
<text text-anchor="middle" x="868" y="-281.12" font-family="Times New Roman,serif" font-size="10.00">aidStates</text>
</g>
<!-- node0005&#45;&gt;node0000 -->
<g id="edge5" class="edge">
<title>node0005&#45;&gt;node0000</title>
<path fill="none" stroke="black" d="M855.82,-319.15C850.67,-333.18 844.6,-349.71 839.08,-364.72"/>
<polygon fill="black" stroke="black" points="835.87,-363.31 835.71,-373.9 842.44,-365.72 835.87,-363.31"/>
<text text-anchor="middle" x="857.57" y="-342.2" font-family="Times New Roman,serif" font-size="14.00">is a</text>
</g>
<!-- node0006 -->
<g id="node7" class="node">
<title>node0006</title>
<ellipse fill="none" stroke="black" cx="958" cy="-285" rx="36" ry="36"/>
<text text-anchor="middle" x="958" y="-281.12" font-family="Times New Roman,serif" font-size="10.00">firefightingStates</text>
</g>
<!-- node0006&#45;&gt;node0000 -->
<g id="edge6" class="edge">
<title>node0006&#45;&gt;node0000</title>
<path fill="none" stroke="black" d="M931.65,-309.91C910.56,-329.05 880.8,-356.06 857.75,-376.96"/>
<polygon fill="black" stroke="black" points="855.46,-374.32 850.4,-383.63 860.16,-379.51 855.46,-374.32"/>
<text text-anchor="middle" x="907.96" y="-342.2" font-family="Times New Roman,serif" font-size="14.00">is a</text>
</g>
<!-- node0007 -->
<g id="node8" class="node">
<title>node0007</title>
<ellipse fill="none" stroke="black" cx="1048" cy="-285" rx="36" ry="36"/>
<text text-anchor="middle" x="1048" y="-281.12" font-family="Times New Roman,serif" font-size="10.00">rescueStates</text>
</g>
<!-- node0007&#45;&gt;node0000 -->
<g id="edge7" class="edge">
<title>node0007&#45;&gt;node0000</title>
<path fill="none" stroke="black" d="M1020.57,-308.78C1014.91,-313.06 1008.88,-317.34 1003,-321 958.57,-348.66 904.1,-374.06 866.8,-390.29"/>
<polygon fill="black" stroke="black" points="865.47,-387.05 857.67,-394.22 868.24,-393.48 865.47,-387.05"/>
<text text-anchor="middle" x="979.32" y="-342.2" font-family="Times New Roman,serif" font-size="14.00">is a</text>
</g>
<!-- node0008 -->
<g id="node9" class="node">
<title>node0008</title>
<ellipse fill="none" stroke="black" cx="1138" cy="-285" rx="36" ry="36"/>
<text text-anchor="middle" x="1138" y="-281.12" font-family="Times New Roman,serif" font-size="10.00">towStates</text>
</g>
<!-- node0008&#45;&gt;node0000 -->
<g id="edge8" class="edge">
<title>node0008&#45;&gt;node0000</title>
<path fill="none" stroke="black" d="M1110.9,-309.35C1105.22,-313.59 1099.09,-317.7 1093,-321 1019.59,-360.78 925.07,-386.24 869.55,-398.9"/>
<polygon fill="black" stroke="black" points="868.79,-395.48 859.79,-401.08 870.31,-402.31 868.79,-395.48"/>
<text text-anchor="middle" x="1060.73" y="-342.2" font-family="Times New Roman,serif" font-size="14.00">is a</text>
</g>
<!-- node0009 -->
<g id="node10" class="node">
<title>node0009</title>
<ellipse fill="none" stroke="black" cx="36" cy="-160.5" rx="36" ry="36"/>
<text text-anchor="middle" x="36" y="-156.62" font-family="Times New Roman,serif" font-size="10.00">AffectedElement</text>
</g>
<!-- node0009&#45;&gt;node0002 -->
<g id="edge9" class="edge">
<title>node0009&#45;&gt;node0002</title>
<path fill="none" stroke="black" d="M63.07,-184.9C68.76,-189.13 74.89,-193.23 81,-196.5 123.65,-219.35 137.23,-219.61 184.25,-231 235.28,-243.36 252.79,-228.22 301,-249 304.17,-250.37 307.31,-252.01 310.37,-253.83"/>
<polygon fill="black" stroke="black" points="308.3,-256.65 318.56,-259.28 312.18,-250.83 308.3,-256.65"/>
<text text-anchor="middle" x="193.62" y="-217.7" font-family="Times New Roman,serif" font-size="14.00">is a</text>
</g>
<!-- node0010 -->
<g id="node11" class="node">
<title>node0010</title>
<ellipse fill="none" stroke="black" cx="216" cy="-160.5" rx="36" ry="36"/>
<text text-anchor="middle" x="216" y="-156.62" font-family="Times New Roman,serif" font-size="10.00">HazardElement</text>
</g>
<!-- node0010&#45;&gt;node0002 -->
<g id="edge10" class="edge">
<title>node0010&#45;&gt;node0002</title>
<path fill="none" stroke="black" d="M241.99,-186C262.01,-204.86 289.86,-231.1 311.7,-251.68"/>
<polygon fill="black" stroke="black" points="309.27,-254.2 318.95,-258.51 314.07,-249.1 309.27,-254.2"/>
<text text-anchor="middle" x="298.16" y="-217.7" font-family="Times New Roman,serif" font-size="14.00">is a</text>
</g>
<!-- node0011 -->
<g id="node12" class="node">
<title>node0011</title>
<ellipse fill="none" stroke="black" cx="126" cy="-160.5" rx="36" ry="36"/>
<text text-anchor="middle" x="126" y="-156.62" font-family="Times New Roman,serif" font-size="10.00">EnvironmentElement</text>
</g>
<!-- node0011&#45;&gt;node0002 -->
<g id="edge11" class="edge">
<title>node0011&#45;&gt;node0002</title>
<path fill="none" stroke="black" d="M153.31,-184.48C158.98,-188.74 165.04,-192.96 171,-196.5 204.03,-216.11 214.51,-216.9 250.25,-231 272.51,-239.78 280.01,-237.51 301,-249 303.85,-250.56 306.71,-252.29 309.52,-254.13"/>
<polygon fill="black" stroke="black" points="307.44,-256.95 317.64,-259.82 311.46,-251.22 307.44,-256.95"/>
<text text-anchor="middle" x="259.62" y="-217.7" font-family="Times New Roman,serif" font-size="14.00">is a</text>
</g>
<!-- node0012 -->
<g id="node13" class="node">
<title>node0012</title>
<ellipse fill="none" stroke="black" cx="396" cy="-160.5" rx="36" ry="36"/>
<text text-anchor="middle" x="396" y="-156.62" font-family="Times New Roman,serif" font-size="10.00">ResponsePlanElement</text>
</g>
<!-- node0012&#45;&gt;node0002 -->
<g id="edge12" class="edge">
<title>node0012&#45;&gt;node0002</title>
<path fill="none" stroke="black" d="M382.6,-194.33C376.77,-208.61 369.86,-225.54 363.63,-240.82"/>
<polygon fill="black" stroke="black" points="360.55,-239.1 360.01,-249.68 367.03,-241.74 360.55,-239.1"/>
<text text-anchor="middle" x="383.37" y="-217.7" font-family="Times New Roman,serif" font-size="14.00">is a</text>
</g>
<!-- node0013 -->
<g id="node14" class="node">
<title>node0013</title>
<ellipse fill="none" stroke="black" cx="508" cy="-160.5" rx="36" ry="36"/>
<text text-anchor="middle" x="508" y="-156.62" font-family="Times New Roman,serif" font-size="10.00">VehicleCargo</text>
</g>
<!-- node0013&#45;&gt;node0003 -->
<g id="edge13" class="edge">
<title>node0013&#45;&gt;node0003</title>
<path fill="none" stroke="black" d="M534.35,-185.41C555.44,-204.55 585.2,-231.56 608.25,-252.46"/>
<polygon fill="black" stroke="black" points="605.84,-255.01 615.6,-259.13 610.54,-249.82 605.84,-255.01"/>
<text text-anchor="middle" x="592.96" y="-217.7" font-family="Times New Roman,serif" font-size="14.00">is a</text>
</g>
<!-- node0014 -->
<g id="node15" class="node">
<title>node0014</title>
<ellipse fill="none" stroke="black" cx="598" cy="-160.5" rx="36" ry="36"/>
<text text-anchor="middle" x="598" y="-156.62" font-family="Times New Roman,serif" font-size="10.00">VehiclePassengers</text>
</g>
<!-- node0014&#45;&gt;node0003 -->
<g id="edge14" class="edge">
<title>node0014&#45;&gt;node0003</title>
<path fill="none" stroke="black" d="M610.18,-194.65C615.33,-208.68 621.4,-225.21 626.92,-240.22"/>
<polygon fill="black" stroke="black" points="623.56,-241.22 630.29,-249.4 630.13,-238.81 623.56,-241.22"/>
<text text-anchor="middle" x="632.57" y="-217.7" font-family="Times New Roman,serif" font-size="14.00">is a</text>
</g>
<!-- node0015 -->
<g id="node16" class="node">
<title>node0015</title>
<ellipse fill="none" stroke="black" cx="688" cy="-160.5" rx="36" ry="36"/>
<text text-anchor="middle" x="688" y="-156.62" font-family="Times New Roman,serif" font-size="10.00">VehicleComponents</text>
</g>
<!-- node0015&#45;&gt;node0003 -->
<g id="edge15" class="edge">
<title>node0015&#45;&gt;node0003</title>
<path fill="none" stroke="black" d="M675.82,-194.65C670.67,-208.68 664.6,-225.21 659.08,-240.22"/>
<polygon fill="black" stroke="black" points="655.87,-238.81 655.71,-249.4 662.44,-241.22 655.87,-238.81"/>
<text text-anchor="middle" x="677.57" y="-217.7" font-family="Times New Roman,serif" font-size="14.00">is a</text>
</g>
<!-- node0016 -->
<g id="node17" class="node">
<title>node0016</title>
<ellipse fill="none" stroke="black" cx="778" cy="-160.5" rx="36" ry="36"/>
<text text-anchor="middle" x="778" y="-156.62" font-family="Times New Roman,serif" font-size="10.00">AffectedStates</text>
</g>
<!-- node0016&#45;&gt;node0004 -->
<g id="edge16" class="edge">
<title>node0016&#45;&gt;node0004</title>
<path fill="none" stroke="black" d="M778,-196.93C778,-209.5 778,-223.85 778,-237.22"/>
<polygon fill="black" stroke="black" points="774.5,-237.13 778,-247.13 781.5,-237.13 774.5,-237.13"/>
<text text-anchor="middle" x="787.38" y="-217.7" font-family="Times New Roman,serif" font-size="14.00">is a</text>
</g>
<!-- node0017 -->
<g id="node18" class="node">
<title>node0017</title>
<ellipse fill="none" stroke="black" cx="913" cy="-160.5" rx="36" ry="36"/>
<text text-anchor="middle" x="913" y="-156.62" font-family="Times New Roman,serif" font-size="10.00">HazardStates</text>
</g>
<!-- node0017&#45;&gt;node0004 -->
<g id="edge17" class="edge">
<title>node0017&#45;&gt;node0004</title>
<path fill="none" stroke="black" d="M886.65,-185.41C865.56,-204.55 835.8,-231.56 812.75,-252.46"/>
<polygon fill="black" stroke="black" points="810.46,-249.82 805.4,-259.13 815.16,-255.01 810.46,-249.82"/>
<text text-anchor="middle" x="862.96" y="-217.7" font-family="Times New Roman,serif" font-size="14.00">is a</text>
</g>
<!-- node0018 -->
<g id="node19" class="node">
<title>node0018</title>
<ellipse fill="none" stroke="black" cx="1003" cy="-160.5" rx="36" ry="36"/>
<text text-anchor="middle" x="1003" y="-156.62" font-family="Times New Roman,serif" font-size="10.00">idleState</text>
</g>
<!-- node0018&#45;&gt;node0005 -->
<g id="edge18" class="edge">
<title>node0018&#45;&gt;node0005</title>
<path fill="none" stroke="black" d="M976.65,-185.41C955.56,-204.55 925.8,-231.56 902.75,-252.46"/>
<polygon fill="black" stroke="black" points="900.46,-249.82 895.4,-259.13 905.16,-255.01 900.46,-249.82"/>
<text text-anchor="middle" x="952.96" y="-217.7" font-family="Times New Roman,serif" font-size="14.00">is a</text>
</g>
<!-- node0019 -->
<g id="node20" class="node">
<title>node0019</title>
<ellipse fill="none" stroke="black" cx="1093" cy="-160.5" rx="36" ry="36"/>
<text text-anchor="middle" x="1093" y="-156.62" font-family="Times New Roman,serif" font-size="10.00">implementState</text>
</g>
<!-- node0019&#45;&gt;node0005 -->
<g id="edge19" class="edge">
<title>node0019&#45;&gt;node0005</title>
<path fill="none" stroke="black" d="M1065.72,-184.54C1060.05,-188.8 1053.98,-193 1048,-196.5 1013.88,-216.48 1002.96,-216.97 966,-231 942.74,-239.83 934.9,-237.2 913,-249 910.14,-250.54 907.28,-252.26 904.45,-254.09"/>
<polygon fill="black" stroke="black" points="902.53,-251.17 896.33,-259.76 906.53,-256.91 902.53,-251.17"/>
<text text-anchor="middle" x="1020.22" y="-217.7" font-family="Times New Roman,serif" font-size="14.00">is a</text>
</g>
<!-- node0020 -->
<g id="node21" class="node">
<title>node0020</title>
<ellipse fill="none" stroke="black" cx="36" cy="-36" rx="36" ry="36"/>
<text text-anchor="middle" x="36" y="-32.12" font-family="Times New Roman,serif" font-size="10.00">324</text>
</g>
<!-- node0020&#45;&gt;node0009 -->
<g id="edge20" class="edge">
<title>node0020&#45;&gt;node0009</title>
<path fill="none" stroke="black" d="M36,-72.43C36,-85 36,-99.35 36,-112.72"/>
<polygon fill="black" stroke="black" points="32.5,-112.63 36,-122.63 39.5,-112.63 32.5,-112.63"/>
<text text-anchor="middle" x="45.38" y="-93.2" font-family="Times New Roman,serif" font-size="14.00">is a</text>
</g>
<!-- node0020&#45;&gt;node0011 -->
<g id="edge21" class="edge">
<title>node0020&#45;&gt;node0011</title>
<path fill="none" stroke="black" d="M56.36,-66.26C65.14,-78.74 75.59,-93.41 85.25,-106.5 89.14,-111.76 93.29,-117.28 97.4,-122.68"/>
<polygon fill="black" stroke="black" points="94.45,-124.58 103.3,-130.4 100,-120.33 94.45,-124.58"/>
<text text-anchor="middle" x="94.62" y="-93.2" font-family="Times New Roman,serif" font-size="14.00">is a</text>
</g>
<!-- node0021 -->
<g id="node22" class="node">
<title>node0021</title>
<ellipse fill="none" stroke="black" cx="126" cy="-36" rx="36" ry="36"/>
<text text-anchor="middle" x="126" y="-32.12" font-family="Times New Roman,serif" font-size="10.00">435</text>
</g>
<!-- node0021&#45;&gt;node0010 -->
<g id="edge22" class="edge">
<title>node0021&#45;&gt;node0010</title>
<path fill="none" stroke="black" d="M147.1,-65.72C159.4,-82.46 175.06,-103.77 188.33,-121.84"/>
<polygon fill="black" stroke="black" points="185.39,-123.75 194.14,-129.74 191.03,-119.61 185.39,-123.75"/>
<text text-anchor="middle" x="185.76" y="-93.2" font-family="Times New Roman,serif" font-size="14.00">is a</text>
</g>
<!-- node0022 -->
<g id="node23" class="node">
<title>node0022</title>
<ellipse fill="none" stroke="black" cx="216" cy="-36" rx="36" ry="36"/>
<text text-anchor="middle" x="216" y="-32.12" font-family="Times New Roman,serif" font-size="10.00">HazardVehicle</text>
</g>
<!-- node0022&#45;&gt;node0010 -->
<g id="edge23" class="edge">
<title>node0022&#45;&gt;node0010</title>
<path fill="none" stroke="black" d="M216,-72.43C216,-85 216,-99.35 216,-112.72"/>
<polygon fill="black" stroke="black" points="212.5,-112.63 216,-122.63 219.5,-112.63 212.5,-112.63"/>
<text text-anchor="middle" x="225.38" y="-93.2" font-family="Times New Roman,serif" font-size="14.00">is a</text>
</g>
<!-- node0023 -->
<g id="node24" class="node">
<title>node0023</title>
<ellipse fill="none" stroke="black" cx="306" cy="-36" rx="36" ry="36"/>
<text text-anchor="middle" x="306" y="-32.12" font-family="Times New Roman,serif" font-size="10.00">32</text>
</g>
<!-- node0023&#45;&gt;node0012 -->
<g id="edge24" class="edge">
<title>node0023&#45;&gt;node0012</title>
<path fill="none" stroke="black" d="M327.1,-65.72C339.4,-82.46 355.06,-103.77 368.33,-121.84"/>
<polygon fill="black" stroke="black" points="365.39,-123.75 374.14,-129.74 371.03,-119.61 365.39,-123.75"/>
<text text-anchor="middle" x="365.76" y="-93.2" font-family="Times New Roman,serif" font-size="14.00">is a</text>
</g>
<!-- node0024 -->
<g id="node25" class="node">
<title>node0024</title>
<ellipse fill="none" stroke="black" cx="396" cy="-36" rx="36" ry="36"/>
<text text-anchor="middle" x="396" y="-32.12" font-family="Times New Roman,serif" font-size="10.00">66</text>
</g>
<!-- node0024&#45;&gt;node0012 -->
<g id="edge25" class="edge">
<title>node0024&#45;&gt;node0012</title>
<path fill="none" stroke="black" d="M396,-72.43C396,-85 396,-99.35 396,-112.72"/>
<polygon fill="black" stroke="black" points="392.5,-112.63 396,-122.63 399.5,-112.63 392.5,-112.63"/>
<text text-anchor="middle" x="405.38" y="-93.2" font-family="Times New Roman,serif" font-size="14.00">is a</text>
</g>
<!-- node0025 -->
<g id="node26" class="node">
<title>node0025</title>
<ellipse fill="none" stroke="black" cx="486" cy="-36" rx="36" ry="36"/>
<text text-anchor="middle" x="486" y="-32.12" font-family="Times New Roman,serif" font-size="10.00">ResponseResource</text>
</g>
<!-- node0025&#45;&gt;node0012 -->
<g id="edge26" class="edge">
<title>node0025&#45;&gt;node0012</title>
<path fill="none" stroke="black" d="M464.9,-65.72C452.6,-82.46 436.94,-103.77 423.67,-121.84"/>
<polygon fill="black" stroke="black" points="420.97,-119.61 417.86,-129.74 426.61,-123.75 420.97,-119.61"/>
<text text-anchor="middle" x="455.76" y="-93.2" font-family="Times New Roman,serif" font-size="14.00">is a</text>
</g>
<!-- node0026 -->
<g id="node27" class="node">
<title>node0026</title>
<ellipse fill="none" stroke="black" cx="576" cy="-36" rx="36" ry="36"/>
<text text-anchor="middle" x="576" y="-32.12" font-family="Times New Roman,serif" font-size="10.00">ResponseAction</text>
</g>
<!-- node0026&#45;&gt;node0012 -->
<g id="edge27" class="edge">
<title>node0026&#45;&gt;node0012</title>
<path fill="none" stroke="black" d="M548.2,-59.22C542.57,-63.55 536.65,-67.99 531,-72 499.78,-94.2 463.26,-117.73 436.08,-134.79"/>
<polygon fill="black" stroke="black" points="434.43,-131.7 427.8,-139.96 438.14,-137.63 434.43,-131.7"/>
<text text-anchor="middle" x="511.38" y="-93.2" font-family="Times New Roman,serif" font-size="14.00">is a</text>
</g>
<!-- node0027 -->
<g id="node28" class="node">
<title>node0027</title>
<ellipse fill="none" stroke="black" cx="666" cy="-36" rx="36" ry="36"/>
<text text-anchor="middle" x="666" y="-32.12" font-family="Times New Roman,serif" font-size="10.00">CollidedState</text>
</g>
<!-- node0027&#45;&gt;node0016 -->
<g id="edge28" class="edge">
<title>node0027&#45;&gt;node0016</title>
<path fill="none" stroke="black" d="M690.03,-63.28C706.49,-81.28 728.49,-105.35 746.38,-124.91"/>
<polygon fill="black" stroke="black" points="743.66,-127.13 752.99,-132.15 748.83,-122.41 743.66,-127.13"/>
<text text-anchor="middle" x="738.08" y="-93.2" font-family="Times New Roman,serif" font-size="14.00">is a</text>
</g>
<!-- node0028 -->
<g id="node29" class="node">
<title>node0028</title>
<ellipse fill="none" stroke="black" cx="756" cy="-36" rx="36" ry="36"/>
<text text-anchor="middle" x="756" y="-32.12" font-family="Times New Roman,serif" font-size="10.00">ExplodeState</text>
</g>
<!-- node0028&#45;&gt;node0016 -->
<g id="edge29" class="edge">
<title>node0028&#45;&gt;node0016</title>
<path fill="none" stroke="black" d="M762.25,-71.78C764.57,-84.71 767.24,-99.59 769.72,-113.38"/>
<polygon fill="black" stroke="black" points="766.26,-113.92 771.47,-123.15 773.15,-112.69 766.26,-113.92"/>
<text text-anchor="middle" x="777.69" y="-93.2" font-family="Times New Roman,serif" font-size="14.00">is a</text>
</g>
<!-- node0029 -->
<g id="node30" class="node">
<title>node0029</title>
<ellipse fill="none" stroke="black" cx="846" cy="-36" rx="36" ry="36"/>
<text text-anchor="middle" x="846" y="-32.12" font-family="Times New Roman,serif" font-size="10.00">DrivingState</text>
</g>
<!-- node0029&#45;&gt;node0016 -->
<g id="edge30" class="edge">
<title>node0029&#45;&gt;node0016</title>
<path fill="none" stroke="black" d="M828.84,-67.91C820.3,-83.29 809.87,-102.08 800.69,-118.63"/>
<polygon fill="black" stroke="black" points="797.68,-116.83 795.89,-127.27 803.8,-120.23 797.68,-116.83"/>
<text text-anchor="middle" x="825.45" y="-93.2" font-family="Times New Roman,serif" font-size="14.00">is a</text>
</g>
<!-- node0030 -->
<g id="node31" class="node">
<title>node0030</title>
<ellipse fill="none" stroke="black" cx="936" cy="-36" rx="36" ry="36"/>
<text text-anchor="middle" x="936" y="-32.12" font-family="Times New Roman,serif" font-size="10.00">DriveState</text>
</g>
<!-- node0030&#45;&gt;node0017 -->
<g id="edge31" class="edge">
<title>node0030&#45;&gt;node0017</title>
<path fill="none" stroke="black" d="M929.47,-71.78C927.04,-84.71 924.25,-99.59 921.66,-113.38"/>
<polygon fill="black" stroke="black" points="918.23,-112.68 919.82,-123.15 925.11,-113.97 918.23,-112.68"/>
<text text-anchor="middle" x="935.25" y="-93.2" font-family="Times New Roman,serif" font-size="14.00">is a</text>
</g>
<!-- node0031 -->
<g id="node32" class="node">
<title>node0031</title>
<ellipse fill="none" stroke="black" cx="1026" cy="-36" rx="36" ry="36"/>
<text text-anchor="middle" x="1026" y="-32.12" font-family="Times New Roman,serif" font-size="10.00">CollideState</text>
</g>
<!-- node0031&#45;&gt;node0017 -->
<g id="edge32" class="edge">
<title>node0031&#45;&gt;node0017</title>
<path fill="none" stroke="black" d="M1001.76,-63.28C985.15,-81.28 962.95,-105.35 944.91,-124.91"/>
<polygon fill="black" stroke="black" points="942.44,-122.43 938.23,-132.15 947.58,-127.17 942.44,-122.43"/>
<text text-anchor="middle" x="985.64" y="-93.2" font-family="Times New Roman,serif" font-size="14.00">is a</text>
</g>
<!-- node0032 -->
<g id="node33" class="node">
<title>node0032</title>
<ellipse fill="none" stroke="black" cx="1116" cy="-36" rx="36" ry="36"/>
<text text-anchor="middle" x="1116" y="-32.12" font-family="Times New Roman,serif" font-size="10.00">SpillState</text>
</g>
<!-- node0032&#45;&gt;node0017 -->
<g id="edge33" class="edge">
<title>node0032&#45;&gt;node0017</title>
<path fill="none" stroke="black" d="M1088.58,-59.81C1082.93,-64.09 1076.89,-68.36 1071,-72 1040.82,-90.67 1031.25,-91.7 999,-106.5 980.91,-114.8 975.1,-114.31 958,-124.5 955.21,-126.16 952.4,-127.97 949.61,-129.87"/>
<polygon fill="black" stroke="black" points="947.63,-126.98 941.55,-135.65 951.72,-132.67 947.63,-126.98"/>
<text text-anchor="middle" x="1046.37" y="-93.2" font-family="Times New Roman,serif" font-size="14.00">is a</text>
</g>
</g>
</svg>
