<?xml version="1.0" encoding="UTF-8" standalone="no"?>
<!DOCTYPE svg PUBLIC "-//W3C//DTD SVG 1.1//EN"
 "http://www.w3.org/Graphics/SVG/1.1/DTD/svg11.dtd">
<!-- Generated by graphviz version 12.1.2 (20240928.0832)
 -->
<!-- Title: G Pages: 1 -->
<svg width="1700pt" height="454pt"
 viewBox="0.00 0.00 1700.00 453.50" xmlns="http://www.w3.org/2000/svg" xmlns:xlink="http://www.w3.org/1999/xlink">
<g id="graph0" class="graph" transform="scale(1 1) rotate(0) translate(4 449.5)">
<title>G</title>
<polygon fill="white" stroke="none" points="-4,4 -4,-449.5 1696,-449.5 1696,4 -4,4"/>
<!-- node0000 -->
<g id="node1" class="node">
<title>node0000</title>
<ellipse fill="none" stroke="black" cx="928" cy="-409.5" rx="36" ry="36"/>
<text text-anchor="middle" x="928" y="-405.62" font-family="Times New Roman,serif" font-size="10.00">Thing</text>
</g>
<!-- node0001 -->
<g id="node2" class="node">
<title>node0001</title>
<ellipse fill="none" stroke="black" cx="126" cy="-285" rx="36" ry="36"/>
<text text-anchor="middle" x="126" y="-281.12" font-family="Times New Roman,serif" font-size="10.00">&#45;28</text>
</g>
<!-- node0001&#45;&gt;node0000 -->
<g id="edge1" class="edge">
<title>node0001&#45;&gt;node0000</title>
<path fill="none" stroke="black" d="M152.22,-309.79C158.07,-314.09 164.48,-318.12 171,-321 253.2,-357.34 281.17,-343.57 370.25,-355.5 558.35,-380.68 783.72,-398.27 880.28,-405.21"/>
<polygon fill="black" stroke="black" points="879.94,-408.69 890.16,-405.91 880.44,-401.71 879.94,-408.69"/>
<text text-anchor="middle" x="379.62" y="-342.2" font-family="Times New Roman,serif" font-size="14.00">is a</text>
</g>
<!-- node0002 -->
<g id="node3" class="node">
<title>node0002</title>
<ellipse fill="none" stroke="black" cx="216" cy="-285" rx="36" ry="36"/>
<text text-anchor="middle" x="216" y="-281.12" font-family="Times New Roman,serif" font-size="10.00">Scenario</text>
</g>
<!-- node0002&#45;&gt;node0000 -->
<g id="edge2" class="edge">
<title>node0002&#45;&gt;node0000</title>
<path fill="none" stroke="black" d="M250.09,-297.57C297.07,-313.08 384.61,-340.4 461.25,-355.5 612.75,-385.36 795.48,-400.04 880.36,-405.67"/>
<polygon fill="black" stroke="black" points="879.96,-409.15 890.17,-406.3 880.41,-402.16 879.96,-409.15"/>
<text text-anchor="middle" x="470.62" y="-342.2" font-family="Times New Roman,serif" font-size="14.00">is a</text>
</g>
<!-- node0003 -->
<g id="node4" class="node">
<title>node0003</title>
<ellipse fill="none" stroke="black" cx="396" cy="-285" rx="36" ry="36"/>
<text text-anchor="middle" x="396" y="-281.12" font-family="Times New Roman,serif" font-size="10.00">ScenarioResilience</text>
</g>
<!-- node0003&#45;&gt;node0000 -->
<g id="edge3" class="edge">
<title>node0003&#45;&gt;node0000</title>
<path fill="none" stroke="black" d="M422.49,-309.23C428.32,-313.57 434.65,-317.76 441,-321 489.75,-345.91 505.74,-343.91 559.25,-355.5 673.47,-380.24 810.16,-396.46 880.69,-403.86"/>
<polygon fill="black" stroke="black" points="880.03,-407.31 890.34,-404.86 880.75,-400.35 880.03,-407.31"/>
<text text-anchor="middle" x="568.62" y="-342.2" font-family="Times New Roman,serif" font-size="14.00">is a</text>
</g>
<!-- node0004 -->
<g id="node5" class="node">
<title>node0004</title>
<ellipse fill="none" stroke="black" cx="486" cy="-285" rx="36" ry="36"/>
<text text-anchor="middle" x="486" y="-281.12" font-family="Times New Roman,serif" font-size="10.00">InvolvedScenarioElement</text>
</g>
<!-- node0004&#45;&gt;node0000 -->
<g id="edge4" class="edge">
<title>node0004&#45;&gt;node0000</title>
<path fill="none" stroke="black" d="M512.33,-309.56C518.17,-313.88 524.55,-317.97 531,-321 649.19,-376.5 803.89,-397.48 880.6,-404.85"/>
<polygon fill="black" stroke="black" points="880,-408.31 890.28,-405.74 880.64,-401.34 880,-408.31"/>
<text text-anchor="middle" x="623" y="-342.2" font-family="Times New Roman,serif" font-size="14.00">is a</text>
</g>
<!-- node0005 -->
<g id="node6" class="node">
<title>node0005</title>
<ellipse fill="none" stroke="black" cx="576" cy="-285" rx="36" ry="36"/>
<text text-anchor="middle" x="576" y="-281.12" font-family="Times New Roman,serif" font-size="10.00">ResilienceInfluentialFactors</text>
</g>
<!-- node0005&#45;&gt;node0000 -->
<g id="edge5" class="edge">
<title>node0005&#45;&gt;node0000</title>
<path fill="none" stroke="black" d="M610.07,-297.86C673.94,-320.09 811.66,-368.01 883.04,-392.85"/>
<polygon fill="black" stroke="black" points="881.89,-396.16 892.48,-396.14 884.19,-389.55 881.89,-396.16"/>
<text text-anchor="middle" x="782.45" y="-342.2" font-family="Times New Roman,serif" font-size="14.00">is a</text>
</g>
<!-- node0006 -->
<g id="node7" class="node">
<title>node0006</title>
<ellipse fill="none" stroke="black" cx="846" cy="-285" rx="36" ry="36"/>
<text text-anchor="middle" x="846" y="-281.12" font-family="Times New Roman,serif" font-size="10.00">ScenarioElement</text>
</g>
<!-- node0006&#45;&gt;node0000 -->
<g id="edge6" class="edge">
<title>node0006&#45;&gt;node0000</title>
<path fill="none" stroke="black" d="M865.64,-315.34C876.51,-331.59 890.17,-351.99 901.93,-369.55"/>
<polygon fill="black" stroke="black" points="898.92,-371.35 907.39,-377.72 904.74,-367.46 898.92,-371.35"/>
<text text-anchor="middle" x="901.28" y="-342.2" font-family="Times New Roman,serif" font-size="14.00">is a</text>
</g>
<!-- node0007 -->
<g id="node8" class="node">
<title>node0007</title>
<ellipse fill="none" stroke="black" cx="1026" cy="-285" rx="36" ry="36"/>
<text text-anchor="middle" x="1026" y="-281.12" font-family="Times New Roman,serif" font-size="10.00">ElementCompositions</text>
</g>
<!-- node0007&#45;&gt;node0000 -->
<g id="edge7" class="edge">
<title>node0007&#45;&gt;node0000</title>
<path fill="none" stroke="black" d="M1003.76,-313.8C989.98,-331.03 972.12,-353.35 957.21,-371.99"/>
<polygon fill="black" stroke="black" points="954.61,-369.64 951.1,-379.63 960.08,-374.01 954.61,-369.64"/>
<text text-anchor="middle" x="992.24" y="-342.2" font-family="Times New Roman,serif" font-size="14.00">is a</text>
</g>
<!-- node0008 -->
<g id="node9" class="node">
<title>node0008</title>
<ellipse fill="none" stroke="black" cx="1116" cy="-285" rx="36" ry="36"/>
<text text-anchor="middle" x="1116" y="-281.12" font-family="Times New Roman,serif" font-size="10.00">ElementState</text>
</g>
<!-- node0008&#45;&gt;node0000 -->
<g id="edge8" class="edge">
<title>node0008&#45;&gt;node0000</title>
<path fill="none" stroke="black" d="M1088.28,-308.34C1082.64,-312.66 1076.7,-317.06 1071,-321 1037.49,-344.18 997.86,-368.17 968.84,-385.16"/>
<polygon fill="black" stroke="black" points="967.23,-382.05 960.34,-390.1 970.75,-388.1 967.23,-382.05"/>
<text text-anchor="middle" x="1049.81" y="-342.2" font-family="Times New Roman,serif" font-size="14.00">is a</text>
</g>
<!-- node0009 -->
<g id="node10" class="node">
<title>node0009</title>
<ellipse fill="none" stroke="black" cx="1206" cy="-285" rx="36" ry="36"/>
<text text-anchor="middle" x="1206" y="-281.12" font-family="Times New Roman,serif" font-size="10.00">aidStates</text>
</g>
<!-- node0009&#45;&gt;node0000 -->
<g id="edge9" class="edge">
<title>node0009&#45;&gt;node0000</title>
<path fill="none" stroke="black" d="M1178.83,-309.22C1173.15,-313.47 1167.05,-317.62 1161,-321 1099.56,-355.38 1021.94,-381.44 973.63,-395.85"/>
<polygon fill="black" stroke="black" points="972.66,-392.48 964.05,-398.66 974.63,-399.2 972.66,-392.48"/>
<text text-anchor="middle" x="1134.2" y="-342.2" font-family="Times New Roman,serif" font-size="14.00">is a</text>
</g>
<!-- node0010 -->
<g id="node11" class="node">
<title>node0010</title>
<ellipse fill="none" stroke="black" cx="1296" cy="-285" rx="36" ry="36"/>
<text text-anchor="middle" x="1296" y="-281.12" font-family="Times New Roman,serif" font-size="10.00">firefightingStates</text>
</g>
<!-- node0010&#45;&gt;node0000 -->
<g id="edge10" class="edge">
<title>node0010&#45;&gt;node0000</title>
<path fill="none" stroke="black" d="M1268.92,-309.4C1263.24,-313.63 1257.11,-317.73 1251,-321 1160.19,-369.68 1040.18,-392.91 975.01,-402.58"/>
<polygon fill="black" stroke="black" points="974.79,-399.08 965.38,-403.97 975.78,-406.01 974.79,-399.08"/>
<text text-anchor="middle" x="1219.48" y="-342.2" font-family="Times New Roman,serif" font-size="14.00">is a</text>
</g>
<!-- node0011 -->
<g id="node12" class="node">
<title>node0011</title>
<ellipse fill="none" stroke="black" cx="1386" cy="-285" rx="36" ry="36"/>
<text text-anchor="middle" x="1386" y="-281.12" font-family="Times New Roman,serif" font-size="10.00">rescueStates</text>
</g>
<!-- node0011&#45;&gt;node0000 -->
<g id="edge11" class="edge">
<title>node0011&#45;&gt;node0000</title>
<path fill="none" stroke="black" d="M1358.96,-309.46C1353.27,-313.69 1347.13,-317.77 1341,-321 1219.72,-384.93 1055.18,-402.15 975.35,-406.79"/>
<polygon fill="black" stroke="black" points="975.51,-403.28 965.71,-407.31 975.88,-410.27 975.51,-403.28"/>
<text text-anchor="middle" x="1309.15" y="-342.2" font-family="Times New Roman,serif" font-size="14.00">is a</text>
</g>
<!-- node0012 -->
<g id="node13" class="node">
<title>node0012</title>
<ellipse fill="none" stroke="black" cx="1476" cy="-285" rx="36" ry="36"/>
<text text-anchor="middle" x="1476" y="-281.12" font-family="Times New Roman,serif" font-size="10.00">towStates</text>
</g>
<!-- node0012&#45;&gt;node0000 -->
<g id="edge12" class="edge">
<title>node0012&#45;&gt;node0000</title>
<path fill="none" stroke="black" d="M1448.96,-309.46C1443.27,-313.69 1437.13,-317.77 1431,-321 1386.42,-344.5 1372.16,-344.44 1323,-355.5 1199.17,-383.36 1049.99,-398.51 975.37,-404.85"/>
<polygon fill="black" stroke="black" points="975.23,-401.35 965.56,-405.67 975.81,-408.33 975.23,-401.35"/>
<text text-anchor="middle" x="1399.11" y="-342.2" font-family="Times New Roman,serif" font-size="14.00">is a</text>
</g>
<!-- node0013 -->
<g id="node14" class="node">
<title>node0013</title>
<ellipse fill="none" stroke="black" cx="36" cy="-160.5" rx="36" ry="36"/>
<text text-anchor="middle" x="36" y="-156.62" font-family="Times New Roman,serif" font-size="10.00">AdaptionScenario</text>
</g>
<!-- node0013&#45;&gt;node0002 -->
<g id="edge13" class="edge">
<title>node0013&#45;&gt;node0002</title>
<path fill="none" stroke="black" d="M63.66,-183.93C69.3,-188.24 75.26,-192.62 81,-196.5 119.36,-222.44 132.64,-223.06 171,-249 173.69,-250.82 176.43,-252.75 179.16,-254.73"/>
<polygon fill="black" stroke="black" points="177.02,-257.49 187.13,-260.66 181.2,-251.88 177.02,-257.49"/>
<text text-anchor="middle" x="149.61" y="-217.7" font-family="Times New Roman,serif" font-size="14.00">is a</text>
</g>
<!-- node0014 -->
<g id="node15" class="node">
<title>node0014</title>
<ellipse fill="none" stroke="black" cx="126" cy="-160.5" rx="36" ry="36"/>
<text text-anchor="middle" x="126" y="-156.62" font-family="Times New Roman,serif" font-size="10.00">AbsorptionScenario</text>
</g>
<!-- node0014&#45;&gt;node0002 -->
<g id="edge14" class="edge">
<title>node0014&#45;&gt;node0002</title>
<path fill="none" stroke="black" d="M147.1,-190.22C159.4,-206.96 175.06,-228.27 188.33,-246.34"/>
<polygon fill="black" stroke="black" points="185.39,-248.25 194.14,-254.24 191.03,-244.11 185.39,-248.25"/>
<text text-anchor="middle" x="185.76" y="-217.7" font-family="Times New Roman,serif" font-size="14.00">is a</text>
</g>
<!-- node0015 -->
<g id="node16" class="node">
<title>node0015</title>
<ellipse fill="none" stroke="black" cx="216" cy="-160.5" rx="36" ry="36"/>
<text text-anchor="middle" x="216" y="-156.62" font-family="Times New Roman,serif" font-size="10.00">RecoveryScenario</text>
</g>
<!-- node0015&#45;&gt;node0002 -->
<g id="edge15" class="edge">
<title>node0015&#45;&gt;node0002</title>
<path fill="none" stroke="black" d="M216,-196.93C216,-209.5 216,-223.85 216,-237.22"/>
<polygon fill="black" stroke="black" points="212.5,-237.13 216,-247.13 219.5,-237.13 212.5,-237.13"/>
<text text-anchor="middle" x="225.38" y="-217.7" font-family="Times New Roman,serif" font-size="14.00">is a</text>
</g>
<!-- node0016 -->
<g id="node17" class="node">
<title>node0016</title>
<ellipse fill="none" stroke="black" cx="306" cy="-160.5" rx="36" ry="36"/>
<text text-anchor="middle" x="306" y="-156.62" font-family="Times New Roman,serif" font-size="10.00">SafetyFactors</text>
</g>
<!-- node0016&#45;&gt;node0005 -->
<g id="edge16" class="edge">
<title>node0016&#45;&gt;node0005</title>
<path fill="none" stroke="black" d="M333.11,-184.83C338.8,-189.06 344.92,-193.18 351,-196.5 391.63,-218.66 404.74,-218.33 449.25,-231 485.03,-241.18 497.32,-233.19 531,-249 534.12,-250.47 537.23,-252.18 540.27,-254.05"/>
<polygon fill="black" stroke="black" points="538.18,-256.87 548.42,-259.59 542.12,-251.08 538.18,-256.87"/>
<text text-anchor="middle" x="458.62" y="-217.7" font-family="Times New Roman,serif" font-size="14.00">is a</text>
</g>
<!-- node0017 -->
<g id="node18" class="node">
<title>node0017</title>
<ellipse fill="none" stroke="black" cx="396" cy="-160.5" rx="36" ry="36"/>
<text text-anchor="middle" x="396" y="-156.62" font-family="Times New Roman,serif" font-size="10.00">FunctionFactors</text>
</g>
<!-- node0017&#45;&gt;node0005 -->
<g id="edge17" class="edge">
<title>node0017&#45;&gt;node0005</title>
<path fill="none" stroke="black" d="M423.66,-183.93C429.3,-188.24 435.26,-192.62 441,-196.5 479.36,-222.44 492.64,-223.06 531,-249 533.69,-250.82 536.43,-252.75 539.16,-254.73"/>
<polygon fill="black" stroke="black" points="537.02,-257.49 547.13,-260.66 541.2,-251.88 537.02,-257.49"/>
<text text-anchor="middle" x="509.61" y="-217.7" font-family="Times New Roman,serif" font-size="14.00">is a</text>
</g>
<!-- node0018 -->
<g id="node19" class="node">
<title>node0018</title>
<ellipse fill="none" stroke="black" cx="486" cy="-160.5" rx="36" ry="36"/>
<text text-anchor="middle" x="486" y="-156.62" font-family="Times New Roman,serif" font-size="10.00">EconomicFactors</text>
</g>
<!-- node0018&#45;&gt;node0005 -->
<g id="edge18" class="edge">
<title>node0018&#45;&gt;node0005</title>
<path fill="none" stroke="black" d="M507.1,-190.22C519.4,-206.96 535.06,-228.27 548.33,-246.34"/>
<polygon fill="black" stroke="black" points="545.39,-248.25 554.14,-254.24 551.03,-244.11 545.39,-248.25"/>
<text text-anchor="middle" x="545.76" y="-217.7" font-family="Times New Roman,serif" font-size="14.00">is a</text>
</g>
<!-- node0019 -->
<g id="node20" class="node">
<title>node0019</title>
<ellipse fill="none" stroke="black" cx="576" cy="-160.5" rx="36" ry="36"/>
<text text-anchor="middle" x="576" y="-156.62" font-family="Times New Roman,serif" font-size="10.00">TimeFactors</text>
</g>
<!-- node0019&#45;&gt;node0005 -->
<g id="edge19" class="edge">
<title>node0019&#45;&gt;node0005</title>
<path fill="none" stroke="black" d="M576,-196.93C576,-209.5 576,-223.85 576,-237.22"/>
<polygon fill="black" stroke="black" points="572.5,-237.13 576,-247.13 579.5,-237.13 572.5,-237.13"/>
<text text-anchor="middle" x="585.38" y="-217.7" font-family="Times New Roman,serif" font-size="14.00">is a</text>
</g>
<!-- node0020 -->
<g id="node21" class="node">
<title>node0020</title>
<ellipse fill="none" stroke="black" cx="666" cy="-160.5" rx="36" ry="36"/>
<text text-anchor="middle" x="666" y="-156.62" font-family="Times New Roman,serif" font-size="10.00">AffectedElement</text>
</g>
<!-- node0020&#45;&gt;node0006 -->
<g id="edge20" class="edge">
<title>node0020&#45;&gt;node0006</title>
<path fill="none" stroke="black" d="M693.8,-183.72C699.43,-188.05 705.35,-192.49 711,-196.5 742.22,-218.7 778.74,-242.23 805.92,-259.29"/>
<polygon fill="black" stroke="black" points="803.86,-262.13 814.2,-264.46 807.57,-256.2 803.86,-262.13"/>
<text text-anchor="middle" x="767.9" y="-217.7" font-family="Times New Roman,serif" font-size="14.00">is a</text>
</g>
<!-- node0021 -->
<g id="node22" class="node">
<title>node0021</title>
<ellipse fill="none" stroke="black" cx="846" cy="-160.5" rx="36" ry="36"/>
<text text-anchor="middle" x="846" y="-156.62" font-family="Times New Roman,serif" font-size="10.00">HazardElement</text>
</g>
<!-- node0021&#45;&gt;node0006 -->
<g id="edge21" class="edge">
<title>node0021&#45;&gt;node0006</title>
<path fill="none" stroke="black" d="M846,-196.93C846,-209.5 846,-223.85 846,-237.22"/>
<polygon fill="black" stroke="black" points="842.5,-237.13 846,-247.13 849.5,-237.13 842.5,-237.13"/>
<text text-anchor="middle" x="855.38" y="-217.7" font-family="Times New Roman,serif" font-size="14.00">is a</text>
</g>
<!-- node0022 -->
<g id="node23" class="node">
<title>node0022</title>
<ellipse fill="none" stroke="black" cx="756" cy="-160.5" rx="36" ry="36"/>
<text text-anchor="middle" x="756" y="-156.62" font-family="Times New Roman,serif" font-size="10.00">EnvironmentElement</text>
</g>
<!-- node0022&#45;&gt;node0006 -->
<g id="edge22" class="edge">
<title>node0022&#45;&gt;node0006</title>
<path fill="none" stroke="black" d="M777.1,-190.22C789.4,-206.96 805.06,-228.27 818.33,-246.34"/>
<polygon fill="black" stroke="black" points="815.39,-248.25 824.14,-254.24 821.03,-244.11 815.39,-248.25"/>
<text text-anchor="middle" x="815.76" y="-217.7" font-family="Times New Roman,serif" font-size="14.00">is a</text>
</g>
<!-- node0023 -->
<g id="node24" class="node">
<title>node0023</title>
<ellipse fill="none" stroke="black" cx="936" cy="-160.5" rx="36" ry="36"/>
<text text-anchor="middle" x="936" y="-156.62" font-family="Times New Roman,serif" font-size="10.00">ResponsePlanElement</text>
</g>
<!-- node0023&#45;&gt;node0006 -->
<g id="edge23" class="edge">
<title>node0023&#45;&gt;node0006</title>
<path fill="none" stroke="black" d="M914.9,-190.22C902.6,-206.96 886.94,-228.27 873.67,-246.34"/>
<polygon fill="black" stroke="black" points="870.97,-244.11 867.86,-254.24 876.61,-248.25 870.97,-244.11"/>
<text text-anchor="middle" x="905.76" y="-217.7" font-family="Times New Roman,serif" font-size="14.00">is a</text>
</g>
<!-- node0024 -->
<g id="node25" class="node">
<title>node0024</title>
<ellipse fill="none" stroke="black" cx="1026" cy="-160.5" rx="36" ry="36"/>
<text text-anchor="middle" x="1026" y="-156.62" font-family="Times New Roman,serif" font-size="10.00">VehicleCargo</text>
</g>
<!-- node0024&#45;&gt;node0007 -->
<g id="edge24" class="edge">
<title>node0024&#45;&gt;node0007</title>
<path fill="none" stroke="black" d="M1026,-196.93C1026,-209.5 1026,-223.85 1026,-237.22"/>
<polygon fill="black" stroke="black" points="1022.5,-237.13 1026,-247.13 1029.5,-237.13 1022.5,-237.13"/>
<text text-anchor="middle" x="1035.38" y="-217.7" font-family="Times New Roman,serif" font-size="14.00">is a</text>
</g>
<!-- node0025 -->
<g id="node26" class="node">
<title>node0025</title>
<ellipse fill="none" stroke="black" cx="1116" cy="-160.5" rx="36" ry="36"/>
<text text-anchor="middle" x="1116" y="-156.62" font-family="Times New Roman,serif" font-size="10.00">VehiclePassengers</text>
</g>
<!-- node0025&#45;&gt;node0007 -->
<g id="edge25" class="edge">
<title>node0025&#45;&gt;node0007</title>
<path fill="none" stroke="black" d="M1094.9,-190.22C1082.6,-206.96 1066.94,-228.27 1053.67,-246.34"/>
<polygon fill="black" stroke="black" points="1050.97,-244.11 1047.86,-254.24 1056.61,-248.25 1050.97,-244.11"/>
<text text-anchor="middle" x="1085.76" y="-217.7" font-family="Times New Roman,serif" font-size="14.00">is a</text>
</g>
<!-- node0026 -->
<g id="node27" class="node">
<title>node0026</title>
<ellipse fill="none" stroke="black" cx="1206" cy="-160.5" rx="36" ry="36"/>
<text text-anchor="middle" x="1206" y="-156.62" font-family="Times New Roman,serif" font-size="10.00">VehicleComponents</text>
</g>
<!-- node0026&#45;&gt;node0007 -->
<g id="edge26" class="edge">
<title>node0026&#45;&gt;node0007</title>
<path fill="none" stroke="black" d="M1178.34,-183.93C1172.7,-188.24 1166.74,-192.62 1161,-196.5 1122.64,-222.44 1109.36,-223.06 1071,-249 1068.31,-250.82 1065.57,-252.75 1062.84,-254.73"/>
<polygon fill="black" stroke="black" points="1060.8,-251.88 1054.87,-260.66 1064.98,-257.49 1060.8,-251.88"/>
<text text-anchor="middle" x="1139.61" y="-217.7" font-family="Times New Roman,serif" font-size="14.00">is a</text>
</g>
<!-- node0027 -->
<g id="node28" class="node">
<title>node0027</title>
<ellipse fill="none" stroke="black" cx="1296" cy="-160.5" rx="36" ry="36"/>
<text text-anchor="middle" x="1296" y="-156.62" font-family="Times New Roman,serif" font-size="10.00">AffectedStates</text>
</g>
<!-- node0027&#45;&gt;node0008 -->
<g id="edge27" class="edge">
<title>node0027&#45;&gt;node0008</title>
<path fill="none" stroke="black" d="M1268.34,-183.93C1262.7,-188.24 1256.74,-192.62 1251,-196.5 1212.64,-222.44 1199.36,-223.06 1161,-249 1158.31,-250.82 1155.57,-252.75 1152.84,-254.73"/>
<polygon fill="black" stroke="black" points="1150.8,-251.88 1144.87,-260.66 1154.98,-257.49 1150.8,-251.88"/>
<text text-anchor="middle" x="1229.61" y="-217.7" font-family="Times New Roman,serif" font-size="14.00">is a</text>
</g>
<!-- node0028 -->
<g id="node29" class="node">
<title>node0028</title>
<ellipse fill="none" stroke="black" cx="1431" cy="-160.5" rx="36" ry="36"/>
<text text-anchor="middle" x="1431" y="-156.62" font-family="Times New Roman,serif" font-size="10.00">HazardStates</text>
</g>
<!-- node0028&#45;&gt;node0008 -->
<g id="edge28" class="edge">
<title>node0028&#45;&gt;node0008</title>
<path fill="none" stroke="black" d="M1397.76,-174.72C1380.82,-181.39 1359.87,-189.51 1341,-196.5 1297.7,-212.54 1287.41,-218.36 1243,-231 1207.11,-241.21 1194.78,-233.16 1161,-249 1157.87,-250.47 1154.77,-252.18 1151.73,-254.05"/>
<polygon fill="black" stroke="black" points="1149.88,-251.07 1143.58,-259.59 1153.82,-256.86 1149.88,-251.07"/>
<text text-anchor="middle" x="1301.79" y="-217.7" font-family="Times New Roman,serif" font-size="14.00">is a</text>
</g>
<!-- node0029 -->
<g id="node30" class="node">
<title>node0029</title>
<ellipse fill="none" stroke="black" cx="1521" cy="-160.5" rx="36" ry="36"/>
<text text-anchor="middle" x="1521" y="-156.62" font-family="Times New Roman,serif" font-size="10.00">idleState</text>
</g>
<!-- node0029&#45;&gt;node0009 -->
<g id="edge29" class="edge">
<title>node0029&#45;&gt;node0009</title>
<path fill="none" stroke="black" d="M1494.64,-185C1488.81,-189.32 1482.43,-193.43 1476,-196.5 1429.66,-218.61 1297.34,-226.89 1251,-249 1247.88,-250.49 1244.78,-252.22 1241.75,-254.1"/>
<polygon fill="black" stroke="black" points="1239.9,-251.13 1233.61,-259.65 1243.84,-256.91 1239.9,-251.13"/>
<text text-anchor="middle" x="1415.05" y="-217.7" font-family="Times New Roman,serif" font-size="14.00">is a</text>
</g>
<!-- node0030 -->
<g id="node31" class="node">
<title>node0030</title>
<ellipse fill="none" stroke="black" cx="1611" cy="-160.5" rx="36" ry="36"/>
<text text-anchor="middle" x="1611" y="-156.62" font-family="Times New Roman,serif" font-size="10.00">implementState</text>
</g>
<!-- node0030&#45;&gt;node0009 -->
<g id="edge30" class="edge">
<title>node0030&#45;&gt;node0009</title>
<path fill="none" stroke="black" d="M1584.61,-184.92C1578.77,-189.25 1572.41,-193.38 1566,-196.5 1509.16,-224.17 1490.28,-220.11 1428,-231 1350.11,-244.62 1324.4,-219.58 1251,-249 1247.8,-250.28 1244.63,-251.87 1241.55,-253.65"/>
<polygon fill="black" stroke="black" points="1239.78,-250.62 1233.34,-259.03 1243.62,-256.47 1239.78,-250.62"/>
<text text-anchor="middle" x="1529.8" y="-217.7" font-family="Times New Roman,serif" font-size="14.00">is a</text>
</g>
<!-- node0031 -->
<g id="node32" class="node">
<title>node0031</title>
<ellipse fill="none" stroke="black" cx="576" cy="-36" rx="36" ry="36"/>
<text text-anchor="middle" x="576" y="-32.12" font-family="Times New Roman,serif" font-size="10.00">324</text>
</g>
<!-- node0031&#45;&gt;node0020 -->
<g id="edge31" class="edge">
<title>node0031&#45;&gt;node0020</title>
<path fill="none" stroke="black" d="M572.39,-72.29C572.85,-84.07 575.35,-96.69 582.25,-106.5 593.17,-122.03 604.79,-114.61 621,-124.5 623.77,-126.19 626.57,-128.02 629.35,-129.94"/>
<polygon fill="black" stroke="black" points="627.24,-132.73 637.39,-135.75 631.34,-127.05 627.24,-132.73"/>
<text text-anchor="middle" x="591.62" y="-93.2" font-family="Times New Roman,serif" font-size="14.00">is a</text>
</g>
<!-- node0031&#45;&gt;node0022 -->
<g id="edge32" class="edge">
<title>node0031&#45;&gt;node0022</title>
<path fill="none" stroke="black" d="M591.64,-68.89C599.85,-82.46 611.15,-97.25 625.25,-106.5 657.81,-127.86 675.67,-108.13 711,-124.5 714.13,-125.95 717.25,-127.66 720.29,-129.52"/>
<polygon fill="black" stroke="black" points="718.2,-132.33 728.44,-135.04 722.13,-126.54 718.2,-132.33"/>
<text text-anchor="middle" x="634.62" y="-93.2" font-family="Times New Roman,serif" font-size="14.00">is a</text>
</g>
<!-- node0032 -->
<g id="node33" class="node">
<title>node0032</title>
<ellipse fill="none" stroke="black" cx="666" cy="-36" rx="36" ry="36"/>
<text text-anchor="middle" x="666" y="-32.12" font-family="Times New Roman,serif" font-size="10.00">435</text>
</g>
<!-- node0032&#45;&gt;node0021 -->
<g id="edge33" class="edge">
<title>node0032&#45;&gt;node0021</title>
<path fill="none" stroke="black" d="M693.66,-59.43C699.3,-63.74 705.26,-68.12 711,-72 730.18,-84.97 781.82,-111.53 801,-124.5 803.69,-126.32 806.43,-128.25 809.16,-130.23"/>
<polygon fill="black" stroke="black" points="807.02,-132.99 817.13,-136.16 811.2,-127.38 807.02,-132.99"/>
<text text-anchor="middle" x="780.07" y="-93.2" font-family="Times New Roman,serif" font-size="14.00">is a</text>
</g>
<!-- node0033 -->
<g id="node34" class="node">
<title>node0033</title>
<ellipse fill="none" stroke="black" cx="756" cy="-36" rx="36" ry="36"/>
<text text-anchor="middle" x="756" y="-32.12" font-family="Times New Roman,serif" font-size="10.00">HazardVehicle</text>
</g>
<!-- node0033&#45;&gt;node0021 -->
<g id="edge34" class="edge">
<title>node0033&#45;&gt;node0021</title>
<path fill="none" stroke="black" d="M776.36,-66.26C785.14,-78.74 795.59,-93.41 805.25,-106.5 809.14,-111.76 813.29,-117.28 817.4,-122.68"/>
<polygon fill="black" stroke="black" points="814.45,-124.58 823.3,-130.4 820,-120.33 814.45,-124.58"/>
<text text-anchor="middle" x="814.62" y="-93.2" font-family="Times New Roman,serif" font-size="14.00">is a</text>
</g>
<!-- node0034 -->
<g id="node35" class="node">
<title>node0034</title>
<ellipse fill="none" stroke="black" cx="846" cy="-36" rx="36" ry="36"/>
<text text-anchor="middle" x="846" y="-32.12" font-family="Times New Roman,serif" font-size="10.00">32</text>
</g>
<!-- node0034&#45;&gt;node0023 -->
<g id="edge35" class="edge">
<title>node0034&#45;&gt;node0023</title>
<path fill="none" stroke="black" d="M867.1,-65.72C879.4,-82.46 895.06,-103.77 908.33,-121.84"/>
<polygon fill="black" stroke="black" points="905.39,-123.75 914.14,-129.74 911.03,-119.61 905.39,-123.75"/>
<text text-anchor="middle" x="905.76" y="-93.2" font-family="Times New Roman,serif" font-size="14.00">is a</text>
</g>
<!-- node0035 -->
<g id="node36" class="node">
<title>node0035</title>
<ellipse fill="none" stroke="black" cx="936" cy="-36" rx="36" ry="36"/>
<text text-anchor="middle" x="936" y="-32.12" font-family="Times New Roman,serif" font-size="10.00">66</text>
</g>
<!-- node0035&#45;&gt;node0023 -->
<g id="edge36" class="edge">
<title>node0035&#45;&gt;node0023</title>
<path fill="none" stroke="black" d="M936,-72.43C936,-85 936,-99.35 936,-112.72"/>
<polygon fill="black" stroke="black" points="932.5,-112.63 936,-122.63 939.5,-112.63 932.5,-112.63"/>
<text text-anchor="middle" x="945.38" y="-93.2" font-family="Times New Roman,serif" font-size="14.00">is a</text>
</g>
<!-- node0036 -->
<g id="node37" class="node">
<title>node0036</title>
<ellipse fill="none" stroke="black" cx="1026" cy="-36" rx="36" ry="36"/>
<text text-anchor="middle" x="1026" y="-32.12" font-family="Times New Roman,serif" font-size="10.00">ResponseResource</text>
</g>
<!-- node0036&#45;&gt;node0023 -->
<g id="edge37" class="edge">
<title>node0036&#45;&gt;node0023</title>
<path fill="none" stroke="black" d="M1004.9,-65.72C992.6,-82.46 976.94,-103.77 963.67,-121.84"/>
<polygon fill="black" stroke="black" points="960.97,-119.61 957.86,-129.74 966.61,-123.75 960.97,-119.61"/>
<text text-anchor="middle" x="995.76" y="-93.2" font-family="Times New Roman,serif" font-size="14.00">is a</text>
</g>
<!-- node0037 -->
<g id="node38" class="node">
<title>node0037</title>
<ellipse fill="none" stroke="black" cx="1116" cy="-36" rx="36" ry="36"/>
<text text-anchor="middle" x="1116" y="-32.12" font-family="Times New Roman,serif" font-size="10.00">ResponseAction</text>
</g>
<!-- node0037&#45;&gt;node0023 -->
<g id="edge38" class="edge">
<title>node0037&#45;&gt;node0023</title>
<path fill="none" stroke="black" d="M1088.34,-59.43C1082.7,-63.74 1076.74,-68.12 1071,-72 1032.64,-97.94 1019.36,-98.56 981,-124.5 978.31,-126.32 975.57,-128.25 972.84,-130.23"/>
<polygon fill="black" stroke="black" points="970.8,-127.38 964.87,-136.16 974.98,-132.99 970.8,-127.38"/>
<text text-anchor="middle" x="1049.61" y="-93.2" font-family="Times New Roman,serif" font-size="14.00">is a</text>
</g>
<!-- node0038 -->
<g id="node39" class="node">
<title>node0038</title>
<ellipse fill="none" stroke="black" cx="1206" cy="-36" rx="36" ry="36"/>
<text text-anchor="middle" x="1206" y="-32.12" font-family="Times New Roman,serif" font-size="10.00">CollidedState</text>
</g>
<!-- node0038&#45;&gt;node0027 -->
<g id="edge39" class="edge">
<title>node0038&#45;&gt;node0027</title>
<path fill="none" stroke="black" d="M1227.1,-65.72C1239.4,-82.46 1255.06,-103.77 1268.33,-121.84"/>
<polygon fill="black" stroke="black" points="1265.39,-123.75 1274.14,-129.74 1271.03,-119.61 1265.39,-123.75"/>
<text text-anchor="middle" x="1265.76" y="-93.2" font-family="Times New Roman,serif" font-size="14.00">is a</text>
</g>
<!-- node0039 -->
<g id="node40" class="node">
<title>node0039</title>
<ellipse fill="none" stroke="black" cx="1296" cy="-36" rx="36" ry="36"/>
<text text-anchor="middle" x="1296" y="-32.12" font-family="Times New Roman,serif" font-size="10.00">ExplodeState</text>
</g>
<!-- node0039&#45;&gt;node0027 -->
<g id="edge40" class="edge">
<title>node0039&#45;&gt;node0027</title>
<path fill="none" stroke="black" d="M1296,-72.43C1296,-85 1296,-99.35 1296,-112.72"/>
<polygon fill="black" stroke="black" points="1292.5,-112.63 1296,-122.63 1299.5,-112.63 1292.5,-112.63"/>
<text text-anchor="middle" x="1305.38" y="-93.2" font-family="Times New Roman,serif" font-size="14.00">is a</text>
</g>
<!-- node0040 -->
<g id="node41" class="node">
<title>node0040</title>
<ellipse fill="none" stroke="black" cx="1386" cy="-36" rx="36" ry="36"/>
<text text-anchor="middle" x="1386" y="-32.12" font-family="Times New Roman,serif" font-size="10.00">DrivingState</text>
</g>
<!-- node0040&#45;&gt;node0027 -->
<g id="edge41" class="edge">
<title>node0040&#45;&gt;node0027</title>
<path fill="none" stroke="black" d="M1364.9,-65.72C1352.6,-82.46 1336.94,-103.77 1323.67,-121.84"/>
<polygon fill="black" stroke="black" points="1320.97,-119.61 1317.86,-129.74 1326.61,-123.75 1320.97,-119.61"/>
<text text-anchor="middle" x="1355.76" y="-93.2" font-family="Times New Roman,serif" font-size="14.00">is a</text>
</g>
<!-- node0041 -->
<g id="node42" class="node">
<title>node0041</title>
<ellipse fill="none" stroke="black" cx="1476" cy="-36" rx="36" ry="36"/>
<text text-anchor="middle" x="1476" y="-32.12" font-family="Times New Roman,serif" font-size="10.00">DriveState</text>
</g>
<!-- node0041&#45;&gt;node0028 -->
<g id="edge42" class="edge">
<title>node0041&#45;&gt;node0028</title>
<path fill="none" stroke="black" d="M1463.82,-70.15C1458.67,-84.18 1452.6,-100.71 1447.08,-115.72"/>
<polygon fill="black" stroke="black" points="1443.87,-114.31 1443.71,-124.9 1450.44,-116.72 1443.87,-114.31"/>
<text text-anchor="middle" x="1465.57" y="-93.2" font-family="Times New Roman,serif" font-size="14.00">is a</text>
</g>
<!-- node0042 -->
<g id="node43" class="node">
<title>node0042</title>
<ellipse fill="none" stroke="black" cx="1566" cy="-36" rx="36" ry="36"/>
<text text-anchor="middle" x="1566" y="-32.12" font-family="Times New Roman,serif" font-size="10.00">CollideState</text>
</g>
<!-- node0042&#45;&gt;node0028 -->
<g id="edge43" class="edge">
<title>node0042&#45;&gt;node0028</title>
<path fill="none" stroke="black" d="M1539.65,-60.91C1518.56,-80.05 1488.8,-107.06 1465.75,-127.96"/>
<polygon fill="black" stroke="black" points="1463.46,-125.32 1458.4,-134.63 1468.16,-130.51 1463.46,-125.32"/>
<text text-anchor="middle" x="1515.96" y="-93.2" font-family="Times New Roman,serif" font-size="14.00">is a</text>
</g>
<!-- node0043 -->
<g id="node44" class="node">
<title>node0043</title>
<ellipse fill="none" stroke="black" cx="1656" cy="-36" rx="36" ry="36"/>
<text text-anchor="middle" x="1656" y="-32.12" font-family="Times New Roman,serif" font-size="10.00">SpillState</text>
</g>
<!-- node0043&#45;&gt;node0028 -->
<g id="edge44" class="edge">
<title>node0043&#45;&gt;node0028</title>
<path fill="none" stroke="black" d="M1628.72,-60.04C1623.05,-64.3 1616.98,-68.5 1611,-72 1576.88,-91.98 1565.96,-92.47 1529,-106.5 1505.74,-115.33 1497.9,-112.7 1476,-124.5 1473.14,-126.04 1470.28,-127.76 1467.45,-129.59"/>
<polygon fill="black" stroke="black" points="1465.53,-126.67 1459.33,-135.26 1469.53,-132.41 1465.53,-126.67"/>
<text text-anchor="middle" x="1583.22" y="-93.2" font-family="Times New Roman,serif" font-size="14.00">is a</text>
</g>
</g>
</svg>
